<svg version="1.1" id="图层_1" xmlns="http://www.w3.org/2000/svg" xmlns:xlink="http://www.w3.org/1999/xlink" x="0" y="0" width="960" height="640" viewBox="0 0 960 640" xml:space="preserve"><g id="gesture"><path fill="#562F2F" d="M449.914 265.438l-8.59-7.463c-1.16-1.007-.538-.973.513-2.182l5.1-5.87 1.452-1.67c.45-.52-.425-.357-.377.32l.39 5.532c.27 3.855.54 7.71.812 11.565.014.203.742.058.725-.194l-1.24-17.64c-.018-.245-.62.013-.697.1l-8.2 9.438c-.033.037-.047.096-.005.132l9.44 8.203c.177.153.847-.124.676-.272z"/><path fill="#562F2F" d="M449.305 259.063h133.308c.29 0 1.646-.57.945-.57H450.25c-.29 0-1.646.57-.945.57zM449.305 255.563h133.308c.29 0 1.646-.57.945-.57H450.25c-.29 0-1.646.57-.945.57z"/><g id="hand"><path fill="#FFF" d="M600.974 271.972c0-1.564-1.268-2.832-2.83-2.832-1.565 0-2.833 1.268-2.833 2.832l.002.005v-.005c0-1.564-1.27-2.832-2.83-2.832-1.565 0-2.833 1.268-2.833 2.832v0c0-1.564-1.27-2.832-2.832-2.832-1.51 0-2.74 1.184-2.823 2.673V257.37c0-1.708-1.385-3.092-3.093-3.092s-3.093 1.385-3.093 3.092v36.067h23.164v-21.46-.005z"/><path fill="#562F2F" d="M600.866 272.674c-.793-3.928-5.357-3.554-6.095.096.236-1.164-.313-2.873-2.476-2.958-.646-.026-1.955.36-2.356.957-1.188 1.76-.204 2.863-.62.802-.246-1.218-1.68-1.56-2.647-1.755-.713-.144-1.82.413-2.32.88-.7.65-.463 2.422-.463 1.087v-3.608-8.844c0-3.65-2.622-5.444-5.664-3.394-1.894 1.276-.957 7.12-.957 8.836v29.482c0 .027.064.03.077.03h23.165c.076 0 .358-.03.358-.146v-21.466c0-.072-.436-.01-.436.116v18.978c0 1.222.252 2.34-.123 2.34h-14.53c-2.033 0-8.076 1.292-8.076-1.164v-29.78-4.548c0-3.665 5.75-3.228 5.75.304v13.71c0 .08.41-.003.433-.095.627-2.49 5.223-2.477 5.223.26 0 .026.064.03.077.03.06 0 .38-.04.36-.147-.55-2.74 5.766-2.59 5.228.096-.008.043.04.05.074.05.077 0 .36-.03.36-.146 0-2.82 4.72-2.4 5.226.11.02.096.457-.008.436-.114z"/></g></g><path opacity=".5" fill="#AEDECC" d="M980.244 631.425C896.702 528.273 700.39 433.767 479.338 433.767c-221.054 0-438.55 94.8-530 212.936l1030.906-15.278z" id="p0_light"/><g id="p0_earth"><path fill="#FFF" d="M1006.08 641.553C922.54 538.4 728.087 466.36 507.034 466.36c-221.054 0-411.08 72.04-494.622 175.19l993.67.003z"/><path fill="#552E2E" d="M988.986 641.236c-56.297-66.202-139.718-106.082-221.15-131.73-106.937-33.68-221.224-44.17-332.845-37.298-103.83 6.393-209.067 28.682-302.7 75.09-47.13 23.36-92.176 53.73-126.46 94.048-.378.444.127.73.537.73h981.89c.82 0 1.117-1.042.133-1.042H6.658c.334 0 1.793-.937 2.523-1.778 6.154-7.118 12.715-13.878 19.523-20.37 31.17-29.725 68.188-53.007 106.7-71.977 95.84-47.21 203.903-68.68 310.016-74.262 112.98-5.943 228.54 6.438 336.043 42.528 76.13 25.56 153.354 64.563 206.19 126.693.42.493 1.8-.08 1.33-.634z" opacity=".5"/></g><g id="p0_bub1"><circle fill="#FBDB8D" cx="161.372" cy="244.743" r="56.834"/><path fill="#552F2E" d="M212.483 244.773c-.302 24.962-16.447 46.832-40.35 54.228-24.03 7.435-50.162-3.163-63.72-23.868-13.546-20.683-10.978-48.39 4.623-67.13 16.658-20.01 45.72-25.115 68.7-13.607 18.913 9.472 30.494 29.472 30.747 50.378.004.37.736.25.732-.06-.26-21.42-11.988-40.69-30.918-50.726-17.94-9.51-40.026-7.945-57.066 2.663-17.8 11.082-27.51 31.68-26.26 52.368 1.282 21.163 15.277 39.707 34.408 48.196 17.252 7.656 37.573 5.482 53.422-4.383 16.5-10.27 26.184-28.883 26.417-48.12.003-.366-.73-.248-.734.063z"/><image xmlns="http://www.w3.org/2000/svg" overflow="visible" width="71" height="42" xmlns:xlink="http://www.w3.org/1999/xlink" xlink:href="./images/70A9357E.png" transform="translate(121.085 224.62)"/></g><g id="p0_bub2"><circle fill="#8E99F7" cx="393.555" cy="107.433" r="56.834"/><path fill="#552F2E" d="M444.67 107.53c-.307 25.413-17.07 47.68-41.612 54.64-24.654 6.99-50.983-4.855-63.79-26.528-12.125-20.515-9.068-46.992 5.98-65.07 17.288-20.766 47.68-25.325 70.917-12.307 17.698 9.914 28.263 29.21 28.505 49.265.002.14.728.026.726-.194-.27-22.3-13.056-42.213-33.224-51.733-17.55-8.283-38.515-6.263-54.8 3.875-18.168 11.31-27.89 32.526-26.102 53.606 1.826 21.528 16.784 39.992 36.663 47.72 16.765 6.518 35.983 3.986 51.092-5.418 16.482-10.26 26.138-28.833 26.37-48.05 0-.136-.722-.03-.725.194z"/><image xmlns="http://www.w3.org/2000/svg" overflow="visible" width="75" height="69" xmlns:xlink="http://www.w3.org/1999/xlink" xlink:href="./images/70A93582.png" transform="translate(347.986 70.93)"/></g><g id="p0_bub3"><circle fill="#EF7477" cx="625.738" cy="107.433" r="56.834"/><path fill="#552F2E" d="M676.85 107.457c-.303 24.964-16.46 46.817-40.355 54.21-24.023 7.432-50.156-3.146-63.716-23.852-13.546-20.683-10.97-48.37 4.63-67.106C593.78 51.04 622.164 45.766 645 56.543c19.518 9.213 31.592 29.6 31.85 50.913.005.394.74.293.735-.05-.25-20.64-11.393-40.387-29.834-50.164-18.44-9.777-40.46-8.94-58.158 2.077-17.493 10.89-27.996 31.864-26.255 52.388 1.803 21.26 14.928 39.566 34.41 48.213 17.26 7.66 37.57 5.49 53.425-4.378 16.502-10.27 26.18-28.898 26.413-48.134.005-.393-.73-.294-.736.05z"/><image xmlns="http://www.w3.org/2000/svg" overflow="visible" width="77" height="71" xmlns:xlink="http://www.w3.org/1999/xlink" xlink:href="./images/70A93585.png" transform="translate(584 75)"/></g><g id="p0_bub4" xmlns="http://www.w3.org/2000/svg"><circle fill="#99CBBB" cx="857.922" cy="244.743" r="56.834"/><path fill="#552F2E" d="M909.036 244.84c-.31 25.413-17.063 47.688-41.61 54.648-24.657 6.993-50.984-4.865-63.793-26.537-12.123-20.512-9.067-46.995 5.98-65.072 17.29-20.77 47.674-25.327 70.917-12.306 17.7 9.918 28.264 29.215 28.506 49.27.002.125.728.015.725-.194-.27-22.3-13.055-42.212-33.22-51.73-17.544-8.28-38.52-6.255-54.8 3.88-18.17 11.31-27.892 32.518-26.104 53.6 1.826 21.53 16.783 39.985 36.662 47.714 16.762 6.517 35.986 3.98 51.092-5.42 16.48-10.26 26.14-28.826 26.37-48.043.002-.12-.72-.02-.724.192z"/><image xmlns="http://www.w3.org/2000/svg" xmlns:xlink="http://www.w3.org/1999/xlink" overflow="visible" width="96" height="87" xlink:href="./images/70A93586.png" transform="translate(803.74 199.24)"/></g><g id="p0_tri1"><path fill="#E4DEDE" d="M-3.18-11.627L8.965-1.077l-10.55 12.14z"/><path fill="#552F2E" d="M-5.166-9.98L5.884-.383c1.5 1.304.66 1.326-.66 2.845l-6.56 7.55-1.87 2.15c-.526.607.344.428.286-.386l-.5-7.115c-.35-4.958-.697-9.917-1.046-14.876-.015-.203-.742-.058-.725.194.53 7.564 1.062 15.128 1.595 22.692.018.244.62-.014.696-.1C.62 8.523 4.136 4.476 7.65.43c.032-.037.046-.096.004-.132L-4.49-10.252c-.177-.154-.847.123-.676.27z"/></g><g id="p0_tri2"><path fill="#E47174" d="M-3.18-11.627L8.965-1.077l-10.55 12.14z"/><path fill="#552F2E" d="M-5.166-9.98L5.884-.383c1.5 1.304.66 1.326-.66 2.845l-6.56 7.55-1.87 2.15c-.526.607.344.428.286-.386l-.5-7.115c-.35-4.958-.697-9.917-1.046-14.876-.015-.203-.742-.058-.725.194.53 7.564 1.062 15.128 1.595 22.692.018.244.62-.014.696-.1C.62 8.523 4.136 4.476 7.65.43c.032-.037.046-.096.004-.132L-4.49-10.252c-.177-.154-.847.123-.676.27z"/></g><g id="p0_tri3"><path fill="#8EDECA" d="M-3.18-11.627L8.965-1.077l-10.55 12.14z"/><path fill="#552F2E" d="M-5.166-9.98L5.884-.383c1.5 1.304.66 1.326-.66 2.845l-6.56 7.55-1.87 2.15c-.526.607.344.428.286-.386l-.5-7.115c-.35-4.958-.697-9.917-1.046-14.876-.015-.203-.742-.058-.725.194.53 7.564 1.062 15.128 1.595 22.692.018.244.62-.014.696-.1C.62 8.523 4.136 4.476 7.65.43c.032-.037.046-.096.004-.132L-4.49-10.252c-.177-.154-.847.123-.676.27z"/></g><g id="p0_build" xmlns="http://www.w3.org/2000/svg"><path fill="#FBD2D4" d="M435.81 350.447l18.89-2.004 12.698 119.602"/><path fill="#552E2E" d="M435.65 350.582l17.91-1.9c1.5-.158 1.11 3.006 1.294 4.73l3.912 36.848c2.727 25.675 5.452 51.35 8.18 77.024.028.286.06.572.09.856.013.12.743-.018.725-.192-4.23-39.867-8.463-79.734-12.695-119.603-.007-.062-.175-.04-.203-.038l-18.89 2.005c-.175.02-.794.32-.32.27z"/><path fill="#FBD2D4" d="M386.685 476.612l-12.698-119.6 17.763-1.885"/><path fill="#552E2E" d="M387.047 476.516l-7.345-69.182c-1.454-13.698-2.91-27.396-4.363-41.096l-.95-8.938c-.068-.632.07-.07-.364-.024.964-.104 1.928-.205 2.89-.308l11.838-1.257c.988-.102 1.975-.21 2.963-.31.407-.046.555-.595.062-.54l-17.764 1.884c-.197.02-.417.143-.393.367l12.697 119.6c.038.34.764.16.727-.193z"/><path fill="none" d="M384.486 355.896l12.697 119.602"/><path fill="#552E2E" d="M383.762 356.09l12.697 119.604c.057.554 1.512.22 1.447-.39L385.21 355.702c-.058-.554-1.513-.22-1.448.39z"/><path fill="none" d="M445.185 349.453l12.697 119.602"/><path fill="#552E2E" d="M444.46 349.647l12.697 119.602c.047.44 1.504.126 1.45-.39-4.233-39.868-8.467-79.735-12.698-119.604-.048-.44-1.505-.126-1.45.39z"/><path fill="#E5DEDE" d="M405.578 474.606l-12.698-119.6-3.678-34.65 42.926-4.558 16.375 154.253"/><path fill="#552E2E" d="M406.303 474.412l-13.777-129.768-2.6-24.482-1.033.5 37.123-3.94 5.537-.59c-.067.008-.142-.074-.042.86.317 2.97.63 5.938.948 8.91l9.172 86.398 6.15 57.943c.033.305 1.492.02 1.45-.39l-15.484-145.846-.892-8.406c-.016-.136-.34-.117-.415-.11l-42.928 4.56c-.215.022-1.07.15-1.034.5l15.2 143.175 1.176 11.075c.03.305 1.49.02 1.447-.388z"/><path fill="#F9E494" d="M426.574 374.012l-19.683 2.09-4.74-44.71 19.682-2.087z"/><path fill="#552E2E" d="M426.647 373.593l-17.64 1.87-1.495.16c-.963.102.045-.074.083.28-.045-.432-.09-.862-.137-1.294l-.765-7.2-3.84-36.16c.063.6-1.362.67-.263.555l1.496-.158 4.882-.52c3.57-.38 7.14-.76 10.71-1.138.498-.056.997-.107 1.495-.16.963-.104-.045.073-.083-.28.045.43.09.86.137 1.293l.765 7.198 3.843 36.19c.058.55 1.513.216 1.45-.39l-4.75-44.71c-.026-.256-.465-.27-.637-.253-6.563.697-13.125 1.396-19.687 2.092-.32.033-.852.236-.81.64l4.748 44.71c.027.255.466.27.638.25 6.562-.694 13.124-1.392 19.685-2.086.747-.08 1.177-.998.178-.892z"/><path fill="#F9E494" d="M417.197 473.375l-8.187-77.127 19.686-2.09 8.187 77.128"/><path fill="#552E2E" d="M417.922 473.18c-2.73-25.708-5.458-51.417-8.187-77.126l-1.035.5c4.252-.45 8.504-.9 12.756-1.353l6.378-.676c.53-.057.123-.3.22.625l2.52 23.724c1.86 17.536 3.724 35.072 5.585 52.608.03.305 1.49.02 1.447-.39l-8.188-77.127c-.016-.138-.34-.12-.416-.112-6.562.698-13.124 1.396-19.686 2.092-.216.022-1.073.15-1.036.5l8.187 77.128c.034.303 1.494.017 1.45-.39z"/><path fill="#FBD2D4" d="M196.862 520.234l-41.18 16.52-19.272-48.042 41.18-16.52z"/><path fill="#552E2E" d="M196.626 520.04c-11.524 4.622-23.048 9.245-34.572 13.87l-5.955 2.388c-1.248.5.204-.05.286.155l-.673-1.678c-2.36-5.887-4.722-11.77-7.083-17.656l-8.606-21.453-2.436-6.07c-.56-1.398-1.25-.58.347-1.222l37.447-15.024 1.825-.73c1.248-.5-.17.14-.316-.226l1.22 3.038 6.567 16.365 11.48 28.615c.15.37 1.568-.093 1.45-.39l-19.275-48.04c-.11-.273-.81-.056-.978.014l-41.18 16.522c-.09.034-.54.196-.47.372l19.275 48.04c.11.273.81.056.98-.014l41.18-16.52c.953-.382.05-.585-.51-.36z"/><path fill="#E5DEDE" d="M134.187 475.51l-3.057-7.288c-4.093-9.76.5-20.993 10.264-25.086 9.76-4.093 20.992.502 25.086 10.264l3.056 7.29"/><path fill="#66B1E0" d="M184.426 469.007l-56.344 23.626-5.194-12.387 56.344-23.626z"/><path fill="#552E2E" d="M184.132 468.732c-10.613 4.45-21.226 8.898-31.838 13.35l-19.447 8.153-4.58 1.92c-1.027.432.567.39.394-.022l-1.91-4.56c-.58-1.38-2.502-7.49-3.572-7.04l3.497-1.468c6.09-2.555 12.183-5.108 18.274-7.662 11.46-4.807 22.917-9.61 34.376-14.416-.03.013-.975-.506-.543.52.585 1.397 1.17 2.794 1.757 4.19l3.15 7.513c.207.492 1.63.047 1.45-.39-1.733-4.128-3.465-8.26-5.197-12.39-.145-.344-.758-.193-1.007-.09l-56.344 23.627c-.137.06-.533.262-.442.48l5.194 12.386c.145.345.758.195 1.007.09 18.784-7.874 37.565-15.75 56.347-23.624.936-.39.077-.837-.564-.57z"/><path fill="none" d="M130.305 464.773l33.83-14.185"/><path fill="#552E2E" d="M130.456 464.95l33.83-14.188c.462-.193.044-.497-.302-.352-11.276 4.73-22.553 9.457-33.83 14.186-.463.196-.044.5.302.353z"/><path fill="#FFF" d="M167.184 500.85l-3.492 1.466-6.54-15.593 3.492-1.465z"/><path fill="#552E2E" d="M167.03 500.767l-2.035.854-1.336.563c.354-.148.44.232.264-.188l-1.893-4.515c-1.504-3.592-3.01-7.182-4.516-10.772.072.17 1.272-.434 1.8-.655l1.335-.56c-.357.147-.443-.233-.267.187l2.137 5.096c1.43 3.406 2.858 6.813 4.287 10.222.1.236.81.012.725-.193l-6.54-15.593c-.07-.167-.382-.086-.5-.037-1.164.488-2.328.978-3.492 1.465-.064.027-.268.125-.223.23l6.54 15.593c.07.167.382.086.5.037l3.492-1.465c.466-.197.034-.4-.28-.268z"/><path fill="#FFF" d="M185.363 512.757l-4.746 1.99-8.887-21.202 4.746-1.99z"/><path fill="#552E2E" d="M185.26 512.66c-.922.387-1.845.772-2.767 1.16-1.236.518-1.437.96-1.64.48-.856-2.047-1.714-4.092-2.572-6.138-2.044-4.88-4.09-9.763-6.14-14.645.055.127 2.078-.797 2.524-.982 1.236-.52 1.436-.962 1.638-.48.97 2.31 1.937 4.62 2.905 6.93l5.828 13.895c.094.224.804-.004.725-.192-2.963-7.067-5.926-14.135-8.89-21.2-.067-.16-.39-.07-.498-.025l-4.746 1.99c-.06.022-.27.116-.227.218l8.89 21.2c.065.16.387.07.496.025 1.582-.66 3.164-1.324 4.746-1.987.472-.198.035-.374-.27-.246zm-52.348-38.344c-1.364-3.253-2.915-6.48-3.93-9.863-2.165-7.212.95-14.905 6.457-19.65 8.386-7.23 20.37-3.772 26.37 4.242 2.314 3.095 3.52 7.307 5 10.838.13.31 1.54-.173 1.45-.39-2.26-5.39-4.064-10.732-8.574-14.71-5.024-4.43-13.035-5.617-19.253-3.264-6.323 2.393-11.733 7.37-13.052 14.275-1.337 7.007 1.457 12.646 4.083 18.907.13.312 1.538-.17 1.448-.387z"/><g><path fill="#AEDECC" d="M735.284 498.6l-79.867-17.29 19.646-90.744 79.866 17.29z"/><path fill="#552E2E" d="M735.715 498.2l-72.525-15.7c-1.845-.4-3.688-.8-5.53-1.198l-1.418-.308c-.637-.138-.087.168-.074.107.672-3.102 1.344-6.207 2.018-9.31 3.15-14.56 6.304-29.118 9.454-43.677 2.717-12.54 5.432-25.083 8.146-37.625l-1.167.49c24.174 5.232 48.35 10.468 72.524 15.7 1.844.4 3.688.8 5.53 1.197l1.417.308c.64.14.088-.168.075-.107l-2.017 9.313c-3.152 14.56-6.306 29.116-9.456 43.676-2.717 12.542-5.432 25.084-8.146 37.626-.122.564 1.34.333 1.45-.176 6.55-30.246 13.097-60.49 19.646-90.737.04-.184-.134-.283-.283-.315l-79.86-17.29c-.345-.073-1.074.067-1.166.49l-19.645 90.738c-.04.183.133.282.282.314l79.86 17.29c.475.104 1.712-.623.882-.803z"/><path fill="none" d="M694.598 410.22l33.76 7.308"/><path fill="#FFF" d="M692.01 412.85c11.252 2.438 22.505 4.873 33.76 7.31 2.104.457 4.597-.07 6.145-1.645 1.29-1.31.95-3.2-.97-3.614l-33.76-7.31c-2.104-.455-4.597.073-6.146 1.647-1.29 1.31-.95 3.2.97 3.614z"/><path fill="none" d="M691.188 425.965l33.76 7.31"/><path fill="#FFF" d="M688.562 428.455l33.76 7.31c2.064.446 4.602-.182 6.147-1.646 1.335-1.27.954-2.936-.896-3.335-11.253-2.438-22.507-4.873-33.76-7.31-2.063-.446-4.602.182-6.147 1.646-1.337 1.27-.956 2.934.894 3.334z"/><path fill="none" d="M687.78 441.71l33.76 7.31"/><path fill="#FFF" d="M685.065 443.876c11.253 2.438 22.506 4.872 33.76 7.31 2.442.528 10.2-3.298 5.428-4.33-11.253-2.438-22.506-4.872-33.76-7.31-2.443-.53-10.2 3.297-5.428 4.33z"/><path fill="none" d="M684.37 457.46l33.76 7.31"/><path fill="#FFF" d="M682.876 460.66c11.253 2.435 22.506 4.87 33.76 7.308 4.32.937 8.745-5.148 2.987-6.396-11.253-2.437-22.506-4.872-33.76-7.31-4.32-.935-8.745 5.15-2.987 6.397z"/></g><g><g opacity=".5"><path fill="#FFF" d="M889.818 557.212l-75.646-33.338 50.647-114.92 75.644 33.337z"/><path fill="#552E2E" d="M890.348 556.846c-22.745-10.024-45.49-20.05-68.235-30.076-1.806-.796-3.61-1.59-5.415-2.387-1.023-.45-1.625-.99-1.854-.474l2.79-6.33 15.563-35.312c10.563-23.968 21.13-47.936 31.69-71.902.83-1.882.532-.47-.647-.99l2.66 1.174 15.064 6.64c14.408 6.352 28.815 12.7 43.225 19.052 4.425 1.95 8.852 3.9 13.277 5.854 1.026.452 1.077.632 1.24.262l-.99 2.244c-4.395 9.975-8.79 19.947-13.187 29.922l-34.366 77.97c-.69 1.562-1.378 3.127-2.067 4.69-.314.715 1.143.62 1.37.104l50.65-114.912c.067-.154.064-.36-.12-.44-25.213-11.112-50.426-22.227-75.64-33.34-.37-.162-1.063-.094-1.25.336-16.884 38.305-33.77 76.607-50.65 114.912-.067.154-.065.36.118.44 25.213 11.112 50.427 22.227 75.64 33.34.505.218 1.806-.484 1.133-.78z"/></g><g opacity=".5"><path fill="#FFF" d="M878.635 552.31l-51.258-22.592 55.658-126.29 51.258 22.59z"/><path fill="#552E2E" d="M879.037 551.818l-32.34-14.254c-5.65-2.49-11.304-4.98-16.953-7.473-.544-.24-1.088-.477-1.632-.72-.644-.28.003.315-.02.36.302-.682.604-1.363.904-2.047l31.688-71.894 17.144-38.895 4.837-10.976c.318-.727.64-1.45.96-2.178.296-.672-1.083.163-.932.23.506.225 1.012.446 1.518.67l38.203 16.837 11.432 5.037c-.64-.28-.247-.596-.79.64-.563 1.272-1.124 2.547-1.686 3.82l-53.44 121.245c-.34.77 1.122.776 1.387.177 18.474-41.91 36.946-83.823 55.42-125.734l.24-.546c.117-.267-.034-.478-.277-.583-17.086-7.53-34.17-15.062-51.257-22.59-.362-.16-.947.038-1.11.406l-55.418 125.734-.24.546c-.118.268.034.478.277.583 17.085 7.53 34.17 15.062 51.255 22.59.617.28 1.68-.612.83-.985z"/></g><path fill="#E5DEDE" d="M865.855 546.642l-27.568-12.15 66.864-151.716 27.57 12.15z"/><path fill="#552E2E" d="M866.39 546.343l-15.573-6.864c-3.078-1.358-6.157-2.717-9.236-4.073-.86-.38-2.597-1.024-2.532-1.17 2.756-6.25 5.51-12.5 8.268-18.753l37.127-84.232c7.13-16.18 14.262-32.356 21.394-48.536l-1.305.432c5.192 2.286 10.385 4.574 15.576 6.863l9.235 4.07c.862.38 2.6 1.026 2.535 1.17l-8.267 18.755-37.125 84.232-21.394 48.535c-.17.39 1.25.23 1.44-.205l60.118-136.394c2.25-5.104 4.5-10.208 6.748-15.312.05-.105-.057-.19-.14-.226-9.187-4.05-18.374-8.1-27.562-12.148-.372-.165-1.133.04-1.305.43-20.04 45.464-40.08 90.928-60.117 136.393l-6.75 15.312c-.048.106.058.19.14.226l27.563 12.15c.392.17 1.724-.414 1.168-.66z"/></g><g><path fill="#552F2E" d="M827.653 342.832l-7.77 25.868c-.256.85 2.62.438 2.88-.428l7.77-25.868c.256-.85-2.62-.437-2.88.428z"/><path fill="#7DC1EB" d="M824.636 387.643l-17.312-5.2 1.87-6.23 17.313 5.2z"/><path fill="#E47174" d="M795.78 516.314l-33.916-10.185 37.81-125.907 33.915 10.185z"/><path fill="#552E2E" d="M796.217 515.94c-11.13-3.345-22.26-6.688-33.39-10.028-.565-.17-.305.31-.024-.62.356-1.19.713-2.375 1.07-3.564l4.084-13.6 26.202-87.24 6.23-20.758-1.17.48c11.13 3.343 22.26 6.686 33.39 10.027.565.17.306-.31.024.62-.355 1.19-.713 2.375-1.068 3.564-1.36 4.533-2.724 9.066-4.084 13.6-8.734 29.08-17.47 58.16-26.2 87.24-2.08 6.92-4.157 13.84-6.235 20.76-.15.502 1.303.296 1.447-.187 12.604-41.973 25.21-83.943 37.816-125.915.057-.186-.147-.257-.277-.295l-33.918-10.188c-.345-.104-1.055.097-1.17.48L761.13 506.23c-.056.185.148.256.278.295l33.92 10.187c.45.14 1.702-.53.89-.773z"/><path fill="#552E2E" d="M795.7 515.822c-11.13-3.344-22.26-6.687-33.39-10.028-.603-.18-.42.106-.17-.728l1.076-3.586 4.11-13.687 26.246-87.39 6.056-20.163-1.307.42 33.39 10.03c.604.18.42-.107.17.727l-1.075 3.586-4.11 13.687-26.245 87.39c-2.02 6.72-4.038 13.442-6.06 20.163-.113.386 1.314.185 1.44-.228 12.57-41.86 25.145-83.725 37.718-125.587.03-.102-.038-.167-.13-.193l-33.92-10.188c-.32-.097-1.188.027-1.307.42-12.57 41.863-25.144 83.727-37.717 125.588-.03.103.038.167.13.194 11.308 3.394 22.613 6.79 33.92 10.186.372.112 1.674-.465 1.177-.615z"/><path fill="#FFF" d="M808.605 440.97l-17.31-5.2 13.725-45.685 17.31 5.2z"/><path fill="#552F2E" d="M825.628 387.636c-4.273-1.283-8.55-2.566-12.823-3.85-1.067-.322-2.137-.644-3.205-.964-1.227-.368-.795-.455-.967.117l1.84-6.127-1.108.41c4.273 1.283 8.55 2.567 12.822 3.852l3.204.963c1.23.367.798.454.97-.118l-1.84 6.125c-.247.825 1.196.85 1.394.195.624-2.076 1.248-4.153 1.87-6.23.077-.253 0-.52-.282-.604l-17.31-5.198c-.353-.105-.98-.015-1.108.41l-1.872 6.23c-.076.255 0 .52.283.606l17.31 5.198c.657.197 1.71-.753.825-1.018z"/><path fill="#95CFB7" d="M822.63 380.22l-9.518-2.86 3.224-10.73 9.518 2.86z"/><path fill="#FFF" d="M793.53 491.157l-17.31-5.2 13.725-45.685 17.31 5.2z"/><path fill="#552F2E" d="M809.396 441.647c-5.448-1.638-10.898-3.273-16.35-4.91-1.34-.402-.713-.817-.308-2.167l2.47-8.228c3.552-11.824 7.104-23.647 10.654-35.473-.13.427-1.017.07-.094.345.496.15.993.3 1.49.448l4.77 1.433c3.18.955 6.358 1.91 9.54 2.864 1.338.403.712.818.307 2.168l-2.472 8.228c-3.555 11.832-7.107 23.665-10.662 35.497-.05.165.66.07.72-.12l13.722-45.69c.017-.05-.017-.07-.062-.084-5.77-1.735-11.54-3.47-17.312-5.2-.146-.046-.6.025-.653.205-4.573 15.23-9.146 30.46-13.722 45.688-.014.05.02.07.064.085 5.77 1.73 11.54 3.465 17.31 5.197.173.053.82-.22.592-.29zM794.25 491.79l-16.352-4.912c-1.258-.377-.667-.65-.23-2.104l2.472-8.23c3.552-11.823 7.104-23.646 10.653-35.472-.135.45-.892.118-.02.38.494.147.99.298 1.488.447l4.77 1.43 9.54 2.866c1.256.377.666.65.23 2.104l-2.473 8.23-10.662 35.5c-.074.248.652.145.725-.096 4.572-15.23 9.146-30.46 13.72-45.688.028-.092-.072-.127-.14-.146-5.77-1.732-11.538-3.467-17.308-5.198-.17-.053-.527.05-.584.238-4.574 15.23-9.148 30.46-13.724 45.69-.027.09.073.126.14.145 5.77 1.733 11.54 3.468 17.31 5.2.222.067.85-.264.445-.385z"/><path fill="#7DC1EB" d="M823.11 380.745l-9.518-2.857 3.222-10.73 9.517 2.856z"/><path fill="#552E2E" d="M823.776 380.43l-4.76-1.43c-1.09-.327-2.182-.654-3.27-.982-.397-.117-.79-.235-1.184-.354-.408-.123-.162.085-.134-.014 1.063-3.534 2.123-7.068 3.186-10.604l-1.307.425c1.586.48 3.174.955 4.76 1.433l3.272.98c.394.12.787.237 1.182.355.408.123.16-.085.133.014l-3.186 10.605c-.124.41 1.312.205 1.44-.22 1.072-3.577 2.145-7.152 3.22-10.73.03-.102-.04-.178-.133-.205l-9.52-2.858c-.333-.1-1.183.016-1.306.425-1.073 3.576-2.146 7.152-3.222 10.73-.03.1.038.177.133.205l9.52 2.857c.385.116 1.69-.475 1.174-.63z"/></g><g><path fill="#7CCBEB" d="M498.428 470.66l-15.056-111.47s29.564-26.654 58.02-.465l-16.496 112.03-26.468-.095z" opacity=".5"/><path fill="#FFF" d="M513.356 460.033l-6.358.06-.03-4.405 6.36-.06"/><path fill="#FFF" stroke="#552F2E" stroke-miterlimit="10" d="M512 449.037l-6.36.06-.03-4.404 6.36-.058z"/><path fill="#FFF" d="M513.248 431.326l-4.322.04-.032-4.403 4.323-.04"/><path fill="#552E2E" d="M500.87 470.466c-3.19-23.632-6.383-47.265-9.574-70.896l-4.95-36.66c-.15-1.118-.303-2.235-.454-3.355-.023-.182-.05-.362-.073-.546.094.702.052.27.92-.423 6.2-4.965 13.64-8.434 21.394-10.08 6.335-1.345 12.86-.794 18.995 1.164 3.482 1.11 6.693 2.935 9.733 4.934.786.518 5.603 3.575 5.486 4.353l-1.25 8.485-6.1 41.426-6.707 45.53-2.005 13.614c-.13.87-.257 1.738-.385 2.607-.076.52 1.27-.423.34-.426l-3.71-.015-22.333-.084c-.852-.003-1.092 1.12-.11 1.123 8.82.03 17.645.063 26.467.1.343 0 .738-.256.79-.61 3.472-23.563 6.94-47.126 10.41-70.69 1.82-12.35 3.64-24.7 5.458-37.054.615-4.177 1.238-4.106-2.397-7.12-8.538-7.072-19.418-10.17-30.365-8.832-7.682.938-15.002 4.25-21.41 8.476-1.355.895-4.866 2.485-4.602 4.455 1.305 9.644 2.606 19.286 3.908 28.93 3.62 26.792 7.237 53.583 10.855 80.375.07.535.145 1.07.217 1.606.096.71 1.548.342 1.45-.39z"/><path fill="#FFF" d="M520.808 360.513l-18.662.17-.025-3.517 18.66-.17m1.582 29.488l-6.01.057-.04-4.884 6.016-.055"/><path fill="#FFF" stroke="#552F2E" stroke-miterlimit="10" d="M532.762 398.7l-15.297.14-.035-5.133 15.296-.137z"/><path fill="#FFF" d="M524.416 409.52l-14.607.136-.03-4.3 14.606-.13m-3.16 15.464l-6.357.056-.033-4.402 6.36-.06"/></g></g><g id="p0_static" xmlns="http://www.w3.org/2000/svg"><path fill="#fff" d="M245.547 312.683c-18.443 0-34.512 10.125-42.98 25.114-10.233-31.827-40.066-54.862-75.293-54.862-43.68 0-79.09 35.41-79.09 79.088 0 1.852.088 3.68.212 5.5h246.178c.2-1.808.313-3.644.313-5.502 0-27.25-22.092-49.336-49.34-49.336z"/><path fill="#552F2E" d="M235.296 312.492c-9.936.15-19.87 2.875-28.076 8.616-4.353 3.045-8.12 6.59-11.43 10.738-1.205 1.514-2.988 6.54-4.153 3.222-1.067-3.04-2.4-5.98-3.83-8.863-9.846-19.842-28.29-34.49-49.452-40.566-41.19-11.827-84.916 13.027-97.543 53.474-2.875 9.21-3.753 18.906-3.174 28.505.005.083.165.093.217.093h246.18c.124 0 .49-.065.505-.24 2.74-29.316-19.767-54.57-49.244-54.982-.252-.002-.78.375-.29.38 24.978.35 45.688 18.936 48.813 43.69.265 2.11 1.334 10.772-.207 10.772H38.283c-.47 0 .165-12.3.3-13.703.52-5.4 1.73-10.72 3.347-15.894 6.296-20.164 21.176-36.884 39.88-46.42 42.675-21.76 95.216 1.966 110 46.577.074.226.613.046.696-.098 8.942-15.307 24.73-24.652 42.5-24.923.25-.004.778-.388.29-.38z"/><path fill="#552E2E" d="M551.44 442.348V469.4c0 .877 4.347.198 4.347-1.163v-27.053c0-.876-4.346-.2-4.346 1.164z"/><circle fill="#95CFB7" cx="555.323" cy="410.676" r="5.906"/><circle fill="#95CFB7" cx="555.323" cy="429.479" r="12.772"/><path fill="#552F2E" d="M558.795 410.87c-.205 3.81-3.703 6.604-7.48 4.645-1.88-.974-2.772-3.024-2.88-5.032-.212-3.923 4.07-6.412 7.48-4.646 1.88.973 2.773 3.025 2.88 5.033.02.34 1.474.074 1.45-.39-.45-8.33-12.833-7.546-13.26.39-.2 3.7 3.673 6.563 7.15 5.996 3.397-.554 5.916-2.832 6.107-6.385.018-.295-1.42-.09-1.447.39z"/><path fill="#552F2E" d="M565.662 429.673c-.48 8.914-9.153 15.066-17.813 10.58-4.085-2.116-6.05-6.604-6.283-10.97-.493-9.152 10.014-14.62 17.813-10.578 4.083 2.116 6.047 6.603 6.282 10.968.017.304 1.473.047 1.45-.39-.93-17.24-26.093-16.383-26.995.39-.927 17.193 26.093 16.346 26.994-.39.016-.26-1.422-.068-1.447.39z"/><g xmlns="http://www.w3.org/2000/svg"><path fill="#FFF" d="M340.542 444.527l-.808 39.508 19.362-2.054-12.36-38.07"/><path fill="#552E2E" d="M339.817 444.617c-.27 13.17-.54 26.34-.808 39.508-.01.326.377.34.624.314 6.454-.688 12.908-1.37 19.36-2.057.225-.022.94-.237.824-.6-4.122-12.69-8.242-25.38-12.362-38.07-.078-.24-.43-.23-.626-.21-2.064.205-4.13.41-6.193.617-.71.07-1.202.91-.197.81l6.02-.6c-.753.074.097 1.464.435 2.505l5.14 15.834 5.272 16.235 1.05 3.237c-.175-.543 1.442-.634-.6-.416l-3.586.38-14.28 1.515c.98-.103.595-1.115.626-2.604.05-2.438.1-4.877.148-7.315.2-9.754.4-19.51.598-29.264.013-.607-1.44-.302-1.45.18z"/><circle fill="#7DC1EB" cx="343.599" cy="444.223" r="5.723"/><path fill="#552E2E" d="M348.582 444.84c-.465 3.26-3.218 5.616-6.674 4.328-2.073-.77-3.154-2.95-3.307-5.02-.26-3.563 3.39-6.102 6.69-4.87 2.303.854 3.365 3.36 3.286 5.643-.01.303 1.433.09 1.45-.387.277-8.106-11.767-8.253-12.846-.7-1.152 8.058 11.752 8.372 12.838.78.063-.44-1.38-.165-1.436.23z"/><path fill="#FFF" stroke="#552F2E" stroke-miterlimit="10" d="M346.162 459.84c.046.553-.365 1.037-.917 1.082l-1.81.148c-.552.045-1.036-.365-1.08-.918-.046-.553.365-1.037.916-1.08l1.81-.15c.553-.045 1.037.365 1.083.918zm2.214-5.024c.027.344-.23.646-.573.676l-1.127.092c-.345.03-.646-.228-.675-.572-.025-.344.23-.646.575-.674l1.127-.092c.344-.028.647.23.676.57zm1.787 10.54c.045.554-.366 1.037-.918 1.083l-1.524.124c-.55.046-1.034-.366-1.08-.92-.045-.55.366-1.036.918-1.08l1.524-.125c.552-.046 1.037.365 1.083.916zm-.097 7.007c.04.5-.33.938-.83.98l-3.903.318c-.5.044-.938-.33-.98-.827-.04-.5.33-.938.832-.98l3.902-.32c.5-.04.938.33.98.83z"/></g><path fill="#FFF" d="M837.03 81.468c-4.75 0-8.89 2.608-11.07 6.47-2.636-8.2-10.32-14.132-19.396-14.132-11.253 0-20.373 9.12-20.373 20.372 0 .478.024.947.057 1.416h63.41c.053-.465.08-.938.08-1.416.004-7.02-5.687-12.71-12.706-12.71z"/><path fill="#FFF" d="M775.902 81.468c4.75 0 8.89 2.608 11.07 6.47 2.637-8.2 10.32-14.132 19.395-14.132 11.25 0 20.372 9.12 20.372 20.372 0 .478-.023.947-.057 1.416h-63.41c-.053-.465-.08-.938-.08-1.416 0-7.02 5.69-12.71 12.708-12.71z"/><path fill="#552F2E" d="M833.178 80.29c-1.938.105-3.937.34-5.687 1.262-1.24.654-2.272 1.343-3.36 2.248-1.522 1.268-1.682 3.104-2.804.53-2.777-6.37-9.074-10.355-15.72-11.506-13.08-2.265-24.212 9.21-23.723 21.868.003.08.168.083.215.083h63.413c.11 0 .5-.07.51-.233.447-7.837-4.948-13.828-12.763-14.248-.19-.01-.842.33-.455.35 5.165.28 9.084 2.827 11.444 7.383.326.627 1.688 6.39 1.506 6.39H782.91c-1.434 0 .334-6.6.764-7.982 1.684-5.41 6.065-9.584 11.094-11.907 10.925-5.045 23.04 1.95 26.827 12.507.076.21.612.026.695-.104 2.422-3.806 5.515-6.002 10.59-6.28.234-.014.783-.387.298-.36z"/><path fill="#552F2E" d="M771.675 80.645c4.75.26 8.396 2.394 10.937 6.39.125.197.65.05.723-.15 4.14-11.53 16.625-16.957 27.87-11.763 3.965 1.83 6.977 5.263 9.02 9.026.562 1.03 2.865 10.266 2.48 10.266h-63.067c-.747 0 .354-4.536.565-5.306 1.38-5.023 6.5-8.187 11.554-8.46.233-.012.78-.386.295-.36-7.892.425-13.596 6.325-13.14 14.404.006.08.168.083.216.083h63.413c.158 0 .504-.076.51-.278.525-13.79-11.384-23.758-24.802-21.435-5.506.954-10.176 4.55-13.304 9.04-2.028 2.91-1.12 4.636-4.085 1.6-2.28-2.335-5.578-3.238-8.73-3.41-.192-.01-.842.332-.454.353z"/><g xmlns="http://www.w3.org/2000/svg"><path fill="#95CFB7" d="M117.162 529.162s5.825-2.05 8.573 4.11c0 0-5.188 1.926-8.573-4.11zm3.774 10.026s5.825-2.05 8.574 4.113c0 .003-5.188 1.928-8.574-4.11zm14.487-16.9s-5.73 2.3-3.734 8.744c0 0 5.167-1.972 3.732-8.744zm3.775 10.027s-5.732 2.3-3.734 8.744c0 0 5.17-1.973 3.734-8.746z"/><circle fill="#E47174" cx="124.374" cy="522.3" r="3.528"/><path fill="#552E2E" d="M126.255 525.7c2.787 7.402 5.574 14.808 8.36 22.212.087.23.803.013.726-.193l-8.36-22.215c-.086-.23-.802-.013-.724.193zm-8.96 3.58c2.86-.98 6.02.55 7.62 3.184.38.63 1.024.653.15.824-.654.127-1.316.117-1.973.04-2.516-.287-4.346-2.194-5.568-4.263-.126-.215-.813.044-.725.192 1.863 3.154 5.335 5.466 9.07 4.132.052-.02.27-.12.226-.216-1.675-3.522-5.27-5.43-9.07-4.132-.485.167-.033.34.27.236zm3.7 10.13c3.468-1.184 6.67.87 8.152 3.988l.303-.32c-3.407 1.22-6.538-1.263-8.18-4.042-.15-.252-.847.002-.668.305 1.807 3.06 5.293 5.5 8.967 4.187.097-.035.377-.158.3-.32-1.637-3.446-5.205-5.53-8.995-4.238-.428.142-.318.592.12.442zm14.295-17.24c-3.65 1.508-4.998 5.302-3.963 8.96.046.16.406.055.497.02 3.614-1.428 4.625-5.463 3.962-8.958-.04-.204-.767-.03-.725.192.6 3.158-.13 7.198-3.504 8.53l.497.02c-.944-3.335.065-7.107 3.506-8.528.47-.196.03-.36-.27-.235zm3.7 10.105c-3.612 1.49-4.91 5.277-3.89 8.882.036.123.423.002.486-.022 3.612-1.426 4.64-5.4 3.974-8.916-.027-.143-.756.025-.725.19.608 3.208-.24 7.29-3.495 8.575.162-.008.324-.017.485-.022-.96-3.392.1-7.172 3.58-8.607.44-.183-.25-.15-.414-.082z"/><path fill="#552E2E" d="M128.314 521.154c.49 1.53.065 3.08-1.28 4.022-1.735 1.217-3.87-.058-4.6-1.73-.632-1.456.04-3.152 1.282-4.023 1.734-1.216 3.87.058 4.598 1.73.11.254.822.03.725-.192-1.92-4.41-8.816-1.965-7.33 2.68.662 2.073 3.07 2.748 4.955 2.147 2.04-.652 3.003-2.854 2.373-4.823-.083-.257-.804-.053-.726.19z"/></g></g></svg>