<svg version="1.1" id="图层_1" xmlns="http://www.w3.org/2000/svg" x="0" y="0" width="960" height="640" viewBox="0 0 960 640" xml:space="preserve"><g xmlns="http://www.w3.org/2000/svg" class="p1_car"><path fill="#FFF" d="M-36.225-16.046c-.015 4.298 4.473 7.832 9.973 7.85l58.35.2c5.5.02 10.013-3.483 10.028-7.78.015-4.3-4.474-7.833-9.974-7.85l-58.35-.202c-5.5-.02-10.012 3.482-10.027 7.782z"/><path fill="#552E2E" d="M-36.838-16.667c1.188 13.023 18.45 9.947 27.594 9.98 13.56.045 27.12.09 40.68.138 5.704.02 13.03-3.622 11.076-10.508-1.688-5.95-6.64-8.005-12.446-8.026-13.938-.047-27.874-.096-41.812-.144-7.678-.026-24.007-2.818-25.094 8.247-.064.655 1.087 3.348 1.232 1.868.77-7.87 9.702-7.267 15.484-7.248l21.497.074 22.78.078c5.215.018 11.26-.81 15.613 2.618 3.607 2.84 1.142 5.752-.62 7.56-1.216 1.248-2.945 1.787-4.55 2.26-1.035.308-2.16.327-3.232.322l-5.34-.018L4.527-9.54c-7.592-.025-15.187-.05-22.78-.077-5.216-.02-11.26.81-15.614-2.618-.58-1.064-1.163-2.128-1.743-3.19-.073-.788-1.405-3.156-1.228-1.242z"/><path fill="#FFF" d="M-36.225-16.046c-.015 4.298 4.473 7.832 9.973 7.85l58.35.2c5.5.02 10.013-3.483 10.028-7.78.015-4.3-4.474-7.833-9.974-7.85l-58.35-.202c-5.5-.02-10.012 3.482-10.027 7.782z"/><path fill="#552E2E" d="M-36.838-16.667c1.188 13.023 18.45 9.947 27.594 9.98 13.56.045 27.12.09 40.68.138 5.704.02 13.03-3.622 11.076-10.508-1.688-5.95-6.64-8.005-12.446-8.026-13.938-.047-27.874-.096-41.812-.144-7.678-.026-24.007-2.818-25.094 8.247-.064.655 1.087 3.348 1.232 1.868.77-7.87 9.702-7.267 15.484-7.248l21.497.074 22.78.078c5.215.018 11.26-.81 15.613 2.618 3.607 2.84 1.142 5.752-.62 7.56-1.216 1.248-2.945 1.787-4.55 2.26-1.035.308-2.16.327-3.232.322l-5.34-.018L4.527-9.54c-7.592-.025-15.187-.05-22.78-.077-5.216-.02-11.26.81-15.614-2.618-.58-1.064-1.163-2.128-1.743-3.19-.073-.788-1.405-3.156-1.228-1.242z"/><path fill="#AAD8C7" d="M-41.46-21.52c-.025 7.298 5.927 13.292 13.227 13.317l38.05.13c7.3.026 13.292-5.927 13.317-13.227l.027-7.964c.026-7.3-5.927-13.293-13.227-13.318l-38.05-.13c-7.3-.025-13.292 5.928-13.317 13.227l-.026 7.964z"/><path fill="#552E2E" d="M-41.837-21.813c.36 7.605 5.763 14.31 13.828 14.336l16.05.055c11.814.042 32.82 4.23 35.386-12.072.828-5.262.893-13.3-2.418-17.757C17-42.64 11.684-43.3 5.532-43.323l-22.485-.077c-5.282-.017-11.453-.848-16.51.992-8.935 3.253-8.347 12.913-8.374 20.595 0 .497.75 1.562.753.585l.027-7.808c.022-6.37 4.525-11.174 10.467-12.69 4.282-1.092 9.683-.238 14.02-.223l20.38.07c8.583.03 18.43.76 18.978 12.324.414 8.704-.496 17.946-10.494 20.497-4.283 1.095-9.684.24-14.02.225l-20.38-.07c-8.584-.03-18.43-.76-18.98-12.323-.02-.49-.796-1.557-.75-.585z"/><path fill="#552E2E" d="M-5.482-42.87l-.12 34.512c0 .16.307.83.308.468l.12-34.51c0-.16-.307-.83-.308-.47zM-23.53-42.725c-.02 6.292-.042 12.585-.065 18.877 0 .426.562.547.563.057l.065-18.88c.003-.425-.56-.544-.563-.055zM5.376-32.233l-.03 8.48c0 .416.53.558.53.066l.03-8.48c.002-.414-.53-.558-.53-.066z"/><g><path fill="#FFF" d="M-41.06-14.247c-.01 3.3 2.68 6.01 5.98 6.02l71.178.246c3.3.01 6.01-2.68 6.02-5.98l.02-5.256c.01-3.3-2.68-6.01-5.98-6.02l-71.178-.245c-3.3-.013-6.01 2.678-6.02 5.978l-.02 5.255z"/><path fill="#552E2E" d="M-41.673-14.867c.59 5.23 3.495 8.08 8.726 8.097 5.372.02 10.743.037 16.115.056l45.523.155c3.7.014 8.288.777 11.543-1.28 3.94-2.494 3.648-13.283.51-16.444-3.036-3.056-6.95-2.41-10.905-2.423l-20.272-.07c-12.172-.04-24.344-.082-36.516-.124l-8.29-.03c-6.8-.023-6.42 6.975-6.435 11.75-.002.64 1.227 3.316 1.23 1.868.018-4.683-.275-10.033 5.808-10.718.938-.105 1.955.007 2.895.01l17.66.06 44.686.154c1.69.006 3.375.01 5.063.017 4.5.017 5.855 3.315 5.84 7.232-.025 7.653-5.803 7.126-11.157 7.108C15.57-9.5.79-9.553-13.99-9.604l-15.54-.053c-3.327-.01-10.356 1.002-10.916-3.97-.084-.778-1.442-3.144-1.227-1.24z"/></g><g><circle fill="#E5DEDE" cx="27.207" cy="-8.899" r="7.374"/><path fill="#552F2E" d="M19.17-9.532c.216 4.243 2.38 8.08 6.655 9.27 5.023 1.4 9.14-3.02 9.406-7.685.246-4.297-2.506-8.43-6.644-9.584-5.02-1.4-9.14 3.02-9.408 7.683-.04.7 1.22 3.355 1.308 1.85.37-6.457 8.458-9.197 12.576-4.107 2.784 3.44-.903 7.588-3.93 8.765-3.515 1.366-8.434-.9-8.64-4.973-.04-.86-1.416-3.15-1.322-1.22z"/></g><g><circle fill="#E5DEDE" cx="-22.937" cy="-9.071" r="7.375"/><path fill="#552F2E" d="M-30.94-9.71c.213 4.23 2.367 8.087 6.632 9.275 5.028 1.4 9.107-3.017 9.374-7.676.245-4.285-2.51-8.44-6.632-9.59-5.025-1.4-9.106 3.018-9.373 7.676-.037.667 1.17 3.344 1.256 1.863.37-6.45 8.505-9.216 12.63-4.12 2.816 3.482-.977 7.612-3.96 8.77-3.507 1.362-8.464-.89-8.668-4.966-.042-.822-1.355-3.163-1.258-1.235z"/></g></g><g class="p1_Windmill"><g class="p1_Windmill1"><path fill="#552E2E" d="M340.734 246.47c-.393 23.744-20.29 43.112-44.465 40.304-20.576-2.39-35.472-20.897-35.806-41.08-.393-23.806 20.937-43.038 44.464-40.305 20.576 2.39 35.472 20.896 35.806 41.08.006.376 2.91-.032 2.897-.776-.356-21.63-17.28-40.554-39.29-41.647-20.043-.995-38.72 10.835-44.954 30.182-6.898 21.413 5.754 44.294 26.446 51.706 18.107 6.486 39.083-.928 50.208-16.206 5.067-6.958 7.45-15.508 7.59-24.037.007-.346-2.884.014-2.896.777z"/><path fill="#552E2E" d="M313.987 246.127c-.378 7.96-6.364 13.847-14.506 13.46-7.147-.34-11.954-6.902-12.27-13.554-.38-7.99 6.98-13.814 14.504-13.457 7.148.34 11.957 6.9 12.273 13.55.038.795 1.505.598 1.473-.093-.907-19.07-28.824-18.793-29.722.094-.37 7.813 7.042 15.01 14.804 14.64 8.29-.393 14.52-6.372 14.917-14.733.038-.79-1.44-.605-1.473.093z"/><path fill="#552E2E" d="M329.616 216.68l-58.69 58.692c-.157.155.532.07.655-.053l58.692-58.693c.156-.155-.532-.07-.656.053z"/><path fill="#552E2E" d="M330.285 275.22l-58.69-58.693c-.14-.14-.81.126-.682.253l58.69 58.692c.14.14.81-.126.682-.253z"/><path fill="#552E2E" d="M300.236 204.595v83.003c0 .124.725.018.725-.194V204.4c0-.123-.724-.017-.724.195z"/><path fill="#552E2E" d="M342.24 245.79h-83.004c-.276 0-.77.42-.28.42h83.004c.276-.002.77-.42.28-.42z"/><path fill="#E5DEDE" d="M309.805 205.213c0 1.92-1.8 3.492-4 3.492h-10.41c-2.2 0-4-1.57-4-3.492 0-1.92 1.8-3.49 4-3.49h10.41c2.2 0 4 1.57 4 3.49z"/><path fill="#552F2E" d="M309.444 205.263c-.636 4.104-5.826 3.252-8.7 3.252-2.978 0-7.274.763-8.845-2.474-2.3-4.732 6.456-4.13 8.554-4.13 3.167 0 8.33-.85 8.988 3.4.035.22.763.053.725-.195-.733-4.727-6.674-3.584-10.13-3.584-3.37 0-8.31-.747-9.004 3.732-.73 4.71 7.772 3.632 10.13 3.632 3.37 0 8.308.748 9.002-3.732.04-.258-.686-.125-.72.1z"/><path fill="#E5DEDE" d="M309.805 287.14c0 1.92-1.8 3.49-4 3.49h-10.41c-2.2 0-4-1.57-4-3.49s1.8-3.493 4-3.493h10.41c2.2 0 4 1.57 4 3.492z"/><path fill="#552F2E" d="M309.44 287.173c-.644 4.145-6.088 3.215-8.71 3.215-2.73 0-7.256.824-8.83-2.42-2.137-4.4 3.522-4.08 5.263-4.08h4.013c2.836 0 7.632-.744 8.266 3.348.047.304.774.125.725-.194-.74-4.77-6.64-3.638-10.145-3.638-3.405 0-8.293-.748-8.994 3.77-.74 4.764 7.747 3.7 10.148 3.7 3.405 0 8.293.748 8.994-3.77.053-.34-.685-.23-.73.07z"/><path fill="#E5DEDE" d="M344.498 221.416c0 1.92-1.8 3.49-4 3.49h-10.41c-2.2 0-4-1.57-4-3.49 0-1.92 1.8-3.492 4-3.492h10.41c2.2 0 4 1.57 4 3.492z"/><path fill="#552F2E" d="M344.138 221.47c-.637 4.11-5.82 3.257-8.698 3.257-2.985 0-7.27.762-8.847-2.483-2.303-4.743 6.45-4.14 8.552-4.14 3.173 0 8.33-.85 8.99 3.41.033.205.762.04.726-.195-.73-4.723-6.675-3.576-10.127-3.576-3.363 0-8.31-.762-9.006 3.726-.728 4.7 7.776 3.618 10.126 3.618 3.362 0 8.31.762 9.006-3.725.036-.242-.69-.108-.722.106z"/><path fill="#E5DEDE" d="M273.7 221.416c0 1.92-1.8 3.49-4 3.49h-10.412c-2.2 0-4-1.57-4-3.49 0-1.92 1.8-3.492 4-3.492h10.41c2.2 0 4 1.57 4 3.492z"/><path fill="#552F2E" d="M273.34 221.476c-.64 4.127-5.806 3.272-8.693 3.272-3 0-7.268.762-8.853-2.504-2.313-4.763 6.435-4.16 8.546-4.16 3.184 0 8.333-.85 8.997 3.43.026.17.756.01.725-.195-.73-4.708-6.68-3.555-10.123-3.555-3.35 0-8.317-.76-9.01 3.71-.725 4.678 7.782 3.592 10.12 3.592 3.347 0 8.315.76 9.008-3.71.03-.203-.688-.07-.717.12z"/><g><path fill="#E5DEDE" d="M344.498 270.633c0 1.92-1.8 3.49-4 3.49h-10.41c-2.2 0-4-1.57-4-3.49 0-1.92 1.8-3.492 4-3.492h10.41c2.2 0 4 1.572 4 3.493z"/><path fill="#552F2E" d="M344.132 270.662c-.628 4.048-5.57 3.204-8.098 3.204-2.81 0-7.838.896-9.44-2.405-2.096-4.313 3.082-4.06 4.828-4.06h3.836c2.923 0 8.23-.846 8.877 3.33.05.326.777.145.725-.194-.717-4.622-6.104-3.653-9.534-3.653-3.51 0-8.876-.93-9.606 3.78-.72 4.634 7.143 3.72 9.538 3.72 3.51 0 8.876.93 9.606-3.78.056-.36-.683-.258-.732.06z"/></g><g><path fill="#E5DEDE" d="M273.7 270.633c0 1.92-1.8 3.49-4 3.49h-10.412c-2.2 0-4-1.57-4-3.49 0-1.92 1.8-3.492 4-3.492h10.41c2.2 0 4 1.572 4 3.493z"/><path fill="#552F2E" d="M273.338 270.683c-.637 4.103-5.827 3.25-8.7 3.25-2.978 0-7.273.763-8.845-2.473-2.3-4.733 6.457-4.13 8.555-4.13 3.168 0 8.33-.852 8.988 3.4.035.22.763.053.725-.195-.732-4.728-6.672-3.585-10.13-3.585-3.37 0-8.31-.748-9.003 3.733-.73 4.708 7.773 3.63 10.13 3.63 3.37 0 8.308.75 9.002-3.73.04-.26-.686-.127-.722.1z"/></g><g><path fill="#E5DEDE" d="M351.306 245.998c0 1.92-1.8 3.492-4 3.492h-10.412c-2.2 0-4-1.57-4-3.492 0-1.92 1.8-3.49 4-3.49h10.412c2.2 0 4 1.57 4 3.49"/><path fill="#552F2E" d="M350.945 246.05c-.637 4.107-5.824 3.254-8.7 3.254-2.98 0-7.273.763-8.846-2.478-2.3-4.737 6.453-4.134 8.553-4.134 3.17 0 8.33-.85 8.99 3.402.034.215.762.048.725-.194-.733-4.725-6.676-3.58-10.13-3.58-3.366 0-8.308-.762-9.004 3.73-.73 4.705 7.774 3.626 10.128 3.626 3.367 0 8.308.762 9.004-3.73.04-.252-.687-.118-.72.103z"/></g><g><path fill="#E5DEDE" d="M268.303 245.998c0 1.92-1.8 3.492-4 3.492h-10.41c-2.2 0-4-1.57-4-3.492 0-1.92 1.8-3.49 4-3.49h10.41c2.2 0 4 1.57 4 3.49z"/><path fill="#552F2E" d="M267.942 246.05c-.637 4.113-5.82 3.26-8.698 3.26-2.985 0-7.27.762-8.847-2.484-2.302-4.743 6.45-4.14 8.552-4.14 3.17 0 8.33-.85 8.99 3.41.032.205.76.04.725-.195-.732-4.72-6.677-3.574-10.128-3.574-3.363 0-8.31-.76-9.006 3.725-.728 4.7 7.777 3.62 10.127 3.62 3.363 0 8.31.762 9.006-3.725.037-.242-.687-.108-.72.106z"/></g></g><g class="p1_Windmill2"><path fill="#552E2E" d="M299.644 245.966l-15.572 32.332-7.708 16.003c-1.663 3.453-.686 8.113-.686 11.867 0 .566.527.692 1 .692h48.46c.417 0 1.2-.36 1.2-.868 0-3.635 1.004-8.3-.638-11.63l-7.767-15.764c-5.39-10.936-10.777-21.872-16.166-32.807-.458-.928-2.6-.285-2.174.583l15.32 31.092c2.76 5.6 5.52 11.198 8.278 16.797 1.757 3.564.95 7.813.95 11.904l1.2-.867h-48.46l.998.69c0-3.876-.898-8.43.72-11.788 2.654-5.512 5.31-11.024 7.963-16.537l15.157-31.468c.533-1.105-1.665-1.077-2.073-.23z"/><path fill="#552E2E" d="M276.633 295.9h48.46c.252 0 .78-.38.29-.38h-48.46c-.25 0-.778.38-.29.38z"/><path fill="#552E2E" d="M282.55 295.744v10.368c0 .36.73.234.73-.065V295.68c.002-.362-.73-.236-.73.064zM288.268 295.808v10.368c0 .21.725.077.725-.194v-10.368c0-.21-.725-.077-.725.194zM293.98 295.808v10.368c0 .15.725.036.725-.194v-10.368c0-.15-.725-.036-.725.194z"/></g><path fill="#E5DEDE" d="M380.228 280.092c0 3.3-2.7 6-6 6h-20.794c-3.3 0-6-2.7-6-6v-.438c0-3.3 2.7-6 6-6h20.794c3.3 0 6 2.7 6 6v.438z"/><path fill="#552F2E" d="M379.505 280.19c-.874 7.53-11.35 5.518-16.36 5.518-5.05 0-14.987 1.66-14.987-6.03 0-7.777 12.74-5.64 17.323-5.64 5.15 0 14.023-1.426 14.023 6.25 0 .403 1.45.142 1.45-.39 0-8.676-11.23-6.628-16.834-6.628-6.043 0-16.422-2.015-17.41 6.483-1.012 8.726 11.91 6.724 16.83 6.724 6.043 0 16.422 2.015 17.41-6.483.062-.538-1.392-.257-1.445.197z"/><path fill="#E5DEDE" d="M363.83 273.653v32.798"/><path fill="#552F2E" d="M362.382 274.042v32.798c0 .483 2.897.063 2.897-.776v-32.798c0-.484-2.898-.063-2.898.776z"/></g><path fill="#552E2E" d="M769.365 78.78H710.388c.612 0 .827.716.415-.063-.23-.433-.5-.84-.77-1.247-5.492-8.203-15.198-6.887-22.766-2.563l1.79.142c-.635-9.293-6.006-18.547-15.262-21.262-14.233-4.175-26.695 6.56-31.086 19.32l2.095-.562c-2.36-2.308-5.475-3.746-8.727-4.184-2.314-.313-4.96.305-6.95 1.498-1.397.837-2.572 1.812-3.725 2.95-.473.466-4.82 5.968-3.082 5.968h-29.456c-.957 0-2.256 1.454-.785 1.454h29.5c.513 0 1.153-.14 1.42-.64 2.94-5.5 7.298-11.27 14.265-9.373 1.995.542 4.056 1.794 5.54 3.245.606.593 1.835.197 2.096-.562 4.487-13.036 18.548-23.978 32.256-15.733 6.04 3.634 9.263 11.65 9.73 18.46.053.778 1.465.328 1.79.142 7.08-4.046 16.267-4.206 20.21 4.023.13.27.382.436.694.436h59c.957.003 2.256-1.45.785-1.45z" class="p1_cloud"/><g class="p1_cloud1"><path fill="#552E2E" d="M661.518 101.327h47.424c.48 0 2.484-.928 1.398-.928h-47.424c-.48 0-2.484.927-1.398.927zM825.035 88.93h138.89c.48 0 2.485-.928 1.398-.928h-138.89c-.48 0-2.484.928-1.398.928zM715.762 101.357h16.09c.653 0 2.365-.987.91-.987h-16.09c-.652 0-2.364.987-.91.987z"/></g><g class="p1_cloud2"><path fill="#552E2E" d="M509.788 85.933h106.05c.912 0 2.274-1.387.804-1.387h-106.05c-.912 0-2.275 1.387-.804 1.387zM675.22 112.494h16.092c.83 0 2.308-1.26.838-1.26h-16.09c-.832 0-2.31 1.26-.84 1.26z"/></g><g class="p1_dash"><g fill="none" stroke="#FFF" stroke-width=".5" stroke-miterlimit="10" xmlns="http://www.w3.org/2000/svg"><path d="M286.837 458.645h5"/><path stroke-dasharray="11.0427,11.0427" d="M302.88 458.645h60.735"/><path d="M369.136 458.645h5v5"/><path stroke-dasharray="10.204,10.204" d="M374.136 473.85v56.12"/><path d="M374.136 535.072v5h-5"/><path stroke-dasharray="11.1143,11.1143" d="M358.022 540.072h-61.128"/><path d="M291.336 540.072h-5v5"/><path stroke-dasharray="9.0363,9.0363" d="M286.336 554.108v31.627"/><path d="M286.336 590.254v5-5"/><path stroke-dasharray="9.9683,9.9683" d="M286.336 580.285v-194.38"/><path d="M286.336 380.92v-5h5"/><path stroke-dasharray="11.0819,11.0819" d="M302.418 375.92h60.95"/><path d="M368.91 375.92h5v5"/><path stroke-dasharray="10.1576,10.1576" d="M373.906 391.077l-.056 238.703"/><path d="M373.848 634.86v5"/></g><g fill="none" stroke="#FFF" stroke-width=".5" stroke-miterlimit="10" xmlns="http://www.w3.org/2000/svg"><path d="M834.28 589.03v5-5"/><path stroke-dasharray="9.8874,9.8874" d="M834.28 579.142V327.015"/><path d="M834.28 322.07v-5 5"/><path stroke-dasharray="9.8874,9.8874" d="M834.28 331.958v252.128"/><g><path d="M688.28 593.955v-5"/><path stroke-dasharray="9.882,9.882" d="M688.28 579.073v-251.99"/><path d="M688.28 322.14v-5"/></g><g><path d="M915.463 258.055h-5"/><path stroke-dasharray="9.916,9.916" d="M900.547 258.055h-87.834l-125.36.346"/><path d="M682.395 258.415l-5 .013 5-.013"/><path stroke-dasharray="9.6399,9.6399" d="M692.034 258.388l110.86-.306"/><path d="M807.713 258.07l5-.015-3.454 3.615"/><path stroke-dasharray="10.1386,10.1386" d="M802.256 269l-45.92 48.07v313.72"/><path d="M756.336 635.86v5"/></g></g><g xmlns="http://www.w3.org/2000/svg"><g fill="none" stroke="#FFF" stroke-width=".5" stroke-miterlimit="10"><path d="M519.234 373.777l1.7 4.703"/><path stroke-dasharray="9.758,9.758" d="M524.253 387.656l44.794 123.884"/><path d="M570.706 516.128l1.7 4.702"/></g><g fill="none" stroke="#FFF" stroke-width=".5" stroke-miterlimit="10"><path d="M625.588 317.14v5"/><path stroke-dasharray="9.7238,9.7238" d="M625.588 331.865v150.718"/><path d="M625.588 487.445v5l-4.41 2.355"/><path stroke-dasharray="9.7401,9.7401" d="M612.584 499.386L462.212 579.65"/><path d="M457.916 581.942l-4.412 2.355v5"/><path stroke-dasharray="8.15,8.15" d="M453.504 597.447v28.525"/><path d="M453.503 630.047v5-5"/><path stroke-dasharray="9.6282,9.6282" d="M453.503 620.42V374.9"/><path d="M453.504 370.086v-5"/></g></g><g xmlns="http://www.w3.org/2000/svg" fill="none" stroke="#FFF" stroke-width=".75" stroke-miterlimit="10"><path d="M1012.686 631.285h-5"/><path stroke-dasharray="10.0371,10.0371" d="M997.648 631.285H922.37"/><path d="M917.352 631.285h-5v-5"/><path stroke-dasharray="9.8111,9.8111" d="M912.352 616.474V327.047"/><path d="M912.352 322.14v-5h-5"/><path stroke-dasharray="9.9797,9.9797" d="M897.372 317.14h-653.67"/><path d="M238.713 317.14h-5 5"/><path stroke-dasharray="10.25,10.25" d="M248.963 317.14h138.375"/><path d="M392.463 317.14h5l-.033-5"/><path stroke-dasharray="9.8588,9.8588" d="M397.365 302.283l-1.4-211.96"/><path d="M395.934 85.395l-.033-5h5"/><path stroke-dasharray="9.2193,9.2193" d="M410.12 80.395h50.706"/><path d="M465.436 80.396h5-5"/><path stroke-dasharray="9.8575,9.8575" d="M455.58 80.396H243.64"/><path d="M238.713 80.396h-5v5"/><path stroke-dasharray="10.0779,10.0779" d="M233.713 95.474V447.46c0 50.62-38.753 91.653-84.092 91.653-45.347 0-80.067-41.033-80.067-91.652l-.04-357.47"/><path d="M69.513 84.952v-5h-5"/><path stroke-dasharray="8.6446,8.6446" d="M55.868 79.952H8.322"/><path d="M4 79.952h-5"/></g></g><g class="p1_static"><g class="p1_car2"><path fill="#E47274" d="M682.032 288.8c0 4.057-4.5 7.377-10 7.377h-65.606c-5.5 0-10-3.32-10-7.377s4.5-7.377 10-7.377h65.606c5.5 0 10 3.32 10 7.377z"/><path fill="#552E2E" d="M679.444 291.63c-.524 6.82-6.66 6.535-11.623 6.535H604.298c-9.527 0-10.86-13.72-.64-13.72h58.913c6.128 0 16.208-1.49 16.874 7.184.038.498 2.474.05 2.42-.648-.772-10.06-15.323-7.57-22.153-7.57H620.34c-6.858 0-16.758-1.712-22.967 2-2.86 1.713-3.96 5.054-3.232 8.174.874 3.748 5.076 5.41 8.483 5.614 2.406.145 4.865 0 7.273 0h45.47c7.462 0 25.636 3.052 26.5-8.218.033-.393-2.36-.108-2.42.647z"/><path fill="#552E2E" d="M663.91 283.54c-7.142-23.99-41.43-23.627-48.515.196-.268.898.472 1.307 1.278 1.307h45.673c1.693 0 2.19-2.227.23-2.227H616.9c.427.436.853.87 1.277 1.307 2.917-9.813 11.02-16.315 21.326-16.62 10.2-.3 18.724 7.47 21.504 16.815.42 1.398 3.314.613 2.9-.777z"/><path fill="#552E2E" d="M650.283 283.54v-15.67c0-.688-2.898-.204-2.898.775v15.672c0 .686 2.898.203 2.898-.776zM641.074 283.54v-10.438c0-.852-2.898-.316-2.898.776v10.44c0 .85 2.898.315 2.898-.777z"/><circle fill="#E5DEDE" cx="615.913" cy="298.683" r="6.96"/><path fill="#552F2E" d="M621.424 299.07c-.215 4-3.575 7.224-7.664 5.105-2.2-1.14-3.23-3.53-3.356-5.88-.223-4.115 3.942-7.032 7.664-5.104 2.2 1.14 3.23 3.53 3.356 5.88.036.66 2.947.134 2.898-.775-.557-10.313-16.302-8.828-16.818.776-.25 4.65 4.688 7.845 8.922 7.154 4.275-.696 7.65-3.393 7.896-7.93.03-.573-2.846-.173-2.898.777z"/><g><circle fill="#E5DEDE" cx="663.239" cy="298.683" r="6.959"/><path fill="#552F2E" d="M668.75 299.07c-.215 3.985-3.543 7.25-7.663 5.113-2.2-1.14-3.23-3.54-3.357-5.89-.222-4.102 3.918-7.053 7.66-5.113 2.2 1.142 3.233 3.54 3.36 5.89.032.605 2.944.093 2.897-.775-.556-10.288-16.303-8.79-16.817.776-.25 4.663 4.682 7.81 8.912 7.12 4.263-.693 7.66-3.36 7.905-7.895.028-.518-2.848-.138-2.898.776z"/></g></g><g class="p1_car3"><path fill="#E47274" d="M522.21 509.965c-6.038-7.307-16.535-9.72-25.33-5.237-8.796 4.484-13.01 14.4-10.64 23.58l.267-.098c5.605-1.918 11.914.526 14.685 5.958.188.372.357.75.506 1.13l1.05-.525 14.082-7.18 1.896-.974c-.222-.345-.43-.702-.618-1.073-2.73-5.354-1.09-11.786 3.6-15.233l.502-.35z"/><path fill="#552F2E" d="M496.273 538.97c1.176 2.603.84 5.336-1.183 7.424-2.6 2.688-6.566 1.125-8.408-1.484-1.72-2.44-1.013-5.81.944-7.83 2.818-2.914 7.05-.894 8.73 2.05.41.72 2.512-.01 2.005-.9-4.665-8.172-18.068-1.965-14.09 6.857 3.922 8.695 18.184 2.186 14.175-6.698-.382-.855-2.523-.2-2.172.58zM534.746 519.357c1.126 2.494.89 5.136-.846 7.3-2.762 3.438-7.25 1.267-8.98-1.766-1.33-2.33-.77-5.287.845-7.3 2.76-3.438 7.25-1.263 8.98 1.767.314.55 2.358-.26 2.175-.582-4.537-7.944-18.126-2.06-14.174 6.698 3.77 8.356 18.104 2.015 14.174-6.698-.245-.543-2.35.19-2.174.582zM487.913 530.185c-1.663-7.5.41-14.732 5.855-20.162 8.384-8.36 21.467-5.916 28.663 2.21.285.32 1.51-.32 1.45-.39-14.554-16.43-42.257-3.09-37.418 18.73.06.266 1.517-.09 1.45-.388z"/><path fill="#552F2E" d="M486.99 528.908l35.346-18.02c.44-.224.046-.632-.324-.44l-35.347 18.017c-.44.224-.046.633.324.443z"/><path fill="#552F2E" d="M481.875 548.02c-2.815-4.907-2.324-10.386 1.45-14.642 5.833-6.576 15.514-2.717 18.597 4.192.156.35.743.27 1.02.13 5.678-2.892 11.355-5.78 17.034-8.67.237-.122.55-.318.38-.614-2.83-4.904-2.328-10.396 1.443-14.647 5.833-6.58 15.51-2.715 18.596 4.19.238.532 1.662.088 1.45-.39-4.075-9.11-15.557-10.464-22.055-3.136-3.29 3.71-3.376 9.06-1.46 13.378.2.448 1.45.372.827.688l-1.653.842c-2.063 1.05-4.128 2.102-6.192 3.15l-8.897 4.53c1.86-.948-2.262-4.634-2.93-5.11-2.234-1.6-4.438-2.396-7.15-2.693-10.596-1.17-16.69 10.855-11.8 19.38.25.443 1.658-.023 1.34-.58z"/><path fill="#552F2E" d="M497.553 506.854c4.455 8.74 8.91 17.48 13.364 26.222.132.26.837.026.725-.193l-13.363-26.22c-.134-.262-.84-.03-.727.19z"/></g><g class="p1_moun"><path fill="#7DCAF9" d="M899.18 176.405H831.27l32.536-67.906z"/><path fill="#86F7CB" d="M790.806 33.988l59.132 142.417H736.41l54.396-142.417"/><path fill="#86F7CB" d="M753.34 176.405h-67.905l32.54-67.906z"/><path fill="#552F2E" d="M785.356 34.376c18.688 45.012 37.38 90.024 56.067 135.036 1.02 2.46 2.043 4.92 3.064 7.38l2.383-1H734.252c-1.32 0-.365.244-.336.166l2.48-6.492 51.84-135.725c.22-.578-2.57-.27-2.863.494l-52 136.144-2.395 6.273c-.11.292.305.37.498.37h113.528c.32 0 2.664-.325 2.383-1.003-18.688-45.012-37.38-90.024-56.067-135.036-1.02-2.46-2.043-4.92-3.064-7.38-.31-.74-3.14.197-2.9.776z"/><path fill="#552F2E" d="M749.87 175.455h-67.906l.84 1.056c10.848-22.634 21.692-45.27 32.54-67.905l-2.818.283c11.79 22.635 23.577 45.27 35.366 67.906.592 1.134 3.428.238 2.898-.776-11.79-22.635-23.578-45.27-35.367-67.906-.505-.968-2.382-.63-2.817.283-10.848 22.635-21.692 45.27-32.54 67.906-.286.6.246 1.057.84 1.057h67.907c1.25-.002 3.017-1.902 1.057-1.902zM895.29 175.285h-67.905c.43.44.854.878 1.28 1.318 10.847-22.635 21.69-45.27 32.536-67.906l-2.715.458 35.37 67.906c.64 1.224 3.38.1 2.646-1.31l-35.37-67.905c-.532-1.02-2.34-.328-2.716.458-10.846 22.635-21.69 45.27-32.535 67.906-.422.876.59 1.317 1.28 1.317h67.906c1.7 0 2.186-2.242.225-2.242z"/></g><g class="p1_tree2"><path fill="#552E2E" d="M793.03 605.024v36.335c0 .573 4.347-.013 4.347-1.165V603.86c0-.575-4.346.01-4.346 1.164z"/><circle fill="#86F7CB" cx="797.499" cy="562.682" r="7.933"/><circle fill="#86F7CB" cx="797.499" cy="587.938" r="17.155"/><path fill="#552F2E" d="M802.412 562.876c-.28 5.21-5.163 9.192-10.528 6.41-2.54-1.316-3.742-4.09-3.888-6.8-.29-5.358 5.776-8.872 10.53-6.41 2.54 1.318 3.74 4.09 3.886 6.8.014.245 1.47.004 1.45-.39-.59-10.934-16.75-10.102-17.315.39-.587 10.904 16.75 10.072 17.314-.39.012-.2-1.425-.03-1.448.39z"/><path fill="#552F2E" d="M811.633 588.02c-.37 9.622-7.63 16.97-17.493 16.59-8.37-.323-14.405-7.7-15.313-15.526-1.17-10.084 7.78-18.19 17.442-17.818 8.91.344 15.044 8.53 15.365 16.866.02.498 1.473.197 1.45-.39-.4-10.357-8.68-17.735-18.945-17.34-9.43.362-16.467 8.525-16.816 17.62-.4 10.428 9.18 17.825 18.945 17.45 9.43-.363 16.467-8.526 16.816-17.62.023-.63-1.433-.34-1.453.17z"/></g><path fill="#E5DFDF" d="M587.412 288.236c0 1.56-1.275 2.834-2.835 2.834H558.97c-1.56 0-2.835-1.275-2.835-2.834v-65.473c0-1.56 1.275-2.834 2.835-2.834h25.607c1.56 0 2.835 1.274 2.835 2.833v65.473z"/><path fill="none" stroke="#562F2F" stroke-linecap="round" stroke-linejoin="round" stroke-dasharray="9.9967,9.9967" d="M585.412 287.236c0 1.56-1.275 2.834-2.835 2.834H556.97c-1.56 0-2.835-1.275-2.835-2.834v-65.473c0-1.56 1.275-2.834 2.835-2.834h25.607c1.56 0 2.835 1.274 2.835 2.833v65.473z"/><path fill="#562F2F" d="M497.916 179.466c-17.29-21.3-7.198-55.225 20.593-60.783 27.568-5.513 49.02 22.363 42.06 47.9-.204.75 2.652.33 2.87-.467 7.776-28.537-17.115-54.12-45.755-48.394-28.628 5.725-40.83 40.174-22.487 62.772.492.61 3.25-.37 2.718-1.028z" opacity=".5"/><path fill="#E5DFDF" d="M542.422 182.408c8.97-5.616 14.943-15.583 14.943-26.948 0-17.55-14.23-31.777-31.777-31.777-17.55 0-31.777 14.228-31.777 31.777s14.228 31.777 31.778 31.777c2.205 0 4.357-.226 6.436-.652l20.195 25.957-9.798-30.134z"/><path fill="#562F2F" d="M543.308 182.79c19.06-12.542 20.67-39.786 2.188-53.68-15.96-11.998-39.46-5.68-49.114 11.06-10.898 18.898 1.223 42.26 21.578 47.1 2.304.55 4.692.69 7.05.74.814.018 5.914-.552 5.76-.75 1.42 1.827 2.844 3.656 4.267 5.484l13.732 17.65 2.1 2.7c.49.63 3.09-.047 2.8-.94-3.267-10.044-6.532-20.09-9.798-30.134-.31-.95-3.19-.126-2.898.776 3.266 10.044 6.53 20.09 9.797 30.134l2.8-.94c-6.73-8.652-13.464-17.305-20.195-25.957-.218-.28-.845-.248-1.137-.196-15.32 2.748-29.755-5.738-35.188-20.225-5.32-14.188 1.293-30.23 14.136-37.636 14.535-8.383 32.853-1.23 40.818 12.583 8.2 14.215 2.954 32.636-10.467 41.467-1.637 1.076.904 1.332 1.77.762z"/><path fill="none" stroke="#562F2F" stroke-width="3" stroke-linecap="round" stroke-linejoin="round" stroke-miterlimit="10" d="M525.307 136.313v36.334"/><path fill="none" stroke="#562F2F" stroke-width="3" stroke-miterlimit="10" d="M525.31 136.313h-.003v27.667h.002c7.638 0 13.83-6.193 13.83-13.833 0-7.64-6.193-13.834-13.83-13.834z"/><g><path fill="#E5DFDF" d="M569.77 179.976l5 5-5 5-5-5z"/><path fill="#562F2F" d="M571.133 189.466l-4.98-4.98c.216.215-.213.584.115.256l.46-.46 1.73-1.73 2.64-2.64-2.684.584 4.98 4.98c-.216-.215.213-.584-.115-.256l-.46.46-1.73 1.73-2.64 2.64c-.695.695 2.114.396 2.646-.136l5-5c.138-.14.182-.302.036-.448l-5-5c-.568-.57-2.234.135-2.683.583-1.667 1.666-3.334 3.332-5 5-.14.138-.183.3-.037.447l5 5c.585.583 3.275-.477 2.72-1.03z"/></g><g><path fill="#562F2F" d="M404.348 550.34V401.755v-15.57l-1.2.47h18.465c3.288 0 2.954-.63 2.954 2.408v161.663l1.2-.47H404.1c-.28 0-1.642.55-.952.55h21.668c.23 0 1.2-.126 1.2-.47V401.757v-15.57c0-.08-.217-.08-.25-.08H404.1c-.23 0-1.2.127-1.2.47v164.151c0 .187 1.448-.007 1.448-.39z"/><g fill="none" stroke="#66BAED" stroke-width=".5" stroke-miterlimit="10"><path d="M414.457 545.88v-5"/><path stroke-dasharray="9.6577,9.6577" d="M414.457 531.224v-130.38"/><path d="M414.458 396.016v-5"/></g></g><g><path fill="none" stroke="#562F2F" stroke-miterlimit="10" d="M877.457 246.652v-43.72h-27.834"/><path fill="#562F2F" d="M833.216 203.222c.358 6.66 10.61 5.893 10.95-.41.363-6.75-10.61-6.17-10.954.238-.053.978 2.14.57 2.182-.238.106-1.967 1.354-3.892 3.582-3.53 1.71.28 2.73 1.887 2.986 3.462.34 2.077-1.434 4.182-3.563 3.834-1.9-.31-2.917-2.19-3.01-3.94-.043-.794-2.223-.323-2.174.584z"/><path fill="#562F2F" d="M830.216 203.222c.568 10.552 16.4 9.73 16.948-.415.573-10.633-16.4-9.985-16.95.247-.053.956 2.137.537 2.18-.247.21-3.902 2.996-7.157 7.222-6.468 3.006.49 4.874 3.29 5.33 6.078.676 4.15-3.138 7.765-7.186 7.105-3.324-.542-5.204-3.796-5.37-6.883-.042-.77-2.222-.306-2.174.582z"/><path fill="#562F2F" d="M828.847 202.832c.166-2.593-2.252-3.45-4.187-5-.75-.603-.466.347-.1-.29.39-.676.78-1.352 1.172-2.028.643-1.114 1.286-2.23 1.93-3.343l-1.67.597c1.58.615 5.147 3.023 6.845 1.894 1.624-1.08 2.456-.87 2.716-2.565s.52-3.39.78-5.084l-1.487.837h6.205c.608.063.584-.02-.072-.246l.2 1.31.633 4.11c.145.935 2.48 2.16 3.514 1.882 1.965-.526 3.886-1.505 5.78-2.243l-1.464-.12 1.468 2.542 1.31 2.27c.655 1.132.146.785.756.295-.957.768-4.91 2.912-4.82 4.295.237 3.694 1.242 3.67 4.257 6.09.752.602.467-.348.1.288l-1.17 2.03-1.93 3.343c.556-.2 1.112-.397 1.67-.596-1.58-.615-5.15-3.024-6.846-1.895-1.624 1.082-2.456.87-2.716 2.566l-.78 5.084 1.487-.836h-6.205c-.607-.063-.583.02.073.246l-.2-1.31-.63-4.11c-.145-.934-2.483-2.158-3.516-1.88-1.965.525-3.886 1.504-5.78 2.242l1.464.12-1.928-3.343-1.172-2.03c-.42-.73-.885.63-.008-.072 2.046-1.642 4.49-2.5 4.315-5.237-.06-.903-2.236-.402-2.174.583.104 1.622-2.687 3.073-4.135 4.235-.303.242-.508.534-.293.905 1.132 1.96 2.265 3.923 3.396 5.885.268.462 1.097.262 1.465.12l2.293-.894c.594-.23 1.187-.462 1.78-.693 1.587-.617.55-.25 1.18.17 1.702 1.13 1.485 4.04 1.8 6.095.045.284.453.446.697.446h6.797c.53 0 1.388-.186 1.487-.835.236-1.545.15-5.082 1.408-5.72.73-.37.803-.272 2.254.293l3.207 1.248c.552.215 1.376-.09 1.668-.596l3.396-5.886c.158-.273.035-.513-.185-.69-1.486-1.19-4.383-2.612-4.264-4.47.12-1.89 2.398-3.042 4.125-4.427.304-.242.51-.534.294-.905l-3.398-5.886c-.267-.462-1.096-.262-1.464-.12l-2.293.894c-.595.23-1.188.462-1.78.693-1.59.618-.55.25-1.18-.17-1.7-1.13-1.486-4.04-1.802-6.094-.044-.285-.452-.447-.696-.447h-6.797c-.53 0-1.388.187-1.487.836-.237 1.544-.15 5.08-1.41 5.72-.73.37-.803.272-2.253-.293l-3.207-1.248c-.553-.216-1.377.088-1.67.595-1.132 1.96-2.264 3.923-3.395 5.885-.158.273-.035.513.185.69 1.483 1.19 4.384 2.614 4.265 4.47-.068 1.063 2.136.705 2.194-.198z"/></g><g><path fill="#E5DFDF" d="M225.137 17.917l15.775 15.776-15.775 15.775-15.776-15.775z"/><path fill="#562F2F" d="M226.472 48.884l-15.735-15.736c.414.414-.566 1.217.403.25l1.605-1.606 5.68-5.68 7.887-7.887-2.518.29 15.732 15.735c-.414-.414.566-1.217-.403-.25l-1.605 1.607-5.677 5.68-7.885 7.887c-1.235 1.235 1.605 1.354 2.357.603 5.257-5.26 10.515-10.518 15.772-15.776.218-.217.435-.617.16-.89l-15.77-15.776c-.632-.63-1.96-.27-2.52.29-5.257 5.26-10.516 10.517-15.774 15.775-.218.217-.434.617-.16.89 5.258 5.26 10.516 10.52 15.774 15.777.787.787 3.537-.323 2.678-1.183z"/><path fill="none" stroke="#562F2F" stroke-miterlimit="10" d="M225.13 49.71v21.41"/></g><g><path fill="none" stroke="#562F2F" stroke-miterlimit="10" d="M476.653 298.107v-43.72h27.833"/><path fill="#E5DFDF" d="M476.653 304.273v23.334"/><path fill="#562F2F" d="M475.204 304.66v23.336c0 .453 2.897.042 2.897-.777v-23.335c.002-.454-2.896-.042-2.896.776z"/><circle fill="#E5DFDF" cx="476.653" cy="298.107" r="6.166"/><path fill="#562F2F" d="M481.568 298.107c-.34 6.336-9.49 6.336-9.832 0-.34-6.34 9.493-6.307 9.832 0 .086 1.604 2.587 1.612 2.5 0-.226-4.195-3.22-7.19-7.416-7.416-4.187-.225-7.208 3.562-7.416 7.417-.226 4.187 3.56 7.208 7.416 7.416 4.187.226 7.208-3.56 7.416-7.416.087-1.612-2.414-1.604-2.5 0z"/><g fill="none" stroke="#562F2F" stroke-width="2" stroke-miterlimit="10"><circle cx="515.421" cy="254.386" r="4.386"/><circle cx="515.421" cy="254.386" r="7.386"/><path d="M526.36 254.386c0-.434-.032-.86-.083-1.28l4.598-3.688-3.396-5.885-5.5 2.14c-.683-.51-1.42-.95-2.214-1.29l-.893-5.818h-6.797l-.895 5.818c-.792.34-1.528.78-2.212 1.29l-5.498-2.14-3.398 5.886 4.598 3.687c-.05.42-.082.847-.082 1.28 0 .435.033.86.082 1.282l-4.596 3.686 3.396 5.886 5.5-2.14c.682.51 1.42.95 2.213 1.29l.893 5.817h6.797l.893-5.82c.793-.34 1.53-.78 2.215-1.29l5.5 2.14 3.395-5.884-4.598-3.688c.05-.422.082-.848.082-1.282z"/></g></g></g><g class="p1_chip1"><path fill="#E5DEDE" d="M363.25 156.99l8.52 8.52-8.52 8.522-8.52-8.52z"/><path fill="#552F2E" d="M364.608 173.51l-8.486-8.486c.24.24-.233.61.23.15.26-.262.52-.523.782-.784l2.948-2.948 4.497-4.497-2.686.575 8.485 8.486c-.24-.24.232-.61-.23-.15-.26.262-.522.523-.783.784l-2.948 2.948-4.498 4.497c-.73.73 2.104.452 2.655-.1l8.52-8.52c.142-.143.176-.33.03-.476l-8.52-8.522c-.598-.597-2.217.106-2.686.575l-8.52 8.52c-.142.143-.176.33-.03.476l8.522 8.52c.61.607 3.313-.452 2.716-1.05z"/></g><g class="p1_chip1"><path fill="#86F7CB" d="M264.188 186.117l8.52 8.52-8.52 8.52-8.52-8.52z"/><path fill="#552F2E" d="M263.517 202.53l-8.52-8.52c-.042.345-.082.69-.123 1.036l8.52-8.52-2.535.223 8.52 8.52.12-1.037-8.52 8.52c-1.278 1.28 1.53 1.7 2.415.814l8.52-8.52c.24-.24.4-.758.122-1.038l-8.52-8.522c-.705-.705-1.89-.422-2.536.224l-8.52 8.52c-.24.24-.4.758-.122 1.038l8.52 8.52c.906.905 3.65-.27 2.66-1.26z"/></g><g class="p1_chip1"><path fill="#E5DEDE" d="M243.553 515.928l5 5-5 5-5-5z"/><path fill="#552F2E" d="M244.885 525.32l-5-5-.138.974 5-5c-.843.084-1.686.17-2.528.253l4.998 5 .138-.974-5 5c-1.26 1.262 1.564 1.548 2.39.72 1.667-1.666 3.334-3.332 5-5 .23-.23.416-.695.138-.973l-5-5c-.672-.673-1.92-.354-2.527.253l-5 5c-.23.23-.416.696-.138.974l5 5c.85.852 3.6-.29 2.665-1.227z"/></g><g class="p1_chip1"><path fill="#E5DEDE" d="M156.078 383.596l9.96 9.96-9.96 9.958-9.958-9.96z"/><path fill="#552F2E" d="M157.184 402.643l-9.96-9.96.122 1.358 9.96-9.958c-.78.13-1.557.262-2.334.393l9.957 9.96-.122-1.358-9.957 9.96c-1.3 1.302 1.475 1.944 2.455.964l9.957-9.958c.43-.43.244-.992-.12-1.357l-9.958-9.96c-.647-.646-1.82-.12-2.333.394l-9.958 9.958c-.43.43-.244.992.12 1.357l9.96 9.96c.983.982 3.44-.525 2.212-1.752z"/></g><g class="p1_chip1"><path fill="#E5DEDE" d="M179.062 287.51l5 5-5 5-5-5z"/><path fill="#552F2E" d="M180.43 297.035l-4.98-4.98c.146.146-.22.462.088.154l.46-.46 1.73-1.73 2.638-2.64-2.673.616 4.98 4.98c-.147-.146.22-.462-.088-.154l-.46.46-1.73 1.73c-.878.88-1.758 1.758-2.637 2.638-.56.56 2.142.198 2.61-.27l4.998-5c.126-.126.204-.206.064-.345l-5-5c-.46-.46-2.302.244-2.672.615l-5 5c-.126.126-.204.206-.064.345l5 5c.5.502 3.116-.58 2.736-.96z"/></g><g class="p1_chip1"><path fill="#E5DFDF" d="M460.748 281.95l5 5-5 5-5-5z"/><path fill="#562F2F" d="M462.116 291.464l-4.98-4.98c.166.166-.22.497.095.183l.46-.46 1.73-1.73 2.64-2.638c-.893.2-1.785.402-2.677.604l4.98 4.98c-.167-.166.218-.497-.096-.183l-.46.46-1.73 1.73-2.637 2.64c-.6.6 2.136.252 2.62-.23 1.666-1.668 3.333-3.334 5-5 .128-.13.197-.234.055-.376l-5-5c-.49-.49-2.283.213-2.675.605l-5 5c-.13.13-.198.232-.056.374l5 5c.524.525 3.163-.548 2.732-.98z"/></g><g class="p1_chip1"><path fill="#E5DFDF" d="M568.776 180.49l5 5-5 5-5-5z"/><path fill="#562F2F" d="M570.14 189.99l-4.98-4.98c.198.196-.214.55.108.228l.46-.46 1.73-1.73 2.64-2.638-2.682.59 4.98 4.98c-.198-.196.214-.55-.108-.228l-.46.46-1.73 1.73c-.88.878-1.758 1.758-2.638 2.638-.66.662 2.123.343 2.637-.17 1.666-1.668 3.332-3.334 5-5 .134-.136.187-.277.043-.42l-5-5c-.54-.542-2.252.163-2.68.59l-5 5c-.135.135-.188.276-.044.42l5 5c.562.562 3.234-.5 2.725-1.01z"/></g></svg>