<svg version="1.1" id="图层_1" xmlns="http://www.w3.org/2000/svg" xmlns:xlink="http://www.w3.org/1999/xlink" x="0" y="0" width="960" height="640" viewBox="0 0 960 640" xml:space="preserve"><image xmlns="http://www.w3.org/2000/svg" overflow="visible" width="323" height="105" xmlns:xlink="http://www.w3.org/1999/xlink" xlink:href="./images/19949697.png" transform="translate(569.617 85.066)" class="p2_txt"/><g opacity=".2" class="p2_bg"><path fill="#E5DEDE" d="M107.118 146.96h144.218v219.097H107.118z"/><path fill="#552F2E" d="M251.573 365.918h-141.7c-1.103 0-2.393.448-2.393-.44v-6.054-29.02-93.38-78.986-8.845-1.948c0-.682-.89-.146-.275-.146h142.819c1.298 0 .95-.066.95 1.282V366.153c0 .098.724 0 .724-.193V221.5v-74.636c0-.042-.108-.042-.125-.042H107.355c-.117 0-.6.062-.6.236v219.096c0 .042.108.042.125.042h144.218c.14 0 .82-.278.475-.278z"/><path fill="#E5DEDE" d="M132.332 125.286h97.725v240.77h-97.725z"/><path fill="#552F2E" d="M230.087 365.786h-96.429c-1.116 0-.96-.067-.96.157v-14.388-174.792-51.157c0-.62-.608-.05-.065-.05H229.812c.158 0-.123-.467-.123.194V366.082c0 .386.734.28.734-.053V226.757v-101.5c0-.19-.174-.244-.336-.244h-97.725c-.145 0-.398.123-.398.296v240.77c0 .19.174.245.336.245h97.726c.417.002.552-.54.06-.54z"/><path fill="#97C2B8" d="M52.565 239.49h52.553v18.915H52.565z"/><g opacity=".5"><path fill="#E5DEDE" d="M54.56 479.025h129.254V641H54.56z"/><path fill="#552F2E" d="M183.962 640.822H55.2c-.633 0-.28.21-.28-.313V488.54v-8.646c0-1.028.185-.69-.47-.69h129.053c-.093 0-.053 2.895-.053 3.662v158.232c0 .18.725.056.725-.193V492.35v-13.42c0-.08-.17-.083-.214-.083H54.707c-.148 0-.51.077-.51.275v161.976c0 .08.17.082.214.082h129.255c.236 0 .784-.358.297-.358z"/></g><g opacity=".9"><path fill="#AAD8C7" d="M153.076 366.063h76.98V641h-76.98z"/><path fill="#552E2E" d="M230.524 640.698H153.812c-.23 0-.012.208-.012-.367v-5.112-24.555-181.937-62.857l-1.192.496H229.32c.23 0 .012-.208.012.367V641.196c0 .253 1.45.04 1.45-.39v-130.98V366.67v-.8c0-.092-.212-.11-.258-.11h-76.98c-.265 0-1.192.103-1.192.498v274.936c0 .092.21.11.257.11h76.98c.31 0 1.653-.606.934-.606z"/></g><g opacity=".8"><path fill="#F8D1D2" d="M369.814 348.725H517.99V641H369.813z"/><path fill="#552E2E" d="M518.13 640.798H374.36c-.855 0-4.184-.073-4.184.065v-3.375-20.986-80.785V363.99v-14.82c0-.793.106-.242-.468-.242H517.29c.668 0 .338.18.338 1.328v290.841c0 .222.725.085.725-.193V514.188v-159.05-6.51c0-.088-.167-.107-.22-.107H369.956c-.174 0-.504.08-.504.3v292.277c0 .088.167.107.22.107H517.85c.265 0 .77-.406.28-.406z"/></g><path fill="#552F2E" d="M90.98 508.574h54.64c5.03 0 6.617-6.537.726-6.537h-54.64c-5.032 0-6.618 6.537-.727 6.537zM79.735 129.443v78.537c0 1.197 2.21.914 2.21-.137v-78.537c0-1.196-2.21-.913-2.21.137z"/><path fill="#FFF" d="M390.205 378.3h105.083c2.76 0 5.817-.782 8.196-2.195 1.855-1.103 1.583-2.306-.618-2.306H397.783c-2.76 0-5.818.782-8.196 2.195-1.856 1.103-1.583 2.306.618 2.306zM391.56 397.926h105.082c2.49 0 5.976-1.01 7.726-2.886 1.875-2.01-1.627-2.345-2.856-2.345H396.43c-2.49 0-5.976 1.01-7.726 2.886-1.876 2.012 1.626 2.346 2.856 2.346zM450.738 418.435h46.236c2.75 0 6.138-.747 7.588-3.4 1.296-2.377-1.106-4.316-3.385-4.316H454.94c-2.75 0-6.138.746-7.587 3.4-1.296 2.375 1.107 4.315 3.385 4.315zM450.625 437.277h46.237c2.65 0 6.087-.832 7.635-3.226 1.483-2.295-1.247-3.643-3.205-3.643h-46.237c-2.65 0-6.087.832-7.634 3.226-1.484 2.297 1.247 3.644 3.205 3.644z"/><path fill="#552F2E" d="M89.694 536.037h54.64c2 0 4.572-.615 5.72-2.44 1.093-1.73-.916-2.806-2.422-2.806h-54.64c-2 0-4.572.616-5.72 2.44-1.093 1.733.916 2.807 2.422 2.807zM89.587 563.748h54.64c1.915 0 4.52-.698 5.766-2.273 1.28-1.62-1.086-2.178-2.255-2.178h-54.64c-1.915 0-4.52.698-5.766 2.273-1.28 1.62 1.087 2.178 2.255 2.178zM90.968 592.862h54.64c5 0 6.645-6.45.75-6.45h-54.64c-5 0-6.645 6.45-.75 6.45zM89.76 620.623h54.64c2.06 0 4.602-.565 5.694-2.543.982-1.778-.836-3.2-2.53-3.2h-54.64c-2.058 0-4.6.564-5.693 2.542-.98 1.778.837 3.2 2.53 3.2z"/><path fill="#E5DEDE" d="M-.082 348.725h74.61v291.968H-.083z"/><path fill="#552F2E" d="M74.677 640.52H2.454c-1.774 0-2.173.623-2.173-.8v-5.656-24.734-182.326-68.23-7.61c0-1.33.338-2.265-.44-2.265H72.7c1.692 0 1.466-.444 1.466 1.063V640.79c0 .17.725.05.725-.192V513.564 354.84v-6.21c0-.078-.17-.076-.212-.076H.068c-.142 0-.51.077-.51.27v291.969c0 .078.17.076.212.076h74.61c.226-.003.784-.348.297-.348z"/><path fill="#7EC2EB" d="M29.35 258.714h102.98V641H29.35z"/><path fill="#552E2E" d="M130.624 640.63H27.958c-.582 0 .118.395.118-.045v-1.282-5.497-143.908-183.025-47.353l-1.017.566h102.665c.582 0-.118-.396-.118.044V641.195c0 .383 1.45.128 1.45-.39V533.562 342.214 259.52c0-.165-.34-.18-.433-.18H27.644c-.313 0-1.017.155-1.017.567V641.194c0 .163.34.178.432.178h102.98c.49 0 1.56-.743.584-.743z"/><path fill="#FFF" d="M52.56 281.574h52.55v138.712H52.56z" opacity=".8"/><path fill="#ECF3FA" d="M153.076 76.817h52.554v289.246h-52.554z"/><path fill="#552F2E" d="M205.72 365.967h-52.163c-.52 0-.265-1.325-.265-2.116v-53.563-185.68V77.41c0-.61.136-.495-.284-.495h47.565c1.254 0 4.84-.698 4.84.51V366.123c0 .09.434.02.434-.116V238.344 81.808 76.76c0-.043-.104-.038-.125-.038h-52.553c-.078 0-.31.046-.31.155v289.247c0 .044.105.038.126.038h52.554c.13-.002.474-.195.184-.195zM107.263 259.217H55.1c-.377 0-.173-14.1-.173-16.05v-2.707c0 .308-.81.22.355.22H104.66c1.297 0 2.095-.384 2.095.474v18.349c0 .196.725.067.725-.194v-18.915c0-.083-.17-.09-.217-.09H54.71c-.16 0-.508.076-.508.285v18.914c0 .083.17.09.217.09h52.552c.25 0 .78-.377.29-.377z"/><path fill="#95CFB7" d="M64.393 206.912H93.29v32.58H64.392z"/><path fill="#FFF" d="M52.56 433.948h52.55v138.714H52.56z" opacity=".8"/><path fill="#ECF3FA" d="M269.992 235.232h80.92v69.356h-80.92z"/><path fill="#552F2E" d="M350.993 304.453h-73.975c-1.066 0-6.808.227-6.808-.182v-12.654-45.755-10.632c0 .3 7.27.14 8.502.14h65.173c1.067 0 6.81-.227 6.81.182v69.062c0 .2.436.114.436-.047V235.21c0-.077-.063-.113-.136-.113h-80.92c-.082 0-.3.04-.3.16v69.355c0 .076.065.112.138.112h80.92c.177 0 .455-.27.16-.27z"/><g><path fill="#ECF3FA" d="M350.912 235.232h-80.92l42-39.406z"/><path fill="#552F2E" d="M351 235.118H271.62c-.757 0-1.654.33-1.197-.1l10.63-9.973 30.112-28.25c.907-.853.622-.89.88-.626 1.01 1.02 2.017 2.04 3.025 3.06l13.408 13.577 22.23 22.51c.1.1.51-.06.406-.166-12.974-13.134-25.947-26.27-38.92-39.405-.083-.084-.303-.014-.375.054l-42 39.405c-.09.084-.017.144.084.144h80.92c.152-.003.468-.232.175-.232z"/></g><g><path fill="#ECF3FA" d="M230.056 304.59h163.938V641H230.056z"/><path fill="#552F2E" d="M394.133 640.907H245.248c-1.082 0-14.975.07-14.975-.063V629.84v-64.52-189.38-62.17c0-1.138.406-9.088-.35-9.088h18.21c12.238 0 145.642-.106 145.642.106V641.06c0 .08.435.015.435-.118v-116.5-182.33-37.582c0-.028-.063-.036-.078-.036H230.194c-.083 0-.357.028-.357.152V641.058c0 .027.063.035.078.035h163.938c.098.002.5-.186.28-.186z"/></g><g><path fill="#552F2E" d="M107.143 422.02H54.982c-.362 0-.055.42-.055-.51v-3.538-82.328-40.594-10.184c0-1.06.225-1.026-.374-1.026h52.305c-.09 0-.114-.158-.114.874v137.599c0 .382.734.272.734-.055V284.296v-.75c0-.19-.175-.24-.335-.24H54.59c-.14 0-.398.123-.398.294v138.713c0 .19.175.237.335.237h52.552c.414.002.554-.53.063-.53z"/></g><g><path fill="#552F2E" d="M107.254 574.466H55.093c-.385 0-.172-3.086-.172-4.188V487.95v-40.595-10.184c0-1.138.258-1.025-.48-1.025h52.305c.063 0 .003.305.003 1.013V574.76c0 .208.725.076.725-.194V436.6v-.748c0-.085-.168-.1-.22-.1h-52.55c-.168 0-.507.078-.507.293V574.76c0 .084.168.1.22.1h52.55c.26-.002.777-.394.288-.394z"/></g><g><path fill="#552F2E" d="M95.326 240.243H67.465c-.974 0-.706.02-.706.058v-32.38c0 .37-.42.24.63.24H94.58c.86 0 .343-.297.343.136v32.228c0 .362.73.238.73-.064v-32.58c0-.185-.176-.215-.328-.215H66.43c-.133 0-.403.116-.403.28v32.58c0 .186.177.216.33.216H95.25c.403 0 .567-.497.074-.497z"/></g></g><g class="p2_building"><g fill="none" stroke="#FFF" stroke-width=".75" stroke-miterlimit="10"><path d="M1063.955 629.506l-4.953-.683"/><path stroke-dasharray="10.0031,10.0031" d="M1049.093 627.457L310.45 525.62 53.605 630.388h-92.33"/><path d="M-43.727 630.387h-5v-5M-48.727 621.408v-5"/></g><path fill="#86F7CB" d="M546.63 440.69s-14.763 66.76-14.763 68.903c0 8.154 6.61 14.764 14.764 14.764 8.15 0 14.76-6.61 14.76-14.764 0-2.142-14.76-68.902-14.76-68.902z" opacity=".5"/><path fill="#562F2F" d="M542.415 439.798c-2.37 10.72-4.723 21.44-7.06 32.168-2.628 12.058-5.813 24.177-7.668 36.387-1.156 7.615 6.61 14.98 13.808 15.304 8.605.386 15.88-5.127 17.06-13.825.476-3.516-1.108-7.69-1.814-11.07-1.546-7.395-3.146-14.777-4.75-22.16-2.685-12.373-5.397-24.74-8.13-37.104-.094-.422-1.548-.058-1.45.39 2.37 10.718 4.722 21.44 7.06 32.166 2.626 12.058 5.81 24.178 7.664 36.387.958 6.308-4.655 12.313-10.155 14.09-8.223 2.656-15.912-3.867-17.646-11.475-.92-4.045.97-9.018 1.79-12.928 3.19-15.22 6.542-30.408 9.88-45.597.948-4.315 1.897-8.63 2.852-12.944.1-.458-1.346-.22-1.44.212z"/><path fill="#562F2F" d="M541.686 523.746v23.963c0 .45 2.898.04 2.898-.778V522.97c0-.453-2.898-.042-2.898.776z"/><path fill="#E5DFDF" d="M777.545 506.307l73.962 10.222-9.76 70.632-73.964-10.222z"/><path fill="#7DCAF9" d="M863.456 434.333l59.435 8.213-20.958 151.66-59.435-8.214z" opacity=".5"/><path fill="#562F2F" d="M897.815 593.803l-34.113-4.716-20.458-2.828c-1.51-.21-3.02-.42-4.53-.628-.118-.016.152.9.32-.32 3.187-23.036 6.37-46.07 9.556-69.106l11.712-84.706-2.344.94c11.55 1.596 23.1 3.192 34.648 4.79 6.794.937 13.59 1.877 20.382 2.816l4.21.582c-.415-.058-.304-.855-.487.47-3.22 23.308-6.442 46.614-9.665 69.92l-11.573 83.725c-.146 1.055 2.763.51 2.89-.398 6.696-48.454 13.395-96.907 20.093-145.36l1.28-9.27c.048-.342-.237-.498-.544-.54l-59.433-8.216c-.585-.082-2.232.132-2.344.938-6.7 48.453-13.398 96.906-20.097 145.36l-1.282 9.268c-.047.343.238.5.545.54 19.812 2.74 39.624 5.48 59.437 8.218.838.115 3.403-1.26 1.798-1.48z"/><path fill="#562F2F" d="M837.502 585.257l-73.963-10.225c.315.292.63.583.947.874l10.176-73.602-1.98 1.128 73.962 10.225-.948-.874c-3.39 24.533-6.782 49.067-10.174 73.602-.194 1.408 2.757.98 2.928-.254l10.175-73.6c.077-.564-.492-.812-.948-.875l-73.96-10.225c-.7-.097-1.868.316-1.98 1.128L761.56 576.16c-.076.563.493.81.95.874l73.962 10.225c1.355.186 2.982-1.733 1.03-2.003z"/><path fill="#E5DFDF" d="M780.208 488.313l64.058 8.86-2.052 14.836-64.058-8.86z"/><path fill="#562F2F" d="M843.405 511.44l-42.267-5.845-20.555-2.842c-1.995-.276-.72-1.933-.412-4.163l1.48-10.7c-.882.308-1.764.614-2.646.92 14.09 1.95 28.177 3.897 42.266 5.845l20.554 2.84c1.995.277.722 1.934.413 4.164l-1.48 10.7c-.034.254 2.784.054 2.9-.776l2.05-14.838c-.055-.092-.14-.14-.25-.144l-64.056-8.855c-.576-.08-2.54.156-2.646.92l-2.053 14.837c.056.092.14.14.252.144l64.057 8.857c.654.09 3.096-.968 2.395-1.065z"/><path fill="#F9A0A0" d="M829.747 495.143l14.55 2.014-2.053 14.836-14.55-2.013z"/><path fill="#562F2F" d="M842.734 511.016l-14.55-2.014.934.817 2.053-14.837c-.66.365-1.324.73-1.986 1.097l14.547 2.012c-.31-.272-.62-.545-.932-.817l-2.05 14.838c-.188 1.35 2.757.892 2.92-.28l2.05-14.837c.077-.558-.494-.757-.933-.817l-14.547-2.013c-.664-.092-1.88.313-1.987 1.097L826.2 510.1c-.077.558.494.757.933.817l14.55 2.014c1.3.18 3.006-1.645 1.054-1.914z"/><g fill="#E5DFDF" stroke="#562F2F" stroke-miterlimit="10"><circle cx="784.716" cy="493.341" r="2"/><circle cx="783.926" cy="499.067" r="1.999"/></g><g fill="#E5DFDF" stroke="#562F2F" stroke-miterlimit="10"><circle cx="791.249" cy="494.244" r="2"/><circle cx="790.458" cy="499.971" r="2"/></g><g fill="#E5DFDF" stroke="#562F2F" stroke-miterlimit="10"><circle cx="797.782" cy="495.147" r="2"/><circle cx="796.988" cy="500.874" r="1.999"/></g><g fill="#E5DFDF" stroke="#562F2F" stroke-miterlimit="10"><circle cx="804.313" cy="496.05" r="2"/><circle cx="803.521" cy="501.776" r="2"/></g><g fill="#E5DFDF" stroke="#562F2F" stroke-miterlimit="10"><circle cx="810.845" cy="496.953" r="2"/><circle cx="810.052" cy="502.679" r="2"/></g><g fill="#E5DFDF" stroke="#562F2F" stroke-miterlimit="10"><circle cx="817.376" cy="497.856" r="2"/><path d="M818.564 503.857c-.15 1.094-1.16 1.857-2.254 1.705-1.094-.15-1.86-1.158-1.707-2.254.152-1.094 1.16-1.857 2.254-1.705 1.094.15 1.858 1.16 1.707 2.254z"/></g><g fill="#E5DFDF" stroke="#562F2F" stroke-miterlimit="10"><circle cx="823.906" cy="498.759" r="1.999"/><circle cx="823.114" cy="504.485" r="2"/></g><path fill="#E5DFDF" d="M795.7 466.844L792.5 489.98"/><path fill="#562F2F" d="M794.973 466.928c-1.065 7.712-2.13 15.424-3.197 23.137-.084.61 1.38.356 1.453-.168 1.064-7.712 2.13-15.424 3.196-23.137.084-.61-1.38-.357-1.453.168z"/><g><circle fill="#E5DFDF" cx="795.906" cy="465.357" r="3.75"/><path fill="#562F2F" d="M798.9 465.978c-.387 2-1.995 3.315-4.07 2.422-1.405-.604-2.038-2.237-1.92-3.662.174-2.066 2.183-3.237 4.072-2.424 1.406.603 2.04 2.238 1.92 3.664-.043.503 1.404.202 1.438-.213.468-5.603-7.882-5.9-8.87-.814-1.066 5.5 7.89 5.89 8.87.815.092-.468-1.356-.216-1.44.213z"/></g><g fill="#E5DFDF" stroke="#562F2F" stroke-miterlimit="10"><path d="M862.23 436.75l4.454.615-.617 4.458-4.454-.616z" stroke-width="1.00003"/><path d="M861.357 442.9l4.46.617-.617 4.457-4.46-.616z" stroke-width="1.00001"/><path d="M860.498 449.082l4.456.617-.616 4.457-4.457-.616z" stroke-width="1.00003"/><path d="M859.66 455.137l4.458.615-.615 4.46-4.457-.616z" stroke-width=".99999"/><path d="M858.84 461.334l4.46.617-.617 4.457-4.458-.617z" stroke-width="1.00004"/><path d="M857.947 467.512l4.455.62-.62 4.455-4.455-.62z" stroke-width="1.00003"/><path d="M857.115 473.566l4.457.615-.616 4.46-4.456-.616zM856.23 479.754l4.46.615-.616 4.458-4.458-.615zM855.416 485.853l4.457.615-.615 4.456-4.457-.615z" stroke-width=".99999"/><path d="M854.498 492.04l4.457.616-.617 4.457-4.457-.618z" stroke-width=".99996"/><path d="M853.72 498.138l4.456.615-.615 4.456-4.456-.616zM852.834 504.325l4.458.615-.615 4.46-4.46-.617z" stroke-width=".99999"/><path d="M852.014 510.473l4.457.62-.618 4.455-4.457-.62z" stroke-width="1.00001"/><path d="M851.2 516.62l4.457.617-.617 4.458-4.458-.617zM850.35 522.762l4.458.617-.616 4.457-4.46-.617zM849.5 528.906l4.458.617-.617 4.457-4.457-.617z" stroke-width="1.00004"/><path d="M848.587 535.04l4.46.615-.617 4.458-4.458-.615z" stroke-width=".99999"/><path d="M847.702 541.176l4.457.618-.618 4.456-4.457-.617z" stroke-width=".99996"/><path d="M846.953 547.336l4.458.618-.615 4.455-4.46-.618z" stroke-width="1.00004"/><path d="M846.04 553.466l4.457.615-.615 4.46-4.46-.615zM845.23 559.564l4.456.615-.615 4.457-4.456-.615z" stroke-width=".99999"/><path d="M844.356 565.713l4.46.615-.614 4.458-4.46-.615z" stroke-width=".99997"/><path d="M843.456 571.89l4.457.617-.617 4.457-4.457-.617zM842.606 578.03l4.457.618-.617 4.458-4.458-.617z" stroke-width=".99996"/></g><g fill="#E5DFDF" stroke="#562F2F" stroke-miterlimit="10"><path d="M868.883 437.722l4.457.616-.617 4.46-4.456-.618z" stroke-width="1.00003"/><path d="M868.045 443.775l4.456.616-.614 4.46-4.457-.616z" stroke-width=".99999"/><path d="M867.195 449.968l4.46.616-.617 4.458-4.46-.616z" stroke-width="1.00001"/><path d="M866.368 456.105l4.455.616-.616 4.456-4.455-.616z" stroke-width="1.00003"/><path d="M865.464 462.252l4.46.615-.617 4.46-4.458-.617zM864.65 468.347l4.457.615-.615 4.458-4.457-.615zM863.8 474.49l4.457.616-.615 4.457-4.457-.615z" stroke-width=".99999"/><path d="M862.98 480.687l4.46.617-.617 4.457-4.46-.616z" stroke-width="1.00004"/><path d="M862.07 486.772l4.454.617-.617 4.457-4.456-.617z" stroke-width=".99996"/><path d="M861.254 492.917l4.456.615-.615 4.46-4.457-.616zM860.407 499.062l4.457.615-.615 4.456-4.458-.615z" stroke-width=".99999"/><path d="M859.583 505.26l4.46.616-.618 4.456-4.46-.617z" stroke-width="1.00004"/><path d="M858.708 511.346l4.457.616-.615 4.458-4.457-.615z" stroke-width=".99999"/><path d="M857.786 517.532l4.457.617-.617 4.455-4.457-.617z" stroke-width=".99996"/><path d="M857.036 523.686l4.46.617-.618 4.457-4.46-.617z" stroke-width="1.00004"/><path d="M856.148 529.814l4.454.615-.615 4.458-4.455-.615z"/><path d="M855.273 535.962l4.46.616-.617 4.458-4.458-.615z" stroke-width=".99999"/><path d="M854.44 542.066l4.46.615-.615 4.46-4.46-.616z" stroke-width=".99997"/><path d="M853.614 548.202l4.457.615-.615 4.46-4.456-.616zM852.725 554.39l4.458.615-.615 4.46-4.46-.616zM851.916 560.49l4.457.614-.615 4.458-4.457-.615z" stroke-width=".99999"/><path d="M851.092 566.688l4.46.617-.618 4.458-4.46-.617zM850.243 572.832l4.46.617-.618 4.456-4.46-.617z" stroke-width="1.00004"/><path d="M849.292 578.96l4.458.616-.617 4.454-4.458-.617z" stroke-width=".99996"/></g><g><circle fill="#FBD3D5" cx="831.653" cy="339.721" r="59.036"/><circle fill="#E5DFDF" cx="660.076" cy="283.515" r="13.279"/><g fill="#562F2F"><path d="M883.672 339.887c-.277 23.994-14.633 45.433-37.023 54.315-23.17 9.19-49.793.737-65.286-18.14-15.16-18.472-16.677-45.098-5.11-65.702 12.322-21.956 38.175-32.7 62.496-27.287 26.244 5.842 44.615 30.344 44.922 56.814.015 1.29 2.918.688 2.906-.332-.248-21.467-11.433-40.836-29.924-51.76-17.578-10.383-40.658-10.56-58.608-1-18.863 10.043-31.145 28.946-32.382 50.313-1.238 21.373 9.89 41.625 27.63 53.188 17.868 11.646 42.096 12.332 60.838 2.352 19.74-10.512 32.187-30.695 32.446-53.093.015-1.284-2.894-.697-2.906.332zM658.26 267.376c-7.573.382-13.685 5.325-14.848 12.947-1.303 8.538 6.263 14.948 14.114 15.344 7.66.387 14.1-5.668 15.214-12.96 1.303-8.538-6.263-14.948-14.114-15.344-1.168-.06-3.064 1.647-1.1 1.746 14.31.722 17.142 22.46 2.09 24.757-15.554 2.374-18.385-23.93-1.723-24.77 1.484-.077 2.365-1.822.366-1.72z"/></g><path fill="#E5DFDF" d="M668.045 290.487l100.87 64.048"/><path fill="#562F2F" d="M667.76 290.673c33.623 21.35 67.246 42.7 100.87 64.048.22.142.883-.173.57-.372L668.33 290.3c-.222-.14-.884.175-.57.373z"/><g><image xmlns="http://www.w3.org/2000/svg" overflow="visible" width="103" height="80" xmlns:xlink="http://www.w3.org/1999/xlink" xlink:href="./images/19949694.png" transform="translate(773 297)"/></g></g><g><circle fill="#7DCAF9" cx="111.808" cy="48.509" r="19.44" opacity=".4"/><path fill="#562F2F" d="M129.053 48.55c-.39 11.12-9.05 19.526-20.33 19.13-9.693-.34-16.81-8.738-17.777-17.88-1.23-11.627 9.157-20.854 20.28-20.463 10.252.36 17.488 9.595 17.828 19.27.01.256.735.104.725-.194-.37-10.48-8.797-19.946-19.76-19.56-10.997.386-19.458 8.62-19.848 19.698-.37 10.523 9.29 19.984 19.758 19.616 10.996-.387 19.46-8.62 19.85-19.697.01-.324-.718-.182-.727.08z"/><image xmlns="http://www.w3.org/2000/svg" overflow="visible" width="33" height="17" xmlns:xlink="http://www.w3.org/1999/xlink" xlink:href="./images/19949695.png" transform="translate(91 37)"/></g><g><circle fill="#7DCAF9" cx="633.876" cy="407.439" r="17.735" opacity=".4"/><path fill="#562F2F" d="M648.313 401.288c2.78 7.36 1.02 14.992-4.793 20.334-9.18 8.436-22.52 3.175-27.16-6.73-3.293-7.034-.69-15.298 4.793-20.337 9.18-8.438 22.522-3.173 27.16 6.733.076.163.773-.09.725-.193-9.82-20.97-41.617-7.77-33.402 13.99 3.22 8.53 13.968 13.094 22.423 9.9 9.862-3.724 14.753-13.895 10.978-23.89-.06-.157-.77.07-.725.193z"/></g><path xmlns="http://www.w3.org/2000/svg" opacity=".4" fill="#66BAED" d="M46.395 640.383l265.63-104.87 658.882 89.182-5.928 93.688z"/></g><g class="p2_car1"><path fill="#AEDECC" d="M-43.826 3.436c-.107 8.25 6.557 15.086 14.805 15.19l42.995.55c8.25.107 15.085-6.557 15.19-14.808l.114-8.998c.106-8.25-6.557-15.086-14.806-15.19l-42.998-.55c-8.25-.106-15.084 6.557-15.19 14.808l-.112 8.998z"/><path fill="#562F2F" d="M-44.912 3.727c.28 8.71 6.98 15.357 15.722 15.47 5.598.07 11.197.143 16.795.214l22.08.284c5.477.07 10.253-.332 14.846-3.795 6.522-4.918 5.74-13.116 5.83-20.32.11-8.722-6.714-15.854-15.478-15.965l-37.843-.482c-5.917-.076-11.107 0-16.116 3.777-6.647 5.01-5.744 13.486-5.836 20.817-.007.58 2.163.205 2.173-.582.122-9.608.236-23.12 13.812-22.948l15.105.192c7.58.096 15.16.192 22.738.29 8.325.105 15.957 1.865 18.793 11 .984 3.17.447 7.09.406 10.356-.08 6.182-1.648 11.41-7.216 14.91-4.785 3.007-13.472 1.576-18.826 1.507l-23.37-.3c-7.26-.092-13.93.1-18.872-6.456-1.852-2.457-2.472-5.56-2.57-8.553-.018-.604-2.198-.195-2.172.583z"/><path fill="#562F2F" d="M-3.135-19.943l-.498 38.996c0 .13.722.025.725-.194.165-13 .33-26 .497-38.997 0-.13-.722-.026-.725.194zM-23.383-20.204c-.09 7.11-.183 14.223-.275 21.334 0 .102.722.006.725-.194.09-7.11.183-14.223.275-21.334 0-.102-.723-.006-.725.194zM9.145-8.105l-.122 9.583c-.004.38.73.272.734-.055.04-3.194.08-6.39.122-9.583.003-.38-.73-.272-.735.055z"/><path fill="#FFF" d="M-43.46 12.442c-.04 3.3 2.625 6.034 5.925 6.076l81.99 1.047c3.3.042 6.035-2.623 6.078-5.923l.097-7.5c.042-3.3-2.623-6.033-5.922-6.075L-37.29-.98c-3.3-.042-6.034 2.623-6.075 5.923l-.094 7.5z"/><path fill="#562F2F" d="M-44.908 12.83c.6 5.813 5.182 6.292 9.8 6.35l17.014.217 47.08.6c6.04.078 22.87 3.045 22.997-6.89.07-5.405 1.15-13.564-6.594-13.663L34.282-.698c-18.51-.236-37.018-.472-55.527-.71l-14.972-.19c-2.474-.032-5.766.85-7.21 3.056-2.127 3.243-1.435 7.646-1.482 11.372-.007.526 2.887.105 2.897-.776.062-4.998-.848-12.474 5.943-12.387 5.13.065 10.26.13 15.39.197l46.907.6L41.62.66c.72.01 1.437.02 2.155.027 6.63.085 5.378 7.95 5.324 12.172-.092 7.036-5.26 6.066-10.066 6.005l-19.47-.25c-12.792-.162-25.582-.326-38.373-.49l-13.527-.172c-4.395-.056-9.062.018-9.673-5.9-.064-.614-2.983-.044-2.898.777z"/><g><path fill="#E5DFDF" d="M25.306 18.32c-.06 4.605 3.622 8.383 8.224 8.44 4.604.06 8.38-3.623 8.44-8.228.06-4.6-3.625-8.38-8.225-8.437-4.603-.06-8.382 3.625-8.44 8.226z"/><path fill="#562F2F" d="M23.857 18.71c.497 12.142 18.805 10.786 19.56-.565.363-5.44-5.32-9.384-10.334-8.635-4.994.747-8.878 3.96-9.226 9.2-.038.562 2.834.176 2.897-.777.335-5.052 4.776-8.826 9.822-6.128 2.62 1.4 3.828 4.295 3.944 7.116.213 5.21-5.247 8.58-9.823 6.132-2.622-1.402-3.828-4.298-3.943-7.12-.025-.648-2.934-.138-2.897.777z"/></g><g><circle fill="#E5DFDF" cx="-23.027" cy="17.704" r="8.335"/><path fill="#562F2F" d="M-32.81 17.985c.503 12.114 18.812 10.753 19.566-.563.364-5.452-5.317-9.353-10.328-8.602-4.983.746-8.887 3.918-9.238 9.165-.034.506 2.836.142 2.897-.776.335-5.015 4.745-8.852 9.823-6.138 2.624 1.402 3.832 4.304 3.948 7.127.212 5.165-5.223 8.596-9.82 6.14-2.625-1.404-3.833-4.308-3.95-7.13-.025-.597-2.934-.1-2.898.775z"/></g></g><g class="p2_bub1"><circle fill="#E5DFDF" cx="576.04" cy="358.856" r="31.16"/><path fill="#562F2F" d="M571.812 325.247c-16.24.687-31.217 12.896-31.986 29.854-.848 18.685 13.835 33.498 32.365 33.526 16.236.024 31.243-13.447 31.985-29.852.846-18.682-13.83-33.498-32.363-33.527-.71 0-2.35 1.07-.89 1.074 15.988.025 28.915 11.78 30.967 27.52 2.26 17.323-11.638 32.988-28.81 33.713-15.936.673-28.983-12.29-30.97-27.515-2.26-17.324 11.642-32.99 28.813-33.717.697-.028 2.345-1.134.89-1.073z"/><path fill="#562F2F" d="M553.938 395.38c-23.56-11.82-31.285-41.415-16.407-63.255.41-.6-1.062-.528-1.362-.086-15.062 22.106-7.23 52.126 16.632 64.097.478.24 1.792-.43 1.138-.758z" opacity=".5"/><image xmlns="http://www.w3.org/2000/svg" overflow="visible" width="72" height="40" xmlns:xlink="http://www.w3.org/1999/xlink" xlink:href="./images/1994969C.png" transform="translate(537 335)"/><path fill="none" stroke="#562F2F" stroke-miterlimit="10" d="M653.473 518.473l-66.354-90.86-.876-42.958"/><g opacity=".5"><path fill="#E5DFDF" d="M535.045 296.97l41.014 28.762"/><path fill="#562F2F" d="M534.475 297.345l41.014 28.762c.436.306 1.757-.318 1.14-.752l-41.014-28.76c-.437-.307-1.76.317-1.14.75z"/></g><circle fill="#E5DFDF" cx="587.118" cy="427.613" r="6.166"/><path fill="#562F2F" d="M591.83 427.65c-.094 2.797-1.834 5.628-5.038 5.174-2.433-.346-3.93-2.573-4.34-4.803-.542-2.943 1.932-6.054 4.992-5.618 2.704.385 4.205 2.993 4.39 5.474.08 1.052 2.986.414 2.898-.777-.69-9.242-14.936-8.024-15.233.802-.317 9.387 14.94 8.38 15.237-.576.043-1.295-2.873-.73-2.908.323z"/><g><circle fill="#E5DFDF" cx="530.414" cy="295.25" r="6.165"/><path fill="#562F2F" d="M535.853 295.21c-.114 3.39-2.528 6.204-6.198 5.684-2.55-.362-4.197-2.686-4.63-5.042-.66-3.598 2.634-6.746 6.15-6.246 2.816.4 4.485 3.1 4.68 5.713.036.496 1.49.184 1.448-.39-.638-8.613-13.5-7.835-13.778.532-.288 8.688 13.496 7.986 13.78-.424.02-.62-1.436-.327-1.452.173z"/></g></g><g class="p2_car2"><path fill="#F07578" d="M-51.302-.483c-.132 4.856 4.26 8.95 9.756 9.1l82.473 2.243c5.498.15 10.104-3.702 10.234-8.558.132-4.857-4.26-8.953-9.756-9.102l-82.47-2.24c-5.498-.15-10.104 3.7-10.236 8.557z"/><path fill="#562F2F" d="M-46.797.287C-46.39 8.47-39.04 8.327-33.1 8.49l19.334.526c15.376.418 30.754.837 46.128 1.253 3.524.093 7.05.19 10.574.287 11.404.31 13.446-16.07 1.213-16.4L7.142-6.85c-11.17-.305-22.34-.61-33.51-.912-7.334-.2-19.353-2.312-20.43 8.05-.062.594-2.963-.02-2.875-.854 1.25-12.016 18.586-8.563 26.76-8.34 15.712.425 31.42.853 47.127 1.28 8.21.223 20.114-1.503 27.426 3.144 3.372 2.14 4.578 6.175 3.605 9.885-1.167 4.46-6.252 6.313-10.336 6.445-2.884.094-5.823-.158-8.705-.237-18.144-.494-36.285-.985-54.426-1.478-8.93-.245-30.783 2.816-31.453-10.7-.022-.47 2.83-.05 2.876.855z"/><path fill="#FFF" d="M-26.22-8.378c3.548-11.996 14.805-20.606 27.908-20.25 13.1.356 23.87 9.565 26.76 21.736l-54.667-1.486z"/><path fill="#562F2F" d="M-24.775-8.575C-20.78-20.955-9.485-29.013 3.66-27.66 15.157-26.475 24.143-17.333 27-6.503l2.026-1.16-54.668-1.484c-1.024-.028-3.11 1.488-1.154 1.54L27.87-6.12c.484.013 2.24-.356 2.027-1.16C26.35-20.73 14.617-29.37.817-29.4c-13.037-.028-24.547 9.03-28.48 21.22-.3.924 2.59.524 2.888-.395z"/><path fill="#562F2F" d="M-8.462-8.125c.16-5.833.317-11.666.475-17.5.03-1.15-2.867-.525-2.892.385l-.474 17.5c-.03 1.15 2.867.525 2.892-.385zM2.563-8.023l.34-12.495c.017-.61-2.872-.174-2.897.776l-.34 12.495c-.017.61 2.872.174 2.897-.776z"/><path fill="#E5DFDF" d="M20.685 10.57c-.124 4.602 3.505 8.433 8.105 8.56 4.6.124 8.43-3.505 8.555-8.105.127-4.6-3.503-8.43-8.103-8.558-4.6-.125-8.43 3.503-8.557 8.103z"/><path fill="#562F2F" d="M19.236 10.958c.327 12.17 18.64 11.007 19.558-.322.44-5.448-5.188-9.448-10.214-8.77-5 .678-8.92 3.878-9.344 9.092-.045.55 2.82.18 2.897-.776.41-5.028 4.896-8.727 9.924-5.945 2.6 1.44 3.765 4.353 3.84 7.175.135 5.196-5.375 8.463-9.922 5.947-2.602-1.44-3.766-4.355-3.842-7.178-.017-.64-2.922-.145-2.897.776z"/><g><circle fill="#E5DFDF" cx="-27.629" cy="9.257" r="8.334"/><path fill="#562F2F" d="M-37.408 9.418c.32 12.145 18.64 10.965 19.56-.322.444-5.46-5.19-9.413-10.208-8.734-4.99.674-8.93 3.835-9.352 9.056-.04.493 2.823.146 2.897-.776.407-5.03 4.88-8.744 9.92-5.954 2.6 1.44 3.767 4.36 3.843 7.185.14 5.193-5.36 8.478-9.92 5.956-2.605-1.44-3.77-4.364-3.843-7.187-.016-.585-2.922-.107-2.898.775z"/></g></g><g class="p2_bubs"><path fill="#562F2F" d="M396.717 209.584c-12.28-25.038-10.066-54.853 5.875-77.715 13.36-19.164 35.662-30.96 58.902-31.864 24.864-.97 48.398 11.49 62.665 31.616 14.077 19.862 17 45.662 9.21 68.516-4.44 13.023-12.796 24.4-23.276 33.208-1.013.852 2.324 2.38 3.3 1.56 18.997-15.965 29.178-39.69 27.766-64.458-1.23-21.604-12.437-41.824-29.155-55.307-34.53-27.845-86.826-20.605-112.712 15.17-16.655 23.02-18.345 53.92-5.946 79.2.517 1.056 4.13 1.62 3.37.074z" opacity=".6"/><path fill="#E5DFDF" d="M417.23 488.36l38.852-254.237"/><path fill="#562F2F" d="M417.958 488.29l20.483-134.032c6.124-40.07 12.248-80.138 18.37-120.207.102-.66-1.37-.432-1.458.145L434.87 368.227c-6.124 40.07-12.248 80.138-18.37 120.207-.102.66 1.37.432 1.458-.145z"/><circle fill="#66BAED" cx="466.16" cy="175.693" r="61.791"/><path fill="#562F2F" d="M522.854 184.817c-4.004 24.36-21.76 44.307-45.91 50.155-24.67 5.975-50.672-5.986-64.322-26.786-12.92-19.688-12.638-45.58-.635-65.563 13.602-22.646 40.948-32.962 66.237-26.43 30.073 7.77 48.904 38.38 44.63 68.624-.113.8 2.76.257 2.865-.482 3.097-21.917-5.223-43.502-22.266-57.633-16.415-13.61-39.307-17.045-59.406-10.767-19.877 6.21-35.45 22.175-41.536 42.01-6.504 21.2-.352 44.404 14.615 60.455 16.49 17.685 42.494 23.25 65.23 16.147 22.747-7.106 39.515-26.8 43.362-50.213.128-.783-2.743-.264-2.866.483z"/><image xmlns="http://www.w3.org/2000/svg" overflow="visible" width="81" height="56" xmlns:xlink="http://www.w3.org/1999/xlink" xlink:href="./images/1994969F.png" transform="translate(422 149)"/><g><circle fill="#F07578" cx="138.562" cy="347.625" r="38.768" opacity=".6"/><image xmlns="http://www.w3.org/2000/svg" overflow="visible" width="57" height="47" xmlns:xlink="http://www.w3.org/1999/xlink" xlink:href="./images/1994969B.png" transform="translate(104.167 318.242)"/><path fill="#E5DFDF" d="M171.43 351.54l197.125 102.38"/><path fill="#562F2F" d="M170.86 351.92c42.467 22.057 84.933 44.11 127.398 66.167 23.243 12.07 46.485 24.143 69.73 36.214.478.25 1.79-.42 1.136-.76l-127.396-66.165c-23.243-12.07-46.485-24.143-69.728-36.214-.48-.248-1.793.42-1.14.76zM178.484 224.835l29.75 4.547-.322 2.103-29.75-4.547z"/><path fill="#562F2F" d="M191.995 243.204l-2.103-.322 4.544-29.75 2.104.32z"/><path fill="#562F2F" d="M186.4 241.612l-1.825-1.09 15.437-25.838 1.825 1.09z"/><path fill="#562F2F" d="M188.504 213.827l2.064-.518 7.338 29.187-2.058.52z"/><path fill="#562F2F" d="M206.66 234.97l-1.09 1.823-25.84-15.436 1.09-1.825z"/><path fill="#562F2F" d="M207.54 223.464l.52 2.06-29.187 7.357-.52-2.06z"/><path fill="#562F2F" d="M204.706 218.392l1.26 1.714-24.237 17.845-1.262-1.713z"/><path fill="#562F2F" d="M202.982 239.64l-1.712 1.26-17.845-24.238 1.712-1.26z"/><path fill="#562F2F" d="M205.13 230.425c-1.038 6.79-7.386 11.453-14.177 10.416-6.793-1.038-11.457-7.384-10.42-14.175 1.04-6.792 7.385-11.455 14.178-10.417 6.792 1.038 11.458 7.384 10.42 14.177"/><path fill="#FFF" d="M195.568 228.962c-.232 1.512-1.645 2.546-3.154 2.316-1.512-.232-2.55-1.64-2.318-3.152.23-1.51 1.643-2.547 3.154-2.316 1.51.23 2.55 1.642 2.318 3.152"/><g><path fill="#E5DFDF" d="M189.88 235.427l-49.255 72.28"/><path fill="#562F2F" d="M188.518 235.352l-49.254 72.28c-.806 1.184 2.135 1.013 2.723.15l49.254-72.28c.806-1.183-2.135-1.012-2.722-.15z"/></g><path fill="#E5DFDF" stroke="#562F2F" stroke-width=".75" stroke-miterlimit="10" d="M393.994 493.506l-23.808-38.497"/><g><circle fill="#E5DFDF" cx="370.186" cy="455.008" r="6.166"/><path fill="#562F2F" d="M375.076 455.607c-1.246 5.987-9.74 5.34-9.8-.86-.03-2.806 2.63-4.625 5.172-4.65 3.136-.03 4.853 3.09 4.583 5.843-.156 1.604 2.345 1.59 2.5 0 .393-3.998-2.16-7.414-6.08-8.23-4.058-.847-7.763 2.187-8.566 6.035-.847 4.056 2.19 7.763 6.037 8.564 4.06.846 7.765-2.188 8.566-6.038.328-1.574-2.082-2.243-2.41-.665z"/></g><g><path fill="#562F2F" d="M171.187 350.913c-3.59 20.913-23.12 34.794-44.086 30.394-19.112-4.012-30.973-23.295-28.455-42.085 2.823-21.066 23.714-34.67 44.086-30.396 19.116 4.01 30.977 23.296 28.457 42.087-.115.86 2.074.462 2.173-.273 2.83-21.107-12.047-41.638-33.716-43.734-20.73-2.005-39.626 11.935-43.172 32.59-3.608 21.02 12.63 41.692 33.716 43.73 20.73 2.005 39.625-11.93 43.17-32.586.146-.842-2.045-.464-2.17.273z"/></g></g><g><path fill="#562F2F" d="M367.565 234.123c28.34 14.837 37.174 51.27 18.477 77.39-.323.452 1.102.258 1.326-.056 18.785-26.242 10.115-62.902-18.445-77.855-.4-.21-1.617.385-1.358.52z" opacity=".5"/><path fill="#E5DFDF" d="M407.057 510.117l-45.13-187.266"/><path fill="#562F2F" d="M407.42 510.02c-11.643-48.308-23.285-96.615-34.926-144.924-3.4-14.113-6.802-28.228-10.204-42.34-.078-.322-.803-.13-.725.192l34.925 144.925c3.4 14.113 6.802 28.228 10.204 42.34.078.322.803.13.725-.192z"/><path fill="#E5DFDF" d="M288.477 276.065c-3.826 25.048 13.375 48.454 38.424 52.28 25.048 3.83 48.458-13.37 52.284-38.42 3.828-25.05-13.373-48.457-38.422-52.285s-48.457 13.375-52.285 38.425z"/><path fill="#562F2F" d="M344.774 238.784c24.163 4.064 40.747 26.168 38.145 50.473-2.705 25.252-26.823 42.646-51.486 39.254-24.262-3.335-40.686-26.712-38.143-50.47 2.705-25.25 26.82-42.648 51.484-39.256.664.09 1.498-.845.52-.98-20.32-2.793-40.004 7.455-49.203 25.828-9.608 19.194-3.58 42.585 12.575 56.077 15.88 13.26 39.188 13.262 56.017 1.962 17.8-11.953 24.326-35.383 16.807-55.123-5.878-15.433-20.152-26.046-36.194-28.745-.665-.113-1.492.816-.522.98z"/><g><image xmlns="http://www.w3.org/2000/svg" overflow="visible" width="58" height="54" xmlns:xlink="http://www.w3.org/1999/xlink" xlink:href="./images/1994969D.png" transform="translate(305 257)"/></g></g><g><path fill="#E5DFDF" d="M485.89 410.593l-59.618 80.597"/><path fill="#562F2F" d="M485.534 410.66l-59.62 80.597c-.034.047.59.033.714-.135l59.62-80.597c.034-.046-.59-.033-.714.135z"/><circle fill="#7DCAF9" cx="497.11" cy="386.327" r="25.682" opacity=".4"/><path fill="#562F2F" d="M519.743 389.938c-2.938 16.272-19.596 25.82-35.174 19.354-10.728-4.453-16.275-16.175-14.88-27.308 2.07-16.53 20.3-25.53 35.177-19.355 10.728 4.452 16.275 16.175 14.876 27.308-.01.068.698.014.725-.193 1.994-15.884-9.884-29.34-25.802-29.608-12.812-.216-23.487 9.78-25.7 22.042-2.857 15.826 10.526 29.35 25.804 29.606 12.812.216 23.485-9.78 25.698-22.04.01-.058-.687-.02-.725.192z"/><image xmlns="http://www.w3.org/2000/svg" overflow="visible" width="54" height="28" xmlns:xlink="http://www.w3.org/1999/xlink" xlink:href="./images/P3t5.png" transform="translate(468.394 370.41)"/></g></g><g class="p2_car3"><path fill="#FFF" d="M136.28 581.764l42.806-17.127-1.867-4.668c-2.02-5.046.456-10.823 5.5-12.843l3.745-1.498c5.043-2.02 10.822.458 12.84 5.503l1.867 4.666 8.178-3.27s3.455-20.622-18.77-42.493c0 0-10.366-10.393-31.306-1.13l-62.314 24.93s-17.377 5.9-12.092 23.987c0 0 8.592 25.467 18.1 37.266l13.4-5.36-1.307-3.26c-.714-1.794.35-3.92 2.368-4.73l13.04-5.22c2.02-.806 4.257 0 4.974 1.794.717 1.795 1.305 3.26 1.305 3.26"/><path fill="#562F2F" d="M166.258 497.986c-26.876 9.03-54.626 18.31-79.604 31.852-1.287.697.66.946 1.332.582 24.45-13.256 52.932-22.813 78.544-31.418 1.257-.422 1.014-1.447-.272-1.016z"/><path fill="#FFF" d="M154.86 510.438c-.808-2.018-3.116-3.008-5.136-2.2l-42.39 16.958c-2.017.81-3.01 3.12-2.202 5.135l49.727-19.892z"/><path fill="#562F2F" d="M155.584 510.243c-2.2-3.66-5.345-2.48-8.523-1.208l-17.4 6.96-18.63 7.454c-3.403 1.36-7.67 2.37-6.62 7.074.058.264.848.023.975-.027 16.576-6.63 33.15-13.262 49.727-19.893.958-.384.048-.554-.502-.334l-48.95 19.582c-2.675 1.07 3.387-5.075 2.16-4.584l3.714-1.485 14.948-5.98 16.346-6.54c3.406-1.362 8.696-4.978 11.31-.63.215.36 1.566-.19 1.446-.39z"/><path fill="#E5DFDF" d="M93.12 593.377c.808 2.018 3.12 3.008 5.136 2.2l42.39-16.958c2.02-.808 3.01-3.118 2.204-5.136l-1.72-4.3-49.79 19.742 1.78 4.45z"/><path fill="#562F2F" d="M92.456 593.688c2.572 4.276 6.51 2.127 10.06.707l19.548-7.82 17.318-6.93c5.528-2.21 4.4-5.835 2.472-10.655-.165-.41-.71-.33-1.037-.2l-49.79 19.74c-.19.076-.51.345-.41.59l1.78 4.452c.247.617 1.685.2 1.45-.39l-1.22-3.042c-.47-1.173-.545-.988-.775-.897l3.236-1.283 14.623-5.798 30.68-12.165.962-.382c-1.16.46-.56.73.096 2.37 1.04 2.602.38 5.642-2.334 6.728-4.685 1.874-9.37 3.75-14.056 5.623-5.91 2.364-11.817 4.728-17.725 7.09-3.122 1.25-10.77 6.26-13.546 1.642-.314-.524-1.705-.002-1.33.62z"/><path fill="#FFF" d="M158.57 533.324l-28.734 11.5-5.79-14.47 28.736-11.498z"/><path fill="#562F2F" d="M130.085 544.962l28.736-11.498c.083-.032.542-.19.476-.355l-5.79-14.47c-.102-.257-.817-.03-.973.033l-28.736 11.498c-.082.033-.54.19-.475.356l5.79 14.47c.137.345 1.556-.12 1.448-.39l-4.6-11.494c-.42-1.052-.846-2.946-1.512-2.68l3.833-1.534 24.713-9.888c-1.075.43-.968-.063-.506 1.09l1.072 2.68 3.097 7.742.94 2.353c.296.74.84.22.388.4l-4.327 1.732-24.073 9.632c-.957.382-.045.54.5.322z"/><path fill="#FFF" d="M118.906 531.44l5.58 15.5-26.595 10.64 3.286-19.045z"/><path fill="#562F2F" d="M118.182 531.636c1.31 3.64 2.62 7.28 3.932 10.918.54 1.503 1.082 3.005 1.623 4.508-.084-.235.842-.535-.175-.128l-2.36.944c-7.863 3.146-15.725 6.29-23.588 9.437l1 .166 3.273-18.978c-.047.275-.666.392.097.086l2.07-.828c1.936-.774 3.87-1.55 5.807-2.323l9.324-3.73c.945-.378.072-.78-.555-.53l-9.325 3.73c-2.532 1.014-6.568 1.78-8.704 3.534-1.254 1.032-1.273 6.73-1.535 8.246l-1.897 10.994c-.078.452.813.24 1 .166l26.596-10.64c.138-.057.525-.245.447-.46l-5.58-15.5c-.17-.47-1.604-.042-1.448.39z"/><path fill="#FFF" d="M157.205 516.297l5.93 14.826 28.176-11.27s-10.317-13.163-19.304-9.478l-14.8 5.922z"/><path fill="#562F2F" d="M156.48 516.49l5.93 14.827c.116.29.8.08.985.007l28.176-11.27c.147-.06.596-.238.42-.46-3.848-4.835-10.946-11.472-17.768-10.09-5.918 1.2-11.69 4.355-17.278 6.592-.954.38-.057.634.52.402 6.6-2.64 15.175-8.174 22.286-5.314 4.104 1.65 7.65 5.134 10.486 8.445.504.588 1.166-.12-.112.39-1.275.51-2.55 1.022-3.826 1.53l-22.11 8.847c-1.886.754-.43.28-.446.24l-1.76-4.398c-1.35-3.38-2.702-6.758-4.053-10.137-.16-.395-1.58.06-1.45.388z"/><path fill="#99C7BD" d="M207.576 535.447c.78 1.633 2.756 2.332 4.39 1.55l.495-.235c1.634-.78 2.333-2.758 1.552-4.39l-6.15-12.874c-.78-1.635-2.756-2.332-4.39-1.55l-.495.235c-1.635.78-2.332 2.756-1.553 4.39l6.152 12.874z"/><path fill="#562F2F" d="M206.9 535.716c2.57 3.923 9.98.952 7.752-3.714l-6.066-12.698c-2.067-4.327-10.01-.98-7.865 3.508 2.045 4.276 4.088 8.553 6.132 12.83.213.445 1.62-.032 1.45-.39-1.185-2.477-2.37-4.954-3.553-7.432l-2.116-4.426c-1.243-2.602.166-7.815 4.068-4.364.734.648 1.177 2.214 1.58 3.06l2.718 5.687 1.97 4.122c1.546 3.237-2.032 7.377-4.717 3.28-.23-.35-1.637.103-1.354.536zM108.483 535.175l-3.545 19.46c-.126.69 1.352.486 1.464-.128l3.545-19.46c.126-.69-1.352-.486-1.464.128zM140.764 507.49l1.46 3.65c.227.564 1.66.14 1.45-.388l-1.46-3.652c-.227-.563-1.66-.137-1.45.39zM112.828 518.253l1.602 4.008c.216.542 1.648.11 1.45-.388-.535-1.336-1.07-2.672-1.603-4.008-.216-.54-1.648-.11-1.45.39z"/><path fill="#562F2F" d="M108.036 539.566c-2.65 1.06-5.3 2.12-7.95 3.182-.934.373-.093.994.603.715 2.65-1.06 5.3-2.12 7.95-3.182.933-.372.092-.993-.604-.714zM107.165 544.07l-7.953 3.18c-.92.368-.108 1.207.654.9l7.953-3.18c.92-.367.107-1.206-.655-.9zM106.528 548.824l-7.95 3.184c-.95.38-.064.69.533.453l7.952-3.183c.95-.38.063-.69-.534-.453z"/><path fill="#EFDE9C" d="M89.256 519.307l4.434 7.55 7.775-3.614s-6.094-5.792-12.21-3.936z"/><path fill="#562F2F" d="M88.59 519.62c1.48 2.518 2.957 5.035 4.435 7.552.18.306.73.213.98.096l7.776-3.615c.207-.096.62-.473.35-.725-3.446-3.218-8.3-5.307-13.003-4.1-.896.228-.636 1.187.257.958 4.073-1.045 8.443.994 11.416 3.77l.348-.724-7.775 3.615c.327.03.654.063.98.096l-4.433-7.55c-.318-.544-1.705-.013-1.33.628z"/><path fill="#E5DFDF" d="M178.895 518.95c3.207-1.284 6.547-.474 7.46 1.81s-.946 5.176-4.153 6.46l-3.307-8.27z"/><path fill="#562F2F" d="M179.04 519.11c2.466-.902 6.078-.86 7.07 2.093.884 2.632-2.005 4.967-4.055 5.855.17.02.34.042.508.063l-3.307-8.27c-.107-.267-.822-.05-.725.194 1.104 2.757 2.206 5.514 3.308 8.27.073.184.374.122.508.063 2.553-1.107 5.41-3.626 4.37-6.716-1.06-3.154-5.568-2.75-7.968-1.873-.475.176-.042.444.293.322z"/><path fill="#99C7BD" d="M89.012 568.824l76.9-30.764s25.844-13.334 42.207.707c0 0 2.085 9.695 1.23 13.762l-8.18 3.27-10.47 4.187-11.615 4.65-76.12 30.453c.002 0-9.807-15.266-13.953-26.266z"/><path fill="#562F2F" d="M89.55 569.296l68.904-27.564c9.257-3.703 18.23-8.038 28.373-8.64 6.273-.373 12.415 1.095 17.704 4.495 3.714 2.387 3.404 8.26 3.572 12.338.114 2.762.95 2.037-1.675 3.086l-4.828 1.932-7.573 3.028c-30.535 12.21-61.065 24.433-91.598 36.648l1.987.083c-5.324-8.314-10.365-17.05-13.955-26.265-.34-.87-3.193.02-2.897.777 3.59 9.213 8.63 17.95 13.955 26.266.378.59 1.468.29 1.988.083l69.13-27.656c7.793-3.117 15.585-6.238 23.378-9.355 2.22-.89 4.442-1.777 6.663-2.665 2.395-.958 5.742-1.63 7.81-3.208 1.89-1.444.055-8.736-.24-10.624-.192-1.23-.422-2.456-.68-3.674-.325-1.543-4.635-3.27-6.035-3.97-18.135-9.09-40.026 3.926-56.744 10.613l-58.315 23.33c-1.9.758-.133 1.426 1.076.943z"/><path fill="#E5DFDF" d="M166.78 529.666l-1.237-3.092c-.268-.672.063-1.44.734-1.71l2.8-1.12c.673-.27 1.446.06 1.714.732l1.237 3.088-5.248 2.102z"/><path fill="#562F2F" d="M167.142 529.57l-.97-2.426c-.175-.44-.353-.792-.342-1.29.017-.777 1.227-1.062 1.767-1.277 1.186-.474 2.39-1.107 3.025.48l1.043 2.604c.07-.09.14-.184.21-.276-1.75.7-3.498 1.4-5.247 2.102-.466.187-.047.5.303.36l5.25-2.1c.087-.036.258-.16.21-.278l-1.236-3.088c-.628-1.568-2.31-.783-3.395-.35-.91.363-3.02.87-2.664 2.3.293 1.176.872 2.31 1.32 3.433.117.29.834.078.726-.194z"/><path fill="#E5DFDF" d="M134.172 542.71l-1.236-3.09c-.268-.67.063-1.442.734-1.71l2.803-1.12c.672-.27 1.44.06 1.71.73l1.235 3.09-5.246 2.1z"/><path fill="#562F2F" d="M134.534 542.614c-.382-.956-2.217-4.042-.633-4.676l2.052-.82c.593-.237.79-.428 1.475-.024.313.184.458.684.587 1.008.305.762.61 1.523.913 2.285.132.33.252.2.162.235-.28.11-.558.223-.836.334l-4.288 1.717c-.44.176.25.142.412.076l5.246-2.1c.03-.013.18-.078.156-.136l-1.234-3.09c-.58-1.453-2.222-.697-3.222-.298-1.146.46-2.804.744-2.836 2.25-.01.51.43 1.204.61 1.654.238.592.475 1.185.71 1.776.067.164.775-.07.726-.192z"/><path fill="#562F2F" d="M182.45 537.012l-28.996 11.6c-1.91.764-.104 1.182 1.02.73 9.667-3.866 19.332-7.732 28.997-11.6 1.913-.763.106-1.18-1.02-.73zM149.422 550.173c-3.28 1.312-6.56 2.623-9.838 3.936-1.905.76-.116 1.29 1.047.825l9.84-3.936c1.904-.763.115-1.293-1.048-.827zM158.46 550.546l-41.33 16.535c-1.878.752-.167 1.78 1.16 1.25 13.776-5.513 27.554-11.024 41.33-16.536 1.88-.75.167-1.778-1.16-1.248z" opacity=".2"/><g opacity=".2"><path fill="#562F2F" d="M111.453 569.585l-14.023 5.61c-1.905.763-.116 1.293 1.047.827l14.023-5.61c1.905-.763.116-1.293-1.047-.827z"/></g><g opacity=".2"><path fill="#562F2F" d="M175.938 544.447l-9.838 3.936c-1.878.752-.165 1.763 1.156 1.234l9.838-3.936c1.878-.75.164-1.76-1.156-1.233z"/></g><g opacity=".2"><path fill="#562F2F" d="M166.847 551.13l-28.994 11.602c-1.853.74-.2 2.187 1.256 1.604l28.993-11.602c1.853-.742.2-2.187-1.256-1.604z"/></g><g opacity=".2"><path fill="#562F2F" d="M133.936 564.728c-3.28 1.312-6.558 2.623-9.836 3.936-1.905.762-.116 1.292 1.047.826 3.28-1.312 6.558-2.623 9.836-3.936 1.905-.762.116-1.292-1.047-.826z"/></g><g opacity=".2"><path fill="#562F2F" d="M160.453 559.002l-9.84 3.936c-1.878.752-.165 1.762 1.156 1.234l9.84-3.936c1.878-.752.164-1.76-1.157-1.234z"/></g><path fill="#FFF" d="M201.44 556.393c-1.065-2.66-2.302-5.754-3-7.502-1.517-3.79-6.886-5.24-11.93-3.222l-4.155 1.662c-5.045 2.018-7.932 6.77-6.414 10.563l3.005 7.51c8.436-3.376 13.098-5.243 22.494-9.01z"/><g><path fill="#E5DFDF" d="M181.99 560.814c1.555 3.885 5.96 5.773 9.844 4.22 3.883-1.554 5.77-5.962 4.217-9.845-1.55-3.884-5.958-5.772-9.843-4.22-3.883 1.555-5.77 5.962-4.217 9.844z"/><path fill="#562F2F" d="M180.542 561.203c4.463 9.703 20.52 3.983 16.958-6.402-3.472-10.12-20.497-3.928-16.958 6.403.315.92 3.19.078 2.897-.777-1.02-2.977-.438-5.98 1.95-8.123 3.305-2.97 7.744.08 9.212 3.275 1.29 2.808.26 6.14-1.95 8.124-3.31 2.97-7.744-.08-9.213-3.276-.424-.92-3.25.012-2.898.777z"/></g><g><path fill="#562F2F" d="M136.874 582.44l42.807-17.126c.333-.133 1.043-.598.855-1.066-2.468-6.17-4.697-13.45 3.523-16.74 4.69-1.876 8.906-2.334 12.606 1.915 1.51 1.735 2.22 4.664 3.06 6.765.305.763 1.472.518 2.043.29 2.797-1.12 8.907-1.858 9.172-5.416.515-6.926-1.343-13.946-3.992-20.275-3.41-8.146-9.247-17.16-16.405-22.45-5.673-4.193-13.348-4.676-20.076-3.708-5.598.804-10.775 3.194-15.983 5.278l-18.273 7.31-38.133 15.26c-2.083.832-3.433 1.282-5.974 2.82-5.818 3.524-9.49 9.333-9.69 16.166-.183 6.17 3.065 12.604 5.325 18.164 3.677 9.05 7.838 18.315 13.89 26.053.42.537 1.426.292 1.935.09l13.4-5.362c.332-.133 1.042-.598.854-1.066-2.54-6.33 1.057-7.263 5.84-9.177 4.883-1.954 8.808-5.266 11.642 1.8.444 1.108 3.31.252 2.896-.777-1.25-3.114-2.283-6.287-6.327-5.844-2.59.284-5.26 1.81-7.628 2.757l-7.407 2.965c-4.506 1.803-3.34 5.502-1.915 9.055l.854-1.066-13.4 5.36 1.934.09c-6.65-8.503-10.974-18.782-14.916-28.755-2.74-6.935-5.778-14.124-2.65-21.536 3.67-8.7 13.845-10.908 21.792-14.088l42.452-16.984c11.663-4.667 26.61-12.085 37.87-2.855 9.828 8.056 16.87 21.333 18.815 33.805.428 2.74.588 5.592.26 8.354-.09.756 1.42-.827.374-.41l-2.766 1.107-4.96 1.982 2.044.29c-1.27-3.177-2.28-7.108-5.28-9.14-3.835-2.6-7.975-2.72-12.212-1.023-3.76 1.505-7.776 3.144-9.26 7.324-1.63 4.588.074 8.215 1.77 12.453l.854-1.067-42.807 17.127c-1.873.744-.18 1.898 1.187 1.35z"/></g><path fill="#FFF" d="M136.506 583.244l-1.957-4.89c-.673-1.68-2.6-2.505-4.28-1.833l-13.482 5.396c-1.682.672-2.508 2.6-1.834 4.28l1.873 4.683 19.68-7.636z"/><g><path fill="#E5DFDF" d="M117.994 586.418c1.555 3.883 5.96 5.77 9.844 4.22 3.887-1.556 5.773-5.962 4.22-9.847-1.554-3.88-5.96-5.77-9.843-4.216-3.885 1.553-5.774 5.96-4.22 9.844z"/><path fill="#562F2F" d="M116.545 586.807c4.644 10.09 20.64 4.328 16.96-6.404-1.617-4.716-7.207-6.347-11.565-4.852-4.662 1.6-6.96 6.687-5.395 11.257.465 1.36 3.355.558 2.897-.777-1.074-3.135-.272-6.488 2.717-8.247 3.24-1.907 7.044.347 8.447 3.397 1.375 2.99.047 6.623-2.715 8.25-3.242 1.906-7.047-.35-8.45-3.4-.6-1.307-3.47-.472-2.897.777z"/></g></g></svg>