<svg version="1.1" id="图层_1" xmlns="http://www.w3.org/2000/svg" xmlns:xlink="http://www.w3.org/1999/xlink" x="0" y="0" width="960" height="640" viewBox="0 0 960 640" xml:space="preserve"><image overflow="visible" width="501" height="141" xlink:href="./images/D2393A88.png" transform="translate(451.093 62.477) scale(.9976)" class="p3_txt"/><path stroke="#66B1E0" d="M0 0l10 10L0 0z" opacity=".2" class="p3_bg"/><g class="p3_one"><path fill="#E5DFDF" d="M83.133 612.393c0 3.728-3.022 6.75-6.75 6.75s-6.75-3.022-6.75-6.75c0-3.73 3.022-6.75 6.75-6.75s6.75 3.02 6.75 6.75z"/><path fill="#562F2F" d="M82.842 612.26c-.235 4.358-4.324 7.675-8.75 5.38-2.15-1.113-3.177-3.472-3.3-5.77-.243-4.49 4.78-7.438 8.75-5.38 2.15 1.114 3.176 3.47 3.3 5.77.016.294 1.472.04 1.45-.39-.507-9.403-14.465-8.61-14.95.39-.504 9.36 14.465 8.602 14.95-.39.012-.25-1.426-.064-1.45.39z"/><path fill="#562F2F" d="M76.768 609.33c-.793 2.085-.676 4.306-.666 6.5.003.68 1.46.398 1.457-.15-.01-2.193-.128-4.414.665-6.5.212-.558-1.254-.385-1.457.15z"/></g><g class="p3_two"><path fill="#E5DFDF" d="M469.88 613.373c0 3.727-3.02 6.75-6.75 6.75-3.727 0-6.75-3.023-6.75-6.75 0-3.73 3.023-6.75 6.75-6.75 3.73 0 6.75 3.022 6.75 6.75z"/><path fill="#562F2F" d="M469.585 613.118c-.194 3.604-2.706 6.372-6.49 6.17-3.04-.165-5.068-2.953-5.517-5.702-.624-3.83 2.808-6.98 6.455-6.783 3.345.182 5.394 3.41 5.556 6.438.03.564 1.482.242 1.448-.39-.507-9.416-14.46-8.884-14.954.27-.21 3.927 3.563 7.35 7.397 7.143 4.116-.223 7.335-3.093 7.562-7.29.038-.68-1.426-.422-1.457.145z"/><path fill="#562F2F" d="M461.977 611.412c.185-.528.67-.523 1.163-.464.69.085 1.088.478 1.206 1.146.248 1.403-1.732 2.452-2.816 2.745-.593.16-.87.866-.12 1.012 1.295.253 2.624.14 3.935.13.824-.007 1.116-1.058.132-1.052-1.19.01-2.386.107-3.563-.12l-.12 1.013c1.927-.52 4.75-2.32 3.842-4.687-.702-1.827-4.413-1.692-5.042.114-.275.79 1.174.763 1.383.162z"/></g><g class="p3_three"><path fill="#E5DFDF" d="M515.646 613.373c0 3.727-3.02 6.75-6.75 6.75-3.728 0-6.75-3.023-6.75-6.75 0-3.73 3.022-6.75 6.75-6.75s6.75 3.022 6.75 6.75z"/><path fill="#562F2F" d="M515.354 613.132c-.203 3.774-2.983 6.766-7.03 6.104-2.794-.455-4.558-3.055-4.98-5.65-.655-4.028 3.12-7.363 6.993-6.732 3.085.503 4.864 3.515 5.02 6.387.025.487 1.48.185 1.448-.39-.506-9.395-14.46-8.816-14.95.282-.51 9.446 14.46 8.972 14.95-.174.034-.614-1.423-.325-1.45.174z"/><path fill="#562F2F" d="M507.468 610.737c1.744-1.242 3.392 2.022 1.823 2.313-.58.107-1.29.696-.26.562.863-.113 1.673.55 1.523 1.438-.152.916-1.113.732-1.803.73-.35-.004-.73.08-1.024.272-.224.146-.195.333.092.335 1.27.01 3.016.076 3.9-1.03.47-.587.376-1.283-.082-1.816-.546-.634-1.608-.583-2.347-.486l-.263.562c1.336-.248 3.252-1.262 1.983-2.827-1.176-1.455-3.298-1.08-4.66-.11-.6.425.854.245 1.118.057z"/></g><g class="p3_four"><circle fill="#86F7CB" cx="794.207" cy="613.43" r="6.75"/><path fill="#562F2F" d="M801.232 613.624c-.228 4.204-3.86 7.354-8.228 5.64-2.454-.963-3.69-3.558-3.824-6.027-.23-4.31 4.32-7.172 8.228-5.64 2.455.962 3.692 3.556 3.824 6.027.02.363 1.475.092 1.448-.39-.508-9.432-14.462-8.654-14.948.39-.226 4.174 4.14 7.493 8.093 6.85 3.84-.626 6.64-3.237 6.855-7.237.02-.324-1.42-.11-1.448.387z"/><path fill="#562F2F" d="M793.055 610.456c-.215 1.166-.847 3.46.786 3.877 1.32.336 2.785-.048 4.12-.072.4-.006 1.584-.624.62-.605-1.11.02-2.21.224-3.325.14-1.61-.124-.945-2.625-.77-3.585.068-.366-1.363-.12-1.43.246z"/><path fill="#562F2F" d="M795.8 610.182c-.077 1.93.453 3.797.496 5.72.01.41 1.46.14 1.45-.39-.043-1.854-.577-3.667-.504-5.528.023-.557-1.427-.245-1.443.198z"/></g><g class="p3_five"><circle fill="#F07578" cx="953.506" cy="622.457" r="6.75"/><path fill="#562F2F" d="M960.53 622.65c-.233 4.353-4.233 7.73-8.748 5.39-2.15-1.115-3.178-3.48-3.303-5.777-.242-4.487 4.74-7.466 8.75-5.388 2.15 1.115 3.177 3.48 3.3 5.776.015.258 1.472.013 1.45-.39-.507-9.392-14.467-8.58-14.95.39-.503 9.355 14.468 8.57 14.95-.39.012-.208-1.425-.035-1.45.39z"/><g><path fill="#562F2F" d="M951.934 618.82c-.282 1.192-.88 4.45 1.313 4.334.333-.02.624-.112.92-.268.608-.318.944.12 1.45.61 1.473 1.428-1.87 2.122-2.69 2.202-.763.072-1.158 1.03-.162.936 1.21-.116 6.068-1.293 4.39-3.48-.706-.92-1.83-1.7-3.013-1.277-.678.242-.897.2-1.07-.707-.147-.77.146-1.745.322-2.495.148-.63-1.326-.423-1.46.145z"/><path fill="#562F2F" d="M952.914 620.01c.98-.15 1.938-.147 2.917.004.34.053.757-.06 1.024-.274.23-.185.173-.402-.12-.447-1.2-.183-2.397-.18-3.6.005-.26.04-.74.162-.83.46s.465.273.61.25z"/></g></g><g class="p3_paper1"><path fill="#FFF" d="M556.408 543.137c0 4.613-3.738 8.354-8.352 8.354h-67.648c-4.612 0-8.353-3.74-8.353-8.353v-94.172c0-4.61 3.74-8.352 8.353-8.352h67.648c4.612 0 8.352 3.74 8.352 8.352v94.172z"/><path fill="#562F2F" d="M554.94 543.245c-.672 8.306-8.31 7.177-14.18 7.177H481.21c-10.87 0-7.685-18.73-7.685-25.6v-47.33-28.58c0-7.936 7.566-7.23 12.924-7.23h60.298c11.216 0 8.19 16.647 8.19 24.015v77.548c0 1.53 2.94 1.098 2.94-.217v-74.33-16.115c0-3.647.297-7.707-2.8-10.363-3.563-3.057-7.573-2.675-11.905-2.675H482.36c-5.62 0-10.224 2.337-11.66 8.174-.64 2.595-.11 5.895-.11 8.516v82.854c0 6.688 1.607 13.47 9.998 13.47h59.262c7.522 0 17.207.655 18.03-9.53.12-1.513-2.833-1.107-2.94.215z"/><g opacity=".4"><path fill="#7DCAF9" d="M481.062 459.904h66.344v72.137h-66.344z"/><path fill="#562F2F" d="M547.953 531.165H481.61l.903.71V459.74c-.667.346-1.335.692-2.002 1.04h66.344l-.903-.71v72.136c0 1.29 2.907.7 2.907-.33V459.74c0-.503-.435-.712-.904-.712H481.61c-.524 0-2.002.264-2.002 1.04v72.138c0 .502.434.71.903.71h66.344c1.156 0 3.06-1.75 1.1-1.75z"/></g><path fill="#562F2F" d="M547.953 531.165H481.61l.903.71V459.74c-.667.346-1.335.692-2.002 1.04h66.344l-.903-.71v72.136c0 1.29 2.907.7 2.907-.33V459.74c0-.503-.435-.712-.904-.712H481.61c-.524 0-2.002.264-2.002 1.04v72.138c0 .502.434.71.903.71h66.344c1.156 0 3.06-1.75 1.1-1.75z"/><circle fill="#FFF" cx="514.233" cy="539.82" r="4.454"/><path fill="#562F2F" d="M517.235 539.994c-.093 1.718-1.04 3.7-3.077 3.37-1.68-.273-2.655-1.917-2.904-3.446-.293-1.803 1.104-3.96 3.053-3.642 1.873.306 2.84 2.23 2.932 3.933.052.98 2.96.37 2.896-.778-.378-7.022-11.454-5.992-11.808.563-.385 7.146 11.45 6.34 11.81-.35.066-1.23-2.848-.656-2.903.35z"/><g><path fill="#FFF" d="M523.698 451.85c0 .77-.623 1.392-1.393 1.392H506.16c-.77 0-1.394-.62-1.394-1.392 0-.77.623-1.393 1.394-1.393h16.146c.77 0 1.392.623 1.392 1.393z"/><path fill="#562F2F" d="M522.254 452.048c-.124.458 1.077.426.232.426h-15.7c-2.588 0-1.233-1.25-.51-1.25h7.378c1.705 0 8.032-1.063 8.595 1.016.252.934 3.15.154 2.897-.777-.87-3.223-8.71-1.77-11.093-1.77-2.7 0-9.738-1.318-10.73 2.355-.834 3.083 10.028 1.96 11.087 1.96 2.7 0 9.74 1.316 10.73-2.355.262-.964-2.637-.525-2.886.395z"/></g></g><g class="p3_paper2"><path fill="#7DCAF9" d="M443.687 394.076c0 2.75-2.25 5-5 5H382.16c-2.75 0-5-2.25-5-5v-9.354c0-2.75 2.25-5 5-5h56.527c2.75 0 5 2.25 5 5v9.354z"/><path fill="#562F2F" d="M443.324 394.173c-.902 6.662-10.705 4.754-15.378 4.754h-42.959c-2.698 0-4.828.098-6.782-2.43-1.7-2.196-.685-7.708-.685-10.23 0-7.674 7.01-6.395 12.32-6.395h48.406c5.572 0 5.08 5.4 5.08 9.157-.002 1.714-.002 3.43-.002 5.143 0 .122.725.018.725-.192 0-4.437 1.806-14.405-5.15-14.405h-54.74c-3.478 0-7.364.934-7.364 5.365 0 4.498-1.782 14.286 5.22 14.286h54.67c3.71 0 6.778-.923 7.364-5.245.01-.093-.696-.03-.726.193z"/><path fill="#562F2F" d="M390.163 399.745v-6.174c0-.317-.726-.167-.726.085v6.174c0 .317.726.167.726-.085zM387.957 399.69v-3.783c0-.106-.725-.006-.725.192v3.782c0 .108.725.008.725-.192zM385.752 399.69v-3.783c0-.183-.725-.06-.725.192v3.782c0 .183.725.06.725-.192zM383.547 399.69v-3.783c0-.11-.725-.01-.725.192v3.782c0 .112.725.01.725-.192zM396.96 399.69v-3.783c0-.226-.724-.087-.724.192v3.782c0 .226.725.09.725-.192zM394.756 399.69v-3.783c0-.185-.725-.06-.725.192v3.782c0 .185.726.06.726-.192zM392.55 399.69v-3.783c0-.155-.724-.04-.724.192v3.782c0 .157.725.042.725-.192zM406.053 399.69v-6.175c0-.098-.725 0-.725.193v6.174c0 .1.725 0 .725-.192zM403.85 399.755v-3.783c0-.36-.73-.237-.73.064v3.783c0 .362.73.238.73-.065zM401.646 399.763v-3.782c0-.395-.736-.296-.736.05v3.783c0 .393.736.294.736-.05zM399.436 399.69v-3.783c0-.18-.725-.056-.725.192v3.782c0 .18.726.056.726-.192zM412.856 399.76v-3.783c0-.38-.734-.27-.734.056v3.783c0 .38.734.27.734-.056zM410.646 399.69v-3.783c0-.195-.725-.067-.725.192v3.782c.002.197.726.07.726-.192zM408.44 399.69v-3.783c0-.203-.724-.072-.724.192v3.782c0 .205.725.074.725-.192z"/><path fill="#562F2F" d="M482.28 410.326c-.695 5.133-5.646 4.11-8.81 4.11H339.298c-7.61 0-5.513-10.83-5.513-15.715V358.2v-83.507c0-2.918-.962-8.505 3.806-9.15 1.734-.236 3.664 0 5.408 0h123.93c5.18 0 15.35-2.092 15.35 5.8v138.983c0 1.158 2.206.842 2.206-.157V270.76c0-7.58-6.84-6.838-12.275-6.838H348.013c-4.947 0-16.433-1.896-16.433 5.974v139.842c0 7.676 8.457 6.322 13.666 6.322H468.05c5.64 0 15.38 1.892 16.436-5.89.15-1.127-2.07-.844-2.207.156z"/><path fill="#FFF" d="M464.638 303.656c0 2.75-2.25 5-5 5h-106.15c-2.75 0-5-2.25-5-5v-8.378c0-2.75 2.25-5 5-5h106.148c2.75 0 5 2.25 5 5l.002 8.378z"/><path fill="#562F2F" d="M463.903 303.708c-.77 5.688-7.146 4.407-10.652 4.407H354.99c-2.666 0-5.764-1.436-5.764-4.652 0-3.54-1.523-11.87 4.204-12.644 2.233-.303 4.718 0 6.965 0H459.144c6.34 0 4.76 9.047 4.76 12.888 0 .773 1.47.562 1.47-.104 0-4.717 1.573-13.867-5.673-13.867H366.567c-6.123 0-18.812-2.56-18.812 6.726 0 4.646-1.23 12.734 5.723 12.734h91.696c5.772 0 19.083 2.657 20.2-5.593.1-.752-1.38-.563-1.47.104z"/><path fill="#FFF" d="M464.638 344.18c0 2.75-2.25 5-5 5h-106.15c-2.75 0-5-2.25-5-5v-8.377c0-2.75 2.25-5 5-5h106.148c2.75 0 5 2.25 5 5l.002 8.377z"/><path fill="#562F2F" d="M463.918 344.287c-.776 5.73-6.533 4.537-10.432 4.537h-98.264c-7.362 0-6.008-7.888-6.008-13.074 0-5.788 6.958-4.592 10.427-4.592h99.505c6.373 0 4.768 9.225 4.768 13.216 0 .354 1.45.108 1.45-.39 0-4.618 1.57-13.537-5.48-13.537H365.47c-5.99 0-17.706-2.322-17.706 6.682 0 4.642-1.22 12.405 5.624 12.405h92.25c5.56 0 18.636 2.546 19.72-5.463.065-.48-1.383-.204-1.44.215z"/><path fill="#E5DFDF" d="M372.38 356.072h9.924v9.924h-9.924z"/><path fill="#562F2F" d="M382.336 365.73h-9.903c.382 0 .314.41.314-.068v-1.1-3.166-5.332c0 .32-.67.27-.093.27H382.25c-.38 0-.313-.41-.313.07v9.619c0 .38.734.27.734-.056v-9.924c0-.19-.174-.237-.334-.237h-9.924c-.142 0-.4.12-.4.292v9.925c0 .19.176.236.336.236h9.924c.414 0 .556-.53.064-.53z"/><circle fill="#E5DFDF" cx="357.333" cy="339.6" r="2.137"/><path fill="#562F2F" d="M359.108 339.647c-.06 1.095-.797 2.047-2.01 1.85-.864-.14-1.398-.966-1.527-1.762-.188-1.164.837-2.224 1.998-2.033.955.155 1.492 1.113 1.54 1.994.012.22.74.075.725-.193-.166-3.08-4.84-2.792-4.997.146-.167 3.103 4.837 2.864 4.996-.098.015-.285-.71-.134-.724.095z"/><circle fill="#E5DFDF" cx="363.115" cy="339.6" r="2.136"/><path fill="#562F2F" d="M364.884 339.626c-.057 1.05-.764 1.89-1.878 1.83-.973-.053-1.61-.99-1.66-1.883-.056-1.055.856-1.886 1.877-1.83.973.053 1.612.988 1.66 1.883.022.387.753.277.735-.053-.17-3.155-4.84-3.034-5.006.053-.07 1.31 1.192 2.45 2.47 2.38 1.372-.073 2.46-1.033 2.536-2.433.02-.384-.716-.282-.734.053z"/><circle fill="#E5DFDF" cx="368.897" cy="339.6" r="2.137"/><path fill="#562F2F" d="M370.672 339.696c-.07 1.274-1.166 2.322-2.51 1.626-.682-.354-1-1.096-1.04-1.82-.07-1.314 1.31-2.248 2.512-1.625.68.352 1 1.095 1.038 1.82.007.12.735 0 .725-.194-.166-3.083-4.843-2.685-4.998.193-.076 1.4 1.384 2.363 2.662 2.155 1.265-.204 2.262-1.004 2.335-2.35.005-.096-.714-.012-.725.196z"/><circle fill="#E5DFDF" cx="374.681" cy="339.6" r="2.137"/><path fill="#562F2F" d="M376.455 339.696c-.07 1.297-1.205 2.298-2.513 1.62-.677-.353-.997-1.09-1.036-1.814-.072-1.334 1.327-2.234 2.513-1.62.676.352.996 1.09 1.035 1.814.01.16.737.03.725-.193-.167-3.096-4.84-2.715-4.998.193-.075 1.39 1.39 2.39 2.67 2.18 1.273-.207 2.255-1.028 2.328-2.373.007-.14-.712-.04-.725.193z"/><circle fill="#E5DFDF" cx="380.463" cy="339.6" r="2.136"/><path fill="#562F2F" d="M382.238 339.65c-.06 1.142-.89 2.16-2.16 1.813-.788-.217-1.253-.97-1.376-1.728-.198-1.22.932-2.333 2.145-2 .875.24 1.344 1.115 1.39 1.96.01.203.738.063.725-.192-.166-3.075-4.837-2.775-4.995.147-.167 3.1 4.834 2.844 4.993-.103.014-.267-.71-.11-.722.103z"/><circle fill="#E5DFDF" cx="386.245" cy="339.6" r="2.137"/><path fill="#562F2F" d="M388.02 339.645c-.06 1.096-.808 2.04-2.01 1.846-.863-.14-1.397-.957-1.526-1.753-.19-1.164.847-2.213 2-2.025.953.155 1.49 1.104 1.537 1.986.014.235.74.087.726-.193-.167-3.086-4.84-2.806-4.998.143-.167 3.11 4.838 2.885 4.998-.09.014-.303-.713-.157-.726.087z"/><circle fill="#E5DFDF" cx="392.028" cy="339.6" r="2.137"/><path fill="#562F2F" d="M393.804 339.65c-.06 1.093-.795 2.05-2.01 1.852-.863-.14-1.398-.973-1.527-1.767-.19-1.162.833-2.23 1.995-2.038.956.154 1.494 1.12 1.54 2 .012.208.74.064.726-.194-.166-3.078-4.84-2.78-4.997.146-.166 3.102 4.837 2.85 4.996-.102.015-.273-.71-.12-.722.1z"/><circle fill="#E5DFDF" cx="397.811" cy="339.6" r="2.136"/><path fill="#562F2F" d="M399.58 339.63c-.057 1.05-.755 1.898-1.874 1.84-.976-.054-1.617-1.006-1.665-1.9-.056-1.055.85-1.894 1.877-1.838.975.05 1.615 1.004 1.663 1.898.02.372.75.25.732-.06-.17-3.147-4.84-3.008-5.004.06-.07 1.313 1.193 2.433 2.468 2.363 1.366-.074 2.46-1.026 2.536-2.424.02-.37-.715-.257-.732.06zM374.352 360.445c1.082.672 2.134 1.29 2.734 2.46.357.693 1.536.284 1.91-.14.856-.966 1.76-1.898 2.882-2.56 1.265-.748.112-2.026-.988-1.378-1.447.854-2.622 1.976-3.73 3.228.636-.045 1.272-.09 1.91-.137-.666-1.293-1.856-2.033-3.056-2.78-.867-.535-2.74.638-1.662 1.307zM401.146 384.563l.548 2.194c.1.396-.19 1.25-.188 1.706.002.668.18 1.303.448 1.906.75 1.686 2.028 1.49 3.472 1.202.452-.09.327-.52-.115-.43-.643.13-1.075.332-1.623.098-1.188-.51-1.45-2.156-1.452-3.273 0-.47.278-1.028.167-1.476l-.53-2.122c-.075-.295-.8-.103-.726.195zM406.143 389.103c.085-1.736 2.974-2.836 3.502-.81.427 1.638-2.33 2.615-2.95.9-.085-.236-.802-.022-.725.19.785 2.17 4.52.954 4.42-1.144-.06-1.273-1.575-1.546-2.557-1.355-1.147.224-2.352 1.06-2.413 2.315-.012.278.712.123.723-.097zM414.144 388.986c.025-.95-.555-1.836-1.605-1.355-.5.23-.844.61-1.07 1.107-.2.436-.413 1.277-.156 1.73.158.276.454.353.758.347.71-.018 1.02.17 1.198.948.36 1.598-3.05 1.636-3.917 1.534-.357-.04-.74.473-.25.53 1.468.17 5.11-.038 4.89-2.26-.09-.933-.81-1.353-1.645-1.297-.697.047-.32-1.06-.186-1.45.116-.34.39-.66.737-.77.502-.16.516.752.51.987-.01.385.725.278.734-.05zM415.62 387.73c.4 1.02.413 2.092.413 3.17 0 .172.725.05.725-.192 0-1.08-.012-2.153-.414-3.17-.085-.214-.797.01-.725.193zM415.69 386.285c.22 0 .79-.332.304-.332-.22 0-.787.332-.303.332zM417.48 387.32c.064 1.47.068 2.938.068 4.408 0 .18.725.057.725-.192 0-1.47-.004-2.94-.068-4.41-.008-.187-.735-.052-.725.193z"/><path fill="#562F2F" d="M418.06 388.147c.327-.136.65-.276.992-.373.54-.152.775.262.924.71.325.98.13 2.105.12 3.12-.003.325.725.183.728-.08.012-1.173.393-3.04-.534-3.973-.646-.646-1.867-.012-2.526.263-.466.193-.044.475.295.334zM348.127 278.89c.663 1.486.383 3.2.367 4.777 0 .134.722.027.725-.194.015-1.577.294-3.292-.368-4.778-.085-.19-.79.05-.725.194z"/><path fill="#562F2F" d="M349.262 279.806c2.46-1.49 2.268 3.052 2.266 4.413 0 .203.724.072.725-.195.002-1.335.088-2.804-.464-4.052-.578-1.306-1.983-.954-2.97-.357-.42.252.222.322.442.19zM356.51 279.242c-1.322-.012-2.388.038-3.045 1.348-.604 1.204-.01 2.408 1.235 2.778 2.138.635 1.888-2.65 2.317-3.79l-.717-.03c-.018 1.197-.634 3.746.805 4.37.328.143.84-.328.41-.515-1.062-.46-.492-3.002-.48-3.9.007-.375-.61-.31-.716-.03-.384 1.02-.137 2.342-.81 3.24-.235.316-.7.044-.954-.098-.52-.293-.618-.83-.56-1.377.155-1.428 1.357-1.44 2.46-1.43.428.005.544-.56.055-.566zM357.805 279.313c.894.968.8 2.322.793 3.555 0 .36.697.23.73-.066.105-.912-.007-1.896.365-2.756.578-1.334 1.88.496 2.096 1.02.22.535.265 1.143.207 1.71.244-.02.488-.043.73-.065-.003-.426-.123-3.168.83-2.707.907.44.616 2.66.832 3.48.08.31.806.117.724-.194-.28-1.06.102-3.928-1.658-3.872-1.63.052-1.47 2.21-1.458 3.36.004.357.7.232.73-.067.14-1.4-.6-3.826-2.452-3.526-1.822.294-1.516 2.268-1.68 3.686l.732-.066c.005-1.314.092-2.766-.86-3.797-.204-.227-.894.056-.663.306zM366.446 280.914c1.002.018 2.822.425 3.455-.653.322-.544-.096-1.075-.563-1.323-.583-.31-1.42-.326-2.048-.165-1.194.307-2.314 1.718-1.408 2.853.807 1.01 2.56 1.383 3.782 1.402.255.004.778-.377.29-.385-1.528-.024-4.88-1.118-3.212-3.11.618-.738 2.774-.61 2.502.68-.15.71-1.99.326-2.507.316-.257-.004-.78.377-.29.386zM351.94 319.504c.497 1.48.08 2.97-.21 4.447-.287 1.47-.1 2.964 0 4.442.016.214.743.066.726-.192-.125-1.845-.168-3.55.2-5.365.242-1.2.404-2.346.007-3.525-.078-.236-.798-.027-.724.194z"/><path fill="#562F2F" d="M352.374 319.896c1.24-.262 2.948-.168 3.27 1.33.398 1.838-1.727 2.616-3.178 2.572-.163-.004-.832.3-.466.313 1.594.048 4.124-.52 4.38-2.42.3-2.228-2.33-2.41-3.877-2.084-.292.062-.634.396-.13.29zM360.188 322.844c-1.03-.01-2.21-.1-2.975.727-.607.652-.63 2.168.342 2.508.75.262 1.832.247 2.523-.187.76-.474.132-2.02.167-2.72-.242.063-.483.128-.725.192-.01 1.08-.29 2.918 1.168 3.145.17.026.792-.25.596-.28-1.35-.21-1.048-2.076-1.04-3.058.002-.118-.713-.012-.724.192-.028.563.12 1.123.164 1.684.027.343.046.82-.406.878-.334.04-.678 0-1-.084-.73-.187-.84-1.097-.7-1.7.248-1.072 1.25-1.01 2.14-1.003.15.002.825-.29.47-.293zM364.67 322.867c-.872.022-1.924-.416-2.622.352-.512.562-.667 1.352-.114 1.944.41.44 1.02.328 1.554.358.483.026.532.313.39.735-.153.46-1.188.33-1.55.33-.412-.003-.558.52-.066.522.703.003 1.434.02 2.026-.41.383-.282.62-1.115.188-1.454-.43-.337-1.027-.238-1.535-.265-.583-.03-.705-.728-.555-1.17.287-.837 1.57-.404 2.22-.423.41-.007.56-.533.066-.52zM368.706 322.534c-.852.177-1.943.003-2.6.714-.39.42-.86 1.343-.114 1.677.713.318 1.522.024 2.25.27.335.114.576.436.567.786-.014.498-.705.668-1.067.716-.616.08-1.27.002-1.876-.11-.357-.067-.734.438-.25.527.968.18 2.042.257 2.975-.11.787-.31 1.342-1.32.585-1.97-.707-.607-1.55-.42-2.4-.497-.942-.086-.148-1.117.367-1.28.537-.17 1.144-.107 1.696-.224.456-.094.315-.592-.134-.498zM370.203 323.087c.35 1.16.468 3.362 2.06 3.438 1.792.084.703-2.306 1.752-2.964-.214.026-.428.054-.642.078.476.836.57 2.943 1.892 2.837 1.622-.13 1.45-2.508 1.452-3.648 0-.138-.724-.027-.725.192 0 .42-.16 3.478-.755 2.995-.702-.57-.712-1.818-1.14-2.57-.1-.177-.526.006-.642.078-.416.26-.556.606-.642 1.085-.056.31.025 1.762-.528 1.5-.99-.472-1.082-2.302-1.358-3.214-.054-.183-.776.02-.724.193z"/><g><path fill="#562F2F" d="M378.133 324.76c-.888-1.295.713-2.098 1.73-1.27.446.365 1.06 1.87.295 2.138-.442.155-.91.195-1.185-.228-.218-.336-.332-.724-.565-1.056-.19-.27-.88.01-.663.32.315.45.436 1.037.87 1.395.467.384 1.292.203 1.8.025 1.22-.428.885-2.028.205-2.822-1.303-1.522-4.527-.193-3.15 1.815.188.276.878-.005.663-.318z"/></g><g><path fill="#562F2F" d="M382.192 323.17c-.05 1.29.122 2.572.07 3.86l.726-.14c-.35-1.61.845-2.86 2.462-2.788.29.014.767-.41.276-.434-1.956-.088-3.93 1.276-3.463 3.415.056.256.716.092.726-.14.05-1.287-.123-2.57-.07-3.858.01-.314-.717-.17-.728.086z"/></g><g><path fill="#562F2F" d="M388.745 323.773c-.963.123-1.71.672-2.013 1.613-.35 1.097.88 1.704 1.744 1.626 3-.272 1.903-5.652 1.885-7.497 0-.197-.726-.066-.724.194.015 1.538.138 3.073.052 4.612-.043.765-.104 1.563-.698 2.106-1.08.988-2.658-1.998-.354-2.295.335-.04.614-.425.11-.36z"/></g><g><path fill="#562F2F" d="M388.97 324.173c.285-.143.57-.284.84-.454.415-.262-.218-.36-.45-.216-.22.137-.445.255-.676.37-.45.225-.035.46.286.3z"/></g><g><path fill="#562F2F" d="M388.76 356.904c1.12-1.14 3.02-1.12 3.564.55.58 1.778-1.056 2.712-2.368 3.375-.32.16-.218.465.123.46 1.708-.03 1.964 2.433 3.766 2.57.342.025.746-.474.255-.51-1.79-.138-1.927-2.61-3.95-2.573.04.152.08.307.122.46 1.583-.8 3.99-2.48 2.523-4.588-1.14-1.64-3.396-1.213-4.637.055-.316.322.385.422.603.2z"/></g><g><path fill="#562F2F" d="M387.73 357.087c.855 2.183 1.825 4.902 1.015 7.228-.044.126.65.05.714-.132.82-2.355-.138-5.075-1.005-7.29-.065-.166-.775.065-.725.194z"/></g><g><path fill="#562F2F" d="M394.22 361.493c.77.156 2.05.09 2.033-.98-.015-.86-.85-1.464-1.646-1.48-1.23-.025-1.91 1.326-1.492 2.362.458 1.133 1.815 2.028 3.036 1.94.42-.03.55-.596.058-.56-.83.06-1.606-.522-2.1-1.14-.476-.6-.668-1.692.248-2.015.472-.165.935.3 1.098.697.31.758-.468.727-.99.62-.375-.073-.727.46-.245.556z"/></g><g><path fill="#562F2F" d="M396.664 360.33c.663.748.396 1.73.53 2.638.027.184.658-.047.72-.16.343-.63.307-1.36.544-2.026.388-1.09.9.566.91.78.02.405-.046.817-.06 1.224-.003.154.66-.036.72-.16.228-.462.597-2.605 1.324-2.295.488.21.49 1.197.566 1.62.1.562.295 1.033.72 1.414.145.13.796-.146.682-.248-.924-.828-.385-3.477-2.135-3.167-1.357.238-1.375 1.793-1.87 2.803l.72-.16c.03-1.052.282-2.68-1.282-2.405-1.403.248-1.023 1.776-1.553 2.75.24-.055.48-.107.72-.16-.14-.95.113-1.92-.572-2.693-.124-.142-.8.113-.684.244z"/></g><g><path fill="#562F2F" d="M404.608 361.813c.785.103 1.983-.052 2.15-1 .173-1-.938-1.362-1.706-1.243-.86.132-2.224.833-1.504 1.837.605.846 1.946 1.397 2.962 1.425.146.004.825-.275.473-.285-.77-.02-3.77-1.17-2.755-2.334.526-.604 1.387-.46 1.718.226.1.208.12.454.062.677-.106.414-.422.476-.802.426-.167-.025-.78.246-.598.27z"/></g><g><path fill="#562F2F" d="M407.235 360.433c.826.497 1.136 1.885.896 2.767.242-.05.482-.1.724-.148-.224-.98-.06-2.563 1.417-2.007.68.257.455 1.65.526 2.2.027.212.756.052.725-.193-.08-.63.043-1.35-.233-1.936-.253-.536-1.056-.596-1.56-.526-1.45.197-1.9 1.318-1.596 2.655.054.23.676.027.724-.148.256-.938-.056-2.4-.94-2.934-.207-.125-.844.17-.68.27z"/></g><g><path fill="#562F2F" d="M411.896 356.626c-.013 2.148-.152 4.293.092 6.434.022.198.75.046.725-.192-.244-2.143-.105-4.285-.092-6.435.002-.178-.722-.057-.724.193z"/></g><g><path fill="#562F2F" d="M412.788 360.516c.867-.44 1.94-.388 2.165.728.254 1.252-1.117 1.76-2.11 1.73-.356-.013-.74.52-.25.534 1.375.043 3.29-.594 3.104-2.313-.18-1.67-2.042-1.72-3.232-1.114-.442.222-.047.623.323.436z"/></g><g><path fill="#562F2F" d="M417.44 361.3c.95.004 2.383.087 3.113-.656 1.182-1.203-1.258-1.66-1.975-1.672-1.245-.02-2.376.98-1.76 2.274.572 1.2 2.3 1.945 3.563 1.984.235.008.785-.338.3-.353-.94-.03-1.903-.558-2.594-1.16-.677-.588-1.23-2.36.195-2.395.57-.016 2.394.308 1.677 1.27-.384.515-1.65.358-2.22.356-.232 0-.783.352-.297.353z"/></g><g><path fill="#562F2F" d="M421.453 359.476c.264 1.242.268 2.517.46 3.77l.697-.24c-.873-1.15.272-2.86 1.64-2.772.28.018.77-.39.28-.42-1.69-.107-3.875 1.787-2.592 3.48.14.184.736.012.697-.24-.19-1.254-.194-2.525-.46-3.77-.052-.26-.78-.076-.722.192z"/></g><g><path fill="#562F2F" d="M425.13 359.384c.59 1.203 1.302 2.227 1.285 3.618l.726-.136c-.08-.452-.387-3.772 1.19-2.48.52.43.638 1.42.843 2.028.086.255.727.115.727-.136 0-.326.14-3.025 1.063-2.072.592.61.283 2.076.508 2.853.083.28.807.085.727-.193-.33-1.144.19-3.313-1.54-3.31-1.394.004-1.482 1.802-1.485 2.8.242-.044.484-.09.727-.136-.346-1.02-.655-2.8-2.145-2.47-1.662.37-1.585 1.927-1.338 3.31.048.267.723.104.726-.137.02-1.452-.67-2.473-1.29-3.732-.133-.273-.843-.047-.724.194z"/></g><g><path fill="#562F2F" d="M432.525 361.217c.963.11 2.5.38 3.23-.483.318-.38.44-.908.056-1.284-.364-.355-1.066-.303-1.52-.233-1.223.187-2.22.96-1.87 2.286.408 1.546 1.867 1.74 3.218 1.742.25 0 .78-.377.29-.377-.81 0-1.597.007-2.218-.587-.588-.562-.895-1.6-.38-2.29.448-.603 2.18-.712 1.97.37-.177.913-1.682.564-2.32.49-.21-.024-.853.32-.455.367z"/></g></g><g class="p3_paper3"><path fill="#F4F2F2" d="M769.696 446.287h75.58V551.49h-75.58z"/><path fill="#562F2F" d="M845.89 550.856h-75.508c1.11 0 .767-.024.767-1.482v-12.878-45.958-44.64c-.69.34-1.377.682-2.064 1.02H844.596c-1.11 0-.767.025-.767 1.483v103.477c0 .567 2.896.12 2.896-.777V445.898c0-.29-.698-.245-.835-.245h-75.58c-.51 0-2.062.312-2.062 1.02v105.204c0 .29.7.245.835.245h75.58c.838.002 3.16-1.266 1.228-1.266z"/><path fill="#F4F2F2" d="M704.565 428.252h205.842v105.203H704.565z"/><path fill="#562F2F" d="M911.012 532.784H705.684c-1.096 0 .33.354.33.084v-3.193-14.957-47.12-39.733l-2.053 1.06H909.29c1.095 0-.332-.354-.332-.084v105.005c0 .635 2.898.167 2.898-.776V427.865c0-.305-.692-.282-.846-.282H705.168c-.55 0-2.054.31-2.054 1.06v105.203c0 .305.69.282.845.282H909.8c.89-.002 3.15-1.344 1.212-1.344z"/><path fill="#7DCAF9" d="M707.565 402.703h205.842v105.203H707.565z"/><g><path fill="#562F2F" d="M896.023 494.64H721.174c-.617 0 .153.485.153-.342V483.13v-68.177l-2.38 1.014H893.796c.617 0-.153-.483-.153.343v79.346c0 .548 2.898.106 2.898-.777v-79.925c0-.188-.42-.236-.52-.236H720.806c-.553 0-2.38.188-2.38 1.014v79.924c0 .187.42.235.52.235H894.16c.65-.002 3.318-1.252 1.863-1.252z"/></g><g><path fill="#562F2F" d="M910.983 507.13H705.656c-1.113 0 .358.43.358.19v-3.194-14.957-47.12-39.734c-.675.39-1.35.776-2.024 1.165h205.327c1.112 0-.36-.43-.36-.188v105.003c0 .822 2.9.296 2.9-.777V402.316c0-.337-.677-.39-.874-.39H705.14c-.66 0-2.024.312-2.024 1.166v105.203c0 .336.675.388.873.388h205.84c1.024 0 3.108-1.553 1.153-1.553z"/></g></g><g class="p3_paper4"><path fill="#FFF" d="M514.6 375.916h286.173v119.71H514.6z"/><path fill="#562F2F" d="M801.706 495.014H515.65c.323 0 .398.386.398-.465v-3.82-36.675-77.658-.868l-2.384 1H799.72c-.323 0-.398-.387-.398.464v119.02c0 .52 2.897.086 2.897-.776v-119.71c0-.183-.423-.223-.516-.223H515.533c-.535 0-2.384.2-2.384 1v119.71c0 .183.42.223.514.223h286.171c.633-.002 3.312-1.224 1.87-1.224z"/><circle fill="#562F2F" cx="529.953" cy="474.264" r="5.78"/><circle fill="#562F2F" cx="611.913" cy="440.566" r="5.78"/><circle fill="#562F2F" cx="675.666" cy="452.125" r="5.78"/><circle fill="#562F2F" cx="706.622" cy="434.014" r="5.78"/><circle fill="#562F2F" cx="765.482" cy="436.328" r="5.78"/><path fill="#562F2F" d="M532.744 474.372l79.59-33.697c.88-.373-.486-.368-.842-.217l-79.59 33.697c-.88.373.487.368.842.217zM615.697 441.125l57.8 11.56c.754.15 1.446-.926.483-1.117l-57.8-11.56c-.753-.152-1.446.925-.483 1.117zM679.188 452.308l25.816-17.34c.813-.546-.46-.647-.88-.364l-25.818 17.34c-.81.544.46.647.882.364zM708.205 430.815l53.175 5.78c.33.035 1.545-.5 1.197-.537l-53.175-5.78c-.33-.035-1.545.5-1.197.537z"/><circle fill="#FFF" cx="675.666" cy="452.125" r="3.083"/><circle fill="#562F2F" cx="634.353" cy="444.078" r="1.973"/><circle fill="#562F2F" cx="656.784" cy="449.041" r="1.973"/><circle fill="#FFF" cx="706.622" cy="434.014" r="3.083"/><path fill="none" stroke="#562F2F" stroke-miterlimit="10" d="M611.913 436.328v-26.656"/><path fill="#F9A0A0" d="M622.526 402.506c0 2.12-1.734 3.854-3.854 3.854h-2.938l-2.822 2.6-2.38-2.6h-2.842c-2.12 0-3.854-1.734-3.854-3.854v-1.156c0-2.118 1.734-3.854 3.854-3.854h10.98c2.12 0 3.854 1.734 3.854 3.854l.002 1.156z"/><path fill="#562F2F" d="M620.805 403.606c-.554 4.766-3.897 2.497-6.346 3.49-1.16.47-2.21 1.93-3.12 2.77.416-.062.832-.12 1.25-.182-1.098-1.197-1.814-2.706-3.503-2.706-2.407 0-4.5-.22-5.422-2.786-.777-2.16.724-5.316 3.248-5.316h8.037c3.428 0 5.852.87 5.852 4.824 0 .396 1.45.138 1.45-.39 0-3.774-2.13-5.194-5.62-5.194-3.536 0-7.195-.292-10.713.116-3.856.446-4.663 5.198-2.908 7.953 1.026 1.61 3.165 1.554 4.812 1.554 1.687 0 2.193 1.16 3.415 2.492.264.29 1.017.033 1.25-.182l2.38-2.192c.776-.716-.974-.12.34-.12h2.175c2.61 0 4.57-1.792 4.865-4.333.06-.53-1.394-.247-1.445.2z"/><path fill="none" stroke="#562F2F" stroke-miterlimit="10" d="M675.396 447.148v-26.654"/><path fill="#562F2F" d="M684.28 414.397c-.537 4.612-3.948 2.284-6.37 3.4-1.152.53-2.187 1.948-3.112 2.802.42-.043.843-.084 1.264-.126-.705-.77-1.834-2.78-2.994-2.78-1.893 0-3.662.303-5.23-1.267-1.902-1.902-.62-6.62 2.313-6.62h7.688c3.328.002 6.44.264 6.44 4.59 0 .714 1.462.458 1.462-.136 0-3.8-2.013-5.43-5.654-5.43-3.533 0-7.203-.305-10.717.103-3.877.45-4.614 5.365-2.866 8.11 1.03 1.615 3.164 1.627 4.83 1.627 1.69 0 2.098 1.002 3.396 2.42.33.36.958.155 1.264-.126l2.383-2.192c.776-.717-.965-.102.344-.102h2.178c2.647 0 4.546-1.833 4.845-4.41.078-.69-1.394-.462-1.464.137z"/><path fill="none" stroke="#562F2F" stroke-miterlimit="10" d="M656.977 450.297v17.693"/><path fill="#86F7CB" d="M648.362 475.156c0-2.12 1.733-3.854 3.854-3.854h2.938l2.82-2.602 2.382 2.602h2.842c2.12 0 3.854 1.734 3.854 3.854v1.156c0 2.118-1.733 3.854-3.854 3.854h-10.982c-2.12 0-3.854-1.734-3.854-3.854v-1.156z"/><path fill="#562F2F" d="M648.087 473.962c.518-4.46 3.77-2.55 6.32-3.484 1.215-.443 2.294-1.966 3.227-2.824-.445.1-.893.198-1.34.3 1.47 1.603 1.866 2.654 4.016 2.654 2.604 0 4.69.92 5.02 3.743.232 2.018-.698 4.514-3.174 4.514h-8.038c-3.436-.002-6.03-.917-6.03-4.902 0-.254-1.45-.04-1.45.39 0 4.098 2.37 5.118 5.963 5.118 3.355 0 7.026.452 10.35-.128 3.67-.64 4.838-4.87 2.978-7.786-1.016-1.594-3.046-1.557-4.682-1.557-1.812 0-2.395-1.244-3.587-2.55-.25-.272-1.133.108-1.34.3-.9.83-1.802 1.66-2.7 2.49.733-.68.835-.24-.467-.24-.526 0-1.1-.06-1.625.002-2.624.305-4.563 1.538-4.89 4.35-.024.202 1.396.06 1.45-.39z"/><path fill="none" stroke="#562F2F" stroke-miterlimit="10" d="M634.18 442.664v-11.31"/><path fill="#562F2F" d="M639.593 427.475c-.33 2.83-2.413 1.277-3.925 1.99-.78.37-1.463 1.293-2.09 1.872l1.266-.114c-.525-.574-1.24-1.86-2.114-1.86-1.12 0-2.224.19-3.143-.726-1.048-1.047-.52-3.913 1.227-3.913h4.598c2.113 0 4.18-.07 4.18 2.75 0 .742 1.466.508 1.466-.12 0-2.438-1.282-3.654-3.688-3.654-2.313 0-4.72-.2-7.02.064-2.65.31-3.334 3.555-2.092 5.5.632.99 1.94 1.124 2.986 1.124h.875c.84 0-.32-.412.112.063.428.468.854.936 1.282 1.402.344.375.946.183 1.268-.113l1.52-1.403c.566-.52-.833.053.1.053h1.39c1.767 0 3.07-1.353 3.266-3.033.084-.726-1.392-.514-1.465.118z"/><path fill="none" stroke="#562F2F" stroke-miterlimit="10" d="M706.353 428.877V294.982"/><circle fill="#F9A0A0" cx="789.313" cy="424.313" r="7.322"/><path fill="#562F2F" d="M794.91 423.507c-.257 4.77-4.688 8.434-9.61 5.884-2.343-1.214-3.45-3.772-3.584-6.27-.265-4.917 5.246-8.146 9.61-5.885 2.344 1.213 3.45 3.773 3.584 6.272.013.237 1.47-.003 1.45-.39-.548-10.144-15.572-9.295-16.095.39-.544 10.104 15.572 9.277 16.094-.39.01-.19-1.427-.024-1.45.39z"/><circle fill="#562F2F" cx="770.206" cy="476.574" r="3.784"/><circle fill="#562F2F" cx="779.839" cy="476.574" r="3.783"/><circle fill="#562F2F" cx="789.471" cy="476.574" r="3.784"/><path fill="#562F2F" d="M532.258 423.368c-.213 3.938-3.02 6.917-7.135 6.695-3.544-.19-5.865-3.546-6.04-6.808-.214-3.957 3.377-6.898 7.134-6.697 3.544.192 5.865 3.548 6.04 6.81.042.762 1.503.532 1.468-.11-.552-10.25-15.566-9.977-16.108.11-.23 4.217 3.838 8.02 7.99 7.795 4.46-.24 7.875-3.375 8.118-7.906.04-.755-1.432-.544-1.467.11zM786.097 421.083c1.027 1.54 2.057 3.083 3.083 4.625l.23-.468c-1.026.578-2.054 1.154-3.082 1.73-.853.48.442.633.887.385l3.083-1.732c.173-.098.364-.268.23-.468-1.026-1.54-2.056-3.083-3.082-4.625-.25-.376-1.658.09-1.35.553z"/><path fill="#562F2F" d="M525.823 420.155c-1.028 1.54-2.057 3.082-3.083 4.623-.04.06-.117.184-.015.24l3.083 1.734c.398.224 1.64-.368 1.355-.527l-2.08-1.17-.924-.52c-.152-.085-.137.26-.062.146.078-.116.157-.234.235-.353.938-1.406 1.877-2.813 2.814-4.22.325-.477-1.105-.28-1.324.048z"/><g><path fill="#66BAED" d="M715.966 288.79c0 2.12-1.733 3.853-3.854 3.853h-2.938l-2.822 2.6-2.38-2.6h-2.842c-2.12 0-3.854-1.733-3.854-3.853v-1.156c0-2.12 1.732-3.854 3.854-3.854h10.98c2.12 0 3.855 1.733 3.855 3.854v1.156z"/><path fill="#562F2F" d="M715.233 288.852c-.555 4.773-3.925 2.24-6.372 3.39-1.15.538-2.182 1.95-3.11 2.806l1.268-.117c-.686-.748-1.846-2.792-2.974-2.792-1.873 0-3.703.295-5.252-1.254-1.898-1.897-.627-6.6 2.328-6.6h7.19c3.46 0 6.923-.024 6.923 4.568 0 .733 1.465.49 1.465-.125 0-3.595-1.827-5.452-5.396-5.452-3.62 0-7.383-.315-10.98.102-3.88.45-4.608 5.388-2.86 8.13.92 1.442 2.81 1.64 4.336 1.64 1.205 0 1.59-.105 1.883.213l2.01 2.194c.34.37.95.174 1.267-.117.794-.73 1.587-1.463 2.38-2.194.675-.62-.602-.097.53-.097h2.177c2.577 0 4.374-1.987 4.657-4.42.08-.713-1.394-.496-1.467.126z"/></g></g><g class="p3_static"><path fill="#E5DFDF" d="M49.806 181.616c1.145-2.452 3.805-3.978 4.85-6.518.43-1.052.937-1.908 1.15-3.028.186-.975.813-1.776.9-2.785.085-.966.16-1.948.192-2.917.06-1.902-.372-3.657-2.078-4.728-1.87-1.174-4.37-1.44-6.53-1.526-3.446-.14-7.58 1.516-8.82 5.1-.966 3.17.274 6.34 2.204 8.82 2.343 2.896 6.48 4.412 8.27 7.168"/><path fill="#562F2F" d="M50.485 181.65c1.582-2.754 3.99-4.57 5.292-7.52 1.14-2.583 1.703-5.033 1.85-7.843.286-5.507-5.763-7.11-10.3-6.6-4.274.483-7.94 2.512-8.868 6.963-1.536 7.36 7.322 10.333 10.814 14.845.332.43 1.727-.088 1.34-.588-2.272-2.936-5.772-4.445-8.27-7.167-1.805-1.967-2.507-4.657-2.43-7.25.137-4.722 5.686-6.076 9.432-5.853 7.52.447 7.52 5.903 5.732 11.513-1.23 3.862-4.017 6.06-5.953 9.43-.362.632 1.102.52 1.36.07z"/><path fill="#562F2F" d="M46.667 166.216c.54-1.976 4.926-2.787 5.546-.506.722 2.657-4.943 2.795-5.55.646-.09-.323-.815-.127-.725.194.76 2.692 7.54 2.424 7.028-.843-.496-3.174-6.344-1.954-7.032.57-.09.335.65.245.733-.06zM40.393 167.05l-1.594 1.593c-.126.125.105.178.186.176.174-.004.356-.065.48-.19l1.594-1.593c.125-.125-.106-.178-.187-.176-.173.004-.356.065-.48.19zM40 165.412l-.778.78c-.31.31.4.35.592.158l.78-.78c.31-.31-.4-.35-.593-.158zM41.94 167.975l-2.494 2.593c-.307.32.4.365.593.164l2.493-2.593c.306-.32-.4-.366-.593-.165zM43.337 168.984l-3.212 3.212c-.3.3.412.29.58.12l3.213-3.21c.3-.302-.41-.292-.58-.122zM44.26 170.676c-1.02 1.018-2.036 2.035-3.054 3.053-.157.156.533.072.657-.052l3.053-3.053c.157-.157-.532-.073-.657.05zM44.863 172.843l-2.1 2.1c-.313.314.393.38.597.176l2.1-2.1c.313-.315-.393-.38-.597-.177zM45.54 174.708l-1.532 1.533c-.306.307.405.32.586.14l1.533-1.533c.306-.305-.405-.32-.586-.14zM46.92 175.963l-1.318 1.453c-.3.33.403.38.594.168l1.318-1.453c.3-.328-.403-.378-.594-.167zM48.346 177.533l-1.018 1.122c-.15.166.54.073.656-.055l1.018-1.122c.15-.166-.54-.073-.656.055z"/><g><path fill="#562F2F" d="M49.676 178.768l-1.018 1.122c-.29.318.417.306.582.124l1.018-1.122c.288-.318-.418-.306-.582-.124z"/></g><g><path fill="#562F2F" d="M162.736 95.55h-47.024c-1.412 0-.274-.134-.274.424v-16.87c-.502.255-1.005.51-1.507.763H160.956c1.412 0 .274.134.274-.424v16.87c0 .928 2.175.465 2.175-.266V79.105c0-.37-.328-.497-.668-.497H114.77c-.375 0-1.507.2-1.507.762v16.942c0 .37.328.497.668.497H161.9c.83 0 2.308-1.26.838-1.26z"/><path fill="#562F2F" d="M157.897 92.203h-18.955c-.645 0 .12-.056.12.32v-1.48-8.372l-.996.54h18.955c.646 0-.12.057-.12-.32v9.853c0 .685 1.46.41 1.46-.147v-9.924c0-.255-.216-.393-.463-.393H138.6c-.283 0-.996.128-.996.54v9.923c0 .255.215.393.462.393h19.297c.614 0 1.514-.933.534-.933z"/><path fill="#562F2F" d="M149.446 92.572V86.4c0-.1-.725-.002-.725.194v6.172c.002.102.726.003.726-.194zM147.247 92.644V88.86c0-.39-.735-.287-.735.052v3.783c0 .39.735.287.735-.05zM145.04 92.643V88.86c0-.386-.734-.28-.734.053v3.783c0 .386.734.28.734-.053zM142.83 92.572V88.79c0-.21-.725-.078-.725.193v3.783c0 .21.725.078.725-.194zM156.246 92.572V88.79c0-.107-.725-.006-.725.193v3.783c0 .107.726.006.726-.194zM154.04 92.572V88.79c0-.115-.725-.012-.725.193v3.783c0 .114.725.01.725-.194zM151.835 92.572V88.79c0-.153-.725-.038-.725.193v3.783c0 .152.725.038.725-.194zM123.073 88.146c-.56-1.253-.173-2.606 1.23-3.027 1.382-.416 2.653.62 2.91 1.942.485 2.48-4.038 4.48-4.23 1.544-.015-.207-.742-.062-.726.194.11 1.67 1.773 1.88 3.1 1.474 1.5-.46 2.782-1.756 2.58-3.407-.455-3.742-7.258-2.263-5.59 1.473.105.23.814 0 .726-.194zM128.78 87.146c.28 1.115.406 2.44.02 3.546h.71c.02-.77.27-1.547.6-2.235.133-.276.465-.94.866-.86.51.105.635.613.65 1.05.036 1.05-.573 3.146 1.156 2.97.392-.04.57-.55.073-.498-1.333.135.49-3.934-1.662-4.028-1.662-.072-2.38 2.343-2.417 3.664-.01.34.624.246.71 0 .417-1.193.32-2.594.018-3.806-.077-.314-.802-.122-.723.196z"/></g><g><path fill="#F9E595" d="M374.95 63.01c0 1.1-.9 2-2 2H328.98c-1.1 0-2-.9-2-2V50.07c0-1.1.9-2 2-2h43.967c1.1 0 2 .9 2 2v12.94z" opacity=".5"/><path fill="#562F2F" d="M373.225 63.1c-.814 2.993-9.262 1.497-11.516 1.497h-33.183c-3.224 0-1.82-12.47-1.82-14.617 0-2.808 9.99-1.496 11.517-1.496h33.182c3.223 0 1.82 12.47 1.82 14.617 0 .612 1.448.3 1.448-.18v-8.385c0-1.546.76-5.624-1.14-6.544-3.264-1.578-9.262-.335-12.703-.335h-23.733c-2.058 0-8.9-1.237-10.704.566-1.712 1.713-1.135 4.22-1.135 6.494 0 2.522-.665 6.046 0 8.49.992 3.648 7.655 2.22 10.47 2.22h23.644c3.788 0 8.978.96 12.676-.047 1.54-.418 2.195-.87 2.626-2.457.144-.53-1.315-.315-1.45.18z"/><path fill="#562F2F" d="M350.235 61.047H331.28c-.643 0 .116-.054.116.305v-1.48V51.5l-1 .532h18.956c.643 0-.116.054-.116-.305v9.852c0 .667 1.456.382 1.456-.156V51.5c0-.253-.216-.376-.458-.376h-19.297c-.274 0-1 .13-1 .532v9.924c0 .253.217.376.46.376h19.296c.6 0 1.523-.91.542-.91z"/><path fill="#562F2F" d="M341.787 61.476v-6.172c0-.387-.734-.283-.734.052v6.172c0 .387.734.282.734-.052zM339.58 61.47v-3.782c0-.364-.73-.24-.73.063v3.783c0 .364.73.24.73-.063zM337.37 61.404v-3.782c0-.206-.724-.075-.724.194v3.782c0 .207.725.075.725-.194zM335.168 61.464v-3.782c0-.34-.73-.204-.73.074v3.782c0 .342.73.204.73-.074zM348.58 61.404v-3.782c0-.18-.724-.057-.724.194v3.782c0 .18.725.057.725-.194zM346.38 61.472V57.69c0-.372-.732-.254-.732.06v3.782c0 .37.732.254.732-.06zM344.174 61.47v-3.782c0-.366-.73-.244-.73.063v3.783c0 .365.73.243.73-.063zM357.3 59.674c1.52-.053 2.86-.932 3.537-2.292.662-1.332.15-2.866-1.28-3.382-1.31-.47-3.185-.913-4.123.42-.52.74-.52 1.936-.26 2.76.285.918 1.358 1.52 1.97 2.204.193.217.885-.058.667-.302-.916-1.026-2.047-1.586-2.06-3.113-.004-.684.18-1.7.932-1.93.666-.202 1.57.136 2.21.318 1.245.354 1.716 1.502 1.378 2.676-.363 1.264-1.617 2.127-2.89 2.172-.387.015-.578.486-.08.468zM365.42 51.763c-.09-1.457-1.63-.557-2.237.035-.594.578-.7 1.418-.7 2.214.008 1.98 0 3.96.008 5.94.002.192.727.064.726-.193-.008-1.656-.053-3.31 0-4.964.026-.817-.023-1.575.205-2.367.144-.496 1.216-1.44 1.276-.472.013.2.74.057.725-.195zM369.665 52.05c-1.09-1.124-2.303-1.185-3.115.253-.41.73-.61 1.79-.542 2.61.12 1.438.92 3.33-.146 4.57-.295.344.402.418.6.188.853-.99.68-2.207.484-3.418-.143-.875-.25-1.678-.118-2.563.187-1.24.892-2.65 2.172-1.332.213.222.9-.065.665-.308z"/><path fill="#562F2F" d="M360.96 55.51h7.927c.137 0 .82-.27.477-.27h-7.926c-.138 0-.82.27-.477.27z"/></g><g><path fill="#FBD3D5" d="M61.178 293.24H17.623V275.87h43.555l8.455 7.903z"/><path fill="#562F2F" d="M61.65 292.955H20.304c-1.806 0-1.957.5-1.957-.94v-16.337l-1.197.48h43.292c1.125 0 4.598 4.207 5.665 5.205 2.903 2.713 3.125 2.193.49 5.143l-6.074 6.797c-.283.317 1.085.124 1.308-.125l8.456-9.464c.058-.065.105-.11.03-.18l-4.93-4.607c-.706-.66-2.718-3.337-3.765-3.337H18.096c-.24 0-1.197.117-1.197.48v17.366c0 .085.215.09.252.09h43.555c.29-.003 1.646-.57.945-.57z"/><path fill="#562F2F" d="M36.205 293.142v-3.585c0-.225-.725-.087-.725.194v3.586c0 .225.725.087.725-.194zM38.866 293.142v-3.585c0-.15-.725-.036-.725.194v3.586c.002.15.726.036.726-.194zM41.53 293.203v-3.585c0-.347-.728-.212-.728.07v3.586c0 .348.73.213.73-.07zM44.19 293.196v-3.585c0-.315-.727-.164-.727.086v3.585c0 .318.726.166.726-.084zM46.853 293.204v-3.585c0-.352-.73-.22-.73.068v3.585c0 .352.73.22.73-.07zM49.516 293.213v-3.585c0-.388-.735-.284-.735.052v3.585c0 .388.736.284.736-.052zM52.174 293.207v-3.585c0-.364-.73-.242-.73.063v3.585c0 .365.73.242.73-.063zM35.926 279.373c-2.012-.324-3.965-.227-4.648 2.02-.3.98.692 1.98 1.236 2.662.487.61 1.52 2.32.006 2.618-.512.1-1.03.147-1.542.258-.876.192-.694.814.168.627 1.115-.243 3.783-.347 3.603-2.154-.116-1.157-.967-1.952-1.62-2.856-.422-.586-.507-1.044-.298-1.73.354-1.165 1.275-.873 2.188-.726.402.064 1.7-.59.906-.717z"/><path fill="#562F2F" d="M35.622 284.285c1.034-.005 2.067-.063 3.102-.068.846-.004 1.096-1.118.114-1.113-1.034.005-2.067.063-3.102.068-.846.003-1.096 1.118-.114 1.113z"/><path fill="#562F2F" d="M36.97 279.553c-.028 2.578-.377 5.14-.344 7.72.002.13.728.02.725-.195-.033-2.58.316-5.14.346-7.72 0-.127-.723-.023-.725.195zM40.138 284.25c1.013.173 2.355.214 3.118-.597.383-.407.264-1.054-.15-1.373-.427-.327-1.085-.292-1.584-.232-1.31.156-2.178 1.216-2.263 2.52-.098 1.505 2.052 1.61 3.094 1.615.24 0 .782-.362.294-.364-.847-.006-1.878-.047-2.48-.725-.565-.633.123-2.273.803-2.583.688-.312 1.95-.143 1.765.855-.157.844-1.548.627-2.144.525-.197-.03-.847.29-.452.358zM43.857 282.443c-.196 2.27-.27 4.544-.275 6.823 0 .393.735.292.735-.05.005-2.278.08-4.552.275-6.822.034-.388-.706-.293-.735.05z"/><path fill="#562F2F" d="M44.365 282.714c.98.006 1.806.176 1.965 1.282.18 1.25-1.162 1.075-1.993 1.163-.372.04-.586.5-.087.446 1.07-.114 2.645-.01 2.813-1.414.184-1.526-1.222-1.923-2.428-1.93-.3-.002-.76.45-.27.452zM50.886 279.62c-.012.76-.1 1.52-.112 2.28-.01.627-.043 1.504.41 2 .386.42 1.203.332 1.706.31.942-.042 1.872-.255 2.814-.28.417-.01.553-.555.06-.543-.64.016-1.28.125-1.916.2-.527.06-1.872.37-2.16-.238-.506-1.077-.084-2.637-.066-3.783.005-.387-.73-.284-.736.052z"/><path fill="#562F2F" d="M53.648 279.897c.534 2.057.163 4.193.137 6.286-.004.314.723.164.726-.086.027-2.127.405-4.303-.137-6.394-.07-.265-.793-.072-.725.194z"/></g><g><path fill="#7DCAF9" d="M416.024 149.125c0 4.145-3.6 7.535-8 7.535h-11.29c-4.4 0-8-3.39-8-7.535s3.6-7.535 8-7.535h11.29c4.4 0 8 3.39 8 7.535z"/><path fill="#562F2F" d="M415.3 149.32c-.66 7.644-8.253 7.044-13.93 7.044-5.475 0-11.328-.664-11.912-7.434-.66-7.644 8.94-7.045 13.93-7.045 5.474 0 11.327.664 11.912 7.434.023.27 1.483.002 1.45-.39-.762-8.81-9.92-7.636-16.32-7.636-5.717 0-11.815 1.018-12.42 8.025-.76 8.788 11.01 7.635 16.318 7.635 5.717 0 11.815-1.018 12.42-8.025.018-.198-1.41-.045-1.448.39z"/><path fill="#562F2F" d="M405.28 147.5h-3.08c-.262 0-.774.398-.285.398h3.08c.26 0 .774-.397.284-.397zM404.303 146.01h-1.385c-.415 0-.556.53-.064.53h1.385c.413 0 .554-.53.063-.53zM406.306 148.907h-3.783c-.256 0-.777.388-.288.388h3.783c.256 0 .777-.388.288-.388zM405.267 150.257h-3.08c-.322 0-.75.49-.26.49h3.08c.322 0 .75-.49.26-.49zM404.303 151.936h-1.156c-.415 0-.556.53-.064.53h1.156c.413 0 .554-.53.063-.53z"/><g><path fill="#562F2F" d="M411.617 149.22c-.187 3.474-3.55 6.03-7.04 4.222-1.644-.852-2.432-2.658-2.527-4.415-.192-3.572 3.923-5.834 7.04-4.22 1.644.852 2.432 2.657 2.527 4.414.008.147.736.02.725-.193-.377-7-10.65-6.593-11.016.194-.376 6.98 10.65 6.584 11.016-.193.007-.125-.713-.03-.725.194z"/></g></g><g><path fill="#F07578" d="M868.97 3.085s42.646-.77 50.33 2.305l39.575 37.653v48.41L868.97 3.086z"/><path fill="#562F2F" d="M870.873.883c13.643-.24 27.39-.312 40.996.802 4.85.396 7.73.513 11.103 3.724l14.95 14.224 16.566 15.762c1.522 1.45 3.048 2.9 4.57 4.352 1.03.98.71.116.71 1.63v47.161l2.097-.562-89.905-88.37c-.703-.69-2.758.204-1.988.96 29.97 29.455 59.938 58.912 89.906 88.368.513.503 2.097.384 2.097-.562V51.35v-8.422c0-.56.393-2.89-.107-3.364-2.93-2.79-5.86-5.577-8.792-8.365L923.112 2.686c-2.746-2.612-7.84-2.37-11.388-2.66-8.356-.683-16.774-.76-25.155-.813-5.168-.033-10.338-.017-15.505.074-1.24.022-1.67 1.62-.192 1.595z"/><path fill="#562F2F" d="M870.252-.397L859.11 9.208c-.74.637-.22 1.264.614 1.264h20.914c.438 0 1.685-.678 1.098-1.255-3.26-3.202-6.516-6.404-9.77-9.605-.69-.678-2.747.208-1.993.95 3.26 3.2 6.516 6.403 9.77 9.604.366-.418.73-.837 1.098-1.255h-20.913l.616 1.265L871.687.57c1.117-.965-.624-1.667-1.435-.967z"/><path fill="#562F2F" d="M870.244.28l3.97 9.604c.24.58 1.672.154 1.448-.39l-3.97-9.604c-.24-.58-1.67-.153-1.448.39zM866.403 3.59l3.155 6.295c.233.464 1.638-.014 1.45-.39-1.053-2.097-2.105-4.195-3.157-6.294-.23-.463-1.634.016-1.447.39zM926.554 17.274c-1.085-2.178-1.21-4.53-3.425-5.904-1.283-.796-3.39-.82-4.79-.296-1.856.694-2.438 2.154-2.782 4.03-.27 1.484.028 3.106-.147 4.61-.376 3.21-4.727 2.614-6.965 2.38-.508-.054-2.517.832-1.394.95 3.55.37 8.292.873 10.277-2.845 1.215-2.276-.018-5.35 1.06-7.793 1.07-2.43 4.19.953 4.645 1.88.56 1.142.776 2.42 1.35 3.568.29.585 2.378-.167 2.172-.58zM930.745 21.435c-5.75 1.297-10.86 4.61-16.717 5.473-1.182.174-1.68 1.778-.2 1.56 6.088-.895 11.35-4.228 17.308-5.575 1.36-.307.952-1.762-.39-1.458z"/><path fill="#562F2F" d="M930.06 21.877c-1.358 2.932-3.87 4.768-6.004 7.09-2.12 2.304-3.04 5.472-4.648 8.108-.652 1.068 1.563 1.166 2.092.302 1.72-2.814 2.737-5.89 5.004-8.357 2.093-2.276 4.315-3.962 5.65-6.84.537-1.166-1.66-1.24-2.094-.303z"/><path fill="#562F2F" d="M920.67 26.004c1.63.506 1.862 2.474 2.438 3.842.278.66 2.408-.024 2.174-.582-.675-1.6-.96-3.63-2.86-4.22-.49-.153-1.09-.005-1.53.236-.222.122-.722.57-.223.724zM935.065 30.68c-4.03 2.312-8.62 5.108-11.896 8.417-3.116 3.15 2.156 6.542 4.264 8.513.503.47 2.526-.343 2.03-.808-1.312-1.227-2.695-2.357-3.925-3.67-1.957-2.084-1.106-3.513.84-5.01 3.214-2.47 6.478-4.917 9.995-6.936 1.27-.727-.686-.863-1.31-.505zM950.143 45.68c-2.502-1.866-3.22-5.488-6.566-6.12-2.293-.435-3.812 1.588-4.906 3.23-1.636 2.45-5.6 3.407-6.65 6.293-.472 1.3-.057 2.097.993 2.934 1.78 1.42 2.98 2.584 4.19 4.555.393.635 2.504-.07 2.017-.862-1.362-2.214-2.762-3.415-4.722-4.977-2.357-1.88 3.243-5.002 4.393-5.888 1.097-.845 2.843-4.442 4.483-3.754 2.037.856 2.96 4.113 4.756 5.452.63.47 2.634-.4 2.013-.863z"/><path fill="#562F2F" d="M937.838 44.792c1.543 2.052 3.195 4.25 5.54 5.425.543.272 2.553-.555 1.756-.954-2.214-1.11-3.812-3.34-5.265-5.27-.38-.504-2.474.214-2.032.8z"/></g><g><path fill="#F07578" d="M310.298 126.086c0 7.442-6.09 13.53-13.53 13.53h-10.315l-9.913 9.135-8.356-9.133h-9.98c-7.44 0-13.53-6.09-13.53-13.53v-4.06c0-7.44 6.09-13.53 13.53-13.53h38.564c7.44 0 13.53 6.09 13.53 13.53v4.06z"/><path fill="#562F2F" d="M307.85 128.475c-.376 7.367-5.423 12.507-13.082 12.507-2.915 0-6.183-.44-9.063.04-1.933.323-3.45 2.404-4.793 3.64-2.23 2.057-4.462 4.112-6.693 6.168l2.68-.587c-2.7-2.95-5.4-5.9-8.098-8.852-1.53-1.67-8.353-.408-10.5-.408-17.13 0-18.26-29.85-.56-29.85h29.414c3.763 0 7.764-.383 11.44.568 7.902 2.045 9.253 9.918 9.253 16.775 0 .572 2.896.124 2.896-.776 0-6.786-1.208-14.03-8.544-16.728-3.945-1.452-8.09-1.11-12.226-1.11H257.85c-14.873 0-21.213 19.517-10.602 29.166 4.665 4.242 11.8 3.226 17.57 3.226h1.266c.968 0-.523-.41-.004.156.98 1.07 1.96 2.14 2.938 3.212l5.16 5.64c.533.582 2.245-.187 2.68-.588l7.95-7.323 1.415-1.304c1.422-1.31-2.185.208-.94.208h6.606c9.384 0 18.31-3.84 18.856-14.556.028-.53-2.85-.142-2.897.777z"/></g></g><g class="p3_super"><path fill="#F7E0DC" d="M165.802 327.305c-2.805-1.188-2.79-6.215-5.223-8.437-5.606-4.893-12.178-7.347-19.235-7.328-5.393-.234-13.967.63-17.6 4.98-3.745 4.534-1.48 14.96-.46 20.356 1.09 6.95 3.483 10.91 10.534 13.404 6.57 2.455 17.625-.438 23.326-4.043 5.292-3.35 9.67-11.023 11.607-17.152"/><path fill="#562F2F" d="M166.924 326.488c-2.43-1.536-2.873-5.04-4.288-7.413-1.52-2.547-5.49-4.563-8.082-5.717-6.13-2.73-12.598-3.27-19.223-2.62-4.872.474-10.453 2.035-13.39 6.24-2.987 4.278-1.7 11.02-.936 15.783.878 5.477 1.598 11.17 5.863 15.108 3.892 3.594 9.432 4.508 14.514 4.277 14.336-.646 24.28-9.703 28.753-22.916.53-1.563-2.364-1.46-2.76-.294-1.784 5.27-4.384 10.1-8.172 14.21-3.962 4.3-10.537 6.044-16.12 6.82-5.52.768-11.297-.69-15.1-4.92-2.797-3.108-3.137-7.902-3.863-11.828-.882-4.77-1.74-10.035-.077-14.73 1.884-5.315 10.196-5.812 14.857-5.96 6.533-.208 12.46 1.456 17.905 5.067 2.714 1.802 3.882 3.898 5.018 6.817.615 1.578 1.422 2.797 2.858 3.704 1.04.66 3.608-.767 2.246-1.628z"/><path fill="#F7E0DC" d="M268.274 314.25c.484-3.544 7.697-8.578 11.14-9.912 3.927-1.67 9.582-.096 13.264 1.612 14.055 6.938 18.678 24.02 9.643 36.028-2.645 3.45-5.478 6.676-10.255 6.625-4.137.034-9.446-.892-12.806-3.355-7.094-5.385-9.162-15.7-9.82-23.615-.13-2.224-.18-5.04.33-7.177"/><path fill="#562F2F" d="M269.702 313.99c.983-3.782 5.06-6.398 8.188-8.314 5.745-3.517 13.128.04 17.983 3.605 7.393 5.432 10.8 14.95 9.185 23.84-.858 4.72-3.602 8.805-6.82 12.243-5.1 5.454-15.166 1.917-19.69-2.458-6.684-6.466-8.934-19.896-7.35-28.713.11-.627-2.734-.15-2.855.524-1.928 10.748 1.54 29.33 13.616 33.05 4.83 1.487 10.38 2.25 15.128.073 5.306-2.434 8.957-8.71 10.54-14.056 3.7-12.483-4.727-25.108-16.288-29.407-4.5-1.673-9.147-1.758-13.544.133-4.05 1.743-9.776 5.496-10.948 10-.148.57 2.67.18 2.854-.52z"/><path fill="#C63E4E" d="M227.27 396.178s22.408-10.055 45.677 26.43c23.27 36.48 86.178 101.402 151.388 40.79 0 0 3.447 35.047-54.005 45.676 0 0-89.627 10.344-99.106 26.143-9.48 15.797-72.91 7.318-91.827 6.318-18.915-1.002-104.662 28.15-131.378-23.844 0 0 72.678 16.144 97.382-47.973 0 0 32.173-94.795 81.87-73.54z"/><path fill="#562F2F" d="M228.096 396.33c12.516-5.48 28.297 7.534 35.94 16.426 6.82 7.93 11.906 17.296 18.415 25.507 6.085 7.677 12.81 14.843 20.048 21.438 15.514 14.138 34.388 25.522 55.445 28.462 21.496 3 42.31-4.88 59.27-17.735 2.938-2.23 5.71-4.67 8.428-7.16-.917.175-1.835.348-2.753.52.61 6.583-2.217 13.59-5.625 19.03-9.528 15.213-29.83 23.744-46.973 25.794-27.175 3.248-55.102 7.25-81.127 15.923-5.313 1.77-10.914 3.82-15.5 7.118-1.493 1.074-2.868 2.272-3.865 3.834-1.88 2.944-5.015 4.484-8.222 5.6-8.676 3.012-18.615 3.01-27.685 3.057-9.69.05-19.38-.527-29.04-1.237-12.072-.89-23.873-2.707-35.914-.93-15.843 2.343-31.555 5.3-47.59 6.07-27.502 1.325-57.91-4.22-71.88-30.74-.88.312-1.762.62-2.644.93 19.592 4.31 41.908 1.872 60.202-6.04 16.578-7.172 29.285-20.268 37.1-36.43 3.752-7.76 6.323-16.08 9.924-23.923 11.982-26.093 36.926-69.645 71.855-55.178.777.322 2.953-.873 2.736-.963-29.48-12.21-53.357 14.18-67.15 37.062-6.28 10.418-11.52 21.512-15.905 32.854-5.03 13.015-11.255 24.886-21.748 34.43-19.27 17.522-49.548 22.622-74.623 17.107-.33-.072-2.934.38-2.645.928 17.412 33.06 58.555 33.425 91 29.528 13.007-1.562 26.13-5.13 39.236-5.53 6.198-.19 12.58.852 18.748 1.36 9.392.775 18.794 1.43 28.215 1.71 14.077.42 32.112 1.414 44.704-6.19 4.008-2.42 5.972-6.636 10.18-9.033 6.437-3.67 13.89-5.732 20.987-7.676 16.39-4.487 33.243-7.364 50.03-9.906 10.707-1.622 21.375-2.563 31.856-5.407 15.246-4.134 30.915-11.88 39.32-25.848 3.092-5.138 5.504-11.956 4.937-18.08-.06-.635-2.498.286-2.754.522-11.452 10.487-24.632 19.136-39.94 22.627-11.703 2.668-23.853 1.583-35.274-1.81-20.804-6.176-38.668-20.564-53.27-36.176-6.615-7.07-12.624-14.72-18.044-22.738-6.506-9.624-12.917-18.937-22.793-25.417-7.742-5.08-18.324-7.633-27.2-4.02l-.064.026c-1.744.763 1.006.586 1.65.304z"/><path fill="#66BAED" d="M197.97 424.904l49.697-2.3s15.943 55.59 10.772 113.328c0 0-4.455.29-4.598 4.453 0 0-12.926-99.393-43.376-68.658 0 0-17.667 15.943-13.215 75.12 0 0-5.026-13.503-11.49-13.357 0 0-6.173-55.732 12.21-108.586z"/><path fill="#562F2F" d="M197.355 425.53c9.44-.437 18.878-.872 28.317-1.31 5.61-.26 11.22-.52 16.83-.777 1.38-.063 2.76-.128 4.14-.19.898-.043-.384-.117-.4-.178.112.397.22.8.328 1.198 9.736 36.083 13.604 74.838 10.42 112.05.69-.34 1.377-.68 2.065-1.018-3.245.318-6.15 1.873-6.645 5.32l2.88-.63c-2.72-20.807-6.965-43.54-17.145-62.067-4.375-7.962-11.236-15.196-20.943-11.686-6.07 2.196-10.21 7.45-13.064 12.968-10.46 20.223-9.913 46.047-8.335 68.026.966-.26 1.932-.52 2.897-.777-1.196-3.15-2.814-6.152-4.778-8.887-1.18-1.643-2.596-3.016-4.353-4.014-.36-.203-2.385-.683-2.38-.648-.612-5.847-.813-11.746-.93-17.62-.607-30.587 3.21-61.63 13.142-90.63.22-.647-2.6-.295-2.865.48-11.667 34.072-16.148 72.804-12.226 108.733.022.194.398.23.52.24 5.714.385 9.202 8.454 10.972 13.12.272.717 2.953-.013 2.897-.778-1.49-20.747-1.566-43 6.053-62.705 2.546-6.585 6.208-13.12 12.74-16.433 10.957-5.56 19.123 13.33 22.042 20.52 5.09 12.54 8.125 25.952 10.616 39.218.855 4.55 1.643 9.12 2.244 13.713.087.664 2.79.01 2.88-.63.208-1.438.607-3.394 2.55-3.585.556-.055 2-.268 2.063-1.016 3.203-37.43-.436-77.105-10.772-113.33-.083-.288-.627-.247-.833-.237-16.565.767-33.13 1.532-49.696 2.3-.817.04-3.158 1.348-1.23 1.258z"/><path fill="#D6D0D0" d="M253.104 540.063s41.863-33.73 48.277 7.476l-48.79.046.514-7.523z"/><path fill="#562F2F" d="M254.07 540.744c5.68-4.553 12.29-8.365 19.15-10.78 5.12-1.804 10.768-2.653 15.922-.552 7.165 2.922 9.63 11.643 10.79 18.514.524-.49 1.047-.98 1.57-1.472-16.262.016-32.525.03-48.79.047.45.327.9.653 1.348.98.17-2.508.342-5.015.513-7.52.104-1.532-2.848-1.134-2.94.208-.17 2.507-.34 5.014-.512 7.52-.05.766.74.98 1.348.98 16.263-.016 32.526-.03 48.79-.047.757 0 1.713-.63 1.57-1.47-1.226-7.276-3.74-14.94-10.42-18.923-4.79-2.854-10.7-2.564-15.94-1.396-8.75 1.95-17.368 6.97-24.332 12.552-1.535 1.23.787 2.28 1.934 1.362z"/><path fill="#D6D0D0" d="M199.285 548.238s2.074-33.33-38.042-18.638c0 0-12.18 8.285-5.095 19.183l43.137-.545z"/><path fill="#562F2F" d="M200.734 547.85c.52-9.106-4.03-18.32-12.9-21.45-12.887-4.546-44.308 3.73-33.134 22.772.104.176.32.223.514.22 14.38-.182 28.758-.362 43.137-.545.626-.008 3.304-1.234 1.87-1.217l-27.952.354c-4.597.06-9.194.115-13.79.175-2.363.028-2.437-2.623-2.93-4.77-.92-4.004 1.228-8.005 3.742-10.928 4.575-5.317 13.958-6.212 20.57-5.945 5.468.222 10.55 2.626 13.826 7.036 3.06 4.116 4.442 9.977 4.15 15.074-.026.463 2.848.105 2.898-.777z"/><path fill="#D6D0D0" d="M211.184 382.676s2.3 13.36-7.468 13.646c0 0 12.782 20.684 31.167 2.44 0 0-11.203-5.746-5.602-17.38l-18.096 1.294z"/><path fill="#562F2F" d="M209.735 383.064c.775 4.782.077 11.646-5.9 12.158-.793.067-2.033.81-1.443 1.747 2.385 3.786 6.006 6.842 9.984 8.813 8.46 4.192 17.276-.438 23.477-6.326.39-.37.843-1.18.14-1.552-6.254-3.32-8.08-9.98-5.32-16.34.366-.847-.55-1.335-1.273-1.283-6.032.43-12.065.86-18.098 1.293-1.66.118-2.21 2.34-.236 2.197 6.032-.432 12.065-.86 18.098-1.293-.424-.43-.85-.857-1.272-1.285-3.047 7.024-1.143 14.693 5.88 18.423l.142-1.552c-6.295 5.977-13.925 9.488-21.902 4.576-2.755-1.694-5.244-4.23-6.97-6.972l-1.443 1.747c7.947-.68 10.164-8.16 9.034-15.134-.227-1.39-3.13-.65-2.9.78z"/><path fill="#EF4545" d="M206.536 404.39l33.34 3.737 7.228 9.713-27.548 22.525-22.427-28.092z"/><path fill="#562F2F" d="M206.302 404.537c11.002 1.234 22.005 2.468 33.007 3.7 1.185.135 3.362 4.23 4.103 5.227.606.814 3.792 4.052 2.932 4.755l-14.108 11.535c-4.3 3.517-8.6 7.03-12.9 10.547.395-.32.662.067.02-.737-.625-.78-1.25-1.563-1.872-2.345l-6.327-7.926-12.654-15.85c-1.393-1.745-.595-1.575 1.176-3.06 2.396-2.01 4.79-4.016 7.186-6.022.157-.132-.522-.06-.656.053-3.136 2.628-6.27 5.257-9.407 7.885-.04.033-.042.062-.013.1 7.476 9.36 14.95 18.727 22.427 28.09.114.144.57-.067.67-.15l27.548-22.523c.024-.02.036-.042.034-.07l-7.17-9.636c-.665-.892-5.33-.705-6.344-.82l-27.183-3.046c-.16-.02-.836.253-.47.293z"/><path fill="#FCFF02" d="M212.493 410.127s-6.662 2.824-6.103 7.63l-3.284-3.286 5.573-4.77 3.813.427z"/><path fill="#562F2F" d="M212.34 409.938c-3.166 1.366-6.585 4.152-6.312 7.916l.696-.248-2.91-2.912c-.44-.44-.506-.053.003-.487l1.82-1.56 3.323-2.844c-.37.317-.383.14.184.203l1.31.147c.637.07 1.272.143 1.908.214.326.036.752-.427.263-.482-1.274-.143-3.453-.95-4.514-.043l-5.302 4.54c-.062.052-.1.175-.035.24 1.095 1.096 2.19 2.19 3.284 3.287.195.193.718.06.696-.25-.254-3.49 2.97-6.083 5.894-7.346.46-.197.047-.53-.308-.376z"/><path fill="#FCFF02" d="M229.354 417.854s-.81-9.065-14.88-5.24c-1.248.34-3.344 3.17 2.33 4.634 0 0 17.923.184 17.874 6.453l6.11-5.077-3.954-5.055-.645 5.112-6.836-.826z"/><path fill="#562F2F" d="M229.716 417.757c-.29-2.62-2.296-4.57-4.597-5.584-2.958-1.303-9.828-1.427-12.062 1.232-2.207 2.628 3.31 4.046 5.026 4.12 4.33.183 15.696.437 16.23 6.27.027.285.557.07.66-.016l6.11-5.08c.068-.057.095-.157.04-.23l-3.956-5.054c-.15-.19-.667-.057-.698.187-.18 1.43-.366 4.818-.742 4.772-2.08-.25-4.16-.503-6.24-.754-.313-.037-.757.405-.268.464l6.836.826c.158.02.474-.075.498-.27l.44-3.496c.214-1.693-.648-1.628.36-.34 1.718 2.197 3.88 3.117 1.554 5.05l-3.572 2.97c-1.312 1.09-.15.284-.818-.98-.84-1.59-2.944-2.34-4.513-2.92-2.58-.956-5.428-1.305-8.146-1.603-2.817-.31-5.565.147-7.964-1.808.752-2.59 2.384-3.762 4.896-3.517 1.724-.23 3.375-.077 5.05.323 1.523.363 2.807 1.305 3.8 2.477.712.842 1.227 2.045 1.35 3.152.03.287.758.118.724-.19z"/><path fill="#FCFF02" d="M208.334 421.012l4.346 5.45s4.508-3.888 7.934 1.853c0 0 8.09.963 8.803-1.48 0 0 .65-1.438-5.45-2.12 0-.002-11.588-1.2-15.633-3.703z"/><path fill="#562F2F" d="M208 421.16l4.345 5.448c.146.182.492.036.63-.074 2.225-1.807 4.773-1.007 6.496.768.143.146.475 1.176 1.007 1.235 1.395.156 2.824.243 4.226.173.926-.046 5.3-.193 5.095-2.083-.214-1.976-4.972-2.052-6.294-2.204-4.884-.56-10.533-1.166-14.885-3.597-.228-.126-.89.192-.572.37 4.05 2.263 9.056 2.842 13.583 3.47 2.25.312 4.598.374 6.694 1.32 3.29 1.483-5.25 2.278-6.3 2.218-2.095-.123-2.317-2.62-4.5-3.06-1.413-.282-2.558-.136-3.875.438-1.75.76-.376 1.057-1.616-.5-1.122-1.405-2.243-2.812-3.365-4.22-.17-.21-.867.05-.67.297z"/><path fill="#FCFF02" d="M215.037 429.303l4.763 6.27 6.09-5.052s-6.258 1.584-10.853-1.217z"/><path fill="#562F2F" d="M214.7 429.444c1.59 2.09 3.176 4.182 4.764 6.27.13.173.505.022.627-.08 2.03-1.685 4.06-3.37 6.09-5.053.272-.225-.195-.276-.338-.242-3.472.847-7.388.548-10.516-1.212-.208-.117-.875.184-.576.352 3.347 1.884 7.46 2.09 11.157 1.233-.678.158-.09-.43-.502-.088l-.757.628-2.093 1.736c-1.015.843-2.03 1.685-3.045 2.525.21-.025.418-.054.627-.08-1.588-2.09-3.175-4.182-4.763-6.27-.15-.198-.85.052-.673.284z"/><path fill="#FCFF02" d="M229.414 411.766l3.386.384-1.547 1.756c0-.002.03-1.238-1.84-2.14z"/><path fill="#562F2F" d="M229.19 411.96l3.387.382-.114-.198-1.547 1.757.7-.092c.003-1.036-1.11-1.805-1.913-2.215-.207-.104-.874.195-.578.347.75.383 1.77 1.094 1.766 2.063 0 .27.624-.005.7-.092.516-.584 1.03-1.17 1.547-1.755.082-.093-.02-.188-.114-.198l-3.386-.383c-.222-.027-.852.34-.446.385z"/><path fill="#F7E0DC" d="M175.492 293.625s-85.318 88.98 38.996 92.21c0 0 104.276 12.93 58.817-90.055l-97.813-2.155z"/><path fill="#562F2F" d="M174.157 293.646c-9.832 10.276-18.394 22.65-24.006 35.71-3.825 8.902-6.185 19.08-3.5 28.632 3.206 11.412 13.82 18.143 24.332 22.007 14.228 5.23 29.1 5.348 43.974 6.694 6.307.57 12.69.53 18.997.003 19.437-1.63 40.78-8.784 48.977-28.142 8.522-20.128-.003-44.465-8.174-63.16-.143-.327-.557-.338-.86-.345l-97.814-2.155c-.973-.02-3.126 1.423-1.175 1.466l74.21 1.635 17.687.39c1.54.035 3.08.07 4.62.103l1.084.024c-.383-.008 1.426 4.532 1.685 5.163 6.554 15.973 11.905 34.57 7.663 51.836-5.56 22.616-28.814 30.688-49.688 31.93-5.464.327-11.012.307-16.46-.278-17.318-1.86-34.598-1.628-50.443-10.017-34.807-18.424-7.33-61.79 11.566-81.538.77-.806-2.1-.555-2.673.044z"/><path fill="#68312A" d="M206.146 309.63s16.154 27.75 46.116 13.32c0 0 16.635-6.403 19.875-17.563 0 0 19.528 17.47 31.88-11.86 0 0 9.747-20.27-10.884-28.538 0 0 19.68-21.48-8.85-29.425 0 0 9.868-26.033-24.676-34.415 0 0-21.36-2.925-25.44 7.937 0 0-8.073-12.034-28.092-10.934 0 0-13.833 1.262-12.468 15.536 0 0-12.557-26.897-38.878-5.338 0 0-14.353 15.643-1.777 27.39 0 0-13.77 2.136-3.497 16.835 0 0-24.844 3.232-20.165 25.04 0 0 3.926 14.664 13.004 19.29 0 0-17.293-7.728-16.625 15.28 0 0 10.228 22.63 50.57-11.14 0 0 9.61 18.53 29.906 8.582z"/><path fill="#562F2F" d="M202.94 310.203c5.94 10.076 17.143 16.987 28.745 17.72 13.795.87 35.402-8.767 40.04-22.71l-2.793.75c7.546 6.65 18.294 7.153 26.01.61 9.446-8.01 15.12-25.347 6.864-35.855-1.276-1.625-7.784-7.28-9.197-5.667 1.158-1.323 2.178-2.752 3.114-4.24 2.968-4.714 4.82-10.547 2.575-15.918-1.303-3.116-4.102-5.263-6.91-6.94-2.038-1.216-4.312-1.99-6.55-2.738-1.046-.35-1.054.536-.69-.676 1.195-3.988 1.308-8.31.567-12.388-2.17-11.933-15.138-20.53-26.604-21.87-9.004-1.052-23.032-.758-27.257 8.98l2.794-.75c-9.62-13.998-44.84-18.107-43.353 5.564.966-.26 1.932-.518 2.897-.776-4.566-9.615-15-16.19-25.723-13.576-7.132 1.74-14.267 5.715-18.443 11.86-5.416 7.973-6.423 17.518.72 24.73l1.535-1.4c-2.5.42-4.885 1.523-6.746 3.252-4.575 4.252-1.042 10.84 1.713 14.983.51-.467 1.022-.934 1.534-1.4-7.913 1.078-16.3 5.196-20.327 12.31-6.122 10.818 1.868 27.956 11.824 33.56.767-.475 1.534-.95 2.3-1.427-4.37-1.908-10.363-2.14-14.24.982-4.483 3.61-7.405 12.89-3.455 17.714 3.53 4.313 9.396 5.89 14.777 5.514 13.988-.976 26.507-10.52 36.88-19.1l-2.615.132c6.418 12.116 20.263 14.22 31.934 8.814 1.83-.847.155-1.85-1.157-1.24-10.413 4.82-22.307 2.166-27.878-8.35-.48-.905-2.024-.358-2.615.13-9.953 8.234-32.938 26.918-46.008 13.65-3.567-3.62-2.126-9.356-.13-13.587 2.28-4.828 7.83-5.147 12.21-3.234.81.354 3.572-.71 2.3-1.428-9.217-5.19-15.48-19.434-12.402-29.73 2.256-7.544 10.86-12.056 18.223-13.06.545-.073 2.076-.586 1.535-1.4-3.308-4.973-6.25-14.052 1.962-15.433.388-.065 2.25-.68 1.535-1.4-13.29-13.422 2.24-32.093 17.163-34.223 8.768-1.25 17.1 5.555 20.7 13.13.478 1.01 2.966.326 2.896-.775-1.35-21.497 29.393-15.828 37.768-3.64.592.86 2.483-.033 2.794-.75 3.332-7.68 14.202-7.61 21.292-7.127 7.54.514 15.714 4.708 20.986 10.036 5.974 6.037 7.893 15.962 4.936 23.92-.135.363.317.555.568.63 8.587 2.544 16.734 7.757 14.39 17.763-.896 3.82-3.192 7.69-5.826 10.598-.263.29-.482.756.017.97 13.82 5.913 15.04 18.756 9.252 30.904-3.675 7.716-10.167 14.77-19.367 12.592-2.988-.707-6.08-2.35-8.39-4.387-.722-.637-2.488-.17-2.793.75-4.65 13.976-26.752 22.506-40.09 20.195-9.345-1.62-18.31-8.568-23.107-16.702-.497-.842-3.315.083-2.685 1.153z"/><path fill="#66BAED" d="M214.42 425.08c11.522 5.912 27.646 10.31 27.646 10.31 24.418-1.148 2.87-35.697 2.87-35.697-7.038-12.86-12.207-3.228-12.207-3.228-12.497 16.95-23.988-.86-23.988-.86s-6.604-8.763-12.35 4.74c0 0-22.553 43.376 4.02 32.173 0 0 27.435-15.227 32.175-15.082 0 0 5.602 17.525 19.533 9.625 0 0 8.473-16.728-18.386-12.96 0 0-21.114-2.98-29.73 7.07"/><path fill="#562F2F" d="M213.294 425.88c8.8 4.407 18.18 7.693 27.644 10.36 4.903 1.38 11.25-2.416 13.252-6.783 4.227-9.22-3.128-22.583-7.907-30.36-3.17-5.16-8.31-10.09-13.668-4.507-3.228 3.364-5.285 7.563-10.532 8.18-4.345.51-8.396-3.27-10.935-6.335-2.106-2.542-4.53-5.402-8.313-4.493-5.167 1.24-7.12 6.714-9.193 11.063-2.682 5.623-14.892 30.642-2.34 32.25 6.203.795 11.823-3.13 17.02-5.894 4.467-2.375 8.972-4.685 13.537-6.867 3.09-1.48 7.063-3.95 10.578-4.065-.434-.2-.868-.4-1.302-.603 2.234 6.79 7.625 12.737 15.22 12.2 6.4-.453 9.612-4.607 8.228-10.78-2.083-9.282-15.757-5.726-21.938-6.312-10.095-.956-22.552-.034-29.845 7.86-1.223 1.324 1.58 1.642 2.4.753 6.34-6.864 17.127-7.327 25.865-6.677 6.226.463 15.756-2.708 19.966 3.555 1.128 1.677.996 3.942.618 5.822-.506 2.518-.796 2.562-3.273 3.418-6.964 2.407-12.437-4.83-14.342-10.62-.18-.546-.812-.618-1.302-.602-5.932.194-12.58 4.645-17.7 7.22-5.135 2.582-10.217 5.282-15.244 8.067-2.505 1.39-7.265 2.775-9.543.326-1.774-1.906-1.395-5.292-1.11-7.63.766-6.264 3.323-12.366 5.85-18.096 1.735-3.935 5.522-14.71 10.547-11.804 1.17.677 1.848 1.7 2.633 2.736 1.915 2.525 4.363 4.656 7.165 6.13 6.76 3.557 15.257-.517 18.806-6.857 3.918-7 9.48 3.578 11.57 7.48 3.768 7.032 9.095 17.848 5.447 25.806-2.29 5-7.884 4.79-12.212 3.478-7.993-2.425-15.917-5.277-23.393-9.02-1.044-.522-3.628.912-2.25 1.602z"/><path fill="#66BAED" d="M213.224 415.215l-3.62-1.02c0-2.236-3.16-3.94-3.16-3.94-18.24-9.622-13.788 9.335-13.788 9.335 2.73 6.75 12.64-.717 12.64-.717.164.174.338.346.518.518"/><path fill="#562F2F" d="M214.116 414.448c-1.14-.32-2.28-.644-3.42-.963.548.152-1.988-3.192-2.41-3.49-2.37-1.667-5.72-2.927-8.626-3.187-4.597-.41-8.098 1.904-8.806 6.537-.396 2.587-.506 7.243 2.04 8.896 4.177 2.71 10.095-.586 13.557-3.148-.833.114-1.668.23-2.503.342l.52.52c.7.697 3.437-.38 2.694-1.12l-.518-.518c-.62-.62-1.94-.076-2.504.342-2.875 2.13-7.887 4.898-10.034.546-.54-1.094-.44-2.928-.476-4.104-.065-2.18.29-5.52 2.538-6.58 3.337-1.574 11.374 2.395 11.988 6.065.042.25.365.324.556.378l3.62 1.02c.886.247 3.407-1.08 1.786-1.535z"/><path fill="#EF4545" d="M252.806 445.146c-17.25 6.745-47.764.252-60.02-2.837-1.122 4.428-2.102 8.83-2.943 13.174 6.42 2.336 16 8.723 23.216 13.914 7.49-5.955 13.853-3.927 19.168 2.32l22.965-12.794c-.776-5.01-1.59-9.63-2.387-13.778z"/><path fill="#562F2F" d="M252.23 444.537c-9.94 3.667-21.11 3.036-31.468 1.97-9.13-.94-18.194-2.77-27.093-4.994-.697-.174-2.13.155-2.335.977-1.087 4.37-2.068 8.757-2.942 13.174-.045.228.08.446.3.53 8.314 3.226 15.813 8.62 23.02 13.776.615.44 1.65.31 2.248-.13 6.48-4.742 11.998-3 16.923 2.452.524.58 1.7.176 2.247-.13 7.655-4.264 15.31-8.528 22.965-12.794.292-.163.604-.466.546-.83-.723-4.606-1.515-9.2-2.386-13.78-.193-1.017-3.103-.302-2.897.777.525 2.766 1.025 5.535 1.5 8.31.227 1.317 1.66 4.514.79 4.997l-7.44 4.146-14.88 8.29 2.246-.128c-6.317-6.993-13.82-7.753-21.416-2.193l2.247-.13c-4.818-3.446-9.712-6.772-14.81-9.796-2.42-1.435-4.918-2.716-7.5-3.827-1.734-.747 1.767-11.56 2.143-13.07-.778.326-1.556.65-2.334.978 19.137 4.78 42.354 9.706 61.48 2.647 1.9-.702.164-1.706-1.154-1.22z"/><g><path fill="#FCFF02" d="M253.72 450.098c-.305-1.707-.61-3.375-.914-4.95-17.25 6.745-47.764.252-60.02-2.837-.486 1.917-.932 3.825-1.364 5.73 12.245 7.288 36.577 17.222 62.298 2.058z"/><path fill="#562F2F" d="M255.168 449.71c-.298-1.652-.602-3.303-.914-4.952-.112-.592-1.69-.11-1.968-.007-10.286 3.796-21.895 2.992-32.595 1.788-8.67-.976-17.264-2.71-25.724-4.824-.594-.147-2.425.063-2.615.833-.47 1.906-.922 3.814-1.362 5.728-.044.11-.02.2.074.274 20.246 11.885 43.788 13.585 64.51 1.8 1.68-.957-.966-.922-1.703-.503-12.187 6.932-25.408 9.044-39.097 6.154-4.284-.902-8.436-2.38-12.458-4.09-2.025-.86-3.987-1.86-5.926-2.9-3.046-1.63-1.9-3.988-1.17-6.936-.873.276-1.745.555-2.616.833 19.248 4.81 42.482 9.732 61.72 2.635l-1.967-.007c.312 1.647.616 3.3.914 4.95.128.707 3.044.034 2.898-.776z"/></g><path fill="#46A4D3" d="M202.998 466.416l5.17 3.877s-17.95 16.3-14.65 56.77c0 0-6.365-28.55 9.48-60.647zM242.927 469.145l-5.458 2.576s15.338 24.14 17.723 56.745c0 0-3.648-43.807-12.266-59.32zM246.336 442.635s-37.46 4.63-49.075-4.285c0 0 11.795 12.228 49.076 4.285zM191.422 424.758s2.383 8.154 18.865-.463c0 0-19.525 14.176-18.865.463zM243.035 416s7.14 5.17 3.3 10.45c0 0 7.903-5.602-3.3-10.45zM205.56 398.764s13.02 16.052 28.318 1.615c0 0-15.058 18.743-28.32-1.616zM196.175 413.73s1.222 6.723 7.828 3.348c0-.002-8.402 6.445-7.828-3.35z"/><path opacity=".4" fill="#262323" d="M156.532 539.127s27.146 9.48 38.996 0c0 0 2.37 6.68 1.4 8.457h-37.165s-5.978-.557-3.23-8.457zM255.495 543.256s38.423 3.232 40.577-3.59c0 0 1.295 1.29 2.227 5.96h-43.107l.302-2.37z"/><path fill="#A82C41" d="M160.914 448.46S134.34 537.37 58.36 522.72c0 0 67.55 61.878 102.554-74.26zM184.765 450.172s-15.55 86.978-50.566 92.473c-.002 0 39.657 2.312 50.565-92.473zM224.112 475.176s-1.414 55.515 22.992 63.95c0 0-33.907 3.27-22.992-63.95zM268.926 430.734s36.77 94.424 143.92 51.623c0 0-22.696 31.23-76.414 24.81 0 0-64.92-26.653-67.506-76.433z"/><g><path fill="#B5B5B5" d="M214.343 336.715c1.58.287 3.447-.287 5.17-.287 2.73 0 5.46.574 8.19 1.148 3.59.86 8.904-.144 8.043 5.027-.288 2.01-.862 1.58-2.73 1.725-3.59.143-7.038-.146-10.485-.576-3.302-.287-8.187.86-11.202-.717 1.292-1.867 2.442-3.02 2.585-5.46"/><path fill="#562F2F" d="M214.227 337.824c3.37.106 20.507-1.025 20.046 4.876-.067.867-19.985.153-22.12-.678l.396 1.476c1.405-1.965 2.47-3.598 2.833-6.02.23-1.524-2.737-1.174-2.943.193-.307 2.04-1.177 3.28-2.335 4.9-.4.56-.28 1.212.396 1.476 2.05.798 4.022.942 6.206.94 4.133-.007 8.142.25 12.272.445 1.894.092 7.345.965 8.024-1.99.82-3.57-.593-5.457-3.995-6.276-6.205-1.495-12.284-1.36-18.548-1.562-1.698-.05-2.184 2.16-.233 2.222z"/></g><g><path fill="#B5B5B5" d="M210.38 330.523c-14.25-8.976-56.016-23.11-67.076 6.19 0 0-8.188 30.162 60.038 9.48 0 0 18.648-8.36 7.04-15.67z"/><path fill="#562F2F" d="M211.503 329.71c-12.86-7.96-29.45-12.807-44.592-11.355-10.388.995-23.87 8.103-25.29 19.737-.677 5.543 2.142 10.48 6.942 13.19 4.618 2.607 10.344 3.183 15.543 3.175 10.43-.016 20.756-2.223 30.803-4.842 6.433-1.68 11.847-3.25 16.942-7.604 4.706-4.02 4.842-8.725-.347-12.3-1.01-.697-3.58.708-2.245 1.628 8.272 5.702-1.924 12.634-7.98 14.448-11.346 3.397-23.116 6.243-35 6.617-8.1.255-19.716-1.264-21.613-10.862-1.884-9.53 8.43-17.687 16.422-20.087 15.352-4.606 34.995 1.73 48.172 9.885 1.036.642 3.608-.784 2.243-1.63z"/><path fill="#B5B5B5" d="M236.952 335.422s30.594-25.566 56.59-8.475c4.647 3.055 4.598 14.768-12.495 19.82 0 0-31.957 10.915-41.33 2.012 0 0-8.677-5.99-2.765-13.358z"/><path fill="#562F2F" d="M237.905 336.054c7.1-5.883 15.88-10.186 24.744-12.55 8.29-2.21 16.877-1.788 24.8 1.525 6.394 2.674 9.563 7.382 5.082 13.647-5.362 7.497-19.843 9.786-28.354 11.38-6.27 1.176-13.258 2.034-19.46.14-5.983-1.83-10.56-8.684-6.56-14.372 1.056-1.5-1.673-1.855-2.41-.808-3.68 5.232-2.31 10.888 2.85 14.58 5.65 4.044 12.416 4.026 19.14 3.395 7.072-.666 14.09-2.38 20.88-4.414 5.803-1.737 11.496-3.816 15.723-8.356 3.23-3.468 4.766-9.388 1.347-13.232-5.372-6.04-16.938-7.225-24.41-6.875-12.495.584-25.696 6.738-35.276 14.677-1.517 1.255.82 2.16 1.905 1.262z"/><path fill="#9E9E9E" d="M148.402 335.637s7.325 15.73 38.89 11.312c0-.003-42.444 11.74-38.89-11.313zM241.153 339.408s14.004 12.604 38.565 3.877c0 0-33.717 12.496-38.565-3.877z"/></g><path fill="#EACCCC" d="M153.408 356.32s31.133 8.078 51.277-7.54c0 0-24.777 11.202-51.277 7.54zM233.878 349.426s15.73 12.922 40.72 2.26c0 0-27.9 14.005-40.72-2.26z"/><g><path fill="#562F2F" d="M193.32 363.835c-5.397 8.428 13.034 6.813 16.722 6.518 5.597-.448 10.935-1.854 16.243-3.616 4.39-1.458 15.434-7.735 19.39-3.174.65.754 3.425-.282 2.69-1.13-3.993-4.605-11.306-.982-15.962.604-5.493 1.87-10.886 3.96-16.61 5.02-2.842.527-5.737.78-8.62.934-1.977.105-14.84.65-11.16-5.1.725-1.133-2.19-.843-2.694-.055z"/></g><g><path fill="#562F2F" d="M216.554 378.547c4.082-.11 7.84-1.612 11.328-3.654 1.69-.99.15-2.67-1.312-1.813-3.044 1.782-6.213 3.144-9.787 3.24-1.686.046-2.196 2.28-.23 2.227z"/></g><g class="right_eye" fill="#FCF5F5"><path d="M277.15 329.87c-2.12 3.283-4.313 6.542-5.498 10.3-.244.773 2.613.38 2.875-.45 1.145-3.63 3.23-6.776 5.276-9.95.623-.965-2.232-.552-2.654.1zM286.06 330.155c-.56 3.44-2.41 6.488-3.794 9.643-.657 1.497 2.263 1.427 2.76.295 1.463-3.33 3.373-6.542 3.965-10.178.232-1.422-2.725-1.018-2.93.24z"/></g><g class="left_eye" fill="#FCF5F5"><path d="M180.197 340.543c-1.163 1.28 1.66 1.275 2.338.53 2.507-2.762 4.78-6.397 8.246-8.038 1.82-.86.156-1.888-1.163-1.263M201.65 334.305c-5.058 1.03-7.568 5.894-10.882 9.31-1.168 1.204 1.677 1.07 2.31.42 2.597-2.677 5.027-7.562 8.94-8.357 1.773-.363 1.366-1.727-.368-1.373z"/></g></g><ellipse class="p3_shadow" opacity=".9" fill="#66B9EC" stroke="#B3B3B3" stroke-miterlimit="10" cx="220.588" cy="545.629" rx="179.287" ry="26.316"/><path fill="none" stroke="#562F2F" stroke-miterlimit="10" d="M797.02 610.326v-.072h-.406l-.09-.018-.003.018H0v6.453h795.35l-.005.02 157.5 9.44 1.18-5.487z" class="border"/></svg>