<svg version="1.1" id="图层_1" xmlns="http://www.w3.org/2000/svg" xmlns:xlink="http://www.w3.org/1999/xlink" x="0" y="0" width="960" height="640" viewBox="0 0 960 640" xml:space="preserve"><g class="p4_txt"><g xmlns="http://www.w3.org/2000/svg"><path fill="#71EAB8" d="M189.93 271.227c10.075 6.99 14.484 18.363 10.637 26.416 1.94-1.04 3.606-2.47 4.872-4.294 5.6-8.07 1.318-20.734-9.563-28.283-10.88-7.548-24.24-7.125-29.84.946-.415.597-.768 1.223-1.075 1.866 6.645-3.558 16.547-2.495 24.968 3.347z"/><path fill="#562F2F" d="M235.726 330.15c-22.14 9.576-46.785-3.538-52.8-26.415-6.233-23.71 12.164-47.24 36.33-47.82.94-.022 3.126-1.485 1.18-1.438-25.652.614-45.644 22.903-40.702 48.732 4.958 25.92 34.04 37.866 57.077 27.903 1.87-.81.128-1.486-1.084-.963z"/><path fill="#7FD5F7" d="M264.113 327.486c1.32-3.06-8.496-10.237-21.926-16.032-13.43-5.793-25.387-8.01-26.707-4.948-.05.113-.078.236-.097.362-.178.33-.346.665-.496 1.01-4.026 9.334 3.598 21.597 17.027 27.39 13.43 5.794 27.58 2.925 31.606-6.407.15-.347.278-.698.396-1.054.08-.1.15-.204.197-.32z"/><path fill="#562F2F" d="M245.156 266.125c9.573 9.1 14.02 21.577 12.292 34.68-.162 1.23 2.768.72 2.906-.33 1.763-13.375-2.74-26.22-12.516-35.515-.783-.746-3.52.367-2.682 1.165zM164.38 270.632c10.912-16.902 48.812 5.615 39.58 23.76-5.957 11.71-24.51 3.53-31.663-2.13-6.123-4.847-11.894-13.81-7.916-21.63.476-.934-1.7-.683-2.023-.05-10.27 20.19 31.426 42.762 43.628 23.858 6.76-10.473-6.594-22.585-14.632-26.94-8.6-4.66-22.885-6.384-28.997 3.083-.55.854 1.64.646 2.025.05z"/><path fill="#562F2F" d="M163.143 272.925c2.15-20.73 25.54-27.45 40.662-14.77 12.74 10.685 11.35 30.798-2.688 39.51-.965.6 1.237.474 1.697.188 17.07-10.594 15.13-35.932-2.983-44.533-16.356-7.768-36.87.92-38.844 19.94-.072.7 2.095.26 2.157-.335zM266.586 329.592c1.8-2.845-1.9-7.21-3.442-9.326-5.036-6.913-11.815-12.983-18.646-18.064-4.424-3.29-10.013-7.882-15.723-8.615-3.607-.464-5.348 2.028-6.983 4.996-6.444 11.7 4.8 25.83 13.81 32.11 5.358 3.733 11.86 5.666 18.36 5.437 5.553-.197 8.582-3.027 12.487-6.37.975-.836-1.183-.93-1.764-.433-1.808 1.548-2.95 3.14-5.172 4.248-2.735 1.366-5.955 1.387-8.918 1.143-6.352-.52-12.28-4.03-17.062-8.02-7.33-6.12-13.068-16.422-10.458-26.12.653-2.428 2.1-3.477 3.388-5.48.8-1.245 5.094 1.127 5.824 1.473 5.38 2.556 10.227 6.4 14.78 10.174 4.46 3.695 8.592 7.805 12.338 12.22 1.66 1.957 6.966 7.648 5.143 10.53-.576.905 1.624.748 2.036.098zM228.333 249.464c1.438.45 13.38 3.235 12.797 5.105-1.327 4.245-2.654 8.49-3.98 12.738l-4.38 14.01c-.24.77.18.505-.15.4l-3.498-1.092-6.675-2.085c-.802-.25-3.42.97-2.33 1.31 3.334 1.042 10.457 4.985 13.976 3.007 1.5-.844 1.643-2.206 2.11-3.703l2.956-9.46 4.868-15.58c.94-3.013-11.5-5.377-13.363-5.96-.803-.25-3.422.97-2.332 1.31z"/><path fill="#562F2F" d="M166.28 262.232c-13.095-6.74-26.19-13.483-39.283-20.225-.852-.438-3.515.79-2.303 1.413 13.094 6.74 26.188 13.483 39.282 20.225.852.438 3.516-.79 2.303-1.413z"/><g><path fill="#562F2F" d="M268.735 308.055l51 27c1.16.614 3.674-.947 2.222-1.717l-51-27c-1.16-.614-3.675.947-2.222 1.717z"/></g><g><path fill="#562F2F" d="M254.366 276.974c5.943 2.318 12.654 3.186 17.456-1.777 5.46-5.644 3.756-15.352 13.86-15.65 5.63-.168 11.346 1.94 16.96.67 5.445-1.232 8.143-5.072 9.36-10.336.333-1.43-2.636-1.083-2.937.215-3.026 13.08-16.292 6.304-25.706 7.5-3.933.5-6.73 2.783-8.83 6.03-1.552 2.4-2.292 5.357-3.446 7.956-2.895 6.517-9.58 5.557-15.05 3.422-1.245-.487-3.39 1.3-1.668 1.972z"/></g><g><path fill="#562F2F" d="M177.97 242.764c.666 1.333 1.332 2.667 2 4 .63 1.263 2.126 1.367 3.38 1.03.706-.188 1.404-.538 1.908-1.078.3-.322.747-1.023.506-1.505l-2-4c-.632-1.262-2.127-1.366-3.382-1.03-.705.19-1.403.54-1.907 1.08-.3.32-.746 1.022-.506 1.504z"/></g><g><path fill="#562F2F" d="M165.508 218.898c2.797 5.39 5.792 10.673 8.588 16.063.7 1.35 6.205-.764 5.796-1.552-2.797-5.39-5.792-10.673-8.588-16.063-.7-1.347-6.204.765-5.796 1.553z"/></g><g><path fill="#562F2F" d="M267.393 247.043c.157-.58.575-1.35.938-1.85.103-.138.646-.72.55-.634.153-.13.312-.253.477-.367-.402.292.378-.142.402-.152-1.403-.34-2.806-.684-4.208-1.026-.017-.173-.02-.12-.008.163.003.257-.024.513-.05.77-.047.442-.125.672-.215.92-.063.156-.13.31-.208.458.188-.388-.163.215-.2.26.376-.458-.424.178.216-.166.127-.07 1.018-.178.343-.148-1.31.057-3.022.958-3.173 2.41-.156 1.502 1.51 2.075 2.71 2.023 4.476-.193 6.75-4.157 6.38-8.243-.053-.59-.76-1.064-1.244-1.247-.995-.376-2.014-.172-2.963.22-2.96 1.223-4.823 4.008-5.634 6.998-.396 1.46 1.698 2.09 2.71 2.022 1.506-.1 2.78-.95 3.177-2.412z"/></g><g><path fill="#FF99AD" d="M89.044 298.892v7.675h7.333v18.99h16.667v2.835l-12.834 17.166H83.544v-16.833h-5v-11.5z"/><path fill="#562F2F" d="M113.552 300.52c0-2.6.525-4.968-1.88-6.59-1.007-.678-3.343-.332-4.44-.332-4.954 0-10.934-.965-15.792.016-5.257 1.06-3.837 6.688-3.837 10.896 0 2.216.85 4.32 3.43 4.32 1.19 0 .57 4.435.57 5.68 0 2.388-1.69 12.795 2.103 13.508 4.95.93 10.464.23 15.49.23 4.386 0 4.356-3.445 4.356-6.796V305.27c0-.372-1.45-.12-1.45.39v19.372c0 3.454-5.363 2.482-7.275 2.482h-7.942c-2.97 0-3.833-1.736-3.833-4.35V308.27c0-.163-.34-.173-.43-.173-4.862 0-3.57-6.17-3.57-9.41 0-5.108 3.692-4.357 7.375-4.357h10.922c1.51 0 2.53-.157 3.922.782 1.356.914.83 4.46.83 5.796 0 .372 1.45.12 1.45-.388z"/><text transform="translate(96.01 302.59)" fill="#562F2F" stroke="#562F2F" stroke-width=".25" stroke-miterlimit="10" font-family="'MicrosoftYaHei'" font-size="6">ctrl</text><path fill="#562F2F" d="M91.603 323.783c0 6.246 7.467 4.413 11.87 4.413 4.363 0 10.08 1.162 10.08-4.802 0-.145-.35-.122-.418-.122h-20.5c-.42 0-1.58.633-.614.633h20.336c-.298 0-.324 1.76-.398 2.185-.295 1.7-2.047 1.474-3.13 1.474h-6.346c-3.962 0-9.43 1.264-9.43-4.17 0-.283-1.45-.06-1.45.39zM92.35 304.598h-3.717c-.262 0-1.03.155-1.03.52 0 1.277.317 2.353 1.41 3.12.89.623 1.98.55 3.01.55.26 0 1.03-.154 1.03-.518v-2.02c0-.517.228-1.453-.42-1.628-.324-.088-.725.024-1.016.172-.132.067-.493.34-.164.428.34.092.15 1.497.15 1.73v1.707c.342-.174.686-.347 1.03-.52-.977 0-1.79-.016-2.595-.668-.857-.695-.987-1.72-.987-2.744l-1.03.52h3.717c.43-.002 1.58-.65.612-.65z"/></g><circle fill="#F9A5F3" cx="398.084" cy="306.82" r="24.319"/><g><path fill="#562F2F" d="M431.688 290.847c2.164 10.755-1.163 21.338-9.253 28.787-9.828 9.05-24.72 8.76-35.32 1.394-20.463-14.223-13.682-46.825 10.016-52.743 1.75-.437 1.36-1.85-.38-1.417-11.852 2.96-20.945 11.533-24.064 23.422-3.417 13.024 3.088 26.473 14.14 33.46 10.488 6.63 24.27 5.455 34.465-1.017 10.91-6.925 15.794-20.242 13.295-32.664-.197-.98-3.106-.258-2.897.777z"/></g></g><image xmlns="http://www.w3.org/2000/svg" overflow="visible" width="495" height="149" xmlns:xlink="http://www.w3.org/1999/xlink" xlink:href="./images/68611709.png" transform="translate(36.473 390.893)"/></g><g opacity=".3" class="p4_bg"><path fill="#85A7A4" d="M-.148 30.38c13.763.225 27.507-.365 41.168-2.09.327-.04.62-.407.114-.343C27.53 29.663 13.85 30.243.148 30.02c-.24-.004-.783.35-.296.36z"/><path fill="#D64E4B" d="M2.19 30.01l5.588.13S5.12 34.335 5.36 36.234c0 0-2.515-3.182-3.17-6.225z"/><path fill="#9A4F9B" d="M11.445 30.082l5.59-.104s-2.478 4.305-2.154 6.19c0 .002-2.65-3.07-3.435-6.086z"/><path fill="#EF8C9C" d="M20.814 29.77l5.582-.31s-2.31 4.395-1.913 6.268c0 0-2.77-2.974-3.67-5.957z"/><path fill="#299FD0" d="M30.068 29.242l5.562-.563s-2.102 4.49-1.62 6.345c0 0-2.904-2.843-3.942-5.783z"/><ellipse fill="#538481" cx="41.077" cy="28.119" rx=".647" ry=".637"/><ellipse fill="#7D9D9A" cx="41.077" cy="28.119" rx=".647" ry=".637"/><path fill="#85A7A4" d="M40.85 28.295c10.57 1.43 21.31 1.908 31.963 2.103.24.004.783-.35.296-.36-10.603-.194-21.286-.67-31.805-2.094-.196-.027-.848.298-.455.35z"/><path fill="#6CB65A" d="M45.957 28.65l5.57.46s-2.91 4.032-2.784 5.94c0 0-2.317-3.32-2.786-6.4z"/><path fill="#EFBA41" d="M55.548 29.33l5.574.46s-2.914 4.032-2.788 5.942c0 0-2.317-3.326-2.786-6.402z"/><path fill="#E2862F" d="M64.996 29.855l5.586.21s-2.72 4.157-2.507 6.06c0 0-2.47-3.217-3.08-6.27z"/><ellipse fill="#7D9D9A" cx="41.077" cy="28.119" rx=".647" ry=".637"/><path fill="#85A7A4" d="M.692 6.22c.237 0 .783-.36.296-.36-.238 0-.783.36-.296.36zM-.658 6.22c.237 0 .783-.36.296-.36-.237 0-.783.36-.296.36z"/><ellipse fill="#538481" cx=".84" cy="6.039" rx=".647" ry=".637"/><ellipse fill="#7D9D9A" cx=".84" cy="6.039" rx=".647" ry=".637"/><path fill="#85A7A4" d="M.61 6.215C24.325 9.43 48.974 9.198 72.668 6.21c.327-.04.62-.407.114-.343C49.208 8.84 24.658 9.063 1.065 5.863c-.195-.026-.847.3-.455.352z"/><ellipse fill="#7D9D9A" cx=".839" cy="6.039" rx=".646" ry=".637"/><path fill="#6CB65A" d="M5.72 6.57l5.57.46s-2.91 4.032-2.786 5.94c0 0-2.318-3.322-2.785-6.4z"/><path fill="#EFBA41" d="M15.31 7.25l5.572.46s-2.912 4.032-2.786 5.942c0 0-2.32-3.326-2.785-6.402z"/><path fill="#E2862F" d="M24.757 7.775l5.588.21s-2.724 4.157-2.51 6.06c0 0-2.47-3.217-3.078-6.27z"/><path fill="#D64E4B" d="M33.838 7.93l5.59.13s-2.657 4.196-2.416 6.095c0 0-2.52-3.182-3.174-6.225z"/><path fill="#9A4F9B" d="M43.094 8.002l5.59-.104s-2.477 4.305-2.153 6.19c0 .002-2.65-3.07-3.436-6.086z"/><path fill="#EF8C9C" d="M52.463 7.69l5.585-.31s-2.313 4.395-1.916 6.268c0 0-2.768-2.974-3.67-5.957z"/><path fill="#299FD0" d="M61.717 7.162L67.28 6.6s-2.104 4.492-1.62 6.346c0 0-2.904-2.844-3.943-5.784z"/></g><g class="p4_girl"><ellipse transform="rotate(-15 512.545 182.242)" fill="#8DD7FC" cx="512.594" cy="182.256" rx="36.906" ry="19.368"/><path fill="#562F2F" d="M498.127 182.03c-4.137-4.482-10.252.885-9.63 5.92.326 2.63 1.812 4.877 4.695 4.668 2.772-.202 4.712-3.127 6.31-5.046.594-.712-.78-.982-1.22-.456-.97 1.165-1.88 2.367-3.026 3.37-2.104 1.838-4.27.86-5.06-1.577-.56-1.726-.323-3.727.64-5.248 1.37-2.16 4.102-3.005 5.967-.983.463.5 1.834-.098 1.324-.65z"/><path fill="#562F2F" d="M499.115 185.717c1.837-.5 5.578-.585 6.212-2.848.19-.682-1.292-.51-1.467.113-.218.777-1.718.996-2.363 1.157-.877.22-1.77.362-2.644.6-.89.243-.63 1.22.262.977z"/><path fill="#562F2F" d="M500.633 181.157c-.778 1.864.192 4.592 1.02 6.277 1.025 2.094 3.028 2.275 4.283.272.434-.694-1.045-.734-1.39-.183-.42.667-.544.714-1.045.11-.473-.572-.748-1.3-.99-1.993-.413-1.18-1-3.073-.486-4.3.326-.782-1.134-.798-1.39-.183zM505.73 183.778c1.404.618 1.717 2.105 1.936 3.48.06.37 1.45.03 1.45-.39-.004-1.38-.62-3.828 1.12-4.405.103-.034.645-.286.418-.466-.237-.188-.698-.03-.94.052-.976.322-1.727.89-2.013 1.906-.296 1.053-.036 2.228-.034 3.3l1.45-.388c-.25-1.558-.655-3.014-2.21-3.697-.344-.15-1.673.39-1.177.608z"/><path fill="#562F2F" d="M509.084 172.747c.752 2.86 1.315 14.665 6.613 12.384.914-.393.1-1.153-.637-.836-2.708 1.166-4.1-10.305-4.527-11.936-.174-.66-1.623-.273-1.45.39zM520.34 175.906c1.77-.517 3.497-1.162 5.266-1.68.84-.246.71-.76-.137-.512-1.77.518-3.498 1.163-5.267 1.68-.84.246-.71.76.137.512z"/><path fill="#562F2F" d="M521.8 172.763l1.565 5.473c.14.482 1.585.086 1.45-.39l-1.567-5.472c-.14-.482-1.585-.086-1.45.39zM529.795 168.127c2.22.14 4.395.604 6.625.594-.218-.1-.435-.202-.652-.304.682 3.22-2.825 5.475-2.718 8.655.01.335.347.49.66.436 1.324-.23 2.63-.553 3.955-.783.762-.133 1.13-1.17.145-.998-1.324.23-2.63.553-3.956.783l.66.435c-.11-3.275 3.425-5.502 2.703-8.916-.06-.282-.43-.306-.652-.305-2.1.01-4.162-.46-6.254-.593-.667-.042-1.498.935-.515.997z"/><g><path fill="#562F2F" d="M547.332 170.81c3.092 14.344-17.41 23.386-27.932 26.53-11.047 3.304-35.958 6.282-40.594-8.686-1.68-5.42 2.237-10.905 5.806-14.527 5.925-6.012 14.17-9.626 22.125-12.006 11.047-3.302 35.96-6.276 40.595 8.69.302.974 3.19.163 2.898-.776-5.048-16.295-31.87-12.567-43.86-9.288-11.437 3.127-33.773 13.32-30.46 28.685 1.394 6.474 8.806 9.472 14.468 10.9 9.55 2.408 20.047.94 29.392-1.613 11.435-3.126 33.772-13.317 30.46-28.683-.206-.956-3.114-.225-2.898.776z"/></g><g><path fill="#F7E0DC" d="M662.693 400.148l15.735 163.143h4.972l-4.142-163.142z"/><path fill="#562F2F" d="M661.606 400.44l14.29 148.162c.48 4.993.963 9.986 1.444 14.98.023.242.493.247.644.247h4.973c.436 0 1.545-.233 1.53-.83-1.26-49.552-2.517-99.104-3.774-148.654l-.368-14.49c-.007-.24-.508-.247-.644-.247h-16.563c-.71 0-2.348 1.077-.887 1.077h15.427c1.428 0 .503.115.493-.24l.13 5.114.82 32.235 2.392 94.255c.268 10.51.534 21.02.8 31.53.512-.275 1.022-.552 1.53-.83h-4.194c-1.207 0-.115.44-.153.05l-.22-2.294c-.346-3.572-.69-7.146-1.035-10.72-1.257-13.035-2.515-26.07-3.77-39.107-2.94-30.457-5.876-60.912-8.814-91.368l-1.876-19.455c-.056-.59-2.243-.14-2.174.582z"/><path fill="#F7E0DC" d="M706.584 400.148L690.848 563.29h-4.967l4.143-163.142z"/><path fill="#562F2F" d="M705.497 400.44L691.207 548.6c-.482 4.993-.965 9.986-1.446 14.98l1.788-.75c-4.06 0-4.61 1.324-4.517-2.346.093-3.6.184-7.2.275-10.8l1-39.363 2.324-91.54.48-18.927-1.788.75h16.56c.475 0 2.483-.918 1.4-.918h-16.56c-.414 0-1.77.146-1.787.75L685.16 549.09l-.367 14.49c-.003.138.32.168.387.168h4.967c.448 0 1.728-.14 1.787-.75l14.29-148.163c.482-4.993.965-9.986 1.446-14.98.032-.325-2.107-.09-2.173.584z"/><path fill="#68312A" d="M565.715 357.514c-.617-.04-.56-.026 0 0z"/><path fill="#562F2F" d="M566.287 356.724l-.44-.023c-1.06-.058-3.103 1.473-1.146 1.58l.442.024c1.058.057 3.102-1.473 1.145-1.58l-.44-.023c-1.06-.058-3.103 1.473-1.146 1.58l.442.024c1.058.057 3.102-1.473 1.145-1.58z"/><path fill="#68312A" d="M864.02 313.637s2.485 72.46-57.554 24.014c0 0-7.867-6.208-5.797-15.73 2.07-9.526-9.524-14.08-12.837-14.08 0 0 14.08-7.452 3.727-19.462 0 0 12.01-8.693-15.732-33.123 0 0-4.14-7.867 6.21-14.078 10.353-6.21 8.694-16.977 2.07-25.262 0 0 14.49-24.844-12.01-46.373 0 0 5.798-17.39-15.735-26.086 0 0-18.217-54.242-81.156-21.945 0 0-68.89 4.968-49.352 58.384 0 0-2.92 3.76-3.814 7.945-6.59 5.853-17.196 10.145-21.68 17.546-8.448 14.402 3.792 18.076 10.247 28.773 4.633 6.866-.086 8.583-3.832 13.58-4.682 5.337-4.86 10.745 2.164 16.532 4.155 3.19 11.55 1.785 14.81 4.873.396.41.695.842.95 1.287-2.628 4.396-4.212 10.473-2.92 18.77 3.74 24.02-7.44 18.222-17.79 23.605-10.354 5.383-3.314 12.838-6.627 15.734-3.314 2.9-15.32 2.073-8.695 16.98 5.674 12.758-19.275 12.17-22.953 11.994.063.006.104.01.178.014 0 0-27.326-1.656-37.263 25.67 0 0-4.967 16.15-29.4 0 0 0 24.014 55.074 66.25 25.26 0 0 28.57-15.322 32.712-42.648 4.143-27.33 16.148-18.22 25.674-18.22 9.52 0 14.908-17.806 12.422-22.358-2.488-4.557 8.28 14.906 33.537-7.04 25.258-21.944 50.518-15.735 50.518-15.735l4.14-6.625s3.73 14.908 22.776 6.213c0 0-10.356 19.875 14.49 20.7 0 0 9.11 6.214 4.142 13.665 0 0 3.31 16.15 16.146 4.557 0 0 2.896 57.555 64.186 32.297 0-.002 34.364-21.534 17.797-59.627z"/><path fill="#562F2F" d="M862.555 313.75c.398 12.324-1.744 31.11-13.724 37.703-13.062 7.19-30.383-6.12-39.986-13.628-2.543-1.988-4.482-4.303-5.857-7.263-2.104-4.534-.008-8.952-.912-13.553-1.104-5.622-8.367-9.926-13.736-10.217l.135 1.89c8.516-4.637 10.54-13.303 4.414-20.942l-.37 1.29c7.245-5.408.57-16.688-3.225-21.784-1.705-2.29-3.653-4.394-5.622-6.456-1.535-1.608-5.592-4.156-6.5-6.15-2.11-4.63.746-9.06 4.378-11.868 3.59-2.773 7.366-4.848 8.696-9.547 1.29-4.558.458-9.312-1.842-13.436-1.62-2.908-3.232-2.827-1.99-5.587 1.104-2.456 1.854-5.07 2.41-7.7 1.788-8.44.11-17-3.972-24.508-1.41-2.595-3.253-4.927-5.172-7.157-.22-.256-5.926-5.973-6.187-5.165.466-1.446.66-2.958.758-4.47.45-7.013-2.9-13.16-8.126-17.627-1.786-1.527-3.91-2.79-6.028-3.792-.306-.144-2.225-.558-2.373-.968-.33-.917-.72-1.814-1.123-2.703-1.65-3.648-3.72-7.097-6.085-10.324-7.48-10.214-18.4-17.06-30.92-19.06-8.825-1.408-17.92-.054-26.436 2.37-5.374 1.528-10.563 3.698-15.605 6.08-1.77.836-2.11 1.246-3.83 1.437-9.402 1.043-18.76 3.487-27.396 7.352-11.502 5.146-21.453 13.848-24.56 26.446-2.01 8.16-.414 16.838 2.205 24.65.475 1.418-.83 2.617-1.718 4.258-1.458 2.698-1.78 4.472-4.378 6.406-4.707 3.505-10.054 6.18-14.378 10.194-6.863 6.37-10.028 15.215-4.005 23.12 2.842 3.73 6.4 6.8 9.096 10.67 2.43 3.485 3.314 6.253.405 9.68-1.787 2.103-3.975 4.04-5.33 6.478-2.212 3.98-2.056 7.535.395 11.366 2.97 4.644 7.68 5.86 12.753 6.656 1.746.274 3.414.61 4.994 1.447 1.98 1.05.487 2.834-.02 3.995-.9 2.054-1.356 4.294-1.696 6.495-1.01 6.533 1.192 13.03.898 19.578-.463 10.305-10.516 9.042-17.64 12.556-4.374 2.157-6.964 5.703-6.744 10.617.073 1.63 1.003 4.38-.576 5.598-1.278.986-3.242 1.37-4.716 1.99-2.453 1.028-5 2.848-5.716 5.554-1.402 5.3 3.015 9.493 2.328 14.512-.964 7.055-16.633 6.46-21.71 6.238-1.366-.06-2.997 1.938-1.007 2.09l.18.014c.335-.696.67-1.394 1.007-2.09-11.06-.605-22.422 4.24-30.18 11.942-3.396 3.373-5.91 7.56-7.883 11.887-.785 1.722-1.225 3.523-2.317 5.086-6.117 8.75-19.287 1.072-25.67-3.03-.688-.444-3.095.017-2.566 1.22 9.39 21.37 30.648 40.92 55.297 32.59 12.14-4.1 24.572-13.728 33.022-23.13 6.624-7.37 11.39-16.255 13.332-25.994 1.733-8.694 3.152-20.993 14.63-19.69 7.48.85 13.296 2.78 18.813-3.867 2.753-3.316 4.297-7.65 5.146-11.82.607-2.978-.187-4.896-.632-7.542l-1.186 1.372c-1.102.397-1.708-.465-.57.478.602.5 1.247.94 1.91 1.354 1.936 1.21 4.106 1.9 6.334 2.326 8.11 1.547 16.25-2.843 22.6-7.364 6.315-4.497 11.688-9.57 18.655-13.184 5.494-2.85 11.495-4.72 17.59-5.73 5.29-.876 11.886-1.128 16.784.04.854.204 1.74-.038 2.222-.81l4.14-6.624c-.945.076-1.89.15-2.834.227 3.04 11.538 16.242 10.403 24.866 6.67-.675-.335-1.35-.67-2.023-1.006-1.745 3.407-2.54 7.433-2.056 11.224.356 2.8 1.958 5.11 4.064 6.888 1.493 1.26 3.442 2 5.27 2.595.827.27 1.74.437 2.587.62 1.046.228 4.267-.072 4.97.425 4.24 2.987 6.548 7.795 3.798 12.614-.65 1.14 1.106 3.98 1.585 4.937 3.833 7.65 11.675 4.904 16.904.434l-2.426-.54c.914 17.167 11.218 35.207 29.055 38.794 8.246 1.658 16.62.63 24.692-1.455 5.533-1.43 11.224-3.048 15.76-6.607 11.378-8.927 19.27-22.123 19.907-36.73.33-7.523-1.622-14.95-4.513-21.832-.54-1.286-3.414-.455-2.897.776 7.596 18.084 4.797 36.674-8.562 51.088-9.544 10.3-24.226 14.215-38.06 13.408-19.593-1.144-31.496-19.82-32.446-37.67-.062-1.17-1.718-1.145-2.426-.54-3.838 3.28-8.237 5.572-11.655.744-1.03-1.453-1.675-3.258-2.073-4.986-.043-.19 1.448-3.77 1.49-4.504.084-1.525-.52-3.27-1.305-4.558-1.206-1.98-2.766-3.754-4.67-5.096-1.068-.753-3.578-.418-4.87-.582-2.563-.325-5.027-1.147-7.213-2.518-2.524-1.584-3.78-4.257-4.147-7.117-.4-3.127.584-6.713 2.007-9.492.64-1.247-1.365-1.29-2.023-1.006-7.435 3.218-18.14 3.93-20.69-5.756-.342-1.3-2.362-.524-2.832.227l-4.14 6.625 2.223-.81c-14.675-3.5-31.04 1.772-43.44 9.42-10.25 6.323-19.4 18.63-32.854 16.668-2.37-.346-4.597-1.438-6.506-2.85-.806-.597-1.553-1.6-2.703-1.185-.602.218-1.312.618-1.185 1.372.36 2.146 1.033 3.694.746 6.073-.578 4.79-2.807 9.654-6.1 13.163-4.708 5.013-13.1.357-19.045 1.07-6.643.795-10.102 7.007-11.71 12.883-1.632 5.964-2.155 12.026-4.408 17.832-2.058 5.3-5.224 10.116-8.79 14.512-8.65 10.667-23.433 21.73-36.936 25.02-16.49 4.02-30.735-7.225-39.902-19.726-2.937-4.004-5.666-8.367-7.668-12.927l-2.567 1.222c7.985 5.133 27.275 13.715 31.902-.67 4.71-14.642 19.827-25.637 35.375-24.787 1.38.076 2.988-1.938 1.008-2.09l-.178-.014-1.008 2.09c7.568.334 18.86.514 24.31-5.71 3.988-4.55-1.51-10.777-1.31-15.76.213-5.372 6.81-5.347 10.11-7.894 1.398-1.078 1.536-2.797 1.444-4.425-.288-5.1-.206-8.194 4.864-11.117 4.187-2.414 9.31-2.374 13.623-4.497 4.326-2.13 5.523-6.66 5.725-11.13.21-4.69-.98-9.304-1.182-13.97-.204-4.723.975-9.364 3.287-13.462.14-.25.11-.57-.057-.797-2.61-3.538-6.7-3.73-10.77-4.41-4.454-.746-7.81-3.5-9.76-7.572-1.944-4.05.973-7.755 3.366-10.753 2.422-3.034 5.346-5.062 5.033-9.256-.348-4.667-5.874-9.553-8.853-12.743-3.248-3.48-6.28-7.028-6.037-12.07.354-7.33 6.86-12.527 12.362-16.307 2.4-1.648 4.872-3.188 7.275-4.83 1.36-.932 4.04-2.32 4.78-3.855 1.266-2.618 1.8-5.1 3.515-7.515.92-1.298-.415-3.22-.84-4.573-4.985-15.853-1.218-31.33 12.476-41.155 9.188-6.593 20.77-9.944 31.838-11.632 1.636-.25 3.46-.202 5.06-.63 2.11-.565 4.28-2.065 6.28-2.978 3.035-1.383 6.154-2.57 9.313-3.634 5.026-1.695 10.23-2.818 15.505-3.35 13.968-1.404 27.38 3.45 37.1 13.534 4.743 4.92 8.716 11 11.115 17.42.615 1.645 3.33 2.088 4.668 2.79 4.504 2.358 8.28 6.02 10.374 10.672 1.653 3.674 2.087 8.714.89 12.432-.136.422-.082.7.266.993 13.008 10.9 20.896 29.425 11.742 45.38-.14.244-.112.576.057.797 3.288 4.308 5.592 9.106 5.06 14.633-.66 6.862-7.615 8.96-11.635 13.42-2.11 2.344-2.873 5.494-2.55 8.556.386 3.652 3.734 5.315 6.2 7.728 5.522 5.406 11.9 12.432 12.792 20.48.236 2.123-.486 5.193-2.047 6.358-.377.282-.723.846-.368 1.29 5.098 6.357 4.362 13.95-3.04 17.98-.878.478-1.22 1.816.137 1.89 3.54.19 7.036 2.293 9.48 4.747 4.087 4.102 1.657 9.218 2.257 14.223.953 7.957 8.8 12.832 14.71 16.935 9.98 6.927 24.224 14.496 36.332 8.355 13.127-6.66 15.804-26.448 15.377-39.62-.048-1.517-2.974-1.057-2.932.225z"/><path fill="#F7E0DC" d="M685.914 283.582s7.236 11.283-6.564 7.97c0 0-10.217-8.833-23.47 14.907 0 0-18.49 32.022-13.52 49.687l85.02-4.695 3.313-1.377s11.873-42.232-9.938-59.35c0 0-7.383-5.8-11.01-.553 0 0-8.314 1.445-3.898-6.59l-14.904-6.385-5.03 6.385z"/><path fill="#562F2F" d="M684.587 284.216c1.166 1.857 3.436 6.48-.265 6.886-3.032.333-4.385-1.142-6.986-1.86-8.48-2.34-15.64 6.02-19.808 12.095-4.644 6.768-8.146 14.534-11.224 22.097-4.1 10.08-8.17 22.182-5.393 33.1.144.558.836.685 1.317.658l74.593-4.12c3.43-.19 6.858-.38 10.287-.567 3.42-.19 4.938-1.918 5.617-4.81 3.467-14.777 4.58-31.876-1.733-46.027-2.624-5.885-7.077-11.393-13.088-13.986-2.855-1.232-5.884-.918-8.343.935-.458.344.5.673-1.303.592-3.37-.152-1.973-3.565-1.028-5.47.256-.518-.08-.925-.544-1.124-4.97-2.128-9.937-4.256-14.904-6.385-.632-.27-1.63.018-2.05.55l-5.03 6.385c-1.137 1.444 1.616 1.854 2.42.833l5.03-6.385-2.05.55 7.006 3c1.683.72 3.365 1.44 5.048 2.162.61.26 1.22.522 1.828.783 1.648.706.19-.104-.143.568-2.31 4.658 1.716 7.665 6.166 6.472 2.865-.768 4.665-2.382 7.58-.905 1.078.546 2.01 1.277 2.94 2.037 4.16 3.405 6.948 8.27 8.83 13.225 3.3 8.69 3.485 18.408 2.758 27.56-.442 5.56-1.352 11.13-2.732 16.535-.34 1.332 1.225-.595-.187-.01-.702.293-2.694.87-1.822.822l-3.516.194-40.848 2.256c-13.507.746-27.012 1.49-40.518 2.237.438.22.877.437 1.316.656-3.042-11.96 2.295-25.315 7.003-36.148 3.668-8.44 8.038-17.46 14.49-24.097 2.836-2.916 6.98-5.467 11.14-4.102 2.36.775 3.777 1.798 6.635 1.787 6.747-.025 7.21-5.4 4.164-10.25-.684-1.09-3.452 0-2.653 1.27z"/><path fill="#F77C72" d="M676.863 289.62s-94.68 133.882-32.018 168.11c0 0 94.127 34.508 142.988-62.936 0 0-59.352-.832-62.387-66.254 0 0-3.314-40.852-11.867-38.922l-5.487-.066s5.486 30.156-17.428 27.12c0 0-17.395-4.42-6.9-24.015l-6.902-3.038z"/><path fill="#562F2F" d="M675.658 289.22c-11.185 15.833-20.985 32.812-29.75 50.08-7.337 14.454-13.785 29.42-18.44 44.963-4.17 13.93-6.918 28.855-4.78 43.387 1.9 12.906 8.98 23.885 20.28 30.476 4.207 2.455 9.974 3.156 14.65 4.085 26.772 5.317 55.31 2.286 79.533-10.625 23.28-12.41 40.286-33.418 52.063-56.643.31-.607-.268-1.156-.87-1.167-21.02-.353-41.764-12.704-52.245-30.718-8.184-14.064-8.3-29.81-10.38-45.423-.996-7.488-2.2-15.165-4.873-22.263-1.885-5.007-3.918-6.736-9.043-6.798l-3.198-.04c-.77-.008-2.145.367-1.96 1.41 1.39 7.82 1.238 19.182-5.92 24.198-4.29 3.01-9.884 2.06-13.887-.716-7.204-4.996-5.087-13.966-1.692-20.62.264-.516-.084-.896-.536-1.095l-6.903-3.04c-1.167-.514-3.365 1.16-1.688 1.9 1.435.63 2.87 1.263 4.305 1.895l2.46 1.083c-1.5-.66-2.472 3.584-2.757 4.398-1.352 3.86-1.7 8.545.304 12.26 2.68 4.963 7.994 7.93 13.582 7.703 14.98-.613 17.786-16.594 15.63-28.745l-1.96 1.41c1.816.02 5.142-.633 6.812.17 2.502 1.2 3.572 5.32 4.358 7.684 2.395 7.21 3.44 14.934 4.387 22.446.75 5.94.962 11.93 1.788 17.856 1.298 9.31 4.297 18.338 9.025 26.464 10.637 18.28 32.15 29.82 53.124 30.613l.245.006-.87-1.167c-10.278 20.27-24.333 38.463-43.45 51.07-14.16 9.334-30.638 14.642-47.446 16.343-12.12 1.227-24.428.48-36.383-1.79-5.495-1.042-11.365-2.072-16.14-5.106-26.96-17.137-18.345-55.37-9.686-80.23 9.406-27.004 23.525-52.51 39.046-76.447 1.848-2.85 3.715-5.694 5.674-8.47 1.06-1.498-1.672-1.845-2.41-.8z"/><path fill="#F7E0DC" stroke="#562F2F" stroke-linecap="round" stroke-linejoin="round" stroke-miterlimit="10" d="M744.4 389.03c0 6.86-5.557 12.42-12.42 12.42-6.86 0-12.424-5.56-12.424-12.42s5.563-12.423 12.424-12.423c6.864 0 12.42 5.563 12.42 12.424z"/><path fill="#562F2F" d="M725.286 383.03c-.212 4.587.783 9.17.775 13.758 0 .4.737.307.737-.045.008-4.586-.986-9.176-.775-13.758.02-.398-.72-.307-.736.045zM726.592 383.27c1.85-.006 3.715-.072 4.42 1.986.777 2.27-1.866 3.575-3.71 3.754-.4.04-.56.57-.065.523 2.01-.193 4.677-1.37 4.64-3.73-.046-2.932-3.055-3.064-5.218-3.057-.414 0-.56.525-.068.524zM738.22 386.593c-1.883-.533-3.99-.49-3.575 2.194.28 1.82 2.614.61 3.166 2.05.342.892-.06 1.976-.558 2.716-.528.784-2.27 1.08-3.03.543-.47-.333-.383-1.397-.387-1.886 0-.18-.727-.055-.725.193.012 1.493.327 2.338 1.892 2.316 1.104-.017 2.183-.347 2.916-1.184.854-.976 1.102-2.965-.03-3.79-.835-.612-2.006.25-2.52-1.153-.216-.594.027-1.296.33-1.804.33-.556 1.5-.004 1.937.12.195.057.845-.244.586-.317z"/><path fill="#DD6862" d="M675.252 308.36s13.252 26.5 34.785 1.933c0 0-19.74 33.125-35.47-1.932M628.467 412.568s1.656 50.516 48.86 46.102c0 0-41.964-3.04-48.86-46.102zM744.953 385.793s17.947 14.904 32.576 14.355c0 0-20.706 43.06-45.55 46.098 0 0 53.278-27.328 12.973-60.453zM687.72 361.225s-.18 88.61 30.458 88.61c0 0-39.813 3.313-30.46-88.61z"/><path fill="#F7E0DC" d="M729.84 199.297c.422-.37.84-.76 1.266-1.186 14.906-14.907-1.266 1.187-1.266 1.187z"/><path fill="#562F2F" d="M730.995 199.512c2.062-1.823 3.946-3.866 5.89-5.814l1.308-1.314c.176-.178.433-.382.57-.59.283-.43-.052-.673-.452-.778-.735-.195-1.65.157-2.186.68l-.555.547c-.658.65-1.314 1.3-1.97 1.952-1.436 1.425-2.87 2.852-4.304 4.278l-.612.61c-.413.41-.368.86.262.978.64.12 1.575-.075 2.05-.548 2.373-2.362 4.743-4.728 7.127-7.08.144-.14.285-.32.45-.437l-2.05.55-.45-.78c.1-.15.24-.25.09-.097l-.31.313c-.426.43-.854.86-1.28 1.287-1.942 1.95-3.828 3.99-5.89 5.814-.448.398-.34.87.263.98.67.126 1.535-.093 2.05-.548z"/><path fill="#F7E0DC" d="M754.293 208.05c-14.488 7.038-24.45-8.75-24.45-8.75-14.34 12.64-26.064-5.33-26.064-5.33-38.507 43.064-66.25 0-66.25 0-3.08 4.476-5.397 8.944-7.14 13.33-2.316-.99-3.926-2.04-7.447-2.04-3.313 0-6.35-.273-9.11 1.652-4.415 2.764-6.073 14.082-2.21 17.945 1.664 1.873 9.438 2.96 14.352 2.438-.996 17.564 5.342 30.44 5.342 30.44 19.463 28.16 53.002 25.677 53.002 25.677 74.534 8.693 70.802-54.658 70.802-54.658 9.113 1.654 11.594-4.97 11.594-4.97 8.28-19.464-12.423-15.735-12.423-15.735z"/><path fill="#562F2F" d="M753.68 207.305c-8.807 3.903-17.628-1.038-22.503-8.614-.42-.648-1.797-.344-2.27.046-8.606 7.11-18.158 3.104-23.793-5.374-.506-.76-2.05-.26-2.526.26-12.343 13.533-29.232 24.038-47.22 14.74-6.482-3.353-12.51-8.857-16.504-15-.577-.89-2.272-.147-2.705.5-2.83 4.226-5.205 8.623-7.14 13.327.834-.225 1.668-.448 2.503-.67-9-4.003-20.26-3.48-23.055 7.377-.89 3.457-1.013 9.19 2.02 11.737 3.762 3.155 10.74 2.958 15.327 2.61l-1.302-.81c-.433 10.053.974 20.254 4.857 29.582 3.206 7.7 11.982 14.186 18.91 18.37 10.37 6.262 23.69 9.747 35.855 8.976 5-.317 10.387.87 15.476.796 4.873-.07 9.715-.634 14.494-1.562 7.354-1.428 14.432-4.284 20.64-8.48 9.62-6.5 15.987-16.583 19.282-27.57 1.827-6.097 2.902-12.794 2.543-19.183l-1.98 1.342c9.754 1.324 18.11-6.96 15.068-17.147-1.763-5.904-10.243-6.322-15.21-5.462-1.487.258-2.292 2.243-.315 1.9 3.588-.622 8.11-.547 11.01 1.912 3.043 2.578 2.074 7.158 1.083 10.445-1.526 5.064-5.05 7.194-10.578 6.444-.804-.11-2.03.41-1.978 1.342.982 17.454-7.645 36.7-22.918 46.23-7.722 4.82-16.85 6.883-25.818 7.643-7.613.645-15.088-.466-22.664-.505-18.478-.096-36.33-8.378-47.813-22.906-6.635-8.394-7.458-22.37-7.023-32.45.03-.706-.742-.853-1.302-.81-3.844.293-7.7-.023-11.398-1.138-3.424-1.032-3.828-5.136-3.802-8.14.027-3.017.945-6.27 2.79-8.67 3.264-4.242 11.585-2.075 15.535-.32.725.323 2.146.2 2.503-.67 1.935-4.704 4.31-9.1 7.14-13.327l-2.706.5c4.744 7.295 12.327 13.76 20.395 16.973 18.668 7.434 35.99-3.65 48.38-17.234l-2.525.26c6.74 10.138 18.627 13.3 28.332 5.284l-2.27.045c5.823 9.05 16.35 13.34 26.398 8.886 1.83-.81.183-2.108-1.224-1.485z"/><path fill="#F77C72" d="M584.783 347.347c-3.268-.135-5.955.555-6.162 4.27-.21 3.788 6.434 4.53 8.825 4.946 2.728.476 5.755.34 8.462-.106 1.38-.228 9.477-3.657 5.634-.153-3.114 2.84-8.808 2.385-12.625 1.878-2.098-.28-4.03-1.062-5.868-2.076-.043-.024-3.193-2.147-2.856-2.32 1.756-.9.186-2.592-1.313-1.823-4.472 2.295.732 5.492 3.45 6.698 5.71 2.534 12.77 2.945 18.61.603 1.486-.597 8.185-5.59 4.152-7.137-1.99-.764-4.278.104-6.13.827-2.648 1.035-4.744 1.56-7.557 1.603-1.996.014-3.952-.264-5.865-.834-.112-.03-.225-.058-.337-.086-2.328-.042-2.793-1.4-1.394-4.078 1.468.058 2.933-2.13.977-2.21zM804.197 324.008c2.967 7.956.176 13.545-5.854 18.846-3.02 2.655-6.903 5.267-11.03 5.518-2.667.163-4.466-.515-5.4-3.104-.682-1.894 2.428-1.545 3.182-1.738 7.152-1.838 18.152-5.017 17.694-14.16-.043-.836-2.95-.268-2.9.778.49 9.77-11.727 10.454-18.452 12.257-1.972.528-2.55 1.728-2.42 3.64.197 2.92 3.278 3.63 5.566 3.83 6.102.53 11.525-2.948 16.06-6.637 6.534-5.316 9.508-11.807 6.452-20.006-.352-.945-3.217-.08-2.9.776z"/><path fill="#562F2F" d="M638.987 227.015c8.653 12.01 27.368 9.817 37.705 1.333 1.293-1.06-1.6-1.084-2.326-.488-9.304 7.635-25.142 8.492-32.69-1.983-.58-.807-3.383.174-2.69 1.138z"/><g><path fill="#562F2F" d="M702.85 228.453c4.17 1.58 7.224 4.653 11.61 5.835 3.632.98 7.78 1.082 11.518.74 5.524-.508 11.937-3.27 13.88-8.834.552-1.58-2.348-1.535-2.77-.326-2.282 6.538-10.2 7.34-16.12 7.097-3.577-.146-7.015-.934-10.08-2.82-2.13-1.31-4.006-2.744-6.362-3.637-1.226-.465-3.397 1.293-1.676 1.945z"/></g><g><path fill="#562F2F" d="M643.78 230.166c-1.647.39-3.302 1.098-5.024.98-.71-.047-1.563.195-1.882.906-.287.64.258 1.24.9 1.285 2.307.156 4.355-.566 6.565-1.09.596-.14 1.357-.725 1.17-1.428-.196-.73-1.13-.795-1.73-.654z"/></g><g><path fill="#562F2F" d="M649.414 233.632c-1.73.774-3.43 1.6-5.29 2.006-.298.065-1.438.43-1.306.924.138.512 1.293.213 1.593.147 2.358-.516 4.525-1.566 6.715-2.545.303-.136.956-.676.323-.872-.66-.205-1.438.072-2.034.34z"/></g><g><path fill="#562F2F" d="M652.53 236.077c.002 1.27.032 2.54.228 3.8.21 1.352 3.115.62 2.898-.777-.168-1.076-.188-2.152-.188-3.24 0-1.53-2.937-1.097-2.937.217z"/></g><g><path fill="#562F2F" d="M661.946 236.83c1.677-.284 2.75.664 3.562 2.06.66 1.136 3.422.042 2.652-1.282-1.25-2.15-3.467-3.34-5.962-2.915-.64.11-1.504.408-1.595 1.177-.08.69.766 1.06 1.343.96z"/></g><g><path fill="#562F2F" d="M668.457 233.503c2.854-.312 4.842.47 6.96 2.366.643.576 3.3-.52 2.714-1.044-2.782-2.495-5.545-2.996-9.188-2.6-1.272.14-2.516 1.5-.485 1.277z"/></g><g><path fill="#562F2F" d="M707.244 230.15c-1.82.51-3.216 1.712-4.938 2.404-.28.113-1.26.628-.8 1.062.454.427 1.413.168 1.903-.03 1.437-.576 2.693-1.733 4.178-2.15.36-.1 1.43-.464 1.277-1.03-.15-.563-1.26-.357-1.62-.256z"/></g><g><path fill="#562F2F" d="M711.19 233.49c-.408 1.504-.62 3.053-1.03 4.556-.458 1.673 2.424 1.742 2.79.405.41-1.503.622-3.052 1.03-4.556.456-1.673-2.426-1.742-2.79-.405z"/></g><g><path fill="#562F2F" d="M717.766 235.736c.227.83.67 1.55 1.138 2.26.35.53 1.49.244 1.925.057.454-.195 1.124-.658.76-1.21-.395-.6-.734-1.185-.925-1.883-.29-1.064-3.188-.284-2.9.776z"/></g><g><path fill="#562F2F" d="M725.96 235.158c.633.632 1.24 1.27 1.657 2.07.33.633 1.477.453 1.968.216.603-.29 1.02-.852.685-1.494-.417-.8-1.023-1.438-1.656-2.07-.525-.526-1.317-.53-1.968-.216-.44.212-1.212.967-.685 1.494z"/></g><g><path fill="#562F2F" d="M734.06 231.994c2.72.393 5.444.45 8.19.45.653 0 1.516-.215 1.91-.79.39-.564-.325-.852-.784-.852-2.523 0-5.04-.02-7.54-.38-.702-.102-1.51.068-2.05.548-.435.385-.347.934.274 1.024z"/></g><path fill="#F9B2B2" stroke="#562F2F" stroke-miterlimit="10" d="M662.072 255.844s34.576 14.285 59.006-2.07c0 0 1.86 26.297-27.744 25.258 0 0-31.03-1.48-31.262-23.188z"/><path fill="#F9B2B2" stroke="#562F2F" stroke-miterlimit="10" d="M669.54 270.928s13.534-6.65 22.046 0c0 0 14.258-5.3 21.715 2.346"/></g><g><path fill="#D3C3C1" d="M682.773 563.912c-5.59-1.04-8.695-5.8-15.316-4.143-5.59 1.45-9.314 10.558-4.143 14.286 3.52 2.484 10.56 1.656 14.283 0 2.486-.832 5.176-1.867 6.008-4.352.62-2.068 0-4.97 0-7.037v-2.277"/><path fill="#562F2F" d="M683.02 563.368c-6.19-1.432-10.858-6.575-17.503-3.394-3.9 1.868-7.134 8.4-4.614 12.41 3.25 5.17 11.023 4.183 15.987 2.53 2.6-.865 5.117-1.81 6.86-4.002 1.955-2.455.59-7.787.59-10.572 0-.782-1.47-.58-1.47.1 0 1.578.023 3.134.148 4.706.38 4.76-1.468 6.737-5.747 8.464-4.817 1.943-13.756 3.11-15.553-3.35-1.647-5.923 4.61-10.796 9.894-10.145 3.853.475 7.113 3.46 10.917 4.34.734.17 1.448-.866.493-1.087z"/><path fill="#D3C3C1" d="M686.3 563.705c1.24 5.38 3.103 9.314 9.106 10.352 4.555.826 10.766 1.445 11.592-3.938.832-5.796-1.865-8.487-7.246-8.694-4.14-.205-10.973-.828-12.21 4.35"/><path fill="#562F2F" d="M685.574 563.9c1.477 6.05 4.18 9.768 10.518 10.862 4.64.802 10.353.783 11.642-4.693 1.446-6.146-3.226-8.956-8.54-9.23-4.597-.24-10.63-.41-12.348 4.842-.267.813 1.182.828 1.39.188 1.473-4.498 6.62-4.13 10.465-3.94 4.705.234 7.815 2.027 7.683 7.122-.172 6.607-8.466 5.253-12.75 3.937-4.205-1.293-5.676-5.652-6.608-9.478-.172-.7-1.622-.315-1.45.387z"/><path fill="#B59C9C" d="M663.04 566.67s9.663 7.723 18.495 1.275c0 0-1.863 7.697-14.564 5.143 0 0-4.28-.965-3.93-6.418zM689.402 567.018s8.76 7.656 15.594 2.688c0 0-1.932 5.52-9.383 2.9 0 0-5.316-.76-6.21-5.588z"/></g></g><g class="p4_paper"><path fill="#F7E0DC" d="M928.496 83.186c-3.615 13.744-27.78 19.305-53.975 12.418-26.194-6.89-44.497-23.617-40.882-37.365 3.615-13.747 27.78-19.308 53.975-12.42 26.194 6.89 44.496 23.618 40.883 37.366z"/><path fill="#562F2F" d="M930.742 81.15c-2.787 9.288-12.97 12.575-21.618 13.854-12.088 1.79-24.78-.46-36.26-4.273-13.32-4.423-38.155-17.088-34.087-34.917 2.125-9.31 13.483-12.653 21.618-13.856 12.088-1.788 24.78.462 36.26 4.274 13.322 4.425 38.156 17.09 34.087 34.92-.232 1.017 2.677.547 2.89-.39 1.898-8.314-3.172-15.663-8.89-21.182-8.34-8.048-19.828-13.275-30.878-16.29-12.07-3.29-24.798-4.617-37.147-2.13-7.618 1.535-15.883 5.042-19.736 12.204-3.784 7.035-.127 14.87 4.44 20.487 7.246 8.916 18.52 14.496 29.127 18.234 17.27 6.087 45.855 10.035 59.875-5.32 1.553-1.7 2.557-3.822 3.212-6.004.287-.96-2.612-.544-2.892.39z"/><path fill="#562F2F" d="M863.982 52.28c-7.68-2.106-15.68 2.442-15.7 11.134-.022 8.824 9.776 10.655 15.72 5.976.91-.717-1.265-.502-1.69-.166-5.192 4.086-11.328.43-11.86-5.573-.234-2.665 1.044-5.728 2.504-7.886 2.178-3.22 5.777-3.523 9.262-2.568.552.152 2.494-.716 1.764-.915zM865.87 64.302c2.047.534 4.094 1.066 6.14 1.598.523.136 1.162-.012 1.538-.412.326-.346.226-.825-.254-.95-2.048-.532-4.095-1.064-6.14-1.598-.523-.136-1.162.012-1.538.412-.326.346-.224.825.254.95z"/><path fill="#562F2F" d="M870.83 61.352c-3.068 2.867-4.646 7.917.302 9.72.598.218 2.192-.672 2.053-.723-4.666-1.702-3.347-6.438-.395-9.195.43-.4-1.593-.144-1.96.197zM874.935 65.764c.327 1.424.875 2.77 1.428 4.12.21.508 2.096.016 2.16-.473.147-1.077.536-2.575 1.85-2.464.507.043 1.115-.127 1.536-.412.353-.24.273-.496-.144-.53-2.62-.223-5.02 1.027-5.39 3.77l2.16-.473c-.553-1.347-1.102-2.695-1.428-4.118-.122-.53-2.302.017-2.173.582zM884.408 55.568c-.544 5.847-3.088 14.84 4.606 16.91.778.21 2.57-.943 1.303-1.284-6.874-1.85-4.2-10.757-3.726-15.86.093-.975-2.106-.588-2.182.234zM893.89 65.54c2.9.4 5.774 1.024 8.636 1.625.62.13 2.553-.84 1.355-1.092-2.86-.6-5.736-1.226-8.634-1.625-.615-.084-2.55.927-1.355 1.092z"/><path fill="#562F2F" d="M898.94 63.49c-.455 1.754-.91 3.51-1.37 5.265-.1.388 2.006.107 2.14-.404l1.37-5.265c.1-.39-2.007-.106-2.14.404zM920.27 65.7c-1.768-1.593-4.65-1.757-6.304.11-.788.89-.76 2.518-.082 3.445.905 1.236 2.385 1.834 3.512 2.835 1.47 1.304 1.568 4.957-1.03 4.65-1.552-.185-3.835-1.418-3.278-3.293.212-.715-1.96-.4-2.168.294-.524 1.77 1.004 3.05 2.47 3.68 1.81.776 4.21.732 5.842-.445 2.02-1.458 1.657-4.41-.057-5.933-1.145-1.017-2.814-1.544-3.465-3.032-.222-.507-.26-2.157.47-2.4.672-.226 1.623.518 2.068.92.54.488 2.568-.34 2.023-.83z"/><g><path fill="#66BAED" d="M101.786 54.79H358.59v93.81H101.786z"/><g fill="none" stroke="#562F2F" stroke-width="2" stroke-miterlimit="10"><path d="M356.394 143.004v2.5h-2.5"/><path stroke-dasharray="4.9373,4.9373" d="M348.956 145.504H104.56"/><path d="M102.09 145.504h-2.5v-2.5"/><path stroke-dasharray="5.224,5.224" d="M99.59 137.78V56.807"/><path d="M99.59 54.195v-2.5h2.5"/><path stroke-dasharray="4.9373,4.9373" d="M107.027 51.695h244.398"/><path d="M353.894 51.695h2.5v2.5"/><path stroke-dasharray="5.224,5.224" d="M356.394 59.42v80.972"/></g><path fill="#FFF" stroke="#562F2F" stroke-width=".5" stroke-miterlimit="10" d="M334.762 60.635h13.166V73.8h-13.166z"/><path fill="#562F2F" d="M335.286 62.98c4.437 2.273 6.976 6.645 10.935 9.522.355.258 1.636-.316 1.36-.518-3.96-2.878-6.5-7.25-10.936-9.523-.398-.203-1.605.393-1.358.52z"/><path fill="#562F2F" d="M346.776 61.843c-4.996 2.115-7.987 6.577-11.754 10.245-.627.61.795.69 1.182.313 3.573-3.478 6.43-7.853 11.172-9.86.925-.392.09-.99-.6-.697z"/><path fill="#FFF" stroke="#562F2F" stroke-width=".5" stroke-miterlimit="10" d="M176.04 73.8h-72.254V54.753h72.253v19.05z"/><path fill="#FFF" stroke="#562F2F" stroke-width="2" stroke-miterlimit="10" d="M107.12 150.967H92.06v-15.063h15.062v15.063zm0-59.9H92.06v15.064h15.062V91.07zm128.403-46.903H220.46v15.063h15.063V44.164zm0 91.74H220.46v15.063h15.063v-15.063zm0-44.836H220.46v15.063h15.063V91.07zm128.402-46.904h-15.062v15.063h15.062V44.164zm0 91.74h-15.062v15.063h15.062v-15.063zm0-44.836h-15.062v15.063h15.062V91.07zM107.12 44.164H92.06v15.063h15.062V44.164z"/><text transform="translate(116.313 67.48)" fill="#562F2F" font-family="'HeitiCSEG-Medium-GB'" font-size="11.391">16-面板17</text></g></g><g class="p4_bot"><path fill="#66B1E0" d="M-4 621.535h991.512v22.824H-4z"/><path fill="#552F2E" d="M987.646 643.322H-3.868l1.332.92v-22.824l-1.6 1.154H987.376c-.444-.307-.888-.613-1.33-.92v22.824c0 1.497 2.93 1.036 2.93-.234v-22.824c0-.755-.702-.92-1.33-.92H-3.868c-.554 0-1.6.477-1.6 1.154v22.824c0 .755.703.92 1.33.92h991.514c1.64 0 2.24-2.074.27-2.074z"/></g><g class="p4_tree"><path fill="#68312A" d="M843.523 576.21v-24.675s-9.158-27.256-34.07-32.896c0 0 15.506-3.763 34.07 22.087 0 0 7.756-30.54-24.672-49.813 0 0 23.03 7.986 32.9 37.123l3.76-77.543 3.29 79.426s8.457-42.766 39.943-46.055c0 0-34.305 9.4-31.955 60.623 0 0 16.445-31.488 46.525-32.898 0 0-39.48 12.22-45.586 46.057v28.668s2.146 35.848 40.418 35.717H806.162s37.36-21.15 37.36-45.823"/><path fill="#562F2F" d="M844.99 576.1v-17.095c0-3.593.462-6.875-.932-10.188-6.166-14.66-17.985-27.3-33.77-31.157l-.57 1.975c2.284-.522 6.322.396 8.972 1.333 9.92 3.51 17.48 12.177 23.507 20.397.716.978 2.54.276 2.794-.748 5.073-20.465-8.24-40.294-25.022-50.54l-1.952 1.815c15.72 5.557 27.01 21.507 32.287 36.533.42 1.192 2.858.72 2.917-.498l3.76-77.543-2.936.22c1.096 26.475 2.192 52.95 3.29 79.425.063 1.562 2.682 1.04 2.935-.22 3.924-19.544 16.798-42.272 38.347-44.882l-.14-2.06c-25.763 7.2-34.052 38.482-33.155 61.73.058 1.494 2.342 1.03 2.854.058 8.774-16.65 25.838-30.81 45.012-32.003l-.14-2.06c-10.423 3.263-20.382 9.267-28.568 16.404-6.87 5.99-12.36 13.405-15.738 21.887-2.512 6.31-2.48 11.782-2.48 18.402 0 8.692-.955 17.7 1.253 26.204 3.538 13.623 13.28 24.178 26.932 27.984 4.418 1.232 9.008 1.58 13.574 1.62l.257-2.128H806.293l.515 1.92c16.448-9.364 37.728-26.164 38.183-46.786.035-1.523-2.906-1.092-2.935.22-.436 19.71-20.747 35.865-36.536 44.854-1.236.703-.897 1.92.514 1.92h101.984c1.66 0 2.22-2.11.256-2.126-17.227-.146-31.306-8.89-36.988-25.347-2.805-8.12-2.09-15.074-2.09-23.75 0-5.042-.716-10.65.252-15.624 1.95-10.022 7.657-18.824 14.81-25.928 7.935-7.88 18.604-14.377 29.323-17.732 1.41-.44 1.605-2.168-.138-2.06-20.432 1.272-38.674 16.023-48.04 33.794l2.855.06c-.67-17.384 2.477-35.48 14.575-48.697 4.21-4.6 10.05-9.108 16.18-10.82 1.415-.397 1.587-2.27-.14-2.06-23.204 2.81-37.274 25.986-41.54 47.227l2.937-.22-3.29-79.425c-.063-1.517-2.872-1.1-2.936.22l-3.76 77.542 2.917-.498c-5.492-15.64-17.2-31.947-33.513-37.714-.934-.33-3.355.96-1.952 1.816 16.347 9.98 29.26 29.156 24.32 49.084.93-.25 1.862-.5 2.794-.748-7.256-9.898-21.245-25.746-35.664-22.445-.818.188-1.928 1.643-.57 1.975 15.535 3.798 26.95 16.333 32.878 30.78 1.095 2.667.562 6.337.562 9.746v16.175c0 1.525 2.935 1.086 2.935-.22z"/><path fill="#66BAED" d="M914.135 517.293s-5.283-13.04 11.87-18.328c0 0 5.99-1.764 5.99-4.463 0 0 7.052 17.62-7.167 25.965 0 0-6.58 3.17-10.693-3.174zM801.582 473.01c-15.037 1.19-18.916-4.828-18.916-4.828-3.877 18.21 6.46 26.79 6.46 26.79 17.624 14.095 27.73 0 27.73 0-.585-2.59-.237-23.146-15.274-21.962zm-7.035 32.95l-19.738.94 4.698 9.047c11.398 17.738 23.85 4.113 23.85 4.113 3.994-11.865-8.81-14.1-8.81-14.1zm19.016 23.005s-12.426-1.637-16.28 18.1c0 0 23.847-3.29 16.28-17.62m51.638-65.61c3.17-11.808-13.878-24.497-13.878-24.497.395 1.764-1.982 6.7-1.982 6.7-9.342 23.614 6.865 26.253 6.865 26.253 7.045-.18 8.996-8.454 8.996-8.454z"/><g fill="#562F2F"><path d="M915.584 516.904c-1.502-3.85-.737-8.197 1.592-11.522 2.493-3.56 6.85-4.8 10.707-6.23 2.3-.854 5.01-2.24 5.565-4.82-.967.188-1.935.373-2.9.56 1.42 3.644 1.906 7.717 1.66 11.595-.506 7.93-9.445 19.92-16.73 10.23-.628-.835-3.423.176-2.685 1.157 5.65 7.52 14.326 3.78 19.087-2.488 4.39-5.78 4.102-14.77 1.565-21.27-.4-1.022-2.704-.36-2.9.558-.703 3.27-8.192 4.704-10.748 6.05-2.855 1.506-5.22 3.91-6.67 6.776-1.512 2.99-1.664 7.047-.44 10.184.416 1.065 3.282.208 2.897-.78zM801.77 472.164c-5.22.324-14.286.543-17.762-4.562-.528-.777-2.633-.09-2.794.75-1.776 9.248-.832 19.787 6.134 26.793 6.65 6.69 17.114 8.944 25.46 4.512 2.056-1.092 3.964-2.75 5.38-4.598.887-1.16-.543-6.275-.76-7.585-1.448-8.71-6.127-15.724-15.66-15.31-1.475.062-2.37 1.777-.372 1.69 8.825-.382 12.044 7.835 13.262 15.168.84 5.057 1.44 6.385-2.997 9.297-7.234 4.746-17.574.48-22.745-5.554-5.827-6.803-6.413-16.338-4.796-24.755l-2.795.75c3.904 5.737 14.237 5.458 20.07 5.095 1.47-.09 2.376-1.816.374-1.69zM794.733 505.115l-19.738.94c-.384.017-1.987.556-1.636 1.233 2.87 5.524 5.228 11.103 10.012 15.297 4.67 4.095 11.362 4.188 16.604 1.186 4.593-2.63 6.804-5.906 5.064-11.514-1.22-3.932-5.81-6.403-9.615-7.115-.973-.18-3.43 1.327-1.758 1.64 7.176 1.342 12.95 10.4 5.726 15.313-11.533 7.843-18.818-7.27-23.136-15.58l-1.636 1.233 19.74-.94c1.475-.07 2.372-1.786.373-1.69zM814.115 528.104c-10.668-1.285-16.51 10.62-18.286 19.13-.138.656.852.735 1.265.677 9.29-1.314 23.757-7.106 17.917-18.854-.52-1.044-3.348-.127-2.898.777 5.08 10.217-6.22 15.192-14.646 16.387l1.266.676c1.352-6.48 5.535-18.122 14.276-17.068 1.166.14 3.057-1.49 1.105-1.724zM866.653 463.666c2.145-9.95-6.647-19.378-13.99-24.907-.75-.567-2.852-.222-2.79.967.163 3.142-2.122 6.713-3.127 9.64-1.258 3.666-1.88 7.504-1.708 11.37.2 4.492 2.53 8.444 6.308 10.807 6.455 4.036 13.59-1.09 15.307-7.878.285-1.128-2.643-.693-2.904.34-.7 2.763-3.534 8.206-7.054 7.383-2.31-.54-4.324-1.956-5.882-3.702-3.47-3.89-3.207-9.643-2.31-14.404.867-4.612 4.51-9.6 4.267-14.334l-2.79.968c7.103 5.35 15.842 14.468 13.77 24.09-.25 1.155 2.68.696 2.903-.342z"/></g><g><path fill="#FFF" d="M894.457 488.426s-4.242-8.01 13.38-13.063c0 0 2.706-.826 3.646-2.354 0 0 4.287 14.272-7.756 19.624-2.33 1.032-7.147 2.16-9.27-4.208zm-61.975-10.367c-11.045 13.63-7.623 17.44-3.057 18.68 14.233 3.867 3.057-18.68 3.057-18.68zm-6.464 25.493s-10.688-4.586-16.328 9.398c0 0 17.853 4.466 16.328-9.397zm57.337 1.056s5.523 15.04 21.62 4.347c0 0-8.93-11.396-21.62-4.348zm-7.17-29.255s-12 15.637 5.163 20.39c0 0 8.705-9.112-5.162-20.39zm26.32 53.108s-.114 14.607 16.567 9.535c0 0-2.113-14.234-16.566-9.535z"/><g fill="#562F2F"><path d="M895.544 488.135c-.98-1.935-.232-4.198.92-5.858 3.84-5.538 11.934-4.378 16.035-9.226-.702.084-1.403.168-2.105.25.92 3.16.943 6.602.282 9.804-1.422 6.884-11.464 14.52-15.133 5.03-.31-.802-2.46-.16-2.174.583 3.155 8.16 11.86 5.543 16.56.158 3.68-4.218 4.16-10.94 2.64-16.156-.247-.85-1.77-.144-2.104.25-2.27 2.684-7.22 3.052-10.27 4.685-2.368 1.268-4.536 2.765-6.082 4.995-1.14 1.643-1.69 4.2-.744 6.067.397.782 2.515.092 2.174-.582zM831.466 478.018c-2.907 3.647-9.77 11.33-6.818 16.647 1.656 2.984 6.778 3.73 9.705 2.792 7.404-2.37 1.344-15.368-.783-19.69-.387-.785-2.51-.1-2.174.583 2.165 4.397 5.896 12.047 3.598 16.883-1.548 3.256-7.74.493-8.63-2.197-1.625-4.92 4.454-11.57 7.136-14.936.63-.79-1.573-.66-2.034-.082zM826.878 503.01c-8.153-3.397-15.262 2.98-18.277 10.068-.11.263.246.443.432.488 8.162 2 18.975.22 18.073-10.305-.065-.766-2.248-.286-2.174.583.376 4.376-1.208 7.812-5.68 8.854-2.646.616-5.605.3-8.246-.218-.193-.04-.387-.082-.58-.126.58.134 2.15-3.084 2.543-3.692 1.39-2.16 3.44-3.957 5.894-4.77 1.935-.644 4.397-.587 6.298.205.685.285 2.66-.697 1.72-1.088zM882.27 504.9c4.02 10.617 15.31 9.536 23.388 4.41.253-.16.567-.485.324-.788-5.715-7.128-15.178-8.44-23.064-4.395-1.336.686-.108 1.468.877.963 5.634-2.89 11.145-2.592 16.365.85 1.232.813 2.34 1.838 3.345 2.914.15.16.294.33.435.5-.38-.46-5 2.018-5.815 2.28-5.844 1.878-11.608-1.848-13.68-7.316-.307-.803-2.46-.166-2.176.582zM875.17 475.314c-2.08 2.745-3.593 6.122-4.075 9.53-.897 6.35 4.174 9.873 9.595 11.517.463.142 1.206-.055 1.536-.41 6.484-6.99.9-15.988-5.033-21.03-.613-.52-2.646.333-2.014.87 4.505 3.828 8.678 8.8 7.537 15.087-.26 1.43-.91 2.768-1.71 3.966-.156.233-.328.466-.515.675.508-.57-3.99-2.967-4.38-3.278-5.363-4.295-2.327-12.33 1.09-16.843.616-.815-1.585-.674-2.033-.083zM901.417 528.59c0 2.675.892 5.368 2.495 7.503 3.552 4.73 10.362 3.905 15.315 2.484.37-.105 1.008-.382.932-.87-.427-2.725-1.768-5.392-3.596-7.433-3.646-4.072-9.407-3.845-14.214-2.39-1.29.39-.995 1.553.31 1.157 5.12-1.548 9.944-.91 13.11 3.647 1.12 1.61 1.91 3.657 2.215 5.6l.932-.87c-5.048 1.448-10.657 1.683-13.72-3.26-1.013-1.634-1.603-4.022-1.603-5.822.002-.953-2.177-.502-2.177.255z"/></g></g></g><path id="p4_chip1" fill="#562F2F" d="M31.03 558.443l-1.81-1.814 4.556-4.544c-1.008-1.813-.705-4.104.787-5.592.885-.883 2.06-1.367 3.31-1.367 1.255 0 2.433.488 3.32 1.377 1.823 1.832 1.817 4.807-.01 6.63-.886.88-2.06 1.364-3.306 1.364-.81 0-1.594-.205-2.293-.596l-4.554 4.54zm-.394-1.812l.396.4 4.42-4.41.342.235c.615.42 1.336.643 2.084.643.98 0 1.902-.38 2.598-1.072 1.44-1.436 1.443-3.774.008-5.215-1.39-1.394-3.82-1.398-5.213-.01-1.25 1.25-1.438 3.216-.446 4.68l.232.343-4.42 4.408z"/><g id="p4_chip2"><path fill="none" d="M100.57 499.422l10.323 21.803"/><path fill="#562F2F" d="M99.122 499.81c3.44 7.27 6.88 14.536 10.322 21.805.31.65 3.092-.366 2.897-.777l-10.32-21.803c-.31-.654-3.093.364-2.898.776z"/><path fill="none" d="M117.658 504.676l-24.254 11.482"/><path fill="#562F2F" d="M117.08 504.06l-24.254 11.48c-1.82.862-.15 1.855 1.156 1.235l24.254-11.482c1.82-.86.15-1.854-1.156-1.234zM104.28 501.034c1.25 0 3.02-1.896 1.06-1.896-1.25 0-3.02 1.896-1.06 1.896z"/><path fill="#FFF" d="M106.553 500.594l-6.532-2.334-2.333 6.53"/><path fill="#562F2F" d="M107.707 499.897l-6.53-2.335c-.797-.285-2.28-.027-2.604.882l-2.335 6.53c-.345.966 2.554.59 2.896-.368l2.335-6.53-2.604.88 6.53 2.334c.67.24 1.453.088 2.052-.274.337-.203.932-.878.26-1.12z"/><g><path fill="#FFF" d="M115.904 510.932l2.336-6.532-6.532-2.334"/><path fill="#562F2F" d="M117.336 510.686c.78-2.177 1.557-4.354 2.336-6.53.073-.202-.083-.275-.246-.333-2.177-.778-4.355-1.558-6.532-2.334-.674-.242-3.283.832-2.37 1.156 2.176.778 4.354 1.558 6.53 2.335l-.245-.333-2.337 6.53c-.217.606 2.59.274 2.863-.49z"/></g><g><path fill="#FFF" d="M95.14 509.91l-2.336 6.53 6.53 2.335"/><path fill="#562F2F" d="M93.748 509.723c-.778 2.18-1.557 4.354-2.335 6.53-.186.522.03 1.004.563 1.195 2.177.776 4.354 1.556 6.53 2.334 1.29.46 3.403-1.39 1.658-2.015-2.177-.776-4.354-1.556-6.53-2.334.187.398.374.797.562 1.194l2.335-6.53c.575-1.61-2.33-1.64-2.782-.374z"/></g><g><path fill="#FFF" d="M104.73 519.672l6.533 2.334 2.335-6.53"/><path fill="#562F2F" d="M103.57 520.343c2.177.778 4.354 1.558 6.53 2.334.754.27 2.298-.006 2.606-.868.778-2.18 1.557-4.355 2.335-6.53.32-.897-2.56-.522-2.888.394l-2.335 6.53 2.605-.867-6.53-2.334c-.655-.234-1.462-.047-2.047.292-.327.188-.936.81-.275 1.048z"/></g></g><g id="p4_chip3"><path fill="#FFF" d="M193.458 577.947l-8.54-16.636-16.58-4.162 35.345-20.068z"/><path fill="#562F2F" d="M194.907 577.56c-2.847-5.546-5.694-11.09-8.54-16.637-.668-1.3-5.725-1.698-6.955-2.008l-10.187-2.558.014 1.227c11.78-6.69 23.562-13.38 35.343-20.068l-2.35-.255-10.225 40.867c-.27 1.078 2.65.633 2.898-.36l10.225-40.865c.276-1.1-1.99-.46-2.35-.256-11.78 6.69-23.562 13.38-35.343 20.068-.613.35-.782 1.026.014 1.227 2.764.694 5.527 1.39 8.29 2.082l6.048 1.52c.543.136 1.086.27 1.63.41 1.014.253.028-.29.165-.024 2.808 5.472 5.616 10.94 8.425 16.41.515 1 3.33.06 2.9-.78z"/><path fill="none" d="M202.294 542.633l-4.56-1.63"/><path fill="#562F2F" d="M203.444 541.92c-1.52-.543-3.04-1.088-4.56-1.63-.678-.243-1.447-.117-2.056.26-.34.214-.925.923-.245 1.166l4.56 1.63c.678.243 1.447.117 2.056-.262.34-.21.924-.92.244-1.164z"/><path fill="none" d="M191.954 543.738l9.305 3.03"/><path fill="#562F2F" d="M190.77 544.32l9.305 3.03c.687.224 3.283-.868 2.37-1.166-3.102-1.01-6.204-2.02-9.306-3.028-.688-.222-3.285.867-2.37 1.165z"/><path fill="none" d="M186.01 547.115l13.995 4.67"/><path fill="#562F2F" d="M184.826 547.697c4.665 1.557 9.33 3.112 13.994 4.67.684.23 3.283-.858 2.37-1.163l-13.994-4.67c-.683-.227-3.283.86-2.37 1.163z"/><g><path fill="none" d="M178.767 551.23l19.772 6.416"/><path fill="#562F2F" d="M177.89 552.05c6.59 2.142 13.18 4.28 19.77 6.42.974.315 3.408-1.107 1.756-1.646-6.59-2.14-13.18-4.277-19.77-6.418-.975-.315-3.41 1.11-1.757 1.645z"/></g><g><path fill="none" d="M197.255 562.78L173 554.503"/><path fill="#562F2F" d="M198.122 561.92l-24.255-8.28c-1.04-.354-3.41 1.153-1.733 1.727 8.085 2.76 16.17 5.52 24.255 8.278 1.04.355 3.407-1.155 1.732-1.726z"/></g><g><path fill="none" d="M186.915 565.2l9.015 2.868"/><path fill="#562F2F" d="M185.757 565.885c3.005.955 6.01 1.91 9.016 2.867.677.215 1.44.074 2.048-.284.315-.186.95-.864.268-1.08-3.005-.958-6.01-1.913-9.016-2.868-.677-.216-1.44-.075-2.048.283-.314.185-.95.865-.267 1.082z"/></g></g><path id="p4_chip4" fill="#FFF" stroke="#562F2F" stroke-miterlimit="10" d="M265.793 561.313v3.332H255.21v-3.332h4.374v-2.243c-1.16-.388-2-1.468-2-2.757 0-1.61 1.305-2.918 2.916-2.918s2.918 1.308 2.918 2.918c0 1.26-.8 2.32-1.918 2.73v2.27h4.293zm-.744 3.332h-9.097v1.918h9.096v-1.918z"/><path id="p4_chip5" fill="#FFF" d="M316.62 459.577l21.39 13.35-9.6 7.36-14.903-9.303 3.113-11.407zm-22.078 27.625l-5.035 39.084 13.72-21.98 1.323.827-13.645 21.86 31.986-22.097 3.657-19.763-14.417-9-17.588 11.07zm15.155 7.277c-1.39-.868-3.23-.442-4.097.947-.872 1.396-.443 3.23.947 4.1 1.396.87 3.227.447 4.098-.95.87-1.39.45-3.225-.948-4.098z"/><path id="p4_chip6" fill="#FFF" stroke="#562F2F" stroke-miterlimit="10" d="M343.422 566.698l-6.09-8.242s-.57-2.928 2.25-1.312l2.154 1.687-.188-9.554s1.123-2.68 1.873.75l.522 5.555 1.258-.028.563-7.27h1.686v7.458h1.498l.843-7.46h1.688v7.835l2.528-3.28 1.496.522v2.758l-4.024 10.584-8.056-.002z"/><path id="p4_chip7" fill="#FFF" stroke="#562F2F" stroke-miterlimit="10" d="M487.297 543.42c-.252 1.195-1.424 1.96-2.617 1.707l-6.893-1.453c-1.19-.25-1.955-1.422-1.703-2.615.25-1.193 1.422-1.958 2.615-1.705l1.794.38.912-4.327c.198-.943 1.125-1.55 2.067-1.35.945.198 1.547 1.126 1.35 2.07l-.91 4.323 1.677.355c1.193.252 1.957 1.424 1.707 2.615zm-7.967.533l-3.11 14.768c-.224 1.06.452 2.096 1.51 2.317 1.057.223 2.094-.453 2.315-1.51l3.11-14.77m-5.948 16.13l-.584 2.77c-.063.294.125.58.418.642.294.062.58-.126.642-.417l.584-2.772"/><path fill="#562F2F" d="M539.878 515.093c-3.596 2.396-7.19 4.794-10.787 7.19-.363.243-.744.856-.375 1.264l8.84 9.704c.553.607 1.103 1.214 1.656 1.82.63.69.91-.89-.24.186-1.7 1.585-3.398 3.17-5.1 4.755.846-.074 1.69-.148 2.536-.225-3.196-4.714-6.394-9.43-9.588-14.144-.474-.694-1.734-.41-2.282-.002l-10.308 7.67c.802.08 1.603.163 2.402.244l-4.065-34.356c-.857.402-1.715.806-2.57 1.21l29.715 16.14c1.076.584 3.64-.88 2.242-1.64l-29.715-16.143c-.884-.48-2.72-.05-2.57 1.21 1.354 11.45 2.71 22.903 4.066 34.356.12 1.026 1.914.606 2.4.243l10.31-7.67c-.763 0-1.522-.002-2.283-.003l9.588 14.143c.57.84 1.977.296 2.535-.226 1.966-1.832 3.932-3.665 5.896-5.498.258-.24.383-.75.122-1.035l-10.93-12-.376 1.263c3.596-2.396 7.19-4.794 10.787-7.19 1.64-1.09-.76-2.03-1.905-1.265z" id="p4_chip8"/><g id="p4_chip9"><path fill="#FFF" d="M461.885 573.054c.953 2.027-1.797 5.313-3.828 6.256-2.03.95-6.315.945-7.264-1.077L430.87 530.63c-.946-2.026-.065-4.44 1.96-5.388 2.03-.943 4.445-.066 5.387 1.955l23.668 45.857z"/><path fill="#562F2F" d="M460.437 573.442c.95 4.568-6.605 8.192-8.53 3.6-.61-1.463-1.223-2.924-1.834-4.387l-6.645-15.873c-3.698-8.84-7.4-17.68-11.1-26.52-1.082-2.587 3.113-5.25 4.486-2.59l.49.952 2.346 4.544c2.682 5.194 5.36 10.388 8.043 15.58 4.25 8.233 8.495 16.464 12.744 24.694.446.864 3.235-.122 2.897-.777-5.57-10.79-11.14-21.58-16.707-32.37l-6.858-13.288c-2.897-5.615-12.1-2.166-10.35 4.01 1.11 3.916 3.26 7.788 4.83 11.535l9.235 22.07c1.925 4.597 3.85 9.194 5.77 13.792 2.36 5.634 11.362.716 13.492-2.38.767-1.113.843-2.13.585-3.37-.17-.823-3.08-.108-2.895.778z"/><g><path fill="#FFF" d="M456.083 585.66c1.424-2.36 4.89-6.075 10.65-2.864 0 0 9.496 4.328-5.113 28.48 0 0 .555-11.798-3.338-14.7-2.233-1.66-5.92-4.74-2.2-10.915z"/><path fill="#562F2F" d="M457.467 585.824c3.487-5.33 9.38-3.372 10.6 1.728 1.876 7.845-4.08 17.24-7.83 23.56l2.85.052c.142-3.414-.108-6.878-.84-10.216-1.405-6.41-8.737-7.53-4.78-15.124.757-1.454-2.183-1.454-2.77-.326-2.515 4.827-1.848 8.604 2.466 11.91 3.454 2.647 3.146 10.11 2.988 13.98-.062 1.55 2.346.903 2.854.05 4.05-6.825 11.876-19.414 6.73-27.662-3.64-5.83-11.936-3.02-15.037 1.724-.874 1.335 2.085 1.37 2.77.324z"/></g></g><path fill="#562F2F" d="M556.593 446.53c-5.576 2.735-11.153 5.473-16.73 8.21-2.01.984-2.184-3.3-.864-3.946l1.96-.962c1.834-.898 3.666-1.8 5.498-2.698l8.828-4.334c.38-.187.98-.553.854-1.07-1.77-7.12.658-13.977 6.853-18.067 7.246-4.787 16.383-.762 20.67 5.814 4.027 6.182 2.354 14.414-2.455 19.54-6.61 7.044-17.28 4.44-22.676-2.395-.687-.865-3.472.18-2.68 1.185 12.842 16.258 39.858 1.405 31.25-18.105-3.64-8.247-13.277-11.18-21.46-9.05-9.586 2.495-14.705 12.58-12.4 21.855.286-.357.568-.715.855-1.072-2.635 1.293-22.572 8.457-18.83 13.314 2.724 3.534 6.472 1.026 9.58-.5 4.314-2.116 8.63-4.233 12.94-6.35 1.796-.882.157-2.034-1.194-1.37z" id="p4_chip10"/><path id="p4_chip11" fill="#562F2F" d="M833.17 298.803v7.29h-1.822s.455-4.638-6.186-5.265v18.98h4.557v3.253h-11.59v-3.253h4.56V300.7c-2.026.033-5.862.71-6.055 5.395h-1.953v-7.29l18.488-.002z"/><path fill="#562F2F" d="M301.04 580.58c.803 3.287.99 7.928-2.893 9.322-3.247 1.166-6.453-.654-7.118-3.902-.775-3.78 1.825-5.197 4.035-7.27 2.103-1.974 2.85-5.45 2.966-8.226l-2.3 1.1c2.938 1.3 4.454 6.19 5.31 8.976.42 1.37 3.314.58 2.898-.775-1.09-3.547-2.905-8.584-6.546-10.192-.74-.328-2.26.145-2.3 1.1-.086 2.02-.55 6.26-2.578 7.208-1.4.655-2.784 1.937-3.46 3.324-1.454 2.98-1.565 7.213 1.327 9.457 2.777 2.154 6.89 2.188 9.938.54 4.312-2.33 4.672-7.125 3.62-11.435-.337-1.38-3.237-.614-2.898.775z" id="p4_chip12"/><path id="p4_chip13" fill="#FFF" stroke="#562F2F" stroke-miterlimit="10" d="M63.055 559.228h14.02v10.166h-14.02z"/><ellipse id="p4_chip14" fill="#FFF" stroke="#562F2F" stroke-miterlimit="10" cx="591.593" cy="298.26" rx="5.709" ry="5.208"/><path id="p4_chip15" fill="#FFF" stroke="#562F2F" stroke-miterlimit="10" d="M457.08 489.215c1.302 2.896-.604 6.576-4.256 8.217-3.65 1.644-7.668.625-8.97-2.27-1.303-2.897.604-6.575 4.255-8.22 3.65-1.64 7.667-.624 8.97 2.273zm-13.774-4.725l3.45 7.676m-.865-8.838l3.45 7.676m2.586-1.162l-3.45-7.676m3.287 19.818l-3.45-7.676m2.585-1.162l3.45 7.676m2.585-1.162l-3.45-7.676m-.288-4.076l7.635-3.54m-6.442 6.11l7.636-3.54m1.192 2.57l-7.636 3.543m-10.904-1.476l-7.636 3.543m8.83-.972l-7.636 3.54m8.828-.968l-7.636 3.54"/><path id="p4_chip16" fill="#562F2F" d="M421.355 547.007c0-.08-.01-.164-.05-.238-.095-.175-.272-.28-.482-.26l-11.656.997c-.122.012-.236.066-.32.154l-20.998 22.195c-.09.095-.12.218-.12.345h-.018v12.377h15.45l18.108-24.836.096-.13v-10.604h-.01zm-11.913 1.48l10.32-.884-17.317 22.097h-13.072l20.07-21.213zm-20.73 22.213h13.477v10.877H388.71V570.7zm14.476 10.145v-10.473l17.178-21.916v8.828l-17.178 23.56z"/><g id="p4_chip17" fill="#562F2F"><path d="M315.257 460.08c5.75 3.587 11.497 7.175 17.246 10.763 1.172.73 2.344 1.464 3.516 2.193.864.54 1.044-.306-.223.666l-8.504 6.52c.826-.147 1.652-.292 2.48-.438-4.52-2.82-9.04-5.642-13.56-8.464-1.877-1.172-.966-1.715-.32-4.086l2.158-7.903c.184-.67-2.656-.264-2.862.493l-3.113 11.407c-.046.104-.023.19.07.256 4.966 3.102 9.934 6.2 14.9 9.302.62.387 1.956-.034 2.48-.437 3.2-2.452 6.4-4.905 9.602-7.357.12-.093.532-.392.247-.568l-21.39-13.35c-.722-.45-3.17.727-2.727 1.004zM293.11 487.448l-5.035 39.084c-.115.895 2.546.016 2.863-.492l13.72-21.98-2.794.75c1.69 1.055.845 1.227-.232 2.952l-4.55 7.29-7.608 12.188c-.38.61 2.276.008 2.547-.18 9.338-6.45 18.676-12.902 28.013-19.354 3.314-2.29 4.17-2.418 4.895-6.327l3.052-16.492c.046-.104.023-.19-.07-.257l-14.416-9c-.658-.41-1.902.074-2.48.438l-17.588 11.065c-1.237.78 1.687.476 2.23.134 5.864-3.69 11.727-7.38 17.59-11.066l-2.48.437c2.2 1.374 14.527 7.784 14.253 9.264l-1.998 10.792-1.09 5.885c-.128.695-.68 2.614-.266 2.33-10.626 7.34-21.252 14.682-31.878 22.02.85-.06 1.698-.118 2.547-.18l13.645-21.86c.046-.104.023-.188-.07-.256-.44-.273-.88-.55-1.322-.825-.687-.43-2.382.088-2.794.748l-13.72 21.98c.955-.165 1.91-.33 2.863-.493l5.035-39.084c.1-.776-2.77-.224-2.862.492z"/><path d="M311.06 493.977c-1.973-1.11-4.604-.472-6.268.93-1.665 1.402-1.298 3.96.393 5.12 1.835 1.264 4.72.38 6.268-.927 1.663-1.407 1.3-3.957-.393-5.123-.477-.33-1.398-.033-1.873.14-.148.056-1.308.552-.853.864.953.657 1.458 1.704 1.27 2.865-.088.557-.396 1.047-.785 1.44-.405.407.305.12-.107.054-.29-.048-.55-.175-.803-.316-.988-.558-1.443-1.777-1.27-2.86.087-.558.395-1.05.784-1.44.403-.406-.303-.12.11-.057.29.047.547.173.8.314.526.298 1.354.05 1.873-.14.114-.043 1.337-.593.853-.863z"/></g><path id="p4_chip18" fill="#FFF" stroke="#562F2F" stroke-miterlimit="10" d="M200.225 480.907c.535 2.05-2.027 4.49-5.725 5.457-3.695.965-7.125.086-7.66-1.962-.535-2.05 2.027-4.49 5.723-5.457 3.697-.965 7.126-.088 7.662 1.962zm-12.077 5.073s-2.637.875-2.053 3.375c0 0 2.416 2.465 3.5-2.602 0 0 2-.814.75 4.768"/><g id="p4_chip19" fill="#FFF" stroke="#562F2F" stroke-miterlimit="10"><path d="M858.77 218.736h7.678v7.678h-7.677z"/><path d="M862.082 223.333h7.592v7.592h-7.592z"/></g><path id="p4_chip20" fill="#FFF" stroke="#562F2F" stroke-miterlimit="10" d="M613.732 428.154c.375.29.444.828.153 1.205-.29.374-.828.44-1.203.152l-14.4-11.13c-.376-.29-.444-.827-.155-1.204.29-.375.828-.442 1.205-.153l14.4 11.13zm-17.617-14.638c-1.242 0-2.25 1.007-2.25 2.25 0 1.242 1.008 2.25 2.25 2.25 1.244 0 2.25-1.008 2.25-2.25 0-1.245-1.006-2.25-2.25-2.25zm-2.916-3.084l1.583 3.53m1.332-7.53v7.084m-7.916 0l5.665 1.832m-4 2.084l4.127-.938m-2.96 5.604l3.75-4.52m.917 5.438l.415-5m5 4.582l-3.674-5.02m3.003-6.73l-2.994 3.113m.622 1.388l6.043-.5m-3 3.168l-2.875-1.522"/></svg>