<svg version="1.1" class="图层_1" xmlns="http://www.w3.org/2000/svg" xmlns:xlink="http://www.w3.org/1999/xlink" x="0" y="0" width="960" height="640" viewBox="0 0 960 640" xml:space="preserve"><image xmlns="http://www.w3.org/2000/svg" overflow="visible" width="413" height="175" xmlns:xlink="http://www.w3.org/1999/xlink" xlink:href="./images/416BFEC7.png" transform="translate(550 54.43)" class="p5_txt"/><g class="p5_bot"><path fill="#66B1E0" d="M-6.666 490.912h997.98v150.09H-6.667z"/><path fill="#552F2E" d="M991.87 640.154H-6.11l.894.673V496.24v-5.502l-2.007 1.02H990.755l-.895-.672v150.089c0 1.25 2.902.638 2.902-.348V496.24v-5.502c0-.497-.437-.673-.895-.673H-6.114c-.504 0-2.007.267-2.007 1.02v150.09c0 .497.437.673.894.673h997.979c1.12 0 3.078-1.694 1.118-1.694z"/><path fill="#66BAED" d="M-8 593.75H993v33.35H-8z"/><path fill="#562F2F" d="M993.524 626.13H-7.477c.313.28.625.557.937.834v-33.35l-1.986 1.106h1001l-.937-.833v33.35c0 1.418 2.922.9 2.922-.273v-33.35c0-.514-.43-.833-.938-.833H-7.48c-.59 0-1.985.257-1.985 1.107v33.35c0 .514.428.833.937.833h1001c1.28 0 3.012-1.94 1.052-1.94z"/></g><g class="p5_build"><path fill="#F77C72" d="M864.573 370.963h19.213v38.276h-19.213z"/><path fill="#562F2F" d="M884.375 408.51h-18.638c-1.005 0 .286.726.286-.18v-5.835-31.92l-2.038 1.116h18.639c1.005 0-.286-.724-.286.182v37.755c0 .738 2.898.238 2.898-.776v-38.275c0-.322-.683-.34-.86-.34h-19.213c-.608 0-2.038.308-2.038 1.117v38.276c0 .322.683.34.86.34h19.213c.96 0 3.127-1.457 1.178-1.457z"/><path fill="#E5DFDF" d="M852.473 390.185h64.09v100.567h-64.09z"/><path fill="#562F2F" d="M917.12 489.912h-64.09c.298.22.596.442.893.664V390.01l-2.01 1.015h64.09l-.892-.664V490.93c0 1.24 2.9.624 2.9-.352V390.01c0-.496-.437-.665-.89-.665h-64.09c-.5 0-2.01.268-2.01 1.016V490.93c0 .496.44.664.893.664h64.09c1.107 0 3.077-1.68 1.117-1.68z"/><g><path fill="#E5DFDF" d="M894.115 425.824h64.09v64.928h-64.09z"/><path fill="#562F2F" d="M959.148 490.178h-63.135c-1.215 0-.45-.073-.45.166v-64.908l-2.393.963h63.135c1.215 0 .45.072.45-.167v64.908c0 .434 2.897.028 2.897-.776v-64.928c0-.173-.43-.186-.505-.186h-64.09c-.488 0-2.393.23-2.393.963v64.928c0 .174.43.187.505.187h64.088c.587 0 3.296-1.15 1.89-1.15z"/><path fill="#E5DFDF" d="M935.35 432.98h6v6h-6z"/><path fill="#562F2F" d="M942.282 438.358h-6l.518.233v-6l-2.38 1.012h6l-.52-.233v6c0 .54 2.9.102 2.9-.778v-6c0-.186-.42-.233-.52-.233h-6c-.548 0-2.38.19-2.38 1.01v6c0 .186.42.233.518.233h6c.704 0 1.454-.152 2.05-.55.44-.294.397-.695-.186-.695z"/><path fill="#E5DFDF" d="M935.35 442.313h6v6h-6z"/><path fill="#562F2F" d="M941.488 447.286h-6l1.328.907v-6l-1.604 1.147h6l-1.328-.907v6c0 1.486 2.932 1.016 2.932-.24v-6c0-.753-.705-.907-1.328-.907h-6c-.548 0-1.604.474-1.604 1.147v6c0 .753.705.907 1.328.907h6c1.632 0 2.245-2.054.276-2.054z"/><path fill="#E5DFDF" d="M935.35 451.646h6v6h-6z"/><path fill="#562F2F" d="M942.3 457.09h-6l.5.168v-6c-.8.315-1.6.63-2.397.946h6l-.5-.17v6c0 .396 2.897.002 2.897-.776v-6c0-.168-.433-.17-.5-.17h-6c-.47 0-2.398.245-2.398.947v6c0 .168.433.17.5.17h6c.69 0 1.455-.2 2.05-.55.465-.274.395-.566-.153-.566z"/><g><path fill="#E5DFDF" d="M935.35 460.98h6v6h-6z"/><path fill="#562F2F" d="M941.492 465.97h-6l1.322.886v-6l-1.605 1.135h6c-.442-.294-.883-.59-1.323-.886v6c0 1.47 2.928.985 2.928-.248v-6c0-.75-.707-.887-1.322-.887h-6c-.538 0-1.605.467-1.605 1.134v6c0 .75.707.887 1.322.887h6c1.618 0 2.253-2.02.282-2.02z"/></g><g><path fill="#E5DFDF" d="M935.35 470.313h6v6h-6z"/><path fill="#562F2F" d="M941.918 475.506h-6c.294.14.588.28.882.418v-6l-2.017 1.195h6l-.882-.42v6c0 .876 2.9.334 2.9-.776v-6c0-.343-.67-.418-.883-.418h-6c-.692 0-2.017.312-2.017 1.195v6c0 .344.67.42.882.42h6c.65 0 1.515-.22 1.914-.786.397-.56-.33-.828-.778-.828z"/></g><g><path fill="#E5DFDF" d="M935.35 479.646h6v6h-6z"/><path fill="#562F2F" d="M941.467 484.537h-6c.45.337.903.674 1.355 1.01v-6l-1.588 1.207h6c-.45-.337-.903-.674-1.355-1.01v6c0 1.572 2.942 1.174 2.942-.196v-6c0-.77-.693-1.01-1.355-1.01h-6c-.596 0-1.588.5-1.588 1.205v6c0 .77.692 1.01 1.354 1.01h6c1.69 0 2.195-2.216.233-2.216z"/></g><g><path fill="#E5DFDF" d="M945.834 432.98h6v6h-6z"/><path fill="#562F2F" d="M952.366 438.042h-6l.926.793v-6c-.663.36-1.327.723-1.99 1.084h6l-.926-.794v6c0 1.378 2.916.833 2.916-.29v-6c0-.512-.43-.794-.926-.794h-6c-.57 0-1.99.258-1.99 1.084v6c0 .51.43.793.926.793h6c.68 0 1.53-.193 1.9-.84.335-.59-.285-1.038-.836-1.038z"/><path fill="#E5DFDF" d="M945.834 442.313h6v6h-6z"/><path fill="#562F2F" d="M951.944 447.185h-6c.454.346.908.69 1.362 1.037v-6l-1.583 1.22h6l-1.362-1.036v6c0 1.595 2.946 1.215 2.946-.184v-6c0-.773-.69-1.037-1.362-1.037h-6c-.607 0-1.583.51-1.583 1.22v6c0 .774.69 1.038 1.363 1.038h6c1.706 0 2.182-2.258.22-2.258z"/><path fill="#E5DFDF" d="M945.834 451.646h6v6h-6z"/><path fill="#562F2F" d="M952.365 456.703h-6l.928.8v-6c-.663.36-1.327.724-1.99 1.087h6l-.928-.8v6c0 1.385 2.918.844 2.918-.288v-6c0-.51-.43-.8-.928-.8h-6c-.573 0-1.99.26-1.99 1.09v6c0 .51.43.798.928.798h6c.683 0 1.532-.19 1.9-.842.332-.59-.284-1.045-.838-1.045z"/><g><path fill="#E5DFDF" d="M945.834 460.98h6v6h-6z"/><path fill="#562F2F" d="M951.95 465.87h-6l1.355 1.013v-6l-1.587 1.207h6l-1.356-1.014v6c0 1.575 2.943 1.18 2.943-.193v-6c0-.77-.693-1.014-1.356-1.014h-6c-.598 0-1.588.5-1.588 1.206v6c0 .77.693 1.014 1.356 1.014h6c1.692 0 2.193-2.22.23-2.22z"/></g><g><path fill="#E5DFDF" d="M945.834 470.313h6v6h-6z"/><path fill="#562F2F" d="M952.423 475.585h-6l.86.34v-6c-.68.37-1.358.743-2.038 1.115h6l-.86-.34v6c0 .737 2.898.237 2.898-.776v-6c0-.322-.683-.34-.86-.34h-6c-.607 0-2.038.31-2.038 1.117v6c0 .323.683.34.86.34h6c.636 0 1.505-.236 1.923-.752.434-.535-.37-.703-.745-.703z"/></g><g><path fill="#E5DFDF" d="M945.834 479.646h6v6h-6z"/><path fill="#562F2F" d="M951.964 484.59h-6l1.338.944v-6l-1.598 1.167h6c-.446-.313-.892-.628-1.338-.943v6c0 1.52 2.936 1.073 2.936-.223v-6c0-.76-.7-.944-1.338-.944h-6c-.564 0-1.598.482-1.598 1.167v6c0 .76.7.944 1.338.944h6c1.652 0 2.227-2.11.26-2.11z"/></g></g></g></g><g class="p5_tool"><g stroke="#562F2F" stroke-width="2" stroke-miterlimit="10"><path fill="#D8D6D6" d="M482.76 507.746h-62.924l4.465-29.733h53.993z"/><path fill="#EDDDDD" d="M478.266 502.908h-58.43l4.15-29.734h50.13z"/></g><path fill="#E5DFDF" d="M285.11 490.23l8.53 15.443h88.28l7.143-14.29"/><path fill="#562F2F" d="M283.77 490.814l8.527 15.442c.12.218.583.29.792.29h88.28c.61 0 1.595-.19 1.906-.812 2.38-4.763 4.762-9.526 7.144-14.29.297-.595-.25-.93-.808-.937-34.65-.385-69.3-.77-103.95-1.152-1.16-.014-3.062 1.73-1.1 1.75 34.65.385 69.3.77 103.95 1.152l-.807-.937c-2.38 4.763-4.762 9.526-7.144 14.29.637-.27 1.272-.543 1.908-.813H294.422c-.685 0 .74.622.423.05l-1.29-2.334-7.104-12.867c-.492-.893-3.306.034-2.68 1.168z"/><path fill="#E5DFDF" d="M293.64 450.815h88.28v49.327h-88.28z"/><path fill="#562F2F" d="M382.058 499.118h-88.28l1.327.904v-49.327c-.535.38-1.07.763-1.604 1.145h88.28c-.44-.302-.883-.603-1.326-.904v49.327c0 1.483 2.93 1.01 2.93-.24v-49.327c0-.753-.705-.904-1.326-.904h-88.28c-.547 0-1.604.473-1.604 1.145v49.327c0 .753.706.904 1.327.904h88.28c1.63 0 2.247-2.05.278-2.05z"/><path fill="#F9F3F2" stroke="#562F2F" stroke-miterlimit="10" d="M404.262 498.325c0 2.652-2.15 4.802-4.804 4.802h-2.77c-2.65 0-4.802-2.15-4.802-4.802 0-2.652 2.15-4.803 4.803-4.803h2.768c2.653 0 4.804 2.15 4.804 4.803z"/></g><g opacity=".1" fill="#23A664" class="p5_bg"><ellipse cx="5.082" cy="13.062" rx="2.721" ry="2.619"/><ellipse cx="22.869" cy="13.062" rx="2.72" ry="2.619"/><ellipse cx="22.869" cy="30.266" rx="2.72" ry="2.619"/><ellipse cx="22.869" cy="47.388" rx="2.72" ry="2.619"/><ellipse cx="40.655" cy="30.266" rx="2.72" ry="2.619"/><ellipse cx="31.762" cy="21.663" rx="2.72" ry="2.619"/><ellipse cx="13.975" cy="21.663" rx="2.72" ry="2.619"/><ellipse cx="31.762" cy="38.826" rx="2.72" ry="2.619"/><ellipse cx="13.975" cy="38.826" rx="2.72" ry="2.619"/><ellipse cx="40.655" cy="47.388" rx="2.72" ry="2.619"/><ellipse cx="40.655" cy="13.062" rx="2.72" ry="2.619"/><ellipse cx="5.081" cy="30.266" rx="2.72" ry="2.619"/><ellipse cx="5.081" cy="47.388" rx="2.72" ry="2.619"/></g><g class="p5_fun1"><ellipse fill="#E5DFDF" cx="439.316" cy="226.508" rx="18.531" ry="10.235"/><path fill="#562F2F" d="M456.4 226.698c-1.068 13.147-31.125 12.433-34.09.353-3.024-12.317 32.913-14.61 34.088-.154.073.905 2.985.295 2.897-.776-1.234-15.188-38.728-14.547-39.958.58-.75 9.23 15.125 10.944 21.095 10.796 6.604-.164 18.196-3.008 18.86-11.178.094-1.135-2.815-.554-2.89.38z"/></g><g class="p5_fun2"><ellipse transform="rotate(-84 469.98 127.854)" fill="#FCE18B" cx="469.98" cy="127.858" rx="46.867" ry="70.231"/><path fill="#562F2F" d="M535.396 133.592c-3.136 24.36-29.46 35.41-51 37.918-25.762 3-55.184-4.52-73.71-23.34-6.974-7.087-11.73-16.248-12.176-26.265-.467-10.46 5.095-19.934 12.627-26.75 19.818-17.937 51.606-18.744 76.064-12.288 22.58 5.962 50.7 23.935 48.196 50.725-.11 1.168 2.806.607 2.896-.365 1.91-20.407-14.132-35.98-30.82-44.8-21.312-11.262-47.695-13.624-70.92-7.75-17.743 4.488-36.6 16.022-40.438 35.223-3.976 19.9 12.195 36.563 27.987 45.624 21.716 12.46 49.36 15.198 73.437 9.108 18.403-4.655 38.134-17.033 40.755-37.404.147-1.15-2.77-.615-2.896.364z"/><path fill="#562F2F" d="M438.444 99.23c-3.036.307-4.22 3.02-4.856 5.74-1.524 6.496-1.04 13.197-5.487 18.667-1.176 1.448 1.562 2.06 2.454.96 2.71-3.33 3.9-6.875 4.585-11.07.286-1.754.726-11.793 3.084-12.032 1.67-.17 2.187-2.465.22-2.266z"/><path fill="#562F2F" d="M427.684 112.2c3.45.4 6.872.943 10.356.887.874-.014 3.148-1.36 1.21-1.33-3.265.053-6.49-.498-9.723-.874-.714-.082-3.368 1.14-1.843 1.318z"/><path fill="#562F2F" d="M440.458 108.724c-.243 2.03-.81 4.21-.145 6.214.64 1.927 2.913 2.742 4.768 2.74 4.403-.01 5.23-4.368 6.115-7.744.273-1.045-2.642-.606-2.896.37-.28 1.063-.918 5.744-2.408 5.747-4.032.01-2.82-5.332-2.537-7.695.136-1.146-2.78-.602-2.897.37zM453.267 116.563c-.05-1.975.638-7.612 3.54-7.122 2.818.477.982 6.87 1.015 8.726.016.938 2.917.366 2.896-.776-.038-2.29.654-4.53.405-6.828-.243-2.235-2.435-3.073-4.45-2.833-4.73.562-6.412 5.408-6.303 9.61.024.943 2.926.363 2.897-.777zM470.168 110.536c-2.575-.305-7.57-1.193-8.507 2.242-.448 1.646.008 3.467 1.4 4.475 1.406 1.02 3.476 1.064 5.13 1.244.68.074 1.403-.107 2.022-.386.168-.075 1.044-.62.372-.69-2.217-.24-5.2-.3-6-2.833-.328-1.032-.314-2.705.542-3.48-.443.4-.603.163.055.187.295.01.587.054.88.09.572.072 1.143.163 1.716.23.676.08 1.406-.11 2.02-.386.173-.078 1.04-.613.372-.692zM471.952 110.488l6.753.75c.667.073 1.5-.18 2.05-.55.482-.326.355-.645-.19-.706l-6.75-.75c-.67-.073-1.5.18-2.05.55-.485.326-.358.645.187.706z"/><path fill="#562F2F" d="M475.06 102.91c-1.223 4.398-4.447 16.532 3.353 16.42 1.02-.015 3.104-1.582 1.15-1.554-5.79.083-2.46-12.218-1.614-15.256.27-.972-2.632-.54-2.89.39zM482.612 111.287c-.304 2.716-.604 5.433-.905 8.15-.127 1.145 2.79.593 2.896-.37l.905-8.15c.128-1.146-2.787-.595-2.896.37zM483.343 108.424c.84 0 3.16-1.268 1.23-1.268-.84 0-3.163 1.268-1.23 1.268zM489.312 118.08c-2.125-.203-1.053-4.85.507-5.358 1.45-.473 3.112 1.477 3.183 2.773.103 1.91-1.494 2.94-3.223 2.637-1.48-.26-2.92 1.848-.98 2.188 3.128.55 6.302-1.05 7.073-4.245.74-3.065-2.52-5.617-5.318-5.605-2.742.012-4.556 2.17-5.17 4.657-.56 2.264.375 4.898 2.948 5.142 1.47.138 2.938-2.004.98-2.19zM499.434 119.097c-.173-2.178-.415-8.957 3.246-7.592 3.48 1.296 2.796 7.637 1.644 10.206-.4.89 2.477.57 2.896-.364 2.02-4.492 1.067-11.24-4.655-11.785-5.696-.54-6.35 6.267-6.027 10.314.072.944 2.983.327 2.896-.777z"/><g><path fill="#562F2F" d="M441.664 137.688c-3.09 1.308-5.516 3.25-7.777 5.704-.29.315-.447.77.03 1.013 2.683 1.374 5.412 2.597 7.77 4.51.845.683 3.546-.468 2.684-1.168-2.497-2.024-5.32-3.35-8.165-4.806l.03 1.014c1.94-2.108 3.937-3.828 6.605-4.956 1.857-.786.17-1.88-1.176-1.31zM456.38 140.542c-.128-3.706-3.577-3.527-6.166-2.22-2.968 1.5-3.86 8.19-.352 9.593 8.87 3.545 11.202-15.775 11.33-20.783.03-1.177-2.433-.507-2.793.166-1.876 3.49-2.26 8.036-2.553 11.91-.19 2.553-.727 7.927 2.38 9.04.86.31 3.493-.96 2.312-1.383-2.862-1.025-1.854-7.618-1.65-9.748.295-3.124.69-6.96 2.202-9.777l-2.794.166c-.11 4.364-1.078 8.734-2.372 12.89-.257.826-2.378 7.32-4.177 5.718-1.307-1.165-1.268-3.883-.952-5.355.596-2.78 2.62-1.295 2.686.56.03.895 2.936.322 2.897-.778zM464.133 140.605l-.905 8.15c-.15 1.36 2.79.884 2.92-.28.302-2.718.604-5.435.904-8.152.15-1.36-2.79-.884-2.92.282zM469.424 140.024c.843 3.413.915 7.297 3.22 10.137.488.603 2.505-.187 2.793-.748 1.538-2.994 2.96-6.052 4.763-8.9.278-.44-2.396-.27-2.867.475-1.802 2.85-3.224 5.908-4.762 8.9.932-.25 1.863-.5 2.795-.748-2.2-2.713-2.237-6.634-3.042-9.892-.182-.734-3.086.02-2.9.776zM485.764 142.028c3.095.71 3.942 3.805 6.265 5.577.275-.312.555-.624.833-.935-2.637 1.154-4.902 2.965-7.53 4.114-1.876.82-.112 1.34 1.048.834 2.64-1.152 4.904-2.963 7.532-4.114.183-.08 1.307-.574.834-.935-2.463-1.88-3.326-5-6.625-5.756-.67-.154-1.43.026-2.033.337-.25.128-1.003.723-.323.878z"/></g></g><g class="p5_man"><path fill="#E5DFDF" d="M.114 463.24H79.08v18.29H.114z"/><path fill="#562F2F" d="M79.69 480.888H.743c1.507 0 .82-2.606.82-4.2v-13.837c-.686.346-1.373.69-2.06 1.033h78.949c-1.507 0-.82 2.606-.82 4.2v13.837c0 .584 2.896.132 2.896-.777V462.85c0-.292-.697-.254-.837-.254H.726c-.52 0-2.06.312-2.06 1.032v18.292c0 .293.697.255.837.255h78.966c.85 0 3.158-1.287 1.223-1.287z"/><path fill="#F9A0A0" d="M61.145 463.24H79.08v18.29H61.146z"/><path fill="#562F2F" d="M79.224 480.527H61.288l1.32.878v-18.292L61 464.243h17.937l-1.32-.878v18.292c0 1.46 2.928.972 2.928-.252v-18.292c0-.748-.708-.878-1.32-.878H61.29c-.536 0-1.608.465-1.608 1.13v18.292c0 .748.708.878 1.32.878h17.936c1.612 0 2.257-2.008.286-2.008z"/><g fill="#E5DFDF" stroke="#562F2F" stroke-miterlimit="10"><circle cx="14.475" cy="468.608" r="2.441"/><circle cx="14.475" cy="475.669" r="2.441"/></g><g fill="#E5DFDF" stroke="#562F2F" stroke-miterlimit="10"><circle cx="22.526" cy="468.608" r="2.443"/><circle cx="22.526" cy="475.669" r="2.443"/></g><g fill="#E5DFDF" stroke="#562F2F" stroke-miterlimit="10"><circle cx="30.577" cy="468.608" r="2.442"/><circle cx="30.577" cy="475.669" r="2.442"/></g><g fill="#E5DFDF" stroke="#562F2F" stroke-miterlimit="10"><circle cx="38.63" cy="468.608" r="2.442"/><circle cx="38.63" cy="475.669" r="2.442"/></g><g fill="#E5DFDF" stroke="#562F2F" stroke-miterlimit="10"><circle cx="46.683" cy="468.608" r="2.442"/><circle cx="46.683" cy="475.669" r="2.442"/></g><g fill="#E5DFDF" stroke="#562F2F" stroke-miterlimit="10"><circle cx="54.735" cy="468.608" r="2.442"/><circle cx="54.735" cy="475.669" r="2.442"/></g><g><path fill="#3DC4E8" d="M345.5 426.152h-17.517s5.3 12.91-8.298 11.757c0 0-14.754-3.69-14.982 6.22l-4.15 23.512h59.697l-2.073-15.443 37.108 41.948h6.915l-35.724-49.556s-4.152-9.22-18.212-6.916c0 0-6.914.923-2.764-11.524z"/><path fill="#562F2F" d="M346.074 425.37h-17.517c-.415 0-2.336.384-2.022 1.17 1.922 4.823 1.208 12.256-6.185 10.56-4.542-1.04-9.857-1.124-13.94 1.373-3.804 2.326-3.69 8.9-4.385 12.835l-2.918 16.527c-.085.484.518.59.872.59h59.696c.575 0 2.137-.322 2.022-1.172l-2.073-15.443c-.932.314-1.865.63-2.797.943l22.777 25.75 12.627 14.273c2.708 3.063 5.217 2.154 9.394 2.154.492 0 2.54-.48 1.922-1.338l-30.142-41.813c-2.723-3.777-5.032-8.082-8.248-11.124-3.528-3.337-8.907-4.456-13.614-4.076-1.974.16-3.364.878-4.87-.554-2.435-2.313-.523-7.5.27-10.067.296-.958-2.602-.55-2.89.386-1.058 3.42-2.964 9.473 1.17 11.688.79.423 1.8.472 2.67.414 4.072-.27 7.553-.497 11.362 1.183 4.624 2.04 7.752 8.13 10.604 12.085l30.99 42.988 1.92-1.338h-5.651c-1.164 0-.983-.33-.504.21l-2.323-2.625c-4.21-4.76-8.423-9.52-12.634-14.282l-22.137-25.023c-.565-.64-2.928-.027-2.797.943l2.073 15.443 2.02-1.17h-59.164c-1.132 0 .363.454.376.38l3.038-17.207 1.066-6.042c.94-5.328 4.542-6.32 9.526-5.847 4.542.432 9.513 1.505 13.096-2.21 2.504-2.598 1.89-7.11.67-10.17l-2.022 1.173h17.517c1.035 0 3.107-1.567 1.15-1.567z"/><path fill="#F7E0DC" stroke="#562F2F" stroke-width="2" stroke-linecap="round" stroke-linejoin="round" stroke-miterlimit="10" d="M319.686 437.91s-2.826-.158-5.578-.255c6.855 5.537 24.688 15.646 42.958.137-2.37-.545-5.272-.692-8.8-.116 0 0-6.916.923-2.766-11.523h-17.517s5.3 12.91-8.297 11.756z"/><path fill="#F7E0DC" d="M256.27 352.264c-7.262 0-16.94-3.804-23.857-1.036-7.605 3.11-7.95 16.25-6.913 23.164 1.38 9.682 10.373 8.99 18.325 8.99 9.336 0 15.904 1.037 17.633-9.682 1.386-7.262 1.386-22.13-8.643-22.818"/><path fill="#562F2F" d="M257.444 350.798c-11.852-.358-28.35-6.903-33.86 8.132-1.977 5.392-1.783 12.054-.72 17.614 1.146 5.998 7.277 7.883 12.58 8.19 9.48.554 24.465 2.45 28.306-8.81 2.973-8.718 2.428-25.03-9.122-26.472-1.595-.198-6.785 2.464-3.627 2.857 8.81 1.098 8.672 13.51 7.856 20.077-.453 3.64-1.294 8.69-5.596 9.384-4.193.677-8.852.19-13.088.14-4.71-.06-9.12-1.022-11.142-5.69-1.677-3.872-1.216-9.43-.735-13.46.236-1.977.768-3.886 1.45-5.75 1.634-4.454 4.903-5.537 9.526-5.243 5.32.338 10.477 1.8 15.824 1.962 1.95.058 6.252-2.814 2.35-2.932z"/><path fill="#F7E0DC" d="M409.3 352.264c7.265 0 16.944-3.804 23.856-1.036 7.61 3.11 7.955 16.25 6.917 23.164-1.384 9.682-10.372 8.99-18.323 8.99-9.334 0-15.904 1.037-17.633-9.682-1.385-7.262-1.385-22.13 8.645-22.818"/><path fill="#562F2F" d="M408.17 353.898c9.64-.292 23.594-6.722 28.037 5.39 1.434 3.91 1.525 8.384 1.292 12.482-.323 5.664-2.087 9.338-8.15 9.905-4.056.38-8.31.14-12.382.082-4.703-.065-7.786-1.568-9.363-6.192-1.784-5.23-3.24-22.092 4.758-23.09 2.796-.348 4.815-3.69.797-3.188-11.847 1.478-13.452 13.56-12.222 23.46.604 4.86 2.27 9.803 7.367 11.38 5.67 1.756 12.483 1.03 18.338.847 4.686-.147 10.69-1.066 13.798-5.037 3.688-4.708 3.29-11.894 2.617-17.534-.682-5.702-3.214-11.105-8.92-13.017-7.657-2.563-15.98 1.01-23.707 1.243-2.13.063-6.164 3.387-2.26 3.268z"/><path fill="#F7E0DC" d="M253.04 345.25s-17.283 85.745 29.504 83.9h94.966s40.337 6.683 37.57-37.804l-2.313-32.515-72.83-13.582-42.64-21.204-44.256 21.205z"/><path fill="#562F2F" d="M250.122 345.53c-4.083 20.38-5.785 44.414 1.354 64.22 4.556 12.64 14.456 21 28.137 21.333 8.915.216 17.873-.027 26.79-.027h47.757c7.328 0 15.366-.947 22.645.05 8.66 1.19 18.316-.33 25.895-4.72 13.313-7.712 16.2-22.855 15.184-37.16l-2.217-31.17c-.036-.498-.764-.935-1.18-1.013l-70.5-13.148c-.46-.086-2.96-.787-1.806-.213-1.394-.694-2.79-1.388-4.185-2.08-6.59-3.278-13.18-6.556-19.77-9.832-5.733-2.852-11.466-5.702-17.2-8.553-3.122-1.553-5.113-.578-8.064.836-13.713 6.57-27.427 13.14-41.14 19.712-3.602 1.726-.348 4.308 2.446 2.97 14.752-7.07 29.504-14.137 44.256-21.205-1.163.023-2.326.048-3.49.07l33.132 16.476c2.997 1.49 6.783 4.352 10.127 4.976l10.59 1.975 45.28 8.445 15.253 2.845c2.544.475.512.063.482-.356l.554 7.787c1.014 14.263 4.625 31.535-1.253 45.087-4.748 10.944-16.096 15.21-27.342 14.717-20.97-.92-42.093-.305-63.095-.305h-34.077c-5.025 0-9.753-.276-14.328-2.593-5.774-2.924-9.667-8.442-12.202-14.234-5.625-12.853-5.79-27.962-5.037-41.726.434-7.924 1.293-15.92 2.842-23.712 0-.004 0-.008.002-.012.523-2.61-5.374-1.753-5.838.563z"/><path fill="#68312A" d="M261.342 260.427s-16.595-37.8 24.43-53.475c0 0 53.477-9.22 63.62 26.738 0 0 7.143-38.148 43.79-18.442 0 0 25.584 12.793 15.213 32.845 0 0 42.525 5.88 20.053 49.098 0 0 24.55 51.17-26.97 66.036 0 0-64.997 16.598-107.523-31.115 0 0-50.477 38.378-69.84-1.382 0 0-9.333-34.92 19.71-34.92 0 0-16.945-7.262-6.913-27.66 0 0 8.41-15.097 24.43-7.72z"/><path fill="#562F2F" d="M264.24 259.65c-2.844-6.553-3.798-14.314-3.12-21.37.642-6.654 3.264-12.93 7.443-18.126 3.85-4.788 11.582-11.227 17.51-12.1 22.698-3.34 52.88 1.135 60.42 26.412.443 1.49 5.517.06 5.767-1.244 2.12-11.052 9.97-23.104 22.424-22.223 17.34 1.227 40.015 18.63 30.84 37.56-.298.617.67.78 1.022.83 7.366 1.047 15.727 5.255 20.725 11.36 4.98 6.083 5.523 14.266 4.054 21.685-1.057 5.334-3.295 10.4-5.746 15.222-.237.466.57 1.663.73 2.052 4.16 10.064 6.227 21.53 4.446 32.337-2.575 15.633-15.414 26.988-30.6 30.36-36 7.996-77.836-3-103.48-31.33-.957-1.056-4.105.18-4.968.832-14.235 10.77-37.116 22.047-53.958 11.056-8.09-5.28-11.477-12.966-12.078-22.07-.777-11.772 3.48-23.55 16.938-23.786.718-.013 5.72-1.565 3.577-2.51-7.132-3.144-10.35-11.19-9.244-18.61.594-3.98 2.188-7.867 4.78-10.942 4.748-5.63 10.6-6.256 17.265-3.42 1.38.59 6.677-1.573 4.718-2.407-10.66-4.54-23.76-.945-29.66 9.395-5.66 9.922-3.663 23.506 7.425 28.395l3.577-2.51c-13.495.238-23.94 7.466-25.088 21.438-.923 11.248 1.695 20.41 10.708 27.875 18.574 15.385 49.208.854 65.542-11.504-1.656.275-3.313.553-4.968.83 25.874 28.585 64.92 38.116 102.193 32.724 11.722-1.696 23.128-6.016 31.992-14.085 10.716-9.757 13.135-24.574 10.99-38.303-.87-5.566-2.474-11.098-4.708-16.27-.453-1.05-.375-.505.332-1.896 1.872-3.683 3.358-7.55 4.478-11.524 1.46-5.186 1.857-10.73.684-16.006-2.685-12.063-15.473-19.35-26.954-20.984l1.02.83c10.224-21.094-16.746-39.387-35.49-39.332-15.054.043-26.493 11.468-29.252 25.864l5.768-1.244c-8.124-27.238-41.38-30.822-65.43-27.28-6.6.97-13.963 5.794-18.914 10.1-5.928 5.155-10.074 11.646-11.88 19.313-1.973 8.368-1.056 18.24 2.38 26.156.687 1.597 6.338-.29 5.79-1.553z"/><circle fill="#562F2F" cx="289.806" cy="376.775" r="5.813"/><path fill="#562F2F" d="M380.326 376.775c0 3.21-2.605 5.812-5.813 5.812-3.21 0-5.814-2.602-5.814-5.812s2.603-5.813 5.813-5.813c3.208 0 5.813 2.603 5.813 5.813z"/><g><path fill="#562F2F" d="M267.364 352.45c7.89 2.924 14.71 4.825 23.193 3.755 6.475-.816 11.642-3.698 16.27-8.197 1.192-1.157-4.258-.472-5.234.477-4.297 4.177-8.338 5.846-14.403 5.878-4.97.027-9.8-2.175-14.36-3.865-1.602-.595-5.93 1.78-5.466 1.952z"/></g><g><path fill="#562F2F" d="M351.982 352.25c12.096 6.26 34.71 9.98 41.422-5.72 1.28-2.993-4.555-2.813-5.515-.565-5.054 11.82-22.49 7.655-31.415 3.036-2.132-1.103-7.276 1.81-4.493 3.25z"/></g><g><path fill="#562F2F" d="M321.75 383.13c-.295 7.284-4.425 13.44-11.615 15.52-2.032.59-4.504.4-6.622.4h-42.991c-7.208 0-13.558-.384-18.544-6.668-8.126-10.238-.01-25.523 12.638-25.523h41.02c5.22 0 11.105-.67 16.07 1.202 6.323 2.386 9.784 8.84 10.044 15.28.04.957 2.944.364 2.897-.777-.392-9.686-8.022-17.384-17.85-17.384H254.96c-8.238 0-15.285 4.926-18.18 12.598-3.69 9.785 3.244 19.722 12.57 22.42 4.165 1.205 9.405.53 13.665.53h42.468c10.265 0 18.75-7.586 19.167-17.95.05-1.225-2.86-.636-2.9.352z"/></g><g><path fill="#562F2F" d="M425.43 383.133c-.294 7.282-4.42 13.45-11.61 15.53-2.03.586-4.507.395-6.624.395H364.206c-7.21 0-13.557-.388-18.544-6.674-8.125-10.237-.02-25.536 12.634-25.536h41.02c5.224 0 11.103-.667 16.07 1.207 6.325 2.386 9.786 8.845 10.046 15.286.04.94 2.944.353 2.898-.776-.392-9.688-8.02-17.374-17.846-17.374h-51.837c-8.233 0-15.29 4.924-18.182 12.59-3.692 9.786 3.242 19.71 12.564 22.408 4.164 1.205 9.407.528 13.664.528h42.468c10.262 0 18.75-7.58 19.17-17.943.05-1.21-2.86-.614-2.898.36z"/></g><g><ellipse fill="#EDDDDD" cx="335.587" cy="415.996" rx="24.495" ry="7.042"/><path fill="#562F2F" d="M358.64 416.207c-.46 3.607-6.71 4.44-9.49 5-4.858.98-9.863 1.137-14.803 1.084-5.016-.052-19.395-.07-21.74-6.156-2.275-5.91 21.603-6.462 24.218-6.435 4.328.045 20.98.194 21.808 6.685.104.818 3.02.185 2.897-.777-.41-3.214-4.912-4.453-7.456-5.237-6.303-1.94-13.184-2.193-19.73-2.124-5.893.063-12.2.658-17.79 2.64-2.472.877-6.513 2.254-6.905 5.322-.407 3.173 5.413 4.788 7.446 5.414 6.303 1.942 13.183 2.194 19.727 2.125 5.895-.063 12.203-.657 17.792-2.64 2.473-.877 6.513-2.253 6.905-5.32.13-.998-2.77-.438-2.88.42z"/><path fill="#F28181" stroke="#562F2F" stroke-miterlimit="10" d="M335.586 423.038c9.697 0 18.076-1.62 22.047-3.97-13.077-6.374-22.805.888-22.805.888-5.81-6.407-16.542-3.89-22.523-1.77 3.2 2.817 12.412 4.852 23.28 4.852z"/></g></g><circle fill="#E5DFDF" stroke="#562F2F" stroke-miterlimit="10" cx="26.603" cy="432.056" r="4.579"/><g><path fill="#58DD94" d="M213.19 470.37c.81-4.273.202-9.362.202-13.636 0-2.237-.61-5.29.813-6.92 2.442-3.052 4.274-.61 4.682-5.29.407-4.683-.61-9.16.61-13.84 1.22-4.478 6.513-9.77 10.177-4.07 3.666 5.698-2.646 24.015 4.48 26.05 4.273 1.222 10.38-4.884 11.192 2.85.408 3.663-1.625 4.273-4.884 4.478-3.052.203-4.478.203-6.104 3.46-.815 1.424-.407 5.087-1.223 6.105-1.016 1.222-5.498.406-7.125.406-2.44 0-11.6 2.85-12.21.205"/><path fill="#562F2F" d="M214.62 470.12c.514-3.484.44-6.928.304-10.44-.143-3.687-1.557-9.842 2.89-11.558 4.613-1.78 2.43-10.657 2.58-14.347.087-2.177.573-3.743 1.458-5.595 1.664-3.48 5.6-3.362 6.98.12.782 1.972.652 4.382.63 6.456-.05 5.047-1.137 10.432.392 15.352.977 3.144 3.945 3.503 6.76 3.128 3.225-.43 6.546-1.706 7.284 2.665.718 4.258-4.496 3.218-7.11 4.17-1.26.46-2.484 1.23-3.17 2.425-.666 1.165-.974 1.886-1.187 3.196-.314 1.94.583 3.993-2.314 3.896-1.77-.06-3.38-.274-5.137-.04-2.117.282-8.547 2.573-9.73.233-.37-.732-3.142.293-2.897.776 1.82 3.602 10.69-.092 13.576.05 2.4.116 5.136.652 7.416-.44 2.557-1.223 1.628-4.714 2.444-6.968 1.396-3.858 5.715-1.965 8.598-3.545 2.495-1.367 2.64-3.166 2.178-5.897-1.113-6.593-10.71 1.13-13.513-3.72-3.228-5.584 4.208-32.298-10.22-25.406-3.046 1.455-4.49 4.994-5.123 8.053-.683 3.307 1.625 13.608-1.894 15.147-2.56 1.12-3.776 2.825-3.998 5.604-.458 5.73.793 11.43-.057 17.188-.108.73 2.756.202 2.86-.503z"/><path fill="#6D5252" d="M241.316 505.673h-32.268l-4.15-27.66h40.57"/><path fill="#562F2F" d="M241.888 504.88h-31.66c-1.184 0 .247.26.24.223-.12-.815-.244-1.63-.366-2.446l-1.385-9.232-2.37-15.8-2.02 1.182h40.567c-.292-.2-.583-.4-.875-.603-1.385 9.22-2.768 18.44-4.15 27.66-.165 1.094 2.75.566 2.892-.38l4.15-27.66c.073-.488-.505-.604-.875-.604H205.47c-.575 0-2.15.325-2.02 1.182l4.148 27.66c.052.344.627.404.877.404h32.27c1.045 0 3.1-1.586 1.143-1.586z"/><path fill="#AF806D" d="M199.896 468.245h49.72v13.916h-49.72z"/><path fill="#562F2F" d="M250.148 481.23h-49.72c.31.26.617.52.924.782v-13.916l-1.992 1.08h49.72l-.924-.783v13.916c0 1.366 2.915.815 2.915-.298v-13.916c0-.51-.428-.782-.922-.782h-49.72c-.563 0-1.99.258-1.99 1.08v13.915c0 .508.428.78.922.78h49.72c1.226.002 3.03-1.86 1.068-1.86z"/><path fill="#48C167" d="M222.98 462.453c1.688 0 2.194-2.213.232-2.213-1.69 0-2.195 2.213-.233 2.213zM226.646 463.083c1.703 0 2.183-2.252.223-2.252-1.704 0-2.184 2.253-.224 2.253zM228.666 459.69c.593 0 3.297-1.16 1.885-1.16-.592 0-3.297 1.16-1.884 1.16zM227.837 454.618c1.615 0 2.257-2.012.286-2.012-1.615 0-2.257 2.012-.286 2.012zM223.976 455.996c.56 0 3.284-1.104 1.9-1.104-.56 0-3.284 1.104-1.9 1.104zM232.072 456.166c.952 0 3.13-1.443 1.18-1.443-.95 0-3.13 1.443-1.18 1.443zM239.845 455.633c1.612 0 2.26-2.006.288-2.006-1.612 0-2.26 2.006-.288 2.006zM226.02 451.705c1.24 0 3.024-1.883 1.064-1.883-1.24 0-3.023 1.883-1.063 1.883zM224.672 443.662c1.28 0 3.007-1.943 1.047-1.943-1.28 0-3.008 1.942-1.048 1.942zM227.514 436.04c1.67 0 2.21-2.163.246-2.163-1.67 0-2.21 2.162-.246 2.162zM224.456 428.96c1.215 0 3.035-1.845 1.073-1.845-1.217 0-3.036 1.846-1.074 1.846zM220.117 453.173c.59 0 3.296-1.154 1.887-1.154-.59 0-3.296 1.153-1.887 1.153zM216.585 455.09c.875 0 3.15-1.324 1.213-1.324-.875 0-3.152 1.324-1.213 1.324zM217.073 461.494c1.266 0 3.013-1.922 1.053-1.922-1.266 0-3.013 1.922-1.053 1.922zM220.328 457.418c1.258 0 3.016-1.91 1.056-1.91-1.26 0-3.017 1.91-1.056 1.91zM219.1 465.877c1.663 0 2.218-2.14.253-2.14-1.663 0-2.218 2.14-.253 2.14zM220.463 449.222c.92 0 3.14-1.395 1.194-1.395-.92 0-3.138 1.395-1.194 1.395zM225.34 447.16c.886 0 3.147-1.343 1.207-1.343-.886 0-3.148 1.344-1.208 1.344zM223.226 439.105c1.176 0 3.05-1.785 1.09-1.785-1.176 0-3.05 1.785-1.09 1.785z"/><g><path fill="#48C167" d="M226.288 432.017c1.22 0 3.033-1.85 1.072-1.85-1.22 0-3.033 1.85-1.072 1.85z"/></g><g><path fill="#48C167" d="M235.99 458.73c1.646 0 2.233-2.093.266-2.093-1.646 0-2.233 2.092-.266 2.092z"/></g><g><path fill="#48C167" d="M226.625 466.327c1.646 0 2.233-2.092.266-2.092-1.645 0-2.232 2.092-.265 2.092z"/></g></g></g><g class="p5_dia"><path fill="#562F2F" d="M188.49 165.573c-21.844-26.754-7.774-68.83 27.04-74.508 15.252-2.488 30.6 3.908 40.738 15.24 10.512 11.748 13.53 28.4 9.346 43.37-.282 1.01 2.626.58 2.894-.376 4.72-16.888.185-34.54-12.216-46.94-11.18-11.178-27.704-15.332-43.012-12.374-14.28 2.76-27.312 12.514-33.655 25.648-8.154 16.884-5.672 36.555 6.17 51.06.613.75 3.397-.26 2.695-1.12z" opacity=".5"/><path fill="#E5DFDF" d="M255.977 202.186l-24.664-31.696c-2.537.52-5.166.797-7.86.797-21.43 0-38.804-17.375-38.804-38.807 0-21.43 17.374-38.804 38.804-38.804 21.435 0 38.808 17.374 38.808 38.804 0 13.88-7.29 26.05-18.247 32.91l11.962 36.796z"/><path fill="#562F2F" d="M257.32 201.612l-24.664-31.696c-.23-.294-.83-.312-1.152-.252-19.042 3.512-37.23-7.32-43.51-25.56-6.102-17.714 2.66-37.614 19.142-45.947 17.26-8.726 37.988-1.142 48.036 14.567 11.185 17.485 4.932 41.134-12.063 52.215-.246.16-.66.482-.545.838l11.963 36.796c.34 1.048 3.225.23 2.897-.776l-11.212-34.49c-.97-2.982-.1-2.176 2.48-4.14 4.64-3.538 8.252-8.324 10.918-13.468 5.14-9.915 5.25-21.8 1.3-32.104-7.557-19.72-30.105-28.767-49.67-22.773-20.057 6.144-31.56 27.33-26.88 47.5 2.522 10.876 10.227 19.927 19.88 25.224 4.387 2.407 9.54 3.925 14.518 4.364 3.118.276 6.166.23 9.276-.09 1.927-.196 1.606-1.18 2.604.103l23.995 30.836c.628.806 3.42-.207 2.687-1.148z"/><path xmlns="http://www.w3.org/2000/svg" fill="#562F2F" d="M215.365 150.438h-3.742l9.533-31.24h3.74l9.535 31.24h-3.743l-2.895-9.465h-9.578l-2.85 9.465zm11.446-12.695l-3.782-12.428-3.833 12.428h7.616z"/></g><g class="p5_dia2"><path fill="#562F2F" d="M106.734 385.55c-30.344-15.84-40.068-55.08-19.97-83.077 1.063-1.48-1.678-1.76-2.397-.757-20.628 28.734-11.285 69.046 20.115 85.436 1.042.545 3.626-.884 2.252-1.6z" opacity=".5"/><circle fill="#E5DFDF" cx="132.03" cy="332.047" r="41.021"/><path fill="#562F2F" d="M171.602 332.436c-.38 23.016-19.376 41.734-42.753 39.798-20.78-1.72-36.057-20.332-36.392-40.575-.38-23.06 19.987-41.687 42.75-39.8 20.78 1.72 36.06 20.332 36.394 40.576.01.574 2.912.11 2.897-.777-.362-21.86-17.097-39.378-38.79-41.174-19.705-1.632-38.354 11.188-44.363 29.84-6.693 20.778 5.254 42.898 25.05 50.715 17.715 6.996 39.923.07 50.622-15.634 4.85-7.118 7.336-15.146 7.478-23.747.01-.55-2.88-.125-2.896.776z"/><g xmlns="http://www.w3.org/2000/svg"><circle fill="#E5DFDF" cx="131.322" cy="333.172" r="23.435"/><path fill="#562F2F" d="M153.308 333.56c-.4 13.82-12.02 24.75-26.172 21.855-10.62-2.172-17.5-12.228-17.8-22.632-.402-13.92 12.708-24.61 26.172-21.856 10.62 2.172 17.5 12.23 17.8 22.634.015.53 2.922.064 2.897-.776-.42-14.59-12.693-24.732-26.994-23.49-12.698 1.105-22.408 11.66-22.772 24.268-.423 14.64 13.313 24.676 26.993 23.487 12.7-1.105 22.41-11.657 22.774-24.266.016-.48-2.87-.09-2.896.777z"/><g><path fill="#562F2F" d="M116.97 320.787l26.047 26.046c.933.934 3.674-.258 2.652-1.28l-26.047-26.045c-.933-.933-3.674.258-2.652 1.28z"/><path fill="#562F2F" d="M143.032 320.254L116.986 346.3c-.62.618 2.132.278 2.625-.214l26.047-26.046c.62-.618-2.132-.278-2.625.214z"/></g></g></g><g class="p5_set" stroke="#562F2F" stroke-width="2" stroke-miterlimit="10"><path fill="#F4EDED" d="M695.582 399.888c0-.53-.04-1.05-.102-1.564l5.615-4.504-4.147-7.186-6.716 2.613c-.833-.622-1.736-1.16-2.7-1.575l-1.093-7.106h-8.3l-1.092 7.106c-.97.415-1.87.953-2.703 1.576l-6.713-2.614-4.148 7.188 5.613 4.502c-.063.515-.102 1.035-.102 1.564 0 .53.04 1.053.102 1.566l-5.613 4.502 4.148 7.187 6.713-2.615c.834.624 1.736 1.16 2.703 1.576l1.09 7.104h8.3l1.093-7.104c.968-.416 1.87-.954 2.704-1.577l6.714 2.616 4.147-7.187-5.615-4.506c.063-.513.102-1.033.102-1.562z"/><circle fill="none" cx="682.226" cy="399.888" r="9.019"/><circle fill="none" cx="682.224" cy="399.888" r="5.354"/></g><g class="p5_static"><ellipse fill="#E5DFDF" cx="439.316" cy="226.508" rx="18.531" ry="10.235"/><path fill="#562F2F" d="M456.4 226.698c-1.068 13.147-31.125 12.433-34.09.353-3.024-12.317 32.913-14.61 34.088-.154.073.905 2.985.295 2.897-.776-1.234-15.188-38.728-14.547-39.958.58-.75 9.23 15.125 10.944 21.095 10.796 6.604-.164 18.196-3.008 18.86-11.178.094-1.135-2.815-.554-2.89.38z"/><path fill="#E5DFDF" stroke="#562F2F" stroke-miterlimit="10" d="M514.92 335.973v-75.23"/><circle fill="#E5DFDF" cx="515.781" cy="256.655" r="17.882"/><path fill="#562F2F" d="M515.904 237.69c-10.15.39-18.24 7.494-19.422 17.672-1.283 11.063 8.353 19.846 18.803 20.248 10.258.395 18.65-7.788 19.796-17.662 1.285-11.063-8.353-19.847-18.803-20.25-1.426-.054-2.952 2.07-.992 2.147 8.604.332 15.083 6.027 16.72 14.432 1.83 9.408-5.587 18.065-14.703 19.124-8.902 1.034-16.145-6.16-17.742-14.368-1.954-10.042 6.405-18.804 16.1-19.177 1.66-.064 2.217-2.24.244-2.165z"/><path fill="#562F2F" d="M505.212 257.76l8.29 7.125c.52.45 1.25.5 1.767 0l13.08-12.693c1.16-1.124-.61-2.89-1.767-1.768L513.5 263.117h1.77l-8.29-7.124c-1.216-1.045-2.993.715-1.768 1.768z"/><circle fill="#E5DFDF" cx="514.92" cy="418.294" r="7.53"/><path fill="#562F2F" d="M515.516 410.062c-4.33.233-8.19 2.473-9.39 6.836-1.41 5.124 3.114 9.36 7.88 9.616 4.394.236 8.546-2.59 9.71-6.823 1.407-5.124-3.115-9.357-7.883-9.614-.748-.04-3.362 1.296-1.826 1.38 6.602.354 9.42 8.542 4.225 12.775-3.506 2.858-7.788-.833-9.008-3.944-1.42-3.62.933-8.593 5.1-8.817.908-.05 3.128-1.512 1.192-1.408z"/><circle fill="#E5DFDF" cx="634.884" cy="453.277" r="7.528"/><path fill="#562F2F" d="M640.946 453.395c-.192 3.58-2.534 6.544-6.376 6.337-3.368-.182-5.583-3.49-5.75-6.57-.192-3.6 2.848-6.53 6.375-6.34 3.37.18 5.585 3.49 5.75 6.573.08 1.5 3 1.017 2.933-.234-.606-11.267-17.397-10.738-17.988.235-.254 4.712 4.288 8.692 8.857 8.446 4.89-.263 8.86-3.667 9.13-8.68.08-1.483-2.862-1.04-2.93.235z"/><path fill="#E5DFDF" d="M634.883 460.806V489.3"/><path fill="#562F2F" d="M633.424 460.947v28.494c0 1.396 2.918.86 2.918-.282v-28.494c0-1.394-2.918-.86-2.918.283z"/><path fill="#86F7CB" d="M55.475 313.637L65.88 324.04l-10.406 10.405-10.404-10.403z"/><path fill="#562F2F" d="M53.744 333.85l-10.36-10.36c.394.395-.537 1.216.16.52l.957-.958 3.6-3.6 5.49-5.493-2.52.277L61.43 324.6c-.396-.394.535-1.215-.163-.518l-.956.956-3.598 3.6-5.49 5.49c-1.243 1.245 1.593 1.415 2.368.64l10.4-10.403c.222-.222.43-.642.154-.917l-10.4-10.406c-.645-.645-1.947-.296-2.52.278L40.82 323.726c-.22.222-.428.642-.153.917l10.402 10.403c.807.808 3.557-.312 2.674-1.195z"/><g><path fill="#E5DFDF" d="M583.87 333.822l10.403 10.405-10.405 10.402-10.402-10.406z"/><path fill="#562F2F" d="M585.244 354.046l-10.36-10.362c.354.355-.542 1.148.145.46l.955-.955 3.6-3.602 5.49-5.49c-.838.1-1.677.202-2.515.304l10.362 10.362c-.356-.355.54-1.148-.146-.46l-.956.955-3.6 3.6-5.49 5.49c-1.224 1.224 1.62 1.28 2.345.557 3.468-3.47 6.936-6.937 10.403-10.404.212-.213.44-.588.17-.86-3.47-3.468-6.937-6.937-10.404-10.404-.614-.615-1.975-.236-2.515.303-3.468 3.47-6.936 6.937-10.403 10.404-.212.213-.44.588-.17.86 3.47 3.468 6.937 6.937 10.403 10.404.763.763 3.512-.336 2.684-1.164z"/></g><g><path fill="#E5DFDF" d="M615.037 304.5l-6.1-6.106-6.11 6.106 6.11 6.104"/><path fill="#562F2F" d="M616.388 303.952l-6.102-6.106c-.545-.546-2.034-.104-2.5.36l-6.107 6.106c-.19.19-.467.472-.203.735l6.108 6.104c.546.546 2.034.105 2.5-.36 2.033-2.034 4.066-4.07 6.1-6.103 1.17-1.17-1.684-.987-2.296-.375l-6.103 6.104 2.5-.36-6.11-6.104-.2.735 6.107-6.106-2.5.36 6.103 6.107c.667.67 3.398-.398 2.7-1.095z"/></g><g><path fill="#E5DFDF" d="M763.025 370.693l6.106 6.105-6.103 6.105-6.106-6.105z"/><path fill="#562F2F" d="M770.473 376.197l-6.105-6.104c-.547-.546-2.033-.105-2.5.36l-6.103 6.104c-.19.19-.466.474-.202.737l6.104 6.105c.547.545 2.034.104 2.5-.36l6.104-6.106c1.17-1.17-1.683-.99-2.296-.377l-6.105 6.105 2.498-.36-6.104-6.105-.202.737 6.104-6.104-2.5.36 6.106 6.104c.67.67 3.4-.398 2.7-1.097z"/></g><g><path fill="#E5DFDF" d="M337.778 144.396l6.104 6.104-6.105 6.105-6.104-6.104z"/><path fill="#562F2F" d="M345.25 150.01l-6.105-6.104c-.505-.504-2.275.2-2.677.602l-6.105 6.104c-.13.13-.195.245-.053.387l6.105 6.104c.504.504 2.275-.2 2.677-.602l6.104-6.105c.617-.617-2.132-.277-2.624.215l-6.104 6.105c.892-.2 1.785-.4 2.677-.602l-6.08-6.08c.174.174-.227.51.13.152l.562-.56 2.113-2.113 3.222-3.222c-.892.2-1.785.4-2.677.602l6.104 6.104c.533.534 3.18-.536 2.73-.988z"/></g><g><path fill="#E5DFDF" d="M204.17 243.608l10.404 10.404-10.404 10.404-10.404-10.404z"/><path fill="#562F2F" d="M205.538 263.937l-10.362-10.362c.197.197.662-.458 1.208-1.004l3.6-3.6 5.49-5.49-2.673.612 10.36 10.362c-.196-.197-.66.458-1.207 1.004l-3.6 3.6-5.49 5.492c-.567.567 2.142.207 2.61-.263l10.403-10.404c.127-.127.203-.21.063-.35l-10.403-10.405c-.465-.465-2.3.24-2.674.613-3.468 3.47-6.936 6.937-10.404 10.405-.128.127-.204.21-.064.35 3.468 3.47 6.936 6.937 10.404 10.405.507.506 3.126-.575 2.738-.963z"/></g><g><path fill="#E5DFDF" d="M224.277 190.343l6.108 6.107-6.106 6.108-6.11-6.107z"/><path fill="#562F2F" d="M225.632 202l-6.083-6.082c.26.26-.22.666.165.28l.562-.56 2.113-2.114 3.223-3.222-2.688.562 6.078 6.08c-.26-.26.22-.665-.166-.28l-.56.562-2.113 2.113c-1.074 1.073-2.147 2.147-3.22 3.222-.775.775 2.087.533 2.668-.048l6.103-6.106c.146-.146.167-.367.02-.514l-6.104-6.105c-.635-.637-2.188.063-2.687.56l-6.107 6.106c-.146.146-.167.367-.02.514l6.108 6.106c.645.643 3.365-.42 2.708-1.076z"/></g><g><path fill="#E5DFDF" d="M688.244 388.7l41.602-77.588"/><path fill="#562F2F" d="M689.633 388.88c13.867-25.864 27.734-51.728 41.602-77.59.783-1.46-2.16-1.505-2.777-.354l-41.602 77.588c-.784 1.46 2.16 1.504 2.777.355z"/><g><circle fill="#E5DFDF" cx="729.845" cy="311.113" r="7.366"/><path fill="#562F2F" d="M721.37 313.716c3.73 10.027 19.672 5.237 16.95-5.207-2.702-10.36-19.658-5.193-16.95 5.206.3 1.145 3.198.374 2.9-.776-.818-3.137.21-6.396 3.252-7.892 3.332-1.638 6.803 1.29 7.898 4.238 1.12 3.015-.442 6.51-3.253 7.892-3.332 1.64-6.803-1.29-7.898-4.238-.423-1.137-3.298-.3-2.9.776z"/></g></g><g><path fill="#E5DFDF" d="M916.522 101.604l10.402 10.405-10.405 10.4-10.403-10.404z"/><path fill="#562F2F" d="M917.902 121.812l-10.36-10.362c.35.35-.542 1.138.144.452.318-.32.638-.638.956-.957l3.6-3.6 5.49-5.49-2.513.308 10.36 10.362c-.35-.35.542-1.138-.144-.452l-.956.957-3.6 3.6-5.49 5.49c-1.22 1.22 1.626 1.258 2.34.543 3.47-3.468 6.937-6.936 10.404-10.404.21-.21.443-.58.17-.852l-10.402-10.404c-.61-.61-1.98-.226-2.513.31-3.47 3.467-6.936 6.935-10.403 10.403-.21.21-.443.58-.17.85 3.466 3.47 6.934 6.937 10.4 10.405.757.755 3.505-.34 2.685-1.16z"/></g><g><path fill="#F9AAAA" d="M917.95 38.354l-6.102-6.106-6.11 6.106 6.11 6.105"/><path fill="#562F2F" d="M919.29 37.775c-2.032-2.036-4.066-4.07-6.1-6.106-.61-.61-1.98-.228-2.514.307l-6.108 6.106c-.21.21-.443.58-.17.852 2.035 2.035 4.07 4.07 6.107 6.104.61.61 1.98.226 2.513-.31 2.034-2.034 4.067-4.07 6.102-6.103 1.22-1.22-1.626-1.26-2.342-.544-2.034 2.035-4.067 4.07-6.102 6.104l2.513-.308-6.11-6.105-.17.852 6.108-6.106-2.513.31 6.102 6.105c.756.756 3.504-.34 2.684-1.16z"/></g></g></svg>