<svg version="1.1" class="图层_1" xmlns="http://www.w3.org/2000/svg" xmlns:xlink="http://www.w3.org/1999/xlink" x="0" y="0" width="960" height="640" viewBox="0 0 960 640" xml:space="preserve"><image xmlns="http://www.w3.org/2000/svg" overflow="visible" width="267" height="171" xmlns:xlink="http://www.w3.org/1999/xlink" xlink:href="./images/CF81EEFE.png" transform="translate(77.596 78.535)" class="p6_txt"/><g class="p6_car"><path xmlns="http://www.w3.org/2000/svg" fill="none" stroke="#562F2F" stroke-miterlimit="10" d="M611.492 391.957l77.613 69.664 125.34 42.552"/><g xmlns="http://www.w3.org/2000/svg"><path fill="#F07578" d="M782.598 524.304c0 4.058 4.5 7.377 10 7.377h65.607c5.5 0 10-3.318 10-7.376s-4.5-7.377-10-7.377h-65.607c-5.5 0-10 3.32-10 7.377z"/><path fill="#562F2F" d="M785.186 527.134c.525 6.822 6.66 6.535 11.623 6.535H860.333c9.527 0 10.86-13.72.64-13.72H802.06c-6.128 0-16.208-1.492-16.874 7.184-.037.498-2.473.05-2.42-.648.773-10.06 15.324-7.57 22.154-7.57h39.373c6.857 0 16.758-1.71 22.967 2.002 2.86 1.71 3.96 5.053 3.232 8.172-.873 3.748-5.076 5.41-8.482 5.615-2.406.145-4.865 0-7.273 0h-45.47c-7.462 0-25.636 3.05-26.5-8.22-.03-.392 2.362-.107 2.42.65z"/><path fill="#562F2F" d="M803.56 519.627c2.923-9.813 11.027-16.314 21.334-16.618 10.198-.302 18.72 7.467 21.5 16.812.52-.502 1.04-1.003 1.562-1.504h-45.674c-1.695 0-2.19 2.23-.23 2.23h45.675c.697 0 1.813-.666 1.563-1.504-7.14-24-41.424-23.622-48.516.194-.49 1.652 2.398 1.697 2.787.39z"/><path fill="#562F2F" d="M817.246 519.044v-15.672c0-.752-2.898-.247-2.898.777v15.67c0 .753 2.898.248 2.898-.776zM826.466 519.294v-10.44c0-1.406-2.92-.88-2.92.278v10.44c0 1.407 2.92.88 2.92-.278z"/><circle fill="#E5DFDF" cx="848.718" cy="534.187" r="6.96"/><path fill="#562F2F" d="M840.31 534.575c.555 10.314 16.3 8.828 16.817-.777.25-4.648-4.69-7.843-8.922-7.152-4.275.696-7.65 3.392-7.896 7.93-.03.572 2.846.172 2.897-.778.215-4 3.575-7.22 7.664-5.103 2.2 1.14 3.232 3.53 3.358 5.88.222 4.114-3.943 7.033-7.665 5.104-2.2-1.142-3.23-3.532-3.356-5.883-.036-.657-2.947-.13-2.898.778z"/><g><circle fill="#E5DFDF" cx="801.392" cy="534.187" r="6.96"/><path fill="#562F2F" d="M792.982 534.575c.554 10.29 16.303 8.79 16.818-.777.25-4.66-4.683-7.808-8.912-7.12-4.262.695-7.66 3.36-7.906 7.897-.027.517 2.85.137 2.898-.777.214-3.985 3.544-7.246 7.663-5.112 2.2 1.14 3.232 3.54 3.358 5.89.223 4.102-3.917 7.054-7.66 5.114-2.203-1.14-3.234-3.54-3.36-5.892-.032-.604-2.944-.092-2.898.777z"/></g></g></g><g class="p6_paper"><path fill="#F5F2F2" d="M759.678 381.957c0 5.5-4.5 10-10 10H456.193c-5.5 0-10-4.5-10-10V88.473c0-5.5 4.5-10 10-10h293.484c5.5 0 10 4.5 10 10v293.484z"/><path fill="#562F2F" d="M757.833 381.62c-.694 10.244-9.175 9.757-16.49 9.757h-275.94c-4.176 0-9.955 1.06-13.673-1.46-4.842-3.275-3.692-11.09-3.692-16.166v-65.775-183.497-26.754c0-4.51-.71-9.817 1.37-13.95 3.026-6.008 11.058-4.72 16.555-4.72H741.99c6.705 0 13.896-1.29 15.75 7.73.734 3.56.093 7.828.093 11.416v283.42c0 .87 3.69 1.2 3.69.675V255.958 95.948c0-5.727.733-11.068-4.108-15.333-3.91-3.445-10.205-2.723-15.073-2.723H455.356c-5.94 0-11.006 4.317-11.006 10.462v292.903c0 8.34 7.576 11.28 14.633 11.28H748.78c6.525 0 12.25-2.934 12.745-10.243.054-.81-3.65-1.27-3.69-.675z"/><path fill="#FFF" d="M546.97 375.24c0 1.65-1.35 3-3 3h-68.622c-1.65 0-3-1.35-3-3V95.19c0-1.65 1.35-3 3-3h68.62c1.65 0 3 1.35 3 3v280.05z"/><path fill="#562F2F" d="M546.604 375.28c-.904 4.454-9.808 2.734-12.666 2.734h-58.284c-4.574 0-2.943-10.742-2.943-12.905v-28.37-183.844-55.33c0-1.676-.467-5.15 2.58-5.15H543.814c3.347 0 2.79 3.835 2.79 5.658V375.28c0 .33.728.188.728-.08V245.645 97.17c0-1.66.096-2.758-.91-4.248-1.3-1.924-7.348-.96-9.076-.96H476.662c-2.24 0-4.678.634-4.678 3.435v278.841c0 6.354 9.93 4.228 14.138 4.228H541.653c2.682 0 5.026-.048 5.68-3.265.063-.306-.673-.194-.73.08z"/><path fill="#C6EDF6" d="M641.73 205.86c0 1.65-1.35 3-3 3h-71.585c-1.65 0-3-1.35-3-3V95.19c0-1.65 1.35-3 3-3h71.584c1.65 0 3 1.35 3 3v110.67z"/><path fill="#562F2F" d="M641.362 205.89c-.886 4.36-9.562 2.715-12.33 2.715H568.3c-4.062 0-3.79-3.625-3.79-6.356v-14.654-46.504-39.732c0-1.782-1.09-8.915 2.617-8.915h70.703c4.13 0 3.532 4.157 3.532 6.748V205.89c0 .37.732.25.732-.062v-71.523-35.94c0-1.89.536-5.663-2.073-6.193-3.09-.628-6.478-.237-9.614-.237H568.908c-2.45 0-5.13.408-5.13 3.577v107.86c0 2.71-.063 5.07 3.24 5.742 2.587.526 5.825 0 8.45 0h59.929c2.956 0 5.952.39 6.698-3.285.07-.348-.668-.25-.732.06z"/><path fill="#C6EDF6" d="M733.523 205.86c0 1.65-1.35 3-3 3H658.94c-1.65 0-3-1.35-3-3V95.19c0-1.65 1.35-3 3-3h71.583c1.65 0 3 1.35 3 3v110.67z"/><path fill="#562F2F" d="M733.156 205.886c-.883 4.345-9.58 2.703-12.333 2.703H660.09c-4.057 0-3.784-3.608-3.784-6.336V187.6v-46.503-39.732c0-1.787-1.093-8.903 2.62-8.903h70.704c4.125 0 3.526 4.138 3.526 6.728v106.696c0 .386.734.28.734-.053V134.31 98.37c0-1.89.535-5.68-2.078-6.212-3.092-.628-6.48-.24-9.615-.24H660.698c-2.45 0-5.125.45-5.125 3.59v107.859c0 2.71-.063 5.088 3.243 5.76 2.59.526 5.825.002 8.45.002h59.931c2.955 0 5.948.374 6.694-3.298.075-.364-.667-.276-.734.054z"/><path fill="#F3F1AE" d="M641.73 340.297c0 1.65-1.35 3-3 3h-71.585c-1.65 0-3-1.35-3-3v-110.67c0-1.65 1.35-3 3-3h71.584c1.65 0 3 1.35 3 3v110.67z"/><path fill="#562F2F" d="M641.37 340.354c-.905 4.455-9.334 2.777-12.222 2.777H568.415c-3.88 0-3.91-2.967-3.91-5.784v-13.883-46.034-40.69-7.2c0-4.325 10.163-2.75 12.22-2.75H637.457c3.88 0 3.91 2.97 3.91 5.786v107.816c0 .154.724.038.724-.193v-71.524-35.94c0-2.463.417-6.275-3.21-6.275h-70.464c-2.322 0-4.634.704-4.634 3.555v107.86c0 2.35-.13 5.586 3.21 5.586h68.723c2.833 0 5.657.298 6.372-3.222.042-.204-.677-.082-.717.116z"/><path fill="#F3F1AE" d="M733.523 340.297c0 1.65-1.35 3-3 3H658.94c-1.65 0-3-1.35-3-3v-110.67c0-1.65 1.35-3 3-3h71.583c1.65 0 3 1.35 3 3v110.67z"/><path fill="#562F2F" d="M733.166 340.36c-.876 4.308-8.282 2.784-11.442 2.784h-61.142c-3.686 0-4.28-2.507-4.28-5.463v-13.487-45.777-41.144-7.696c0-4.192 8.367-2.798 10.76-2.798h61.5c1.93 0 4.6.22 4.6 2.957v110.658c0 .128.724.02.724-.193v-71.523-35.94c0-2.415.43-6.262-3.146-6.262h-70.703c-2.275 0-4.46.788-4.46 3.54v107.86c0 2.305-.15 5.573 3.147 5.573h69.112c2.75 0 5.357.173 6.046-3.216.037-.175-.677-.058-.714.125z"/><path fill="#86F7CB" d="M581.318 376.24c0 1.1-.9 2-2 2h-13.174c-1.1 0-2-.9-2-2v-13.176c0-1.1.9-2 2-2h13.174c1.1 0 2 .9 2 2v13.176z"/><path fill="#562F2F" d="M580.955 376.283c-.568 2.796-5.878 1.743-7.744 1.743h-6.88c-3.24 0-1.822-12.958-1.822-15.005 0-3.163 12.538-1.742 14.626-1.742 3.24 0 1.82 12.958 1.82 15.005 0 .314.728.163.728-.086v-9.557c0-1.89.714-5.79-2.27-5.79H569.3c-2.2 0-4.955-.523-5.52 2.257-.596 2.926 0 6.574 0 9.557 0 1.89-.715 5.79 2.27 5.79h10.11c2.2 0 4.954.523 5.52-2.257.058-.29-.674-.17-.727.086z"/><path fill="#F07578" d="M641.73 376.24c0 1.1-.9 2-2 2h-13.177c-1.1 0-2-.9-2-2v-13.176c0-1.1.9-2 2-2h13.176c1.1 0 2 .9 2 2v13.176z"/><path fill="#562F2F" d="M641.367 376.287c-.57 2.808-5.866 1.752-7.744 1.752-2.204 0-6.188.795-8.146-.527-1.327-.897-.563-5.75-.563-6.938v-7.56c0-2.743 6.356-1.75 7.743-1.75 2.204 0 6.188-.795 8.146.527 1.414.956.563 6.34.563 7.617v6.927c0 .218.725.083.725-.193v-9.557c0-1.897.686-5.724-2.265-5.724h-10.11c-2.19 0-4.96-.522-5.523 2.248-.56 2.75 0 6.18 0 8.978 0 1.943-.833 6.354 2.265 6.354h10.11c2.19 0 4.96.522 5.523-2.248.055-.27-.674-.148-.723.093z"/><path fill="#86F7CB" d="M673.115 376.24c0 1.1-.9 2-2 2H657.94c-1.1 0-2-.9-2-2v-13.176c0-1.1.9-2 2-2h13.175c1.1 0 2 .9 2 2v13.176z"/><path fill="#562F2F" d="M672.747 376.264c-.554 2.722-6.08 1.695-7.852 1.695h-6.882c-3.065 0-1.706-12.937-1.706-14.92 0-3.067 12.726-1.694 14.733-1.694 3.066 0 1.707 12.935 1.707 14.918 0 .397.736.302.736-.047v-9.556c0-1.93.69-5.877-2.34-5.877h-9.557c-2.337 0-5.413-.66-6.016 2.305-.595 2.926 0 6.574 0 9.556 0 1.932-.69 5.878 2.34 5.878h9.557c2.337 0 5.413.66 6.016-2.305.078-.377-.667-.296-.736.047z"/><path fill="#7DCAF9" d="M733.523 376.24c0 1.1-.9 2-2 2H718.35c-1.1 0-2-.9-2-2v-13.176c0-1.1.9-2 2-2h13.174c1.1 0 2 .9 2 2v13.176z"/><path fill="#562F2F" d="M733.162 376.288c-.57 2.81-5.86 1.755-7.742 1.755-2.207 0-6.186.795-8.146-.53-1.327-.896-.563-5.75-.563-6.938v-7.56c0-2.748 6.352-1.753 7.742-1.753 2.207 0 6.186-.795 8.146.53 1.414.955.563 6.34.563 7.617v6.927c0 .212.726.078.726-.193v-9.557c0-1.898.686-5.72-2.266-5.72h-10.108c-2.188 0-4.96-.522-5.523 2.245-.56 2.75-.002 6.177-.002 8.976 0 1.944-.833 6.35 2.266 6.35h10.108c2.188 0 4.96.522 5.523-2.245.053-.263-.675-.142-.723.095z"/><path fill="#C6EDF6" d="M532.36 360.62c0 2.2-1.8 4-4 4h-37.8c-2.2 0-4-1.8-4-4v-10.95c0-2.2 1.8-4 4-4h37.8c2.2 0 4 1.8 4 4v10.95z"/><path fill="#562F2F" d="M531.768 118.537c0 .275-.225.5-.5.5h-43.22c-.274 0-.5-.225-.5-.5v-6.498c0-.276.226-.5.5-.5h43.22c.275 0 .5.224.5.5v6.497z" opacity=".5"/><path fill="#F5F2F2" d="M625.045 170.947c0 .55-.45 1-1 1h-42.22c-.55 0-1-.45-1-1v-5.5c0-.55.45-1 1-1h42.22c.55 0 1 .45 1 1v5.5z"/><path fill="#562F2F" d="M624.703 170.923c-.73 1.756-6.35.79-7.88.79H582.08c-1.504 0-.89-5.206-.89-6.113 0-1.914 23.27-.918 25.55-.918h17.14c1.378 0 .8 5.465.8 6.303 0 .343.73.207.73-.073 0-2.635 1.222-6.697-2.275-6.697h-35.998c-1.795 0-5.77-.907-6.652 1.21-.807 1.94-.843 6.757 1.94 6.757h35.617c1.85 0 6.422 1.01 7.346-1.21.148-.36-.578-.305-.685-.05z"/><path fill="#F5F2F2" d="M602.936 183.977c0 .55-.45 1-1 1h-20.11c-.55 0-1-.45-1-1v-3.53c0-.55.45-1 1-1h20.11c.55 0 1 .45 1 1v3.53z"/><path fill="#562F2F" d="M602.576 184.03c-.856 2.06-10.7.77-12.687.77h-6.802c-2.453 0-1.9-2.286-1.9-4.188 0-1.987 11.173-.99 12.684-.99h6.8c2.533 0 1.9 2.52 1.9 4.452 0 .172.726.05.726-.194 0-1.37.764-4.607-1.402-4.607H583.09c-1.233 0-2.1-.028-2.622 1.23-.432 1.037-.508 4.65 1.26 4.65h18.489c1.36 0 2.488.19 3.08-1.23.073-.182-.634-.1-.72.108z"/><path fill="#F5F2F2" d="M625.045 183.977c0 .55-.45 1-1 1h-14.828c-.55 0-1-.45-1-1v-3.53c0-.55.45-1 1-1h14.828c.55 0 1 .45 1 1v3.53z"/><path fill="#562F2F" d="M624.682 184.02c-.757 1.817-8.158.74-9.855.74h-4.904c-1.938 0-1.342-3.06-1.342-4.354 0-1.48 8.783-.74 9.856-.74h4.904c1.937 0 1.342 3.058 1.342 4.353 0 .32.727.17.727-.085 0-1.39.706-4.257-1.146-4.694-1.662-.392-3.856-.01-5.553-.01h-8.133c-1.29 0-2.172-.067-2.724 1.26-.487 1.17-.396 4.33 1.145 4.693 1.662.393 3.856.01 5.553.01h8.135c1.29 0 2.172.068 2.724-1.258.102-.25-.625-.165-.728.084z"/><path fill="#F5F2F2" d="M625.045 306.764c0 .55-.45 1-1 1h-42.22c-.55 0-1-.45-1-1v-5.502c0-.55.45-1 1-1h42.22c.55 0 1 .45 1 1v5.502z"/><path fill="#562F2F" d="M624.696 306.713c-.722 1.733-6.537.768-7.978.768h-34.743c-1.346 0-.78-5.21-.78-6.052 0-1.84 23.464-.883 25.65-.883h17.14c1.212 0 .69 5.467.69 6.24 0 .4.736.307.736-.044 0-2.318 1.237-6.762-2.072-6.762h-35.616c-1.896 0-6.315-1.005-7.246 1.232-.71 1.704-.885 6.836 1.796 6.836H617.42c1.956 0 7 1.106 7.973-1.232.167-.397-.564-.42-.697-.1z"/><path fill="#F5F2F2" d="M602.936 319.79c0 .55-.45 1-1 1h-20.11c-.55 0-1-.45-1-1v-3.526c0-.55.45-1 1-1h20.11c.55 0 1 .45 1 1v3.527z"/><path fill="#562F2F" d="M602.573 319.836c-.844 2.027-10.743.748-12.69.748h-6.803c-2.423 0-1.892-2.506-1.892-4.365 0-1.524 11.436-.75 12.69-.75h6.803c2.424 0 1.893 2.507 1.893 4.366 0 .306.725.15.725-.09 0-1.132.755-4.69-1.27-4.69h-18.49c-1.387 0-2.474-.19-3.073 1.253-.414.995-.516 4.688 1.27 4.688h18.492c1.387 0 2.474.19 3.073-1.252.098-.234-.625-.15-.725.09z"/><path fill="#F5F2F2" d="M625.045 319.79c0 .55-.45 1-1 1h-14.828c-.55 0-1-.45-1-1v-3.526c0-.55.45-1 1-1h14.828c.55 0 1 .45 1 1v3.527z"/><path fill="#562F2F" d="M624.687 319.85c-.78 1.873-8.084.78-9.845.78h-4.904c-1.987 0-1.358-3.02-1.358-4.312 0-1.77 9.172-.894 10.468-.894h4.52c1.723 0 1.116 3.442 1.116 4.464 0 .146.725.033.725-.194 0-1.135.71-4.59-1.21-4.59h-13.607c-1.248 0-2.196-.072-2.733 1.22-.418 1.003-.45 4.5 1.127 4.627 1.824.15 3.722.002 5.55.002h8.135c1.248 0 2.196.07 2.733-1.22.063-.154-.636-.08-.718.118z"/><path fill="#F5F2F2" d="M717.88 306.764c0 .55-.45 1-1 1h-42.222c-.55 0-1-.45-1-1v-5.502c0-.55.45-1 1-1h42.22c.55 0 1 .45 1 1v5.502z"/><path fill="#562F2F" d="M717.53 306.715c-.722 1.736-6.533.77-7.978.77h-34.746c-1.346 0-.78-5.216-.78-6.058 0-1.846 23.46-.886 25.65-.886h17.142c1.21 0 .69 5.473.69 6.248 0 .396.735.298.735-.048 0-2.32 1.237-6.757-2.072-6.757h-35.617c-1.894 0-6.317-1.004-7.248 1.23-.71 1.705-.885 6.83 1.794 6.83h35.15c1.953 0 7.002 1.105 7.975-1.23.165-.396-.565-.413-.697-.098z"/><path fill="#F5F2F2" d="M695.77 319.79c0 .55-.45 1-1 1h-20.11c-.55 0-1-.45-1-1v-3.526c0-.55.45-1 1-1h20.11c.55 0 1 .45 1 1v3.527z"/><path fill="#562F2F" d="M695.41 319.842c-.853 2.046-10.72.76-12.69.76h-6.802c-2.45 0-1.897-2.27-1.897-4.174 0-1.962 11.195-.976 12.69-.976h6.8c2.53 0 1.897 2.5 1.897 4.436 0 .195.725.067.725-.194 0-1.364.76-4.62-1.406-4.62H675.92c-1.244 0-2.095-.025-2.62 1.24-.43 1.032-.507 4.665 1.262 4.665H693.055c1.37 0 2.482.19 3.076-1.24.085-.203-.63-.12-.72.102z"/><path fill="#F5F2F2" d="M717.88 319.79c0 .55-.45 1-1 1h-14.83c-.55 0-1-.45-1-1v-3.526c0-.55.45-1 1-1h14.83c.55 0 1 .45 1 1v3.527z"/><path fill="#562F2F" d="M717.516 319.832c-.756 1.816-8.16.74-9.855.74h-4.903c-1.938 0-1.342-3.056-1.342-4.35 0-1.477 8.784-.74 9.855-.74h4.904c1.937 0 1.342 3.056 1.342 4.35 0 .323.727.176.727-.082 0-1.397.706-4.248-1.145-4.694-1.655-.4-3.863-.01-5.554-.01h-8.134c-1.29 0-2.17-.068-2.723 1.26-.49 1.178-.393 4.322 1.145 4.693 1.655.398 3.863.01 5.554.01h8.134c1.29 0 2.17.067 2.723-1.26.105-.252-.623-.17-.727.082z"/><path fill="#F5F2F2" d="M717.88 170.947c0 .55-.45 1-1 1h-42.222c-.55 0-1-.45-1-1v-5.5c0-.55.45-1 1-1h42.22c.55 0 1 .45 1 1v5.5z"/><path fill="#562F2F" d="M717.533 170.91c-.728 1.748-6.515.778-7.975.778h-34.744c-1.354 0-.79-5.24-.79-6.082 0-1.876 23.442-.9 25.647-.9h17.144c1.22 0 .697 5.497.697 6.27 0 .374.733.26.733-.06 0-2.33 1.24-6.73-2.065-6.73H680.56c-1.876 0-6.324-1-7.25 1.222-.71 1.71-.888 6.798 1.787 6.798h35.15c1.937 0 7.01 1.103 7.977-1.22.16-.38-.57-.366-.69-.077z"/><path fill="#F5F2F2" d="M695.77 183.977c0 .55-.45 1-1 1h-20.11c-.55 0-1-.45-1-1v-3.53c0-.55.45-1 1-1h20.11c.55 0 1 .45 1 1v3.53z"/><path fill="#562F2F" d="M695.408 184.026c-.85 2.04-10.727.757-12.69.757h-6.802c-2.45 0-1.896-2.267-1.896-4.17 0-1.954 11.2-.972 12.69-.972h6.8c2.53 0 1.897 2.5 1.897 4.434 0 .205.725.073.725-.194 0-1.362.76-4.625-1.407-4.625H675.918c-1.247 0-2.092-.026-2.62 1.243-.43 1.03-.505 4.673 1.266 4.673h18.493c1.375 0 2.48.19 3.076-1.242.087-.213-.63-.128-.724.098z"/><path fill="#F5F2F2" d="M717.88 183.977c0 .55-.45 1-1 1h-14.83c-.55 0-1-.45-1-1v-3.53c0-.55.45-1 1-1h14.83c.55 0 1 .45 1 1v3.53z"/><path fill="#562F2F" d="M717.535 183.943c-.537 1.29-2.608.784-3.714.784h-11.166c-1.807 0-1.237-2.947-1.237-4.16 0-1.708 8.807-.87 9.954-.87h4.905c1.828 0 1.237 3.08 1.237 4.312 0 .363.732.24.732-.064 0-1.684.662-3.975-1.154-4.73-1.1-.458-3.252-.017-4.413-.017h-8.514c-1.45 0-2.815-.33-3.457 1.215-.235.564-.414 4.152.426 4.5 1.55.646 3.47.312 5.12.312h8.513c1.45 0 2.815.328 3.457-1.216.156-.373-.572-.343-.687-.067z"/><path fill="#562F2F" d="M531.768 138.676c0 .275-.225.5-.5.5h-43.22c-.274 0-.5-.225-.5-.5v-6.5c0-.275.226-.5.5-.5h43.22c.275 0 .5.225.5.5v6.5z" opacity=".5"/><g opacity=".5"><path fill="#562F2F" d="M531.768 158.81c0 .276-.225.5-.5.5h-43.22c-.274 0-.5-.224-.5-.5v-6.5c0-.274.226-.5.5-.5h43.22c.275 0 .5.226.5.5v6.5z"/></g><g opacity=".5"><path fill="#562F2F" d="M531.768 178.947c0 .275-.225.5-.5.5h-43.22c-.274 0-.5-.225-.5-.5v-6.5c0-.275.226-.5.5-.5h43.22c.275 0 .5.225.5.5v6.5z"/></g><g opacity=".5"><path fill="#562F2F" d="M531.768 199.084c0 .275-.225.5-.5.5h-43.22c-.274 0-.5-.225-.5-.5v-6.502c0-.275.226-.5.5-.5h43.22c.275 0 .5.225.5.5v6.502z"/></g><g opacity=".5"><path fill="#562F2F" d="M531.768 219.22c0 .274-.225.5-.5.5h-43.22c-.274 0-.5-.226-.5-.5v-6.5c0-.276.226-.5.5-.5h43.22c.275 0 .5.224.5.5v6.5z"/></g><g opacity=".5"><path fill="#562F2F" d="M531.768 239.355c0 .275-.225.5-.5.5h-43.22c-.274 0-.5-.225-.5-.5v-6.5c0-.275.226-.5.5-.5h43.22c.275 0 .5.225.5.5v6.5z"/></g><g opacity=".5"><path fill="#562F2F" d="M531.768 259.492c0 .275-.225.5-.5.5h-43.22c-.274 0-.5-.225-.5-.5v-6.502c0-.275.226-.5.5-.5h43.22c.275 0 .5.225.5.5v6.502z"/></g><g opacity=".5"><path fill="#562F2F" d="M531.768 279.627c0 .275-.225.5-.5.5h-43.22c-.274 0-.5-.225-.5-.5v-6.5c0-.275.226-.5.5-.5h43.22c.275 0 .5.225.5.5v6.5z"/></g><g opacity=".5"><path fill="#562F2F" d="M531.768 299.762c0 .275-.225.5-.5.5h-43.22c-.274 0-.5-.225-.5-.5v-6.498c0-.275.226-.5.5-.5h43.22c.275 0 .5.225.5.5v6.498z"/></g><g opacity=".5"><path fill="#562F2F" d="M531.768 319.898c0 .275-.225.5-.5.5h-43.22c-.274 0-.5-.225-.5-.5v-6.5c0-.275.226-.5.5-.5h43.22c.275 0 .5.225.5.5v6.5z"/></g><g><circle fill="#FFF" cx="710.525" cy="115.52" r="5.23"/><path fill="#562F2F" d="M715.394 115.617c-.19 3.535-3.617 6.133-7.168 4.293-1.67-.866-2.473-2.702-2.568-4.488-.196-3.638 3.993-5.938 7.168-4.294 1.67.866 2.472 2.703 2.568 4.49.008.142.736.016.725-.195-.384-7.112-10.815-6.702-11.187.194-.38 7.088 10.815 6.688 11.186-.194.005-.12-.715-.03-.726.194z"/></g><g><path fill="#FFF" d="M701.05 120.52l-14.314 19.443h29.81"/><path fill="#562F2F" d="M700.72 120.532l-14.315 19.443c-.1.134.085.16.182.16h29.81c.097 0 .633-.123.488-.304-5.164-6.48-10.33-12.96-15.494-19.442-.127-.16-.82.083-.677.263l13.298 16.69c.69.866 1.382 1.732 2.072 2.6.162.202.937-.148.234-.148H689.986c-2.922 0-3.34.733-1.575-1.665l12.973-17.62c.167-.226-.548-.133-.664.025z"/></g><g><path fill="#FFF" d="M687.28 123.68l-11.99 16.283h24.964"/><path fill="#562F2F" d="M686.978 123.578l-11.99 16.283c-.168.23.047.36.268.36h24.965c.17 0 .533-.208.367-.416l-12.975-16.283c-.2-.25-.89.032-.664.316l10.947 13.74 1.882 2.36c.014.017.685-.232-.67-.232h-23.581c-.336 0 .002.448.21.165l1.03-1.4 10.817-14.69c.272-.368-.414-.46-.604-.202z"/></g><g><circle fill="#FFF" cx="616.062" cy="115.52" r="5.231"/><path fill="#562F2F" d="M620.93 115.617c-.19 3.538-3.612 6.137-7.167 4.295-1.672-.866-2.475-2.703-2.57-4.49-.196-3.64 3.99-5.942 7.17-4.296 1.67.866 2.472 2.704 2.568 4.49.008.132.736.01.726-.193-.383-7.107-10.816-6.693-11.188.194-.38 7.084 10.817 6.68 11.188-.194.005-.11-.714-.022-.725.194z"/></g><g><path fill="#FFF" d="M606.586 120.52l-14.313 19.443h29.81"/><path fill="#562F2F" d="M606.244 120.497c-4.77 6.48-9.54 12.962-14.313 19.443-.103.142.09.255.21.255h29.808c.142 0 .66-.14.468-.382L606.92 120.37c-.178-.223-.873.043-.668.3l13.3 16.688 2.072 2.6c.156.196.91-.226.212-.226H592.578c.183 0 .817-.808 1.38-1.57 4.322-5.872 8.645-11.745 12.97-17.618.214-.292-.525-.264-.684-.047z"/></g><g><path fill="#FFF" d="M592.814 123.68l-11.988 16.283h24.965"/><path fill="#562F2F" d="M592.457 123.74c-3.996 5.43-7.992 10.856-11.988 16.284-.05.067.094.092.123.092h24.965c.09 0 .715-.103.574-.28l-12.977-16.282c-.114-.144-.802.1-.682.25l10.95 13.74 1.88 2.36c.158.198 1.03-.096-.462-.096h-20.927c-2.517 0-3.142.653-1.556-1.5l10.814-14.69c.06-.08-.584-.052-.713.123z"/></g><g><circle fill="#FFF" cx="616.062" cy="251.934" r="5.231"/><path fill="#562F2F" d="M620.927 251.963c-.157 2.918-2.28 5.077-5.308 4.914-2.597-.14-4.295-2.584-4.424-4.973-.158-2.934 2.548-5.064 5.31-4.916 2.596.14 4.292 2.586 4.42 4.975.02.373.75.25.733-.06-.386-7.154-10.816-6.998-11.196.06-.158 2.932 2.668 5.614 5.564 5.458 3.116-.167 5.46-2.36 5.63-5.517.022-.368-.715-.257-.73.06z"/></g><g><path fill="#FFF" d="M606.586 256.934l-14.313 19.443h29.81"/><path fill="#562F2F" d="M606.246 256.917c-4.77 6.48-9.54 12.962-14.313 19.443-.104.14.087.236.203.236h29.81c.132 0 .655-.135.47-.367-5.164-6.482-10.33-12.963-15.495-19.444-.166-.21-.863.05-.67.293 4.435 5.562 8.867 11.124 13.3 16.687l2.073 2.6c.157.196.916-.21.216-.21h-29.26c.172 0 .84-.864 1.375-1.59l12.97-17.618c.207-.28-.53-.237-.68-.033z"/></g><g><path fill="#FFF" d="M592.814 260.092l-11.988 16.285h24.965"/><path fill="#562F2F" d="M592.51 259.98l-11.988 16.285c-.168.23.05.382.274.382h24.965c.18 0 .53-.22.362-.432-4.325-5.428-8.65-10.857-12.977-16.285-.21-.264-.898.026-.662.322l10.95 13.74 1.88 2.363s.69-.25-.675-.25h-23.581c-.342 0 .002.48.217.188.344-.466.688-.933 1.03-1.4l10.815-14.69c.274-.373-.41-.496-.61-.223z"/></g><g><circle fill="#FFF" cx="711.858" cy="251.934" r="5.231"/><path fill="#562F2F" d="M716.728 251.98c-.165 3.063-2.492 5.4-5.77 4.867-2.2-.358-3.605-2.393-3.94-4.44-.533-3.28 2.614-5.898 5.74-5.39 2.424.395 3.847 2.748 3.97 5.013.012.232.738.083.724-.194-.382-7.102-10.813-6.796-11.188.143-.383 7.12 10.813 6.855 11.188-.093.016-.295-.712-.148-.724.092z"/></g><g><path fill="#FFF" d="M702.383 256.934l-14.315 19.443h29.81"/><path fill="#562F2F" d="M702.082 256.834l-14.314 19.443c-.168.228.047.354.266.354h29.81c.166 0 .533-.204.368-.41l-15.496-19.444c-.197-.248-.89.032-.664.313l13.3 16.687 2.07 2.6c.14.175.768-.256.113-.256h-29.262c.3 0 .715-.486 1.44-1.47l12.97-17.618c.272-.368-.413-.453-.6-.198z"/></g><g><path fill="#FFF" d="M688.61 260.092l-11.987 16.285h24.965"/><path fill="#562F2F" d="M688.28 260.107l-11.988 16.285c-.098.133.084.15.18.15h24.965c.094 0 .63-.12.49-.295l-12.976-16.285c-.123-.156-.815.088-.68.26l10.95 13.74 1.882 2.362c.134.168.857-.113-.546-.113H679.63c-2.597 0-3.074.697-1.5-1.44l10.814-14.692c.162-.22-.548-.125-.662.03z"/></g><g><path fill="#562F2F" d="M502.85 359.38c1.88-.065 3.525-1.04 4.46-2.678 1.066-1.868.204-3.764-1.737-4.463-1.512-.546-3.835-.97-4.913.562-.683.972-.69 2.597-.265 3.654.43 1.07 1.702 1.787 2.445 2.62.135.153.818-.102.68-.257-1.093-1.23-2.52-1.976-2.666-3.76-.075-.917.146-2.15.897-2.77.74-.61 2.45.03 3.233.252 4.034 1.147 1.404 6.394-1.83 6.507-.215.008-.787.347-.302.33zM513.298 349.362c-.115-1.843-1.907-.79-2.704-.015-.904.88-.87 2.273-.867 3.438.007 2.332-.004 4.665.006 6.998.002.35.73.216.73-.07-.01-2.13-.067-4.258 0-6.387.026-.856-.01-1.68.103-2.534.1-.74 1.906-2.852 2.008-1.236.018.29.743.126.724-.194zM518.77 349.75c-1.354-1.395-2.806-1.495-3.815.292-.52.923-.78 2.28-.692 3.32.157 1.88 1.19 4.315-.205 5.94-.294.34.403.408.598.18 1.082-1.258.856-2.808.605-4.343-.184-1.132-.324-2.173-.152-3.317.252-1.667 1.278-3.537 2.996-1.768.21.218.898-.066.665-.306z"/><path fill="#562F2F" d="M507.934 354.237h10.2c.407 0 .564-.51.07-.51h-10.2c-.406 0-.563.51-.07.51z"/></g></g><g fill="#552E2E" class="p6_bg" opacity=".4"><path opacity=".4" d="M36.813 32.23h-22.41c.334 0 .168-20.022.168-22.333 0 .3-.847.224.183.224H36.47c-.333 0-.167 20.058-.167 22.38 0 .17.726.05.726-.193V9.85c0-.077-.172-.075-.213-.075H14.358c-.142 0-.512.077-.512.27V32.5c0 .08.172.077.213.077h22.454c.23 0 .786-.346.3-.346zM70.588 67.642h-22.41c.157 0 .08-20.192.08-22.37 0 .248-1.018.19.093.19h21.717c-.157 0-.08 20.226-.08 22.415 0 .096.726-.002.726-.194V45.227c0-.042-.108-.04-.125-.04H48.132c-.115 0-.6.062-.6.234v22.457c0 .042.108.04.125.04h22.456c.14 0 .82-.275.475-.275z"/></g><g class="p6_bub1"><path fill="#F3F1AE" d="M350.6 486.608c0 7.408-6.012 13.424-13.43 13.424s-13.424-6.016-13.424-13.424c0-7.423 6.006-13.435 13.424-13.435s13.43 6.013 13.43 13.435z"/><path fill="#562F2F" d="M348.882 487.702c-.4 7.944-6.517 13.975-14.962 12.686-5.782-.883-9.55-6.202-10.375-11.61-1.293-8.476 6.793-15.207 14.886-13.972 6.33.966 10.15 7.06 10.45 12.99.02.408 1.474.126 1.448-.39-.91-18.036-27.407-17.382-28.3.296-.424 8.435 7.522 14.02 15.23 13.632 7.364-.372 12.71-6.787 13.067-13.835.028-.544-1.42-.233-1.443.202z"/></g><g class="p6_bub2"><path fill="#F3F1AE" d="M62.29 214.363c0 7.41-6.012 13.426-13.43 13.426-7.413 0-13.423-6.018-13.423-13.427 0-7.42 6.01-13.432 13.424-13.432 7.42.002 13.43 6.012 13.43 13.433z"/><path fill="#562F2F" d="M60.564 215.416c-.383 7.592-5.978 13.183-13.815 12.787-6.75-.34-11.258-6.65-11.574-12.906-.385-7.626 6.635-13.152 13.81-12.79 6.752.34 11.262 6.65 11.578 12.91.038.745 1.497.5 1.466-.12-.916-18.13-27.413-17.838-28.32.12-.374 7.432 6.728 14.253 14.09 13.88 7.883-.397 13.827-6.025 14.23-14 .037-.738-1.434-.514-1.466.12z"/></g><g class="p6_build"><path fill="#FBD3D5" d="M219.653 539.098h-52.166l3.726-183.96h44.713"/><path fill="#562F2F" d="M218.17 540.542h-51.78c-.55 0 .31 1.178.333.07.02-.916.037-1.832.056-2.747.49-24.245.98-48.49 1.473-72.735.73-35.97 1.457-71.938 2.186-107.905l-1.487.84h43.73c1.53 0 .268-.987.285-.19l.138 6.807 1.615 79.724 1.966 96.977c.022 1.084 2.212.7 2.193-.195l-3.035-149.797c-.23-11.387-.46-22.775-.692-34.163-.008-.387-.314-.644-.708-.644h-44.713c-.464 0-1.473.19-1.486.84l-3.035 149.796-.69 34.163c-.01.388.325.644.707.644h52.166c.973-.003 2.245-1.485.776-1.485z"/><path fill="#562F2F" d="M204.542 540.865H182.21c-1.238 0-.784-.12-.792.267l.066-3.24.826-40.747.762-37.555.025-1.26c.013-.64-1.604.256-.47.256h19.143c.81 0 .083-.395.092.026.01.522.02 1.045.032 1.567l1.645 81.297c.01.47 1.46.183 1.448-.39-.56-27.704-1.12-55.41-1.682-83.114-.004-.175-.33-.224-.445-.224H182.66c-.255 0-.997.132-1.005.506l-1.686 83.115c-.005.248.223.33.445.33h23.57c.55 0 1.54-.835.56-.835z"/><path fill="#86F7CB" d="M215.227 384.514h-44.713l-11.178-14.15h67.07"/><path fill="#562F2F" d="M214.29 384.056H171.716c-1.76 0-1.682.258-2.44-.7L158.72 369.99l-1.723.834h66.592c.715 0 .177-.37-.43.397l-3.78 4.785-6.777 8.58c-.453.573 1.644.273 1.973-.143l11.178-14.148c.2-.255-.003-.387-.286-.387H158.4c-.267 0-2.138.308-1.723.834l10.557 13.365c1.636 2.07 7.112.866 9.463.866h36.193c.47.002 2.48-.914 1.4-.914zM174.97 458.693h34.72c.825 0 1.116-1.05.132-1.05h-34.72c-.825 0-1.116 1.05-.132 1.05z"/><path fill="#562F2F" d="M191.66 458.217v25.34c0 .786 1.473.587 1.473-.098v-25.34c0-.787-1.472-.588-1.472.097zM191.67 508.78v32.587c0 .638 1.453.338 1.453-.168v-32.587c0-.637-1.452-.338-1.452.168zM190.98 370.56v18.63c0 .438 1.448.167 1.448-.39v-18.63c0-.44-1.45-.167-1.45.39zM205.886 370.49l-3.31 11.343c-.87 2.977-.83 5.45-.83 8.598 0 .26 1.45.044 1.45-.388 0-3.357.066-5.91.997-9.098l3.123-10.703c.095-.32-1.32-.128-1.43.25zM176.084 370.56l3.122 10.702c.926 3.176 1 5.7 1 9.048 0 .688 1.458.414 1.458-.146 0-3.157.05-5.66-.823-8.648l-3.308-11.344c-.17-.59-1.617-.194-1.448.388z"/><path fill="#F3F1AE" d="M219.698 423.092c0 14.473-11.736 26.21-26.21 26.21s-26.21-11.737-26.21-26.21c0-14.48 11.738-26.21 26.21-26.21s26.21 11.73 26.21 26.21z"/><path fill="#562F2F" d="M217.877 423.165c-.38 14.583-11.848 26.02-26.605 25.633-13.758-.36-24.012-12.575-24.356-25.78-.38-14.603 12.438-26.002 26.607-25.632 13.76.358 24.01 12.573 24.354 25.78.018.688 1.473.41 1.458-.147-.375-14.393-11.98-26.992-26.856-26.604-14.842.387-26.633 11.807-27.023 26.75-.376 14.41 12.542 26.976 26.858 26.602 14.842-.388 26.63-11.81 27.02-26.75.018-.684-1.444-.417-1.458.147z"/><path fill="#E5DFDF" d="M209.756 423.092c0 9.586-7.77 17.363-17.36 17.363s-17.36-7.777-17.36-17.363c0-9.592 7.773-17.36 17.36-17.36s17.36 7.768 17.36 17.36z"/><path fill="#FFF" d="M208.307 423.48c-.417 10.84-9.892 19.234-21 15.254-6.728-2.41-10.56-9.19-10.823-16.03-.424-11.023 10.697-18.94 21.002-15.253 6.73 2.41 10.558 9.19 10.82 16.03.017.412 2.927-.033 2.898-.777-.914-23.743-36.738-22.103-37.618.777-.437 11.336 10.547 18.498 20.854 17.302 9.374-1.09 16.404-8.716 16.764-18.08.015-.345-2.866-.01-2.897.778z"/><g><path fill="#FFF" d="M197.33 496.34c0 2.723-2.21 4.936-4.934 4.936-2.727 0-4.936-2.213-4.936-4.936 0-2.73 2.21-4.938 4.936-4.938 2.725 0 4.934 2.21 4.934 4.938z"/></g></g><g class="p6_static"><path fill="#562F2F" d="M286.413 506.29v47.353c0 .575 4.347-.01 4.347-1.164v-47.355c0-.575-4.347.01-4.347 1.164z"/><path fill="#86F7CB" d="M301.916 451.28c0 5.712-4.627 10.34-10.34 10.34-5.707 0-10.338-4.628-10.338-10.34s4.63-10.337 10.338-10.337c5.713 0 10.34 4.625 10.34 10.338zM313.934 484.195c0 12.348-10.012 22.36-22.357 22.36s-22.357-10.013-22.357-22.36c0-12.344 10.012-22.357 22.357-22.357s22.357 10.014 22.357 22.357z"/><path fill="#562F2F" d="M298.2 451.476c-.383 7.105-7.216 12.073-14.15 8.48-3.302-1.712-4.887-5.338-5.077-8.868-.393-7.298 7.902-11.715 14.152-8.478 3.302 1.71 4.885 5.336 5.074 8.866.016.307 1.472.05 1.448-.39-.757-14.08-21.39-13.242-22.125.39-.756 14.036 21.393 13.22 22.125-.39.015-.263-1.424-.07-1.45.39z"/><path fill="#562F2F" d="M310.216 484.274c-.374 12.465-10.047 22.17-22.72 21.79-11.212-.336-19.543-10.057-20.502-20.7-1.167-12.94 10.186-23.41 22.683-23.036 11.756.353 20.208 10.9 20.542 22.062.015.526 1.466.22 1.448-.39-.368-12.254-10.326-22.986-22.995-22.606-12.72.38-22.788 10.045-23.172 22.88-.368 12.32 10.78 23.092 23 22.726 12.722-.38 22.787-10.047 23.17-22.883.02-.66-1.438-.38-1.454.157zM103.698 506.29v47.353c0 .575 4.347-.01 4.347-1.164v-47.355c0-.575-4.347.01-4.347 1.164z"/><path fill="#86F7CB" d="M119.2 451.28c0 5.712-4.624 10.34-10.337 10.34-5.71 0-10.338-4.628-10.338-10.34s4.63-10.337 10.338-10.337c5.713 0 10.338 4.625 10.338 10.338zM131.22 484.195c0 12.348-10.01 22.36-22.356 22.36-12.346 0-22.357-10.013-22.357-22.36 0-12.344 10.012-22.357 22.357-22.357 12.347 0 22.357 10.014 22.357 22.357z"/><path fill="#562F2F" d="M115.476 451.332c-.31 5.776-4.514 10.01-10.484 9.688-5.114-.275-8.468-5.068-8.722-9.79-.312-5.803 5.04-9.978 10.48-9.685 5.118.275 8.472 5.063 8.726 9.787.042.78 1.506.565 1.47-.102-.762-14.16-21.393-13.893-22.146.102-.312 5.794 5.273 11.144 11.01 10.835 6.174-.332 10.8-4.693 11.136-10.937.042-.773-1.434-.575-1.47.102z"/><path fill="#562F2F" d="M127.505 484.28c-.374 12.464-10.035 22.18-22.72 21.8-11.21-.336-19.544-10.078-20.503-20.717-1.166-12.937 10.168-23.426 22.677-23.05 11.754.352 20.213 10.918 20.547 22.076.015.5 1.467.2 1.45-.39-.397-13.21-11.056-22.95-24.17-22.557-12.26.368-21.64 10.928-21.997 22.835-.398 13.274 11.55 23.047 24.168 22.67 12.26-.37 21.643-10.93 22-22.838.018-.633-1.438-.344-1.453.17z"/><g xmlns="http://www.w3.org/2000/svg"><path fill="#C6EDF6" d="M292.6 374.088c0 1.203-.98 2.186-2.183 2.186h-22.645c-1.203 0-2.186-.982-2.186-2.186v-5.877c0-1.2.982-2.183 2.186-2.183h22.645c1.2 0 2.184.982 2.184 2.184v5.878z"/><path fill="#562F2F" d="M290.774 374.688c-.66 2.428-4.36 1.598-6.112 1.598H267.24c-2.93 0-2.013-5.8-2.013-7.582 0-3.047 14.77-1.598 16.633-1.598h6.902c2.928 0 2.012 5.8 2.012 7.582 0 .767 1.47.55 1.47-.107 0-1.58 1.008-7.543-1.403-8.2-2.534-.69-5.317-.342-7.925-.342h-13.69c-2.56 0-4.675-.13-5.466 2.773-.38 1.394-.75 7.617 1.4 8.202 2.536.69 5.32.342 7.927.342h13.69c2.56 0 4.676.13 5.466-2.773.19-.697-1.295-.53-1.47.108z"/><path fill="#C6EDF6" d="M109.58 378.466c0 1.2-.982 2.184-2.186 2.184H71.71c-1.202 0-2.187-.982-2.187-2.184v-5.88c0-1.2.984-2.183 2.186-2.183h35.685c1.203 0 2.186.982 2.186 2.184v5.88z"/><path fill="#562F2F" d="M118.175 356.786c-.724 2.66-3.568 1.767-5.724 1.767H95.03c-3.466 0-2.432-5.768-2.432-7.767 0-3.63 13.838-1.905 16.233-1.905h7.175c3.175 0 2.16 6.263 2.16 7.97 0 .218 1.448.015 1.448-.39 0-2.187 1.19-8.155-2.438-8.155H95.397c-2.064 0-3.646.425-4.238 2.604-.712 2.617-.684 7.394 2.302 8.206 2.453.667 5.963.013 8.48.013h12.964c2.18 0 4.04-.196 4.696-2.605.078-.284-1.33-.093-1.427.26z"/><path fill="#C6EDF6" d="M300.44 362.79c0 .6-.492 1.093-1.094 1.093H281.97c-.6 0-1.09-.492-1.09-1.094v-5.233c0-.602.49-1.092 1.09-1.092h17.376c.602 0 1.094.49 1.094 1.092v5.232z"/><path fill="#562F2F" d="M131.87 361.38c-.745 1.787-10.206.634-12.04.634h-5.504c-1.055 0-.587-4.94-.587-5.7 0-1.258 11.402-.612 12.708-.612h4.92c.846 0 .46 5.18.46 5.82 0 .787 1.473.587 1.473-.097 0-1.3.78-5.463-.5-6.387-1.362-.982-4.043-.444-5.55-.444h-10.664c-1.77 0-3.488-.354-4.28 1.553-.5 1.208-.493 5.255.356 6.425.79 1.088 3.998.55 5 .55h10.743c1.88 0 4.004.496 4.856-1.553.328-.79-1.132-.815-1.39-.19z"/><path fill="#C6EDF6" d="M239.18 344.148c0 1.2-.984 2.184-2.186 2.184h-35.686c-1.203 0-2.186-.982-2.186-2.184v-5.88c0-1.198.982-2.183 2.186-2.183h35.686c1.2 0 2.186.984 2.186 2.184v5.878z"/><path fill="#562F2F" d="M239.56 344.826c-.803 2.95-5.36 1.77-7.73 1.77h-26.838c-4.72 0-4.05-4.054-4.05-7.772 0-3.127 5.897-1.912 7.717-1.912H235.97c4.496 0 3.578 4.712 3.578 7.976 0 .202 1.45.004 1.45-.39 0-3.23 1.176-8.148-3.298-8.148H205.52c-2.476 0-5.217-.336-6.017 2.6-.75 2.755-.752 8.21 2.983 8.21h31.908c2.586 0 5.745.515 6.59-2.6.072-.266-1.332-.08-1.426.266z"/><g><path fill="#562F2F" d="M299.21 363.834c-.742 1.784-9.82.673-11.84.673h-5.505c-1.384 0-.803-4.924-.803-5.81 0-1.38 10.976-.673 12.507-.673h4.92c1.19 0 .674 5.17.674 5.932 0 .687 1.458.413 1.458-.146 0-.95.714-5.82-.482-6.316-1.857-.77-4.055-.404-6.038-.404h-10.505c-1.635 0-3.215-.25-3.948 1.51-.462 1.11-.544 5.307.335 6.356.935 1.116 4.333.487 5.452.487H296.1c1.748 0 3.684.394 4.477-1.51.298-.718-1.154-.61-1.367-.1z"/></g><g><path fill="#562F2F" d="M109.94 379.073c-.743 2.734-6.168 1.62-8.11 1.62H74.99c-4.42 0-3.642-4.104-3.642-7.622 0-3.243 20.87-1.62 23.16-1.62h11.79c4.422 0 3.642 4.106 3.642 7.623 0 .73 1.464.488 1.464-.125 0-2.69 1.23-8.503-2.987-8.503h-31.04c-2.938 0-6.528-.79-7.492 2.75-.702 2.583-.756 8.504 2.99 8.504h31.038c2.94 0 6.528.79 7.49-2.752.18-.66-1.3-.477-1.463.125z"/></g></g><path fill="none" stroke="#FFF" stroke-miterlimit="10" stroke-dasharray="10" d="M17.934 592.756h960.002"/><path fill="#66BAED" stroke="#562F2F" stroke-miterlimit="10" d="M-.504 541.314h195.23v99.684H-.505z"/><path fill="#66BAED" stroke="#562F2F" stroke-miterlimit="10" d="M53.908 542.05s267.12-.645 274.41 0c-40.94 119.39-216.77 143.91-274.41 0z"/><g><path fill="#FFF" d="M140.493 576.326h38.39c1.924 0-.17-4.453-1.984-4.453h-38.392c-1.924 0 .17 4.453 1.985 4.453zM140.656 614.166h38.39c2.12 0-.88-3.816-2.31-3.816h-38.392c-2.12 0 .88 3.816 2.312 3.816zM211.664 576.435h38.39c2.26 0 .564-4.67-1.456-4.67h-38.39c-2.26 0-.564 4.67 1.456 4.67zM170.54 593.513h38.39c1.453 0 3.79-1.514 4.58-1.514h-38.39c-1.454 0-3.79 1.513-4.58 1.513zM214.587 613.957h38.39c3.315 0 1.894-3.398-.79-3.398h-38.39c-3.315 0-1.893 3.397.79 3.397zM248.577 594.062h38.39c2.386 0 4.176-2.61.824-2.61H249.4c-2.385-.002-4.175 2.61-.823 2.61zM12.848 586.103h38.39c2.384 0 4.174-2.61.822-2.61H13.67c-2.383-.002-4.173 2.61-.822 2.61zM102.67 594.61h38.39c.97 0-1.632-3.71-3.12-3.71H99.553c-.97 0 1.632 3.71 3.12 3.71zM28.55 630.01h38.597c2.12 0-.88-3.816-2.312-3.816H26.237c-2.12 0 .88 3.816 2.312 3.816zM54.44 609.427H92.83c1.454 0 3.79-1.514 4.58-1.514H59.02c-1.453 0-3.79 1.514-4.58 1.514zM1.056 610.524H24.96c.97 0-1.632-3.71-3.12-3.71H-2.062c-.97 0 1.632 3.71 3.12 3.71zM79.56 563.673h38.39c1.453 0 3.79-1.514 4.58-1.514H84.14c-1.454 0-3.79 1.513-4.58 1.513zM11.693 564.77h38.39c.97 0-1.633-3.708-3.12-3.708H8.573c-.97 0 1.632 3.71 3.12 3.71z" opacity=".5"/></g><g xmlns="http://www.w3.org/2000/svg"><path fill="#C6EDF6" d="M957.477 157.43c0 2.322-1.253 4.23-2.78 4.23h-45.42c-1.53 0-2.783-1.904-2.783-4.23v-11.39c0-2.324 1.25-4.235 2.783-4.235h45.42c1.527 0 2.78 1.907 2.78 4.234v11.39z"/><path fill="#562F2F" d="M957.932 158.587c-.934 5.233-7.91 3.088-10.334 3.088h-34.156c-5.613 0-4.62-7.86-4.62-14.68 0-6.187 26.603-3.088 29.485-3.088h15.004c5.616 0 4.622 7.86 4.622 14.68 0 1.493 1.87 1.08 1.87-.204 0-5.197 1.556-16.56-3.82-16.56H916.48c-3.78 0-8.29-1.532-9.526 5.38-.893 4.982-.954 16.56 3.818 16.56H950.276c3.78 0 8.292 1.532 9.526-5.38.242-1.36-1.648-1.04-1.87.204z"/></g><g xmlns="http://www.w3.org/2000/svg"><path fill="#562F2F" d="M845.12 253.144h-45.874c-1.147 0-2.085-.136-2.085.15V203.66l-1.784.758h45.874c1.147 0 2.085.136 2.085-.15v49.633c0 .407 2.174.078 2.174-.58v-49.66c0-.14-.315-.174-.39-.174h-48.348c-.41 0-1.785.144-1.785.757V253.9c0 .14.314.176.39.176h48.347c.482 0 2.485-.932 1.396-.932z"/><g opacity=".5"><path fill="#562F2F" d="M363.514 541.306v-34.4c-.34.188-.678.378-1.017.567h23.674c.315 0 1.018-.154 1.018-.568v-24.242c0-1.485-.713-6.477.217-7.406l8.544-8.545-1.346.28c2.39 2.97 4.78 5.938 7.17 8.91 1.06 1.314.206 5.977.206 7.57v24.286c0 .164.34.18.433.18h22.372c1.04 0 .408-.06.408-.027V541.696c0 .386 1.45.13 1.45-.39V507.37c0-.165-.34-.18-.434-.18H403.836c-1.077 0-.407.283-.407-.176v-7.843-21.6c0-4.215-4.934-7.97-7.474-11.126-.285-.354-1.115.05-1.345.28l-8.542 8.544c-1.073 1.072-.33 4.784-.33 6.15v25.873c.34-.188.68-.378 1.018-.567h-23.674c-.314 0-1.017.154-1.017.568v34.402c0 .388 1.45.133 1.45-.386z"/><path fill="#562F2F" d="M369.488 522.063h-3.005l.677.503v-10.213l-.794.6h3.005l-.676-.502v10.214c0 .785 1.47.584 1.47-.098v-10.213c0-.385-.346-.503-.676-.503h-3.005c-.296 0-.794.25-.794.6v10.214c0 .385.346.503.676.503h3.005c.845 0 1.1-1.104.118-1.104zM376.322 522.218h-2.535c-.757 0-.03-.052-.03.182v-2.747-7.445l-1.01.59h2.534c.758 0 .032.053.032-.18v10.191c0 .424 1.45.156 1.45-.39v-10.213c0-.17-.337-.202-.44-.202h-3.005c-.338 0-1.01.155-1.01.59v10.214c0 .17.336.2.44.2h3.004c.522 0 1.55-.792.572-.792zM382.913 522.165h-3.004c.15.124.303.247.455.37v-10.213l-1 .528h3.005l-.456-.37v10.213c0 .66 1.455.373 1.455-.158v-10.213c0-.253-.217-.37-.457-.37h-3.004c-.272 0-1 .13-1 .528v10.213c0 .253.216.37.456.37h3.004c.59 0 1.524-.898.543-.898zM389.714 522.3h-2.535c-.564 0-.21-.05-.21.1v-2.747-7.445l-1.19.51h2.535c.563 0 .21.05.21-.1v10.191c0 .277 1.45.056 1.45-.39v-10.213c0-.094-.21-.12-.26-.12h-3.006c-.28 0-1.19.094-1.19.51v10.212c0 .093.21.12.26.12h3.005c.325 0 1.658-.63.93-.63zM396.138 522.205h-2.534c-.76 0-.027-.055-.027.194v-2.748-7.445c-.336.2-.67.402-1.007.604h2.534c.76 0 .027.056.027-.193v10.192c0 .446 1.45.172 1.45-.39v-10.213c0-.173-.334-.215-.442-.215h-3.004c-.352 0-1.007.157-1.007.604v10.213c0 .172.334.214.442.214h3.003c.54 0 1.544-.82.565-.82zM402.764 522.283h-2.533c-.745 0-.047-.037-.047.116v-2.748-7.445l-1.028.525h2.533c.746 0 .048.037.048-.116v10.192c0 .31 1.45.078 1.45-.39v-10.212c0-.15-.348-.137-.422-.137h-3.003c-.27 0-1.027.153-1.027.524v10.213c0 .15.347.137.42.137h3.004c.44 0 1.576-.66.607-.66zM409.137 522.1h-3.004c.22.152.442.304.664.455v-10.213c-.267.19-.534.382-.8.573H409l-.664-.454v10.214c0 .743 1.465.508 1.465-.12v-10.212c0-.377-.35-.454-.663-.454h-3.004c-.274 0-.8.236-.8.573v10.214c0 .377.35.454.663.454H409c.815 0 1.122-1.027.137-1.027zM416.15 522.335H413.613c-.542 0-.22-.034-.22.064v-2.748-7.445l-1.198.474h2.535c.543 0 .22.035.22-.063v10.192c0 .197 1.45 0 1.45-.39v-10.213c0-.084-.217-.085-.25-.085h-3.006c-.235 0-1.2.122-1.2.474v10.213c0 .083.217.084.25.084h3.006c.284 0 1.644-.56.95-.56zM422.565 522.213h-2.535c-.758 0-.03-.054-.03.187v-2.747-7.445c-.335.2-.672.397-1.008.596h2.535c.758 0 .03.054.03-.187v10.192c0 .434 1.448.163 1.448-.39v-10.213c0-.17-.335-.207-.44-.207h-3.004c-.343 0-1.008.155-1.008.596v10.213c0 .17.335.206.44.206h3.004c.53 0 1.548-.803.57-.803zM369.5 535.018h-3.005l.663.45v-10.213l-.802.57h3.005l-.662-.45v10.214c0 .74 1.465.502 1.465-.122v-10.213c0-.376-.353-.45-.663-.45h-3.005c-.272 0-.802.235-.802.57v10.214c0 .375.353.45.663.45h3.005c.813 0 1.124-1.022.14-1.022zM376.34 535.203h-2.534c-.745 0-.05-.035-.05.11v-2.747-7.445c-.343.175-.687.348-1.03.52h2.535c.745 0 .05.036.05-.11V535.724c0 .3 1.45.07 1.45-.39v-10.212c0-.147-.35-.13-.42-.13h-3.006c-.263 0-1.03.155-1.03.52v10.213c0 .148.35.13.42.13h3.006c.43 0 1.577-.65.61-.65zM382.925 535.122h-2.535c-.76 0-.028-.055-.028.19v-2.746-7.445c-.336.2-.672.4-1.008.602h2.535c.758 0 .027.055.027-.19v10.191c0 .442 1.45.17 1.45-.39v-10.212c0-.17-.336-.21-.442-.21h-3.004c-.35 0-1.007.155-1.007.6v10.213c0 .172.335.212.44.212h3.005c.536 0 1.546-.813.567-.813zM389.723 535.248h-2.534c-.543 0-.22-.035-.22.065v-2.747-7.445c-.398.16-.798.317-1.198.476h2.535c.543 0 .22.035.22-.065V535.724c0 .2 1.448.003 1.448-.39v-10.212c0-.083-.216-.085-.25-.085h-3.005c-.236 0-1.2.12-1.2.475v10.213c0 .084.217.086.25.086h3.006c.286 0 1.645-.562.95-.562zM396.116 535.036h-3.004l.47.427V525.25c-.33.186-.66.37-.99.558h3.004l-.47-.427v10.214c0 .72 1.46.466 1.46-.13V525.25c0-.258-.212-.427-.47-.427h-3.004c-.3 0-.99.128-.99.558v10.214c0 .258.212.427.47.427h3.004c.647 0 1.5-.984.52-.984zM402.752 535.153h-2.533c-.754 0-.037-.047-.037.16v-2.747-7.445l-1.016.57h2.533c.753 0 .036.047.036-.16v10.192c0 .388 1.45.132 1.45-.39V525.12c0-.164-.34-.18-.434-.18h-3.003c-.316 0-1.017.153-1.017.568v10.213c0 .165.34.182.433.182h3.003c.493 0 1.56-.75.582-.75zM409.342 535.086h-3.004l.454.36v-10.212c-.333.175-.667.35-1 .523h3.004l-.454-.36v10.212c0 .65 1.454.358 1.454-.163v-10.213c0-.252-.216-.36-.454-.36h-3.004c-.266 0-1 .13-1 .522v10.213c0 .25.216.36.454.36h3.004c.582 0 1.526-.884.546-.884zM415.738 534.993h-3.005l.67.48v-10.212l-.796.59h3.005l-.67-.48v10.212c0 .768 1.468.552 1.468-.107v-10.213c0-.38-.35-.48-.67-.48h-3.006c-.287 0-.797.242-.797.588v10.213c0 .38.35.48.67.48h3.006c.83 0 1.107-1.07.125-1.07zM422.55 535.074h-3.003l.458.377V525.24l-.998.53h3.004l-.457-.376v10.213c0 .67 1.456.385 1.456-.154V525.24c0-.254-.217-.377-.46-.377h-3.003c-.274 0-.998.13-.998.532v10.213c0 .254.215.377.457.377h3.004c.6 0 1.522-.908.54-.908zM396.32 489.562h-2.692c-.498 0-.052.116-.052.02V485.9v-8.532c-.396.17-.793.34-1.19.508h2.691c.5 0 .053-.116.053-.02v12.213c0 .277 1.45.056 1.45-.39V477.37c0-.094-.21-.12-.26-.12h-3.004c-.278 0-1.19.095-1.19.51v12.312c0 .094.21.12.26.12h3.005c.326-.002 1.66-.628.93-.628zM425.642 529.06h8.68c1.2 0 .555-.043.555 1.72v4.83c0 .252.216.358.453.358h8.41c.264 0 1-.13 1-.52V529.8c0-1.536-.692-.74-.484-.74h6.497c1.21 0 .644-.37.644.245v6.307c0 .25.216.357.453.357h7.81c.263 0 1-.132 1-.522v-20.696-13.288-4.334c0-1.577-.702-.582-.54-.582h22.756c-.35 0-.243.35-.243 1.692v17.66c0 .252.217.358.452.358h7.974c-.542 0-.317.18-.317 1.27V541.412c0 .648 1.453.354 1.453-.164v-18.157c0-.98-1.615-.038-.418-.038H523.258c1.36 0 .823-.042.823-.1v18.656c0 .65 1.454.355 1.454-.163v-61.415c0-.648-1.453-.354-1.453.164v61.415c0 .65 1.454.355 1.454-.163v-18.914c0-.25-.217-.357-.452-.357h-33.34c-.264 0-1 .13-1 .52v18.717c0 .648 1.453.354 1.453-.164v-25.514c0-.25-.217-.357-.452-.357h-7.014c-1.236 0-.645.507-.645-.195v-3.706-15.454c0-.25-.217-.357-.452-.357h-23.428c-.264 0-1 .13-1 .52v38.647c0 1.184-.18.254.847.254h-7.5c.595 0 .298-5.305.298-6.55 0-.25-.216-.357-.453-.357h-8.11c-.263 0-1 .13-1 .52v5.647c0 1.54.72.74.466.74h-6.737c-1.23 0-.685.37-.685-.244v-6.307c0-.252-.215-.358-.452-.358h-9.688c-.58 0-1.528.878-.548.878zM536.54 535.228c-1.772 0-5.15.973-5.15-.87v-10.103V504.4l-1.194.495c1.77 0 5.15-.973 5.15.87v29.958c0 .25 1.45.036 1.45-.39V504.4c0-.092-.213-.107-.257-.107h-5.407c-.263 0-1.193.104-1.193.495v30.935c0 .09.212.106.256.106h5.406c.31 0 1.653-.602.937-.602zM529.5 486.15h7.207c.632 0 1.507-.96.527-.96h-7.207c-.63 0-1.506.96-.527.96zM529.49 490.318h7.207c.585 0 1.527-.887.547-.887h-7.207c-.585.002-1.527.888-.547.888zM529.297 494.388h7.207c.318 0 1.656-.615.934-.615h-7.207c-.318 0-1.656.615-.933.615zM529.29 498.567h7.208c.288 0 1.646-.568.945-.568h-7.207c-.288 0-1.645.567-.945.567z"/><path fill="#562F2F" d="M535.602 509.924h7.21c.31 0 1.653-.602.937-.602h-7.21c-.31 0-1.655.602-.938.602zM491.172 528.075h20.124c.47 0 1.567-.71.594-.71h-20.124c-.47 0-1.568.71-.594.71zM491.173 532.582h20.124c.473 0 1.565-.717.592-.717h-20.125c-.473 0-1.566.717-.592.717zM469.71 504.29h-5.406l.257.11v-4.69l-1.19.5h5.406c-.085-.038-.17-.074-.257-.11v4.688c0 .254 1.448.04 1.448-.39v-4.687c0-.09-.21-.108-.257-.108h-5.406c-.265 0-1.192.102-1.192.498v4.688c0 .09.21.11.257.11h5.406c.35 0 .727-.083 1.024-.275.223-.145.2-.333-.09-.333zM479.226 515.198h-6.61l.662.445v-4.506c-.268.19-.535.38-.803.568h6.61l-.662-.445v4.506c0 .735 1.464.495 1.464-.123v-4.506c0-.375-.354-.445-.66-.445h-6.61c-.27 0-.803.234-.803.568v4.506c0 .375.354.445.66.445h6.61c.81.002 1.127-1.012.142-1.012z"/><path fill="#562F2F" d="M542.555 496.3v26.51c.026.056.07.09.134.102l47.905 12.914c.3.08 1.315-.056 1.315-.49v-26.13c-.026-.057-.07-.09-.134-.103-15.97-4.43-31.938-8.862-47.906-13.293-.355-.1-1.646.465-1.182.594l40.952 11.363 6.56 1.82c.665.185.26 3.858.26 4.848v21.288l1.316-.49-40.952-11.04-6.56-1.77c-.667-.18-.26-3.923-.26-4.914V495.91c0-.287-1.45-.062-1.45.39z"/><path fill="#562F2F" d="M542.687 502.896l47.906 13.21c.344.095 1.628-.456 1.186-.577l-47.907-13.21c-.345-.095-1.63.455-1.186.576zM542.868 509.73c15.97 4.402 31.938 8.806 47.906 13.21.67.183 1.71-.787.822-1.032l-47.906-13.21c-.67-.184-1.71.785-.822 1.03zM542.843 516.237l47.906 13.21c.503.14 1.71-.608.872-.84l-47.906-13.21c-.504-.138-1.712.61-.873.84zM535.022 535.877h55.864c.46 0 1.57-.697.598-.697H535.62c-.46 0-1.57.697-.598.697z"/><g><path fill="#562F2F" d="M628.098 535.073H605.48c-1.33 0-1.254-.228-1.254.35v-4.75-41.092-1.256c0 .703-1.574.505.714.505h20.906c2.005 0 1.253-.766 1.253 1.282V535.605c0 .67 1.456.386 1.456-.154v-47.153c0-.254-.216-.378-.46-.378H603.77c-.274 0-.997.13-.997.53v47.155c0 .254.216.378.46.378h24.328c.6 0 1.52-.91.54-.91z"/></g><g><path fill="#562F2F" d="M604.075 489.77c.396-7.35 6.128-12.773 13.797-11.524 5.743.936 9.096 6.43 9.385 11.797.03.544 1.482.227 1.45-.39-.897-16.636-25.21-16.043-26.09.272-.034.663 1.428.396 1.458-.154z"/></g><g><path fill="#562F2F" d="M593.452 496.504h43.853c.523 0 1.55-.795.57-.795h-43.853c-.523 0-1.548.794-.57.794z"/></g><g><path fill="#562F2F" d="M587 505.012h16.218c.552 0 1.54-.836.56-.836h-16.217c-.55 0-1.54.836-.56.836z"/></g><g><path fill="#562F2F" d="M627.55 505.026h16.218c.57 0 1.53-.865.55-.865h-16.216c-.57 0-1.532.866-.55.866z"/></g><g><path fill="#562F2F" d="M621.388 513.145h-10.456c.402 0 .2-1.383.2-1.87v-15.362l-1.19.502h10.455c-.402 0-.2 1.383-.2 1.87v15.362c0 .264 1.45.046 1.45-.39v-17.345c0-.092-.21-.113-.26-.113h-10.513c-.27 0-1.19.098-1.19.5v17.347c0 .092.21.113.257.113h10.515c.317 0 1.655-.615.933-.615z"/></g><g><path fill="#562F2F" d="M590.263 524.113h37.096c.304 0 1.65-.594.938-.594h-37.096c-.305 0-1.65.593-.94.593z"/></g><g><path fill="#562F2F" d="M627.532 535.887H686.654c-.17 0 .434.97.84 1.66l2.494 4.25c.254.432 1.63-.082 1.45-.39-.748-1.272-2.378-5.704-3.706-6.2-.766-.284-1.998-.037-2.783-.037H628.123c-.474 0-1.565.717-.592.717z"/></g><g><path fill="#562F2F" d="M673.304 535.125h-13.107c-1.255 0-1.986-.08-1.986.108V521v-37.505c-.335.2-.67.398-1.008.598h13.107c1.254 0 1.985.08 1.985-.108v51.738c0 .438 1.45.166 1.45-.39v-51.838c0-.172-.336-.21-.44-.21H657.77c-.346 0-1.008.157-1.008.6v51.838c0 .172.335.21.44.21h15.533c.533 0 1.547-.808.57-.808z"/></g><g><path fill="#562F2F" d="M658.21 483.6l7.77-16.972-1.45.284c2.59 5.657 5.178 11.314 7.766 16.972.232.507 1.65.053 1.45-.39-2.59-5.656-5.18-11.313-7.767-16.97-.243-.53-1.272-.107-1.45.283-2.59 5.657-5.18 11.314-7.768 16.972-.204.447 1.234.288 1.45-.18z"/></g><g><path fill="#562F2F" d="M657.21 500.333h15.532c.562 0 1.535-.854.555-.854h-15.533c-.562 0-1.535.853-.555.853z"/></g><g><path fill="#562F2F" d="M657.42 512.47h15.532c.818 0 1.12-1.036.135-1.036h-15.533c-.82 0-1.12 1.035-.135 1.035z"/></g><g><path fill="#562F2F" d="M669.418 495.478h-7.748l.434.18v-7.747l-1.016.57h7.748l-.434-.18v7.747c0 .39 1.45.132 1.45-.39v-7.747c0-.164-.34-.18-.435-.18h-7.748c-.316 0-1.017.152-1.017.568v7.748c0 .164.34.18.434.18h7.748c.495.002 1.56-.748.583-.748z"/></g><g><path fill="#562F2F" d="M667.623 535.18h-2.464c-1.15 0-.715.386-.715-.402v-5.65-11.814l-1.023.543h2.464c1.15 0 .714-.386.714.402v17.463c0 .34 1.45.1 1.45-.39v-18.02c0-.156-.345-.154-.427-.154h-3.604c-.29 0-1.024.153-1.024.542v18.02c0 .157.344.155.426.155h3.604c.46 0 1.57-.697.597-.697z"/></g><g><circle fill="#E5DFDF" cx="644.043" cy="504.594" r="5.016"/><path fill="#562F2F" d="M648.334 504.685c-.144 2.666-2.02 4.888-4.924 4.414-2.045-.334-3.32-2.26-3.63-4.153-.462-2.84 2.117-5.31 4.896-4.857 2.262.368 3.546 2.603 3.658 4.7.025.47 1.48.17 1.45-.39-.386-7.136-11.112-6.567-11.48.285-.388 7.188 11.107 6.722 11.48-.182.03-.598-1.424-.305-1.45.182z"/></g><g><circle fill="#E5DFDF" cx="591.186" cy="495.853" r="5.016"/><path fill="#562F2F" d="M595.47 495.92c-.137 2.554-1.863 4.576-4.57 4.43-2.21-.118-3.652-2.158-3.976-4.145-.44-2.704 1.953-4.99 4.547-4.85 2.44.13 3.89 2.503 4.007 4.69.032.596 1.484.267 1.45-.388-.388-7.183-11.114-6.685-11.487.262-.162 3.014 2.738 5.593 5.67 5.435 3.143-.17 5.65-2.355 5.822-5.57.038-.706-1.43-.462-1.46.135z"/></g><g><path fill="#E5DFDF" d="M657.486 535.528h-25.302v-9.502l25.302-3.603"/><path fill="#562F2F" d="M657.75 535.053h-24.103c-1.505 0-.734.548-.734-.584v-6.05-2.003c0-.798-1.3.152-.383.02l21.456-3.055 3.228-.46c.355-.05-.457-.707-.457-.063v12.738c0 .696 1.46.43 1.46-.143V522.35c0-.337-.36-.443-.65-.4-8.435 1.2-16.87 2.4-25.303 3.603-.25.035-.81.2-.81.544v9.502c0 .255.214.403.465.403h25.302c.626 0 1.51-.95.53-.95z"/></g></g><path fill="#562F2F" d="M855.537 416.314h-22.41c.427 0 .214-19.915.214-22.34l-1.19.504h22.41c-.426 0-.213 19.915-.213 22.34 0 .272 1.45.052 1.45-.388v-22.457c0-.093-.21-.116-.26-.116h-22.455c-.274 0-1.19.096-1.19.505v22.457c0 .092.21.115.26.115h22.454c.322 0 1.657-.62.93-.62z"/><g opacity=".5"><path fill="#9DF4C6" d="M745.397 528.92s-20.565-16.325 7.438-36.723c0 0 22.305 20.44 2.055 36.724 0 0-6.017 3.783-9.493 0z"/><path fill="#E5E4E1" d="M747.957 506.612v34.33"/><path fill="#562F2F" d="M747.23 506.69v34.33c0 .67 1.456.388 1.456-.155v-34.33c0-.67-1.457-.39-1.457.154z"/><path fill="#E5E4E1" d="M741.154 514.04l6.803 5.568"/><path fill="#562F2F" d="M740.597 514.463l6.803 5.567c.507.415 1.768-.31 1.115-.844l-6.803-5.567c-.507-.416-1.768.31-1.115.843z"/><path fill="#E5E4E1" d="M747.957 522.434l8.067-4.43"/><path fill="#562F2F" d="M748.378 522.54c2.688-1.476 5.378-2.952 8.067-4.43.844-.463-.49-.406-.842-.214l-8.067 4.43c-.844.464.49.407.842.215z"/><path fill="#E5E4E1" d="M753.098 519.608l1.503-5.567"/><path fill="#562F2F" d="M753.83 519.55l1.504-5.567c.183-.68-1.3-.502-1.467.117l-1.503 5.567c-.182.68 1.3.502 1.467-.117z"/><path fill="#E5E4E1" d="M743.775 516.187l2.125-6.516"/><path fill="#562F2F" d="M744.498 516.088l2.125-6.516c.15-.46-1.295-.26-1.445.197l-2.125 6.515c-.15.46 1.295.26 1.445-.197z"/><g><path fill="#E5E4E1" d="M747.957 511.4l6.644-9.06"/><path fill="#562F2F" d="M748.62 511.373l6.644-9.06c.33-.448-1.097-.26-1.326.054l-6.644 9.06c-.33.448 1.097.26 1.326-.054z"/></g><g><path fill="#E5E4E1" d="M749.514 501.243l2.476 4.658"/><path fill="#562F2F" d="M748.79 501.438l2.476 4.658c.25.472 1.65-.012 1.45-.39-.827-1.552-1.652-3.104-2.478-4.657-.25-.473-1.65.01-1.45.388z"/></g><g><path fill="#562F2F" d="M744.72 526.783c-2.837-2.29-4.95-5.63-6.183-9.014-3.81-10.448 4.396-19.77 11.973-25.814 1.047-.835.072-1.543 1.13-.48.783.79 1.514 1.63 2.23 2.478 2.51 2.97 4.546 6.31 6.005 9.91 1.744 4.306 1.99 8.98.57 13.405-1.72 5.352-9.408 14.876-15.726 9.513-.473-.4-1.75.285-1.122.818 9.083 7.71 18.887-8.248 19.277-15.797.415-8-4.94-16.384-10.615-21.65-.31-.288-.81-.25-1.14 0-8.152 6.117-16.573 14.676-14.642 25.744.772 4.428 3.632 8.89 7.12 11.704.48.39 1.76-.3 1.12-.817z"/></g><g><path fill="#F07578" d="M885.63 528.92s-20.566-16.325 7.437-36.723c0 0 22.305 20.44 2.055 36.724 0 0-6.018 3.783-9.493 0z"/></g><g><path fill="#E5E4E1" d="M888.188 506.612v34.33"/><path fill="#562F2F" d="M887.46 506.69v34.33c0 .67 1.457.388 1.457-.155v-34.33c0-.67-1.457-.39-1.457.154z"/></g><g><path fill="#E5E4E1" d="M881.386 514.04l6.802 5.568"/><path fill="#562F2F" d="M880.828 514.463l6.803 5.567c.508.415 1.77-.31 1.116-.844l-6.803-5.567c-.506-.416-1.767.31-1.115.843z"/></g><g><path fill="#E5E4E1" d="M888.188 522.434l8.068-4.43"/><path fill="#562F2F" d="M888.61 522.54c2.687-1.476 5.377-2.952 8.066-4.43.844-.463-.49-.406-.842-.214l-8.067 4.43c-.843.464.492.407.842.215z"/></g><g><path fill="#E5E4E1" d="M893.33 519.608l1.502-5.567"/><path fill="#562F2F" d="M894.063 519.55l1.503-5.567c.183-.68-1.3-.502-1.467.117l-1.504 5.567c-.183.68 1.3.502 1.467-.117z"/></g><g><path fill="#E5E4E1" d="M884.007 516.187l2.125-6.516"/><path fill="#562F2F" d="M884.73 516.088l2.124-6.516c.15-.46-1.294-.26-1.443.197l-2.124 6.515c-.15.46 1.293.26 1.443-.197z"/></g><g><path fill="#E5E4E1" d="M888.188 511.4l6.644-9.06"/><path fill="#562F2F" d="M888.852 511.373l6.644-9.06c.33-.448-1.097-.26-1.326.054l-6.644 9.06c-.33.448 1.096.26 1.326-.054z"/></g><g><path fill="#E5E4E1" d="M889.745 501.243l2.477 4.658"/><path fill="#562F2F" d="M889.02 501.438l2.478 4.658c.25.472 1.65-.012 1.45-.39l-2.478-4.657c-.25-.473-1.65.01-1.45.388z"/></g><g><path fill="#562F2F" d="M884.95 526.783c-2.836-2.29-4.948-5.63-6.182-9.014-3.81-10.448 4.396-19.77 11.973-25.814 1.048-.835.073-1.543 1.13-.48.784.79 1.515 1.63 2.232 2.478 2.508 2.97 4.545 6.31 6.003 9.91 1.745 4.306 1.99 8.98.57 13.405-1.718 5.352-9.405 14.876-15.725 9.513-.472-.4-1.75.285-1.12.818 9.082 7.71 18.886-8.248 19.276-15.797.415-8-4.94-16.384-10.615-21.65-.31-.288-.808-.25-1.14 0-8.15 6.117-16.572 14.676-14.64 25.744.77 4.428 3.63 8.89 7.118 11.704.483.39 1.763-.3 1.122-.817z"/></g></g><path fill="#562F2F" d="M394.834 304.063c-.87 5.36-9.04 3.738-12.428 3.738H353.67c-5.757 0-3.91-11.346-3.91-14.768 0-5.308 9.73-3.738 12.428-3.738H390.925c5.757 0 3.91 11.348 3.91 14.77 0 .327.727.18.727-.08 0-4.37 1.83-12.48-2.817-14.893-.98-.508-2.898-.24-3.94-.24h-30.95c-3.78 0-8.035-.574-8.82 4.26-.445 2.736 0 5.898 0 8.668 0 2.738.108 4.82 2.816 6.225.982.51 2.9.242 3.94.242h30.951c3.78 0 8.036.573 8.822-4.262.05-.31-.684-.19-.728.08z"/></g><g><path fill="#562F2F" d="M281.704 435.55h-22.29c.426 0 .212-19.802.212-22.217-.397.17-.793.337-1.19.505h22.29c-.426 0-.212 19.803-.212 22.218 0 .27 1.45.05 1.45-.39v-22.333c0-.093-.21-.116-.26-.116h-22.336c-.274 0-1.19.096-1.19.505v22.334c0 .093.21.116.26.116h22.335c.32 0 1.657-.62.93-.62z"/></g></g></svg>