<svg version="1.1" id="图层_1" xmlns="http://www.w3.org/2000/svg" xmlns:xlink="http://www.w3.org/1999/xlink" x="0" y="0" width="960" height="640" viewBox="0 0 960 640" xml:space="preserve"><g id="p7_txt"><image xmlns="http://www.w3.org/2000/svg" overflow="visible" width="551" height="270" xmlns:xlink="http://www.w3.org/1999/xlink" xlink:href="./images/49FEE4C7.png" transform="translate(203.5 99.138)"/><image xmlns="http://www.w3.org/2000/svg" overflow="visible" width="287" height="82" xmlns:xlink="http://www.w3.org/1999/xlink" xlink:href="./images/P9(2).png" transform="translate(336.06 359.154)"/><image xmlns="http://www.w3.org/2000/svg" overflow="visible" width="892" height="153" xmlns:xlink="http://www.w3.org/1999/xlink" xlink:href="./images/P9.png" transform="translate(39 473)"/></g><g id="p7_reload"><path xmlns="http://www.w3.org/2000/svg" fill="#66BAED" opacity=".01" d="M870.062 2.062H959V91h-88.938z"/><path fill="#FFF" d="M891.248 45.487c.124-10.376 6.69-19.72 16.695-22.825 11.04-3.423 22.498 3.32 27.428 13.086 4.318 8.553 2.44 18.936-3.43 26.196-8.846 10.937-24.69 9.676-34.048.355-.602-.6-3.3.46-2.715 1.042 8.73 8.698 22.77 10.53 33.268 3.738 11.237-7.27 15.31-21.243 9.23-33.287-11.964-23.7-49.022-12.91-49.325 12.47-.007.633 2.886.176 2.898-.776z"/><path fill="#FFF" d="M884.046 46.81c-.768-1.355-.12-2.454 1.438-2.44l9.428.083c1.56.014 2.188 1.124 1.396 2.468l-4.787 8.124c-.79 1.344-2.065 1.332-2.833-.025l-4.64-8.21z"/></g><g opacity=".2" id="p7_bg"><path fill="#EB87B4" d="M716.93 413.297h46.288v225.795H716.93z" opacity=".4"/><path fill="#552E2E" d="M763.5 638.687h-46.173c-.02 0 .33.418.33.002v-5.11-69.774-150.33-.37l-1.008.6H762.822c.02 0-.33-.417-.33 0V639.286c0 .44 1.45.17 1.45-.388V495.857v-82.754c0-.172-.336-.21-.442-.21h-46.286c-.35 0-1.008.154-1.008.6V639.287c0 .172.335.21.44.21h46.287c.536 0 1.547-.81.568-.81z" opacity=".8"/><path fill="#FFF" d="M716.405 430.633h36.128c1.27 0 3.01-1.932 1.05-1.932h-36.127c-1.272 0-3.01 1.933-1.05 1.933zM716.392 449.21h36.128c1.2 0 3.04-1.825 1.078-1.825H717.47c-1.2 0-3.04 1.824-1.078 1.824zM716.818 468.045h36.128c1.7 0 2.185-2.246.225-2.246h-36.127c-1.7 0-2.186 2.245-.225 2.245zM716.327 486.224h36.128c.887 0 3.146-1.344 1.207-1.344h-36.128c-.888 0-3.147 1.344-1.207 1.344zM698.726 560.226h54.19c1.617 0 2.256-2.018.285-2.018h-54.19c-1.616 0-2.255 2.018-.284 2.018zM698.725 578.85h54.19c1.613 0 2.26-2.008.287-2.008h-54.19c-1.614 0-2.26 2.008-.287 2.008zM698.313 597.33h54.19c1.128 0 3.07-1.71 1.11-1.71h-54.19c-1.128 0-3.07 1.71-1.11 1.71zM698.318 615.974h54.19c1.15 0 3.06-1.748 1.1-1.748h-54.19c-1.15 0-3.06 1.748-1.1 1.748z"/><path fill="#B9E1EF" d="M581.388 364.887c0 1.65-1.35 3-3 3h-83.752c-1.65 0-3-1.35-3-3v-18.652c0-1.65 1.35-3 3-3h83.752c1.65 0 3 1.35 3 3v18.652z" opacity=".4"/><path fill="#552F2E" d="M585.243 369.55c-.813 3.995-7.913 2.48-10.582 2.48H499.51c-4.53 0-2.564-17.95-2.564-20.697 0-4.395 6.14-3.075 8.768-3.075h67.756c1.98 0 11.774-1.498 11.774 2.712v18.58c0 .65 1.454.355 1.454-.163V351.33c0-3.828-3.046-3.953-5.943-3.953h-78.77c-2.577 0-6.49-.07-6.49 3.59v18.313c0 5.343 9.407 3.63 12.678 3.63h65.297c3.867 0 12.166 1.706 13.23-3.52.12-.6-1.346-.37-1.454.16z" opacity=".4"/><path fill="#E5DEDE" d="M541.94 335.396h174.99V639.09H541.94z"/><path fill="#552F2E" d="M717.02 638.276H542.03c.336.246.674.49 1.01.737V514.997 347.934 335.32c-.395.297-.795.595-1.192.892H716.84l-1.012-.738V639.17c0 1.163 2.205.85 2.205-.155V515 347.935v-12.614c0-.574-.522-.738-1.012-.738H542.03c-.44 0-1.194.37-1.194.894v303.694c0 .574.522.738 1.012.738H716.84c1.257-.003 1.654-1.634.18-1.634z"/><g opacity=".3"><path fill="#B9E1EF" d="M105.188 272.4c0 6.69-7.963 12.168-17.7 12.168H42.947c-9.742 0-17.71-5.478-17.71-12.17 0-6.698 7.97-12.176 17.71-12.176H87.49c9.735 0 17.698 5.478 17.698 12.177z"/><path fill="#552F2E" d="M98.22 268.666c-1.006 15.282-28.623 11.35-38.983 11.35-10.73 0-35.848 3.792-38.715-10.642-2.057-10.36 12.696-12.272 19.926-12.272h19.99c10.513 0 36.772-3.713 37.79 11.75.058.874 2.237.38 2.174-.582-1.028-15.623-24.592-12.603-35.23-12.603H42.485c-6.04 0-11.75.092-17.27 3.03-7.137 3.8-9.638 12.958-2.526 18.28 5.514 4.124 11.79 4.473 18.363 4.473H80.76c7.982 0 19.03-3.553 19.65-12.993.07-1.04-2.13-.666-2.19.21z"/></g><g opacity=".3"><path fill="#B9E1EF" d="M527.37 298.614c0 8.076-9.603 14.68-21.35 14.68h-53.708c-11.743 0-21.354-6.604-21.354-14.68 0-8.073 9.61-14.677 21.354-14.677h53.71c11.745 0 21.35 6.604 21.35 14.677z"/><path fill="#552F2E" d="M519.873 295.7c-.96 17.838-29.986 13.905-42.2 13.905h-23.105c-6.176 0-12.148.287-18.1-1.804-5.24-1.84-9.86-5.962-10.772-11.59-1.376-8.48 8.683-13.458 15.354-14.667 4.767-.864 10.12-.326 14.928-.326h41.708c9.03 0 21.602 3.628 22.187 14.482.025.475 2.21.085 2.174-.583-.862-15.988-21.81-14.872-33.33-14.872h-41.222c-6.46 0-13.596 1.294-18.684 5.6-7.764 6.575-6.167 15.726 2.083 21.02 5.313 3.407 11.64 3.71 17.74 3.71h49.384c9.553 0 23.405-3.905 24.028-15.458.023-.41-2.134-.118-2.172.582z"/></g><path fill="#C4E6EF" d="M142.476 514.942h-64.39c-6.492 0-11.763-5.266-11.763-11.762 0-6.497 5.27-11.765 11.763-11.765h-.958 35.522c6.398 0 11.588-5.185 11.588-11.58 0-6.397-5.19-11.585-11.588-11.585H58.866h.376c-8.946 0-16.196-7.25-16.196-16.203 0-8.946 7.25-16.195 16.196-16.195h82.25v79.09h.984zM315.196 415.384c0-8.985 7.288-16.27 16.276-16.27h92.118c8.99 0 16.272 7.282 16.272 16.27 0 8.99-7.282 16.278-16.272 16.278l-42.064-.708-1.57-.036c-8.99 0-16.28 7.287-16.28 16.27 0 8.99 7.29 16.28 16.28 16.28h92.117-1.253c13.19 0 23.877 7.284 23.877 16.27 0 8.99-10.688 16.276-23.877 16.276H319.923l-4.727-80.63z"/><path fill="#552F2E" d="M135.532 510.988H74.3c-2.335 0-4.387.053-6.694-.628-11.137-3.286-9.442-21.12 2.648-21.818.666-.038 2.376-1.076.887-1.076h-.964c-.71 0-2.35 1.076-.888 1.076h31.706c4.55 0 8.484-.188 12.365-2.968 6.428-4.604 5.904-15.532-1.012-19.414-3.717-2.087-7.42-1.86-11.493-1.86H51.923c-.71 0-2.347 1.075-.886 1.075h.375c.697 0 2.362-1.014.887-1.076-17.27-.735-21.498-25.677-4.412-30.89 3.445-1.052 8.05-.438 11.575-.438h73.443c1.238 0 .114.068.114-.23v79.075c0 .24.513.247.643.247h.983c.71 0 2.347-1.076.886-1.076-.62 0-.34.45-.34-.336v-2.443-8.776-27.244-40.044c0-.24-.513-.247-.643-.247H69.897c-7.448 0-16.286-1.218-23.538.996-7.614 2.322-12.062 9.723-11.734 17.43.378 8.89 8.544 14.7 16.786 15.05.295-.357.59-.717.887-1.075h-.376c-.71 0-2.348 1.077-.887 1.077h52.942c8.74 0 13.962 8.367 10.61 16.3-2.843 6.726-10.583 5.79-16.392 5.79h-28.02c-.71 0-2.348 1.077-.887 1.077h.965c.295-.358.59-.718.887-1.076-12.62.73-18.626 16.542-6.495 23.347 4.797 2.69 13.44 1.253 18.606 1.253h51.39c.712-.004 2.35-1.08.89-1.08zM307.205 410.896c.392-9.687 7.695-15.44 17.008-15.44h89.838c14.725 0 20.396 18.526 10.196 27.975-5.15 4.772-13.464 3.426-19.908 3.316-7.778-.13-15.557-.26-23.335-.392-4.526-.076-9.413-.59-13.87.32-8.474 1.733-13.902 9.52-13.563 17.94.353 8.73 8.576 15.19 16.917 15.19h92.06c.71 0 2.348-1.078.887-1.078h-1.252c-.702 0-2.355 1.045-.886 1.077 11.276.26 30.21 9.167 20.802 23.05-4.638 6.842-13.905 8.42-21.565 8.42H311.603c-.33 0 .35.52.288-.518l-.672-11.463c-1.34-22.796-2.676-45.595-4.013-68.396-.033-.57-2.216-.154-2.173.582 1.575 26.877 3.15 53.752 4.727 80.628.015.24.5.248.644.248h144.993c8.393 0 16.506-.345 23.882-5.062 6.387-4.085 9.436-11.498 5.55-18.378-4.305-7.62-14.642-10.004-22.65-10.188-.295.36-.59.72-.887 1.078h1.252c.71 0 2.348-1.078.887-1.078h-74.43c-11.277 0-26.212 2.713-32.036-9.692-2.598-5.534-1.112-12.038 2.55-16.655 3.25-4.098 8.27-5.154 13.22-5.07 6.11.103 12.22.204 18.33.308 6.913.116 13.825.23 20.737.348 5.556.094 11.244-1.005 15.214-5.29 6.946-7.497 6.143-18.657-1.88-25.02-3.727-2.956-8.286-3.277-12.8-3.277H330.7c-3.064 0-6.14-.07-9.202.053-9.192.37-16.106 8.137-16.466 17.05-.02.514 2.143.174 2.173-.587z" opacity=".3"/><path fill="#F1A3A5" d="M131.945 362.997h196.16v278.898h-196.16z"/><path fill="#552F2E" d="M328.533 641.296H132.797c-.886 0 .235.45.235.14v-44.35V412.62v-49.914l-1.514.892H327.253c.886 0-.235-.45-.235-.14v278.729c0 .647 2.174.243 2.174-.582v-129.97-147.26-1.67c0-.256-.503-.31-.66-.31H132.374c-.514 0-1.514.234-1.514.893V642.188c0 .257.503.31.66.31H327.68c.79-.003 2.32-1.202.853-1.202z"/><path fill="#A7D7C2" d="M180.652 245.566H279.4v117.43H180.65z"/><path fill="#552F2E" d="M279.488 362.172H180.74l1.016.75v-117.43l-1.19.9h98.746l-1.015-.75V363.07c0 1.176 2.206.87 2.206-.147v-117.43c0-.577-.52-.752-1.015-.752H180.74c-.442 0-1.19.375-1.19.9v117.43c0 .576.52.752 1.015.752h98.747c1.263 0 1.648-1.65.176-1.65z"/><path fill="#67E4B3" d="M180.652 245.566c0-26.53 21.505-48.044 48.037-48.044 26.53 0 48.04 21.513 48.04 48.044"/><path fill="#552F2E" d="M181.738 245.428c.373-26.246 21.408-47.652 47.918-47.276 25.69.365 45.633 22.693 45.99 47.705.008.673 2.184.254 2.172-.582-.388-27.34-22.893-48.73-50.096-48.343-26.423.375-47.785 22.654-48.156 48.772-.012.897 2.163.43 2.172-.276z"/><path fill="#FFF" d="M263.604 341.07c0 18.55-15.038 33.58-33.582 33.58-18.55 0-33.58-15.03-33.58-33.58 0-18.543 15.03-33.585 33.58-33.585 18.544 0 33.582 15.042 33.582 33.585z"/><path fill="#552F2E" d="M262.88 341.266c-.404 19.98-17.552 35.532-37.71 32.66-16.256-2.314-27.68-17.11-28.003-33.05-.406-20.05 18.22-35.444 37.708-32.666 16.252 2.316 27.683 17.117 28.005 33.056.005.256 1.458.03 1.45-.39-.404-19.9-17.03-34.777-36.75-33.578-17.83 1.085-31.508 16.43-31.863 33.966-.403 19.94 17.62 34.735 36.747 33.572 17.83-1.084 31.51-16.42 31.865-33.96.004-.24-1.44-.04-1.45.39z"/><path fill="#A7D7C2" d="M156.63 245.566h146.79v24.91H156.63z"/><path fill="#552F2E" d="M303.818 269.765H157.46c-.913 0 .265-.076.265.555v-3.48-21.38l-1.492.82H302.59c.914 0-.264.075-.264-.556v24.86c0 1.045 2.188.644 2.188-.213v-24.91c0-.384-.32-.606-.697-.606H157.028c-.434 0-1.492.192-1.492.82v24.91c0 .384.322.606.698.606h146.79c.938 0 2.264-1.425.794-1.425zM229.16 309.26v63.703c0 .8 1.474.612 1.474-.09V309.17c0-.8-1.474-.612-1.474.09z"/><path fill="#552F2E" d="M229.172 199.457v46.304c0 .325 1.45.09 1.45-.388v-46.304c0-.323-1.45-.088-1.45.39zM254.434 206.57v39.19c0 .392 1.45.135 1.45-.39v-39.19c0-.39-1.45-.134-1.45.39zM202.834 205.805v39.956c0 .438 1.45.167 1.45-.388v-39.956c0-.437-1.45-.166-1.45.39zM197.96 341.91h63.707c1.277 0 1.638-1.688.167-1.688h-63.707c-1.277 0-1.637 1.688-.167 1.688z"/><path fill="#EE8F93" d="M192.184 395.908h75.683v75.684h-75.683z"/><path fill="#552F2E" d="M267.968 470.812h-75.683c.333.23.666.463 1 .693V395.82l-1.2.867h75.682l-1-.692v75.684c0 1.125 2.2.78 2.2-.175V395.82c0-.566-.527-.692-1-.692h-75.682c-.417 0-1.2.358-1.2.867v75.684c0 .566.527.692 1 .692h75.682c1.23 0 1.677-1.56.2-1.56z"/><path fill="none" d="M229.897 395.908v75.684"/><path fill="#FFF" d="M156.63 482.68l35.554-10.674v-76.508L156.63 384.82z"/><path fill="#552F2E" d="M156.7 482.936c11.85-3.56 23.7-7.115 35.552-10.674.197-.06.656-.18.656-.45v-76.507c-.026-.058-.07-.092-.134-.104l-35.553-10.677c-.296-.09-1.314.062-1.314.49v97.86c0 .285 1.45.062 1.45-.39v-97.86l-1.316.492c11.472 3.444 22.944 6.89 34.416 10.336 1.927.58 1.003 4.188 1.003 6.377v69.314c0 1.553 1.095.478-.482.95l-19.485 5.85-14.93 4.482c-.838.254-.71.767.136.514z"/><path fill="#FFF" d="M303.42 482.68l-35.553-10.674v-76.508l35.554-10.678z"/><path fill="#552F2E" d="M304.018 482.407c-11.472-3.444-22.943-6.89-34.417-10.333-1.948-.585-1.01-4.264-1.01-6.4v-19.838-44.395-5.077c0-1.536-1.1-.527.47-1 6.494-1.95 12.99-3.9 19.485-5.852l14.413-4.327c.744-.224-.262-.427-.262.476v97.212c0 .21 1.448.01 1.448-.39v-97.858c0-.197-.71-.035-.78-.014-11.85 3.56-23.702 7.117-35.553 10.678-.162.05-.668.163-.668.402v76.508c.027.05.07.074.127.078 11.85 3.56 23.7 7.115 35.553 10.674.322.1 1.596-.423 1.195-.543z"/><path fill="#552F2E" d="M191.89 434.123h75.684c.487 0 1.562-.74.586-.74h-75.683c-.487 0-1.56.74-.586.74zM156.36 414.162h35.555c.603 0 1.52-.916.538-.916H156.9c-.603 0-1.52.916-.54.916z"/><path fill="#552F2E" d="M156.562 434.267h35.553c.815 0 1.122-1.026.138-1.026H156.7c-.816 0-1.122 1.027-.138 1.027zM156.36 454.255h35.553c.596 0 1.522-.904.542-.904h-35.553c-.596 0-1.523.905-.542.905zM267.586 414.116h35.554c.543 0 1.542-.824.563-.824H268.15c-.545 0-1.544.824-.564.824zM267.803 434.283h35.554c.828 0 1.11-1.062.13-1.062H267.93c-.83.003-1.112 1.063-.13 1.063zM267.573 454.17h35.554c.483 0 1.563-.733.588-.733H268.16c-.482 0-1.562.732-.587.732z"/><path fill="#EE8F93" d="M192.184 519.982h75.683v75.684h-75.683z"/><path fill="#552F2E" d="M267.956 594.843h-75.683c.338.25.676.5 1.014.748v-75.683c-.397.3-.795.6-1.192.897h75.683c-.338-.25-.676-.5-1.014-.748v75.685c0 1.173 2.206.867 2.206-.15v-75.683c0-.575-.52-.748-1.014-.748h-75.683c-.442 0-1.192.37-1.192.896v75.685c0 .576.522.75 1.015.75h75.683c1.263 0 1.65-1.647.178-1.647z"/><path fill="#552F2E" d="M229.172 520.177v75.685c0 .262 1.45.045 1.45-.39v-75.684c0-.262-1.45-.045-1.45.39z"/><path fill="#FFF" d="M156.63 606.753l35.554-10.678v-76.507l-35.553-10.673z"/><path fill="#552F2E" d="M156.708 607.04c11.85-3.56 23.702-7.117 35.553-10.677.22-.066.648-.19.648-.482v-76.506c-.026-.063-.072-.102-.138-.118-11.85-3.56-23.702-7.116-35.553-10.674-.327-.1-1.31.035-1.31.507v97.857c0 .338 1.448.098 1.448-.39V508.7l-1.31.507c11.47 3.444 22.943 6.89 34.415 10.333 1.912.574 1 4.133 1 6.36v69.31c0 1.564 1.093.443-.49.92-6.496 1.95-12.99 3.9-19.486 5.852l-14.93 4.483c-.844.253-.7.832.154.576z"/><path fill="#FFF" d="M303.42 606.753l-35.553-10.678v-76.507l35.554-10.673z"/><path fill="#552F2E" d="M304.006 606.435c-11.473-3.444-22.945-6.89-34.417-10.336-1.908-.572-1-4.116-1-6.355v-19.84-44.394-5.077c0-1.567-1.092-.433.493-.907 6.495-1.95 12.99-3.9 19.486-5.852 4.803-1.44 9.607-2.885 14.413-4.327.75-.225-.286-.56-.286.387v97.211c0 .354 1.448.108 1.448-.39V508.7c0-.268-.694-.138-.805-.105-11.85 3.56-23.702 7.116-35.554 10.675-.226.066-.645.195-.645.49v76.508c.027.063.073.104.14.125 11.852 3.56 23.703 7.117 35.554 10.678.388.118 1.694-.478 1.172-.635z"/><path fill="#552F2E" d="M191.71 558.104h75.683c.284 0 1.644-.56.948-.56H192.66c-.283.003-1.643.56-.948.56zM156.364 538.243h35.553c.613 0 1.515-.933.534-.933H156.9c-.613.002-1.515.933-.534.933z"/><path fill="#552F2E" d="M156.366 558.3h35.553c.624 0 1.51-.947.528-.947h-35.553c-.625 0-1.51.948-.53.948zM156.56 578.376h35.552c.808 0 1.13-1.006.144-1.006h-35.553c-.808 0-1.13 1.006-.144 1.006zM267.577 538.158h35.554c.503 0 1.558-.763.58-.763h-35.553c-.502 0-1.556.763-.58.763zM267.598 558.284h35.554c.603 0 1.52-.916.538-.916h-35.555c-.602 0-1.518.916-.537.916zM267.588 578.293h35.554c.555 0 1.54-.84.56-.84h-35.554c-.555 0-1.54.84-.56.84zM396.154 641.492H360.81c-1 0-.418.453-.268-1.103l.698-7.24c.74-7.66 1.478-15.32 2.216-22.98l1.945-20.18c.114-1.182.23-2.362.343-3.545-.068.7-1.573.474.62.474h23.829c-.683 0 .61 10.17.747 11.586l4.203 43.584c.046.467 1.502.152 1.45-.39l-5.342-55.38c-.016-.172-.32-.208-.44-.208h-25.505c-.266 0-.972.13-1.007.496l-5.34 55.38c-.024.246.24.31.44.31h36.187c.533 0 1.548-.806.57-.806z"/><circle fill="#ED818D" cx="377.776" cy="582.911" r="12.752"/><path fill="#552F2E" d="M389.81 583.02c-.426 7.887-6.838 14.054-15.48 11.68-4.822-1.327-7.75-5.938-8.507-10.59-1.386-8.505 7.28-15.21 15.398-12.98 5.342 1.467 8.306 6.8 8.583 11.978.02.373 1.476.1 1.45-.39-.924-17.142-26.046-16.485-26.95.302-.925 17.176 26.04 16.582 26.944-.215.03-.507-1.416-.194-1.438.214zM699.146 638.672H561.034c-1.068 0-.305-.036-.305.256v-1.264-6.504-26.585-87.57-153.532-3.306c0 .617-1.785.49.107.49h136.827c1.163 0 .478-.66.478.856V639.18c0 .62 1.452.313 1.452-.176v-129.95-147.237-1.668c0-.25-.22-.333-.446-.333H560.284s-1.005.135-1.005.508V639.18c0 .248.218.332.444.332h138.863c.555 0 1.54-.84.56-.84z"/><g opacity=".4"><path fill="#E5DEDE" d="M480.977 381.688h60.963v257.404h-60.963z"/><path fill="#552F2E" d="M542.205 638.62h-60.441c-.813 0-.058.743-.058-.012V589.26 408.768 385.46v-3.802c0 .183-1.546.497-.66.497h59.624c1.298 0 .54-.348.54-.148v257.155c0 .69 1.46.42 1.46-.146V503.83 381.61c0-.257-.215-.398-.464-.398h-60.962c-.287 0-.996.128-.996.543v257.408c0 .256.215.397.464.397h60.962c.62.003 1.512-.94.53-.94z"/></g><path fill="#EB87B4" d="M686.483 434.43c0 12.935-10.493 23.43-23.43 23.43-12.934 0-23.425-10.495-23.425-23.43 0-12.936 10.49-23.424 23.426-23.424 12.936 0 23.43 10.488 23.43 23.425z"/><path fill="#EB87B4" d="M639.63 434.43c0 12.935-10.49 23.43-23.426 23.43-12.936 0-23.426-10.495-23.426-23.43 0-12.936 10.49-23.424 23.426-23.424 12.935 0 23.426 10.488 23.426 23.425z"/><path fill="#EB87B4" d="M592.778 434.43c0 12.935-10.49 23.43-23.427 23.43-12.934 0-23.428-10.495-23.428-23.43 0-12.936 10.494-23.424 23.43-23.424 12.935 0 23.426 10.488 23.426 23.425z"/><path fill="#EB87B4" d="M545.924 434.43c0 12.935-10.49 23.43-23.425 23.43-12.937 0-23.427-10.495-23.427-23.43 0-12.936 10.49-23.424 23.426-23.424 12.934 0 23.424 10.488 23.424 23.425z"/><path fill="#EB87B4" d="M499.073 434.43c0 12.935-10.49 23.43-23.426 23.43-12.936 0-23.427-10.495-23.427-23.43 0-12.936 10.49-23.424 23.427-23.424 12.935 0 23.426 10.488 23.426 23.425z"/><path fill="#EB87B4" d="M452.222 434.43c0 12.935-10.49 23.43-23.428 23.43-12.935 0-23.426-10.495-23.426-23.43 0-12.936 10.49-23.424 23.426-23.424 12.936 0 23.428 10.488 23.428 23.425zM405.368 434.43c0 12.935-10.49 23.43-23.426 23.43s-23.427-10.495-23.427-23.43c0-12.936 10.492-23.424 23.427-23.424 12.934 0 23.426 10.488 23.426 23.425z"/><path fill="#552F2E" d="M683.825 436.748c-.385 13.3-10.912 23.483-24.313 23.096-12.36-.356-21.467-11.316-21.81-23.147-.384-13.323 11.515-23.462 24.314-23.093 12.364.357 21.467 11.313 21.81 23.144.01.386.743.277.732-.053-.365-12.67-10.563-24.05-23.763-23.668-13.187.38-23.442 10.483-23.826 23.72-.367 12.69 11.107 24.04 23.764 23.673 13.187-.382 23.44-10.49 23.824-23.725.012-.383-.723-.28-.733.053z"/><path fill="#552F2E" d="M636.97 436.745c-.37 12.835-10.138 22.754-23.027 23.127-12.87.372-22.73-10.9-23.087-23.174-.37-12.833 10.71-22.767 23.03-23.123 12.87-.37 22.73 10.897 23.084 23.17.013.396.746.296.736-.047-.383-13.254-10.558-23.3-23.765-23.68-13.188-.382-23.455 11.072-23.82 23.727-.384 13.25 11.126 23.318 23.765 23.684 13.19.38 23.455-11.08 23.82-23.73.012-.396-.726-.3-.735.045z"/><path fill="#552F2E" d="M590.12 436.75c-.384 13.302-10.906 23.487-24.31 23.1-12.37-.356-21.47-11.323-21.81-23.155-.387-13.325 11.508-23.466 24.31-23.097 12.373.357 21.468 11.32 21.81 23.152.012.38.743.264.733-.057-.365-12.67-10.565-24.04-23.76-23.66-13.185.382-23.444 10.48-23.828 23.717-.365 12.69 11.108 24.028 23.763 23.663 13.185-.382 23.442-10.486 23.825-23.72.012-.377-.723-.266-.733.057z"/><g><path fill="#552F2E" d="M543.268 436.754c-.384 13.3-10.895 23.496-24.307 23.108-12.365-.357-21.47-11.343-21.812-23.173-.387-13.324 11.5-23.477 24.308-23.105 12.365.356 21.47 11.337 21.812 23.17.012.362.74.235.732-.064-.367-12.672-10.56-24.02-23.756-23.642-13.178.382-23.446 10.47-23.83 23.706-.365 12.69 11.105 24.01 23.758 23.646 13.178-.383 23.445-10.476 23.828-23.71.01-.362-.723-.24-.732.064z"/></g><g><path fill="#552F2E" d="M496.42 436.77c-.396 13.745-11.644 24.25-25.57 23.037-11.34-.985-19.57-10.925-20.518-21.807-1.242-14.282 11.767-25.56 25.53-24.36 11.88 1.03 20.228 11.77 20.557 23.18.005.204.73.066.724-.194-.396-13.702-11.396-23.873-25.02-23.48-12.645.365-22.202 11.404-22.555 23.627-.398 13.74 11.937 23.907 25.017 23.53 12.646-.367 22.202-11.41 22.556-23.63.007-.278-.716-.12-.723.098z"/></g><g><path fill="#552F2E" d="M449.57 436.77c-.398 13.75-11.646 24.247-25.575 23.035-11.34-.986-19.57-10.92-20.517-21.804-1.242-14.287 11.77-25.555 25.53-24.357 11.882 1.033 20.23 11.77 20.56 23.177.006.213.73.073.725-.193-.396-13.702-11.398-23.877-25.02-23.483-12.647.365-22.202 11.408-22.556 23.63-.396 13.74 11.938 23.912 25.02 23.534 12.646-.364 22.204-11.412 22.557-23.633.006-.286-.72-.13-.725.096z"/></g><g><path fill="#552F2E" d="M402.715 436.818c-.425 14.713-13.313 25.606-28.137 22.572-10.684-2.187-17.688-12.273-17.99-22.767-.43-14.825 14.09-25.442 28.135-22.57 10.684 2.188 17.69 12.273 17.992 22.765.003.123.73.01.726-.193-.41-14.235-12.274-24.54-26.362-23.314-12.078 1.052-20.875 11.755-21.214 23.51-.413 14.282 12.877 24.49 26.362 23.318 12.078-1.05 20.875-11.76 21.215-23.513.002-.11-.72-.017-.725.193z"/></g><g><path fill="#FFF" d="M576.346 377.88H681.34c.937 0 3.133-1.42 1.187-1.42H577.534c-.937 0-3.136 1.42-1.188 1.42z"/></g><g opacity=".4"><path fill="#552F2E" d="M492.45 470.89h47.137c.59 0 3.297-1.157 1.887-1.157h-47.136c-.592-.002-3.297 1.157-1.887 1.157z"/></g><g opacity=".4"><path fill="#552F2E" d="M492.87 401.852h47.137c1.28 0 3.007-1.943 1.047-1.943h-47.136c-1.28-.003-3.007 1.942-1.047 1.942z"/></g><g opacity=".4"><path fill="#552F2E" d="M492.87 508.537h47.137c1.277 0 3.007-1.94 1.047-1.94h-47.136c-1.277 0-3.007 1.94-1.047 1.94z"/></g><g opacity=".4"><path fill="#552F2E" d="M492.867 527.153h47.136c1.262 0 3.015-1.916 1.055-1.916h-47.136c-1.262 0-3.015 1.916-1.055 1.916z"/></g><g><path fill="#552F2E" d="M435.344 639.377H813.55c.29 0 1.646-.57.945-.57H436.29c-.29 0-1.647.57-.946.57z"/></g><g><path fill="#EEECAD" d="M632.82 507h102.737v28.227H632.82z"/><path fill="#552E2E" d="M736.256 534.756H634.313c-1.12 0-.402.296-.402-.877v-9.642-17.528l-1.784.762H734.07c1.12 0 .402-.296.402.877v27.168c0 .417 2.175.085 2.175-.58V506.71c0-.14-.313-.18-.39-.18H633.518c-.42 0-1.784.14-1.784.762v28.226c0 .142.313.18.39.18h102.737c.488 0 2.486-.942 1.393-.942z"/></g><g><path fill="#F1A3A5" d="M651.45 535.227h65.48v103.865h-65.48z"/><path fill="#552F2E" d="M717.358 638.492h-64.786c-1.183 0-.033-.05-.033.258v-75.095-28.72c-.506.297-1.01.594-1.517.89h64.785c1.182 0 .032.05.032-.257v103.815c0 .646 2.174.243 2.174-.582V534.938c0-.257-.504-.31-.658-.31h-65.48c-.514 0-1.515.233-1.515.892v103.863c0 .256.504.31.658.31h65.48c.793-.002 2.326-1.2.858-1.2z"/></g></g><g id="p7_UI"><path fill="#67E4B3" d="M282.05 256.29c0 5.5-4.5 10-10 10H213.66c-5.5 0-10-4.5-10-10v-58.396c0-5.5 4.5-10 10-10h58.393c5.5 0 10 4.5 10 10v58.395z"/><image xmlns="http://www.w3.org/2000/svg" overflow="visible" width="66" height="49" xmlns:xlink="http://www.w3.org/1999/xlink" xlink:href="./images/UI.png" transform="translate(205.036 198.47)"/><path fill="#552F2E" d="M276.604 254.48c-.65 9.565-8.697 9.015-15.66 9.015H216.558c-6.645 0-13.64.11-15.36-8.24-.77-3.745-.09-8.232-.09-12.012v-23.49-20.278c0-6.064 1.014-12.776 9.03-12.776h52.831c6.153 0 12.026.88 13.54 8.236.626 3.044.092 6.675.092 9.74V254.68c0 .857 2.897.32 2.897-.775v-35.133-19.813c0-5.96-1.265-11.16-7.642-13.387-3.4-1.188-8.13-.472-11.626-.472h-44.309c-4.32 0-8.196-.25-12.195 1.766-5.085 2.56-5.52 7.93-5.52 12.868V254.68c0 14.14 21.52 10.407 30.293 10.407h38.628c6.5 0 11.918-4.355 12.368-10.986.08-1.147-2.828-.557-2.892.38z"/></g><g id="p7_bub"><path fill="#7EC2EB" d="M797.283 66.824c.18-17.822-14.127-32.412-31.95-32.59-17.823-.177-32.41 14.126-32.59 31.95-.055 5.65 1.348 10.972 3.854 15.617l27.99 54.35 28.93-54.527c2.352-4.417 3.712-9.446 3.766-14.8z" opacity=".3"/><path fill="#552F2E" d="M794.998 67.608c-.23-20.37-18.078-35.133-38.063-32.336-20.373 2.85-32.36 24.293-26.02 43.333 1.252 3.758 3.53 7.427 5.34 10.943l9.69 18.815c4.972 9.648 9.94 19.297 14.907 28.948.235.454 1.272.057 1.447-.286 5.52-10.403 11.04-20.808 16.562-31.21 6.16-11.616 15.635-24.698 16.136-38.206.016-.356-1.434-.136-1.45.374-.498 13.395-10.022 26.52-16.133 38.03-5.52 10.403-11.036 20.807-16.556 31.21.48-.095.963-.19 1.446-.288-9.08-17.63-18.162-35.26-27.24-52.89-8.364-16.243-4.36-35.556 12.13-44.845 21.302-12.006 46.09 6 46.35 28.783.005.373 1.458.127 1.452-.375z"/><path fill="#8BCDC3" d="M768.813 144.773c-.022 2.19-1.833 3.963-4.02 3.94l-7.19-.072c-2.192-.02-3.964-1.83-3.94-4.018l.068-7.08 15.154.15-.07 7.08z"/><path fill="#552E2E" d="M768.087 144.958c-.388 3.483-3.152 3.468-5.82 3.44-1.994-.02-4.37.32-6.196-.696-2.803-1.565-1.64-7.748-1.614-10.348l-1.2.473 12.08.12 2.605.026c.602.005.22.002.21.8-.022 2.063-.043 4.123-.063 6.185-.004.226 1.446.035 1.45-.374.025-2.36.047-4.72.07-7.08.003-.088-.21-.1-.248-.1l-15.154-.15c-.25 0-1.197.1-1.2.474-.04 4.18-1.44 11.144 4.657 11.205 4.042.04 11.236 1.424 11.878-4.35.023-.176-1.403-.054-1.453.375z"/><path fill="#552F2E" d="M760.584 137.306c-.038 3.854-.08 7.707-.116 11.56 0 .386 1.45.145 1.454-.375.04-3.853.077-7.706.112-11.56.01-.383-1.445-.143-1.45.376zM748.31 113.28l25.827.256c1.082.01 3.104-1.61 1.145-1.63l-25.828-.255c-1.08-.008-3.104 1.612-1.145 1.63zM750.896 118.147l20.384.204c.863.01 3.166-1.28 1.226-1.3l-20.383-.203c-.865-.01-3.167 1.28-1.227 1.3z"/><g><path fill="#552F2E" d="M753.47 123.258l15.183.15c.97.01 3.138-1.444 1.185-1.463l-15.18-.15c-.974-.01-3.14 1.443-1.188 1.463z"/></g></g><path opacity=".8" fill="#66BAED" d="M.847.527h960v641h-960z" id="p7_mask"/><g id="p7_static"><g fill="none" stroke="#FFF" stroke-width=".75" stroke-miterlimit="10"><g xmlns="http://www.w3.org/2000/svg"><path d="M678.013 188.617l-1.766-4.68 1.766 4.68"/><path stroke-dasharray="10.1394,10.1394" d="M681.592 198.103l148.56 393.687"/><path d="M831.942 596.533l1.766 4.678-1.766-4.677"/><path stroke-dasharray="10.1394,10.1394" d="M828.363 587.047L679.803 193.36"/></g><g xmlns="http://www.w3.org/2000/svg"><path d="M665.544 364.703h5-5"/><path stroke-dasharray="10.1366,10.1366" d="M655.407 364.703H336.105"/><path d="M331.037 364.702h-5 5"/><path stroke-dasharray="10.1366,10.1366" d="M341.174 364.702h319.302"/></g><g xmlns="http://www.w3.org/2000/svg"><path d="M317.935 641.896v-5"/><path stroke-dasharray="9.9518,9.9518" d="M317.935 626.943v-472.71"/><path d="M317.935 149.258v-5"/></g><g xmlns="http://www.w3.org/2000/svg"><path d="M960.004 450.27l-4.593-1.974"/><path stroke-dasharray="9.4132,9.4132" d="M946.764 444.577l-99.444-42.77"/><path d="M842.996 399.946l-4.593-1.975v5"/><path stroke-dasharray="10.3379,10.3379" d="M838.403 413.31l-.004 222.263"/><path d="M838.4 640.742v5-5"/><path stroke-dasharray="10.0744,10.0744" d="M838.4 630.668V11.092"/><path d="M838.4 6.055v-5 5"/><path stroke-dasharray="9.9602,9.9602" d="M838.4 16.015V250.08"/><path d="M838.4 255.06v5l4.593-1.974"/><path stroke-dasharray="9.412,9.412" d="M851.64 254.37l99.443-42.74"/><path d="M955.406 209.772l4.594-1.974"/></g><g xmlns="http://www.w3.org/2000/svg"><path d="M-21.563 155.96h5"/><path stroke-dasharray="10.0926,10.0926" d="M-6.47 155.96h237.175"/><path d="M235.75 155.96h5-5"/><path stroke-dasharray="10.0454,10.0454" d="M225.706 155.96h-75.34"/><path d="M145.343 155.96h-5v5"/><path stroke-dasharray="10.1285,10.1285" d="M140.343 171.09v460.847"/><path d="M140.343 637v5"/></g><g xmlns="http://www.w3.org/2000/svg"><path d="M488.76 640.57v-5"/><path stroke-dasharray="10.1184,10.1184" d="M488.76 625.452V165.064"/><path d="M488.76 160.005v-5h5"/><path stroke-dasharray="9.6344,9.6344" d="M503.394 155.005h149.333"/><path d="M657.544 155.004h5v5"/><path stroke-dasharray="9.9244,9.9244" d="M662.544 169.928v451.56"/><path d="M662.544 626.45v5"/></g></g><g xmlns="http://www.w3.org/2000/svg"><path fill="#E47274" d="M240.905 125.774c.143-.71.22-1.446.22-2.197v-10.56c0-6.14-4.976-11.115-11.116-11.115h-17.783c-.576 0-1.14.057-1.69.14-.07 0-13.315-.094-13.315 15.982v7.5h-5.973c-4.067 0-7.366 3.3-7.366 7.365 0 4.066 3.3 7.363 7.365 7.363h6.528c0-3.068 2.488-5.557 5.56-5.557 3.067 0 5.556 2.488 5.556 5.557h18.34c0-3.068 2.488-5.557 5.56-5.557 3.067 0 5.556 2.488 5.556 5.557h.695c4.066 0 7.363-3.297 7.363-7.364-.003-3.422-2.34-6.29-5.503-7.116z"/><path fill="#E47274" d="M231.677 102.185c0 3.223-2.613 5.836-5.834 5.836h-12.227c-3.225 0-5.836-2.612-5.836-5.835 0-3.224 2.61-5.837 5.836-5.837h12.227c3.222 0 5.834 2.614 5.834 5.837z"/><path fill="#552F2E" d="M206.98 101.988c.644-6.386 7.293-5.324 11.857-5.324 4.482 0 9.985-.396 10.59 5.604.05.506 1.506.183 1.448-.39-.727-7.207-8.02-6.067-13.31-6.067-5.143 0-11.356-.407-12.037 6.35-.062.61 1.4.34 1.452-.172z"/><circle fill="#E5DEDE" cx="203.336" cy="140.254" r="3.891"/><circle fill="#E5DEDE" cx="232.79" cy="140.254" r="3.89"/><path fill="#552F2E" d="M209.134 102.145v23.07c0 .7 1.46.433 1.46-.14v-23.072c0-.698-1.46-.432-1.46.142zM226.427 125.22v-23.624c0-.415-1.45-.15-1.45.39v23.623c.002.414 1.45.15 1.45-.39z"/><path fill="#552F2E" d="M245.602 132.584c-.577-2.993-1.65-5.072-4.27-6.713-1.438-.9-1.01-2.802-1.01-4.248 0-4.515.666-9.555-1.13-13.8-3.592-8.496-15.445-6.395-22.687-6.395-5.078 0-10.043-.27-14.616 2.3-7.823 4.393-6.92 14.212-6.92 21.88.34-.185.68-.37 1.02-.557-5.907 0-12.306-.518-14.235 6.51-2.47 8.998 8.834 8.944 14.2 8.944.24 0 .977-.136 1.015-.47.72-6.25 8.988-5.63 9.67.3.02.164.325.17.43.17h18.34c.24 0 .977-.136 1.015-.47.72-6.252 8.99-5.63 9.672.3.013.11.192.153.27.16 5.347.565 9.627-2.214 9.235-7.91-.027-.39-1.483-.104-1.45.39.267 3.853-1.312 6.55-5.493 6.84-2.224.156-.894-1.927-2.384-3.417-2.633-2.632-5.877-2.698-8.927-.76-.37.236-3.73 4.143-1.42 4.143h-16.107c-1.853 0-1.7.46-1.88-1.105-.258-2.235-2.396-3.593-4.277-4.266-2.924-1.046-6.03.963-7.52 3.3-.134.213-1.124 2.07.215 2.07h-3.082c-3.257 0-6.003-.014-8.513-2.525-4.303-4.304-.296-11.476 5.413-11.476h5.223c.304 0 1.02-.155 1.02-.56 0-6.887-.878-14.732 4.633-19.903 3.586-3.365 8.564-3.162 13.11-3.162 6.76 0 16.098-1.686 21.505 3.16 4.64 4.16 3.84 14.79 2.993 20.456-.016.112.03.178.137.218 3.31 1.234 4.714 3.646 5.357 6.987.08.422 1.537.072 1.448-.39z"/><path fill="#552F2E" d="M204.976 140.243c-.11 2.026-1.552 3.882-3.817 3.26-1.43-.393-2.272-1.755-2.497-3.13-.352-2.162 1.62-4.19 3.792-3.592 1.588.438 2.436 2.023 2.518 3.556.022.412 1.477.127 1.45-.39-.306-5.654-8.94-5.06-9.23.296-.306 5.704 8.935 5.203 9.226-.202.027-.542-1.42-.233-1.444.203zM234.43 140.25c-.11 2.004-1.503 3.9-3.814 3.265-1.43-.394-2.274-1.768-2.5-3.143-.348-2.145 1.593-4.207 3.79-3.603 1.588.436 2.436 2.034 2.52 3.566.02.377 1.475.102 1.448-.39-.304-5.64-8.937-5.034-9.224.302-.306 5.685 8.93 5.167 9.22-.214.028-.508-1.418-.194-1.44.215zM195.394 125.758h43.686c.454 0 1.57-.688.6-.688h-43.686c-.454 0-1.572.688-.6.688z"/><path fill="none" d="M204.194 110.562l-4.25 7.875"/><path fill="#552F2E" d="M203.858 110.556l-4.25 7.875c-.162.302.563.217.674.013l4.25-7.875c.162-.3-.564-.216-.674-.012z"/><g><path fill="none" d="M207.78 111.603l-4.96 9.96"/><path fill="#552F2E" d="M207.433 111.552l-4.96 9.96c-.19.382.545.41.698.102l4.96-9.96c.19-.382-.544-.41-.697-.102z"/></g></g><path fill="#EB87B4" d="M534.782 94.354h30.25v48.284h-30.25z" opacity=".5"/><path fill="#552F2E" d="M563.117 143.59H532.91c.705 0 .334-4.706.334-5.59V92.436l-1.797.714h30.208c-.705 0-.334 4.707-.334 5.592v45.562c0 .307 2.174.008 2.174-.582V92.438c0-.127-.323-.132-.377-.132h-30.25c-.356 0-1.797.18-1.797.714v51.284c0 .127.322.132.377.132h30.25c.43 0 2.467-.846 1.42-.846z"/><path fill="#E5DEDE" d="M477.49 92.73h54.667v51.283H477.49z"/><path fill="#552F2E" d="M532.267 143.266H477.6l.99.65V92.632l-1.208.843h54.666l-.987-.65v51.284c0 1.087 2.195.715 2.195-.193V92.633c0-.56-.533-.65-.987-.65h-54.666c-.396 0-1.207.347-1.207.843v51.284c0 .56.53.65.987.65h54.666c1.205 0 1.698-1.494.22-1.494z"/><path fill="none" stroke="#552F2E" stroke-miterlimit="10" d="M477.49 144.013l27.335-51.284 26.582 51.283"/><path fill="#E5DEDE" stroke="#552F2E" stroke-miterlimit="10" d="M629.02 120.496h-67.26"/><g><circle fill="#E5DEDE" cx="629.02" cy="120.496" r="3.499"/><path fill="#552F2E" d="M631.8 120.603c-.095 1.744-1.272 3.452-3.302 2.894-1.28-.352-2.032-1.583-2.232-2.814-.304-1.862 1.346-3.72 3.274-3.188 1.424.39 2.18 1.823 2.254 3.195.02.377 1.476.102 1.45-.39-.277-5.13-8.186-4.53-8.443.302-.278 5.177 8.176 4.663 8.44-.214.026-.508-1.42-.194-1.44.215z"/></g><g fill="none" stroke="#552F2E" stroke-miterlimit="10"><path d="M60.468 143.92V40.52h27.834"/><g stroke-width="2"><circle cx="99.236" cy="40.521" r="4.386"/><circle cx="99.236" cy="40.521" r="7.386"/><path d="M110.175 40.52c0-.433-.033-.858-.082-1.28l4.598-3.687-3.397-5.885-5.498 2.14c-.684-.51-1.422-.95-2.213-1.29l-.895-5.818H95.89l-.893 5.818c-.793.34-1.53.78-2.213 1.29l-5.498-2.14-3.398 5.886 4.598 3.688c-.05.42-.082.847-.082 1.28 0 .435.03.86.082 1.282l-4.598 3.687 3.398 5.887 5.498-2.14c.682.51 1.42.95 2.213 1.29l.895 5.817h6.795l.895-5.818c.793-.34 1.53-.78 2.213-1.29l5.498 2.14 3.398-5.885-4.597-3.687c.05-.422.082-.848.082-1.282z"/></g></g><g><path fill="#E5DEDE" d="M527.03 339.425h2.28v38.58h-2.28z"/><path fill="#552F2E" d="M529.58 377.545c-1.268 0-1.82.582-1.82-.143v-3.745-13.026-21.247c0 .776-.865.5.93.5-.144 0-.105-.634-.105.145v38.052c0 .675 1.457.395 1.457-.152V339.35c0-.254-.216-.384-.46-.384h-2.28c-.277 0-.998.13-.998.535v38.58c0 .254.216.383.46.383h2.28c.602 0 1.517-.918.536-.918z"/><circle fill="#8BCDC3" cx="530.598" cy="330.13" r="15.675"/><path fill="#552F2E" d="M543.12 330.227c-.43 10.13-9.425 17.367-19.564 14.273-6.39-1.95-10.063-8.32-10.334-14.662-.438-10.284 10.188-17.137 19.564-14.274 6.39 1.95 10.065 8.322 10.334 14.663.017.385 1.47.112 1.45-.39-.897-21.016-31.922-20.197-32.8.39-.39 9.164 8.718 16.916 17.64 15.77 8.563-1.1 14.787-7.404 15.16-16.16.014-.353-1.427-.123-1.45.39z"/><g><path fill="#552F2E" d="M520.46 323.26c-.935 2.844-.54 6.236-.708 9.205-.11 1.95 2.96 1.26 4.053 1.2.825-.047 1.11-1.134.123-1.08-.594.034-1.186.106-1.777.15-1.448.104-.9-1.95-.85-2.794.136-2.11-.117-4.482.548-6.505.263-.804-1.184-.796-1.39-.175z"/><path fill="#552F2E" d="M526.634 332.766c-.646-.396-.974-1.057-1.117-1.783-.083-.416-.105-1.414.52-1.355.806.073 1.186.793 1.238 1.533.024.385-.065 1.618-.663 1.564-.74-.074-1.47 1.002-.49 1.098 3.058.302 3.59-4.533.737-5.223-1.32-.317-2.53.312-2.814 1.665-.256 1.23.422 2.725 1.48 3.366.57.347 1.824-.43 1.108-.864zM536.357 332.77c-.65-.396-.977-1.06-1.118-1.787-.084-.416-.11-1.422.514-1.363.81.072 1.19.804 1.242 1.543.026.385-.065 1.625-.662 1.564-.73-.07-1.473.986-.494 1.082 3.055.3 3.595-4.52.74-5.206-1.312-.315-2.53.313-2.812 1.66-.257 1.23.423 2.717 1.48 3.36.56.342 1.82-.422 1.11-.854z"/><path fill="#552F2E" d="M533.677 328.875c-1.27-1.12-2.87-.948-4.014.316-.872.964-1.218 2.92-.134 3.82.97.808 2.928.976 3.826-.044.383-.434.52-1.188.16-1.683-.422-.58-1.204-.52-1.815-.323-.617.2-.895.796-.02.69.522-.062 1.05-.08 1.57-.143.26-.03.742-.17.83-.467.09-.308-.46-.283-.613-.267-.52.063-1.048.082-1.568.144-.008.23-.017.462-.022.692.477-.154.47 1.27.25 1.286-.632.045-1.386-.393-1.682-.94-.33-.617-.06-1.5.172-2.103.132-.35.322-.63.6-.87.373-.324.83.186 1.11.433.356.322 1.7-.23 1.35-.54z"/></g></g><g><path fill="#E5DEDE" d="M617.015 183.975l6.38 6.378-6.38 6.38-6.378-6.38z"/><path fill="#552F2E" d="M617.667 196.386l-6.354-6.352c.224.22-.275.65.128.248l.587-.586c.733-.736 1.472-1.47 2.207-2.207 1.12-1.123 2.243-2.245 3.365-3.366-.423.04-.845.083-1.266.124l6.352 6.35c-.222-.22.277-.65-.126-.247-.193.196-.39.392-.586.587-.733.735-1.47 1.47-2.206 2.207l-3.364 3.366c-.634.633.777.786 1.195.368l6.376-6.378c.115-.116.207-.353.067-.492l-6.377-6.377c-.34-.338-.957-.182-1.265.125-2.125 2.126-4.252 4.25-6.38 6.377-.113.116-.206.353-.065.492l6.38 6.378c.43.43 1.805-.143 1.332-.616z"/></g><g><path fill="#67E4B3" d="M817.876 457.32l-30.38-80.103s-3.277-10.52-16.378-8.403l37.177 98.02 6.857-2.6s4.614-1.926 2.724-6.913z" opacity=".6"/><path fill="#552F2E" d="M816.963 457.03l-20.56-54.21c-3.134-8.26-6.27-16.52-9.398-24.776-2.942-7.762-9.544-11.058-17.782-9.994-.42.056-1.43.43-1.19 1.058l37.178 98.02c.242.636 1.064.51 1.564.32 5.044-1.917 12.184-3.344 10.19-10.418-.272-.97-2.446-.382-2.175.582 1.728 6.138-4.728 7.005-8.97 8.612.522.106 1.04.215 1.562.32l-37.177-98.022-1.19 1.058c9.37-1.21 13.787 3.692 16.682 11.32 3.407 8.99 6.816 17.98 10.228 26.967 6.29 16.58 12.578 33.163 18.867 49.744.358.953 2.52.336 2.17-.58z"/><path fill="#552F2E" d="M814.393 424.987c-3.63-9.567-7.258-19.136-10.887-28.703-3.012-7.94-5.268-15.077-15.68-14.03-.124.012-1.143.207-1.045.46 6.306 16.62 12.608 33.243 18.914 49.866.117.313 1.223-.11 1.376-.265 2.417-2.4 4.833-4.805 7.25-7.204.27-.27-1.072-.092-1.306.142-2.417 2.4-4.833 4.803-7.25 7.204.46-.09.918-.177 1.377-.265-6.304-16.622-12.605-33.243-18.912-49.866-.35.152-.695.307-1.046.46 11.265-1.132 12.99 8.928 16.1 17.114 3.22 8.492 6.438 16.983 9.66 25.478.12.31 1.54-.15 1.45-.39zM803.81 469.463c-8.57-22.6-17.143-45.202-25.715-67.803l-12.123-31.967c-.23-.607-.462-1.215-.69-1.823.25.655 1.86-.31 3.11-.784-.755.286-.975-.652-.616.288 1.222 3.222 2.44 6.442 3.666 9.664 7.278 19.196 14.562 38.396 21.843 57.593 3.198 8.436 6.396 16.866 9.595 25.3l2.63 6.934c.187.488.37.98.56 1.47-.032-.082.853-.618-.286-.185l-3 1.136c-.937.354-.098 1.017.612.748 1.247-.476 2.493-.946 3.74-1.42.188-.07.51-.325.418-.567-12.846-33.868-25.688-67.735-38.535-101.604-.153-.405-.725-.297-1.03-.18l-3.74 1.418c-.186.072-.51.327-.418.57 12.846 33.867 25.69 67.735 38.535 101.603.22.594 1.658.178 1.444-.39z"/><path fill="#E5DEDE" d="M773.882 390.538c-3.573 1.354-7.563-.442-8.922-4.017-1.354-3.566.443-7.562 4.014-8.917 3.573-1.354 7.566.443 8.92 4.015 1.355 3.573-.44 7.566-4.012 8.92z"/><path fill="#552F2E" d="M773.754 390.447c-7.66 2.47-11.938-7.838-5.754-12.2 3.89-2.746 8.525.35 9.75 4.144 1.078 3.347-1.056 6.77-4.08 8.095-.437.19.244.188.423.108 3.893-1.704 5.606-5.776 3.88-9.72-1.558-3.555-5.768-4.44-9.127-3.36-4.09 1.32-5.585 6.06-3.964 9.757 1.56 3.555 5.77 4.442 9.128 3.36.49-.16.026-.275-.256-.183z"/><path fill="#552F2E" d="M772.47 386.693c-3.064.988-4.803-3.354-2.318-5.104 2.783-1.966 5.54 3.676 2.13 5.17-.918.402-.087 1.004.603.7 1.895-.83 2.965-2.703 2.313-4.735-.67-2.082-3.146-2.72-5.028-2.107-2.033.656-3.153 2.773-2.5 4.804.674 2.084 3.144 2.718 5.03 2.106.85-.277.643-1.117-.23-.835z"/><circle fill="#E5DEDE" cx="797.631" cy="453.159" r="6.918"/><path fill="#552F2E" d="M799.962 459.56c-7.426 2.394-11.69-7.19-6.27-11.882 3.978-3.445 9.002-.103 10.26 3.8 1.076 3.34-1.043 6.785-4.074 8.114-.436.19.252.145.412.072 3.89-1.704 5.618-5.75 3.886-9.703-1.557-3.552-5.764-4.42-9.12-3.34-4.088 1.316-5.595 6.03-3.97 9.738 1.56 3.554 5.764 4.42 9.12 3.34.494-.16.023-.225-.244-.14z"/><path fill="#552F2E" d="M798.71 455.922c-3.09.997-4.694-3.38-2.52-5.263 2.59-2.24 5.968 3.728 2.33 5.323-.94.408-.06.687.525.43 1.87-.82 3.01-2.543 2.35-4.603-.674-2.088-3.152-2.56-4.99-1.967-2.006.647-3.2 2.604-2.536 4.658.676 2.09 3.142 2.567 4.988 1.972.832-.266.7-.824-.148-.55zM805.78 405.262l-17.77 14.324c-.767.617.43.955.933.55l17.77-14.325c.766-.617-.43-.955-.933-.548zM804.876 430.104c-3.352 2.756-6.702 5.513-10.053 8.27-.312.255 1.044.108 1.31-.11 3.355-2.757 6.703-5.514 10.054-8.27.31-.256-1.044-.11-1.31.11zM791.205 393.678l-10.054 8.27c-.664.548.772.652 1.185.316 3.35-2.757 6.702-5.514 10.054-8.27.664-.547-.775-.653-1.185-.316zM799.108 387.426l-8.656 3.283c-.938.354-.097 1.006.61.737 2.886-1.096 5.77-2.188 8.655-3.283.94-.355.098-1.007-.61-.738zM803.255 437.43c2.563 6.75 5.122 13.504 7.683 20.257.195.516 1.63.087 1.45-.39-2.562-6.75-5.123-13.504-7.684-20.257-.195-.514-1.63-.085-1.45.39zM795.546 417.1c.58 1.53 1.16 3.06 1.738 4.59.177.465 1.605.027 1.45-.39l-1.74-4.59c-.176-.464-1.606-.028-1.448.39z"/><g><path fill="#552F2E" d="M788.81 399.344l2.094 5.516c.13.34 1.553-.113 1.447-.39-.694-1.837-1.393-3.676-2.09-5.515-.13-.34-1.553.115-1.45.39z"/></g><g><path fill="#552F2E" d="M815.176 461.773c.572 1.51 1.146 3.018 1.72 4.524l.395-.647c-1.458.554-2.917 1.105-4.376 1.66l1.053.262-1.182-3.116c-.26-.688-1.704-.283-1.45.39.396 1.037.79 2.076 1.183 3.115.17.445.688.4 1.055.262 1.46-.554 2.918-1.105 4.377-1.66.22-.084.493-.395.396-.648-.572-1.51-1.146-3.02-1.718-4.526-.264-.69-1.707-.286-1.452.385z"/></g></g><g><path fill="#E5DEDE" d="M247.7 581.935c0 7.427-6.076 13.5-13.502 13.5h-46.79c-7.426 0-13.502-6.073-13.502-13.5v-.985c0-7.425 6.076-13.5 13.5-13.5H234.2c7.426 0 13.502 6.075 13.502 13.5v.985z"/><path fill="#552F2E" d="M244.966 582.987c-.354 6.954-5.414 12.908-12.733 12.908h-43.206c-1.585 0-3.164.016-4.747-.064-7.246-.368-11.64-7.312-11.64-13.937 0-6.966 5.693-12.907 12.733-12.907h43.205c1.585 0 3.164-.017 4.747.063 7.247.37 11.64 7.312 11.64 13.937 0 .77 1.47.56 1.47-.105 0-8.12-5.752-14.975-14.202-14.975h-37.717c-4.768 0-9.94-.574-14.486 1.1-8.25 3.034-10.792 13.145-7.212 20.543 2.766 5.722 8.774 7.425 14.592 7.425h41.168c9.07 0 17.332-3.778 17.856-14.093.04-.767-1.434-.563-1.468.105z"/><path fill="#552F2E" d="M205.907 568.81v73.804c0 2.43 5.796 1.18 5.796-.727v-73.803c0-2.43-5.796-1.18-5.796.725z"/></g></g></svg>