<?xml version="1.0" encoding="utf-8"?>
<!-- Generator: Adobe Illustrator 16.0.0, SVG Export Plug-In . SVG Version: 6.00 Build 0)  -->
<!DOCTYPE svg PUBLIC "-//W3C//DTD SVG 1.1//EN" "http://www.w3.org/Graphics/SVG/1.1/DTD/svg11.dtd">
<svg version="1.1" id="图层_1" xmlns="http://www.w3.org/2000/svg" xmlns:xlink="http://www.w3.org/1999/xlink" x="0px" y="0px"
	 width="960px" height="640px" viewBox="0 0 960 640" enable-background="new 0 0 960 640" xml:space="preserve">
	<g id="gesture">
		<g>
			<g>
				<path fill="#562F2F" d="M449.914,265.438c-2.863-2.487-5.727-4.975-8.59-7.463c-1.16-1.007-0.538-0.973,0.513-2.182     c1.7-1.957,3.399-3.913,5.1-5.87c0.484-0.557,0.968-1.114,1.452-1.671c0.45-0.518-0.424-0.356-0.376,0.322     c0.129,1.844,0.259,3.688,0.389,5.531c0.271,3.855,0.542,7.71,0.813,11.565c0.014,0.203,0.742,0.058,0.725-0.194     c-0.414-5.88-0.827-11.761-1.241-17.641c-0.017-0.244-0.62,0.014-0.696,0.101c-2.734,3.146-5.467,6.292-8.201,9.438     c-0.032,0.037-0.046,0.096-0.004,0.132c3.147,2.734,6.294,5.468,9.441,8.203C449.415,265.863,450.085,265.586,449.914,265.438z"/>
			</g>
		</g>
		<g>
			<g>
				<path fill="#562F2F" d="M449.305,259.063c44.436,0,88.872,0,133.308,0c0.29,0,1.646-0.569,0.945-0.569     c-44.436,0-88.872,0-133.308,0C449.961,258.494,448.604,259.063,449.305,259.063L449.305,259.063z"/>
			</g>
		</g>
		<g>
			<g>
				<path fill="#562F2F" d="M449.305,255.563c44.436,0,88.872,0,133.308,0c0.29,0,1.646-0.569,0.945-0.569     c-44.436,0-88.872,0-133.308,0C449.961,254.994,448.604,255.563,449.305,255.563L449.305,255.563z"/>
			</g>
		</g>
		<g id="hand">
			<path fill="#FFFFFF" d="M600.974,271.972c0-1.564-1.268-2.832-2.831-2.832c-1.564,0-2.832,1.268-2.832,2.832   c0,0.001,0.001,0.003,0.001,0.005h-0.001c0-0.002,0-0.003,0-0.005c0-1.564-1.268-2.832-2.83-2.832   c-1.564,0-2.832,1.268-2.832,2.832c0,0.001,0,0.003,0,0.005l0,0c0-0.002,0-0.003,0-0.005c0-1.564-1.268-2.832-2.831-2.832   c-1.511,0-2.741,1.184-2.823,2.673v-14.443c0-1.708-1.385-3.092-3.093-3.092s-3.093,1.385-3.093,3.092v36.067h23.165v-21.46h-0.001   C600.973,271.975,600.974,271.974,600.974,271.972z"/>
			<g>
				<g>
					<path fill="#562F2F" d="M600.866,272.674c-0.793-3.928-5.357-3.554-6.095,0.096c0.235-1.164-0.314-2.873-2.477-2.958     c-0.646-0.026-1.955,0.361-2.356,0.957c-1.188,1.76-0.204,2.864-0.62,0.803c-0.246-1.218-1.68-1.56-2.647-1.755     c-0.714-0.144-1.822,0.413-2.322,0.879c-0.698,0.65-0.462,2.423-0.462,1.088c0-1.203,0-2.406,0-3.608c0-2.948,0-5.896,0-8.844     c0-3.65-2.622-5.444-5.664-3.394c-1.894,1.276-0.957,7.12-0.957,8.836c0,9.827,0,19.655,0,29.482     c0,0.027,0.064,0.031,0.077,0.031c7.722,0,15.443,0,23.165,0c0.076,0,0.358-0.032,0.358-0.147     C600.866,286.984,600.866,279.829,600.866,272.674c0-0.072-0.436-0.009-0.436,0.116c0,3.741,0,7.482,0,11.223     c0,2.585,0,5.17,0,7.755c0,1.222,0.252,2.34-0.123,2.34c-4.843,0-9.687,0-14.529,0c-2.034,0-8.077,1.292-8.077-1.164     c0-9.927,0-19.854,0-29.78c0-1.516,0-3.032,0-4.548c0-3.665,5.75-3.228,5.75,0.304c0,4.57,0,9.141,0,13.711     c0,0.08,0.409-0.004,0.432-0.096c0.627-2.489,5.223-2.477,5.223,0.259c0,0.027,0.064,0.031,0.077,0.031c0,0,0,0,0.001,0     c0.06,0,0.38-0.04,0.358-0.147c-0.548-2.739,5.767-2.59,5.229,0.096c-0.009,0.043,0.038,0.051,0.073,0.051c0,0,0,0,0.001,0     c0.076,0,0.358-0.032,0.358-0.147c0-2.821,4.72-2.4,5.227,0.111C600.45,272.884,600.887,272.78,600.866,272.674z"/>
				</g>
			</g>
		</g>
	</g>
	<g class="p0_light" id="biaoji000000">
		<path opacity="0.5" fill="#AEDECC" d="M980.244,631.425C896.702,528.273,700.39,433.767,479.338,433.767c-221.054,0-438.549,94.8-530,212.936
		L980.244,631.425z"/>
	</g>

	<g class="p0_earth">

		<path fill="#FFFFFF" d="M1006.081,641.553C922.539,538.4,728.086,466.36,507.033,466.36
				c-221.054,0-411.081,72.04-494.622,175.191L1006.081,641.553L1006.081,641.553z"/>

		<g opacity="0.5">

			<path fill="#552E2E" d="M988.986,641.236c-56.297-66.202-139.718-106.082-221.15-131.73
					c-106.937-33.681-221.224-44.17-332.845-37.298c-103.832,6.393-209.068,28.682-302.7,75.09
					c-47.132,23.36-92.177,53.73-126.462,94.048c-0.377,0.444,0.128,0.729,0.538,0.729c16.463,0,32.926,0,49.389,0
					c42.835,0,85.67,0,128.505,0c59.376,0,118.752,0,178.128,0c66.085,0,132.17,0,198.257,0c62.965,0,125.929,0,188.894,0
					c50.012,0,100.023,0,150.035,0c27.229,0,54.456,0,81.685,0c2.332,0,4.664,0,6.996,0c0.82,0,1.117-1.041,0.133-1.041
					c-16.463,0-32.926,0-49.389,0c-42.835,0-85.67,0-128.506,0c-59.376,0-118.752,0-178.128,0c-66.085,0-132.171,0-198.257,0
					c-62.964,0-125.929,0-188.894,0c-50.012,0-100.024,0-150.036,0c-27.228,0-54.457,0-81.685,0c-2.095,0-4.19,0-6.285,0
					c-0.182,0-0.365,0-0.547,0c0.334,0,1.793-0.937,2.523-1.778c6.154-7.118,12.715-13.878,19.523-20.37
					c31.171-29.725,68.188-53.007,106.699-71.977c95.841-47.209,203.904-68.68,310.017-74.261
					c112.979-5.943,228.539,6.438,336.043,42.528c76.131,25.56,153.354,64.563,206.189,126.693
					C988.078,642.363,989.457,641.789,988.986,641.236z"/>

		</g>

	</g>
	<g class="p0_bub1">
		<circle fill="#FBDB8D" cx="161.372" cy="244.743" r="56.834"/>

		<path fill="#552F2E" d="M212.483,244.773c-0.302,24.962-16.447,46.832-40.351,54.228c-24.029,7.434-50.161-3.164-63.72-23.869
				c-13.545-20.683-10.977-48.389,4.624-67.129c16.658-20.011,45.719-25.116,68.699-13.608
				C200.649,203.867,212.23,223.867,212.483,244.773c0.004,0.37,0.736,0.25,0.732-0.061c-0.259-21.42-11.988-40.689-30.918-50.725
				c-17.939-9.51-40.026-7.945-57.066,2.663c-17.802,11.082-27.512,31.681-26.26,52.368c1.281,21.163,15.276,39.707,34.407,48.196
				c17.252,7.656,37.573,5.482,53.422-4.383c16.5-10.27,26.184-28.884,26.417-48.12C213.22,244.344,212.487,244.462,212.483,244.773
				z"/>

		<image xmlns="http://www.w3.org/2000/svg" overflow="visible" width="71" height="42" xmlns:xlink="http://www.w3.org/1999/xlink" xlink:href="./images/70A9357E.png" transform="matrix(1 0 0 1 121.0854 224.6201)"></image>

	</g>
	<g class="p0_bub2">

		<circle fill="#8E99F7" cx="393.555" cy="107.433" r="56.834"/>

		<path fill="#552F2E" d="M444.67,107.53c-0.307,25.413-17.069,47.679-41.612,54.639c-24.654,6.992-50.983-4.854-63.791-26.527
				c-12.124-20.515-9.067-46.992,5.981-65.069c17.288-20.767,47.679-25.326,70.917-12.308
				C433.863,68.179,444.428,87.475,444.67,107.53c0.002,0.14,0.728,0.026,0.726-0.194c-0.271-22.3-13.056-42.213-33.224-51.733
				c-17.549-8.283-38.515-6.263-54.8,3.875c-18.168,11.31-27.89,32.526-26.102,53.606c1.826,21.528,16.784,39.992,36.663,47.72
				c16.765,6.518,35.983,3.986,51.092-5.418c16.482-10.259,26.138-28.833,26.371-48.05C445.396,107.2,444.673,107.307,444.67,107.53
				z"/>

		<image xmlns="http://www.w3.org/2000/svg" overflow="visible" width="75" height="69" xmlns:xlink="http://www.w3.org/1999/xlink" xlink:href="./images/70A93582.png" transform="matrix(1 0 0 1 347.9858 70.9307)"></image>

	</g>
	<g class="p0_bub3">

		<circle fill="#EF7477" cx="625.738" cy="107.433" r="56.834"/>

		<path fill="#552F2E" d="M676.849,107.457c-0.302,24.964-16.459,46.817-40.354,54.21c-24.023,7.432-50.156-3.146-63.716-23.852
				c-13.545-20.683-10.97-48.369,4.63-67.106C593.779,51.042,622.165,45.767,645,56.544
				C664.518,65.757,676.592,86.145,676.849,107.457c0.006,0.394,0.74,0.293,0.736-0.049c-0.25-20.641-11.393-40.388-29.834-50.165
				c-18.441-9.777-40.461-8.941-58.159,2.077c-17.493,10.89-27.996,31.864-26.255,52.388c1.803,21.259,14.928,39.566,34.411,48.213
				c17.259,7.659,37.568,5.489,53.424-4.379c16.502-10.271,26.181-28.898,26.413-48.134
				C677.59,107.015,676.854,107.114,676.849,107.457z"/>

		<image xmlns="http://www.w3.org/2000/svg" overflow="visible" width="77" height="71" xmlns:xlink="http://www.w3.org/1999/xlink" xlink:href="./images/70A93585.png" transform="matrix(1 0 0 1 584 75)"></image>

	</g>
	<g class="p0_bub4" xmlns="http://www.w3.org/2000/svg"><circle fill="#99CBBB" cx="857.922" cy="244.743" r="56.834"/><path fill="#552F2E" d="M909.036 244.84c-.31 25.413-17.063 47.688-41.61 54.648-24.657 6.993-50.984-4.865-63.793-26.537-12.123-20.513-9.067-46.996 5.98-65.073 17.29-20.77 47.674-25.327 70.917-12.306 17.7 9.918 28.264 29.215 28.506 49.27.002.125.728.015.725-.194-.27-22.3-13.056-42.212-33.22-51.73-17.545-8.28-38.522-6.255-54.8 3.88-18.17 11.31-27.893 32.518-26.105 53.6 1.826 21.53 16.783 39.985 36.662 47.714 16.762 6.517 35.986 3.98 51.092-5.42 16.48-10.26 26.14-28.826 26.37-48.043.002-.12-.72-.02-.724.193z"/><image xmlns="http://www.w3.org/2000/svg" xmlns:xlink="http://www.w3.org/1999/xlink" overflow="visible" width="96" height="87" xlink:href="./images/70A93586.png" transform="translate(803.74 199.24)"/></g>
	<g class="p0_tri1">

		<polygon fill="#E4DEDE" points="-3.18,-11.627 8.965,-1.077 -1.584,11.064 		"/>

		<path fill="#552F2E" d="M-5.166-9.981c3.683,3.2,7.366,6.399,11.049,9.599c1.501,1.304,0.66,1.326-0.66,2.845
				c-2.187,2.517-4.373,5.033-6.56,7.55c-0.623,0.716-1.245,1.433-1.868,2.15c-0.527,0.607,0.343,0.428,0.285-0.386
				c-0.166-2.372-0.333-4.743-0.5-7.115c-0.349-4.958-0.697-9.917-1.046-14.876c-0.015-0.203-0.742-0.058-0.725,0.194
				c0.532,7.564,1.063,15.128,1.596,22.692c0.018,0.244,0.62-0.014,0.696-0.101C0.618,8.524,4.135,4.477,7.65,0.43
				c0.032-0.037,0.046-0.096,0.004-0.132C3.606-3.218-0.441-6.735-4.49-10.252C-4.667-10.406-5.337-10.129-5.166-9.981z"/>

	</g>
	<g class="p0_tri2">

		<polygon fill="#E47174" points="-3.18,-11.627 8.965,-1.077 -1.584,11.064 		"/>

		<path fill="#552F2E" d="M-5.166-9.981c3.683,3.2,7.366,6.399,11.049,9.599c1.501,1.304,0.66,1.326-0.66,2.845
				c-2.187,2.517-4.373,5.033-6.56,7.55c-0.623,0.716-1.245,1.433-1.868,2.15c-0.527,0.607,0.343,0.428,0.285-0.386
				c-0.166-2.372-0.333-4.743-0.5-7.115c-0.349-4.958-0.697-9.917-1.046-14.876c-0.015-0.203-0.742-0.058-0.725,0.194
				c0.532,7.564,1.063,15.128,1.596,22.692c0.018,0.244,0.62-0.014,0.696-0.101C0.618,8.524,4.135,4.477,7.65,0.43
				c0.032-0.037,0.046-0.096,0.004-0.132C3.606-3.218-0.441-6.735-4.49-10.252C-4.667-10.406-5.337-10.129-5.166-9.981z"/>

	</g>
	<g class="p0_tri3">

		<polygon fill="#8EDECA" points="-3.18,-11.627 8.965,-1.077 -1.584,11.064 		"/>

		<path fill="#552F2E" d="M-5.166-9.981c3.683,3.2,7.366,6.399,11.049,9.599c1.501,1.304,0.66,1.326-0.66,2.845
				c-2.187,2.517-4.373,5.033-6.56,7.55c-0.623,0.716-1.245,1.433-1.868,2.15c-0.527,0.607,0.343,0.428,0.285-0.386
				c-0.166-2.372-0.333-4.743-0.5-7.115c-0.349-4.958-0.697-9.917-1.046-14.876c-0.015-0.203-0.742-0.058-0.725,0.194
				c0.532,7.564,1.063,15.128,1.596,22.692c0.018,0.244,0.62-0.014,0.696-0.101C0.618,8.524,4.135,4.477,7.65,0.43
				c0.032-0.037,0.046-0.096,0.004-0.132C3.606-3.218-0.441-6.735-4.49-10.252C-4.667-10.406-5.337-10.129-5.166-9.981z"/>

	</g>
	<g class="p0_build" xmlns="http://www.w3.org/2000/svg"><path fill="#FBD2D4" d="M435.81 350.447l18.89-2.004 12.698 119.602"/><path fill="#552E2E" d="M435.65 350.582l17.91-1.9c1.5-.158 1.11 3.006 1.294 4.73l3.912 36.848c2.727 25.675 5.452 51.35 8.18 77.024.028.286.06.572.09.856.013.12.743-.018.725-.192-4.23-39.867-8.464-79.734-12.696-119.603-.007-.062-.175-.04-.203-.038l-18.89 2.005c-.175.02-.794.32-.32.27z"/><path fill="#FBD2D4" d="M386.685 476.612l-12.698-119.6 17.763-1.885"/><path fill="#552E2E" d="M387.047 476.516l-7.345-69.182c-1.454-13.698-2.91-27.396-4.363-41.096l-.95-8.938c-.067-.632.07-.07-.363-.024.964-.104 1.928-.205 2.89-.308l11.838-1.257c.988-.103 1.975-.21 2.963-.312.407-.045.555-.594.062-.54l-17.763 1.885c-.197.02-.417.143-.393.367l12.697 119.6c.038.34.764.16.727-.194z"/><path fill="none" d="M384.486 355.896l12.697 119.602"/><path fill="#552E2E" d="M383.762 356.09l12.697 119.604c.058.554 1.513.22 1.448-.39L385.21 355.702c-.058-.554-1.513-.22-1.448.39z"/><path fill="none" d="M445.185 349.453l12.697 119.602"/><path fill="#552E2E" d="M444.46 349.647l12.697 119.602c.047.44 1.504.127 1.45-.39-4.233-39.867-8.467-79.734-12.698-119.603-.047-.44-1.504-.126-1.45.39z"/><path fill="#E5DEDE" d="M405.578 474.606l-12.698-119.6-3.678-34.65 42.926-4.558 16.375 154.253"/><path fill="#552E2E" d="M406.303 474.412l-13.777-129.768-2.6-24.482-1.033.5 37.123-3.94 5.537-.59c-.067.008-.142-.074-.042.86.316 2.97.63 5.938.947 8.91l9.172 86.398 6.15 57.943c.033.305 1.492.02 1.45-.39l-15.484-145.846-.892-8.406c-.016-.137-.34-.118-.415-.11-14.31 1.52-28.62 3.04-42.927 4.558-.215.023-1.07.15-1.034.5l15.2 143.176 1.176 11.075c.03.305 1.49.02 1.447-.388z"/><path fill="#F9E494" d="M426.574 374.012l-19.683 2.09-4.742-44.71 19.683-2.087z"/><path fill="#552E2E" d="M426.647 373.593l-17.64 1.87-1.495.16c-.963.102.045-.074.083.28-.045-.432-.09-.862-.137-1.294l-.765-7.198-3.84-36.16c.063.6-1.362.67-.263.554l1.496-.158 4.882-.52c3.57-.38 7.14-.76 10.71-1.138.498-.055.997-.106 1.495-.16.963-.103-.045.074-.083-.28.045.432.09.862.137 1.294l.765 7.198 3.843 36.19c.058.548 1.513.215 1.45-.39l-4.75-44.712c-.026-.255-.465-.27-.637-.252-6.563.697-13.125 1.396-19.687 2.092-.32.034-.853.237-.81.642l4.747 44.71c.027.254.466.27.638.25 6.562-.695 13.124-1.393 19.685-2.087.746-.08 1.176-.998.177-.892z"/><path fill="#F9E494" d="M417.197 473.375l-8.187-77.127 19.686-2.09 8.187 77.128"/><path fill="#552E2E" d="M417.922 473.18c-2.73-25.708-5.458-51.417-8.187-77.126l-1.035.5c4.252-.45 8.504-.9 12.756-1.353 2.126-.226 4.252-.45 6.378-.677.53-.057.123-.3.22.625l2.52 23.725c1.86 17.536 3.724 35.072 5.585 52.608.03.305 1.49.02 1.448-.39l-8.188-77.127c-.015-.138-.34-.12-.415-.112-6.562.698-13.124 1.396-19.686 2.092-.216.022-1.073.15-1.036.5l8.187 77.128c.035.303 1.495.017 1.452-.39z"/><g><path fill="#FBD2D4" d="M196.862 520.234l-41.18 16.52-19.272-48.042 41.18-16.52z"/><path fill="#552E2E" d="M196.626 520.04c-11.524 4.622-23.048 9.245-34.572 13.87l-5.955 2.388c-1.247.5.205-.05.287.155l-.673-1.678c-2.36-5.887-4.722-11.77-7.083-17.656l-8.606-21.452-2.436-6.07c-.56-1.398-1.25-.58.347-1.222l37.447-15.024 1.825-.73c1.248-.5-.17.14-.316-.227l1.22 3.038 6.566 16.365 11.48 28.615c.15.37 1.568-.093 1.45-.39l-19.275-48.04c-.11-.273-.81-.056-.978.014l-41.18 16.522c-.09.034-.54.196-.47.372l19.275 48.04c.11.273.81.056.98-.014l41.18-16.52c.954-.382.05-.585-.51-.36z"/><path fill="#E5DEDE" d="M134.187 475.51l-3.057-7.288c-4.093-9.76.5-20.993 10.264-25.086 9.76-4.093 20.992.502 25.086 10.264l3.056 7.29"/><path fill="#66B1E0" d="M184.426 469.007l-56.344 23.626-5.194-12.387 56.344-23.626z"/><path fill="#552E2E" d="M184.132 468.732c-10.613 4.45-21.226 8.898-31.838 13.35l-19.447 8.153-4.58 1.92c-1.027.432.567.39.394-.022l-1.91-4.56c-.58-1.38-2.503-7.49-3.573-7.04l3.497-1.468c6.09-2.555 12.183-5.108 18.274-7.662 11.46-4.807 22.918-9.61 34.377-14.416-.03.013-.975-.506-.543.52.585 1.397 1.17 2.794 1.757 4.19l3.15 7.513c.207.492 1.63.047 1.45-.39-1.733-4.128-3.465-8.26-5.197-12.39-.145-.344-.758-.193-1.007-.09l-56.344 23.627c-.137.06-.533.262-.442.48l5.194 12.386c.145.345.758.195 1.007.09 18.783-7.874 37.564-15.75 56.346-23.624.936-.39.077-.836-.564-.568z"/><path fill="none" d="M130.305 464.773l33.83-14.185"/><path fill="#552E2E" d="M130.456 464.95l33.83-14.188c.462-.193.044-.497-.302-.352-11.276 4.73-22.553 9.457-33.83 14.186-.463.196-.044.5.302.353z"/><path fill="#FFF" d="M167.184 500.85l-3.492 1.466-6.54-15.593 3.492-1.465z"/><path fill="#552E2E" d="M167.03 500.767l-2.035.854-1.336.562c.355-.148.44.232.265-.188l-1.893-4.515c-1.505-3.592-3.01-7.182-4.517-10.772.072.17 1.272-.434 1.8-.655l1.335-.56c-.356.147-.442-.233-.266.187l2.137 5.096c1.43 3.406 2.858 6.813 4.287 10.222.1.236.81.012.725-.193l-6.54-15.593c-.07-.167-.382-.086-.5-.037-1.164.488-2.328.978-3.492 1.465-.064.027-.268.125-.223.23l6.54 15.593c.07.167.382.086.5.037l3.492-1.465c.467-.197.035-.4-.28-.268z"/><path fill="#FFF" d="M185.363 512.757l-4.746 1.99-8.887-21.202 4.746-1.99z"/><path fill="#552E2E" d="M185.26 512.66c-.922.387-1.845.772-2.767 1.16-1.236.518-1.437.96-1.64.48-.856-2.047-1.714-4.092-2.572-6.138-2.045-4.88-4.092-9.763-6.14-14.645.054.127 2.077-.797 2.523-.982 1.236-.52 1.436-.962 1.638-.48.97 2.31 1.937 4.62 2.905 6.93l5.828 13.895c.094.224.804-.004.725-.192-2.963-7.067-5.926-14.135-8.89-21.2-.067-.16-.39-.07-.498-.025l-4.746 1.99c-.06.022-.27.116-.227.218l8.89 21.2c.066.16.388.07.497.024 1.582-.66 3.164-1.324 4.746-1.987.472-.198.035-.374-.27-.246zM132.912 474.316c-1.364-3.253-2.915-6.48-3.93-9.863-2.165-7.212.95-14.905 6.457-19.65 8.387-7.23 20.37-3.772 26.37 4.242 2.315 3.095 3.522 7.307 5.002 10.838.13.31 1.54-.173 1.45-.39-2.26-5.39-4.065-10.732-8.575-14.71-5.024-4.43-13.035-5.617-19.253-3.264-6.323 2.394-11.733 7.37-13.052 14.276-1.338 7.007 1.456 12.646 4.082 18.907.13.312 1.538-.17 1.448-.387z"/></g><g><path fill="#AEDECC" d="M735.284 498.6l-79.867-17.29 19.646-90.744 79.866 17.29z"/><path fill="#552E2E" d="M735.715 498.2l-72.525-15.7c-1.845-.4-3.688-.8-5.53-1.198l-1.418-.308c-.637-.138-.087.168-.074.107.672-3.103 1.344-6.208 2.018-9.312 3.15-14.56 6.304-29.117 9.454-43.676 2.717-12.54 5.432-25.083 8.146-37.625l-1.167.49c24.175 5.232 48.35 10.468 72.525 15.7 1.844.4 3.688.8 5.53 1.197l1.417.308c.638.14.087-.168.074-.107l-2.017 9.313c-3.152 14.56-6.306 29.117-9.456 43.677-2.717 12.542-5.432 25.084-8.146 37.626-.122.564 1.34.333 1.45-.176 6.55-30.246 13.097-60.49 19.646-90.737.04-.183-.134-.282-.283-.314l-79.858-17.29c-.346-.073-1.075.067-1.167.49l-19.645 90.738c-.04.183.134.282.283.314l79.86 17.29c.475.104 1.712-.623.882-.803z"/><path fill="none" d="M694.598 410.22l33.76 7.308"/><path fill="#FFF" d="M692.01 412.85c11.252 2.438 22.505 4.873 33.76 7.31 2.104.457 4.597-.07 6.145-1.645 1.29-1.31.95-3.2-.97-3.614l-33.76-7.31c-2.104-.456-4.597.072-6.146 1.646-1.29 1.31-.95 3.2.97 3.614z"/><path fill="none" d="M691.188 425.965l33.76 7.31"/><path fill="#FFF" d="M688.562 428.455l33.76 7.31c2.064.446 4.602-.182 6.147-1.646 1.336-1.27.955-2.935-.895-3.334-11.253-2.438-22.507-4.873-33.76-7.31-2.063-.446-4.602.182-6.147 1.646-1.337 1.268-.956 2.933.894 3.333z"/><path fill="none" d="M687.78 441.71l33.76 7.31"/><path fill="#FFF" d="M685.065 443.876c11.253 2.438 22.506 4.872 33.76 7.31 2.442.528 10.2-3.298 5.428-4.33-11.253-2.438-22.506-4.872-33.76-7.31-2.443-.53-10.2 3.297-5.428 4.33z"/><path fill="none" d="M684.37 457.46l33.76 7.31"/><path fill="#FFF" d="M682.876 460.66c11.253 2.435 22.506 4.87 33.76 7.308 4.32.937 8.745-5.148 2.987-6.396-11.253-2.437-22.506-4.872-33.76-7.31-4.32-.935-8.745 5.15-2.987 6.397z"/></g><g><g opacity=".5"><path fill="#FFF" d="M889.818 557.212l-75.646-33.338 50.647-114.92 75.645 33.337z"/><path fill="#552E2E" d="M890.348 556.846c-22.745-10.024-45.49-20.05-68.235-30.076-1.806-.796-3.61-1.59-5.415-2.387-1.023-.45-1.625-.99-1.854-.474l2.79-6.328 15.563-35.313c10.563-23.968 21.13-47.936 31.69-71.902.83-1.882.532-.47-.647-.99l2.66 1.174 15.064 6.64c14.408 6.352 28.815 12.7 43.225 19.052 4.426 1.95 8.853 3.9 13.278 5.854 1.026.452 1.077.632 1.24.262l-.99 2.244c-4.395 9.975-8.79 19.947-13.187 29.922l-34.366 77.97c-.69 1.562-1.378 3.127-2.067 4.69-.314.715 1.143.62 1.37.104l50.65-114.912c.067-.154.064-.36-.12-.44-25.213-11.112-50.426-22.227-75.64-33.34-.37-.162-1.063-.094-1.25.336-16.884 38.305-33.77 76.607-50.65 114.912-.067.154-.065.36.118.44 25.213 11.112 50.427 22.227 75.64 33.34.505.218 1.806-.484 1.133-.78z"/></g><g opacity=".5"><path fill="#FFF" d="M878.635 552.31l-51.258-22.592 55.658-126.29 51.258 22.59z"/><path fill="#552E2E" d="M879.037 551.818l-32.34-14.254c-5.65-2.49-11.304-4.98-16.953-7.473-.544-.24-1.088-.478-1.632-.72-.644-.282.003.314-.02.36.302-.683.604-1.364.904-2.048l31.688-71.894 17.144-38.894 4.837-10.976c.318-.726.64-1.45.96-2.177.296-.672-1.083.163-.932.23.506.225 1.012.446 1.518.67l38.202 16.837 11.432 5.038c-.64-.28-.247-.596-.79.64-.563 1.272-1.124 2.547-1.686 3.82l-53.44 121.245c-.34.77 1.123.776 1.388.177 18.474-41.91 36.946-83.822 55.42-125.733l.24-.546c.117-.267-.034-.478-.277-.583-17.086-7.53-34.17-15.062-51.257-22.59-.362-.16-.947.038-1.11.406l-55.418 125.734-.24.546c-.118.268.034.478.277.583 17.085 7.53 34.17 15.062 51.255 22.59.617.28 1.68-.612.83-.985z"/></g><path fill="#E5DEDE" d="M865.855 546.642l-27.568-12.15 66.864-151.716 27.57 12.15z"/><path fill="#552E2E" d="M866.39 546.343l-15.573-6.864c-3.078-1.357-6.157-2.716-9.236-4.072-.86-.38-2.598-1.024-2.533-1.17 2.756-6.25 5.51-12.5 8.268-18.753l37.127-84.232c7.13-16.18 14.262-32.356 21.394-48.536l-1.305.432c5.192 2.286 10.385 4.574 15.576 6.863l9.235 4.07c.862.38 2.6 1.025 2.535 1.17l-8.267 18.754-37.126 84.232-21.394 48.535c-.172.39 1.25.23 1.44-.205 20.04-45.464 40.08-90.93 60.117-136.394 2.25-5.104 4.5-10.208 6.748-15.312.05-.106-.057-.19-.14-.227-9.187-4.05-18.374-8.1-27.562-12.148-.372-.165-1.133.04-1.305.43-20.04 45.464-40.078 90.928-60.116 136.393l-6.75 15.313c-.048.106.058.19.14.226l27.563 12.15c.392.17 1.724-.414 1.168-.66z"/></g><g><path fill="#552F2E" d="M827.653 342.832l-7.77 25.868c-.256.85 2.62.438 2.88-.428l7.77-25.868c.256-.85-2.62-.437-2.88.428z"/><path fill="#7DC1EB" d="M824.636 387.643l-17.312-5.2 1.87-6.23 17.313 5.2z"/><path fill="#E47174" d="M795.78 516.314l-33.916-10.185 37.81-125.906 33.915 10.185z"/><path fill="#552E2E" d="M796.217 515.94c-11.13-3.345-22.26-6.688-33.39-10.028-.565-.17-.305.31-.024-.62.356-1.19.713-2.375 1.07-3.564l4.084-13.6 26.202-87.24 6.232-20.758-1.17.48c11.13 3.343 22.26 6.686 33.39 10.027.564.17.305-.31.023.62-.355 1.19-.713 2.375-1.068 3.564-1.36 4.532-2.724 9.065-4.084 13.6-8.734 29.08-17.47 58.16-26.2 87.24-2.08 6.92-4.157 13.84-6.235 20.758-.15.503 1.303.297 1.447-.186 12.604-41.973 25.21-83.943 37.816-125.915.057-.186-.147-.257-.277-.295l-33.918-10.188c-.345-.104-1.055.097-1.17.48L761.13 506.23c-.056.185.148.256.278.295l33.92 10.187c.45.14 1.702-.53.89-.773z"/><path fill="#552E2E" d="M795.7 515.822c-11.13-3.344-22.26-6.687-33.39-10.028-.603-.18-.42.106-.17-.728l1.076-3.586 4.11-13.687 26.246-87.39 6.056-20.163-1.307.42 33.39 10.03c.603.18.42-.107.17.727l-1.076 3.586-4.11 13.687-26.245 87.39c-2.02 6.72-4.038 13.442-6.06 20.163-.113.386 1.314.185 1.44-.228 12.57-41.86 25.145-83.725 37.718-125.587.03-.102-.038-.167-.13-.193l-33.92-10.188c-.32-.097-1.188.027-1.307.42-12.57 41.863-25.145 83.727-37.718 125.588-.03.103.038.167.13.194 11.308 3.395 22.613 6.79 33.92 10.187.372.112 1.674-.465 1.177-.615z"/><path fill="#FFF" d="M808.605 440.97l-17.31-5.2 13.725-45.685 17.31 5.2z"/><path fill="#552F2E" d="M825.628 387.636c-4.273-1.283-8.55-2.566-12.823-3.85-1.067-.322-2.137-.644-3.205-.964-1.227-.368-.795-.455-.967.117l1.84-6.126-1.108.41c4.273 1.283 8.55 2.567 12.822 3.852l3.204.963c1.23.367.797.454.97-.118-.614 2.042-1.228 4.083-1.84 6.125-.248.825 1.195.85 1.393.195.624-2.076 1.248-4.153 1.87-6.23.077-.253 0-.52-.282-.604l-17.31-5.198c-.353-.105-.98-.015-1.108.41l-1.872 6.23c-.076.255 0 .52.283.606l17.31 5.198c.657.197 1.71-.753.825-1.018z"/><path fill="#95CFB7" d="M822.63 380.22l-9.518-2.86 3.224-10.73 9.518 2.86z"/><path fill="#FFF" d="M793.53 491.157l-17.31-5.2 13.725-45.685 17.31 5.2z"/><path fill="#552F2E" d="M809.396 441.647c-5.448-1.638-10.898-3.273-16.35-4.91-1.34-.402-.713-.817-.308-2.167l2.47-8.228c3.552-11.824 7.104-23.647 10.654-35.473-.13.428-1.017.07-.094.346.496.15.993.3 1.49.448l4.77 1.433c3.18.955 6.358 1.91 9.54 2.864 1.338.403.712.818.307 2.168l-2.472 8.228c-3.555 11.832-7.107 23.665-10.662 35.497-.05.165.66.07.718-.12l13.723-45.69c.017-.05-.017-.07-.062-.084-5.77-1.734-11.54-3.468-17.312-5.2-.146-.045-.6.026-.653.206-4.573 15.23-9.146 30.46-13.722 45.688-.014.05.02.07.064.085 5.77 1.73 11.54 3.465 17.31 5.197.173.053.82-.22.592-.29zM794.25 491.79l-16.352-4.912c-1.258-.377-.667-.65-.23-2.104l2.472-8.23c3.552-11.823 7.104-23.646 10.653-35.472-.135.45-.892.118-.02.38.494.147.99.298 1.488.447l4.77 1.432 9.538 2.865c1.257.377.667.65.23 2.104l-2.472 8.23-10.662 35.5c-.074.248.652.145.725-.096 4.572-15.23 9.146-30.46 13.72-45.688.028-.092-.072-.127-.14-.146-5.77-1.732-11.538-3.467-17.308-5.198-.17-.053-.527.05-.584.238-4.574 15.23-9.148 30.46-13.724 45.69-.027.09.073.126.14.145 5.77 1.733 11.54 3.468 17.31 5.2.222.067.85-.264.445-.385z"/><path fill="#7DC1EB" d="M823.11 380.745l-9.518-2.857 3.222-10.73 9.517 2.856z"/><path fill="#552E2E" d="M823.776 380.43l-4.76-1.43c-1.09-.327-2.182-.654-3.27-.982-.397-.117-.79-.235-1.184-.354-.408-.123-.162.085-.134-.014 1.063-3.534 2.123-7.068 3.186-10.604l-1.307.425c1.586.48 3.174.954 4.76 1.432l3.272.98c.395.12.788.237 1.183.355.408.123.16-.085.133.014l-3.186 10.605c-.123.41 1.313.205 1.44-.22 1.073-3.577 2.146-7.152 3.222-10.73.03-.102-.04-.178-.134-.205l-9.52-2.858c-.333-.1-1.183.016-1.306.425-1.074 3.577-2.147 7.153-3.223 10.73-.03.102.038.178.133.206l9.52 2.857c.384.116 1.69-.475 1.173-.63z"/></g><g><path fill="#7CCBEB" d="M498.428 470.66l-15.056-111.47s29.564-26.654 58.02-.465l-16.496 112.03-26.468-.095z" opacity=".5"/><path fill="#FFF" d="M513.356 460.033l-6.358.06-.03-4.405 6.36-.06"/><path fill="#FFF" stroke="#552F2E" stroke-miterlimit="10" d="M512 449.037l-6.36.06-.03-4.404 6.36-.058z"/><path fill="#FFF" d="M513.248 431.326l-4.322.04-.032-4.403 4.323-.04"/><path fill="#552E2E" d="M500.87 470.466c-3.19-23.632-6.383-47.265-9.574-70.896l-4.95-36.66c-.15-1.118-.303-2.235-.454-3.355-.023-.182-.05-.362-.073-.546.095.703.053.27.92-.422 6.2-4.965 13.64-8.434 21.395-10.08 6.335-1.345 12.86-.794 18.995 1.164 3.483 1.11 6.694 2.934 9.734 4.933.786.518 5.603 3.575 5.486 4.353l-1.25 8.485c-2.032 13.81-4.065 27.616-6.1 41.426l-6.706 45.53-2.005 13.614c-.13.87-.257 1.738-.385 2.607-.076.52 1.27-.422.34-.425l-3.71-.015c-7.444-.026-14.89-.056-22.333-.083-.852-.003-1.092 1.12-.11 1.123 8.82.032 17.645.064 26.467.1.343 0 .738-.255.79-.61 3.472-23.562 6.94-47.125 10.41-70.688 1.82-12.352 3.64-24.702 5.458-37.055.615-4.177 1.238-4.106-2.397-7.12-8.538-7.072-19.418-10.17-30.365-8.832-7.682.938-15.002 4.25-21.41 8.476-1.355.895-4.866 2.485-4.602 4.455 1.304 9.644 2.605 19.286 3.907 28.93 3.62 26.792 7.237 53.583 10.855 80.375.07.535.145 1.07.217 1.606.096.71 1.548.342 1.45-.39z"/><path fill="#FFF" d="M520.808 360.513l-18.662.17-.025-3.517 18.66-.17M522.362 386.484l-6.01.057-.04-4.885 6.016-.055"/><path fill="#FFF" stroke="#552F2E" stroke-miterlimit="10" d="M532.762 398.7l-15.297.14-.035-5.133 15.296-.137z"/><path fill="#FFF" d="M524.416 409.52l-14.607.136-.03-4.3 14.607-.13M521.227 420.69l-6.358.056-.032-4.402 6.36-.06"/></g></g>
	<g class="p0_static" xmlns="http://www.w3.org/2000/svg"><path fill="#ffffff" d="M245.547 312.683c-18.443 0-34.512 10.125-42.98 25.114-10.233-31.827-40.066-54.862-75.293-54.862-43.68 0-79.09 35.41-79.09 79.088 0 1.852.088 3.68.212 5.5h246.178c.2-1.808.313-3.644.313-5.502 0-27.25-22.092-49.337-49.34-49.337z"/><path fill="#552F2E" d="M235.296 312.492c-9.936.15-19.87 2.875-28.076 8.616-4.353 3.045-8.12 6.59-11.43 10.738-1.205 1.514-2.988 6.54-4.153 3.222-1.067-3.04-2.4-5.98-3.83-8.863-9.846-19.842-28.29-34.49-49.452-40.566-41.19-11.826-84.916 13.028-97.543 53.475-2.875 9.21-3.753 18.906-3.174 28.505.005.084.165.094.217.094h246.18c.124 0 .49-.065.505-.24 2.74-29.316-19.767-54.57-49.244-54.982-.252-.003-.78.374-.29.38 24.978.35 45.688 18.935 48.813 43.688.266 2.112 1.335 10.773-.206 10.773H38.284c-.47 0 .164-12.3.298-13.703.52-5.4 1.732-10.72 3.348-15.893 6.296-20.164 21.176-36.884 39.88-46.42 42.675-21.76 95.216 1.966 110 46.577.074.226.613.046.696-.098 8.942-15.307 24.73-24.652 42.5-24.923.25-.004.778-.388.29-.38z"/><path fill="#552E2E" d="M551.44 442.348V469.4c0 .877 4.347.198 4.347-1.163v-27.053c0-.876-4.346-.2-4.346 1.164z"/><circle fill="#95CFB7" cx="555.323" cy="410.676" r="5.906"/><circle fill="#95CFB7" cx="555.323" cy="429.479" r="12.772"/><path fill="#552F2E" d="M558.795 410.87c-.205 3.81-3.703 6.604-7.48 4.645-1.88-.974-2.772-3.024-2.88-5.032-.212-3.923 4.07-6.412 7.48-4.646 1.88.973 2.773 3.025 2.88 5.033.02.34 1.474.074 1.45-.39-.45-8.33-12.833-7.546-13.26.39-.2 3.7 3.673 6.563 7.15 5.996 3.397-.554 5.916-2.832 6.107-6.385.018-.296-1.42-.092-1.447.39z"/><path fill="#552F2E" d="M565.662 429.673c-.48 8.914-9.153 15.066-17.813 10.58-4.084-2.116-6.048-6.604-6.282-10.97-.493-9.152 10.014-14.62 17.813-10.578 4.083 2.116 6.047 6.603 6.282 10.968.017.304 1.473.047 1.45-.39-.93-17.24-26.093-16.383-26.995.39-.927 17.193 26.093 16.346 26.994-.39.015-.26-1.423-.068-1.448.39z"/><g xmlns="http://www.w3.org/2000/svg"><path fill="#FFF" d="M340.542 444.527l-.808 39.508 19.362-2.054-12.36-38.07"/><path fill="#552E2E" d="M339.817 444.617c-.27 13.17-.54 26.34-.808 39.508-.008.326.378.34.625.314 6.454-.687 12.908-1.37 19.36-2.056.225-.022.94-.237.824-.6-4.122-12.69-8.242-25.38-12.362-38.07-.078-.24-.43-.23-.626-.21-2.064.205-4.13.41-6.193.617-.71.07-1.202.91-.197.81l6.02-.6c-.753.074.097 1.464.435 2.505l5.14 15.834 5.272 16.236 1.05 3.237c-.175-.543 1.442-.634-.6-.416l-3.586.38-14.28 1.515c.98-.104.594-1.116.625-2.605.05-2.438.1-4.877.148-7.315.2-9.755.4-19.51.598-29.265.013-.607-1.44-.302-1.45.18z"/><circle fill="#7DC1EB" cx="343.599" cy="444.223" r="5.723"/><path fill="#552E2E" d="M348.582 444.84c-.465 3.26-3.218 5.616-6.674 4.328-2.073-.77-3.154-2.95-3.307-5.02-.26-3.563 3.39-6.102 6.69-4.87 2.302.854 3.364 3.36 3.285 5.643-.01.302 1.433.09 1.45-.388.277-8.106-11.767-8.253-12.846-.7-1.152 8.058 11.752 8.372 12.838.78.063-.44-1.38-.165-1.436.23z"/><path fill="#FFF" stroke="#552F2E" stroke-miterlimit="10" d="M346.162 459.84c.046.553-.365 1.037-.917 1.082l-1.81.148c-.552.045-1.036-.365-1.08-.918-.046-.553.365-1.037.916-1.08l1.81-.15c.552-.045 1.036.365 1.082.918zM348.376 454.816c.027.344-.23.646-.573.676l-1.127.092c-.345.03-.646-.228-.675-.572-.026-.344.23-.646.574-.674l1.127-.092c.344-.028.647.23.676.57zM350.163 465.357c.045.553-.366 1.036-.918 1.082l-1.524.125c-.55.046-1.035-.366-1.08-.92-.046-.55.365-1.036.917-1.08l1.524-.125c.552-.045 1.037.366 1.083.917zM350.066 472.363c.04.5-.33.938-.83.98l-3.903.318c-.5.043-.938-.33-.98-.828-.04-.5.33-.938.832-.98l3.902-.32c.5-.04.938.33.98.83z"/></g><g><path fill="#FFF" d="M837.03 81.468c-4.75 0-8.89 2.608-11.07 6.47-2.636-8.2-10.32-14.132-19.396-14.132-11.253 0-20.373 9.12-20.373 20.372 0 .478.023.947.056 1.416h63.411c.052-.465.08-.938.08-1.416.003-7.02-5.688-12.71-12.707-12.71z"/><path fill="#FFF" d="M775.902 81.468c4.75 0 8.89 2.608 11.07 6.47 2.637-8.2 10.32-14.132 19.395-14.132 11.25 0 20.372 9.12 20.372 20.372 0 .478-.022.947-.056 1.416h-63.41c-.053-.465-.08-.938-.08-1.416 0-7.02 5.69-12.71 12.708-12.71z"/><path fill="#552F2E" d="M833.178 80.29c-1.938.105-3.937.34-5.687 1.262-1.24.654-2.273 1.343-3.36 2.248-1.523 1.268-1.683 3.104-2.805.53-2.777-6.37-9.074-10.355-15.72-11.506-13.08-2.265-24.212 9.21-23.723 21.868.003.08.168.083.215.083h63.413c.11 0 .498-.07.508-.233.448-7.837-4.947-13.828-12.762-14.248-.19-.01-.842.33-.455.35 5.165.28 9.084 2.827 11.444 7.383.326.627 1.688 6.39 1.506 6.39H782.91c-1.434 0 .334-6.6.764-7.982 1.684-5.41 6.065-9.584 11.094-11.907 10.925-5.045 23.04 1.95 26.827 12.507.076.21.612.026.695-.104 2.422-3.807 5.515-6.003 10.59-6.28.234-.015.783-.388.298-.36z"/><path fill="#552F2E" d="M771.675 80.645c4.75.26 8.396 2.394 10.937 6.39.125.197.65.05.723-.15 4.14-11.53 16.625-16.957 27.87-11.763 3.965 1.83 6.977 5.263 9.02 9.026.562 1.03 2.865 10.266 2.48 10.266h-63.067c-.747 0 .354-4.536.565-5.306 1.38-5.023 6.5-8.187 11.554-8.46.233-.012.78-.386.295-.36-7.892.425-13.596 6.325-13.14 14.404.006.08.168.083.216.083h63.413c.157 0 .503-.076.51-.278.524-13.79-11.385-23.758-24.803-21.435-5.506.954-10.176 4.55-13.304 9.04-2.028 2.91-1.12 4.636-4.085 1.6-2.28-2.335-5.577-3.238-8.728-3.41-.193-.01-.843.332-.455.353z"/></g><g xmlns="http://www.w3.org/2000/svg"><path fill="#95CFB7" d="M117.162 529.162s5.825-2.05 8.573 4.11c0 0-5.188 1.926-8.573-4.11zM120.936 539.188s5.825-2.05 8.574 4.113c0 .002-5.188 1.927-8.574-4.112zM135.423 522.288s-5.73 2.3-3.734 8.744c0 0 5.168-1.972 3.733-8.744zM139.198 532.315s-5.732 2.3-3.734 8.744c0 0 5.17-1.972 3.734-8.745z"/><circle fill="#E47174" cx="124.374" cy="522.3" r="3.528"/><path fill="#552E2E" d="M126.255 525.7c2.787 7.402 5.574 14.808 8.36 22.212.087.23.803.013.726-.193l-8.36-22.214c-.087-.23-.803-.013-.725.193zM117.296 529.28c2.86-.98 6.02.55 7.618 3.184.38.63 1.025.653.15.824-.653.127-1.315.117-1.972.04-2.516-.287-4.346-2.194-5.568-4.263-.126-.215-.813.044-.725.192 1.864 3.154 5.336 5.466 9.07 4.132.053-.02.272-.12.227-.215-1.675-3.522-5.27-5.43-9.07-4.132-.485.167-.033.34.27.236zM120.995 539.41c3.468-1.184 6.67.87 8.152 3.988l.303-.32c-3.407 1.22-6.538-1.263-8.18-4.042-.15-.252-.847.002-.668.305 1.807 3.06 5.293 5.498 8.967 4.186.098-.035.378-.158.302-.32-1.638-3.446-5.206-5.53-8.996-4.238-.428.143-.318.593.12.443zM135.29 522.17c-3.65 1.508-4.998 5.302-3.963 8.96.046.16.406.055.497.02 3.614-1.428 4.625-5.463 3.962-8.958-.04-.204-.767-.03-.725.192.6 3.158-.13 7.198-3.505 8.53l.497.02c-.944-3.335.065-7.107 3.506-8.528.472-.196.032-.36-.27-.235zM138.99 532.275c-3.612 1.49-4.91 5.277-3.89 8.882.036.123.423.002.486-.022 3.612-1.426 4.64-5.4 3.974-8.916-.027-.142-.756.026-.725.192.608 3.207-.24 7.29-3.495 8.574.162-.008.324-.017.485-.022-.96-3.392.1-7.172 3.58-8.607.44-.183-.25-.15-.414-.082z"/><path fill="#552E2E" d="M128.314 521.154c.49 1.53.065 3.08-1.28 4.022-1.735 1.217-3.87-.058-4.6-1.73-.632-1.456.04-3.152 1.282-4.023 1.734-1.216 3.87.058 4.598 1.73.11.254.822.03.725-.192-1.92-4.41-8.815-1.966-7.33 2.68.663 2.072 3.07 2.747 4.956 2.146 2.04-.652 3.003-2.854 2.373-4.823-.083-.257-.804-.053-.726.19z"/></g></g>
</svg>