<?xml version="1.0" encoding="utf-8"?>
<!-- Generator: Adobe Illustrator 16.0.0, SVG Export Plug-In . SVG Version: 6.00 Build 0)  -->
<!DOCTYPE svg PUBLIC "-//W3C//DTD SVG 1.1//EN" "http://www.w3.org/Graphics/SVG/1.1/DTD/svg11.dtd">
<svg version="1.1" id="图层_1" xmlns="http://www.w3.org/2000/svg" xmlns:xlink="http://www.w3.org/1999/xlink" x="0px" y="0px"
	 width="960px" height="640px" viewBox="0 0 960 640" enable-background="new 0 0 960 640" xml:space="preserve"> 

<g xmlns="http://www.w3.org/2000/svg" class="p1_car">
	<g>
		<path fill="#FFFFFF" d="M-36.225-16.046c-0.015,4.298,4.473,7.832,9.973,7.85l58.351,0.201c5.5,0.019,10.012-3.484,10.027-7.782    c0.015-4.298-4.474-7.832-9.974-7.85l-58.351-0.201C-31.698-23.848-36.21-20.346-36.225-16.046z"/>
		<g>
			<path fill="#552E2E" d="M-36.838-16.667C-35.65-3.644-18.387-6.72-9.244-6.688C4.315-6.642,17.875-6.596,31.435-6.549     c5.705,0.02,13.031-3.623,11.077-10.509c-1.688-5.95-6.641-8.005-12.446-8.026c-13.938-0.047-27.874-0.096-41.812-0.144     c-7.678-0.026-24.007-2.818-25.094,8.247c-0.064,0.656,1.087,3.349,1.232,1.869c0.771-7.87,9.702-7.267,15.484-7.248     c7.167,0.025,14.331,0.049,21.497,0.074c7.591,0.026,15.187,0.052,22.779,0.078c5.216,0.018,11.26-0.81,15.614,2.618     c3.607,2.84,1.142,5.752-0.62,7.56c-1.216,1.248-2.945,1.787-4.551,2.261c-1.034,0.307-2.158,0.326-3.231,0.321     c-1.779-0.005-3.562-0.012-5.34-0.018C18.857-9.49,11.692-9.514,4.527-9.539c-7.592-0.026-15.187-0.052-22.78-0.078     c-5.216-0.019-11.26,0.81-15.614-2.618c-0.581-1.064-1.163-2.128-1.743-3.191C-35.683-16.213-37.015-18.581-36.838-16.667z"/>
		</g>
	</g>
	<g>
		<path fill="#FFFFFF" d="M-36.225-16.046c-0.015,4.298,4.473,7.832,9.973,7.85l58.351,0.201c5.5,0.019,10.012-3.484,10.027-7.782    c0.015-4.298-4.474-7.832-9.974-7.85l-58.351-0.201C-31.698-23.848-36.21-20.346-36.225-16.046z"/>
		<g>
			<path fill="#552E2E" d="M-36.838-16.667C-35.65-3.644-18.387-6.72-9.244-6.688C4.315-6.642,17.875-6.596,31.435-6.549     c5.705,0.02,13.031-3.623,11.077-10.509c-1.688-5.95-6.641-8.005-12.446-8.026c-13.938-0.047-27.874-0.096-41.812-0.144     c-7.678-0.026-24.007-2.818-25.094,8.247c-0.064,0.656,1.087,3.349,1.232,1.869c0.771-7.87,9.702-7.267,15.484-7.248     c7.167,0.025,14.331,0.049,21.497,0.074c7.591,0.026,15.187,0.052,22.779,0.078c5.216,0.018,11.26-0.81,15.614,2.618     c3.607,2.84,1.142,5.752-0.62,7.56c-1.216,1.248-2.945,1.787-4.551,2.261c-1.034,0.307-2.158,0.326-3.231,0.321     c-1.779-0.005-3.562-0.012-5.34-0.018C18.857-9.49,11.692-9.514,4.527-9.539c-7.592-0.026-15.187-0.052-22.78-0.078     c-5.216-0.019-11.26,0.81-15.614-2.618c-0.581-1.064-1.163-2.128-1.743-3.191C-35.683-16.213-37.015-18.581-36.838-16.667z"/>
		</g>
	</g>
	<g>
		<path fill="#AAD8C7" d="M-41.46-21.521c-0.025,7.299,5.927,13.293,13.227,13.318L9.816-8.072C17.116-8.047,23.109-14,23.134-21.3    l0.027-7.964c0.025-7.3-5.928-13.293-13.228-13.318l-38.049-0.13c-7.3-0.025-13.293,5.928-13.318,13.227L-41.46-21.521z"/>
		<g>
			<path fill="#552E2E" d="M-41.837-21.813c0.36,7.605,5.763,14.309,13.828,14.336c5.35,0.018,10.699,0.037,16.049,0.055     C-0.146-7.38,20.86-3.192,23.426-19.494c0.828-5.262,0.893-13.301-2.418-17.757C17-42.641,11.684-43.301,5.532-43.322     c-7.496-0.025-14.99-0.052-22.485-0.077c-5.282-0.018-11.453-0.849-16.509,0.991C-42.398-39.155-41.81-29.495-41.837-21.813     c0,0.497,0.75,1.562,0.753,0.585c0.009-2.604,0.018-5.207,0.027-7.808c0.022-6.37,4.525-11.174,10.467-12.69     c4.282-1.092,9.683-0.238,14.02-0.223c6.793,0.023,13.586,0.046,20.379,0.07c8.584,0.029,18.43,0.76,18.979,12.323     c0.414,8.704-0.496,17.946-10.494,20.497C8.011-7.965,2.61-8.82-1.727-8.835c-6.793-0.023-13.586-0.047-20.379-0.07     c-8.584-0.029-18.43-0.76-18.979-12.323C-41.107-21.717-41.882-22.785-41.837-21.813z"/>
		</g>
	</g>
	<g>
		<g>
			<path fill="#552E2E" d="M-5.482-42.869c-0.04,11.503-0.079,23.007-0.119,34.511c0,0.16,0.306,0.83,0.307,0.468     c0.04-11.504,0.079-23.007,0.119-34.511C-5.175-42.561-5.481-43.231-5.482-42.869L-5.482-42.869z"/>
		</g>
	</g>
	<g>
		<g>
			<path fill="#552E2E" d="M-23.53-42.725c-0.021,6.292-0.042,12.585-0.065,18.877c-0.001,0.426,0.562,0.547,0.563,0.057     c0.022-6.292,0.043-12.585,0.065-18.878C-22.964-43.095-23.528-43.214-23.53-42.725L-23.53-42.725z"/>
		</g>
	</g>
	<g>
		<g>
			<path fill="#552E2E" d="M5.376-32.233c-0.011,2.828-0.02,5.654-0.03,8.48c-0.001,0.416,0.53,0.558,0.531,0.066     c0.01-2.827,0.02-5.654,0.029-8.479C5.908-32.581,5.377-32.725,5.376-32.233L5.376-32.233z"/>
		</g>
	</g>
	<g>
		<path fill="#FFFFFF" d="M-41.059-14.247c-0.011,3.3,2.679,6.009,5.979,6.021l71.178,0.245c3.3,0.01,6.009-2.68,6.021-5.98    l0.018-5.255c0.011-3.3-2.68-6.009-5.979-6.02l-71.178-0.245c-3.3-0.012-6.009,2.679-6.021,5.979L-41.059-14.247z"/>
		<g>
			<path fill="#552E2E" d="M-41.673-14.867c0.589,5.23,3.495,8.08,8.726,8.097c5.372,0.019,10.743,0.037,16.115,0.056     C-1.657-6.662,13.517-6.61,28.691-6.559c3.7,0.013,8.287,0.776,11.542-1.282c3.94-2.493,3.648-13.282,0.509-16.443     c-3.035-3.056-6.948-2.409-10.904-2.423c-6.757-0.023-13.516-0.046-20.272-0.069c-12.172-0.042-24.344-0.083-36.516-0.125     c-2.762-0.01-5.526-0.019-8.289-0.029c-6.801-0.023-6.42,6.975-6.436,11.75c-0.002,0.641,1.227,3.316,1.231,1.868     c0.017-4.683-0.276-10.033,5.807-10.718c0.938-0.105,1.955,0.007,2.895,0.01c5.888,0.02,11.774,0.041,17.66,0.061     c14.896,0.051,29.791,0.102,44.686,0.153c1.689,0.006,3.375,0.011,5.063,0.017c4.499,0.016,5.855,3.314,5.841,7.231     c-0.026,7.653-5.804,7.126-11.158,7.108C15.569-9.501,0.789-9.553-13.99-9.604c-5.18-0.018-10.359-0.036-15.539-0.053     c-3.328-0.011-10.357,1.002-10.917-3.97C-40.53-14.405-41.888-16.771-41.673-14.867z"/>
		</g>
	</g>
	<g>
		<circle fill="#E5DEDE" cx="27.207" cy="-8.899" r="7.374"/>
		<g>
			<path fill="#552F2E" d="M19.17-9.532c0.216,4.243,2.38,8.079,6.655,9.27c5.023,1.399,9.139-3.021,9.406-7.685     c0.245-4.297-2.507-8.431-6.645-9.584c-5.021-1.399-9.141,3.021-9.408,7.684c-0.04,0.701,1.22,3.355,1.308,1.849     c0.37-6.456,8.458-9.196,12.576-4.106c2.784,3.441-0.903,7.588-3.931,8.765c-3.514,1.365-8.433-0.901-8.638-4.974     C20.451-9.172,19.076-11.464,19.17-9.532z"/>
		</g>
	</g>
	<g>
		<circle fill="#E5DEDE" cx="-22.937" cy="-9.071" r="7.375"/>
		<g>
			<path fill="#552F2E" d="M-30.94-9.711c0.213,4.231,2.367,8.088,6.632,9.276c5.028,1.4,9.107-3.017,9.374-7.676     c0.245-4.284-2.509-8.44-6.632-9.588c-5.025-1.4-9.106,3.017-9.373,7.675c-0.038,0.667,1.17,3.344,1.255,1.863     c0.37-6.449,8.505-9.215,12.629-4.12c2.817,3.483-0.976,7.613-3.959,8.771c-3.507,1.362-8.464-0.889-8.668-4.966     C-29.724-9.298-31.037-11.639-30.94-9.711z"/>
		</g>
	</g>
</g>
<g class="p1_Windmill">
	<g class="p1_Windmill1" >
		<g>
			<g>
				<path fill="#552E2E" d="M340.734,246.47c-0.393,23.744-20.29,43.112-44.465,40.304c-20.575-2.39-35.471-20.897-35.805-41.081
					c-0.393-23.805,20.937-43.037,44.464-40.304C325.504,207.779,340.4,226.286,340.734,246.47c0.006,0.376,2.91-0.032,2.897-0.776
					c-0.357-21.631-17.281-40.554-39.291-41.647c-20.043-0.995-38.721,10.835-44.954,30.182
					c-6.898,21.414,5.754,44.295,26.446,51.707c18.107,6.486,39.083-0.928,50.208-16.206c5.067-6.958,7.45-15.508,7.59-24.037
					C343.637,245.347,340.746,245.707,340.734,246.47z"/>
			</g>
		</g>
		<g>
			<g>
				<path fill="#552E2E" d="M313.987,246.127c-0.378,7.961-6.364,13.847-14.506,13.46c-7.148-0.34-11.955-6.902-12.271-13.554
					c-0.38-7.991,6.981-13.814,14.504-13.457C308.862,232.916,313.671,239.477,313.987,246.127c0.038,0.794,1.505,0.597,1.473-0.094
					c-0.907-19.069-28.824-18.793-29.722,0.094c-0.371,7.813,7.042,15.009,14.804,14.641c8.289-0.394,14.52-6.373,14.917-14.734
					C315.498,245.243,314.021,245.429,313.987,246.127z"/>
			</g>
		</g>
		<g>
			<g>
				<path fill="#552E2E" d="M329.616,216.68c-19.564,19.564-39.128,39.128-58.691,58.692c-0.156,0.155,0.533,0.071,0.656-0.053
					c19.564-19.564,39.128-39.128,58.691-58.692C330.428,216.472,329.74,216.556,329.616,216.68L329.616,216.68z"/>
			</g>
		</g>
		<g>
			<g>
				<path fill="#552E2E" d="M330.285,275.219c-19.563-19.564-39.127-39.128-58.691-58.692c-0.14-0.14-0.808,0.126-0.681,0.253
					c19.563,19.564,39.127,39.128,58.691,58.692C329.744,275.612,330.412,275.346,330.285,275.219L330.285,275.219z"/>
			</g>
		</g>
		<g>
			<g>
				<path fill="#552E2E" d="M300.236,204.595c0,27.667,0,55.335,0,83.003c0,0.124,0.725,0.018,0.725-0.194
					c0-27.667,0-55.335,0-83.003C300.961,204.277,300.236,204.383,300.236,204.595L300.236,204.595z"/>
			</g>
		</g>
		<g>
			<g>
				<path fill="#552E2E" d="M342.239,245.79c-27.667,0-55.335,0-83.003,0c-0.276,0-0.77,0.419-0.279,0.419
					c27.667,0,55.335,0,83.003,0C342.236,246.208,342.729,245.79,342.239,245.79L342.239,245.79z"/>
			</g>
		</g>
		<g>
			<path fill="#E5DEDE" d="M309.805,205.213c0,1.921-1.8,3.492-4,3.492h-10.411c-2.2,0-4-1.571-4-3.492c0-1.92,1.8-3.491,4-3.491
				h10.411C308.005,201.722,309.805,203.293,309.805,205.213z"/>
			<g>
				<path fill="#552F2E" d="M309.444,205.263c-0.636,4.104-5.826,3.252-8.7,3.252c-2.978,0-7.274,0.763-8.845-2.474
					c-2.298-4.733,6.457-4.13,8.555-4.13c3.167,0,8.329-0.852,8.988,3.398c0.035,0.222,0.763,0.054,0.725-0.194
					c-0.733-4.727-6.674-3.584-10.131-3.584c-3.37,0-8.309-0.748-9.003,3.731c-0.73,4.709,7.772,3.632,10.129,3.632
					c3.371,0,8.309,0.748,9.003-3.732C310.206,204.904,309.479,205.037,309.444,205.263z"/>
			</g>
		</g>
		<g>
			<path fill="#E5DEDE" d="M309.805,287.139c0,1.921-1.8,3.492-4,3.492h-10.411c-2.2,0-4-1.571-4-3.492s1.8-3.492,4-3.492h10.411
				C308.005,283.646,309.805,285.218,309.805,287.139z"/>
			<g>
				<path fill="#552F2E" d="M309.439,287.173c-0.643,4.145-6.087,3.215-8.709,3.215c-2.729,0-7.256,0.824-8.831-2.421
					c-2.136-4.399,3.523-4.078,5.264-4.078c1.337,0,2.675,0,4.013,0c2.836,0,7.632-0.745,8.266,3.347
					c0.047,0.304,0.774,0.125,0.725-0.194c-0.739-4.769-6.64-3.638-10.145-3.638c-3.405,0-8.293-0.748-8.994,3.769
					c-0.739,4.765,7.747,3.701,10.148,3.701c3.405,0,8.293,0.748,8.994-3.769C310.223,286.765,309.485,286.875,309.439,287.173z"/>
			</g>
		</g>
		<g>
			<path fill="#E5DEDE" d="M344.498,221.416c0,1.92-1.8,3.491-4,3.491h-10.411c-2.2,0-4-1.571-4-3.491c0-1.921,1.8-3.492,4-3.492
				h10.411C342.698,217.924,344.498,219.495,344.498,221.416z"/>
			<g>
				<path fill="#552F2E" d="M344.138,221.469c-0.637,4.111-5.82,3.258-8.698,3.258c-2.985,0-7.271,0.762-8.847-2.483
					c-2.303-4.743,6.45-4.14,8.552-4.14c3.173,0,8.331-0.85,8.991,3.409c0.032,0.206,0.761,0.041,0.725-0.194
					c-0.732-4.722-6.676-3.575-10.128-3.575c-3.363,0-8.31-0.762-9.006,3.726c-0.728,4.699,7.776,3.618,10.126,3.618
					c3.362,0,8.31,0.762,9.006-3.725C344.896,221.121,344.171,221.255,344.138,221.469z"/>
			</g>
		</g>
		<g>
			<path fill="#E5DEDE" d="M273.699,221.416c0,1.92-1.8,3.491-4,3.491h-10.411c-2.2,0-4-1.571-4-3.491c0-1.921,1.8-3.492,4-3.492
				h10.411C271.899,217.924,273.699,219.495,273.699,221.416z"/>
			<g>
				<path fill="#552F2E" d="M273.341,221.476c-0.64,4.127-5.807,3.272-8.694,3.272c-3,0-7.268,0.762-8.853-2.504
					c-2.313-4.763,6.435-4.161,8.546-4.161c3.184,0,8.333-0.848,8.997,3.43c0.026,0.17,0.756,0.01,0.725-0.194
					c-0.73-4.707-6.681-3.554-10.123-3.554c-3.349,0-8.316-0.76-9.009,3.711c-0.725,4.677,7.782,3.591,10.119,3.591
					c3.348,0,8.316,0.761,9.009-3.71C274.089,221.154,273.37,221.287,273.341,221.476z"/>
			</g>
		</g>
		<g>
			<path fill="#E5DEDE" d="M344.498,270.633c0,1.92-1.8,3.491-4,3.491h-10.411c-2.2,0-4-1.571-4-3.491c0-1.921,1.8-3.492,4-3.492
				h10.411C342.698,267.141,344.498,268.712,344.498,270.633z"/>
			<g>
				<path fill="#552F2E" d="M344.132,270.662c-0.628,4.048-5.571,3.204-8.098,3.204c-2.811,0-7.838,0.896-9.441-2.405
					c-2.095-4.314,3.083-4.062,4.829-4.062c1.279,0,2.558,0,3.836,0c2.923,0,8.23-0.845,8.877,3.331
					c0.051,0.326,0.777,0.145,0.725-0.194c-0.717-4.622-6.104-3.653-9.534-3.653c-3.511,0-8.876-0.929-9.606,3.78
					c-0.719,4.634,7.143,3.72,9.538,3.72c3.511,0,8.876,0.929,9.606-3.779C344.92,270.244,344.181,270.345,344.132,270.662z"/>
			</g>
		</g>
		<g>
			<path fill="#E5DEDE" d="M273.699,270.633c0,1.92-1.8,3.491-4,3.491h-10.411c-2.2,0-4-1.571-4-3.491c0-1.921,1.8-3.492,4-3.492
				h10.411C271.899,267.141,273.699,268.712,273.699,270.633z"/>
			<g>
				<path fill="#552F2E" d="M273.338,270.683c-0.637,4.103-5.827,3.25-8.7,3.25c-2.978,0-7.273,0.763-8.845-2.473
					c-2.299-4.733,6.457-4.13,8.555-4.13c3.168,0,8.33-0.852,8.988,3.399c0.035,0.222,0.763,0.054,0.725-0.194
					c-0.733-4.728-6.673-3.585-10.131-3.585c-3.371,0-8.309-0.748-9.003,3.733c-0.73,4.708,7.773,3.631,10.129,3.631
					c3.37,0,8.309,0.748,9.003-3.732C274.101,270.323,273.374,270.456,273.338,270.683z"/>
			</g>
		</g>
		<g>
			<path fill="#E5DEDE" d="M351.306,245.998c0,1.921-1.8,3.492-4,3.492h-10.412c-2.2,0-4-1.571-4-3.492c0-1.92,1.8-3.491,4-3.491
				h10.412C349.506,242.507,351.306,244.078,351.306,245.998"/>
			<g>
				<path fill="#552F2E" d="M350.945,246.049c-0.637,4.108-5.824,3.255-8.7,3.255c-2.981,0-7.273,0.763-8.846-2.478
					c-2.3-4.737,6.454-4.134,8.554-4.134c3.169,0,8.33-0.851,8.99,3.402c0.034,0.215,0.762,0.048,0.725-0.194
					c-0.733-4.725-6.676-3.58-10.13-3.58c-3.366,0-8.308-0.762-9.004,3.729c-0.73,4.706,7.774,3.627,10.128,3.627
					c3.367,0,8.308,0.762,9.004-3.729C351.706,245.694,350.979,245.828,350.945,246.049L350.945,246.049z"/>
			</g>
		</g>
		<g>
			<path fill="#E5DEDE" d="M268.303,245.998c0,1.921-1.8,3.492-4,3.492h-10.411c-2.2,0-4-1.571-4-3.492c0-1.92,1.8-3.491,4-3.491
				h10.411C266.503,242.507,268.303,244.078,268.303,245.998z"/>
			<g>
				<path fill="#552F2E" d="M267.942,246.051c-0.637,4.112-5.819,3.258-8.698,3.258c-2.985,0-7.271,0.763-8.847-2.483
					c-2.302-4.743,6.45-4.139,8.552-4.139c3.172,0,8.331-0.851,8.991,3.408c0.032,0.206,0.761,0.041,0.725-0.194
					c-0.732-4.721-6.677-3.575-10.128-3.575c-3.363,0-8.31-0.761-9.006,3.725c-0.729,4.7,7.776,3.62,10.126,3.62
					c3.363,0,8.31,0.761,9.006-3.726C268.7,245.703,267.976,245.837,267.942,246.051z"/>
			</g>
		</g>
	</g>
	<g class="p1_Windmill2">
		<g>
			<g>
				<path fill="#552E2E" d="M299.644,245.966c-5.19,10.777-10.381,21.554-15.572,32.332c-2.569,5.334-5.138,10.668-7.708,16.003
					c-1.663,3.452-0.686,8.112-0.686,11.866c0,0.566,0.527,0.692,0.999,0.692c16.154,0,32.308,0,48.461,0
					c0.417,0,1.201-0.358,1.201-0.867c0-3.635,1.003-8.299-0.639-11.631c-2.589-5.254-5.178-10.508-7.767-15.763
					c-5.389-10.936-10.777-21.872-16.166-32.807c-0.458-0.929-2.601-0.286-2.174,0.582c5.107,10.364,10.214,20.729,15.321,31.092
					c2.759,5.599,5.518,11.198,8.277,16.797c1.756,3.564,0.948,7.813,0.948,11.904c0.4-0.289,0.8-0.578,1.201-0.867
					c-16.154,0-32.308,0-48.461,0c0.333,0.231,0.666,0.461,0.999,0.692c0-3.877-0.898-8.431,0.719-11.789
					c2.655-5.512,5.31-11.024,7.964-16.537c5.052-10.489,10.104-20.979,15.156-31.468
					C302.25,245.092,300.052,245.12,299.644,245.966z"/>
			</g>
		</g>
		<g>
			<g>
				<path fill="#552E2E" d="M276.633,295.901c16.154,0,32.308,0,48.461,0c0.251,0,0.778-0.381,0.29-0.381
					c-16.154,0-32.308,0-48.461,0C276.672,295.521,276.145,295.901,276.633,295.901L276.633,295.901z"/>
			</g>
		</g>
		<g>
			<g>
				<path fill="#552E2E" d="M282.55,295.744c0,3.456,0,6.912,0,10.368c0,0.36,0.731,0.234,0.731-0.065c0-3.456,0-6.912,0-10.368
					C283.282,295.318,282.55,295.444,282.55,295.744L282.55,295.744z"/>
			</g>
		</g>
		<g>
			<g>
				<path fill="#552E2E" d="M288.268,295.808c0,3.456,0,6.912,0,10.368c0,0.21,0.725,0.077,0.725-0.194c0-3.456,0-6.912,0-10.368
					C288.992,295.404,288.268,295.537,288.268,295.808L288.268,295.808z"/>
			</g>
		</g>
		<g>
			<g>
				<path fill="#552E2E" d="M293.98,295.808c0,3.456,0,6.912,0,10.368c0,0.15,0.725,0.036,0.725-0.194c0-3.456,0-6.912,0-10.368
					C294.705,295.464,293.98,295.578,293.98,295.808L293.98,295.808z"/>
			</g>
		</g>
	</g>
	<g>
		<path fill="#E5DEDE" d="M380.228,280.092c0,3.3-2.7,6-6,6h-20.794c-3.3,0-6-2.7-6-6v-0.438c0-3.3,2.7-6,6-6h20.794    c3.3,0,6,2.7,6,6V280.092z"/>
		<g>
			<path fill="#552F2E" d="M379.505,280.191c-0.874,7.529-11.349,5.517-16.359,5.517c-5.052,0-14.988,1.659-14.988-6.029     c0-7.778,12.74-5.641,17.323-5.641c5.149,0,14.022-1.426,14.022,6.249c0,0.404,1.449,0.143,1.449-0.389     c0-8.676-11.228-6.628-16.833-6.628c-6.042,0-16.421-2.015-17.408,6.483c-1.013,8.726,11.91,6.724,16.83,6.724     c6.042,0,16.421,2.015,17.408-6.483C381.012,279.456,379.558,279.737,379.505,280.191z"/>
		</g>
		<line fill="#E5DEDE" x1="363.831" y1="273.653" x2="363.831" y2="306.451"/>
		<g>
			<path fill="#552F2E" d="M362.382,274.042c0,10.933,0,21.865,0,32.798c0,0.483,2.897,0.063,2.897-0.776     c0-10.933,0-21.865,0-32.798C365.28,272.782,362.382,273.203,362.382,274.042L362.382,274.042z"/>
		</g>
	</g>
</g>


<g class="p1_cloud">
	<path fill="#552E2E" d="M769.365,78.779c-15.883,0-31.766,0-47.648,0c-3.222,0-6.442,0-9.663,0c-0.556,0-1.11,0-1.666,0
		c0.612,0,0.827,0.717,0.415-0.062c-0.229-0.433-0.499-0.841-0.771-1.247c-5.491-8.203-15.197-6.887-22.765-2.563
		c0.597,0.047,1.194,0.095,1.791,0.142c-0.636-9.292-6.007-18.546-15.263-21.261c-14.233-4.175-26.695,6.561-31.086,19.32
		c0.698-0.187,1.397-0.374,2.096-0.562c-2.36-2.308-5.475-3.746-8.727-4.184c-2.314-0.313-4.961,0.305-6.951,1.498
		c-1.396,0.837-2.571,1.812-3.724,2.95c-0.473,0.466-4.819,5.968-3.082,5.968c-9.818,0-19.638,0-29.457,0
		c-0.957,0-2.256,1.454-0.785,1.454c9.833,0,19.666,0,29.5,0c0.514,0,1.154-0.139,1.422-0.64
		c2.938-5.499,7.297-11.269,14.264-9.373c1.995,0.543,4.056,1.795,5.54,3.246c0.606,0.593,1.835,0.197,2.096-0.562
		c4.486-13.036,18.547-23.978,32.255-15.733c6.041,3.634,9.263,11.649,9.729,18.46c0.054,0.778,1.466,0.328,1.791,0.142
		c7.079-4.046,16.267-4.206,20.21,4.023c0.13,0.271,0.382,0.436,0.694,0.436c19.666,0,39.333,0,59,0
		C769.537,80.233,770.836,78.779,769.365,78.779L769.365,78.779z"/>
</g>
<g class="p1_cloud1">
	<g>
		<g>
			<path fill="#552E2E" d="M661.518,101.327c15.808,0,31.616,0,47.424,0c0.48,0,2.484-0.928,1.398-0.928
				c-15.808,0-31.616,0-47.424,0C662.436,100.399,660.432,101.327,661.518,101.327L661.518,101.327z"/>
		</g>
	</g>
	<g>
		<g>
			<path fill="#552E2E" d="M825.035,88.93c46.047,0,92.093,0,138.139,0c0.251,0,0.501,0,0.751,0c0.479,0,2.485-0.928,1.398-0.928
				c-46.046,0-92.093,0-138.14,0c-0.25,0-0.5,0-0.75,0C825.953,88.002,823.949,88.93,825.035,88.93L825.035,88.93z"/>
		</g>
	</g>
	<g>
		<g>
			<path fill="#552E2E" d="M715.762,101.357c5.363,0,10.727,0,16.091,0c0.652,0,2.364-0.987,0.91-0.987c-5.363,0-10.727,0-16.091,0
				C716.02,100.37,714.308,101.357,715.762,101.357L715.762,101.357z"/>
		</g>
	</g>
</g>
<g class="p1_cloud2">
	<g>
		<g>
			<path fill="#552E2E" d="M509.788,85.933c35.35,0,70.699,0,106.049,0c0.913,0,2.275-1.387,0.805-1.387
				c-35.35,0-70.699,0-106.049,0C509.68,84.546,508.317,85.933,509.788,85.933L509.788,85.933z"/>
		</g>
	</g>
	<g>
		<g>
			<path fill="#552E2E" d="M675.221,112.494c5.363,0,10.728,0,16.091,0c0.831,0,2.308-1.261,0.838-1.261c-5.363,0-10.728,0-16.091,0
				C675.228,111.233,673.751,112.494,675.221,112.494L675.221,112.494z"/>
		</g>
	</g>
</g>
<g class="p1_dash">
	<g xmlns="http://www.w3.org/2000/svg">
		<g>
			<g>
				
					<line fill="none" stroke="#FFFFFF" stroke-width="0.5" stroke-miterlimit="10" x1="286.837" y1="458.645" x2="291.837" y2="458.645"/>
				
					<line fill="none" stroke="#FFFFFF" stroke-width="0.5" stroke-miterlimit="10" stroke-dasharray="11.0427,11.0427" x1="302.88" y1="458.645" x2="363.615" y2="458.645"/>
				<polyline fill="none" stroke="#FFFFFF" stroke-width="0.5" stroke-miterlimit="10" points="369.136,458.645 374.136,458.645      374.136,463.645    "/>
				
					<line fill="none" stroke="#FFFFFF" stroke-width="0.5" stroke-miterlimit="10" stroke-dasharray="10.204,10.204" x1="374.136" y1="473.849" x2="374.136" y2="529.971"/>
				<polyline fill="none" stroke="#FFFFFF" stroke-width="0.5" stroke-miterlimit="10" points="374.136,535.072 374.136,540.072      369.136,540.072    "/>
				
					<line fill="none" stroke="#FFFFFF" stroke-width="0.5" stroke-miterlimit="10" stroke-dasharray="11.1143,11.1143" x1="358.022" y1="540.072" x2="296.894" y2="540.072"/>
				<polyline fill="none" stroke="#FFFFFF" stroke-width="0.5" stroke-miterlimit="10" points="291.336,540.072 286.336,540.072      286.336,545.072    "/>
				
					<line fill="none" stroke="#FFFFFF" stroke-width="0.5" stroke-miterlimit="10" stroke-dasharray="9.0363,9.0363" x1="286.336" y1="554.108" x2="286.336" y2="585.735"/>
				<polyline fill="none" stroke="#FFFFFF" stroke-width="0.5" stroke-miterlimit="10" points="286.336,590.254 286.336,595.254      286.336,590.254    "/>
				
					<line fill="none" stroke="#FFFFFF" stroke-width="0.5" stroke-miterlimit="10" stroke-dasharray="9.9683,9.9683" x1="286.336" y1="580.285" x2="286.336" y2="385.904"/>
				<polyline fill="none" stroke="#FFFFFF" stroke-width="0.5" stroke-miterlimit="10" points="286.336,380.92 286.336,375.92      291.336,375.92    "/>
				
					<line fill="none" stroke="#FFFFFF" stroke-width="0.5" stroke-miterlimit="10" stroke-dasharray="11.0819,11.0819" x1="302.418" y1="375.92" x2="363.369" y2="375.92"/>
				<polyline fill="none" stroke="#FFFFFF" stroke-width="0.5" stroke-miterlimit="10" points="368.91,375.92 373.91,375.92      373.909,380.92    "/>
				
					<line fill="none" stroke="#FFFFFF" stroke-width="0.5" stroke-miterlimit="10" stroke-dasharray="10.1576,10.1576" x1="373.906" y1="391.077" x2="373.85" y2="629.78"/>
				
					<line fill="none" stroke="#FFFFFF" stroke-width="0.5" stroke-miterlimit="10" x1="373.848" y1="634.859" x2="373.847" y2="639.859"/>
			</g>
		</g>
	</g>
	<g xmlns="http://www.w3.org/2000/svg">
		<g>
			<g>
				<polyline fill="none" stroke="#FFFFFF" stroke-width="0.5" stroke-miterlimit="10" points="834.281,589.029 834.281,594.029      834.281,589.029    "/>
				
					<line fill="none" stroke="#FFFFFF" stroke-width="0.5" stroke-miterlimit="10" stroke-dasharray="9.8874,9.8874" x1="834.281" y1="579.142" x2="834.281" y2="327.015"/>
				<polyline fill="none" stroke="#FFFFFF" stroke-width="0.5" stroke-miterlimit="10" points="834.281,322.07 834.281,317.071      834.281,322.07    "/>
				
					<line fill="none" stroke="#FFFFFF" stroke-width="0.5" stroke-miterlimit="10" stroke-dasharray="9.8874,9.8874" x1="834.281" y1="331.958" x2="834.281" y2="584.086"/>
			</g>
			<g>
				
					<line fill="none" stroke="#FFFFFF" stroke-width="0.5" stroke-miterlimit="10" x1="688.281" y1="593.955" x2="688.281" y2="588.955"/>
				
					<line fill="none" stroke="#FFFFFF" stroke-width="0.5" stroke-miterlimit="10" stroke-dasharray="9.882,9.882" x1="688.281" y1="579.073" x2="688.281" y2="327.082"/>
				
					<line fill="none" stroke="#FFFFFF" stroke-width="0.5" stroke-miterlimit="10" x1="688.281" y1="322.141" x2="688.281" y2="317.141"/>
			</g>
			<g>
				
					<line fill="none" stroke="#FFFFFF" stroke-width="0.5" stroke-miterlimit="10" x1="915.463" y1="258.055" x2="910.463" y2="258.055"/>
				<polyline fill="none" stroke="#FFFFFF" stroke-width="0.5" stroke-miterlimit="10" stroke-dasharray="9.916,9.916" points="     900.547,258.055 812.713,258.055 687.353,258.401    "/>
				<polyline fill="none" stroke="#FFFFFF" stroke-width="0.5" stroke-miterlimit="10" points="682.395,258.415 677.395,258.428      682.395,258.415    "/>
				
					<line fill="none" stroke="#FFFFFF" stroke-width="0.5" stroke-miterlimit="10" stroke-dasharray="9.6399,9.6399" x1="692.034" y1="258.388" x2="802.893" y2="258.082"/>
				<polyline fill="none" stroke="#FFFFFF" stroke-width="0.5" stroke-miterlimit="10" points="807.713,258.069 812.713,258.055      809.259,261.67    "/>
				<polyline fill="none" stroke="#FFFFFF" stroke-width="0.5" stroke-miterlimit="10" stroke-dasharray="10.1386,10.1386" points="     802.256,269.001 756.336,317.071 756.336,630.79    "/>
				
					<line fill="none" stroke="#FFFFFF" stroke-width="0.5" stroke-miterlimit="10" x1="756.336" y1="635.859" x2="756.336" y2="640.859"/>
			</g>
		</g>
	</g>
	<g xmlns="http://www.w3.org/2000/svg">
		<g>
			<g>
				
					<line fill="none" stroke="#FFFFFF" stroke-width="0.5" stroke-miterlimit="10" x1="519.234" y1="373.777" x2="520.935" y2="378.48"/>
				
					<line fill="none" stroke="#FFFFFF" stroke-width="0.5" stroke-miterlimit="10" stroke-dasharray="9.758,9.758" x1="524.253" y1="387.656" x2="569.047" y2="511.54"/>
				
					<line fill="none" stroke="#FFFFFF" stroke-width="0.5" stroke-miterlimit="10" x1="570.706" y1="516.128" x2="572.406" y2="520.83"/>
			</g>
		</g>
		<g>
			<g>
				
					<line fill="none" stroke="#FFFFFF" stroke-width="0.5" stroke-miterlimit="10" x1="625.588" y1="317.141" x2="625.588" y2="322.141"/>
				
					<line fill="none" stroke="#FFFFFF" stroke-width="0.5" stroke-miterlimit="10" stroke-dasharray="9.7238,9.7238" x1="625.588" y1="331.865" x2="625.588" y2="482.583"/>
				<polyline fill="none" stroke="#FFFFFF" stroke-width="0.5" stroke-miterlimit="10" points="625.588,487.445 625.588,492.445       621.177,494.8     "/>
				
					<line fill="none" stroke="#FFFFFF" stroke-width="0.5" stroke-miterlimit="10" stroke-dasharray="9.7401,9.7401" x1="612.584" y1="499.386" x2="462.212" y2="579.649"/>
				<polyline fill="none" stroke="#FFFFFF" stroke-width="0.5" stroke-miterlimit="10" points="457.916,581.942 453.504,584.297       453.504,589.297     "/>
				
					<line fill="none" stroke="#FFFFFF" stroke-width="0.5" stroke-miterlimit="10" stroke-dasharray="8.15,8.15" x1="453.504" y1="597.447" x2="453.503" y2="625.972"/>
				<polyline fill="none" stroke="#FFFFFF" stroke-width="0.5" stroke-miterlimit="10" points="453.503,630.047 453.503,635.047       453.503,630.047     "/>
				
					<line fill="none" stroke="#FFFFFF" stroke-width="0.5" stroke-miterlimit="10" stroke-dasharray="9.6282,9.6282" x1="453.503" y1="620.419" x2="453.504" y2="374.9"/>
				
					<line fill="none" stroke="#FFFFFF" stroke-width="0.5" stroke-miterlimit="10" x1="453.504" y1="370.086" x2="453.504" y2="365.086"/>
			</g>
		</g>
	</g>
	<g xmlns="http://www.w3.org/2000/svg">
				
					<line fill="none" stroke="#FFFFFF" stroke-width="0.75" stroke-miterlimit="10" x1="1012.686" y1="631.285" x2="1007.686" y2="631.285"/>
				
					<line fill="none" stroke="#FFFFFF" stroke-width="0.75" stroke-miterlimit="10" stroke-dasharray="10.0371,10.0371" x1="997.648" y1="631.285" x2="922.37" y2="631.285"/>
				<polyline fill="none" stroke="#FFFFFF" stroke-width="0.75" stroke-miterlimit="10" points="917.352,631.285 912.352,631.285       912.352,626.285     "/>
				
					<line fill="none" stroke="#FFFFFF" stroke-width="0.75" stroke-miterlimit="10" stroke-dasharray="9.8111,9.8111" x1="912.352" y1="616.474" x2="912.352" y2="327.047"/>
				<polyline fill="none" stroke="#FFFFFF" stroke-width="0.75" stroke-miterlimit="10" points="912.352,322.141 912.352,317.141       907.352,317.141     "/>
				
					<line fill="none" stroke="#FFFFFF" stroke-width="0.75" stroke-miterlimit="10" stroke-dasharray="9.9797,9.9797" x1="897.372" y1="317.141" x2="243.703" y2="317.141"/>
				<polyline fill="none" stroke="#FFFFFF" stroke-width="0.75" stroke-miterlimit="10" points="238.713,317.141 233.713,317.141       238.713,317.141     "/>
				
					<line fill="none" stroke="#FFFFFF" stroke-width="0.75" stroke-miterlimit="10" stroke-dasharray="10.25,10.25" x1="248.963" y1="317.141" x2="387.338" y2="317.141"/>
				<polyline fill="none" stroke="#FFFFFF" stroke-width="0.75" stroke-miterlimit="10" points="392.463,317.141 397.463,317.141       397.43,312.141     "/>
				
					<line fill="none" stroke="#FFFFFF" stroke-width="0.75" stroke-miterlimit="10" stroke-dasharray="9.8588,9.8588" x1="397.365" y1="302.283" x2="395.966" y2="90.324"/>
				<polyline fill="none" stroke="#FFFFFF" stroke-width="0.75" stroke-miterlimit="10" points="395.934,85.395 395.901,80.395       400.901,80.395     "/>
				
					<line fill="none" stroke="#FFFFFF" stroke-width="0.75" stroke-miterlimit="10" stroke-dasharray="9.2193,9.2193" x1="410.12" y1="80.395" x2="460.826" y2="80.396"/>
				<polyline fill="none" stroke="#FFFFFF" stroke-width="0.75" stroke-miterlimit="10" points="465.436,80.396 470.436,80.396       465.436,80.396     "/>
				
					<line fill="none" stroke="#FFFFFF" stroke-width="0.75" stroke-miterlimit="10" stroke-dasharray="9.8575,9.8575" x1="455.579" y1="80.396" x2="243.642" y2="80.396"/>
				<polyline fill="none" stroke="#FFFFFF" stroke-width="0.75" stroke-miterlimit="10" points="238.713,80.396 233.713,80.396       233.713,85.396     "/>
				<path fill="none" stroke="#FFFFFF" stroke-width="0.75" stroke-miterlimit="10" stroke-dasharray="10.0779,10.0779" d="      M233.713,95.474v351.987c0,50.619-38.753,91.652-84.092,91.652c-45.348,0-80.068-41.033-80.068-91.652l-0.04-357.47"/>
				<polyline fill="none" stroke="#FFFFFF" stroke-width="0.75" stroke-miterlimit="10" points="69.513,84.952 69.512,79.952       64.512,79.952     "/>
				
					<line fill="none" stroke="#FFFFFF" stroke-width="0.75" stroke-miterlimit="10" stroke-dasharray="8.6446,8.6446" x1="55.868" y1="79.952" x2="8.322" y2="79.952"/>
				<line fill="none" stroke="#FFFFFF" stroke-width="0.75" stroke-miterlimit="10" x1="4" y1="79.952" x2="-1" y2="79.952"/>
			</g>
</g>
<g class="p1_static">

	<g class="p1_car2">
		<g>
			<path fill="#E47274" d="M682.032,288.8c0,4.057-4.5,7.377-10,7.377h-65.606c-5.5,0-10-3.32-10-7.377c0-4.057,4.5-7.377,10-7.377     h65.606C677.532,281.423,682.032,284.743,682.032,288.8z"/>
		</g>
		<g>
			<path fill="#552E2E" d="M679.444,291.629c-0.524,6.822-6.659,6.536-11.623,6.536c-5.385,0-10.768,0-16.151,0     c-12.847,0-25.692,0-38.538,0c-2.945,0-5.89,0-8.835,0c-9.527,0-10.859-13.72-0.639-13.72c10.306,0,20.609,0,30.916,0     c9.333,0,18.665,0,27.996,0C668.698,284.445,678.778,282.954,679.444,291.629c0.038,0.499,2.474,0.051,2.42-0.647     c-0.772-10.061-15.323-7.57-22.153-7.57c-13.124,0-26.248,0-39.373,0c-6.858,0-16.758-1.712-22.967,2.001     c-2.862,1.712-3.96,5.053-3.233,8.173c0.874,3.748,5.076,5.41,8.483,5.614c2.405,0.145,4.864,0,7.272,0     c15.156,0,30.313,0,45.471,0c7.461,0,25.635,3.052,26.5-8.218C681.896,290.589,679.502,290.874,679.444,291.629z"/>
		</g>
		<g>
			<g>
				<path fill="#552E2E" d="M663.911,283.541c-7.143-23.992-41.43-23.628-48.516,0.195c-0.268,0.898,0.472,1.307,1.278,1.307      c15.225,0,30.448,0,45.673,0c1.693,0,2.19-2.227,0.229-2.227c-15.225,0-30.448,0-45.673,0c0.427,0.436,0.853,0.871,1.277,1.307      c2.918-9.813,11.021-16.315,21.327-16.619c10.199-0.301,18.724,7.47,21.504,16.814      C661.43,285.716,664.324,284.931,663.911,283.541z"/>
			</g>
		</g>
		<g>
			<g>
				<path fill="#552E2E" d="M650.283,283.541c0-5.224,0-10.448,0-15.672c0-0.687-2.898-0.203-2.898,0.776c0,5.224,0,10.448,0,15.672      C647.385,285.003,650.283,284.52,650.283,283.541L650.283,283.541z"/>
			</g>
		</g>
		<g>
			<g>
				<path fill="#552E2E" d="M641.074,283.541c0-3.48,0-6.959,0-10.439c0-0.852-2.898-0.316-2.898,0.776c0,3.48,0,6.959,0,10.439      C638.176,285.168,641.074,284.633,641.074,283.541L641.074,283.541z"/>
			</g>
		</g>
		<g>
			<circle fill="#E5DEDE" cx="615.913" cy="298.683" r="6.96"/>
			<g>
				<path fill="#552F2E" d="M621.424,299.071c-0.215,4-3.575,7.223-7.664,5.104c-2.2-1.14-3.23-3.531-3.356-5.88      c-0.223-4.115,3.942-7.032,7.664-5.104C620.267,294.331,621.298,296.721,621.424,299.071c0.036,0.659,2.947,0.133,2.898-0.776      c-0.557-10.313-16.302-8.828-16.818,0.776c-0.25,4.648,4.688,7.844,8.922,7.153c4.275-0.696,7.651-3.393,7.896-7.931      C624.353,297.721,621.476,298.121,621.424,299.071z"/>
			</g>
		</g>
		<g>
			<circle fill="#E5DEDE" cx="663.239" cy="298.683" r="6.959"/>
			<g>
				<path fill="#552F2E" d="M668.749,299.071c-0.214,3.984-3.542,7.248-7.662,5.112c-2.201-1.14-3.231-3.54-3.357-5.89      c-0.222-4.102,3.918-7.053,7.661-5.113C667.591,294.322,668.623,296.721,668.749,299.071c0.033,0.604,2.945,0.092,2.898-0.776      c-0.556-10.288-16.303-8.789-16.817,0.776c-0.251,4.662,4.682,7.809,8.912,7.12c4.263-0.694,7.661-3.36,7.905-7.896      C671.675,297.777,668.799,298.157,668.749,299.071z"/>
			</g>
		</g>
	</g>
	<g class="p1_car3">
		<path fill="#E47274" d="M522.21,509.965c-6.038-7.307-16.535-9.721-25.329-5.237c-8.797,4.484-13.011,14.399-10.642,23.579    l0.268-0.097c5.605-1.918,11.914,0.526,14.685,5.958c0.188,0.372,0.357,0.75,0.506,1.13l1.049-0.525l14.083-7.179l1.896-0.975    c-0.222-0.344-0.429-0.701-0.618-1.072c-2.729-5.354-1.089-11.786,3.6-15.233L522.21,509.965z"/>
		<path fill="#552F2E" d="M496.273,538.969c1.176,2.604,0.839,5.337-1.183,7.425c-2.599,2.688-6.566,1.125-8.408-1.484    c-1.72-2.44-1.013-5.809,0.944-7.831c2.818-2.913,7.05-0.893,8.729,2.051c0.411,0.721,2.513-0.011,2.006-0.9    c-4.666-8.172-18.069-1.965-14.092,6.857c3.923,8.695,18.185,2.186,14.176-6.698C498.063,537.535,495.922,538.19,496.273,538.969z    "/>
		<path fill="#552F2E" d="M534.746,519.357c1.126,2.494,0.891,5.136-0.846,7.3c-2.762,3.438-7.25,1.267-8.98-1.766    c-1.331-2.331-0.771-5.288,0.845-7.301C528.525,514.152,533.016,516.327,534.746,519.357c0.313,0.55,2.357-0.26,2.174-0.582    c-4.537-7.944-18.126-2.06-14.174,6.698c3.771,8.356,18.104,2.015,14.174-6.698C536.675,518.232,534.569,518.966,534.746,519.357z    "/>
		<path fill="#552F2E" d="M487.913,530.185c-1.663-7.5,0.411-14.732,5.855-20.162c8.384-8.359,21.467-5.916,28.663,2.211    c0.284,0.319,1.51-0.321,1.449-0.39c-14.554-16.432-42.257-3.092-37.418,18.729C486.523,530.839,487.979,530.482,487.913,530.185    L487.913,530.185z"/>
		<path fill="#552F2E" d="M486.989,528.908c11.781-6.006,23.563-12.012,35.347-18.019c0.44-0.225,0.046-0.633-0.324-0.442    c-11.782,6.006-23.563,12.012-35.347,18.018C486.225,528.689,486.619,529.098,486.989,528.908L486.989,528.908z"/>
		<path fill="#552F2E" d="M481.875,548.021c-2.815-4.908-2.324-10.387,1.45-14.643c5.833-6.576,15.514-2.717,18.597,4.192    c0.156,0.351,0.743,0.269,1.019,0.129c5.679-2.891,11.356-5.78,17.035-8.67c0.237-0.121,0.55-0.317,0.379-0.613    c-2.83-4.904-2.327-10.396,1.444-14.647c5.834-6.579,15.51-2.714,18.597,4.191c0.238,0.532,1.662,0.088,1.449-0.389    c-4.074-9.11-15.556-10.465-22.054-3.137c-3.291,3.711-3.377,9.059-1.461,13.378c0.199,0.448,1.449,0.372,0.827,0.688    c-0.551,0.28-1.104,0.562-1.653,0.842c-2.063,1.05-4.128,2.102-6.192,3.15c-2.966,1.51-5.933,3.02-8.897,4.529    c1.861-0.947-2.262-4.633-2.93-5.109c-2.234-1.6-4.438-2.396-7.151-2.693c-10.595-1.169-16.688,10.856-11.799,19.382    C480.786,549.043,482.193,548.577,481.875,548.021L481.875,548.021z"/>
		<path fill="#552F2E" d="M497.553,506.854c4.455,8.74,8.909,17.48,13.364,26.222c0.132,0.259,0.837,0.026,0.725-0.193    c-4.455-8.74-8.908-17.479-13.363-26.221C498.146,506.401,497.44,506.633,497.553,506.854L497.553,506.854z"/>
	</g>
	<g class="p1_moun">
		<g>
			<polygon fill="#7DCAF9" points="899.179,176.405 831.272,176.405 863.808,108.499    "/>
		</g>
		<g>
			<polyline fill="#86F7CB" points="790.806,33.988 849.938,176.405 736.41,176.405 790.806,33.988    "/>
		</g>
		<g>
			<polygon fill="#86F7CB" points="753.341,176.405 685.435,176.405 717.974,108.499    "/>
		</g>
		<g>
			<g>
				<path fill="#552F2E" d="M785.356,34.376c18.688,45.012,37.379,90.024,56.067,135.036c1.021,2.46,2.043,4.92,3.064,7.381      c0.795-0.334,1.589-0.668,2.383-1.002c-23.688,0-47.377,0-71.065,0c-12.583,0-25.165,0-37.747,0c-1.269,0-2.536,0-3.806,0      c-1.319,0-0.365,0.245-0.336,0.167c0.826-2.164,1.653-4.328,2.479-6.492c17.28-45.242,34.561-90.483,51.841-135.725      c0.221-0.579-2.571-0.27-2.863,0.493c-17.333,45.381-34.666,90.763-51.999,136.144c-0.799,2.091-1.598,4.183-2.396,6.273      c-0.11,0.291,0.305,0.368,0.498,0.368c37.844,0,75.687,0,113.528,0c0.32,0,2.664-0.324,2.383-1.002      c-18.688-45.012-37.379-90.024-56.067-135.036c-1.021-2.46-2.043-4.92-3.064-7.381C787.947,32.86,785.116,33.797,785.356,34.376      L785.356,34.376z"/>
			</g>
		</g>
		<g>
			<g>
				<path fill="#552F2E" d="M749.87,175.455c-22.636,0-45.271,0-67.906,0c0.28,0.352,0.561,0.704,0.84,1.056      c10.848-22.635,21.692-45.271,32.539-67.906c-0.938,0.094-1.879,0.188-2.817,0.283c11.789,22.635,23.577,45.271,35.366,67.906      c0.592,1.134,3.428,0.238,2.898-0.776c-11.789-22.635-23.578-45.271-35.367-67.906c-0.505-0.968-2.382-0.629-2.817,0.283      c-10.848,22.635-21.692,45.271-32.539,67.906c-0.287,0.599,0.245,1.056,0.84,1.056c22.636,0,45.271,0,67.906,0      C750.063,177.355,751.83,175.455,749.87,175.455z"/>
			</g>
		</g>
		<g>
			<g>
				<path fill="#552F2E" d="M895.291,175.285c-22.635,0-45.271,0-67.906,0c0.429,0.439,0.854,0.878,1.281,1.318      c10.846-22.635,21.69-45.271,32.535-67.906c-0.905,0.152-1.812,0.305-2.716,0.458c11.791,22.635,23.581,45.271,35.371,67.906      c0.638,1.223,3.378,0.1,2.645-1.31c-11.791-22.635-23.581-45.271-35.371-67.906c-0.532-1.021-2.34-0.328-2.716,0.458      c-10.846,22.635-21.69,45.271-32.535,67.906c-0.421,0.877,0.591,1.318,1.281,1.318c22.635,0,45.271,0,67.906,0      C896.766,177.526,897.252,175.285,895.291,175.285z"/>
			</g>
		</g>
	</g>
	<g class="p1_tree2">
		<g>
			<g>
				<path fill="#552E2E" d="M793.031,605.024c0,12.111,0,24.224,0,36.335c0,0.574,4.346-0.012,4.346-1.164      c0-12.112,0-24.225,0-36.335C797.377,603.285,793.031,603.871,793.031,605.024L793.031,605.024z"/>
			</g>
		</g>
		<g>
			<circle fill="#86F7CB" cx="797.499" cy="562.682" r="7.933"/>
		</g>
		<g>
			<circle fill="#86F7CB" cx="797.499" cy="587.938" r="17.155"/>
		</g>
		<g>
			<g>
				<path fill="#552F2E" d="M802.412,562.876c-0.28,5.21-5.163,9.192-10.528,6.411c-2.541-1.317-3.742-4.091-3.888-6.8      c-0.289-5.359,5.776-8.873,10.529-6.411C801.067,557.394,802.267,560.167,802.412,562.876c0.014,0.245,1.47,0.004,1.449-0.389      c-0.589-10.935-16.749-10.103-17.314,0.389c-0.587,10.904,16.751,10.072,17.314-0.389      C803.872,562.287,802.435,562.456,802.412,562.876z"/>
			</g>
		</g>
		<g>
			<g>
				<path fill="#552F2E" d="M811.633,588.021c-0.37,9.621-7.63,16.968-17.493,16.588c-8.369-0.322-14.405-7.699-15.313-15.525      c-1.171-10.084,7.78-18.19,17.442-17.818c8.911,0.344,15.045,8.529,15.366,16.866c0.021,0.498,1.473,0.197,1.449-0.389      c-0.399-10.358-8.678-17.736-18.944-17.341c-9.429,0.362-16.467,8.525-16.816,17.619c-0.401,10.429,9.18,17.826,18.945,17.45      c9.431-0.362,16.468-8.525,16.817-17.618C813.109,587.223,811.653,587.511,811.633,588.021z"/>
			</g>
		</g>
	</g>
	<g>
		<g>
			<path fill="#E5DFDF" d="M587.412,288.236c0,1.559-1.275,2.834-2.835,2.834H558.97c-1.56,0-2.835-1.275-2.835-2.834v-65.473     c0-1.559,1.275-2.834,2.835-2.834h25.607c1.56,0,2.835,1.275,2.835,2.834V288.236z"/>
		</g>
		<g>
			<path fill="none" stroke="#562F2F" stroke-linecap="round" stroke-linejoin="round" stroke-dasharray="9.9967,9.9967" d="     M585.412,287.236c0,1.559-1.275,2.834-2.835,2.834H556.97c-1.56,0-2.835-1.275-2.835-2.834v-65.473     c0-1.559,1.275-2.834,2.835-2.834h25.607c1.56,0,2.835,1.275,2.835,2.834V287.236z"/>
		</g>
		<g opacity="0.5">
			<g>
				<path fill="#562F2F" d="M497.916,179.466c-17.289-21.3-7.198-55.225,20.593-60.783c27.569-5.513,49.021,22.363,42.061,47.901      c-0.204,0.75,2.652,0.328,2.869-0.468c7.777-28.537-17.114-54.121-45.754-48.394c-28.628,5.725-40.83,40.174-22.487,62.772      C495.69,181.104,498.449,180.123,497.916,179.466L497.916,179.466z"/>
			</g>
		</g>
		<g>
			<path fill="#E5DFDF" d="M542.422,182.408c8.971-5.616,14.943-15.583,14.943-26.948c0-17.55-14.229-31.777-31.777-31.777     c-17.551,0-31.777,14.228-31.777,31.777s14.227,31.777,31.777,31.777c2.205,0,4.357-0.226,6.436-0.652l20.195,25.957     L542.422,182.408z"/>
			<g>
				<path fill="#562F2F" d="M543.308,182.789c19.059-12.541,20.669-39.785,2.188-53.678c-15.96-11.999-39.461-5.682-49.114,11.059      c-10.898,18.898,1.223,42.261,21.578,47.101c2.304,0.548,4.692,0.69,7.051,0.74c0.813,0.017,5.913-0.553,5.758-0.752      c1.422,1.828,2.845,3.657,4.268,5.485c4.577,5.884,9.155,11.767,13.732,17.651c0.7,0.9,1.4,1.8,2.101,2.699      c0.489,0.629,3.089-0.047,2.799-0.94c-3.266-10.044-6.531-20.089-9.797-30.134c-0.31-0.951-3.191-0.126-2.898,0.776      c3.266,10.044,6.531,20.089,9.797,30.134c0.934-0.313,1.866-0.627,2.799-0.94c-6.731-8.652-13.464-17.305-20.195-25.957      c-0.218-0.279-0.845-0.248-1.137-0.196c-15.32,2.748-29.755-5.738-35.188-20.225c-5.319-14.188,1.293-30.229,14.136-37.636      c14.535-8.383,32.853-1.23,40.818,12.583c8.199,14.216,2.954,32.637-10.467,41.468      C539.9,183.103,542.441,183.359,543.308,182.789z"/>
			</g>
		</g>
		<g>
			
				<line fill="none" stroke="#562F2F" stroke-width="3" stroke-linecap="round" stroke-linejoin="round" stroke-miterlimit="10" x1="525.307" y1="136.313" x2="525.307" y2="172.647"/>
			<g>
				<g>
					<path fill="none" stroke="#562F2F" stroke-width="3" stroke-miterlimit="10" d="M525.309,136.313c-0.001,0-0.001,0-0.002,0       v27.667c0.001,0,0.001,0,0.002,0c7.639,0,13.832-6.193,13.832-13.833C539.141,142.506,532.947,136.313,525.309,136.313z"/>
				</g>
			</g>
		</g>
		<g>
			
				<rect x="566.238" y="181.445" transform="matrix(0.7071 0.7071 -0.7071 0.7071 297.6841 -348.711)" fill="#E5DFDF" width="7.071" height="7.071"/>
			<g>
				<path fill="#562F2F" d="M571.133,189.466c-1.66-1.66-3.32-3.32-4.979-4.98c0.215,0.215-0.214,0.584,0.114,0.256      c0.153-0.153,0.307-0.307,0.46-0.46c0.576-0.577,1.153-1.153,1.729-1.73c0.88-0.879,1.76-1.759,2.64-2.639      c-0.895,0.194-1.788,0.389-2.683,0.583c1.66,1.66,3.32,3.32,4.98,4.98c-0.216-0.215,0.213-0.584-0.115-0.256      c-0.153,0.153-0.307,0.307-0.46,0.46c-0.576,0.577-1.153,1.153-1.729,1.73c-0.88,0.879-1.76,1.759-2.64,2.639      c-0.695,0.696,2.114,0.397,2.646-0.135c1.666-1.667,3.333-3.333,5-5c0.138-0.139,0.182-0.302,0.036-0.448      c-1.667-1.667-3.333-3.333-5-5c-0.568-0.569-2.234,0.135-2.683,0.583c-1.666,1.667-3.333,3.333-5,5      c-0.138,0.139-0.182,0.302-0.036,0.448c1.667,1.667,3.333,3.333,5,5C568.998,191.08,571.688,190.02,571.133,189.466z"/>
			</g>
		</g>
	</g>
	<g>
		<g>
			<g>
				<path fill="#562F2F" d="M404.348,550.339c0-49.527,0-99.056,0-148.583c0-5.189,0-10.38,0-15.569c-0.4,0.156-0.8,0.313-1.2,0.469      c6.155,0,12.31,0,18.465,0c3.288,0,2.954-0.63,2.954,2.408c0,9.328,0,18.657,0,27.985c0,31.348,0,62.695,0,94.044      c0,13.211,0,26.423,0,39.635c0.4-0.156,0.8-0.313,1.2-0.469c-7.223,0-14.445,0-21.668,0c-0.278,0-1.641,0.549-0.951,0.549      c7.223,0,14.445,0,21.668,0c0.229,0,1.2-0.126,1.2-0.469c0-49.527,0-99.056,0-148.583c0-5.189,0-10.38,0-15.569      c0-0.082-0.217-0.08-0.249-0.08c-7.223,0-14.445,0-21.668,0c-0.229,0-1.2,0.126-1.2,0.469c0,49.527,0,99.056,0,148.583      c0,5.189,0,10.38,0,15.569C402.899,550.915,404.348,550.721,404.348,550.339z"/>
			</g>
		</g>
		<g>
			<g>
				<g>
					
						<line fill="none" stroke="#66BAED" stroke-width="0.5" stroke-miterlimit="10" x1="414.457" y1="545.881" x2="414.457" y2="540.881"/>
					
						<line fill="none" stroke="#66BAED" stroke-width="0.5" stroke-miterlimit="10" stroke-dasharray="9.6577,9.6577" x1="414.457" y1="531.224" x2="414.458" y2="400.845"/>
					
						<line fill="none" stroke="#66BAED" stroke-width="0.5" stroke-miterlimit="10" x1="414.458" y1="396.016" x2="414.458" y2="391.016"/>
				</g>
			</g>
		</g>
	</g>
	<g>
		<polyline fill="none" stroke="#562F2F" stroke-miterlimit="10" points="877.457,246.652 877.457,202.931 849.623,202.931   "/>
		<g>
			<g>
				<g>
					<path fill="#562F2F" d="M833.216,203.222c0.358,6.659,10.61,5.893,10.949-0.41c0.364-6.749-10.608-6.17-10.953,0.238       c-0.053,0.978,2.139,0.569,2.182-0.238c0.106-1.967,1.354-3.892,3.582-3.529c1.709,0.278,2.729,1.886,2.986,3.461       c0.339,2.077-1.434,4.182-3.563,3.834c-1.899-0.31-2.916-2.191-3.01-3.939C835.347,201.844,833.167,202.315,833.216,203.222z"/>
				</g>
			</g>
			<g>
				<g>
					<path fill="#562F2F" d="M830.216,203.222c0.568,10.552,16.401,9.73,16.948-0.415c0.573-10.633-16.4-9.985-16.951,0.247       c-0.052,0.956,2.138,0.537,2.18-0.247c0.21-3.902,2.997-7.157,7.223-6.468c3.006,0.49,4.874,3.291,5.329,6.079       c0.677,4.151-3.137,7.765-7.185,7.105c-3.324-0.542-5.204-3.796-5.37-6.883C832.348,201.87,830.168,202.334,830.216,203.222z"/>
				</g>
			</g>
			<g>
				<g>
					<path fill="#562F2F" d="M828.847,202.832c0.166-2.593-2.252-3.449-4.187-5c-0.751-0.603-0.466,0.347-0.1-0.289       c0.391-0.677,0.781-1.353,1.172-2.029c0.643-1.114,1.286-2.229,1.929-3.343c-0.556,0.199-1.112,0.397-1.669,0.596       c1.581,0.615,5.147,3.023,6.845,1.894c1.624-1.081,2.456-0.872,2.716-2.566s0.521-3.389,0.78-5.084       c-0.496,0.278-0.991,0.557-1.487,0.836c2.068,0,4.137,0,6.205,0c0.607,0.063,0.583-0.019-0.073-0.246       c0.066,0.437,0.134,0.873,0.201,1.309c0.21,1.37,0.421,2.74,0.632,4.11c0.144,0.935,2.48,2.159,3.513,1.882       c1.965-0.526,3.886-1.505,5.78-2.243c-0.487-0.04-0.976-0.079-1.464-0.119c0.489,0.848,0.979,1.695,1.468,2.542       c0.437,0.756,0.873,1.513,1.311,2.269c0.654,1.133,0.145,0.786,0.755,0.296c-0.957,0.768-4.909,2.912-4.82,4.295       c0.237,3.694,1.242,3.67,4.257,6.089c0.751,0.603,0.466-0.347,0.1,0.289c-0.391,0.677-0.781,1.354-1.172,2.03       c-0.643,1.115-1.286,2.229-1.929,3.343c0.556-0.199,1.112-0.397,1.669-0.596c-1.58-0.615-5.148-3.024-6.845-1.895       c-1.624,1.082-2.456,0.871-2.716,2.566c-0.26,1.695-0.521,3.389-0.78,5.084c0.496-0.278,0.991-0.557,1.487-0.836       c-2.068,0-4.137,0-6.205,0c-0.607-0.063-0.583,0.019,0.073,0.246c-0.066-0.437-0.134-0.873-0.2-1.309       c-0.21-1.37-0.421-2.74-0.631-4.11c-0.144-0.935-2.482-2.159-3.515-1.882c-1.965,0.526-3.886,1.505-5.78,2.243       c0.487,0.04,0.976,0.079,1.464,0.119c-0.643-1.114-1.286-2.229-1.929-3.342c-0.391-0.677-0.781-1.353-1.172-2.03       c-0.421-0.73-0.885,0.63-0.008-0.073c2.046-1.642,4.49-2.501,4.315-5.237c-0.059-0.904-2.236-0.403-2.174,0.582       c0.104,1.622-2.687,3.073-4.135,4.235c-0.303,0.242-0.508,0.534-0.293,0.905c1.132,1.961,2.265,3.923,3.396,5.885       c0.267,0.462,1.096,0.262,1.464,0.119c0.765-0.297,1.529-0.595,2.293-0.893c0.594-0.231,1.187-0.462,1.78-0.693       c1.587-0.618,0.549-0.251,1.181,0.169c1.701,1.131,1.484,4.04,1.8,6.095c0.044,0.284,0.452,0.446,0.696,0.446       c2.266,0,4.531,0,6.797,0c0.529,0,1.388-0.187,1.487-0.836c0.237-1.545,0.15-5.082,1.409-5.719       c0.731-0.37,0.803-0.273,2.254,0.292c1.069,0.416,2.138,0.832,3.207,1.248c0.553,0.215,1.377-0.089,1.669-0.596       c1.133-1.962,2.265-3.924,3.396-5.886c0.158-0.273,0.035-0.513-0.185-0.689c-1.485-1.191-4.382-2.613-4.263-4.472       c0.12-1.888,2.398-3.041,4.125-4.426c0.303-0.242,0.508-0.534,0.293-0.905c-1.133-1.962-2.266-3.924-3.398-5.886       c-0.267-0.462-1.096-0.262-1.464-0.119c-0.765,0.297-1.529,0.595-2.293,0.893c-0.594,0.231-1.187,0.462-1.78,0.693       c-1.588,0.618-0.549,0.251-1.18-0.169c-1.7-1.132-1.485-4.041-1.801-6.095c-0.044-0.284-0.452-0.446-0.696-0.446       c-2.266,0-4.531,0-6.797,0c-0.529,0-1.388,0.187-1.487,0.836c-0.237,1.545-0.15,5.082-1.409,5.72       c-0.731,0.37-0.804,0.273-2.254-0.292c-1.069-0.416-2.138-0.832-3.207-1.248c-0.553-0.215-1.377,0.089-1.669,0.596       c-1.133,1.961-2.265,3.923-3.396,5.885c-0.158,0.273-0.035,0.513,0.185,0.689c1.483,1.19,4.384,2.615,4.265,4.472       C826.585,204.093,828.789,203.735,828.847,202.832z"/>
				</g>
			</g>
		</g>
	</g>
	<g>
		<g>
			
				<rect x="213.977" y="22.544" transform="matrix(0.7071 0.7071 -0.7071 0.7071 89.7743 -149.3265)" fill="#E5DFDF" width="22.31" height="22.31"/>
			<g>
				<path fill="#562F2F" d="M226.472,48.884c-5.245-5.246-10.49-10.491-15.735-15.736c0.414,0.414-0.566,1.217,0.403,0.249      c0.535-0.535,1.07-1.07,1.605-1.605c1.893-1.893,3.786-3.786,5.679-5.679c2.629-2.629,5.258-5.259,7.888-7.888      c-0.839,0.097-1.679,0.193-2.518,0.29c5.244,5.245,10.488,10.49,15.732,15.735c-0.414-0.414,0.566-1.217-0.403-0.249      c-0.535,0.536-1.07,1.071-1.605,1.606c-1.892,1.893-3.785,3.786-5.677,5.679c-2.629,2.629-5.257,5.259-7.886,7.888      c-1.235,1.235,1.605,1.354,2.357,0.603c5.257-5.259,10.515-10.518,15.772-15.776c0.218-0.218,0.435-0.618,0.161-0.892      c-5.258-5.258-10.515-10.517-15.772-15.775c-0.631-0.631-1.959-0.269-2.518,0.29c-5.258,5.259-10.517,10.517-15.775,15.775      c-0.218,0.218-0.434,0.618-0.161,0.892c5.259,5.259,10.517,10.518,15.775,15.776C224.581,50.854,227.331,49.744,226.472,48.884z      "/>
			</g>
		</g>
		<line fill="none" stroke="#562F2F" stroke-miterlimit="10" x1="225.131" y1="49.71" x2="225.131" y2="71.119"/>
	</g>
	<g>
		<polyline fill="none" stroke="#562F2F" stroke-miterlimit="10" points="476.653,298.107 476.653,254.386 504.486,254.386   "/>
		<g>
			<line fill="#E5DFDF" x1="476.653" y1="304.273" x2="476.653" y2="327.607"/>
			<g>
				<path fill="#562F2F" d="M475.204,304.661c0,7.778,0,15.556,0,23.335c0,0.453,2.897,0.042,2.897-0.777c0-7.778,0-15.556,0-23.334      C478.102,303.431,475.204,303.843,475.204,304.661L475.204,304.661z"/>
			</g>
		</g>
		<g>
			<circle fill="#E5DFDF" cx="476.653" cy="298.107" r="6.166"/>
			<g>
				<path fill="#562F2F" d="M481.568,298.107c-0.341,6.336-9.49,6.336-9.832,0C471.396,291.767,481.229,291.8,481.568,298.107      c0.086,1.604,2.587,1.612,2.5,0c-0.226-4.195-3.22-7.19-7.416-7.416c-4.187-0.226-7.208,3.561-7.416,7.416      c-0.226,4.187,3.561,7.208,7.416,7.416c4.187,0.226,7.208-3.561,7.416-7.416C484.155,296.495,481.654,296.503,481.568,298.107z"/>
			</g>
		</g>
		<g>
			<circle fill="none" stroke="#562F2F" stroke-width="2" stroke-miterlimit="10" cx="515.421" cy="254.386" r="4.386"/>
			<circle fill="none" stroke="#562F2F" stroke-width="2" stroke-miterlimit="10" cx="515.421" cy="254.386" r="7.386"/>
			<path fill="none" stroke="#562F2F" stroke-width="2" stroke-miterlimit="10" d="M526.359,254.386c0-0.434-0.031-0.859-0.082-1.28     l4.598-3.688l-3.396-5.885l-5.5,2.14c-0.682-0.51-1.42-0.949-2.213-1.29l-0.893-5.818h-6.797l-0.895,5.818     c-0.793,0.341-1.529,0.78-2.213,1.291l-5.498-2.141l-3.398,5.886l4.598,3.688c-0.049,0.421-0.082,0.847-0.082,1.28     c0,0.435,0.033,0.861,0.082,1.282l-4.596,3.687l3.396,5.886l5.5-2.141c0.682,0.511,1.42,0.95,2.213,1.29l0.893,5.818h6.797     l0.893-5.818c0.793-0.341,1.531-0.78,2.215-1.291l5.498,2.141l3.396-5.885l-4.598-3.688     C526.328,255.246,526.359,254.82,526.359,254.386z"/>
		</g>
	</g>
</g>
<g class="p1_chip1">		
	<rect x="357.226" y="159.49" transform="matrix(0.7071 0.7071 -0.7071 0.7071 223.4303 -208.3791)" fill="#E5DEDE" width="12.05" height="12.05"/>

	<path fill="#552F2E" d="M364.608,173.51c-2.829-2.829-5.658-5.657-8.486-8.486c0.239,0.239-0.233,0.61,0.229,0.149      c0.261-0.261,0.522-0.522,0.783-0.783c0.983-0.983,1.966-1.965,2.948-2.948c1.499-1.499,2.998-2.998,4.497-4.497      c-0.895,0.192-1.79,0.383-2.685,0.575c2.829,2.829,5.657,5.657,8.485,8.486c-0.239-0.239,0.233-0.61-0.229-0.149      c-0.261,0.261-0.522,0.522-0.783,0.783c-0.982,0.983-1.965,1.965-2.948,2.948c-1.499,1.499-2.998,2.998-4.497,4.497      c-0.729,0.729,2.104,0.452,2.655-0.1c2.84-2.84,5.68-5.68,8.52-8.521c0.142-0.142,0.176-0.329,0.029-0.475      c-2.84-2.84-5.68-5.68-8.52-8.521c-0.597-0.597-2.216,0.106-2.685,0.575c-2.84,2.84-5.68,5.68-8.521,8.521      c-0.142,0.142-0.176,0.329-0.029,0.475c2.84,2.84,5.681,5.68,8.521,8.521C362.502,175.167,365.205,174.108,364.608,173.51z"/>
</g>
<g class="p1_chip1">
			
	<rect x="258.164" y="188.615" transform="matrix(0.7071 0.7071 -0.7071 0.7071 215.01 -129.8008)" fill="#86F7CB" width="12.05" height="12.05"/>

	<path fill="#552F2E" d="M263.517,202.53c-2.84-2.84-5.68-5.68-8.521-8.521c-0.041,0.346-0.081,0.691-0.122,1.037      c2.84-2.84,5.68-5.68,8.521-8.521c-0.845,0.075-1.69,0.149-2.536,0.224c2.84,2.84,5.68,5.68,8.52,8.521      c0.041-0.346,0.081-0.691,0.122-1.037c-2.84,2.84-5.68,5.68-8.52,8.521c-1.279,1.279,1.529,1.698,2.414,0.813      c2.84-2.84,5.68-5.68,8.52-8.521c0.24-0.24,0.401-0.757,0.122-1.037c-2.84-2.84-5.68-5.68-8.52-8.521      c-0.705-0.705-1.89-0.422-2.536,0.224c-2.84,2.84-5.68,5.68-8.521,8.521c-0.24,0.24-0.401,0.757-0.122,1.037      c2.84,2.84,5.68,5.68,8.521,8.521C261.764,204.695,264.509,203.521,263.517,202.53z"/>
			
</g>
<g class="p1_chip1">		
	<rect x="240.016" y="517.398" transform="matrix(0.7071 0.7071 -0.7071 0.7071 439.6903 -19.6392)" fill="#E5DEDE" width="7.071" height="7.071"/>

	<path fill="#552F2E" d="M244.885,525.32c-1.667-1.666-3.333-3.333-5-5c-0.046,0.324-0.092,0.649-0.138,0.974      c1.667-1.667,3.333-3.333,5-5c-0.843,0.084-1.686,0.169-2.528,0.253c1.666,1.666,3.333,3.333,4.999,5      c0.046-0.324,0.092-0.649,0.138-0.974c-1.666,1.667-3.333,3.333-4.999,5c-1.262,1.262,1.563,1.548,2.39,0.721      c1.666-1.667,3.333-3.333,4.999-5c0.23-0.23,0.416-0.696,0.138-0.974c-1.666-1.666-3.333-3.333-4.999-5      c-0.673-0.673-1.92-0.354-2.528,0.253c-1.667,1.667-3.333,3.333-5,5c-0.23,0.23-0.416,0.696-0.138,0.974      c1.667,1.666,3.333,3.333,5,5C243.071,527.399,245.821,526.257,244.885,525.32z"/>
</g>
<g class="p1_chip1">		
	<rect x="149.035" y="386.517" transform="matrix(0.7071 0.7071 -0.7071 0.7071 324.0019 4.9074)" fill="#E5DEDE" width="14.084" height="14.084"/>

	<path fill="#552F2E" d="M157.184,402.643c-3.32-3.32-6.639-6.64-9.959-9.959c0.04,0.452,0.081,0.904,0.121,1.357      c3.32-3.32,6.64-6.64,9.959-9.959c-0.778,0.131-1.556,0.262-2.333,0.393c3.319,3.32,6.638,6.64,9.957,9.959      c-0.04-0.452-0.081-0.904-0.121-1.357c-3.319,3.32-6.638,6.64-9.957,9.959c-1.302,1.303,1.474,1.945,2.454,0.965      c3.319-3.32,6.638-6.64,9.957-9.959c0.429-0.429,0.244-0.992-0.121-1.357c-3.319-3.32-6.638-6.64-9.957-9.959      c-0.647-0.647-1.821-0.12-2.333,0.393c-3.32,3.32-6.64,6.64-9.959,9.959c-0.429,0.429-0.244,0.992,0.121,1.357      c3.32,3.32,6.639,6.64,9.959,9.959C155.955,405.377,158.412,403.87,157.184,402.643z"/>

</g>
<g class="p1_chip1">			
	<rect x="175.526" y="288.979" transform="matrix(0.7071 0.7071 -0.7071 0.7071 259.285 -40.9401)" fill="#E5DEDE" width="7.071" height="7.071"/>

	<path fill="#552F2E" d="M180.43,297.035c-1.66-1.66-3.32-3.32-4.98-4.98c0.146,0.146-0.221,0.462,0.088,0.154      c0.153-0.153,0.306-0.306,0.459-0.459c0.577-0.577,1.153-1.153,1.73-1.73c0.879-0.88,1.759-1.759,2.639-2.639      c-0.891,0.205-1.782,0.41-2.673,0.615c1.66,1.66,3.319,3.32,4.979,4.98c-0.146-0.146,0.221-0.462-0.087-0.154c-0.153,0.153-0.307,0.306-0.459,0.459c-0.577,0.577-1.153,1.153-1.73,1.73c-0.879,0.88-1.759,1.759-2.638,2.639      c-0.56,0.56,2.142,0.198,2.609-0.27c1.667-1.667,3.333-3.333,4.999-5c0.126-0.126,0.204-0.206,0.064-0.345      c-1.666-1.667-3.333-3.333-4.999-5c-0.46-0.46-2.303,0.244-2.673,0.615c-1.667,1.667-3.333,3.333-5,5      c-0.126,0.126-0.204,0.206-0.064,0.345c1.667,1.667,3.333,3.333,5,5C178.195,298.497,180.81,297.414,180.43,297.035z"/> 
</g>
<g class="p1_chip1">
		
	<rect x="457.214" y="283.419" transform="matrix(0.7071 0.7071 -0.7071 0.7071 337.8577 -241.7525)" fill="#E5DFDF" width="7.071" height="7.071"/>
	<path fill="#562F2F" d="M462.116,291.464c-1.66-1.66-3.32-3.32-4.98-4.98c0.166,0.166-0.219,0.497,0.095,0.183     c0.153-0.153,0.306-0.306,0.459-0.459c0.577-0.577,1.153-1.153,1.73-1.73c0.88-0.88,1.759-1.759,2.639-2.639     c-0.892,0.202-1.784,0.403-2.676,0.605c1.66,1.66,3.319,3.32,4.979,4.98c-0.166-0.166,0.219-0.497-0.095-0.183     c-0.153,0.153-0.306,0.306-0.459,0.459c-0.577,0.577-1.153,1.153-1.73,1.73c-0.879,0.88-1.759,1.759-2.638,2.639     c-0.601,0.601,2.136,0.253,2.62-0.23c1.666-1.667,3.333-3.333,4.999-5c0.129-0.13,0.198-0.233,0.056-0.375     c-1.667-1.667-3.333-3.333-4.999-5c-0.492-0.491-2.284,0.213-2.676,0.605c-1.667,1.667-3.333,3.333-5,5     c-0.129,0.13-0.198,0.233-0.056,0.375c1.667,1.667,3.333,3.333,5,5C459.908,292.969,462.547,291.896,462.116,291.464z"/>
		
</g>
<g class="p1_chip1">
	
		
			<rect x="565.243" y="181.96" transform="matrix(0.7071 0.7071 -0.7071 0.7071 297.7562 -347.8568)" fill="#E5DFDF" width="7.071" height="7.071"/>
		
			<path fill="#562F2F" d="M570.141,189.989c-1.66-1.66-3.32-3.32-4.98-4.98c0.197,0.197-0.215,0.552,0.107,0.229     c0.153-0.153,0.307-0.306,0.46-0.459c0.576-0.577,1.153-1.153,1.729-1.73c0.88-0.879,1.76-1.759,2.64-2.639     c-0.894,0.197-1.787,0.394-2.681,0.591c1.66,1.66,3.319,3.32,4.979,4.98c-0.197-0.197,0.215-0.552-0.107-0.229     c-0.153,0.153-0.307,0.306-0.46,0.459c-0.576,0.577-1.153,1.153-1.729,1.73c-0.88,0.879-1.759,1.759-2.639,2.639     c-0.661,0.662,2.123,0.343,2.637-0.171c1.666-1.667,3.332-3.333,4.999-5c0.135-0.135,0.188-0.276,0.044-0.42     c-1.667-1.667-3.333-3.333-4.999-5c-0.541-0.541-2.253,0.164-2.681,0.591c-1.666,1.667-3.333,3.333-5,5     c-0.135,0.135-0.188,0.276-0.044,0.42c1.667,1.667,3.334,3.333,5,5C567.978,191.562,570.65,190.499,570.141,189.989z"/>
	
</g>





</svg>
