<?xml version="1.0" encoding="utf-8"?>
<!-- Generator: Adobe Illustrator 16.0.0, SVG Export Plug-In . SVG Version: 6.00 Build 0)  -->
<!DOCTYPE svg PUBLIC "-//W3C//DTD SVG 1.1//EN" "http://www.w3.org/Graphics/SVG/1.1/DTD/svg11.dtd">
<svg version="1.1" id="图层_1" xmlns="http://www.w3.org/2000/svg" xmlns:xlink="http://www.w3.org/1999/xlink" x="0px" y="0px"
	 width="960px" height="640px" viewBox="0 0 960 640" enable-background="new 0 0 960 640" xml:space="preserve">
<g class="p2_txt">
	<image xmlns="http://www.w3.org/2000/svg" overflow="visible" width="323" height="105" xmlns:xlink="http://www.w3.org/1999/xlink" xlink:href="./images/19949697.png" transform="matrix(1 0 0 1 569.6172 85.0659)">
	</image>

</g>
<g opacity="0.2" class="p2_bg">
	<g>
		<rect x="107.118" y="146.96" fill="#E5DEDE" width="144.218" height="219.097"/>
		<g>
			<path fill="#552F2E" d="M251.573,365.918c-47.234,0-94.467,0-141.701,0c-1.102,0-2.392,0.448-2.392-0.441
			c0-2.018,0-4.035,0-6.053c0-9.673,0-19.346,0-29.019c0-31.127,0-62.254,0-93.382c0-26.328,0-52.657,0-78.985
			c0-2.949,0-5.897,0-8.845c0-0.649,0-1.299,0-1.948c0-0.682-0.889-0.146-0.275-0.146c7.844,0,15.688,0,23.532,0
			c30.86,0,61.72,0,92.58,0c8.902,0,17.805,0,26.707,0c1.298,0,0.949-0.065,0.949,1.283c0,2.535,0,5.069,0,7.604
			c0,56.915,0,113.829,0,170.743c0,13.142,0,26.283,0,39.425c0,0.098,0.725,0,0.725-0.193c0-48.153,0-96.307,0-144.46
			c0-24.879,0-49.758,0-74.637c0-0.042-0.108-0.042-0.125-0.042c-47.234,0-94.467,0-141.701,0c-0.839,0-1.678,0-2.517,0
			c-0.117,0-0.6,0.062-0.6,0.236c0,48.153,0,96.306,0,144.459c0,24.879,0,49.758,0,74.637c0,0.042,0.108,0.042,0.125,0.042
			c47.234,0,94.467,0,141.701,0c0.839,0,1.678,0,2.517,0C251.239,366.195,251.919,365.918,251.573,365.918z"/>
		</g>
	</g>
	<g>
		<rect x="132.332" y="125.286" fill="#E5DEDE" width="97.725" height="240.771"/>
		<g>
			<path fill="#552F2E" d="M230.087,365.786c-24.714,0-49.429,0-74.143,0c-5.89,0-11.78,0-17.67,0c-1.539,0-3.078,0-4.616,0
			c-1.116,0-0.959-0.067-0.959,0.157c0-4.796,0-9.592,0-14.388c0-58.264,0-116.527,0-174.792c0-17.052,0-34.104,0-51.157
			c0-0.62-0.609-0.051-0.066-0.051c1.235,0,2.47,0,3.706,0c5.385,0,10.771,0,16.157,0c15.886,0,31.771,0,47.657,0
			c9.887,0,19.773,0,29.66,0c0.158,0-0.123-0.466-0.123,0.195c0,0.707,0,1.414,0,2.121c0,2.854,0,5.708,0,8.563
			c0,25.247,0,50.494,0,75.741c0,50.9,0,101.801,0,152.701c0,0.402,0,0.804,0,1.206c0,0.386,0.734,0.28,0.734-0.053
			c0-46.424,0-92.848,0-139.271c0-33.833,0-67.667,0-101.5c0-0.191-0.174-0.244-0.336-0.244c-32.575,0-65.15,0-97.725,0
			c-0.145,0-0.398,0.123-0.398,0.296c0,46.424,0,92.848,0,139.271c0,33.833,0,67.667,0,101.5c0,0.19,0.174,0.244,0.336,0.244
			c32.575,0,65.15,0,97.725,0C230.443,366.327,230.578,365.786,230.087,365.786z"/>
		</g>
	</g>
	<g>
		<rect x="52.565" y="239.491" fill="#97C2B8" width="52.553" height="18.914"/>
	</g>
	<g opacity="0.5">
		<rect x="54.559" y="479.025" fill="#E5DEDE" width="129.255" height="161.976"/>
		<g>
			<path fill="#552F2E" d="M183.962,640.822c-22.542,0-45.083,0-67.625,0c-14.9,0-29.8,0-44.7,0c-4.484,0-8.969,0-13.454,0
			c-0.995,0-1.989,0-2.984,0c-0.632,0-0.278,0.211-0.278-0.313c0-50.656,0-101.313,0-151.969c0-2.882,0-5.764,0-8.646
			c0-1.028,0.184-0.689-0.47-0.689c0.719,0,1.439,0,2.158,0c10.536,0,21.072,0,31.608,0c29.216,0,58.431,0,87.646,0
			c2.546,0,5.093,0,7.639,0c-0.092,0-0.052,2.894-0.052,3.661c0,10.163,0,20.327,0,30.49c0,31.447,0,62.894,0,94.34
			c0,11.134,0,22.269,0,33.402c0,0.179,0.725,0.056,0.725-0.193c0-49.519,0-99.037,0-148.555c0-4.474,0-8.947,0-13.421
			c0-0.08-0.171-0.082-0.214-0.082c-43.085,0-86.17,0-129.255,0c-0.148,0-0.51,0.077-0.51,0.275c0,49.519,0,99.037,0,148.556
			c0,4.473,0,8.946,0,13.42c0,0.08,0.171,0.082,0.214,0.082c43.085,0,86.17,0,129.255,0
			C183.901,641.18,184.449,640.822,183.962,640.822z"/>
		</g>
	</g>
	<g opacity="0.9">
		<rect x="153.076" y="366.063" fill="#AAD8C7" width="76.98" height="274.938"/>
		<g>
			<path fill="#552E2E" d="M230.524,640.698c-24.33,0-48.661,0-72.991,0c-1.241,0-2.481,0-3.721,0c-0.229,0-0.012,0.208-0.012-0.367
			c0-1.704,0-3.409,0-5.113c0-8.185,0-16.37,0-24.555c0-60.646,0-121.291,0-181.937c0-20.952,0-41.904,0-62.857
			c-0.397,0.166-0.795,0.332-1.192,0.497c24.33,0,48.661,0,72.991,0c1.241,0,2.481,0,3.721,0c0.229,0,0.012-0.208,0.012,0.367
			c0,1.704,0,3.409,0,5.113c0,8.185,0,16.37,0,24.555c0,60.646,0,121.291,0,181.937c0,20.952,0,41.904,0,62.857
			c0,0.253,1.449,0.039,1.449-0.389c0-43.66,0-87.32,0-130.98c0-47.719,0-95.438,0-143.156c0-0.268,0-0.534,0-0.801
			c0-0.091-0.211-0.108-0.257-0.108c-25.66,0-51.32,0-76.98,0c-0.265,0-1.192,0.102-1.192,0.497c0,43.66,0,87.32,0,130.98
			c0,47.719,0,95.438,0,143.156c0,0.268,0,0.534,0,0.801c0,0.091,0.211,0.108,0.257,0.108c25.66,0,51.32,0,76.98,0
			C229.9,641.304,231.243,640.698,230.524,640.698z"/>
		</g>
	</g>
	<g opacity="0.8">
		<rect x="369.814" y="348.725" fill="#F8D1D2" width="148.175" height="292.276"/>
		<g>
			<path fill="#552E2E" d="M518.131,640.798c-47.924,0-95.848,0-143.772,0c-0.854,0-4.183-0.073-4.183,0.065c0-1.125,0-2.25,0-3.375
			c0-6.995,0-13.99,0-20.986c0-26.929,0-53.856,0-80.785c0-57.243,0-114.485,0-171.728c0-4.94,0-9.881,0-14.82
			c0-0.792,0.106-0.241-0.468-0.241c0.628,0,1.257,0,1.886,0c3.557,0,7.114,0,10.671,0c29.761,0,59.521,0,89.283,0
			c12.508,0,25.017,0,37.526,0c2.739,0,5.478,0,8.216,0c0.668,0,0.338,0.18,0.338,1.328c0,16.854,0,33.709,0,50.564
			c0,61.968,0,123.937,0,185.905c0,18.124,0,36.248,0,54.372c0,0.222,0.725,0.085,0.725-0.193c0-42.239,0-84.478,0-126.716
			c0-53.017,0-106.034,0-159.051c0-2.17,0-4.34,0-6.51c0-0.087-0.167-0.106-0.221-0.106c-47.924,0-95.848,0-143.772,0
			c-1.468,0-2.936,0-4.403,0c-0.174,0-0.504,0.078-0.504,0.3c0,42.239,0,84.478,0,126.716c0,53.017,0,106.034,0,159.051
			c0,2.17,0,4.34,0,6.51c0,0.087,0.167,0.106,0.221,0.106c47.924,0,95.848,0,143.772,0c1.468,0,2.936,0,4.403,0
			C518.115,641.204,518.62,640.798,518.131,640.798z"/>
		</g>
	</g>
	<g>

		<path fill="#552F2E" d="M90.979,508.574c18.214,0,36.427,0,54.641,0c5.031,0,6.617-6.537,0.726-6.537
			c-18.214,0-36.427,0-54.641,0C86.674,502.037,85.088,508.574,90.979,508.574L90.979,508.574z"/>

	</g>
	<g>

		<path fill="#552F2E" d="M79.735,129.443c0,26.179,0,52.358,0,78.537c0,1.197,2.209,0.914,2.209-0.137c0-26.179,0-52.358,0-78.537
			C81.944,128.11,79.735,128.393,79.735,129.443L79.735,129.443z"/>

	</g>
	<g>

		<path fill="#FFFFFF" d="M390.205,378.301c35.027,0,70.055,0,105.083,0c2.759,0,5.817-0.783,8.196-2.196
			c1.855-1.103,1.583-2.306-0.618-2.306c-35.027,0-70.055,0-105.083,0c-2.759,0-5.818,0.783-8.196,2.196
			C387.731,377.098,388.004,378.301,390.205,378.301L390.205,378.301z"/>

	</g>
	<g>

		<path fill="#FFFFFF" d="M391.56,397.926c35.027,0,70.055,0,105.082,0c2.49,0,5.976-1.009,7.726-2.886
			c1.875-2.011-1.627-2.345-2.856-2.345c-35.028,0-70.055,0-105.083,0c-2.49,0-5.975,1.009-7.725,2.886
			C386.828,397.592,390.33,397.926,391.56,397.926L391.56,397.926z"/>

	</g>
	<g>

		<path fill="#FFFFFF" d="M450.738,418.435c15.412,0,30.824,0,46.236,0c2.751,0,6.138-0.747,7.588-3.401
			c1.296-2.376-1.106-4.315-3.385-4.315c-15.413,0-30.825,0-46.237,0c-2.75,0-6.138,0.747-7.587,3.401
			C446.057,416.495,448.46,418.435,450.738,418.435L450.738,418.435z"/>

	</g>
	<g>

		<path fill="#FFFFFF" d="M450.625,437.277c15.412,0,30.825,0,46.237,0c2.65,0,6.087-0.832,7.635-3.226
			c1.483-2.296-1.247-3.644-3.205-3.644c-15.412,0-30.825,0-46.237,0c-2.65,0-6.087,0.832-7.634,3.226
			C445.936,435.93,448.667,437.277,450.625,437.277L450.625,437.277z"/>

	</g>
	<g>

		<path fill="#552F2E" d="M89.694,536.037c18.213,0,36.427,0,54.641,0c1.998,0,4.571-0.615,5.72-2.439
			c1.092-1.732-0.917-2.807-2.423-2.807c-18.213,0-36.427,0-54.641,0c-1.998,0-4.571,0.615-5.72,2.439
			C86.179,534.963,88.188,536.037,89.694,536.037L89.694,536.037z"/>

	</g>
	<g>

		<path fill="#552F2E" d="M89.587,563.748c18.213,0,36.427,0,54.641,0c1.914,0,4.52-0.698,5.765-2.273
			c1.28-1.62-1.086-2.178-2.255-2.178c-18.213,0-36.427,0-54.641,0c-1.914,0-4.52,0.698-5.765,2.273
			C86.053,563.19,88.419,563.748,89.587,563.748L89.587,563.748z"/>

	</g>
	<g>
		<g>
			<path fill="#552F2E" d="M90.968,592.862c18.213,0,36.427,0,54.641,0c5,0,6.644-6.449,0.749-6.449c-18.213,0-36.427,0-54.641,0
			C86.717,586.413,85.073,592.862,90.968,592.862L90.968,592.862z"/>
		</g>
	</g>
	<g>
		<g>
			<path fill="#552F2E" d="M89.76,620.623c18.214,0,36.427,0,54.641,0c2.058,0,4.601-0.565,5.693-2.543
			c0.982-1.778-0.836-3.201-2.529-3.201c-18.214,0-36.427,0-54.641,0c-2.058,0-4.601,0.565-5.693,2.543
			C86.25,619.2,88.067,620.623,89.76,620.623L89.76,620.623z"/>
		</g>
	</g>
	<g>
		<rect x="-0.082" y="348.725" fill="#E5DEDE" width="74.609" height="291.968"/>
		<g>
			<path fill="#552F2E" d="M74.677,640.52c-24.074,0-48.149,0-72.223,0c-1.774,0-2.173,0.623-2.173-0.8c0-1.886,0-3.771,0-5.656
			c0-8.245,0-16.489,0-24.734c0-60.775,0-121.551,0-182.326c0-22.743,0-45.487,0-68.23c0-2.537,0-5.074,0-7.611
			c0-1.329,0.337-2.264-0.441-2.264c11.082,0,22.163,0,33.244,0c13.206,0,26.411,0,39.617,0c1.691,0,1.465-0.443,1.465,1.064
			c0,2.019,0,4.037,0,6.056c0,21.365,0,42.729,0,64.095c0,61.354,0,122.707,0,184.061c0,12.206,0,24.411,0,36.616
			c0,0.169,0.725,0.049,0.725-0.193c0-42.345,0-84.689,0-127.034c0-52.907,0-105.814,0-158.723c0-2.07,0-4.141,0-6.211
			c0-0.078-0.172-0.076-0.213-0.076c-24.87,0-49.739,0-74.609,0c-0.143,0-0.512,0.077-0.512,0.27c0,42.345,0,84.689,0,127.034
			c0,52.907,0,105.814,0,158.723c0,2.07,0,4.141,0,6.211c0,0.078,0.172,0.076,0.213,0.076c24.87,0,49.739,0,74.609,0
			C74.606,640.865,75.164,640.52,74.677,640.52z"/>
		</g>
	</g>
	<g>
		<rect x="29.351" y="258.714" fill="#7EC2EB" width="102.98" height="382.287"/>
	</g>
	<g>
		<g>
			<path fill="#552E2E" d="M130.624,640.629c-24.428,0-48.856,0-73.284,0c-9.794,0-19.588,0-29.382,0
			c-0.582,0,0.118,0.396,0.118-0.044c0-0.427,0-0.854,0-1.282c0-1.832,0-3.665,0-5.497c0-47.97,0-95.938,0-143.908
			c0-61.008,0-122.017,0-183.025c0-15.784,0-31.568,0-47.353c-0.339,0.189-0.678,0.377-1.017,0.566c24.428,0,48.856,0,73.284,0
			c9.794,0,19.588,0,29.382,0c0.582,0-0.118-0.396-0.118,0.044c0,0.427,0,0.854,0,1.282c0,1.832,0,3.665,0,5.497
			c0,47.969,0,95.938,0,143.908c0,61.008,0,122.017,0,183.024c0,15.785,0,31.569,0,47.354c0,0.383,1.449,0.128,1.449-0.389
			c0-35.748,0-71.497,0-107.245c0-63.783,0-127.565,0-191.348c0-27.564,0-55.129,0-82.694c0-0.164-0.34-0.178-0.432-0.178
			c-34.327,0-68.654,0-102.98,0c-0.313,0-1.017,0.154-1.017,0.566c0,35.749,0,71.497,0,107.245c0,63.783,0,127.565,0,191.348
			c0,27.564,0,55.13,0,82.694c0,0.163,0.34,0.178,0.432,0.178c34.327,0,68.654,0,102.98,0
			C130.529,641.373,131.6,640.629,130.624,640.629z"/>
		</g>
	</g>
	<g opacity="0.8">
		<rect x="52.559" y="281.574" fill="#FFFFFF" width="52.552" height="138.712"/>
	</g>
	<g>
		<rect x="153.076" y="76.817" fill="#ECF3FA" width="52.554" height="289.246"/>
		<g>
			<path fill="#552F2E" d="M205.721,365.967c-12.169,0-24.338,0-36.508,0c-5.218,0-10.437,0-15.656,0
			c-0.521,0-0.265-1.325-0.265-2.116c0-17.854,0-35.71,0-53.564c0-61.894,0-123.787,0-185.68c0-15.732,0-31.464,0-47.196
			c0-0.611,0.136-0.496-0.284-0.496c1.447,0,2.894,0,4.341,0c7.137,0,14.274,0,21.412,0c7.27,0,14.541,0,21.811,0
			c1.254,0,4.839-0.698,4.839,0.51c0,46.026,0,92.052,0,138.078c0,49.423,0,98.846,0,148.269c0,0.784,0,1.567,0,2.352
			c0,0.088,0.435,0.02,0.435-0.117c0-42.554,0-85.108,0-127.663c0-52.179,0-104.357,0-156.536c0-1.683,0-3.365,0-5.047
			c0-0.044-0.104-0.039-0.125-0.039c-17.518,0-35.036,0-52.554,0c-0.078,0-0.309,0.046-0.309,0.155c0,42.554,0,85.109,0,127.663
			c0,52.179,0,104.357,0,156.536c0,1.683,0,3.365,0,5.048c0,0.044,0.104,0.038,0.125,0.038c17.518,0,35.036,0,52.554,0
			C205.666,366.16,206.011,365.967,205.721,365.967z"/>
		</g>
	</g>
	<g>
		<g>
			<path fill="#552F2E" d="M107.263,259.217c-12.169,0-24.338,0-36.507,0c-5.219,0-10.437,0-15.655,0
			c-0.378,0-0.174-14.101-0.174-16.049c0-0.902,0-1.805,0-2.708c0,0.308-0.81,0.22,0.355,0.22c2.265,0,4.529,0,6.794,0
			c7.697,0,15.394,0,23.09,0c6.498,0,12.995,0,19.493,0c1.298,0,2.096-0.384,2.096,0.474c0,3.451,0,6.902,0,10.354
			c0,2.665,0,5.33,0,7.995c0,0.196,0.725,0.067,0.725-0.194c0-6.305,0-12.609,0-18.914c0-0.083-0.169-0.091-0.217-0.091
			c-17.518,0-35.035,0-52.553,0c-0.159,0-0.508,0.077-0.508,0.286c0,6.305,0,12.609,0,18.914c0,0.083,0.169,0.091,0.217,0.091
			c17.518,0,35.035,0,52.553,0C107.221,259.594,107.751,259.217,107.263,259.217z"/>
		</g>
	</g>
	<g>
		<rect x="64.393" y="206.912" fill="#95CFB7" width="28.896" height="32.579"/>
	</g>
	<g opacity="0.8">
		<rect x="52.559" y="433.948" fill="#FFFFFF" width="52.552" height="138.714"/>
	</g>
	<g>
		<rect x="269.992" y="235.232" fill="#ECF3FA" width="80.92" height="69.356"/>
		<g>
			<path fill="#552F2E" d="M350.993,304.453c-24.658,0-49.316,0-73.975,0c-1.066,0-6.808,0.227-6.808-0.182
			c0-4.218,0-8.437,0-12.655c0-15.252,0-30.503,0-45.755c0-3.544,0-7.089,0-10.633c0,0.3,7.271,0.14,8.502,0.14
			c15.114,0,30.229,0,45.343,0c6.61,0,13.221,0,19.831,0c1.066,0,6.808-0.227,6.808,0.182c0,11.957,0,23.913,0,35.87
			c0,11.064,0,22.128,0,33.192c0,0.2,0.437,0.114,0.437-0.047c0-23.119,0-46.238,0-69.356c0-0.076-0.064-0.112-0.137-0.112
			c-26.973,0-53.946,0-80.92,0c-0.082,0-0.299,0.039-0.299,0.159c0,23.119,0,46.238,0,69.356c0,0.076,0.064,0.112,0.137,0.112
			c26.973,0,53.946,0,80.92,0C351.009,304.725,351.287,304.453,350.993,304.453z"/>
		</g>
	</g>
	<g>
		<polygon fill="#ECF3FA" points="350.912,235.232 269.992,235.232 311.992,195.826 		"/>
		<g>
			<path fill="#552F2E" d="M350.999,235.118c-24.658,0-49.317,0-73.975,0c-1.801,0-3.602,0-5.403,0c-0.758,0-1.655,0.33-1.198-0.099
			c3.543-3.325,7.087-6.649,10.631-9.974c10.037-9.417,20.074-18.834,30.111-28.251c0.907-0.852,0.622-0.889,0.881-0.625
			c1.008,1.021,2.016,2.041,3.024,3.062c4.469,4.525,8.939,9.051,13.408,13.576c7.411,7.503,14.821,15.006,22.231,22.509
			c0.1,0.101,0.51-0.059,0.405-0.165c-12.974-13.135-25.947-26.271-38.92-39.406c-0.083-0.084-0.303-0.014-0.375,0.054
			c-14,13.135-28,26.271-42,39.406c-0.09,0.084-0.016,0.144,0.085,0.144c26.973,0,53.947,0,80.92,0
			C350.976,235.347,351.292,235.118,350.999,235.118z"/>
		</g>
	</g>
	<g>
		<rect x="230.056" y="304.589" fill="#ECF3FA" width="163.938" height="336.412"/>
		<g>
			<path fill="#552F2E" d="M394.133,640.907c-49.628,0-99.256,0-148.885,0c-1.082,0-14.975,0.071-14.975-0.063
			c0-3.668,0-7.336,0-11.004c0-21.507,0-43.014,0-64.521c0-63.126,0-126.253,0-189.38c0-20.724,0-41.446,0-62.169
			c0-1.138,0.406-9.088-0.349-9.088c6.069,0,12.139,0,18.208,0c12.239,0,145.643-0.106,145.643,0.106c0,40.708,0,81.417,0,122.125
			c0,60.143,0,120.285,0,180.428c0,11.239,0,22.479,0,33.718c0,0.082,0.435,0.016,0.435-0.117c0-38.834,0-77.667,0-116.501
			c0-60.776,0-121.553,0-182.328c0-12.527,0-25.055,0-37.583c0-0.028-0.063-0.036-0.078-0.036c-49.628,0-99.256,0-148.885,0
			c-5.018,0-10.035,0-15.053,0c-0.083,0-0.357,0.028-0.357,0.152c0,38.834,0,77.667,0,116.501c0,60.776,0,121.553,0,182.328
			c0,12.527,0,25.055,0,37.583c0,0.027,0.063,0.035,0.078,0.035c49.628,0,99.256,0,148.885,0c5.018,0,10.035,0,15.053,0
			C393.951,641.095,394.352,640.907,394.133,640.907z"/>
		</g>
	</g>
	<g>
		<g>
			<path fill="#552F2E" d="M107.143,422.021c-12.168,0-24.337,0-36.506,0c-5.219,0-10.437,0-15.655,0
			c-0.362,0-0.055,0.418-0.055-0.511c0-1.18,0-2.359,0-3.538c0-27.442,0-54.886,0-82.328c0-13.531,0-27.063,0-40.594
			c0-3.395,0-6.789,0-10.184c0-1.06,0.225-1.026-0.374-1.026c1.447,0,2.894,0,4.341,0c14.407,0,28.814,0,43.221,0
			c1.581,0,3.162,0,4.743,0c-0.089,0-0.114-0.158-0.114,0.874c0,3.272,0,6.544,0,9.816c0,42.595,0,85.188,0,127.783
			c0,0.382,0.734,0.272,0.734-0.055c0-45.987,0-91.975,0-137.962c0-0.25,0-0.5,0-0.75c0-0.19-0.175-0.239-0.335-0.239
			c-17.517,0-35.034,0-52.552,0c-0.142,0-0.399,0.122-0.399,0.293c0,45.987,0,91.975,0,137.963c0,0.249,0,0.499,0,0.749
			c0,0.19,0.175,0.238,0.335,0.238c17.517,0,35.034,0,52.552,0C107.494,422.552,107.634,422.021,107.143,422.021z"/>
		</g>
	</g>
	<g>
		<g>
			<path fill="#552F2E" d="M107.254,574.466c-12.169,0-24.337,0-36.506,0c-5.218,0-10.437,0-15.655,0
			c-0.385,0-0.172-3.086-0.172-4.188c0-27.442,0-54.886,0-82.328c0-13.532,0-27.063,0-40.595c0-3.395,0-6.789,0-10.184
			c0-1.139,0.257-1.026-0.481-1.026c1.447,0,2.895,0,4.341,0c14.407,0,28.814,0,43.221,0c1.581,0,3.162,0,4.743,0
			c0.063,0,0.003,0.305,0.003,1.013c0,3.272,0,6.545,0,9.817c0,42.595,0,85.189,0,127.784c0,0.209,0.725,0.077,0.725-0.193
			c0-45.988,0-91.977,0-137.965c0-0.25,0-0.5,0-0.749c0-0.085-0.168-0.1-0.219-0.1c-17.518,0-35.035,0-52.552,0
			c-0.167,0-0.506,0.078-0.506,0.293c0,45.988,0,91.977,0,137.965c0,0.25,0,0.5,0,0.749c0,0.085,0.168,0.1,0.219,0.1
			c17.518,0,35.035,0,52.552,0C107.226,574.858,107.743,574.466,107.254,574.466z"/>
		</g>
	</g>
	<g>
		<g>
			<path fill="#552F2E" d="M95.326,240.243c-4.816,0-9.632,0-14.448,0c-3.311,0-6.622,0-9.933,0c-1.16,0-2.32,0-3.48,0
			c-0.974,0-0.706,0.021-0.706,0.058c0-10.793,0-21.587,0-32.381c0,0.371-0.418,0.241,0.632,0.241c1.16,0,2.32,0,3.48,0
			c3.639,0,7.278,0,10.917,0c3.222,0,6.443,0,9.665,0c1.042,0,2.084,0,3.126,0c0.862,0,0.344-0.298,0.344,0.135
			c0,10.742,0,21.485,0,32.228c0,0.362,0.731,0.238,0.731-0.064c0-10.859,0-21.719,0-32.579c0-0.186-0.177-0.216-0.329-0.216
			c-9.632,0-19.264,0-28.896,0c-0.132,0-0.402,0.116-0.402,0.281c0,10.859,0,21.719,0,32.579c0,0.186,0.177,0.216,0.329,0.216
			c9.632,0,19.264,0,28.896,0C95.655,240.74,95.819,240.243,95.326,240.243z"/>
		</g>
	</g>
</g>
<g class="p2_building">
	<g>
		<g>
			<g>
				
					<line fill="none" stroke="#FFFFFF" stroke-width="0.75" stroke-miterlimit="10" x1="1063.955" y1="629.506" x2="1059.002" y2="628.823"/>
				
					<polyline fill="none" stroke="#FFFFFF" stroke-width="0.75" stroke-miterlimit="10" stroke-dasharray="10.0031,10.0031" points="      1049.093,627.457 310.451,525.621 53.604,630.387 -38.725,630.387     "/>
				<polyline fill="none" stroke="#FFFFFF" stroke-width="0.75" stroke-miterlimit="10" points="-43.727,630.387 -48.727,630.387       -48.727,625.387     "/>
				
					<line fill="none" stroke="#FFFFFF" stroke-width="0.75" stroke-miterlimit="10" x1="-48.727" y1="621.408" x2="-48.727" y2="616.408"/>
			</g>
		</g>
	</g>
	<g>
		<g opacity="0.5">
			<path fill="#86F7CB" d="M546.631,440.691c0,0-14.764,66.76-14.764,68.902c0,8.154,6.609,14.764,14.764,14.764     c8.15,0,14.76-6.609,14.76-14.764C561.391,507.451,546.631,440.691,546.631,440.691z"/>
		</g>
		<g>
			<g>
				<path fill="#562F2F" d="M542.415,439.798c-2.37,10.719-4.723,21.441-7.06,32.168c-2.628,12.058-5.813,24.177-7.668,36.387      c-1.156,7.615,6.61,14.98,13.808,15.304c8.605,0.386,15.881-5.127,17.06-13.825c0.476-3.516-1.108-7.689-1.814-11.07      c-1.547-7.395-3.147-14.777-4.75-22.16c-2.686-12.373-5.398-24.74-8.131-37.104c-0.094-0.422-1.548-0.058-1.449,0.389      c2.37,10.719,4.721,21.441,7.058,32.167c2.627,12.058,5.812,24.178,7.665,36.387c0.958,6.307-4.655,12.312-10.155,14.089      c-8.222,2.656-15.911-3.867-17.645-11.475c-0.921-4.045,0.969-9.018,1.789-12.928c3.192-15.22,6.543-30.408,9.881-45.597      c0.948-4.315,1.897-8.631,2.852-12.944C543.956,439.128,542.51,439.367,542.415,439.798z"/>
			</g>
		</g>
		<g>
			<g>
				<path fill="#562F2F" d="M541.686,523.746c0,7.987,0,15.975,0,23.963c0,0.452,2.898,0.041,2.898-0.777c0-7.987,0-15.975,0-23.963      C544.584,522.517,541.686,522.928,541.686,523.746L541.686,523.746z"/>
			</g>
		</g>
	</g>
	<g>
		<g>
			
				<rect x="772.274" y="511.105" transform="matrix(0.9906 0.1369 -0.1369 0.9906 82.5004 -105.7175)" fill="#E5DFDF" width="74.664" height="71.303"/>
		</g>
		<g opacity="0.5">
			
				<rect x="852.65" y="437.752" transform="matrix(0.9906 0.1369 -0.1369 0.9906 78.7495 -116.0323)" fill="#7DCAF9" width="59.999" height="153.099"/>
		</g>
		<g>
			<g>
				<path fill="#562F2F" d="M897.815,593.803c-11.371-1.572-22.742-3.144-34.113-4.716c-6.819-0.942-13.639-1.886-20.458-2.828      c-1.51-0.209-3.021-0.418-4.531-0.627c-0.117-0.016,0.153,0.9,0.322-0.321c3.186-23.035,6.37-46.07,9.555-69.105      c3.904-28.235,7.808-56.471,11.712-84.706c-0.781,0.313-1.563,0.626-2.344,0.939c11.55,1.597,23.1,3.193,34.648,4.79      c6.794,0.938,13.589,1.878,20.382,2.817c1.403,0.193,2.807,0.388,4.209,0.582c-0.414-0.058-0.303-0.855-0.486,0.47      c-3.222,23.308-6.443,46.614-9.666,69.921c-3.857,27.908-7.715,55.815-11.573,83.724c-0.146,1.055,2.763,0.51,2.889-0.398      c6.697-48.454,13.396-96.907,20.094-145.36c0.427-3.09,0.854-6.18,1.281-9.269c0.047-0.343-0.238-0.499-0.545-0.541      c-19.811-2.738-39.622-5.478-59.434-8.216c-0.585-0.081-2.232,0.133-2.344,0.939c-6.699,48.453-13.398,96.906-20.097,145.359      c-0.428,3.09-0.854,6.18-1.282,9.269c-0.047,0.343,0.238,0.499,0.545,0.541c19.813,2.739,39.625,5.478,59.438,8.217      C896.855,595.399,899.42,594.024,897.815,593.803z"/>
			</g>
		</g>
		<g>
			<g>
				<path fill="#562F2F" d="M837.502,585.257c-24.654-3.408-49.309-6.816-73.963-10.225c0.316,0.292,0.632,0.583,0.948,0.874      c3.392-24.533,6.783-49.067,10.176-73.602c-0.66,0.376-1.319,0.752-1.979,1.128c24.653,3.408,49.308,6.816,73.961,10.225      c-0.316-0.292-0.632-0.583-0.948-0.874c-3.391,24.533-6.782,49.067-10.174,73.602c-0.194,1.408,2.757,0.979,2.928-0.254      c3.391-24.533,6.782-49.067,10.174-73.602c0.077-0.563-0.492-0.811-0.948-0.874c-24.653-3.408-49.308-6.816-73.961-10.225      c-0.699-0.097-1.867,0.316-1.979,1.128c-3.392,24.533-6.783,49.067-10.176,73.602c-0.077,0.563,0.492,0.811,0.948,0.874      c24.654,3.408,49.309,6.816,73.963,10.225C837.827,587.446,839.454,585.527,837.502,585.257z"/>
			</g>
		</g>
		<g>
			
				<rect x="778.872" y="492.637" transform="matrix(0.9906 0.137 -0.137 0.9906 76.1487 -106.3983)" fill="#E5DFDF" width="64.666" height="14.977"/>
			<g>
				<path fill="#562F2F" d="M843.405,511.44c-14.089-1.948-28.178-3.896-42.267-5.845c-6.852-0.947-13.703-1.895-20.555-2.842      c-1.995-0.276-0.721-1.933-0.412-4.163c0.493-3.566,0.986-7.133,1.48-10.7c-0.883,0.308-1.765,0.614-2.647,0.921      c14.089,1.948,28.177,3.896,42.266,5.844c6.852,0.947,13.702,1.894,20.554,2.841c1.995,0.276,0.722,1.933,0.413,4.163      c-0.493,3.567-0.986,7.135-1.479,10.702c-0.035,0.253,2.783,0.053,2.898-0.777c0.684-4.945,1.367-9.892,2.051-14.838      c-0.055-0.092-0.139-0.141-0.251-0.144c-21.352-2.952-42.703-5.904-64.055-8.855c-0.577-0.08-2.541,0.156-2.647,0.921      c-0.684,4.945-1.368,9.891-2.053,14.836c0.055,0.092,0.139,0.141,0.251,0.144c21.353,2.953,42.704,5.905,64.057,8.857      C841.664,512.596,844.106,511.537,843.405,511.44z"/>
			</g>
		</g>
		<g>
			
				<rect x="828.615" y="496.059" transform="matrix(0.9906 0.1371 -0.1371 0.9906 76.9307 -109.8558)" fill="#F9A0A0" width="14.688" height="14.977"/>
			<g>
				<path fill="#562F2F" d="M842.734,511.016c-4.85-0.672-9.699-1.343-14.549-2.014c0.311,0.272,0.622,0.545,0.933,0.817      c0.685-4.945,1.368-9.891,2.053-14.836c-0.662,0.365-1.325,0.731-1.987,1.097c4.849,0.671,9.698,1.342,14.547,2.012      c-0.311-0.272-0.622-0.545-0.933-0.817c-0.684,4.946-1.367,9.893-2.051,14.838c-0.187,1.35,2.758,0.892,2.92-0.279      c0.684-4.946,1.367-9.893,2.051-14.838c0.077-0.558-0.494-0.757-0.933-0.817c-4.849-0.671-9.698-1.342-14.547-2.012      c-0.664-0.092-1.879,0.313-1.987,1.097c-0.685,4.945-1.368,9.891-2.053,14.836c-0.077,0.558,0.494,0.757,0.933,0.817      c4.85,0.672,9.699,1.343,14.549,2.014C842.979,513.109,844.686,511.285,842.734,511.016z"/>
			</g>
		</g>
		<g>
			<circle fill="#E5DFDF" stroke="#562F2F" stroke-miterlimit="10" cx="784.716" cy="493.341" r="2"/>
			<circle fill="#E5DFDF" stroke="#562F2F" stroke-miterlimit="10" cx="783.926" cy="499.067" r="1.999"/>
		</g>
		<g>
			<circle fill="#E5DFDF" stroke="#562F2F" stroke-miterlimit="10" cx="791.249" cy="494.244" r="2"/>
			<circle fill="#E5DFDF" stroke="#562F2F" stroke-miterlimit="10" cx="790.458" cy="499.971" r="2"/>
		</g>
		<g>
			<circle fill="#E5DFDF" stroke="#562F2F" stroke-miterlimit="10" cx="797.782" cy="495.147" r="2"/>
			<circle fill="#E5DFDF" stroke="#562F2F" stroke-miterlimit="10" cx="796.988" cy="500.874" r="1.999"/>
		</g>
		<g>
			<circle fill="#E5DFDF" stroke="#562F2F" stroke-miterlimit="10" cx="804.313" cy="496.05" r="2"/>
			<circle fill="#E5DFDF" stroke="#562F2F" stroke-miterlimit="10" cx="803.521" cy="501.776" r="2"/>
		</g>
		<g>
			<circle fill="#E5DFDF" stroke="#562F2F" stroke-miterlimit="10" cx="810.845" cy="496.953" r="2"/>
			<circle fill="#E5DFDF" stroke="#562F2F" stroke-miterlimit="10" cx="810.052" cy="502.679" r="2"/>
		</g>
		<g>
			<circle fill="#E5DFDF" stroke="#562F2F" stroke-miterlimit="10" cx="817.376" cy="497.856" r="2"/>
			<path fill="#E5DFDF" stroke="#562F2F" stroke-miterlimit="10" d="M818.564,503.857c-0.15,1.094-1.16,1.857-2.254,1.705     c-1.094-0.15-1.859-1.158-1.707-2.254c0.152-1.094,1.16-1.857,2.254-1.705C817.951,501.752,818.715,502.762,818.564,503.857z"/>
		</g>
		<g>
			<circle fill="#E5DFDF" stroke="#562F2F" stroke-miterlimit="10" cx="823.906" cy="498.759" r="1.999"/>
			<circle fill="#E5DFDF" stroke="#562F2F" stroke-miterlimit="10" cx="823.114" cy="504.485" r="2"/>
		</g>
		<g>
			<line fill="#E5DFDF" x1="795.699" y1="466.844" x2="792.502" y2="489.98"/>
			<g>
				<path fill="#562F2F" d="M794.973,466.928c-1.065,7.712-2.131,15.424-3.197,23.137c-0.084,0.61,1.381,0.356,1.453-0.168      c1.065-7.712,2.131-15.424,3.197-23.137C796.51,466.149,795.045,466.403,794.973,466.928L794.973,466.928z"/>
			</g>
		</g>
		<g>
			<circle fill="#E5DFDF" cx="795.906" cy="465.357" r="3.75"/>
			<g>
				<path fill="#562F2F" d="M798.901,465.978c-0.388,2-1.996,3.315-4.071,2.422c-1.405-0.604-2.038-2.237-1.919-3.662      c0.173-2.066,2.182-3.237,4.071-2.424C798.388,462.917,799.021,464.552,798.901,465.978c-0.042,0.503,1.405,0.202,1.439-0.213      c0.468-5.603-7.882-5.899-8.869-0.814c-1.067,5.498,7.888,5.888,8.869,0.814C800.432,465.297,798.984,465.549,798.901,465.978z"/>
			</g>
		</g>
		<g>
			
				<rect x="861.868" y="437.033" transform="matrix(0.9906 0.137 -0.137 0.9906 68.3363 -114.2518)" fill="#E5DFDF" stroke="#562F2F" stroke-miterlimit="10" width="4.497" height="4.5"/>
			
				<rect x="861.018" y="443.177" transform="matrix(0.9906 0.1369 -0.1369 0.9906 69.1035 -113.9832)" fill="#E5DFDF" stroke="#562F2F" stroke-miterlimit="10" width="4.501" height="4.499"/>
			
				<rect x="860.17" y="449.319" transform="matrix(0.9906 0.137 -0.137 0.9906 69.97 -113.8563)" fill="#E5DFDF" stroke="#562F2F" stroke-miterlimit="10" width="4.499" height="4.501"/>
			
				<rect x="859.32" y="455.461" transform="matrix(0.9906 0.1367 -0.1367 0.9906 70.6804 -113.5119)" fill="#E5DFDF" stroke="#562F2F" stroke-miterlimit="10" width="4.499" height="4.501"/>
			
				<rect x="858.471" y="461.607" transform="matrix(0.9906 0.1371 -0.1371 0.9906 71.7264 -113.6306)" fill="#E5DFDF" stroke="#562F2F" stroke-miterlimit="10" width="4.501" height="4.499"/>
			
				<rect x="857.622" y="467.749" transform="matrix(0.9905 0.1377 -0.1377 0.9905 72.8812 -113.8882)" fill="#E5DFDF" stroke="#562F2F" stroke-miterlimit="10" width="4.498" height="4.499"/>
			
				<rect x="856.773" y="473.89" transform="matrix(0.9906 0.1367 -0.1367 0.9906 73.1764 -112.9905)" fill="#E5DFDF" stroke="#562F2F" stroke-miterlimit="10" width="4.499" height="4.501"/>
			
				<rect x="855.924" y="480.032" transform="matrix(0.9906 0.1367 -0.1367 0.9906 73.9731 -112.7704)" fill="#E5DFDF" stroke="#562F2F" stroke-miterlimit="10" width="4.501" height="4.501"/>
			
				<rect x="855.074" y="486.177" transform="matrix(0.9906 0.1367 -0.1367 0.9906 74.8405 -112.6428)" fill="#E5DFDF" stroke="#562F2F" stroke-miterlimit="10" width="4.499" height="4.499"/>
			
				<rect x="854.226" y="492.321" transform="matrix(0.9905 0.1372 -0.1372 0.9905 75.9337 -112.8048)" fill="#E5DFDF" stroke="#562F2F" stroke-miterlimit="10" width="4.5" height="4.499"/>
			
				<rect x="853.376" y="498.462" transform="matrix(0.9906 0.1367 -0.1367 0.9906 76.5044 -112.2953)" fill="#E5DFDF" stroke="#562F2F" stroke-miterlimit="10" width="4.499" height="4.499"/>
			
				<rect x="852.527" y="504.603" transform="matrix(0.9906 0.1367 -0.1367 0.9906 77.2995 -112.0754)" fill="#E5DFDF" stroke="#562F2F" stroke-miterlimit="10" width="4.501" height="4.501"/>
			
				<rect x="851.678" y="510.749" transform="matrix(0.9905 0.1376 -0.1376 0.9905 78.7061 -112.6145)" fill="#E5DFDF" stroke="#562F2F" stroke-miterlimit="10" width="4.5" height="4.498"/>
			
				<rect x="850.828" y="516.891" transform="matrix(0.9906 0.1371 -0.1371 0.9906 79.2342 -112.0607)" fill="#E5DFDF" stroke="#562F2F" stroke-miterlimit="10" width="4.501" height="4.5"/>
			
				<rect x="849.979" y="523.033" transform="matrix(0.9906 0.1371 -0.1371 0.9906 80.0684 -111.8862)" fill="#E5DFDF" stroke="#562F2F" stroke-miterlimit="10" width="4.501" height="4.5"/>
			
				<rect x="849.129" y="529.176" transform="matrix(0.9906 0.1371 -0.1371 0.9906 80.9025 -111.7117)" fill="#E5DFDF" stroke="#562F2F" stroke-miterlimit="10" width="4.501" height="4.5"/>
			
				<rect x="848.281" y="535.318" transform="matrix(0.9906 0.1367 -0.1367 0.9906 81.4578 -111.2068)" fill="#E5DFDF" stroke="#562F2F" stroke-miterlimit="10" width="4.501" height="4.501"/>
			
				<rect x="847.431" y="541.461" transform="matrix(0.9905 0.1372 -0.1372 0.9905 82.6099 -111.4083)" fill="#E5DFDF" stroke="#562F2F" stroke-miterlimit="10" width="4.5" height="4.499"/>
			
				<rect x="846.582" y="547.606" transform="matrix(0.9906 0.1371 -0.1371 0.9906 83.4052 -111.1884)" fill="#E5DFDF" stroke="#562F2F" stroke-miterlimit="10" width="4.501" height="4.498"/>
			
				<rect x="845.733" y="553.745" transform="matrix(0.9906 0.1367 -0.1367 0.9906 83.9526 -110.6856)" fill="#E5DFDF" stroke="#562F2F" stroke-miterlimit="10" width="4.501" height="4.501"/>
			
				<rect x="844.884" y="559.888" transform="matrix(0.9906 0.1367 -0.1367 0.9906 84.8241 -110.5571)" fill="#E5DFDF" stroke="#562F2F" stroke-miterlimit="10" width="4.499" height="4.501"/>
			
				<rect x="844.034" y="566.032" transform="matrix(0.9906 0.1366 -0.1366 0.9906 85.5757 -110.2931)" fill="#E5DFDF" stroke="#562F2F" stroke-miterlimit="10" width="4.503" height="4.5"/>
			
				<rect x="843.186" y="572.176" transform="matrix(0.9905 0.1372 -0.1372 0.9905 86.7828 -110.5357)" fill="#E5DFDF" stroke="#562F2F" stroke-miterlimit="10" width="4.5" height="4.5"/>
			
				<rect x="842.336" y="578.317" transform="matrix(0.9905 0.1372 -0.1372 0.9905 87.6172 -110.3611)" fill="#E5DFDF" stroke="#562F2F" stroke-miterlimit="10" width="4.5" height="4.501"/>
		</g>
		<g>
			
				<rect x="868.555" y="437.958" transform="matrix(0.9906 0.137 -0.137 0.9906 68.493 -115.1116)" fill="#E5DFDF" stroke="#562F2F" stroke-miterlimit="10" width="4.499" height="4.501"/>
			
				<rect x="867.704" y="444.1" transform="matrix(0.9906 0.1367 -0.1367 0.9906 69.2056 -114.7651)" fill="#E5DFDF" stroke="#562F2F" stroke-miterlimit="10" width="4.499" height="4.501"/>
			
				<rect x="866.856" y="450.243" transform="matrix(0.9906 0.1369 -0.1369 0.9906 70.1259 -114.7158)" fill="#E5DFDF" stroke="#562F2F" stroke-miterlimit="10" width="4.501" height="4.501"/>
			
				<rect x="866.007" y="456.388" transform="matrix(0.9906 0.137 -0.137 0.9906 71.027 -114.6364)" fill="#E5DFDF" stroke="#562F2F" stroke-miterlimit="10" width="4.497" height="4.498"/>
			
				<rect x="865.157" y="462.529" transform="matrix(0.9906 0.1367 -0.1367 0.9906 71.6672 -114.1965)" fill="#E5DFDF" stroke="#562F2F" stroke-miterlimit="10" width="4.501" height="4.501"/>
			
				<rect x="864.309" y="468.671" transform="matrix(0.9906 0.1367 -0.1367 0.9906 72.5336 -114.07)" fill="#E5DFDF" stroke="#562F2F" stroke-miterlimit="10" width="4.499" height="4.501"/>
			
				<rect x="863.458" y="474.816" transform="matrix(0.9906 0.1367 -0.1367 0.9906 73.3657 -113.896)" fill="#E5DFDF" stroke="#562F2F" stroke-miterlimit="10" width="4.499" height="4.499"/>
			
				<rect x="862.61" y="480.959" transform="matrix(0.9906 0.1371 -0.1371 0.9906 74.4189 -114.0153)" fill="#E5DFDF" stroke="#562F2F" stroke-miterlimit="10" width="4.501" height="4.5"/>
			
				<rect x="861.761" y="487.1" transform="matrix(0.9905 0.1372 -0.1372 0.9905 75.3248 -113.9346)" fill="#E5DFDF" stroke="#562F2F" stroke-miterlimit="10" width="4.498" height="4.501"/>
			
				<rect x="860.911" y="493.242" transform="matrix(0.9906 0.1367 -0.1367 0.9906 75.8614 -113.3747)" fill="#E5DFDF" stroke="#562F2F" stroke-miterlimit="10" width="4.499" height="4.501"/>
			
				<rect x="860.064" y="499.386" transform="matrix(0.9906 0.1367 -0.1367 0.9906 76.6935 -113.201)" fill="#E5DFDF" stroke="#562F2F" stroke-miterlimit="10" width="4.499" height="4.499"/>
			
				<rect x="859.212" y="505.53" transform="matrix(0.9906 0.1371 -0.1371 0.9906 77.7557 -113.3174)" fill="#E5DFDF" stroke="#562F2F" stroke-miterlimit="10" width="4.501" height="4.499"/>
			
				<rect x="858.365" y="511.671" transform="matrix(0.9906 0.1367 -0.1367 0.9906 78.3575 -112.8533)" fill="#E5DFDF" stroke="#562F2F" stroke-miterlimit="10" width="4.499" height="4.501"/>
			
				<rect x="857.515" y="517.815" transform="matrix(0.9905 0.1372 -0.1372 0.9905 79.4617 -113.015)" fill="#E5DFDF" stroke="#562F2F" stroke-miterlimit="10" width="4.5" height="4.499"/>
			
				<rect x="856.665" y="523.957" transform="matrix(0.9906 0.1371 -0.1371 0.9906 80.2582 -112.7942)" fill="#E5DFDF" stroke="#562F2F" stroke-miterlimit="10" width="4.501" height="4.499"/>
			
				<rect x="855.818" y="530.099" transform="matrix(0.9906 0.1368 -0.1368 0.9906 80.8918 -112.3779)" fill="#E5DFDF" stroke="#562F2F" stroke-miterlimit="10" width="4.497" height="4.501"/>
			
				<rect x="854.967" y="536.241" transform="matrix(0.9906 0.1367 -0.1367 0.9906 81.6468 -112.1121)" fill="#E5DFDF" stroke="#562F2F" stroke-miterlimit="10" width="4.501" height="4.501"/>
			
				<rect x="854.118" y="542.384" transform="matrix(0.9906 0.1366 -0.1366 0.9906 82.4395 -111.8925)" fill="#E5DFDF" stroke="#562F2F" stroke-miterlimit="10" width="4.503" height="4.501"/>
			
				<rect x="853.269" y="548.527" transform="matrix(0.9906 0.1367 -0.1367 0.9906 83.3493 -111.8103)" fill="#E5DFDF" stroke="#562F2F" stroke-miterlimit="10" width="4.499" height="4.501"/>
			
				<rect x="852.419" y="554.669" transform="matrix(0.9906 0.1367 -0.1367 0.9906 84.1417 -111.5909)" fill="#E5DFDF" stroke="#562F2F" stroke-miterlimit="10" width="4.501" height="4.501"/>
			
				<rect x="851.571" y="560.814" transform="matrix(0.9906 0.1367 -0.1367 0.9906 85.0134 -111.4627)" fill="#E5DFDF" stroke="#562F2F" stroke-miterlimit="10" width="4.499" height="4.5"/>
			
				<rect x="850.721" y="566.957" transform="matrix(0.9906 0.1371 -0.1371 0.9906 86.0977 -111.5731)" fill="#E5DFDF" stroke="#562F2F" stroke-miterlimit="10" width="4.501" height="4.5"/>
			
				<rect x="849.872" y="573.1" transform="matrix(0.9906 0.1371 -0.1371 0.9906 86.9318 -111.3987)" fill="#E5DFDF" stroke="#562F2F" stroke-miterlimit="10" width="4.501" height="4.5"/>
			
				<rect x="849.023" y="579.245" transform="matrix(0.9905 0.1372 -0.1372 0.9905 87.8074 -111.2695)" fill="#E5DFDF" stroke="#562F2F" stroke-miterlimit="10" width="4.5" height="4.497"/>
		</g>
	</g>
	<g>
		<g>
			<circle fill="#FBD3D5" cx="831.653" cy="339.721" r="59.036"/>
		</g>
		
		<g>
			<circle fill="#E5DFDF" cx="660.076" cy="283.515" r="13.279"/>
		</g>
		<g>
			<g>
				<path fill="#562F2F" d="M883.672,339.887c-0.277,23.994-14.633,45.433-37.023,54.315c-23.168,9.191-49.792,0.737-65.285-18.141      c-15.159-18.471-16.677-45.097-5.111-65.701c12.323-21.956,38.176-32.7,62.497-27.287      C864.994,288.915,883.365,313.417,883.672,339.887c0.015,1.29,2.918,0.688,2.906-0.332      c-0.248-21.467-11.433-40.836-29.924-51.759c-17.578-10.384-40.658-10.561-58.608-1.002      c-18.863,10.044-31.145,28.947-32.382,50.314c-1.238,21.373,9.891,41.625,27.631,53.188      c17.867,11.646,42.095,12.332,60.837,2.352c19.741-10.512,32.187-30.695,32.446-53.093      C886.593,338.271,883.684,338.858,883.672,339.887z"/>
				<path fill="#562F2F" d="M658.259,267.376c-7.572,0.382-13.684,5.325-14.847,12.947c-1.303,8.538,6.263,14.948,14.114,15.344      c7.66,0.387,14.101-5.668,15.214-12.96c1.303-8.538-6.263-14.948-14.114-15.344c-1.168-0.059-3.064,1.647-1.1,1.746      c14.31,0.723,17.142,22.46,2.09,24.758c-15.554,2.374-18.385-23.93-1.723-24.771      C659.377,269.02,660.258,267.275,658.259,267.376z"/>
			</g>
		</g>
		<g>
			<line fill="#E5DFDF" x1="668.045" y1="290.487" x2="768.914" y2="354.535"/>
			<g>
				<path fill="#562F2F" d="M667.76,290.673c33.623,21.349,67.246,42.699,100.869,64.048c0.222,0.141,0.884-0.174,0.57-0.373      c-33.623-21.35-67.246-42.699-100.869-64.048C668.108,290.16,667.446,290.475,667.76,290.673L667.76,290.673z"/>
			</g>
		</g>
		<g>
			
			<image xmlns="http://www.w3.org/2000/svg" overflow="visible" width="103" height="80" xmlns:xlink="http://www.w3.org/1999/xlink" xlink:href="./images/19949694.png" transform="matrix(1 0 0 1 773 296.9995)">
			</image>
		</g>
	</g>
	<g>
		<g opacity="0.4">
			<circle fill="#7DCAF9" cx="111.808" cy="48.509" r="19.44"/>
		</g>
		<g>
			<g>
				<path fill="#562F2F" d="M129.053,48.55c-0.391,11.121-9.051,19.526-20.33,19.13c-9.693-0.341-16.809-8.738-17.777-17.88      c-1.231-11.627,9.157-20.854,20.28-20.463c10.252,0.36,17.488,9.595,17.828,19.27c0.009,0.256,0.735,0.104,0.725-0.194      c-0.369-10.479-8.796-19.946-19.759-19.561c-10.997,0.387-19.458,8.622-19.848,19.699c-0.37,10.522,9.289,19.983,19.758,19.615      c10.996-0.387,19.46-8.62,19.85-19.697C129.791,48.146,129.062,48.288,129.053,48.55z"/>
			</g>
		</g>
		<image xmlns="http://www.w3.org/2000/svg" overflow="visible" width="33" height="17" xmlns:xlink="http://www.w3.org/1999/xlink" xlink:href="./images/19949695.png" transform="matrix(1 0 0 1 91 36.9995)">
		</image>
	</g>
	<g>
		<g opacity="0.4">
			<circle fill="#7DCAF9" cx="633.876" cy="407.439" r="17.735"/>
		</g>
		<g>
			<g>
				<path fill="#562F2F" d="M648.313,401.288c2.779,7.36,1.02,14.992-4.793,20.334c-9.18,8.436-22.521,3.175-27.16-6.731      c-3.293-7.033-0.689-15.297,4.793-20.336C630.333,386.117,643.675,391.382,648.313,401.288c0.076,0.163,0.773-0.09,0.725-0.193      c-9.819-20.971-41.617-7.77-33.402,13.989c3.221,8.531,13.968,13.095,22.423,9.902c9.863-3.725,14.754-13.896,10.979-23.892      C648.979,400.938,648.268,401.166,648.313,401.288z"/>
			</g>
		</g>
	</g>
	<polygon xmlns="http://www.w3.org/2000/svg" opacity="0.4" fill="#66BAED" points="46.395,640.383 312.025,535.514 970.907,624.695 964.979,718.383 "/>
</g>
<g class="p2_car1">
	<g>
		<path fill="#AEDECC" d="M-43.826,3.436c-0.107,8.251,6.557,15.086,14.805,15.191l42.996,0.55     c8.25,0.106,15.085-6.558,15.19-14.809l0.114-8.998c0.107-8.251-6.556-15.086-14.805-15.191l-42.998-0.548     c-8.249-0.107-15.084,6.556-15.19,14.807L-43.826,3.436z"/>
		<g>
			<path fill="#562F2F" d="M-44.912,3.727c0.281,8.709,6.979,15.357,15.722,15.469c5.598,0.072,11.197,0.144,16.795,0.215      c7.359,0.094,14.719,0.188,22.079,0.283c5.478,0.07,10.254-0.332,14.847-3.795c6.521-4.917,5.738-13.115,5.83-20.32      c0.11-8.721-6.715-15.853-15.479-15.964c-12.614-0.161-25.229-0.322-37.843-0.482c-5.916-0.076-11.106,0.001-16.115,3.777      C-45.723-12.081-44.82-3.604-44.912,3.727c-0.007,0.581,2.163,0.205,2.173-0.582c0.121-9.608,0.235-23.121,13.811-22.948      c5.035,0.064,10.07,0.128,15.105,0.192c7.579,0.097,15.159,0.193,22.738,0.29c8.325,0.106,15.957,1.866,18.793,11      c0.984,3.17,0.447,7.09,0.406,10.357c-0.079,6.182-1.648,11.411-7.216,14.91c-4.785,3.007-13.472,1.576-18.826,1.507      c-7.79-0.1-15.581-0.199-23.371-0.299c-7.26-0.093-13.929,0.1-18.871-6.457c-1.852-2.457-2.472-5.561-2.569-8.553      C-42.758,2.54-44.938,2.949-44.912,3.727z"/>
		</g>
	</g>
	<g>
		<g>
			<path fill="#562F2F" d="M-3.135-19.943C-3.301-6.944-3.467,6.055-3.633,19.053c-0.001,0.13,0.722,0.025,0.725-0.194      C-2.743,5.86-2.577-7.139-2.411-20.137C-2.409-20.267-3.132-20.163-3.135-19.943L-3.135-19.943z"/>
		</g>
	</g>
	<g>
		<g>
			<path fill="#562F2F" d="M-23.383-20.204c-0.091,7.111-0.183,14.223-0.275,21.334c-0.001,0.102,0.722,0.006,0.725-0.194      c0.091-7.111,0.183-14.223,0.275-21.334C-22.657-20.5-23.381-20.404-23.383-20.204L-23.383-20.204z"/>
		</g>
	</g>
	<g>
		<g>
			<path fill="#562F2F" d="M9.145-8.105C9.104-4.911,9.063-1.717,9.023,1.478C9.019,1.858,9.753,1.75,9.757,1.423      C9.798-1.771,9.838-4.966,9.879-8.16C9.883-8.541,9.149-8.432,9.145-8.105L9.145-8.105z"/>
		</g>
	</g>
	<g>
		<path fill="#FFFFFF" d="M-43.459,12.442c-0.042,3.3,2.624,6.034,5.924,6.076l81.991,1.047c3.3,0.042,6.034-2.623,6.077-5.923     l0.097-7.499c0.042-3.3-2.623-6.034-5.922-6.076L-37.29-0.98c-3.3-0.042-6.034,2.623-6.075,5.923L-43.459,12.442z"/>
		<g>
			<path fill="#562F2F" d="M-44.908,12.83c0.601,5.813,5.182,6.292,9.801,6.35c5.671,0.073,11.342,0.145,17.013,0.217      c15.693,0.201,31.386,0.401,47.079,0.601c6.042,0.077,22.87,3.044,22.998-6.892c0.07-5.404,1.149-13.563-6.594-13.662      c-3.702-0.047-7.404-0.095-11.106-0.142C15.773-0.934-2.735-1.17-21.244-1.407c-4.99-0.064-9.981-0.127-14.972-0.191      c-2.474-0.032-5.766,0.85-7.211,3.056C-45.553,4.701-44.861,9.104-44.908,12.83c-0.007,0.526,2.887,0.105,2.897-0.776      c0.063-4.998-0.847-12.474,5.944-12.387c5.13,0.065,10.26,0.131,15.39,0.197c15.636,0.2,31.271,0.399,46.907,0.599      c5.13,0.066,10.26,0.131,15.39,0.197c0.719,0.009,1.437,0.019,2.155,0.027c6.63,0.085,5.378,7.95,5.324,12.172      c-0.091,7.037-5.26,6.067-10.065,6.006c-6.49-0.083-12.981-0.166-19.471-0.249c-12.791-0.163-25.581-0.327-38.372-0.49      c-4.509-0.058-9.019-0.115-13.528-0.173c-4.395-0.056-9.062,0.018-9.673-5.899C-42.074,11.439-44.993,12.009-44.908,12.83z"/>
		</g>
	</g>
	<g>
		<path fill="#E5DFDF" d="M25.306,18.321c-0.059,4.604,3.622,8.382,8.224,8.44c4.604,0.059,8.381-3.624,8.439-8.229     c0.06-4.6-3.624-8.379-8.224-8.437C29.142,10.036,25.363,13.72,25.306,18.321z"/>
		<g>
			<path fill="#562F2F" d="M23.857,18.709c0.497,12.143,18.805,10.787,19.561-0.564c0.362-5.44-5.32-9.384-10.335-8.635      C28.089,10.257,24.205,13.469,23.857,18.709c-0.038,0.563,2.834,0.177,2.897-0.776c0.335-5.052,4.776-8.826,9.822-6.128      c2.621,1.401,3.828,4.295,3.944,7.116c0.213,5.209-5.247,8.578-9.823,6.131c-2.622-1.402-3.828-4.298-3.943-7.12      C26.729,17.284,23.82,17.794,23.857,18.709z"/>
		</g>
	</g>
	<g>
		<circle fill="#E5DFDF" cx="-23.027" cy="17.704" r="8.335"/>
		<g>
			<path fill="#562F2F" d="M-32.81,17.985c0.503,12.114,18.812,10.753,19.566-0.563c0.364-5.452-5.317-9.353-10.328-8.602      C-28.555,9.566-32.459,12.738-32.81,17.985c-0.034,0.506,2.836,0.142,2.897-0.776c0.335-5.014,4.745-8.851,9.823-6.137      c2.624,1.402,3.832,4.304,3.948,7.127c0.212,5.166-5.223,8.597-9.82,6.14c-2.625-1.403-3.833-4.307-3.951-7.13      C-29.937,16.613-32.846,17.11-32.81,17.985z"/>
		</g>
	</g>
</g>

<g class="p2_bub1">
	<g>
		<circle fill="#E5DFDF" cx="576.04" cy="358.856" r="31.16"/>
	</g>
	<g>
		<g>
			<path fill="#562F2F" d="M571.812,325.247c-16.24,0.687-31.217,12.896-31.986,29.854c-0.848,18.684,13.835,33.497,32.365,33.525     c16.235,0.024,31.242-13.447,31.984-29.852C605.021,340.092,590.344,325.276,571.812,325.247     c-0.709-0.001-2.35,1.071-0.889,1.074c15.987,0.024,28.914,11.78,30.966,27.518c2.26,17.324-11.637,32.989-28.81,33.714     c-15.935,0.673-28.982-12.291-30.968-27.515c-2.26-17.324,11.641-32.991,28.812-33.717     C571.62,326.292,573.268,325.186,571.812,325.247z"/>
		</g>
	</g>
	<g opacity="0.5">
		<g>
			<path fill="#562F2F" d="M553.938,395.379c-23.56-11.818-31.285-41.414-16.407-63.254c0.41-0.601-1.063-0.528-1.363-0.086     c-15.062,22.107-7.229,52.127,16.632,64.098C553.278,396.377,554.592,395.707,553.938,395.379L553.938,395.379z"/>
		</g>
	</g>
	<g>
		<image xmlns="http://www.w3.org/2000/svg" overflow="visible" width="72" height="40" xmlns:xlink="http://www.w3.org/1999/xlink" xlink:href="./images/1994969C.png" transform="matrix(1 0 0 1 537 335)">
		</image>
	</g>
	<path fill="none" stroke="#562F2F" stroke-miterlimit="10" d="M653.473,518.473l-66.354-90.86l-0.875-42.958"/>
	<g opacity="0.5">
		<path fill="#E5DFDF" d="M535.045,296.97l41.014,28.762"/>
		<g>
			<path fill="#562F2F" d="M534.475,297.345c13.672,9.587,27.343,19.175,41.014,28.762c0.437,0.306,1.758-0.318,1.141-0.752     c-13.672-9.587-27.343-19.174-41.014-28.761C535.179,296.288,533.857,296.912,534.475,297.345L534.475,297.345z"/>
		</g>
	</g>
	<g>
		<circle fill="#E5DFDF" cx="587.118" cy="427.613" r="6.166"/>
		<g>
			<path fill="#562F2F" d="M591.829,427.649c-0.093,2.798-1.833,5.629-5.037,5.175c-2.433-0.346-3.93-2.573-4.34-4.803     c-0.542-2.944,1.932-6.055,4.992-5.619c2.704,0.385,4.205,2.993,4.39,5.474c0.079,1.052,2.986,0.414,2.898-0.777     c-0.689-9.241-14.936-8.023-15.233,0.803c-0.316,9.387,14.941,8.38,15.238-0.576C594.78,426.031,591.864,426.597,591.829,427.649     z"/>
		</g>
	</g>
	<g>
		<circle fill="#E5DFDF" cx="530.414" cy="295.25" r="6.165"/>
		<g>
			<path fill="#562F2F" d="M535.853,295.211c-0.114,3.388-2.528,6.203-6.198,5.683c-2.55-0.362-4.197-2.686-4.63-5.042     c-0.661-3.598,2.634-6.746,6.149-6.246c2.817,0.4,4.486,3.1,4.68,5.713c0.037,0.497,1.491,0.185,1.449-0.389     c-0.638-8.613-13.501-7.835-13.778,0.532c-0.288,8.688,13.496,7.986,13.779-0.424     C537.324,294.417,535.869,294.711,535.853,295.211z"/>
		</g>
	</g>
</g>


<g class="p2_car2">
	
	
	<g>
			<g>
				<path fill="#F07578" d="M-51.302-0.483c-0.132,4.856,4.259,8.951,9.756,9.101l82.473,2.242c5.498,0.15,10.104-3.702,10.234-8.558     c0.131-4.857-4.26-8.953-9.757-9.102l-82.471-2.241C-46.564-9.191-51.17-5.34-51.302-0.483z"/>
			</g>
			<g>
				<path fill="#562F2F" d="M-46.797,0.287c0.406,8.184,7.758,8.04,13.698,8.203c6.444,0.175,12.889,0.349,19.333,0.526     C1.61,9.434,16.988,9.853,32.362,10.269c3.524,0.094,7.049,0.192,10.574,0.288c11.404,0.31,13.446-16.071,1.213-16.399     C31.812-6.18,19.478-6.515,7.143-6.851C-4.027-7.155-15.198-7.459-26.367-7.762C-33.701-7.962-45.72-10.074-46.797,0.287     c-0.062,0.595-2.963-0.02-2.875-0.853c1.251-12.016,18.586-8.563,26.761-8.339C-7.2-8.481,8.508-8.053,24.215-7.626     c8.21,0.223,20.114-1.503,27.426,3.144c3.371,2.141,4.577,6.175,3.604,9.885c-1.167,4.459-6.252,6.313-10.336,6.445     c-2.883,0.094-5.822-0.158-8.704-0.237c-18.144-0.495-36.285-0.986-54.426-1.479c-8.93-0.245-30.782,2.816-31.452-10.699     C-49.695-1.038-46.843-0.617-46.797,0.287z"/>
			</g>
			<g>
				<path fill="#FFFFFF" d="M-26.219-8.378c3.547-11.996,14.804-20.606,27.907-20.249c13.099,0.355,23.871,9.564,26.761,21.735     L-26.219-8.378z"/>
				<g>
					<path fill="#562F2F" d="M-24.775-8.575c3.996-12.38,15.289-20.438,28.434-19.084C15.158-26.476,24.144-17.334,27-6.504      c0.675-0.386,1.351-0.772,2.026-1.159C10.803-8.158-7.419-8.653-25.642-9.148c-1.024-0.028-3.111,1.488-1.154,1.541      C-8.574-7.112,9.648-6.617,27.871-6.122c0.483,0.013,2.238-0.356,2.026-1.159C26.351-20.73,14.616-29.371,0.817-29.4      c-13.037-0.028-24.547,9.031-28.48,21.22C-27.962-7.256-25.072-7.656-24.775-8.575z"/>
				</g>
			</g>
			<g>
				<g>
					<path fill="#562F2F" d="M-8.462-8.125c0.159-5.833,0.317-11.666,0.475-17.499c0.031-1.151-2.867-0.526-2.892,0.384      c-0.159,5.833-0.317,11.666-0.475,17.499C-11.385-6.59-8.487-7.215-8.462-8.125L-8.462-8.125z"/>
				</g>
			</g>
			<g>
				<g>
					<path fill="#562F2F" d="M2.563-8.023c0.113-4.165,0.227-8.33,0.34-12.495c0.017-0.609-2.872-0.174-2.897,0.776      c-0.113,4.165-0.227,8.33-0.34,12.495C-0.351-6.638,2.538-7.073,2.563-8.023L2.563-8.023z"/>
				</g>
			</g>
			<g>
				<path fill="#E5DFDF" d="M20.685,10.57c-0.124,4.602,3.505,8.433,8.105,8.56c4.601,0.124,8.431-3.505,8.555-8.105     c0.127-4.6-3.503-8.431-8.103-8.558C24.642,2.342,20.812,5.97,20.685,10.57z"/>
				<g>
					<path fill="#562F2F" d="M19.236,10.958c0.327,12.169,18.641,11.007,19.558-0.322c0.441-5.448-5.188-9.448-10.214-8.769      C23.579,2.544,19.661,5.744,19.236,10.958c-0.045,0.55,2.82,0.18,2.897-0.776c0.41-5.028,4.896-8.727,9.924-5.945      c2.601,1.439,3.765,4.353,3.839,7.175c0.136,5.196-5.374,8.463-9.921,5.947c-2.602-1.44-3.766-4.354-3.842-7.177      C22.116,9.543,19.211,10.037,19.236,10.958z"/>
				</g>
			</g>
			<g>
				<circle fill="#E5DFDF" cx="-27.629" cy="9.257" r="8.334"/>
				<g>
					<path fill="#562F2F" d="M-37.408,9.418c0.32,12.145,18.64,10.965,19.559-0.322c0.445-5.46-5.188-9.413-10.207-8.734      C-33.045,1.036-36.985,4.197-37.408,9.418c-0.04,0.493,2.823,0.146,2.897-0.776c0.408-5.03,4.88-8.744,9.92-5.954      c2.602,1.44,3.768,4.361,3.844,7.185c0.139,5.193-5.361,8.478-9.921,5.956c-2.604-1.439-3.768-4.363-3.842-7.186      C-34.526,8.058-37.432,8.536-37.408,9.418z"/>
				</g>
			</g>
	</g>
</g>
<g class="p2_bubs">
	<g>
		<g opacity="0.6">
			<g>
				<path fill="#562F2F" d="M396.717,209.584c-12.281-25.038-10.066-54.853,5.875-77.715c13.361-19.163,35.662-30.958,58.902-31.863      c24.864-0.969,48.398,11.489,62.665,31.616c14.078,19.862,17.002,45.662,9.21,68.516c-4.44,13.023-12.795,24.401-23.275,33.208      c-1.013,0.852,2.324,2.38,3.301,1.56c18.996-15.965,29.177-39.69,27.765-64.458c-1.231-21.604-12.437-41.824-29.155-55.307      c-34.529-27.846-86.826-20.606-112.712,15.169c-16.655,23.019-18.345,53.921-5.946,79.201      C393.864,210.566,397.476,211.131,396.717,209.584L396.717,209.584z"/>
			</g>
		</g>
		<g>
			<line fill="#E5DFDF" x1="417.229" y1="488.361" x2="456.082" y2="234.123"/>
			<g>
				<path fill="#562F2F" d="M417.958,488.289c6.828-44.677,13.655-89.354,20.483-134.031c6.123-40.069,12.247-80.138,18.37-120.207      c0.101-0.662-1.371-0.433-1.459,0.144c-6.828,44.677-13.655,89.355-20.483,134.032c-6.123,40.069-12.247,80.138-18.37,120.207      C416.398,489.095,417.87,488.866,417.958,488.289L417.958,488.289z"/>
			</g>
		</g>
		<g>
			<circle fill="#66BAED" cx="466.16" cy="175.693" r="61.791"/>
		</g>
		<g>
			<g>
				<path fill="#562F2F" d="M522.854,184.817c-4.004,24.361-21.761,44.307-45.91,50.155c-24.671,5.975-50.672-5.986-64.322-26.786      c-12.92-19.688-12.638-45.579-0.635-65.563c13.602-22.646,40.948-32.962,66.237-26.429      C508.297,123.964,527.128,154.573,522.854,184.817c-0.113,0.8,2.761,0.257,2.865-0.482c3.098-21.917-5.222-43.502-22.265-57.633      c-16.415-13.611-39.307-17.045-59.406-10.767c-19.877,6.209-35.451,22.175-41.536,42.01      c-6.504,21.201-0.352,44.404,14.615,60.455c16.49,17.685,42.494,23.25,65.231,16.147c22.746-7.106,39.514-26.8,43.361-50.213      C525.848,183.551,522.977,184.07,522.854,184.817z"/>
			</g>
		</g>
		<image xmlns="http://www.w3.org/2000/svg" overflow="visible" width="81" height="56" xmlns:xlink="http://www.w3.org/1999/xlink" xlink:href="./images/1994969F.png" transform="matrix(1 0 0 1 422 148.9995)">
		</image>
	</g>
	<g>
		<g opacity="0.6">
			<circle fill="#F07578" cx="138.562" cy="347.625" r="38.768"/>
		</g>
		<g>
			<image xmlns="http://www.w3.org/2000/svg" overflow="visible" width="57" height="47" xmlns:xlink="http://www.w3.org/1999/xlink" xlink:href="./images/1994969B.png" transform="matrix(1 0 0 1 104.167 318.2417)">
			</image>
		</g>
		<g>
			<line fill="#E5DFDF" x1="171.43" y1="351.541" x2="368.555" y2="453.921"/>
			<g>
				<path fill="#562F2F" d="M170.861,351.921c42.466,22.056,84.932,44.11,127.397,66.166c23.243,12.071,46.485,24.143,69.729,36.214      c0.479,0.249,1.792-0.42,1.137-0.76c-42.465-22.056-84.931-44.11-127.396-66.166c-23.243-12.071-46.485-24.143-69.728-36.214      C171.519,350.912,170.207,351.581,170.861,351.921L170.861,351.921z"/>
			</g>
		</g>
		<g>
			
				<rect x="178.159" y="227.098" transform="matrix(0.9885 0.1511 -0.1511 0.9885 36.6888 -26.5711)" fill="#562F2F" width="30.095" height="2.127"/>
			
				<rect x="192.142" y="213.113" transform="matrix(-0.9885 -0.151 0.151 -0.9885 349.7474 482.8793)" fill="#562F2F" width="2.128" height="30.097"/>
			
				<rect x="192.145" y="213.113" transform="matrix(-0.8585 -0.5129 0.5129 -0.8585 242.0506 523.1209)" fill="#562F2F" width="2.125" height="30.097"/>
			<polygon fill="#562F2F" points="188.504,213.827 190.568,213.309 197.906,242.497 195.848,243.016    "/>
			
				<rect x="192.146" y="213.113" transform="matrix(-0.5129 0.8585 -0.8585 -0.5129 488.1678 179.3173)" fill="#562F2F" width="2.125" height="30.097"/>
			
				<rect x="192.143" y="213.114" transform="matrix(0.2444 0.9697 -0.9697 0.2444 367.2368 -14.9424)" fill="#562F2F" width="2.126" height="30.098"/>
			
				<rect x="192.143" y="213.114" transform="matrix(0.5929 0.8053 -0.8053 0.5929 262.4048 -62.6961)" fill="#562F2F" width="2.128" height="30.098"/>
			
				<rect x="192.145" y="213.113" transform="matrix(-0.8053 0.5929 -0.5929 -0.8053 484.0708 297.3371)" fill="#562F2F" width="2.125" height="30.098"/>
			<g>
				<path fill="#562F2F" d="M205.129,230.425c-1.037,6.791-7.385,11.453-14.176,10.416c-6.793-1.039-11.457-7.385-10.42-14.176      c1.039-6.792,7.385-11.455,14.178-10.417C201.502,217.286,206.168,223.632,205.129,230.425"/>
				<path fill="#FFFFFF" d="M195.568,228.962c-0.232,1.512-1.645,2.546-3.154,2.316c-1.512-0.232-2.549-1.641-2.318-3.152      c0.23-1.511,1.643-2.547,3.154-2.316C194.76,226.04,195.799,227.452,195.568,228.962"/>
			</g>
		</g>
		<g>
			<path fill="#E5DFDF" d="M189.879,235.427l-49.254,72.281"/>
			<g>
				<path fill="#562F2F" d="M188.518,235.352c-16.418,24.094-32.836,48.188-49.254,72.281c-0.806,1.183,2.135,1.012,2.723,0.15      c16.418-24.094,32.836-48.188,49.254-72.281C192.046,234.319,189.105,234.49,188.518,235.352L188.518,235.352z"/>
			</g>
		</g>
		
			<line fill="#E5DFDF" stroke="#562F2F" stroke-width="0.75" stroke-miterlimit="10" x1="393.994" y1="493.506" x2="370.186" y2="455.009"/>
		<g>
			<circle fill="#E5DFDF" cx="370.186" cy="455.008" r="6.166"/>
			<g>
				<path fill="#562F2F" d="M375.076,455.607c-1.246,5.987-9.739,5.339-9.801-0.861c-0.028-2.805,2.631-4.624,5.173-4.648      c3.136-0.031,4.853,3.088,4.583,5.842c-0.157,1.604,2.344,1.589,2.5,0c0.392-3.998-2.16-7.414-6.082-8.231      c-4.057-0.846-7.762,2.188-8.565,6.036c-0.847,4.056,2.19,7.763,6.037,8.564c4.058,0.847,7.764-2.187,8.565-6.037      C377.814,454.698,375.404,454.029,375.076,455.607z"/>
			</g>
		</g>
		<g>
			<g>
				<path fill="#562F2F" d="M171.187,350.913c-3.59,20.913-23.12,34.794-44.086,30.394c-19.113-4.012-30.974-23.295-28.456-42.085      c2.823-21.066,23.714-34.671,44.086-30.396C161.846,312.836,173.707,332.122,171.187,350.913      c-0.115,0.859,2.074,0.462,2.173-0.273c2.831-21.107-12.047-41.638-33.716-43.734c-20.731-2.005-39.626,11.935-43.172,32.59      c-3.608,21.021,12.631,41.692,33.716,43.731c20.73,2.004,39.625-11.932,43.171-32.587      C173.504,349.798,171.313,350.176,171.187,350.913z"/>
			</g>
		</g>
	</g>
	<g>
		<g opacity="0.5">
			<g>
				<path fill="#562F2F" d="M367.565,234.123c28.34,14.837,37.174,51.271,18.477,77.391c-0.323,0.451,1.102,0.257,1.326-0.057      c18.785-26.242,10.115-62.902-18.445-77.855C368.522,233.392,367.306,233.987,367.565,234.123L367.565,234.123z"/>
			</g>
		</g>
		<g>
			<path fill="#E5DFDF" d="M407.057,510.117l-45.129-187.266"/>
			<g>
				<path fill="#562F2F" d="M407.419,510.021c-11.642-48.309-23.284-96.616-34.925-144.925      c-3.401-14.113-6.802-28.228-10.204-42.341c-0.078-0.321-0.803-0.13-0.725,0.193c11.642,48.309,23.284,96.616,34.925,144.925      c3.401,14.113,6.802,28.228,10.204,42.341C406.772,510.535,407.497,510.344,407.419,510.021L407.419,510.021z"/>
			</g>
		</g>
		<g>
			<path fill="#E5DFDF" d="M288.477,276.065c-3.826,25.048,13.375,48.454,38.424,52.281c25.047,3.828,48.457-13.372,52.283-38.42     c3.828-25.05-13.373-48.458-38.422-52.286S292.305,251.015,288.477,276.065z"/>
		</g>
		<g>
			<g>
				<path fill="#562F2F" d="M344.774,238.784c24.163,4.064,40.747,26.168,38.145,50.473c-2.704,25.252-26.822,42.646-51.485,39.254      c-24.262-3.336-40.686-26.713-38.143-50.47C295.995,252.79,320.111,235.392,344.774,238.784      c0.664,0.091,1.498-0.845,0.521-0.979c-20.32-2.794-40.005,7.454-49.204,25.827c-9.609,19.194-3.581,42.585,12.574,56.077      c15.879,13.262,39.188,13.263,56.017,1.963c17.8-11.953,24.326-35.383,16.807-55.123c-5.877-15.432-20.151-26.045-36.193-28.744      C344.631,237.692,343.804,238.621,344.774,238.784z"/>
			</g>
		</g>
		<g>
			<image xmlns="http://www.w3.org/2000/svg" overflow="visible" width="58" height="54" xmlns:xlink="http://www.w3.org/1999/xlink" xlink:href="./images/1994969D.png" transform="matrix(1 0 0 1 305 256.9995)">
			</image>
		</g>
	</g>
	<g>
		<g>
			<path fill="#E5DFDF" d="M485.891,410.593l-59.619,80.597"/>
			<g>
				<path fill="#562F2F" d="M485.534,410.66c-19.873,26.865-39.746,53.731-59.619,80.597c-0.035,0.047,0.588,0.033,0.713-0.135      c19.873-26.865,39.746-53.731,59.619-80.597C486.282,410.479,485.658,410.492,485.534,410.66L485.534,410.66z"/>
			</g>
		</g>
		<g opacity="0.4">
			<circle fill="#7DCAF9" cx="497.11" cy="386.327" r="25.682"/>
		</g>
		<g>
			<g>
				<path fill="#562F2F" d="M519.743,389.938c-2.938,16.272-19.596,25.82-35.174,19.354c-10.727-4.453-16.274-16.175-14.879-27.308      c2.071-16.531,20.301-25.529,35.177-19.355C515.595,367.082,521.142,378.805,519.743,389.938      c-0.009,0.068,0.698,0.014,0.725-0.193c1.994-15.884-9.884-29.34-25.802-29.608c-12.812-0.216-23.487,9.78-25.7,22.042      c-2.857,15.827,10.526,29.35,25.804,29.607c12.812,0.216,23.485-9.78,25.698-22.041      C520.478,389.688,519.781,389.727,519.743,389.938z"/>
			</g>
		</g>
		<image xmlns="http://www.w3.org/2000/svg" overflow="visible" width="54" height="28" xmlns:xlink="http://www.w3.org/1999/xlink" xlink:href="./images/P3t5.png" transform="matrix(1 0 0 1 468.3945 370.4102)">
</image>
	</g>
</g>
<g class="p2_car3">
	<g>
		<path fill="#FFFFFF" d="M159.594,574.797l43.569-15.081l-1.646-4.751c-1.775-5.134,0.97-10.788,6.104-12.563l3.812-1.319    c5.134-1.776,10.788,0.971,12.565,6.104l1.644,4.75l8.324-2.881c0,0,4.426-20.434-16.74-43.333c0,0-9.86-10.872-31.215-2.608    l-63.426,21.953c0,0-17.636,5.067-13.213,23.387c0,0,7.377,25.845,16.313,38.081l13.64-4.721c0,0-0.519-1.492-1.149-3.319    c-0.631-1.824,0.532-3.898,2.587-4.61l13.274-4.595c2.054-0.711,4.251,0.201,4.882,2.026c0.632,1.825,1.147,3.313,1.147,3.313"/>
	</g>
	<g>
		<g>
			<path fill="#552E2E" d="M193.482,492.539c-27.172,7.719-55.271,15.654-80.767,27.952c-1.364,0.658-0.1,1.274,0.84,0.824     c25.33-12.222,53.202-20.096,80.2-27.764C195.043,493.188,194.778,492.172,193.482,492.539L193.482,492.539z"/>
		</g>
	</g>
	<g>
		<path fill="#FFFFFF" d="M181.53,504.432c-0.71-2.054-2.97-3.15-5.023-2.439l-43.146,14.934c-2.053,0.711-3.152,2.976-2.44,5.025    L181.53,504.432z"/>
		<g>
			<path fill="#552E2E" d="M182.254,504.237c-2.044-3.798-5.23-2.684-8.456-1.564c-5.904,2.043-11.807,4.087-17.711,6.13     c-6.32,2.188-12.642,4.375-18.961,6.563c-3.475,1.203-7.764,2.011-6.934,6.774c0.048,0.27,0.856,0.017,0.977-0.024     c16.871-5.839,33.741-11.678,50.61-17.52c0.979-0.339,0.052-0.521-0.502-0.334c-16.605,5.748-33.213,11.495-49.818,17.243     c-2.913,1.008,2.346-4.482,2.389-4.501c1.26-0.436,2.521-0.872,3.78-1.308c5.071-1.756,10.143-3.512,15.214-5.27     c5.546-1.919,11.091-3.839,16.637-5.758c3.499-1.211,8.896-4.562,11.325-0.049C181,504.987,182.374,504.46,182.254,504.237z"/>
		</g>
	</g>
	<g>
		<path fill="#E5DEDE" d="M115.934,584.354c0.711,2.056,2.975,3.151,5.025,2.44l43.146-14.934c2.054-0.71,3.152-2.975,2.442-5.025    l-1.515-4.376l-50.669,17.362L115.934,584.354z"/>
		<g>
			<path fill="#552F2E" d="M115.269,584.666c2.44,4.527,6.738,2.275,10.423,1c6.746-2.335,13.492-4.67,20.237-7.005     c5.688-1.968,11.373-3.938,17.06-5.904c5.559-1.924,4.407-5.761,2.771-10.489c-0.111-0.318-0.571-0.361-0.849-0.27     c-16.891,5.788-33.779,11.575-50.668,17.362c-0.24,0.082-0.721,0.313-0.602,0.655c0.523,1.513,1.046,3.021,1.568,4.531     c0.217,0.625,1.659,0.219,1.449-0.389c-0.357-1.032-0.716-2.064-1.072-3.101c-0.462-1.334-0.507-0.978-0.894-0.846     c1.099-0.376,2.195-0.752,3.293-1.128c5.265-1.804,10.527-3.605,15.791-5.411c10.196-3.494,20.393-6.985,30.589-10.479     c0.256-0.088,0.513-0.179,0.77-0.267c-1.179,0.404-0.099,1.822,0.389,3.23c1.013,2.923-0.774,4.97-3.146,5.791     c-4.951,1.714-9.901,3.428-14.854,5.141c-5.972,2.067-11.942,4.134-17.915,6.201c-3.412,1.181-10.538,5.333-13.009,0.748     C116.313,583.514,114.923,584.024,115.269,584.666z"/>
		</g>
	</g>
	<g>
		
			<rect x="151.485" y="517.362" transform="matrix(0.945 -0.3271 0.3271 0.945 -162.596 83.5038)" fill="#FFFFFF" width="30.953" height="15.584"/>
		<g>
			<path fill="#552E2E" d="M155.157,537.731c9.75-3.375,19.5-6.749,29.248-10.124c0.091-0.031,0.533-0.188,0.476-0.355     c-1.699-4.908-3.398-9.814-5.098-14.726c-0.092-0.266-0.825-0.021-0.975,0.03c-9.75,3.375-19.5,6.749-29.249,10.124     c-0.09,0.031-0.533,0.188-0.475,0.355c1.699,4.908,3.397,9.814,5.098,14.726c0.117,0.337,1.549-0.099,1.449-0.389     c-1.35-3.899-2.7-7.799-4.05-11.698c-0.381-1.101-0.703-2.955-1.369-2.726c1.301-0.45,2.602-0.9,3.901-1.354     c8.385-2.898,16.77-5.804,25.153-8.706c-1.112,0.388-0.951-0.024-0.557,1.11c0.313,0.909,0.629,1.817,0.943,2.729     c0.909,2.628,1.819,5.255,2.729,7.882c0.276,0.798,0.553,1.596,0.829,2.395c0.265,0.768,0.811,0.236,0.352,0.396     c-1.468,0.509-2.936,1.017-4.403,1.521c-8.167,2.827-16.335,5.654-24.502,8.481C153.68,537.748,154.609,537.922,155.157,537.731z     "/>
		</g>
	</g>
	<g>
		<polygon fill="#FFFFFF" points="144.623,523.709 149.462,539.455 122.393,548.823 126.577,529.955   "/>
		<g>
			<path fill="#552E2E" d="M143.898,523.903c1.138,3.694,2.273,7.396,3.41,11.093c0.469,1.526,0.938,3.053,1.408,4.579     c-0.084-0.272,0.833-0.511-0.189-0.157c-0.801,0.277-1.602,0.555-2.401,0.831c-8.003,2.771-16.006,5.539-24.008,8.309     c0.333,0.059,0.666,0.11,1,0.166c1.39-6.268,2.778-12.532,4.169-18.803c-0.068,0.312-0.646,0.374,0.108,0.112     c0.703-0.243,1.405-0.486,2.107-0.729c1.97-0.683,3.938-1.361,5.91-2.046c3.163-1.095,6.325-2.188,9.488-3.284     c0.965-0.334,0.074-0.747-0.555-0.528c-3.163,1.096-6.327,2.188-9.49,3.283c-2.477,0.856-6.792,1.438-8.854,3.134     c-1.326,1.089-1.563,6.575-1.916,8.17c-0.805,3.631-1.61,7.262-2.416,10.893c-0.102,0.457,0.829,0.228,1,0.166     c9.022-3.123,18.046-6.246,27.068-9.368c0.148-0.052,0.515-0.24,0.447-0.46c-1.612-5.248-3.227-10.497-4.84-15.745     C145.203,523.047,143.76,523.452,143.898,523.903z"/>
		</g>
	</g>
	<g>
		<path fill="#FFFFFF" d="M183.595,510.395l5.223,15.094l28.679-9.929c0,0-9.685-13.635-18.835-10.379L183.595,510.395z"/>
		<g>
			<path fill="#552E2E" d="M182.871,510.589c1.74,5.03,3.481,10.063,5.223,15.091c0.104,0.301,0.808,0.068,0.985,0.008     c9.56-3.31,19.119-6.615,28.678-9.927c0.161-0.055,0.581-0.232,0.419-0.458c-3.636-5.041-10.374-11.954-17.273-10.893     c-5.963,0.918-11.886,3.813-17.566,5.783c-0.974,0.336-0.06,0.604,0.521,0.399c7.728-2.674,16.602-7.896,24.339-3.156     c3.307,2.025,6.13,5.074,8.454,8.148c0.101,0.133,0.773-0.295-0.75,0.232c-1.414,0.486-2.826,0.979-4.239,1.468     c-7.387,2.557-14.772,5.113-22.158,7.669c-1.568,0.543,0.128,0.583-0.184-0.314c-0.58-1.676-1.159-3.352-1.739-5.025     c-1.086-3.141-2.172-6.275-3.259-9.414C184.185,509.811,182.75,510.24,182.871,510.589z"/>
		</g>
	</g>
	<g>
		<path fill="#97C2B8" d="M233.003,531.908c0.702,1.669,2.644,2.46,4.312,1.757l0.506-0.213c1.67-0.703,2.46-2.646,1.758-4.313    l-5.534-13.147c-0.703-1.669-2.644-2.46-4.313-1.757l-0.504,0.213c-1.67,0.701-2.461,2.643-1.759,4.312L233.003,531.908z"/>
		<g>
			<path fill="#552E2E" d="M232.279,532.104c2.484,3.969,9.999,1.536,7.942-3.349c-1.817-4.317-3.635-8.64-5.453-12.959     c-1.896-4.505-9.915-1.335-7.942,3.349C228.643,523.463,230.461,527.783,232.279,532.104c0.188,0.445,1.608-0.011,1.449-0.39     c-1.021-2.426-2.042-4.853-3.063-7.275c-0.668-1.591-1.336-3.179-2.005-4.767c-0.148-0.353-0.298-0.706-0.446-1.059     c-1.229-2.918,2.603-6.424,5.104-2.432c1.34,2.141,2.086,4.958,3.063,7.278c0.668,1.588,1.337,3.176,2.005,4.764     c0.148,0.354,0.297,0.706,0.446,1.062c1.228,2.917-2.604,6.426-5.104,2.429C233.457,531.281,232.091,531.803,232.279,532.104z"/>
		</g>
	</g>
	<g>
		<g>
			<path fill="#552E2E" d="M134.037,526.979c-1.487,6.424-2.976,12.848-4.463,19.271c-0.156,0.674,1.322,0.479,1.464-0.127     c1.486-6.423,2.975-12.847,4.463-19.271C135.657,526.179,134.178,526.371,134.037,526.979L134.037,526.979z"/>
		</g>
	</g>
	<g>
		<g>
			<path fill="#552E2E" d="M167.598,500.854c0.429,1.236,0.857,2.479,1.286,3.718c0.197,0.565,1.638,0.154,1.449-0.392     c-0.43-1.235-0.857-2.478-1.286-3.717C168.851,499.896,167.41,500.308,167.598,500.854L167.598,500.854z"/>
		</g>
	</g>
	<g>
		<g>
			<path fill="#552E2E" d="M139.184,510.283c0.471,1.356,0.941,2.719,1.411,4.079c0.188,0.545,1.628,0.131,1.449-0.392     c-0.471-1.356-0.941-2.719-1.411-4.079C140.445,509.35,139.005,509.764,139.184,510.283L139.184,510.283z"/>
		</g>
	</g>
	<g>
		<g>
			<path fill="#552E2E" d="M133.551,531.259c-2.697,0.937-5.396,1.867-8.093,2.802c-0.85,0.295-0.644,1.149,0.228,0.851     c2.697-0.937,5.396-1.867,8.093-2.802C134.627,531.813,134.421,530.957,133.551,531.259L133.551,531.259z"/>
		</g>
	</g>
	<g>
		<g>
			<path fill="#552E2E" d="M132.462,535.712c-2.698,0.935-5.396,1.867-8.094,2.801c-0.869,0.303-0.607,1.351,0.278,1.041     c2.698-0.934,5.396-1.866,8.095-2.801C133.61,536.453,133.349,535.405,132.462,535.712L132.462,535.712z"/>
		</g>
	</g>
	<g>
		<g>
			<path fill="#552E2E" d="M131.424,540.5c-2.698,0.935-5.396,1.868-8.093,2.802c-0.97,0.336-0.064,0.66,0.533,0.453     c2.698-0.935,5.396-1.868,8.094-2.802C132.927,540.617,132.022,540.293,131.424,540.5L131.424,540.5z"/>
		</g>
	</g>
	<path fill="#EAD99A" d="M115.581,510.185l4.069,7.756l7.938-3.243C127.588,514.694,121.776,508.62,115.581,510.185z"/>
	<g>
		<g>
			<path fill="#552E2E" d="M114.916,510.499c1.356,2.585,2.714,5.169,4.069,7.753c0.168,0.319,0.736,0.196,0.981,0.096     c2.646-1.081,5.292-2.16,7.938-3.24c0.227-0.095,0.599-0.471,0.349-0.728c-3.291-3.384-8.053-5.672-12.801-4.675     c-0.91,0.191-0.638,1.146,0.257,0.959c4.104-0.862,8.397,1.447,11.215,4.345c0.116-0.239,0.232-0.48,0.348-0.725     c-2.646,1.081-5.292,2.162-7.938,3.243c0.327,0.028,0.653,0.063,0.98,0.096c-1.356-2.584-2.714-5.169-4.069-7.753     C115.956,509.318,114.569,509.839,114.916,510.499z"/>
		</g>
	</g>
	<g>
		<path fill="#E5DEDE" d="M205.135,514.071c3.264-1.13,6.563-0.161,7.367,2.162c0.804,2.32-1.19,5.125-4.455,6.255L205.135,514.071z    "/>
		<g>
			<path fill="#552F2E" d="M205.187,514.264c2.53-0.786,6.188-0.633,7.053,2.419c0.761,2.68-2.256,4.856-4.339,5.646     c0.169,0.021,0.339,0.042,0.509,0.063c-0.972-2.806-1.941-5.608-2.912-8.417c-0.094-0.269-0.813-0.062-0.726,0.193     c0.972,2.806,1.941,5.611,2.912,8.417c0.066,0.19,0.379,0.112,0.508,0.063c2.534-0.959,5.271-3.138,4.771-6.158     c-0.572-3.467-5.413-3.377-7.881-2.609C204.655,514.012,204.752,514.399,205.187,514.264z"/>
		</g>
	</g>
	<g>
		<path fill="#97C2B8" d="M112.993,559.636l78.27-27.09c0,0,26.446-12.095,42.127,2.706c0,0,1.624,9.782,0.578,13.804l-8.324,2.878    l-10.656,3.688l-11.822,4.094l-77.477,26.816C125.688,586.532,116.613,570.819,112.993,559.636z"/>
		<g>
			<path fill="#552E2E" d="M113.532,560.107c23.376-8.094,46.753-16.185,70.13-24.272c9.19-3.182,18.119-6.945,28.011-7.229     c6.083-0.177,12.038,1.335,17.167,4.612c1.863,1.19,3.063,2.065,3.366,4.211c0.366,2.607,0.589,5.229,0.662,7.86     c0.071,2.6,0.969,3.149-1.09,3.861c-1.675,0.579-3.349,1.156-5.023,1.734c-2.483,0.858-4.965,1.72-7.448,2.577     c-31.386,10.863-62.771,21.729-94.157,32.592c0.663,0.027,1.325,0.059,1.988,0.083c-4.924-8.558-9.546-17.521-12.695-26.896     c-0.291-0.864-3.167-0.022-2.896,0.776c3.148,9.372,7.771,18.339,12.695,26.896c0.354,0.617,1.48,0.259,1.987,0.083     c23.454-8.118,46.908-16.236,70.362-24.354c7.932-2.744,15.864-5.491,23.796-8.236c2.26-0.782,4.521-1.565,6.78-2.348     c2.378-0.821,5.917-1.316,7.939-2.861c1.938-1.479,0.452-8.658,0.238-10.64c-0.469-4.348-2.084-5.782-6.229-7.871     c-18.078-9.107-39.007,1.595-56.492,7.646c-20.057,6.941-40.111,13.883-60.167,20.824     C110.518,559.834,112.32,560.527,113.532,560.107z"/>
		</g>
	</g>
	<g>
		<path fill="#E5DEDE" d="M192.527,524.202l-1.089-3.146c-0.235-0.685,0.13-1.438,0.813-1.675l2.853-0.983    c0.685-0.238,1.439,0.128,1.676,0.813l1.09,3.146L192.527,524.202z"/>
		<g>
			<path fill="#552F2E" d="M192.889,524.104c-0.306-0.886-0.613-1.771-0.919-2.652c-0.206-0.595-0.547-1.549,0.364-1.864     c0.467-0.161,0.934-0.323,1.399-0.484c1.12-0.387,2.316-0.854,2.854,0.694c0.306,0.884,0.612,1.77,0.918,2.652     c0.102-0.104,0.203-0.207,0.305-0.313c-1.781,0.616-3.562,1.232-5.342,1.853c-0.425,0.146-0.321,0.578,0.114,0.428     c1.78-0.616,3.562-1.232,5.342-1.853c0.11-0.035,0.362-0.146,0.305-0.311c-0.363-1.049-0.726-2.097-1.089-3.146     c-0.569-1.646-2.409-0.82-3.521-0.438c-0.923,0.318-2.898,0.718-2.614,2.134c0.238,1.188,0.762,2.35,1.158,3.49     C192.266,524.592,192.987,524.387,192.889,524.104z"/>
		</g>
	</g>
	<g>
		<path fill="#E5DEDE" d="M159.338,535.688l-1.089-3.146c-0.236-0.684,0.13-1.438,0.813-1.674l2.854-0.987    c0.684-0.237,1.438,0.13,1.674,0.813l1.088,3.146L159.338,535.688z"/>
		<g>
			<path fill="#552F2E" d="M159.701,535.592c-0.307-0.885-0.613-1.77-0.919-2.652c-0.229-0.657-0.513-1.682,0.429-2.007     c0.467-0.161,0.934-0.32,1.4-0.482c1.156-0.399,2.2-0.858,2.729,0.672c0.325,0.938,0.65,1.879,0.975,2.817     c0.08-0.058,0.16-0.111,0.24-0.17c-1.78,0.615-3.56,1.231-5.34,1.85c-0.49,0.17-0.022,0.236,0.245,0.145     c1.78-0.614,3.56-1.229,5.34-1.848c0.041-0.015,0.267-0.09,0.24-0.169c-0.363-1.049-0.726-2.099-1.088-3.146     c-0.534-1.544-2.317-0.731-3.35-0.377c-1.147,0.397-2.686,0.604-2.786,2.073c-0.034,0.509,0.374,1.225,0.532,1.684     c0.209,0.604,0.417,1.204,0.626,1.81C159.031,535.942,159.747,535.724,159.701,535.592z"/>
		</g>
	</g>
	<g opacity="0.2">
		<g>
			<path fill="#552E2E" d="M207.814,532.306c-9.837,3.404-19.674,6.813-29.512,10.218c-1.951,0.675-0.108,1.12,1.021,0.729     c9.838-3.404,19.675-6.81,29.513-10.215C210.786,532.361,208.944,531.914,207.814,532.306L207.814,532.306z"/>
		</g>
	</g>
	<g opacity="0.2">
		<g>
			<path fill="#552E2E" d="M174.198,543.889c-3.338,1.155-6.676,2.313-10.014,3.467c-0.201,0.068-1.29,0.569-0.835,0.932     c0.471,0.373,1.4,0.063,1.882-0.104c3.338-1.152,6.676-2.311,10.015-3.466c0.2-0.067,1.29-0.57,0.835-0.93     C175.609,543.412,174.68,543.722,174.198,543.889L174.198,543.889z"/>
		</g>
	</g>
	<g opacity="0.2">
		<g>
			<path fill="#552E2E" d="M183.198,544.691c-14.022,4.854-28.045,9.705-42.067,14.561c-1.913,0.662-0.168,1.708,1.16,1.248     c14.022-4.854,28.045-9.707,42.067-14.563C186.271,545.277,184.526,544.231,183.198,544.691L183.198,544.691z"/>
		</g>
	</g>
	<g opacity="0.2">
		<g>
			<path fill="#552E2E" d="M135.353,561.481c-4.758,1.646-9.517,3.293-14.273,4.938c-1.944,0.673-0.12,1.23,1.047,0.826     c4.758-1.646,9.517-3.293,14.273-4.94C138.344,561.635,136.52,561.077,135.353,561.481L135.353,561.481z"/>
		</g>
	</g>
	<g opacity="0.2">
		<g>
			<path fill="#552E2E" d="M200.945,539.427c-3.338,1.155-6.676,2.313-10.014,3.466c-0.375,0.134-1.211,0.717-0.766,1.19     c0.466,0.498,1.388,0.229,1.922,0.044c3.338-1.155,6.676-2.311,10.014-3.466c0.375-0.13,1.211-0.714,0.767-1.19     C202.4,538.973,201.479,539.242,200.945,539.427L200.945,539.427z"/>
		</g>
	</g>
	<g opacity="0.2">
		<g>
			<path fill="#552E2E" d="M191.915,545.538c-9.837,3.404-19.673,6.81-29.511,10.215c-1.716,0.594-1.253,2.485,0.504,1.877     c9.837-3.403,19.673-6.81,29.51-10.215C194.134,546.821,193.671,544.93,191.915,545.538L191.915,545.538z"/>
		</g>
	</g>
	<g opacity="0.2">
		<g>
			<path fill="#552E2E" d="M158.04,557.694c-3.337,1.152-6.676,2.311-10.013,3.466c-0.2,0.066-1.29,0.567-0.835,0.93     c0.472,0.373,1.4,0.063,1.883-0.104c3.337-1.155,6.675-2.313,10.012-3.469c0.201-0.066,1.29-0.567,0.835-0.93     C159.451,557.218,158.522,557.527,158.04,557.694L158.04,557.694z"/>
		</g>
	</g>
	<g opacity="0.2">
		<g>
			<path fill="#552E2E" d="M184.789,553.232c-3.338,1.152-6.678,2.311-10.017,3.466c-0.375,0.13-1.211,0.714-0.766,1.188     c0.466,0.498,1.388,0.229,1.922,0.044c3.338-1.152,6.677-2.311,10.016-3.466c0.375-0.131,1.211-0.714,0.767-1.188     C186.244,552.777,185.322,553.048,184.789,553.232L184.789,553.232z"/>
		</g>
	</g>
	<path fill="#FFFFFF" d="M225.883,552.541c-0.938-2.708-2.026-5.856-2.644-7.636c-1.335-3.859-6.628-5.563-11.762-3.785   l-4.229,1.464c-5.136,1.777-8.242,6.389-6.906,10.248c0.617,1.782,1.707,4.933,2.646,7.644   C211.573,557.502,216.319,555.859,225.883,552.541z"/>
	<g>
		<circle fill="#E5DEDE" cx="213.401" cy="553.56" r="7.572"/>
		<g>
			<path fill="#552F2E" d="M204.797,556.426c4.019,9.957,20.254,4.743,17.209-5.729     C219.006,540.377,201.766,545.996,204.797,556.426c0.265,0.913,3.157,0.115,2.896-0.774c-0.903-3.111-0.084-6.389,2.719-8.242     c3.451-2.287,7.444,0.963,8.695,4.063c1.197,2.97-0.117,6.521-2.718,8.243c-3.453,2.286-7.444-0.964-8.696-4.063     C207.322,554.726,204.471,555.617,204.797,556.426z"/>
		</g>
	</g>
	<g>
		<g>
			<path fill="#552E2E" d="M159.811,575.606c14.523-5.026,29.046-10.057,43.569-15.081c0.414-0.146,1.455-0.557,1.231-1.198     c-2.29-6.615-3.792-13.688,4.729-16.637c4.668-1.616,8.842-1.433,12.129,2.726c1.42,1.797,1.989,4.777,2.726,6.906     c0.209,0.604,1.18,0.59,1.666,0.421c2.552-0.882,9.274-1.595,9.717-4.812c0.899-6.55-0.471-13.389-2.558-19.567     c-2.897-8.583-8.508-18.479-15.583-24.244c-5.207-4.243-12.19-5.261-18.697-4.896c-5.991,0.34-11.605,2.612-17.215,4.557     c-6.199,2.146-12.398,4.292-18.599,6.438c-12.938,4.479-25.876,8.957-38.814,13.438c-8.736,3.021-16.205,8.525-16.89,18.55     c-0.407,5.962,2.389,12.282,4.31,17.771c3.281,9.382,7.036,18.992,12.817,27.146c0.293,0.413,1.153,0.359,1.556,0.22     c4.547-1.573,9.094-3.146,13.64-4.721c0.414-0.146,1.456-0.554,1.231-1.198c-0.882-2.544-2.01-5.964,1.363-7.132     c1.827-0.632,3.653-1.265,5.48-1.896c1.826-0.634,3.653-1.266,5.479-1.896c3.477-1.202,4.512,1.605,5.521,4.521     c0.387,1.116,3.268,0.291,2.896-0.775c-1.057-3.05-2.102-6.511-6.066-6.076c-2.81,0.309-5.627,1.696-8.267,2.609     c-2.259,0.779-4.885,1.328-7.015,2.43c-4.26,2.2-3.732,4.842-2.292,8.996c0.411-0.399,0.82-0.799,1.231-1.198     c-4.546,1.573-9.093,3.146-13.639,4.721c0.519,0.073,1.038,0.146,1.556,0.223c-6.112-8.623-9.894-18.882-13.314-28.812     c-2.297-6.668-4.878-13.377-2.604-20.456c3.013-9.379,14.03-11.608,22.142-14.419c14.416-4.988,28.831-9.979,43.247-14.969     c12.132-4.199,27.171-11.03,38.563-1.745c7.862,6.408,13.403,17.501,16.151,27.075c1.479,5.157,2.411,11.252,1.303,16.595     c0.413-0.323,0.825-0.646,1.238-0.969c-2.775,0.959-5.55,1.918-8.324,2.878c0.555,0.141,1.11,0.28,1.666,0.421     c-1.124-3.248-1.945-7.184-4.857-9.362c-3.909-2.928-8.058-2.937-12.518-1.394c-4.321,1.496-7.744,3.256-9.578,7.732     c-1.607,3.922,0.297,7.888,1.576,11.581c0.411-0.397,0.821-0.8,1.231-1.196c-14.522,5.023-29.046,10.054-43.568,15.081     C157.687,574.572,158.077,576.207,159.811,575.606L159.811,575.606z"/>
		</g>
	</g>
	<path fill="#FFFFFF" d="M159.75,576.288l-1.724-4.978c-0.592-1.712-2.477-2.629-4.188-2.034l-13.725,4.751   c-1.71,0.591-2.627,2.478-2.032,4.188l1.648,4.77L159.75,576.288z"/>
	<g>
		<path fill="#E5DEDE" d="M141.11,578.581c1.368,3.953,5.682,6.048,9.634,4.68c3.954-1.368,6.048-5.68,4.68-9.634    c-1.367-3.951-5.68-6.048-9.632-4.679C141.836,570.315,139.743,574.63,141.11,578.581z"/>
		<g>
			<path fill="#552F2E" d="M139.661,578.97c4.177,10.352,20.357,5.105,17.21-5.729c-1.402-4.825-6.946-6.599-11.355-5.314     C140.775,569.303,138.328,574.379,139.661,578.97c0.398,1.374,3.294,0.59,2.896-0.774c-0.936-3.224,0.104-6.46,3.163-8.07     c3.335-1.755,7.015,0.827,8.252,3.894c1.247,3.092-0.327,6.579-3.161,8.07c-3.336,1.756-7.016-0.827-8.254-3.894     C142.02,576.857,139.139,577.677,139.661,578.97z"/>
		</g>
	</g>
</g>


	

</svg>
