<?xml version="1.0" encoding="utf-8"?>
<!-- Generator: Adobe Illustrator 16.0.0, SVG Export Plug-In . SVG Version: 6.00 Build 0)  -->
<!DOCTYPE svg PUBLIC "-//W3C//DTD SVG 1.1//EN" "http://www.w3.org/Graphics/SVG/1.1/DTD/svg11.dtd">
<svg version="1.1" id="图层_1" xmlns="http://www.w3.org/2000/svg" xmlns:xlink="http://www.w3.org/1999/xlink" x="0px" y="0px"
	 width="960px" height="640px" viewBox="0 0 960 640" enable-background="new 0 0 960 640" xml:space="preserve">
	<g class="p4_txt">
		<image xmlns="http://www.w3.org/2000/svg" overflow="visible" width="495" height="149" xmlns:xlink="http://www.w3.org/1999/xlink" xlink:href="./images/68611709.png" transform="matrix(1 0 0 1 36.4727 390.8926)">
		</image>
	</g>
<g class="p4_bg">
	<g opacity=".3">
		<g>
			<g>
				<path fill="#85A7A4" d="M-0.148,30.379c13.763,0.226,27.507-0.364,41.168-2.088c0.327-0.041,0.62-0.408,0.114-0.344
					c-13.603,1.716-27.284,2.296-40.986,2.072C-0.091,30.016-0.635,30.371-0.148,30.379L-0.148,30.379z"/>
			</g>
		</g>
		<g>
			<path fill="#D64E4B" d="M2.189,30.01l5.589,0.129c0,0-2.658,4.197-2.417,6.096C5.361,36.234,2.845,33.053,2.189,30.01z"/>
		</g>
		<g>
			<path fill="#9A4F9B" d="M11.445,30.082l5.59-0.104c0,0-2.478,4.305-2.154,6.191C14.881,36.17,12.23,33.098,11.445,30.082z"/>
		</g>
		<g>
			<path fill="#EF8C9C" d="M20.814,29.771l5.582-0.311c0,0-2.311,4.395-1.913,6.268C24.483,35.729,21.714,32.754,20.814,29.771z"/>
		</g>
		<g>
			<path fill="#299FD0" d="M30.068,29.242l5.562-0.563c0,0-2.102,4.492-1.619,6.346C34.011,35.025,31.106,32.182,30.068,29.242z"/>
		</g>
		<ellipse fill="#538481" cx="41.077" cy="28.119" rx="0.647" ry="0.637"/>
		<ellipse fill="#7D9D9A" cx="41.077" cy="28.119" rx="0.647" ry="0.637"/>
		<g>
			<g>
				<path fill="#85A7A4" d="M40.85,28.295c10.571,1.431,21.31,1.908,31.963,2.103c0.239,0.004,0.783-0.351,0.296-0.359
					c-10.602-0.195-21.285-0.672-31.804-2.095C41.109,27.917,40.457,28.242,40.85,28.295L40.85,28.295z"/>
			</g>
		</g>
		<g>
			<path fill="#6CB65A" d="M45.957,28.65l5.571,0.459c0,0-2.912,4.033-2.785,5.941C48.743,35.051,46.426,31.729,45.957,28.65z"/>
		</g>
		<g>
			<path fill="#EFBA41" d="M55.548,29.33l5.574,0.459c0,0-2.914,4.033-2.788,5.943C58.334,35.732,56.017,32.406,55.548,29.33z"/>
		</g>
		<g>
			<path fill="#E2862F" d="M64.996,29.855l5.586,0.209c0,0-2.721,4.158-2.507,6.061C68.075,36.125,65.604,32.908,64.996,29.855z"/>
		</g>
		<ellipse fill="#7D9D9A" cx="41.077" cy="28.119" rx="0.647" ry="0.637"/>
		<g>
			<g>
				<path fill="#85A7A4" d="M0.692,6.219c0.237,0,0.783-0.359,0.296-0.359C0.75,5.859,0.205,6.219,0.692,6.219L0.692,6.219z"/>
			</g>
		</g>
		<g>
			<g>
				<path fill="#85A7A4" d="M-0.658,6.219c0.237,0,0.783-0.359,0.296-0.359C-0.599,5.859-1.145,6.219-0.658,6.219L-0.658,6.219z"/>
			</g>
		</g>
		<ellipse fill="#538481" cx="0.84" cy="6.039" rx="0.647" ry="0.637"/>
		<ellipse fill="#7D9D9A" cx="0.84" cy="6.039" rx="0.647" ry="0.637"/>
		<g>
			<g>
				<path fill="#85A7A4" d="M0.61,6.215C24.325,9.43,48.974,9.198,72.668,6.211c0.327-0.041,0.62-0.408,0.114-0.344
					C49.208,8.839,24.658,9.063,1.065,5.863C0.87,5.837,0.218,6.162,0.61,6.215L0.61,6.215z"/>
			</g>
		</g>
		<ellipse fill="#7D9D9A" cx="0.839" cy="6.039" rx="0.646" ry="0.637"/>
		<g>
			<path fill="#6CB65A" d="M5.719,6.57l5.572,0.459c0,0-2.912,4.033-2.787,5.941C8.504,12.971,6.186,9.648,5.719,6.57z"/>
		</g>
		<g>
			<path fill="#EFBA41" d="M15.311,7.25l5.571,0.459c0,0-2.912,4.033-2.786,5.943C18.096,13.652,15.777,10.326,15.311,7.25z"/>
		</g>
		<g>
			<path fill="#E2862F" d="M24.757,7.775l5.588,0.209c0,0-2.724,4.158-2.509,6.061C27.836,14.045,25.366,10.828,24.757,7.775z"/>
		</g>
		<g>
			<path fill="#D64E4B" d="M33.838,7.93l5.59,0.129c0,0-2.657,4.197-2.416,6.096C37.012,14.154,34.493,10.973,33.838,7.93z"/>
		</g>
		<g>
			<path fill="#9A4F9B" d="M43.094,8.002l5.591-0.104c0,0-2.478,4.305-2.154,6.191C46.53,14.09,43.879,11.018,43.094,8.002z"/>
		</g>
		<g>
			<path fill="#EF8C9C" d="M52.463,7.691l5.585-0.311c0,0-2.313,4.395-1.916,6.268C56.132,13.648,53.364,10.674,52.463,7.691z"/>
		</g>
		<g>
			<path fill="#299FD0" d="M61.717,7.162L67.279,6.6c0,0-2.103,4.492-1.62,6.346C65.659,12.945,62.756,10.102,61.717,7.162z"/>
		</g>
		<path fill="none" stroke="#85A7A4" stroke-width="0.25" stroke-miterlimit="10" d="M0,30.199"/>
	</g>
</g>
<g class="p4_girl">
	<g>
		<g>
			
				<ellipse transform="matrix(0.9677 -0.2523 0.2523 0.9677 -29.3991 135.2105)" fill="#8DD7FC" cx="512.594" cy="182.256" rx="36.906" ry="19.368"/>
		</g>
		<g>
			<g>
				<g>
					<path fill="#562F2F" d="M498.127,182.029c-4.137-4.481-10.252,0.886-9.629,5.922c0.325,2.63,1.811,4.876,4.694,4.667      c2.772-0.202,4.712-3.127,6.311-5.046c0.593-0.712-0.782-0.982-1.221-0.456c-0.97,1.165-1.88,2.367-3.026,3.37      c-2.104,1.838-4.269,0.86-5.06-1.577c-0.56-1.725-0.323-3.726,0.641-5.247c1.369-2.16,4.101-3.005,5.966-0.983      C497.266,183.18,498.637,182.582,498.127,182.029L498.127,182.029z"/>
				</g>
			</g>
			<g>
				<g>
					<path fill="#562F2F" d="M499.115,185.717c1.837-0.501,5.578-0.585,6.212-2.848c0.19-0.681-1.292-0.508-1.467,0.114      c-0.218,0.777-1.718,0.996-2.363,1.157c-0.877,0.219-1.771,0.362-2.644,0.6C497.962,184.983,498.223,185.96,499.115,185.717      L499.115,185.717z"/>
				</g>
			</g>
			<g>
				<g>
					<path fill="#562F2F" d="M500.633,181.157c-0.778,1.864,0.192,4.592,1.019,6.277c1.026,2.094,3.029,2.275,4.284,0.272      c0.434-0.694-1.045-0.734-1.391-0.183c-0.418,0.667-0.543,0.714-1.044,0.11c-0.474-0.572-0.749-1.301-0.991-1.993      c-0.413-1.181-1-3.073-0.486-4.301C502.35,180.558,500.89,180.542,500.633,181.157L500.633,181.157z"/>
				</g>
			</g>
			<g>
				<g>
					<path fill="#562F2F" d="M505.729,183.778c1.405,0.618,1.718,2.105,1.937,3.479c0.06,0.372,1.45,0.031,1.449-0.389      c-0.003-1.381-0.618-3.828,1.121-4.405c0.103-0.034,0.645-0.286,0.418-0.466c-0.237-0.188-0.698-0.029-0.941,0.052      c-0.975,0.323-1.726,0.891-2.012,1.907c-0.297,1.053-0.037,2.228-0.035,3.301c0.483-0.13,0.966-0.259,1.449-0.389      c-0.249-1.558-0.654-3.014-2.208-3.697C506.562,183.02,505.233,183.56,505.729,183.778L505.729,183.778z"/>
				</g>
			</g>
			<g>
				<g>
					<path fill="#562F2F" d="M509.084,172.747c0.752,2.861,1.315,14.665,6.613,12.384c0.914-0.394,0.101-1.154-0.637-0.837      c-2.708,1.166-4.099-10.305-4.527-11.936C510.359,171.698,508.91,172.085,509.084,172.747L509.084,172.747z"/>
				</g>
			</g>
			<g>
				<g>
					<path fill="#562F2F" d="M520.34,175.906c1.77-0.517,3.497-1.162,5.266-1.68c0.841-0.246,0.711-0.76-0.137-0.512      c-1.77,0.518-3.497,1.163-5.266,1.68C519.362,175.64,519.492,176.154,520.34,175.906L520.34,175.906z"/>
				</g>
			</g>
			<g>
				<g>
					<path fill="#562F2F" d="M521.799,172.763c0.523,1.824,1.044,3.648,1.566,5.473c0.139,0.482,1.585,0.086,1.449-0.389      c-0.522-1.824-1.043-3.648-1.566-5.473C523.109,171.892,521.663,172.288,521.799,172.763L521.799,172.763z"/>
				</g>
			</g>
			<g>
				<g>
					<path fill="#562F2F" d="M529.795,168.127c2.219,0.14,4.395,0.604,6.625,0.594c-0.218-0.102-0.435-0.203-0.652-0.305      c0.682,3.221-2.825,5.475-2.718,8.655c0.011,0.334,0.347,0.489,0.659,0.435c1.325-0.23,2.631-0.553,3.956-0.783      c0.762-0.133,1.129-1.169,0.145-0.998c-1.324,0.231-2.631,0.553-3.956,0.783c0.22,0.145,0.439,0.29,0.659,0.435      c-0.11-3.275,3.426-5.502,2.704-8.916c-0.06-0.282-0.431-0.306-0.652-0.305c-2.1,0.01-4.162-0.461-6.254-0.593      C529.643,167.088,528.812,168.065,529.795,168.127L529.795,168.127z"/>
				</g>
			</g>
		</g>
		<g>
			<g>
				<path fill="#562F2F" d="M547.332,170.81c3.092,14.344-17.41,23.386-27.932,26.531c-11.047,3.303-35.958,6.281-40.594-8.687     c-1.679-5.421,2.237-10.905,5.806-14.527c5.925-6.012,14.169-9.626,22.125-12.006     C517.784,158.818,542.696,155.844,547.332,170.81c0.302,0.974,3.189,0.163,2.898-0.776c-5.048-16.295-31.87-12.567-43.861-9.288     c-11.436,3.127-33.772,13.32-30.46,28.685c1.395,6.473,8.807,9.471,14.469,10.899c9.551,2.408,20.047,0.941,29.392-1.613     c11.435-3.126,33.772-13.317,30.461-28.683C550.024,169.078,547.116,169.809,547.332,170.81z"/>
			</g>
		</g>
	</g>
	<g>
		<g>
			<polygon fill="#F7E0DC" points="662.693,400.148 678.428,563.291 683.4,563.291 679.258,400.148    "/>
			<g>
				<path fill="#562F2F" d="M661.606,400.439c4.764,49.388,9.526,98.775,14.29,148.163c0.481,4.993,0.963,9.986,1.444,14.979      c0.023,0.243,0.493,0.248,0.644,0.248c1.657,0,3.314,0,4.973,0c0.436,0,1.545-0.232,1.53-0.83      c-1.259-49.551-2.517-99.103-3.774-148.653c-0.123-4.83-0.246-9.659-0.368-14.489c-0.007-0.241-0.508-0.248-0.644-0.248      c-5.521,0-11.043,0-16.564,0c-0.71,0-2.348,1.078-0.887,1.078c2.595,0,5.19,0,7.785,0c1.87,0,3.74,0,5.61,0      c0.678,0,1.354,0,2.032,0c1.428,0,0.503,0.115,0.493-0.24c0.044,1.705,0.087,3.41,0.13,5.114      c0.273,10.745,0.546,21.489,0.819,32.234c0.798,31.418,1.595,62.837,2.393,94.255c0.268,10.511,0.534,21.021,0.801,31.531      c0.511-0.276,1.021-0.553,1.53-0.83c-1.398,0-2.797,0-4.195,0c-1.207,0-0.115,0.439-0.153,0.049      c-0.073-0.765-0.147-1.529-0.221-2.294c-0.345-3.572-0.689-7.146-1.034-10.719c-1.257-13.036-2.515-26.072-3.771-39.108      c-2.938-30.456-5.875-60.911-8.813-91.367c-0.625-6.485-1.251-12.971-1.876-19.455      C663.724,399.268,661.537,399.716,661.606,400.439z"/>
			</g>
		</g>
		<g>
			<polygon fill="#F7E0DC" points="706.584,400.148 690.848,563.291 685.881,563.291 690.023,400.148    "/>
			<g>
				<path fill="#562F2F" d="M705.497,400.439c-4.764,49.388-9.527,98.775-14.291,148.163c-0.481,4.993-0.964,9.986-1.445,14.979      c0.596-0.25,1.191-0.5,1.787-0.75c-4.06,0-4.609,1.325-4.517-2.345c0.092-3.6,0.183-7.2,0.274-10.8      c0.333-13.121,0.666-26.242,0.999-39.363c0.775-30.513,1.55-61.025,2.325-91.539c0.16-6.31,0.32-12.618,0.48-18.928      c-0.596,0.25-1.191,0.5-1.787,0.75c5.52,0,11.04,0,16.561,0c0.474,0,2.482-0.918,1.4-0.918c-5.52,0-11.04,0-16.561,0      c-0.414,0-1.771,0.146-1.787,0.75c-1.258,49.551-2.517,99.103-3.774,148.653c-0.123,4.83-0.245,9.659-0.368,14.489      c-0.003,0.138,0.319,0.168,0.387,0.168c1.655,0,3.311,0,4.967,0c0.448,0,1.728-0.14,1.787-0.75      c4.764-49.388,9.527-98.775,14.291-148.163c0.481-4.993,0.964-9.986,1.445-14.979      C707.702,399.53,705.563,399.765,705.497,400.439z"/>
			</g>
		</g>
		<g>
			<g>
				<path fill="#68312A" d="M565.715,357.514C565.098,357.475,565.154,357.488,565.715,357.514L565.715,357.514z"/>
				<g>
					<path fill="#562F2F" d="M566.287,356.724c-0.147-0.008-0.295-0.016-0.441-0.023c-1.058-0.059-3.102,1.472-1.145,1.579       c0.147,0.008,0.294,0.016,0.441,0.024C566.2,358.361,568.244,356.831,566.287,356.724c-0.147-0.008-0.295-0.016-0.441-0.023       c-1.058-0.059-3.102,1.472-1.145,1.579c0.147,0.008,0.294,0.016,0.441,0.024C566.2,358.361,568.244,356.831,566.287,356.724z"/>
				</g>
			</g>
			<g>
				<path fill="#68312A" d="M864.021,313.637c0,0,2.484,72.461-57.555,24.014c0,0-7.867-6.209-5.797-15.732      c2.07-9.525-9.523-14.08-12.836-14.08c0,0,14.08-7.451,3.727-19.461c0,0,12.01-8.693-15.732-33.123      c0,0-4.141-7.867,6.209-14.078c10.354-6.211,8.695-16.977,2.07-25.262c0,0,14.492-24.844-12.008-46.373      c0,0,5.797-17.389-15.736-26.086c0,0-18.217-54.242-81.156-21.945c0,0-68.891,4.967-49.352,58.383c0,0-2.92,3.76-3.814,7.945      c-6.592,5.854-17.197,10.146-21.68,17.547c-8.449,14.402,3.791,18.076,10.246,28.773c4.633,6.867-0.086,8.584-3.832,13.58      c-4.682,5.338-4.859,10.746,2.164,16.533c4.156,3.191,11.551,1.785,14.811,4.873c0.396,0.41,0.695,0.842,0.949,1.287      c-2.627,4.396-4.211,10.473-2.918,18.771c3.74,24.018-7.441,18.221-17.791,23.604c-10.354,5.383-3.314,12.838-6.627,15.734      c-3.314,2.9-15.32,2.072-8.695,16.979c5.674,12.758-19.275,12.17-22.953,11.994c0.063,0.006,0.104,0.01,0.178,0.014      c0,0-27.326-1.656-37.263,25.67c0,0-4.967,16.15-29.4,0c0,0,24.014,55.074,66.251,25.26c0,0,28.568-15.322,32.711-42.648      c4.143-27.33,16.148-18.219,25.674-18.219c9.521,0,14.908-17.807,12.422-22.359c-2.488-4.557,8.279,14.906,33.537-7.041      c25.258-21.943,50.518-15.734,50.518-15.734l4.139-6.625c0,0,3.73,14.908,22.777,6.213c0,0-10.355,19.875,14.49,20.701      c0,0,9.111,6.213,4.143,13.664c0,0,3.311,16.15,16.146,4.557c0,0,2.896,57.555,64.186,32.297      C846.223,373.262,880.588,351.73,864.021,313.637z"/>
				<g>
					<path fill="#562F2F" d="M862.555,313.75c0.398,12.324-1.744,31.109-13.724,37.703c-13.063,7.189-30.384-6.119-39.987-13.628       c-2.543-1.988-4.482-4.303-5.857-7.263c-2.104-4.534-0.008-8.952-0.912-13.553c-1.104-5.621-8.367-9.925-13.736-10.216       c0.045,0.63,0.09,1.26,0.136,1.89c8.516-4.637,10.539-13.303,4.414-20.942c-0.123,0.43-0.245,0.859-0.368,1.289       c7.244-5.408,0.569-16.688-3.226-21.784c-1.705-2.29-3.653-4.394-5.622-6.456c-1.535-1.608-5.592-4.156-6.5-6.151       c-2.109-4.629,0.746-9.06,4.378-11.867c3.588-2.773,7.365-4.848,8.695-9.547c1.29-4.558,0.458-9.312-1.842-13.436       c-1.621-2.907-3.232-2.826-1.991-5.586c1.105-2.456,1.855-5.071,2.412-7.7c1.787-8.439,0.108-16.999-3.973-24.508       c-1.41-2.595-3.253-4.927-5.172-7.157c-0.221-0.256-5.926-5.973-6.187-5.165c0.466-1.446,0.661-2.958,0.758-4.469       c0.448-7.014-2.9-13.16-8.127-17.628c-1.786-1.527-3.91-2.79-6.028-3.792c-0.306-0.144-2.225-0.558-2.373-0.968       c-0.331-0.917-0.721-1.814-1.123-2.703c-1.65-3.648-3.72-7.097-6.085-10.324c-7.481-10.213-18.4-17.06-30.919-19.058       c-8.826-1.409-17.92-0.055-26.437,2.368c-5.373,1.529-10.562,3.699-15.604,6.081c-1.771,0.836-2.109,1.246-3.83,1.437       c-9.402,1.043-18.761,3.487-27.396,7.352c-11.501,5.147-21.452,13.849-24.558,26.447c-2.012,8.159-0.415,16.838,2.204,24.651       c0.475,1.417-0.83,2.616-1.718,4.257c-1.458,2.698-1.781,4.472-4.378,6.406c-4.706,3.505-10.053,6.181-14.377,10.194       c-6.863,6.37-10.028,15.215-4.005,23.12c2.842,3.73,6.401,6.8,9.096,10.669c2.429,3.486,3.314,6.254,0.405,9.68       c-1.787,2.104-3.975,4.041-5.329,6.479c-2.213,3.981-2.057,7.535,0.394,11.366c2.97,4.644,7.679,5.859,12.753,6.656       c1.746,0.274,3.414,0.611,4.994,1.447c1.981,1.049,0.487,2.833-0.021,3.994c-0.899,2.054-1.355,4.294-1.695,6.495       c-1.011,6.533,1.192,13.031,0.898,19.578c-0.463,10.305-10.516,9.042-17.641,12.556c-4.373,2.157-6.963,5.703-6.743,10.617       c0.073,1.629,1.003,4.38-0.576,5.597c-1.278,0.986-3.242,1.371-4.716,1.989c-2.453,1.029-5,2.849-5.716,5.555       c-1.402,5.299,3.015,9.493,2.328,14.512c-0.964,7.055-16.633,6.461-21.709,6.238c-1.367-0.061-2.998,1.938-1.008,2.09       c0.06,0.005,0.119,0.01,0.178,0.014c0.336-0.696,0.672-1.394,1.008-2.09c-11.061-0.605-22.422,4.241-30.179,11.942       c-3.397,3.373-5.91,7.56-7.884,11.887c-0.785,1.722-1.225,3.523-2.317,5.086c-6.117,8.748-19.287,1.071-25.669-3.032       c-0.689-0.443-3.096,0.018-2.567,1.221c9.388,21.371,30.647,40.92,55.296,32.591c12.139-4.102,24.572-13.729,33.022-23.13       c6.625-7.371,11.391-16.256,13.333-25.995c1.733-8.694,3.152-20.993,14.631-19.69c7.48,0.849,13.295,2.779,18.812-3.867       c2.753-3.315,4.297-7.65,5.146-11.82c0.606-2.977-0.188-4.895-0.633-7.541c-0.396,0.457-0.79,0.915-1.186,1.372       c-1.102,0.397-1.708-0.465-0.571,0.478c0.603,0.5,1.248,0.939,1.911,1.354c1.936,1.21,4.106,1.901,6.334,2.326       c8.11,1.547,16.251-2.843,22.6-7.364c6.315-4.497,11.688-9.57,18.655-13.184c5.493-2.85,11.494-4.721,17.589-5.73       c5.29-0.876,11.886-1.128,16.784,0.04c0.854,0.204,1.74-0.038,2.222-0.809c1.38-2.208,2.76-4.417,4.139-6.625       c-0.944,0.076-1.889,0.151-2.833,0.227c3.039,11.538,16.242,10.403,24.866,6.67c-0.675-0.335-1.35-0.671-2.023-1.006       c-1.745,3.407-2.541,7.433-2.056,11.224c0.357,2.798,1.959,5.108,4.065,6.887c1.493,1.26,3.442,1.999,5.271,2.595       c0.826,0.27,1.738,0.437,2.586,0.62c1.045,0.228,4.266-0.072,4.97,0.425c4.239,2.987,6.547,7.795,3.797,12.614       c-0.651,1.141,1.106,3.98,1.585,4.937c3.833,7.65,11.675,4.905,16.904,0.435c-0.809-0.181-1.617-0.36-2.426-0.54       c0.913,17.167,11.217,35.207,29.054,38.794c8.246,1.658,16.62,0.63,24.692-1.455c5.533-1.429,11.224-3.048,15.761-6.607       c11.377-8.927,19.269-22.123,19.906-36.729c0.329-7.524-1.622-14.951-4.513-21.833c-0.54-1.286-3.415-0.455-2.898,0.776       c7.596,18.084,4.797,36.674-8.562,51.088c-9.545,10.299-24.227,14.215-38.061,13.408c-19.593-1.144-31.496-19.821-32.446-37.67       c-0.062-1.171-1.718-1.145-2.426-0.54c-3.838,3.281-8.237,5.572-11.655,0.744c-1.029-1.453-1.675-3.258-2.073-4.986       c-0.043-0.191,1.448-3.771,1.489-4.504c0.085-1.525-0.519-3.27-1.304-4.558c-1.206-1.979-2.766-3.754-4.669-5.096       c-1.069-0.753-3.579-0.418-4.872-0.582c-2.562-0.325-5.026-1.147-7.212-2.518c-2.524-1.584-3.781-4.257-4.147-7.117       c-0.4-3.126,0.584-6.712,2.007-9.491c0.639-1.247-1.365-1.291-2.023-1.006c-7.434,3.218-18.138,3.93-20.688-5.756       c-0.343-1.299-2.363-0.524-2.833,0.227c-1.38,2.208-2.76,4.417-4.139,6.625c0.74-0.27,1.481-0.539,2.222-0.809       c-14.676-3.5-31.042,1.771-43.44,9.419c-10.25,6.323-19.401,18.631-32.855,16.668c-2.37-0.346-4.597-1.438-6.506-2.85       c-0.806-0.597-1.553-1.6-2.703-1.185c-0.602,0.217-1.312,0.617-1.185,1.371c0.36,2.146,1.033,3.694,0.746,6.073       c-0.578,4.79-2.807,9.654-6.101,13.163c-4.707,5.013-13.098,0.357-19.044,1.069c-6.643,0.796-10.102,7.008-11.71,12.884       c-1.632,5.963-2.155,12.025-4.408,17.831c-2.058,5.301-5.224,10.116-8.789,14.512c-8.652,10.667-23.434,21.73-36.937,25.021       c-16.488,4.018-30.734-7.226-39.901-19.727c-2.937-4.004-5.666-8.367-7.668-12.927c-0.856,0.407-1.712,0.813-2.567,1.221       c7.985,5.133,27.275,13.715,31.902-0.671c4.709-14.641,19.827-25.636,35.375-24.786c1.38,0.076,2.988-1.938,1.008-2.09       c-0.06-0.005-0.119-0.01-0.178-0.014c-0.336,0.696-0.672,1.394-1.008,2.09c7.568,0.333,18.86,0.513,24.311-5.71       c3.987-4.552-1.51-10.778-1.312-15.76c0.214-5.373,6.81-5.348,10.112-7.895c1.397-1.078,1.535-2.797,1.443-4.425       c-0.288-5.1-0.206-8.195,4.864-11.118c4.187-2.414,9.309-2.374,13.623-4.497c4.326-2.129,5.523-6.66,5.725-11.131       c0.211-4.689-0.98-9.303-1.182-13.968c-0.204-4.724,0.975-9.365,3.287-13.463c0.141-0.249,0.11-0.571-0.057-0.797       c-2.609-3.538-6.7-3.729-10.77-4.41c-4.454-0.746-7.809-3.501-9.761-7.572c-1.943-4.051,0.974-7.755,3.367-10.753       c2.422-3.034,5.346-5.062,5.033-9.256c-0.348-4.667-5.874-9.553-8.853-12.743c-3.248-3.479-6.281-7.028-6.037-12.071       c0.354-7.33,6.859-12.526,12.362-16.306c2.399-1.648,4.872-3.188,7.275-4.831c1.361-0.931,4.039-2.32,4.78-3.854       c1.266-2.619,1.8-5.1,3.515-7.516c0.921-1.298-0.415-3.221-0.84-4.573c-4.985-15.853-1.218-31.33,12.476-41.155       c9.188-6.593,20.769-9.944,31.838-11.632c1.635-0.25,3.46-0.202,5.058-0.63c2.111-0.565,4.28-2.065,6.281-2.978       c3.035-1.383,6.154-2.569,9.313-3.634c5.026-1.695,10.23-2.818,15.505-3.349c13.968-1.405,27.381,3.448,37.1,13.533       c4.743,4.921,8.716,10.999,11.115,17.419c0.615,1.646,3.33,2.089,4.668,2.79c4.503,2.359,8.28,6.021,10.373,10.673       c1.653,3.675,2.087,8.715,0.89,12.433c-0.136,0.422-0.082,0.701,0.266,0.993c13.008,10.9,20.896,29.425,11.742,45.38       c-0.141,0.244-0.112,0.576,0.057,0.797c3.289,4.308,5.593,9.106,5.062,14.633c-0.66,6.862-7.616,8.959-11.636,13.421       c-2.11,2.343-2.873,5.493-2.55,8.555c0.386,3.651,3.734,5.314,6.2,7.727c5.522,5.406,11.899,12.432,12.792,20.479       c0.236,2.124-0.486,5.194-2.047,6.359c-0.377,0.282-0.723,0.846-0.368,1.289c5.098,6.358,4.362,13.95-3.039,17.98       c-0.879,0.479-1.222,1.817,0.136,1.89c3.54,0.192,7.037,2.294,9.481,4.748c4.087,4.102,1.657,9.218,2.257,14.223       c0.953,7.957,8.799,12.832,14.711,16.935c9.98,6.926,24.223,14.495,36.331,8.354c13.128-6.659,15.805-26.448,15.378-39.619       C865.439,312.008,862.513,312.468,862.555,313.75z"/>
				</g>
			</g>
		</g>
		<g>
			<path fill="#F7E0DC" d="M685.914,283.582c0,0,7.236,11.283-6.564,7.971c0,0-10.217-8.834-23.469,14.906     c0,0-18.49,32.023-13.52,49.688l85.018-4.695l3.314-1.377c0,0,11.873-42.232-9.938-59.35c0,0-7.383-5.799-11.01-0.553     c0,0-8.314,1.445-3.898-6.59l-14.904-6.385L685.914,283.582z"/>
			<g>
				<path fill="#562F2F" d="M684.587,284.216c1.166,1.857,3.436,6.48-0.265,6.886c-3.032,0.333-4.385-1.142-6.986-1.86      c-8.479-2.341-15.639,6.02-19.808,12.095c-4.644,6.768-8.146,14.534-11.224,22.097c-4.101,10.08-8.169,22.182-5.393,33.101      c0.143,0.557,0.835,0.684,1.316,0.657c24.864-1.373,49.729-2.747,74.593-4.12c3.429-0.189,6.858-0.379,10.287-0.567      c3.419-0.189,4.938-1.918,5.617-4.809c3.467-14.778,4.58-31.877-1.733-46.028c-2.625-5.885-7.078-11.393-13.089-13.986      c-2.855-1.232-5.884-0.918-8.343,0.935c-0.457,0.344,0.502,0.673-1.302,0.592c-3.371-0.151-1.973-3.564-1.028-5.469      c0.257-0.518-0.08-0.925-0.543-1.124c-4.969-2.128-9.937-4.256-14.904-6.385c-0.632-0.271-1.63,0.017-2.05,0.549      c-1.676,2.128-3.353,4.256-5.029,6.385c-1.138,1.444,1.615,1.854,2.42,0.833c1.676-2.128,3.353-4.256,5.029-6.385      c-0.684,0.183-1.366,0.366-2.05,0.549c2.336,1,4.671,2,7.006,3.001c1.683,0.721,3.365,1.441,5.048,2.162      c0.609,0.261,1.219,0.522,1.828,0.783c1.648,0.706,0.19-0.104-0.143,0.568c-2.311,4.658,1.715,7.665,6.165,6.472      c2.865-0.768,4.665-2.382,7.581-0.905c1.077,0.546,2.009,1.277,2.938,2.037c4.162,3.405,6.949,8.271,8.831,13.225      c3.299,8.689,3.485,18.408,2.758,27.559c-0.442,5.56-1.352,11.131-2.732,16.536c-0.34,1.332,1.225-0.595-0.187-0.009      c-0.702,0.292-2.694,0.869-1.822,0.821c-1.172,0.064-2.344,0.13-3.516,0.194c-13.616,0.752-27.231,1.504-40.848,2.256      c-13.506,0.746-27.011,1.491-40.517,2.237c0.438,0.22,0.877,0.438,1.316,0.657c-3.042-11.961,2.295-25.315,7.003-36.148      c3.667-8.439,8.037-17.461,14.489-24.097c2.836-2.917,6.98-5.468,11.14-4.103c2.36,0.775,3.777,1.798,6.635,1.787      c6.747-0.025,7.21-5.401,4.164-10.25C686.556,281.856,683.788,282.945,684.587,284.216z"/>
			</g>
		</g>
		<g>
			<path fill="#F77C72" d="M676.863,289.619c0,0-94.68,133.883-32.018,168.111c0,0,94.127,34.508,142.988-62.936     c0,0-59.352-0.832-62.387-66.254c0,0-3.314-40.852-11.867-38.922l-5.486-0.066c0,0,5.486,30.156-17.428,27.119     c0,0-17.395-4.418-6.9-24.014L676.863,289.619z"/>
			<g>
				<path fill="#562F2F" d="M675.658,289.219c-11.185,15.834-20.985,32.813-29.751,50.082c-7.336,14.453-13.784,29.42-18.438,44.962      c-4.171,13.929-6.919,28.855-4.781,43.387c1.899,12.906,8.979,23.885,20.279,30.476c4.208,2.455,9.975,3.156,14.651,4.085      c26.772,5.316,55.309,2.285,79.533-10.626c23.28-12.409,40.285-33.418,52.062-56.643c0.309-0.607-0.268-1.156-0.869-1.167      c-21.022-0.353-41.765-12.704-52.246-30.718c-8.184-14.064-8.3-29.81-10.379-45.423c-0.997-7.488-2.201-15.165-4.874-22.263      c-1.885-5.008-3.918-6.737-9.043-6.799c-1.066-0.013-2.133-0.026-3.198-0.039c-0.771-0.009-2.145,0.366-1.96,1.409      c1.389,7.819,1.238,19.182-5.919,24.198c-4.292,3.009-9.885,2.061-13.888-0.716c-7.204-4.996-5.087-13.966-1.692-20.619      c0.264-0.517-0.084-0.897-0.536-1.096c-2.301-1.013-4.602-2.026-6.902-3.039c-1.167-0.514-3.365,1.161-1.688,1.899      c1.436,0.632,2.871,1.264,4.306,1.896c0.82,0.361,1.641,0.722,2.461,1.083c-1.5-0.66-2.473,3.584-2.758,4.398      c-1.352,3.86-1.7,8.545,0.304,12.259c2.68,4.964,7.994,7.932,13.582,7.704c14.979-0.612,17.786-16.593,15.629-28.744      c-0.653,0.469-1.307,0.939-1.96,1.409c1.817,0.022,5.143-0.632,6.813,0.17c2.502,1.202,3.572,5.321,4.358,7.685      c2.395,7.211,3.441,14.935,4.387,22.447c0.748,5.94,0.961,11.931,1.787,17.856c1.298,9.31,4.297,18.338,9.025,26.464      c10.637,18.28,32.149,29.82,53.124,30.613c0.082,0.003,0.164,0.005,0.245,0.007c-0.29-0.389-0.579-0.778-0.869-1.167      c-10.279,20.271-24.334,38.464-43.451,51.07c-14.159,9.335-30.638,14.643-47.446,16.344c-12.12,1.227-24.428,0.479-36.383-1.789      c-5.495-1.043-11.365-2.073-16.139-5.107c-26.961-17.137-18.346-55.37-9.687-80.231c9.406-27.003,23.525-52.508,39.046-76.446      c1.848-2.85,3.715-5.694,5.674-8.469C679.126,288.522,676.395,288.175,675.658,289.219z"/>
			</g>
		</g>
		<g>
			<path fill="#F7E0DC" stroke="#562F2F" stroke-linecap="round" stroke-linejoin="round" stroke-miterlimit="10" d="M744.4,389.031     c0,6.859-5.557,12.42-12.42,12.42c-6.861,0-12.424-5.561-12.424-12.42c0-6.861,5.563-12.424,12.424-12.424     C738.844,376.607,744.4,382.17,744.4,389.031z"/>
			<g>
				<g>
					<g>
						<path fill="#562F2F" d="M725.286,383.03c-0.212,4.587,0.783,9.171,0.775,13.758c-0.001,0.4,0.736,0.307,0.736-0.045        c0.008-4.586-0.986-9.176-0.775-13.758C726.041,382.587,725.303,382.678,725.286,383.03L725.286,383.03z"/>
					</g>
				</g>
				<g>
					<g>
						<path fill="#562F2F" d="M726.592,383.27c1.851-0.006,3.715-0.072,4.42,1.986c0.777,2.271-1.866,3.575-3.709,3.754        c-0.402,0.039-0.561,0.571-0.066,0.523c2.009-0.193,4.677-1.371,4.64-3.731c-0.046-2.931-3.055-3.063-5.218-3.056        C726.246,382.747,726.1,383.271,726.592,383.27L726.592,383.27z"/>
					</g>
				</g>
				<g>
					<g>
						<path fill="#562F2F" d="M738.221,386.593c-1.884-0.533-3.99-0.49-3.576,2.194c0.28,1.819,2.614,0.61,3.166,2.051        c0.341,0.891-0.06,1.975-0.559,2.715c-0.528,0.784-2.271,1.08-3.029,0.543c-0.47-0.333-0.384-1.397-0.388-1.886        c-0.001-0.18-0.727-0.055-0.725,0.193c0.012,1.493,0.327,2.338,1.892,2.316c1.104-0.016,2.183-0.346,2.916-1.183        c0.854-0.976,1.102-2.965-0.029-3.791c-0.836-0.611-2.007,0.252-2.52-1.152c-0.217-0.594,0.026-1.296,0.328-1.804        c0.331-0.555,1.5-0.003,1.938,0.121C737.83,386.967,738.48,386.666,738.221,386.593L738.221,386.593z"/>
					</g>
				</g>
			</g>
		</g>
		<path fill="#DD6862" d="M675.252,308.361c0,0,13.252,26.5,34.785,1.932c0,0-19.74,33.125-35.471-1.932"/>
		<path fill="#DD6862" d="M628.467,412.568c0,0,1.656,50.516,48.859,46.102C677.326,458.67,635.363,455.629,628.467,412.568z"/>
		<path fill="#DD6862" d="M744.953,385.793c0,0,17.947,14.904,32.576,14.355c0,0-20.705,43.059-45.549,46.098    C731.98,446.246,785.258,418.918,744.953,385.793z"/>
		<path fill="#DD6862" d="M687.719,361.225c0,0-0.178,88.611,30.459,88.611C718.178,449.836,678.365,453.148,687.719,361.225z"/>
		<g>
			<g>
				<path fill="#F7E0DC" d="M729.84,199.297L729.84,199.297c0.422-0.371,0.84-0.76,1.266-1.186      C746.012,183.203,729.84,199.297,729.84,199.297z"/>
				<g>
					<path fill="#562F2F" d="M730.995,199.512c2.062-1.823,3.946-3.866,5.89-5.814c0.437-0.438,0.872-0.875,1.308-1.314       c0.176-0.178,0.433-0.382,0.57-0.59c0.283-0.431-0.052-0.673-0.452-0.778c-0.736-0.195-1.65,0.157-2.187,0.681       c-0.186,0.181-0.37,0.364-0.555,0.546c-0.657,0.649-1.313,1.301-1.969,1.952c-1.436,1.425-2.87,2.852-4.304,4.278       c-0.204,0.203-0.408,0.406-0.612,0.609c-0.413,0.411-0.368,0.862,0.262,0.979C729.587,200.18,730.521,199.985,730.995,199.512       c2.374-2.362,4.744-4.728,7.128-7.079c0.144-0.141,0.285-0.321,0.45-0.438c-0.684,0.183-1.366,0.366-2.049,0.549c0,0,0,0,0,0       c-0.15-0.26-0.301-0.519-0.451-0.779c0.1-0.151,0.24-0.251,0.089-0.097c-0.103,0.104-0.206,0.209-0.309,0.313       c-0.426,0.43-0.854,0.858-1.28,1.286c-1.942,1.949-3.828,3.991-5.889,5.814c-0.449,0.397-0.34,0.868,0.262,0.979       C729.617,200.186,730.481,199.967,730.995,199.512z"/>
				</g>
			</g>
			<g>
				<path fill="#F7E0DC" d="M754.293,208.049c-14.488,7.039-24.451-8.75-24.451-8.75c-14.338,12.641-26.063-5.328-26.063-5.328      c-38.506,43.063-66.25,0-66.25,0c-3.078,4.475-5.396,8.943-7.139,13.328c-2.316-0.988-3.926-2.039-7.447-2.039      c-3.313,0-6.35-0.273-9.111,1.652c-4.414,2.764-6.072,14.082-2.209,17.945c1.664,1.873,9.438,2.961,14.352,2.438      c-0.996,17.564,5.342,30.441,5.342,30.441c19.463,28.158,53.002,25.676,53.002,25.676c74.535,8.693,70.803-54.658,70.803-54.658      c9.113,1.654,11.594-4.971,11.594-4.971C774.996,204.32,754.293,208.049,754.293,208.049z"/>
				<g>
					<path fill="#562F2F" d="M753.681,207.305c-8.808,3.903-17.629-1.038-22.504-8.614c-0.419-0.649-1.797-0.345-2.27,0.045       c-8.606,7.109-18.158,3.104-23.793-5.374c-0.506-0.76-2.05-0.26-2.526,0.261c-12.343,13.532-29.232,24.037-47.219,14.738       c-6.483-3.352-12.511-8.856-16.505-15c-0.577-0.888-2.272-0.146-2.705,0.5c-2.829,4.227-5.204,8.624-7.139,13.328       c0.834-0.224,1.668-0.447,2.503-0.67c-9.001-4.002-20.26-3.478-23.055,7.378c-0.89,3.457-1.013,9.191,2.021,11.737       c3.761,3.155,10.74,2.958,15.326,2.609c-0.434-0.27-0.867-0.54-1.302-0.809c-0.433,10.053,0.974,20.254,4.857,29.582       c3.206,7.699,11.982,14.186,18.911,18.37c10.369,6.262,23.689,9.747,35.854,8.976c5-0.317,10.387,0.869,15.476,0.796       c4.872-0.069,9.714-0.634,14.493-1.562c7.354-1.428,14.432-4.284,20.64-8.479c9.621-6.501,15.987-16.584,19.282-27.572       c1.827-6.096,2.902-12.793,2.543-19.182c-0.659,0.447-1.318,0.895-1.978,1.342c9.753,1.324,18.109-6.961,15.067-17.147       c-1.763-5.904-10.243-6.322-15.209-5.462c-1.488,0.258-2.293,2.243-0.316,1.9c3.588-0.622,8.109-0.547,11.011,1.912       c3.042,2.578,2.073,7.158,1.082,10.445c-1.526,5.064-5.05,7.194-10.578,6.444c-0.804-0.109-2.029,0.411-1.978,1.342       c0.982,17.455-7.645,36.7-22.918,46.231c-7.722,4.819-16.851,6.883-25.818,7.643c-7.613,0.645-15.088-0.466-22.664-0.505       c-18.478-0.096-36.331-8.378-47.813-22.906c-6.635-8.394-7.458-22.369-7.023-32.451c0.03-0.705-0.742-0.852-1.302-0.809       c-3.844,0.293-7.701-0.023-11.398-1.138c-3.424-1.032-3.828-5.136-3.802-8.14c0.027-3.017,0.945-6.269,2.791-8.669       c3.263-4.243,11.584-2.076,15.534-0.32c0.725,0.322,2.146,0.199,2.503-0.67c1.935-4.705,4.31-9.101,7.139-13.328       c-0.901,0.167-1.804,0.333-2.705,0.5c4.744,7.295,12.327,13.76,20.395,16.973c18.669,7.434,35.991-3.651,48.382-17.234       c-0.843,0.087-1.685,0.174-2.526,0.261c6.739,10.137,18.627,13.299,28.332,5.283c-0.757,0.015-1.513,0.03-2.27,0.045       c5.823,9.049,16.349,13.339,26.398,8.886C756.734,207.981,755.088,206.682,753.681,207.305z"/>
				</g>
			</g>
		</g>
		<g>
			<g>
				<path fill="#F77C72" d="M584.783,347.347c-3.268-0.135-5.955,0.555-6.162,4.269c-0.212,3.789,6.433,4.53,8.824,4.947      c2.728,0.476,5.755,0.341,8.462-0.106c1.379-0.228,9.477-3.657,5.634-0.153c-3.115,2.84-8.809,2.385-12.626,1.878      c-2.098-0.279-4.03-1.062-5.868-2.076c-0.043-0.024-3.193-2.147-2.856-2.319c1.755-0.9,0.185-2.593-1.314-1.824      c-4.472,2.295,0.732,5.492,3.451,6.698c5.71,2.533,12.77,2.944,18.608,0.602c1.487-0.597,8.186-5.59,4.153-7.137      c-1.99-0.764-4.277,0.104-6.129,0.827c-2.648,1.035-4.744,1.561-7.557,1.603c-1.996,0.014-3.952-0.264-5.865-0.834      c-0.112-0.029-0.225-0.058-0.337-0.086c-2.329-0.042-2.794-1.4-1.395-4.078C585.274,349.616,586.739,347.427,584.783,347.347      L584.783,347.347z"/>
			</g>
		</g>
		<g>
			<g>
				<path fill="#F77C72" d="M804.197,324.008c2.967,7.956,0.176,13.545-5.854,18.846c-3.021,2.655-6.903,5.267-11.03,5.518      c-2.667,0.163-4.466-0.515-5.399-3.104c-0.683-1.894,2.427-1.545,3.181-1.738c7.152-1.838,18.152-5.017,17.694-14.159      c-0.042-0.837-2.95-0.269-2.898,0.777c0.49,9.771-11.728,10.454-18.453,12.257c-1.972,0.528-2.551,1.728-2.421,3.64      c0.198,2.921,3.279,3.63,5.567,3.829c6.102,0.531,11.525-2.947,16.06-6.636c6.534-5.316,9.508-11.807,6.452-20.006      C806.744,322.287,803.879,323.152,804.197,324.008L804.197,324.008z"/>
			</g>
		</g>
		<g>
			<g>
				<path fill="#562F2F" d="M638.987,227.015c8.653,12.011,27.368,9.817,37.705,1.333c1.293-1.061-1.6-1.084-2.326-0.488      c-9.304,7.635-25.142,8.492-32.689-1.983C641.096,225.07,638.293,226.051,638.987,227.015L638.987,227.015z"/>
			</g>
		</g>
		<g>
			<g>
				<path fill="#562F2F" d="M702.85,228.453c4.169,1.58,7.224,4.653,11.609,5.835c3.633,0.979,7.78,1.082,11.519,0.739      c5.524-0.507,11.937-3.268,13.88-8.833c0.552-1.58-2.348-1.535-2.77-0.326c-2.282,6.538-10.199,7.339-16.12,7.097      c-3.577-0.146-7.015-0.934-10.08-2.819c-2.131-1.311-4.006-2.745-6.362-3.638C703.3,226.043,701.129,227.801,702.85,228.453      L702.85,228.453z"/>
			</g>
		</g>
		<g>
			<g>
				<path fill="#562F2F" d="M643.781,230.166c-1.648,0.39-3.303,1.098-5.025,0.981c-0.711-0.048-1.563,0.194-1.882,0.905      c-0.287,0.639,0.258,1.241,0.901,1.285c2.306,0.156,4.354-0.566,6.564-1.089c0.597-0.142,1.358-0.726,1.17-1.429      C645.314,230.091,644.379,230.025,643.781,230.166L643.781,230.166z"/>
			</g>
		</g>
		<g>
			<g>
				<path fill="#562F2F" d="M649.414,233.632c-1.729,0.774-3.43,1.6-5.29,2.006c-0.298,0.065-1.438,0.43-1.306,0.924      c0.138,0.512,1.293,0.213,1.593,0.147c2.357-0.515,4.524-1.565,6.714-2.544c0.303-0.136,0.956-0.676,0.323-0.872      C650.789,233.088,650.01,233.365,649.414,233.632L649.414,233.632z"/>
			</g>
		</g>
		<g>
			<g>
				<path fill="#562F2F" d="M652.531,236.077c0.001,1.271,0.031,2.541,0.227,3.799c0.21,1.353,3.115,0.621,2.898-0.776      c-0.168-1.076-0.188-2.152-0.188-3.24C655.468,234.329,652.531,234.763,652.531,236.077L652.531,236.077z"/>
			</g>
		</g>
		<g>
			<g>
				<path fill="#562F2F" d="M661.946,236.831c1.677-0.285,2.751,0.663,3.562,2.058c0.661,1.137,3.422,0.043,2.652-1.281      c-1.25-2.151-3.467-3.339-5.962-2.915c-0.64,0.109-1.504,0.408-1.595,1.177C660.522,236.561,661.369,236.929,661.946,236.831      L661.946,236.831z"/>
			</g>
		</g>
		<g>
			<g>
				<path fill="#562F2F" d="M668.457,233.503c2.854-0.312,4.842,0.469,6.959,2.366c0.644,0.577,3.302-0.518,2.715-1.043      c-2.783-2.495-5.546-2.996-9.189-2.599C667.67,232.367,666.426,233.725,668.457,233.503L668.457,233.503z"/>
			</g>
		</g>
		<g>
			<g>
				<path fill="#562F2F" d="M707.244,230.15c-1.819,0.51-3.216,1.712-4.938,2.404c-0.281,0.113-1.261,0.628-0.8,1.062      c0.454,0.427,1.413,0.168,1.903-0.029c1.438-0.577,2.694-1.734,4.179-2.151c0.36-0.101,1.429-0.464,1.277-1.031      C708.715,229.843,707.604,230.049,707.244,230.15L707.244,230.15z"/>
			</g>
		</g>
		<g>
			<g>
				<path fill="#562F2F" d="M711.19,233.489c-0.408,1.505-0.62,3.054-1.031,4.557c-0.457,1.673,2.425,1.742,2.791,0.405      c0.411-1.504,0.622-3.053,1.031-4.557C714.436,232.221,711.554,232.152,711.19,233.489L711.19,233.489z"/>
			</g>
		</g>
		<g>
			<g>
				<path fill="#562F2F" d="M717.766,235.736c0.227,0.829,0.669,1.55,1.138,2.261c0.35,0.53,1.489,0.243,1.925,0.056      c0.455-0.195,1.125-0.658,0.761-1.21c-0.395-0.6-0.734-1.185-0.925-1.883C720.374,233.896,717.477,234.676,717.766,235.736      L717.766,235.736z"/>
			</g>
		</g>
		<g>
			<g>
				<path fill="#562F2F" d="M725.961,235.158c0.632,0.632,1.239,1.271,1.656,2.07c0.33,0.633,1.477,0.453,1.968,0.216      c0.603-0.29,1.019-0.852,0.685-1.494c-0.417-0.799-1.023-1.438-1.656-2.07c-0.525-0.526-1.317-0.529-1.968-0.216      C726.205,233.876,725.434,234.631,725.961,235.158L725.961,235.158z"/>
			</g>
		</g>
		<g>
			<g>
				<path fill="#562F2F" d="M734.06,231.994c2.721,0.393,5.444,0.45,8.189,0.451c0.654,0,1.517-0.216,1.912-0.791      c0.389-0.564-0.326-0.852-0.785-0.852c-2.523,0-5.039-0.02-7.541-0.381c-0.701-0.101-1.508,0.069-2.05,0.549      C733.351,231.355,733.439,231.904,734.06,231.994L734.06,231.994z"/>
			</g>
		</g>
		<path fill="#F9B2B2" stroke="#562F2F" stroke-miterlimit="10" d="M662.072,255.844c0,0,34.576,14.285,59.006-2.07    c0,0,1.861,26.297-27.744,25.258C693.334,279.031,662.305,277.551,662.072,255.844z"/>
		<path fill="#F9B2B2" stroke="#562F2F" stroke-miterlimit="10" d="M669.539,270.928c0,0,13.535-6.65,22.047,0    c0,0,14.258-5.299,21.715,2.346"/>
		
	</g>
	<g>
		<g>
			<path fill="#D3C3C1" d="M682.773,563.912c-5.59-1.039-8.695-5.799-15.316-4.143c-5.59,1.451-9.314,10.559-4.143,14.287     c3.52,2.484,10.559,1.656,14.283,0c2.486-0.832,5.176-1.867,6.008-4.352c0.619-2.068,0-4.969,0-7.037c0-0.83,0-1.656,0-2.277"/>
			<g>
				<path fill="#562F2F" d="M683.02,563.368c-6.19-1.432-10.858-6.575-17.503-3.394c-3.9,1.868-7.134,8.4-4.614,12.409      c3.249,5.17,11.023,4.184,15.987,2.531c2.6-0.865,5.117-1.811,6.861-4.002c1.954-2.455,0.59-7.787,0.59-10.572      c0-0.782-1.471-0.579-1.471,0.1c0,1.578,0.023,3.134,0.148,4.706c0.379,4.76-1.468,6.737-5.747,8.464      c-4.818,1.943-13.757,3.109-15.554-3.349c-1.647-5.924,4.611-10.797,9.894-10.146c3.852,0.475,7.112,3.461,10.916,4.34      C683.261,564.626,683.975,563.589,683.02,563.368L683.02,563.368z"/>
			</g>
		</g>
		<g>
			<path fill="#D3C3C1" d="M686.299,563.705c1.242,5.381,3.104,9.314,9.107,10.352c4.555,0.826,10.766,1.445,11.592-3.938     c0.832-5.795-1.865-8.486-7.246-8.693c-4.139-0.205-10.973-0.828-12.211,4.35"/>
			<g>
				<path fill="#562F2F" d="M685.574,563.899c1.477,6.052,4.18,9.769,10.518,10.863c4.641,0.802,10.353,0.783,11.642-4.693      c1.446-6.145-3.226-8.955-8.541-9.23c-4.596-0.239-10.63-0.408-12.347,4.843c-0.267,0.813,1.182,0.828,1.391,0.188      c1.472-4.498,6.619-4.131,10.464-3.939c4.704,0.233,7.814,2.026,7.682,7.121c-0.172,6.607-8.466,5.253-12.751,3.937      c-4.204-1.292-5.675-5.651-6.607-9.477C686.853,562.813,685.403,563.197,685.574,563.899L685.574,563.899z"/>
			</g>
		</g>
		<path fill="#B59C9C" d="M663.039,566.67c0,0,9.664,7.723,18.496,1.275c0,0-1.863,7.697-14.564,5.143    C666.971,573.088,662.691,572.123,663.039,566.67z"/>
		<path fill="#B59C9C" d="M689.402,567.018c0,0,8.76,7.656,15.594,2.688c0,0-1.932,5.521-9.383,2.9    C695.613,572.605,690.297,571.846,689.402,567.018z"/>
	</g>
</g>
<g class="p4_paper">
	<g>
		<g>
			<path fill="#F7E0DC" d="M928.496,83.186c-3.615,13.744-27.781,19.305-53.975,12.418c-26.195-6.889-44.498-23.617-40.883-37.365     c3.615-13.746,27.779-19.307,53.975-12.418C913.807,52.709,932.109,69.438,928.496,83.186z"/>
		</g>
		<g>
			<g>
				<path fill="#562F2F" d="M930.742,81.149c-2.787,9.289-12.971,12.576-21.618,13.855c-12.088,1.789-24.78-0.46-36.259-4.273      c-13.322-4.424-38.156-17.089-34.088-34.918c2.125-9.311,13.483-12.653,21.618-13.856c12.088-1.788,24.779,0.462,36.259,4.274      C909.977,50.655,934.811,63.321,930.742,81.149c-0.232,1.018,2.677,0.548,2.891-0.389c1.897-8.314-3.173-15.663-8.892-21.182      c-8.338-8.048-19.827-13.275-30.877-16.289c-12.069-3.291-24.798-4.618-37.147-2.131c-7.618,1.535-15.883,5.042-19.736,12.204      c-3.785,7.035-0.128,14.869,4.438,20.487c7.247,8.917,18.522,14.497,29.128,18.235c17.27,6.087,45.855,10.035,59.875-5.32      c1.553-1.701,2.557-3.822,3.212-6.004C933.921,79.801,931.022,80.216,930.742,81.149z"/>
			</g>
		</g>
		<g>
			<g>
				<g>
					<path fill="#562F2F" d="M863.982,52.281c-7.681-2.107-15.681,2.441-15.701,11.133c-0.021,8.824,9.777,10.655,15.721,5.976       c0.911-0.717-1.265-0.502-1.691-0.166c-5.191,4.086-11.327,0.429-11.858-5.573c-0.235-2.666,1.043-5.729,2.503-7.887       c2.178-3.221,5.777-3.523,9.262-2.568C862.77,53.348,864.712,52.48,863.982,52.281L863.982,52.281z"/>
				</g>
			</g>
			<g>
				<g>
					<path fill="#562F2F" d="M865.87,64.302c2.047,0.534,4.094,1.066,6.141,1.598c0.522,0.136,1.161-0.012,1.537-0.412       c0.326-0.346,0.226-0.825-0.254-0.95c-2.048-0.532-4.095-1.064-6.141-1.598c-0.522-0.136-1.161,0.012-1.537,0.412       C865.29,63.698,865.392,64.177,865.87,64.302L865.87,64.302z"/>
				</g>
			</g>
			<g>
				<g>
					<path fill="#562F2F" d="M870.831,61.352c-3.069,2.867-4.647,7.917,0.301,9.72c0.598,0.218,2.192-0.672,2.053-0.723       c-4.666-1.701-3.347-6.437-0.395-9.194C873.219,60.755,871.197,61.011,870.831,61.352L870.831,61.352z"/>
				</g>
			</g>
			<g>
				<g>
					<path fill="#562F2F" d="M874.935,65.764c0.327,1.424,0.875,2.771,1.428,4.119c0.209,0.509,2.096,0.017,2.161-0.472       c0.146-1.078,0.535-2.576,1.848-2.465c0.508,0.043,1.116-0.127,1.537-0.412c0.354-0.239,0.274-0.496-0.143-0.531       c-2.62-0.222-5.02,1.028-5.391,3.77c0.72-0.157,1.44-0.314,2.161-0.472c-0.553-1.348-1.102-2.696-1.428-4.119       C876.986,64.651,874.806,65.199,874.935,65.764L874.935,65.764z"/>
				</g>
			</g>
			<g>
				<g>
					<path fill="#562F2F" d="M884.408,55.568c-0.544,5.847-3.088,14.841,4.606,16.91c0.778,0.209,2.571-0.943,1.303-1.284       c-6.874-1.849-4.2-10.757-3.726-15.859C886.683,54.359,884.484,54.746,884.408,55.568L884.408,55.568z"/>
				</g>
			</g>
			<g>
				<g>
					<path fill="#562F2F" d="M893.891,65.54c2.898,0.399,5.773,1.024,8.635,1.625c0.619,0.13,2.553-0.84,1.355-1.092       c-2.862-0.601-5.737-1.226-8.635-1.625C894.631,64.364,892.696,65.375,893.891,65.54L893.891,65.54z"/>
				</g>
			</g>
			<g>
				<g>
					<path fill="#562F2F" d="M898.94,63.489c-0.455,1.755-0.911,3.511-1.369,5.266c-0.101,0.388,2.005,0.107,2.139-0.404       c0.457-1.755,0.913-3.51,1.369-5.266C901.18,62.696,899.073,62.979,898.94,63.489L898.94,63.489z"/>
				</g>
			</g>
			<g>
				<g>
					<path fill="#562F2F" d="M920.271,65.701c-1.769-1.594-4.652-1.758-6.305,0.108c-0.788,0.892-0.761,2.519-0.082,3.446       c0.905,1.236,2.385,1.834,3.512,2.835c1.469,1.304,1.568,4.957-1.03,4.649c-1.552-0.184-3.835-1.417-3.278-3.292       c0.212-0.715-1.961-0.401-2.168,0.294c-0.524,1.769,1.004,3.05,2.471,3.679c1.81,0.776,4.21,0.732,5.841-0.445       c2.02-1.458,1.657-4.411-0.057-5.933c-1.145-1.017-2.814-1.544-3.465-3.032c-0.222-0.507-0.259-2.157,0.47-2.401       c0.672-0.225,1.623,0.519,2.068,0.92C918.789,67.018,920.816,66.191,920.271,65.701L920.271,65.701z"/>
				</g>
			</g>
		</g>
	</g>
	<g>
		<rect x="101.786" y="54.789" fill="#66BAED" width="256.804" height="93.811"/>
		<g>
			<g>
				<g>
					<polyline fill="none" stroke="#562F2F" stroke-width="2" stroke-miterlimit="10" points="356.394,143.004 356.394,145.504        353.894,145.504      "/>
					
						<line fill="none" stroke="#562F2F" stroke-width="2" stroke-miterlimit="10" stroke-dasharray="4.9373,4.9373" x1="348.956" y1="145.504" x2="104.559" y2="145.504"/>
					<polyline fill="none" stroke="#562F2F" stroke-width="2" stroke-miterlimit="10" points="102.09,145.504 99.59,145.504        99.59,143.004      "/>
					
						<line fill="none" stroke="#562F2F" stroke-width="2" stroke-miterlimit="10" stroke-dasharray="5.224,5.224" x1="99.59" y1="137.78" x2="99.59" y2="56.807"/>
					<polyline fill="none" stroke="#562F2F" stroke-width="2" stroke-miterlimit="10" points="99.59,54.195 99.59,51.695        102.09,51.695      "/>
					
						<line fill="none" stroke="#562F2F" stroke-width="2" stroke-miterlimit="10" stroke-dasharray="4.9373,4.9373" x1="107.027" y1="51.695" x2="351.425" y2="51.695"/>
					<polyline fill="none" stroke="#562F2F" stroke-width="2" stroke-miterlimit="10" points="353.894,51.695 356.394,51.695        356.394,54.195      "/>
					
						<line fill="none" stroke="#562F2F" stroke-width="2" stroke-miterlimit="10" stroke-dasharray="5.224,5.224" x1="356.394" y1="59.419" x2="356.394" y2="140.392"/>
				</g>
			</g>
		</g>
		
			<rect x="334.762" y="60.635" fill="#FFFFFF" stroke="#562F2F" stroke-width="0.5" stroke-miterlimit="10" width="13.166" height="13.166"/>
		<g>
			<g>
				<path fill="#562F2F" d="M335.286,62.979c4.437,2.274,6.976,6.646,10.935,9.523c0.354,0.258,1.635-0.316,1.358-0.518      c-3.959-2.878-6.498-7.25-10.935-9.523C336.246,62.257,335.039,62.853,335.286,62.979L335.286,62.979z"/>
			</g>
		</g>
		<g>
			<g>
				<path fill="#562F2F" d="M346.776,61.843c-4.996,2.115-7.987,6.577-11.754,10.245c-0.627,0.611,0.795,0.689,1.182,0.313      c3.573-3.479,6.431-7.854,11.172-9.86C348.301,62.148,347.465,61.551,346.776,61.843L346.776,61.843z"/>
			</g>
		</g>
		<path fill="#FFFFFF" stroke="#562F2F" stroke-width="0.5" stroke-miterlimit="10" d="M176.039,73.801h-72.253V54.752h72.253    V73.801z"/>
		<path fill="#FFFFFF" stroke="#562F2F" stroke-width="2" stroke-miterlimit="10" d="M107.121,150.967H92.059v-15.063h15.063    V150.967z M107.121,91.068H92.059v15.063h15.063V91.068z M235.523,44.164h-15.063v15.063h15.063V44.164z M235.523,135.904h-15.063    v15.063h15.063V135.904z M235.523,91.068h-15.063v15.063h15.063V91.068z M363.925,44.164h-15.062v15.063h15.062V44.164z     M363.925,135.904h-15.062v15.063h15.062V135.904z M363.925,91.068h-15.062v15.063h15.062V91.068z M107.121,44.164H92.059v15.063    h15.063V44.164z"/>
		<text transform="matrix(1 0 0 1 116.3125 67.4814)" fill="#562F2F" font-family="'HeitiCSEG-Medium-GB'" font-size="11.3909">16-面板17</text>
	</g>
	
</g>
<g class="p4_bot">
	<rect x="-4" y="621.535" fill="#66B1E0" width="991.512" height="22.824"/>
	<g>
		<path fill="#552F2E" d="M987.646,643.322c-16.307,0-32.614,0-48.922,0c-42.501,0-85.003,0-127.505,0
			c-59.065,0-118.131,0-177.197,0c-65.999,0-131.999,0-197.999,0c-63.303,0-126.606,0-189.909,0c-50.976,0-101.953,0-152.929,0
			c-29.019,0-58.039,0-87.058,0c-3.331,0-6.663,0-9.994,0c0.444,0.307,0.888,0.613,1.332,0.92c0-7.607,0-15.216,0-22.824
			c-0.534,0.385-1.067,0.77-1.601,1.154c16.307,0,32.614,0,48.922,0c42.501,0,85.003,0,127.505,0c59.065,0,118.131,0,177.197,0
			c66,0,131.999,0,197.998,0c63.304,0,126.606,0,189.909,0c50.977,0,101.953,0,152.93,0c29.019,0,58.038,0,87.058,0
			c3.331,0,6.662,0,9.993,0c-0.444-0.307-0.888-0.613-1.331-0.92c0,7.607,0,15.216,0,22.824c0,1.497,2.932,1.036,2.932-0.234
			c0-7.607,0-15.216,0-22.824c0-0.755-0.703-0.92-1.331-0.92c-16.307,0-32.614,0-48.922,0c-42.501,0-85.003,0-127.505,0
			c-59.065,0-118.131,0-177.197,0c-65.999,0-131.999,0-197.999,0c-63.303,0-126.606,0-189.909,0c-50.976,0-101.953,0-152.929,0
			c-29.019,0-58.039,0-87.058,0c-3.331,0-6.663,0-9.994,0c-0.554,0-1.601,0.477-1.601,1.154c0,7.607,0,15.216,0,22.824
			c0,0.755,0.704,0.92,1.332,0.92c16.307,0,32.614,0,48.922,0c42.501,0,85.003,0,127.505,0c59.065,0,118.131,0,177.197,0
			c66,0,131.999,0,197.998,0c63.304,0,126.606,0,189.909,0c50.977,0,101.953,0,152.93,0c29.019,0,58.038,0,87.058,0
			c3.331,0,6.662,0,9.993,0C989.016,645.396,989.615,643.322,987.646,643.322z"/>
	</g>
</g>
<g class="p4_tree">
	<g>
		<g>
			<path fill="#68312A" d="M843.523,576.209v-24.674c0,0-9.158-27.256-34.07-32.896c0,0,15.506-3.762,34.07,22.088     c0,0,7.756-30.541-24.672-49.813c0,0,23.029,7.986,32.9,37.123l3.76-77.543l3.289,79.426c0,0,8.457-42.766,39.943-46.055     c0,0-34.305,9.4-31.955,60.623c0,0,16.445-31.488,46.525-32.898c0,0-39.479,12.219-45.586,46.057v28.668     c0,0,2.146,35.848,40.418,35.717H806.162C806.162,622.031,843.523,600.883,843.523,576.209"/>
		</g>
		<g>
			<path fill="#562F2F" d="M844.991,576.1c0-5.698,0-11.396,0-17.095c0-3.593,0.461-6.875-0.933-10.188     c-6.166-14.659-17.985-27.299-33.77-31.157c-0.189,0.658-0.379,1.316-0.569,1.975c2.283-0.522,6.321,0.396,8.971,1.333     c9.92,3.511,17.481,12.177,23.507,20.397c0.716,0.978,2.54,0.276,2.794-0.748c5.072-20.465-8.242-40.294-25.023-50.541     c-0.65,0.605-1.302,1.211-1.952,1.816c15.719,5.557,27.01,21.507,32.287,36.533c0.419,1.192,2.858,0.719,2.917-0.498     c1.254-25.848,2.507-51.695,3.76-77.543c-0.979,0.073-1.957,0.146-2.936,0.219c1.096,26.476,2.192,52.951,3.289,79.426     c0.064,1.563,2.683,1.042,2.936-0.219c3.925-19.544,16.799-42.272,38.348-44.882c-0.046-0.687-0.093-1.373-0.139-2.06     c-25.764,7.2-34.053,38.482-33.156,61.729c0.058,1.495,2.342,1.03,2.854,0.059c8.774-16.649,25.838-30.809,45.012-32.003     c-0.046-0.687-0.093-1.373-0.139-2.06c-10.424,3.263-20.383,9.267-28.569,16.404c-6.871,5.991-12.361,13.405-15.738,21.887     c-2.512,6.311-2.479,11.782-2.479,18.402c0,8.692-0.956,17.7,1.252,26.204c3.538,13.623,13.281,24.178,26.932,27.984     c4.418,1.232,9.008,1.581,13.574,1.619c0.085-0.709,0.171-1.418,0.256-2.127c-33.995,0-67.989,0-101.984,0     c0.172,0.64,0.343,1.28,0.515,1.921C823.256,613.522,844.536,596.722,844.991,576.1c0.034-1.523-2.907-1.092-2.936,0.219     c-0.436,19.71-20.747,35.866-36.536,44.855c-1.235,0.703-0.896,1.921,0.515,1.921c33.995,0,67.989,0,101.984,0     c1.661,0,2.219-2.11,0.256-2.127c-17.227-0.146-31.306-8.89-36.988-25.347c-2.805-8.122-2.09-15.075-2.09-23.75     c0-5.043-0.716-10.651,0.252-15.625c1.95-10.022,7.657-18.824,14.81-25.928c7.935-7.88,18.604-14.377,29.323-17.732     c1.408-0.44,1.604-2.168-0.139-2.06c-20.432,1.272-38.674,16.023-48.039,33.794c0.951,0.02,1.902,0.039,2.854,0.059     c-0.67-17.383,2.477-35.479,14.575-48.696c4.21-4.601,10.049-9.108,16.179-10.821c1.416-0.396,1.588-2.269-0.139-2.06     c-23.204,2.81-37.274,25.987-41.539,47.228c0.979-0.073,1.957-0.146,2.936-0.219c-1.096-26.476-2.192-52.951-3.289-79.426     c-0.063-1.517-2.872-1.101-2.936,0.219c-1.254,25.848-2.507,51.695-3.76,77.543c0.972-0.166,1.944-0.332,2.917-0.498     c-5.493-15.638-17.201-31.946-33.514-37.713c-0.934-0.33-3.355,0.96-1.952,1.816c16.347,9.981,29.259,29.156,24.32,49.084     c0.931-0.249,1.862-0.499,2.794-0.748c-7.255-9.898-21.244-25.746-35.663-22.445c-0.818,0.188-1.928,1.643-0.569,1.975     c15.534,3.798,26.95,16.333,32.877,30.78c1.095,2.667,0.562,6.337,0.562,9.746c0,5.392,0,10.783,0,16.175     C842.056,577.845,844.991,577.406,844.991,576.1L844.991,576.1z"/>
		</g>
	</g>
	<g>
		<g>
			<path fill="#66BAED" d="M914.135,517.293c0,0-5.283-13.041,11.869-18.328c0,0,5.992-1.764,5.992-4.463     c0,0,7.051,17.621-7.168,25.965C924.828,520.467,918.248,523.637,914.135,517.293z M801.582,473.01     c-15.037,1.189-18.916-4.828-18.916-4.828c-3.877,18.209,6.461,26.789,6.461,26.789c17.623,14.096,27.73,0,27.73,0     C816.271,492.383,816.619,471.826,801.582,473.01z M794.547,505.961l-19.738,0.939l4.699,9.047     c11.398,17.738,23.85,4.113,23.85,4.113C807.352,508.195,794.547,505.961,794.547,505.961z M813.563,528.965     c0,0-12.426-1.637-16.281,18.1c0,0,23.848-3.289,16.281-17.621 M865.201,463.836c3.17-11.809-13.879-24.498-13.879-24.498     c0.395,1.764-1.982,6.699-1.982,6.699c-9.342,23.615,6.865,26.254,6.865,26.254C863.25,472.109,865.201,463.836,865.201,463.836z     "/>
		</g>
		<g>
			<path fill="#562F2F" d="M915.584,516.904c-1.502-3.851-0.737-8.197,1.592-11.522c2.493-3.56,6.85-4.801,10.707-6.231     c2.3-0.853,5.011-2.238,5.565-4.818c-0.967,0.187-1.935,0.372-2.901,0.559c1.422,3.644,1.907,7.717,1.66,11.595     c-0.505,7.929-9.444,19.921-16.73,10.229c-0.627-0.834-3.422,0.177-2.684,1.158c5.651,7.519,14.326,3.78,19.087-2.488     c4.389-5.779,4.102-14.771,1.565-21.271c-0.399-1.021-2.704-0.359-2.901,0.559c-0.702,3.271-8.191,4.704-10.747,6.051     c-2.855,1.505-5.219,3.908-6.669,6.775c-1.513,2.991-1.665,7.047-0.442,10.184C913.103,518.749,915.969,517.892,915.584,516.904z     "/>
			<path fill="#562F2F" d="M801.769,472.164c-5.22,0.324-14.285,0.543-17.761-4.562c-0.528-0.777-2.633-0.091-2.794,0.749     c-1.776,9.249-0.832,19.788,6.134,26.794c6.651,6.689,17.114,8.944,25.459,4.512c2.057-1.092,3.965-2.749,5.38-4.598     c0.888-1.16-0.542-6.274-0.76-7.584C815.98,478.765,811.301,471.751,801.769,472.164c-1.476,0.063-2.371,1.778-0.373,1.691     c8.825-0.382,12.044,7.835,13.262,15.168c0.84,5.057,1.44,6.385-2.997,9.297c-7.235,4.746-17.575,0.48-22.746-5.554     c-5.827-6.803-6.413-16.338-4.796-24.755c-0.932,0.25-1.863,0.499-2.794,0.749c3.904,5.737,14.237,5.458,20.071,5.095     C802.864,473.765,803.771,472.039,801.769,472.164z"/>
			<path fill="#562F2F" d="M794.733,505.115c-6.58,0.313-13.159,0.626-19.738,0.939c-0.384,0.018-1.987,0.557-1.636,1.234     c2.87,5.524,5.229,11.103,10.013,15.297c4.671,4.095,11.362,4.188,16.604,1.186c4.593-2.63,6.804-5.907,5.064-11.515     c-1.219-3.932-5.809-6.403-9.615-7.115c-0.973-0.182-3.429,1.326-1.758,1.639c7.176,1.342,12.95,10.4,5.726,15.313     c-11.533,7.843-18.818-7.269-23.136-15.581c-0.545,0.412-1.09,0.823-1.636,1.234c6.58-0.313,13.159-0.626,19.738-0.939     C795.835,506.736,796.732,505.02,794.733,505.115z"/>
			<path fill="#562F2F" d="M814.115,528.104c-10.668-1.285-16.51,10.619-18.286,19.131c-0.137,0.655,0.853,0.734,1.266,0.676     c9.29-1.315,23.757-7.107,17.917-18.855c-0.52-1.044-3.348-0.127-2.898,0.777c5.079,10.217-6.221,15.192-14.646,16.387     c0.422,0.226,0.844,0.45,1.266,0.676c1.352-6.48,5.535-18.122,14.276-17.068C814.176,529.967,816.067,528.339,814.115,528.104     L814.115,528.104z"/>
			<path fill="#562F2F" d="M866.653,463.666c2.145-9.949-6.647-19.378-13.989-24.907c-0.752-0.566-2.853-0.221-2.791,0.968     c0.163,3.142-2.122,6.713-3.127,9.641c-1.258,3.665-1.88,7.503-1.708,11.37c0.2,4.491,2.53,8.443,6.308,10.806     C857.801,475.58,864.936,470.454,866.653,463.666c0.285-1.128-2.643-0.693-2.904,0.34c-0.699,2.763-3.533,8.206-7.053,7.383     c-2.309-0.54-4.324-1.955-5.882-3.701c-3.47-3.891-3.207-9.643-2.311-14.404c0.868-4.612,4.512-9.601,4.268-14.334     c-0.931,0.323-1.861,0.646-2.791,0.968c7.103,5.35,15.842,14.468,13.769,24.089C863.5,465.163,866.43,464.704,866.653,463.666z"/>
		</g>
	</g>
	<g>
		<path fill="#FFFFFF" d="M894.457,488.426c0,0-4.242-8.01,13.381-13.063c0,0,2.705-0.826,3.645-2.354    c0,0,4.287,14.273-7.756,19.625C901.398,493.666,896.58,494.793,894.457,488.426z M832.482,478.059    c-11.045,13.631-7.623,17.441-3.057,18.68C843.658,500.607,832.482,478.059,832.482,478.059z M826.018,503.553    c0,0-10.688-4.586-16.328,9.398C809.689,512.951,827.543,517.416,826.018,503.553z M883.355,504.609    c0,0,5.523,15.041,21.619,4.348C904.975,508.957,896.045,497.561,883.355,504.609z M876.186,475.355    c0,0-12.002,15.637,5.162,20.391C881.348,495.746,890.053,486.633,876.186,475.355z M902.506,528.463    c0,0-0.115,14.607,16.566,9.535C919.072,537.998,916.959,523.764,902.506,528.463z"/>
		<g>
			<path fill="#562F2F" d="M895.544,488.135c-0.979-1.935-0.232-4.198,0.919-5.858c3.841-5.538,11.935-4.378,16.036-9.226     c-0.701,0.083-1.402,0.167-2.104,0.25c0.921,3.158,0.943,6.601,0.282,9.803C909.255,489.988,899.213,497.623,895.544,488.135     c-0.311-0.803-2.461-0.162-2.174,0.582c3.155,8.16,11.86,5.543,16.559,0.158c3.681-4.218,4.16-10.94,2.641-16.156     c-0.247-0.848-1.771-0.143-2.104,0.25c-2.271,2.685-7.219,3.053-10.271,4.686c-2.367,1.268-4.535,2.765-6.081,4.995     c-1.14,1.643-1.689,4.201-0.744,6.067C893.767,489.499,895.885,488.809,895.544,488.135z"/>
			<path fill="#562F2F" d="M831.466,478.018c-2.907,3.647-9.77,11.331-6.818,16.647c1.656,2.984,6.778,3.729,9.705,2.792     c7.404-2.371,1.344-15.368-0.783-19.689c-0.387-0.786-2.51-0.101-2.174,0.582c2.165,4.397,5.896,12.047,3.598,16.883     c-1.548,3.256-7.74,0.493-8.629-2.197c-1.626-4.92,4.453-11.571,7.135-14.936C834.129,477.31,831.927,477.439,831.466,478.018z"/>
			<path fill="#562F2F" d="M826.878,503.009c-8.153-3.396-15.262,2.982-18.277,10.069c-0.112,0.263,0.245,0.443,0.431,0.488     c8.162,2.001,18.975,0.219,18.073-10.305c-0.065-0.767-2.248-0.287-2.174,0.582c0.375,4.376-1.209,7.812-5.68,8.854     c-2.647,0.616-5.606,0.299-8.247-0.218c-0.193-0.038-0.387-0.081-0.579-0.125c0.58,0.134,2.15-3.084,2.542-3.692     c1.39-2.159,3.44-3.957,5.894-4.771c1.934-0.643,4.396-0.586,6.297,0.206C825.843,504.382,827.818,503.4,826.878,503.009z"/>
			<path fill="#562F2F" d="M882.269,504.9c4.022,10.617,15.311,9.536,23.389,4.41c0.253-0.161,0.567-0.485,0.324-0.788     c-5.715-7.128-15.178-8.44-23.064-4.395c-1.336,0.686-0.108,1.468,0.877,0.963c5.634-2.891,11.145-2.592,16.365,0.85     c1.232,0.813,2.34,1.838,3.345,2.914c0.15,0.161,0.294,0.33,0.435,0.5c-0.381-0.46-4.999,2.018-5.815,2.28     c-5.844,1.878-11.608-1.848-13.681-7.316C884.138,503.515,881.985,504.152,882.269,504.9z"/>
			<path fill="#562F2F" d="M875.169,475.314c-2.078,2.745-3.592,6.122-4.074,9.53c-0.897,6.349,4.174,9.873,9.595,11.517     c0.463,0.141,1.206-0.056,1.536-0.411c6.484-6.99,0.899-15.988-5.033-21.029c-0.613-0.521-2.646,0.332-2.014,0.869     c4.506,3.828,8.679,8.8,7.538,15.087c-0.259,1.429-0.911,2.768-1.711,3.966c-0.155,0.233-0.327,0.466-0.514,0.675     c0.508-0.57-3.989-2.967-4.379-3.278c-5.364-4.295-2.328-12.329,1.089-16.843C877.818,474.582,875.617,474.723,875.169,475.314z"/>
			<path fill="#562F2F" d="M901.417,528.59c-0.001,2.675,0.892,5.368,2.495,7.503c3.552,4.73,10.362,3.905,15.315,2.484     c0.37-0.105,1.008-0.382,0.932-0.87c-0.426-2.725-1.767-5.392-3.595-7.433c-3.646-4.072-9.407-3.845-14.214-2.391     c-1.291,0.391-0.995,1.554,0.311,1.158c5.12-1.549,9.943-0.911,13.11,3.646c1.118,1.61,1.91,3.657,2.214,5.601     c0.311-0.29,0.621-0.58,0.932-0.87c-5.048,1.447-10.657,1.682-13.719-3.26c-1.014-1.635-1.604-4.023-1.604-5.823     C903.596,527.382,901.417,527.833,901.417,528.59z"/>
		</g>
	</g>
</g>
<path class="p4_chip1" fill="#562F2F" d="M41.03,358.443l-1.809-1.814l4.555-4.543c-1.008-1.814-0.705-4.105,0.787-5.592  c0.885-0.883,2.059-1.367,3.309-1.367c1.256,0,2.434,0.488,3.32,1.377c1.824,1.832,1.818,4.807-0.01,6.631  c-0.885,0.879-2.059,1.363-3.305,1.363l0,0c-0.811,0-1.594-0.205-2.293-0.596L41.03,358.443z M40.636,356.631l0.396,0.398  l4.42-4.408l0.342,0.234c0.615,0.42,1.336,0.643,2.084,0.643l0,0c0.98,0,1.902-0.381,2.598-1.072  c1.439-1.436,1.443-3.775,0.008-5.215c-1.389-1.395-3.82-1.4-5.213-0.01c-1.252,1.248-1.439,3.215-0.447,4.68l0.232,0.342  L40.636,356.631z"/>
<g  class="p4_chip2">
	<g>
		<line fill="#FFFFFF" x1="110.57" y1="299.422" x2="120.893" y2="321.225"/>
		<g>
			<path fill="#562F2F" d="M109.122,299.811c3.44,7.268,6.881,14.535,10.322,21.803c0.309,0.652,3.092-0.366,2.897-0.777     c-3.44-7.268-6.881-14.535-10.322-21.803C111.71,298.381,108.927,299.399,109.122,299.811L109.122,299.811z"/>
		</g>
	</g>
	<g>
		<line fill="#FFFFFF" x1="127.658" y1="304.676" x2="103.404" y2="316.158"/>
		<g>
			<path fill="#562F2F" d="M127.08,304.059c-8.085,3.827-16.169,7.654-24.254,11.482c-1.82,0.861-0.151,1.854,1.156,1.234     c8.085-3.827,16.169-7.654,24.254-11.482C130.056,304.432,128.387,303.439,127.08,304.059L127.08,304.059z"/>
		</g>
	</g>
	<g>
		<path fill="#FFFFFF" d="M114.811,300.086"/>
		<g>
			<path fill="#562F2F" d="M114.281,301.034c1.25,0,3.02-1.896,1.06-1.896C114.091,299.138,112.32,301.034,114.281,301.034     L114.281,301.034z"/>
		</g>
	</g>
	<g>
		<polyline fill="#FFFFFF" points="116.553,300.594 110.021,298.26 107.687,304.791   "/>
		<g>
			<path fill="#562F2F" d="M117.707,299.897c-2.177-0.778-4.354-1.556-6.531-2.334c-0.796-0.285-2.278-0.028-2.603,0.881     c-0.778,2.177-1.557,4.354-2.335,6.531c-0.345,0.965,2.554,0.59,2.896-0.369c0.778-2.177,1.557-4.354,2.335-6.531     c-0.868,0.294-1.735,0.588-2.603,0.881c2.177,0.778,4.354,1.556,6.531,2.334c0.668,0.239,1.452,0.088,2.051-0.274     C117.785,300.813,118.38,300.138,117.707,299.897L117.707,299.897z"/>
		</g>
	</g>
	<g>
		<polyline fill="#FFFFFF" points="125.904,310.932 128.24,304.4 121.708,302.066   "/>
		<g>
			<path fill="#562F2F" d="M127.336,310.686c0.779-2.177,1.557-4.354,2.336-6.531c0.073-0.202-0.083-0.275-0.246-0.333     c-2.177-0.778-4.355-1.557-6.532-2.334c-0.674-0.241-3.283,0.833-2.371,1.158c2.177,0.778,4.355,1.557,6.532,2.334     c-0.082-0.111-0.164-0.222-0.246-0.333c-0.779,2.177-1.557,4.354-2.336,6.531C124.256,311.783,127.062,311.451,127.336,310.686     L127.336,310.686z"/>
		</g>
	</g>
	<g>
		<polyline fill="#FFFFFF" points="105.139,309.91 102.804,316.441 109.335,318.775   "/>
		<g>
			<path fill="#562F2F" d="M103.748,309.723c-0.778,2.178-1.557,4.354-2.335,6.531c-0.186,0.521,0.029,1.003,0.563,1.194     c2.177,0.777,4.354,1.556,6.531,2.334c1.289,0.46,3.402-1.39,1.657-2.014c-2.177-0.777-4.354-1.556-6.531-2.334     c0.188,0.398,0.375,0.796,0.563,1.194c0.778-2.178,1.557-4.354,2.335-6.531C107.105,308.488,104.201,308.456,103.748,309.723     L103.748,309.723z"/>
		</g>
	</g>
	<g>
		<polyline fill="#FFFFFF" points="114.731,319.672 121.263,322.006 123.598,315.475   "/>
		<g>
			<path fill="#562F2F" d="M113.57,320.343c2.177,0.778,4.354,1.557,6.531,2.334c0.753,0.27,2.297-0.006,2.605-0.868     c0.778-2.178,1.557-4.354,2.335-6.531c0.32-0.895-2.562-0.52-2.889,0.395c-0.778,2.178-1.557,4.354-2.335,6.531     c0.868-0.289,1.737-0.579,2.605-0.868c-2.177-0.778-4.354-1.557-6.531-2.334c-0.654-0.234-1.461-0.047-2.046,0.292     C113.518,319.483,112.909,320.106,113.57,320.343L113.57,320.343z"/>
		</g>
	</g>
</g>
<g  class="p4_chip3">
	<g>
		<polygon fill="#FFFFFF" points="203.458,377.947 194.917,361.311 178.339,357.148 213.683,337.08   "/>
		<g>
			<path fill="#562F2F" d="M204.907,377.559c-2.847-5.545-5.694-11.09-8.541-16.636c-0.667-1.3-5.724-1.698-6.954-2.008     c-3.396-0.853-6.791-1.704-10.187-2.558c0.004,0.409,0.009,0.818,0.014,1.227c11.781-6.689,23.563-13.379,35.344-20.068     c-0.783-0.085-1.566-0.17-2.35-0.255c-3.408,13.622-6.816,27.245-10.225,40.866c-0.27,1.078,2.65,0.633,2.898-0.359     c3.408-13.623,6.816-27.244,10.225-40.867c0.275-1.099-1.99-0.459-2.35-0.255c-11.781,6.689-23.563,13.379-35.344,20.068     c-0.613,0.349-0.782,1.026,0.014,1.226c2.763,0.694,5.526,1.389,8.289,2.082c2.016,0.506,4.032,1.012,6.048,1.518     c0.543,0.137,1.086,0.273,1.63,0.41c1.014,0.254,0.028-0.289,0.165-0.023c2.808,5.471,5.616,10.939,8.425,16.41     C202.523,379.338,205.338,378.398,204.907,377.559z"/>
		</g>
	</g>
	<g>
		<line fill="#FFFFFF" x1="212.294" y1="342.633" x2="207.734" y2="341.002"/>
		<g>
			<path fill="#562F2F" d="M213.444,341.92c-1.521-0.543-3.041-1.088-4.561-1.631c-0.677-0.242-1.446-0.116-2.055,0.262     c-0.341,0.213-0.925,0.922-0.245,1.165c1.521,0.544,3.041,1.087,4.561,1.631c0.677,0.242,1.446,0.116,2.055-0.263     C213.54,342.873,214.124,342.163,213.444,341.92L213.444,341.92z"/>
		</g>
	</g>
	<g>
		<line fill="#FFFFFF" x1="201.954" y1="343.738" x2="211.259" y2="346.768"/>
		<g>
			<path fill="#562F2F" d="M200.769,344.321c3.102,1.01,6.204,2.02,9.306,3.029c0.687,0.224,3.283-0.868,2.37-1.165     c-3.102-1.01-6.204-2.02-9.306-3.029C202.452,342.934,199.855,344.023,200.769,344.321L200.769,344.321z"/>
		</g>
	</g>
	<g>
		<line fill="#FFFFFF" x1="196.011" y1="347.115" x2="210.005" y2="351.785"/>
		<g>
			<path fill="#562F2F" d="M194.826,347.697c4.665,1.557,9.33,3.113,13.994,4.67c0.684,0.229,3.283-0.858,2.37-1.163     c-4.665-1.557-9.33-3.113-13.994-4.67C196.513,346.307,193.913,347.393,194.826,347.697L194.826,347.697z"/>
		</g>
	</g>
	<g>
		<line fill="#FFFFFF" x1="188.767" y1="351.229" x2="208.539" y2="357.646"/>
		<g>
			<path fill="#562F2F" d="M187.889,352.051c6.591,2.14,13.181,4.279,19.771,6.418c0.974,0.316,3.408-1.107,1.756-1.645     c-6.591-2.139-13.181-4.277-19.771-6.418C188.671,350.091,186.237,351.515,187.889,352.051L187.889,352.051z"/>
		</g>
	</g>
	<g>
		<line fill="#FFFFFF" x1="207.255" y1="362.781" x2="183" y2="354.502"/>
		<g>
			<path fill="#562F2F" d="M208.122,361.919c-8.085-2.76-16.17-5.52-24.255-8.279c-1.041-0.354-3.409,1.153-1.733,1.726     c8.085,2.76,16.17,5.52,24.255,8.279C207.429,364,209.797,362.49,208.122,361.919L208.122,361.919z"/>
		</g>
	</g>
	<g>
		<line fill="#FFFFFF" x1="196.915" y1="365.201" x2="205.93" y2="368.068"/>
		<g>
			<path fill="#562F2F" d="M195.757,365.885c3.005,0.955,6.01,1.911,9.016,2.867c0.677,0.215,1.44,0.074,2.048-0.284     c0.314-0.186,0.95-0.864,0.267-1.081c-3.005-0.957-6.01-1.912-9.016-2.867c-0.677-0.216-1.44-0.076-2.048,0.283     C195.71,364.988,195.074,365.668,195.757,365.885L195.757,365.885z"/>
		</g>
	</g>
</g>
<path class="p4_chip4" fill="#FFFFFF" stroke="#562F2F" stroke-miterlimit="10" d="M275.793,361.313v3.332h-10.584v-3.332h4.375v-2.244  c-1.16-0.387-2-1.467-2-2.756c0-1.611,1.305-2.918,2.916-2.918s2.918,1.307,2.918,2.918c0,1.258-0.801,2.32-1.918,2.729v2.271  H275.793z M275.049,364.645h-9.096v1.918h9.096V364.645z"/>
<path class="p4_chip5" xmlns="http://www.w3.org/2000/svg" fill="#FFFFFF" d="M326.62,259.577l21.391,13.35l-9.602,7.359l-14.902-9.301L326.62,259.577z M304.542,287.202l-5.035,39.084   l13.72-21.979l1.323,0.826l-13.645,21.861l31.986-22.098l3.656-19.762l-14.417-9L304.542,287.202z M319.697,294.478   c-1.39-0.867-3.229-0.441-4.097,0.949c-0.872,1.396-0.443,3.23,0.947,4.098c1.396,0.871,3.227,0.449,4.098-0.949   C321.515,297.185,321.095,295.351,319.697,294.478z"/>
<path class="p4_chip6" xmlns="http://www.w3.org/2000/svg" fill="#FFFFFF" stroke="#562F2F" stroke-miterlimit="10" d="M353.422,366.698l-6.089-8.242c0,0-0.571-2.928,2.248-1.311  l2.155,1.686l-0.188-9.555c0,0,1.123-2.678,1.873,0.75l0.521,5.555l1.258-0.029l0.563-7.271h1.686v7.459h1.499l0.843-7.459h1.687  v7.834l2.528-3.279l1.496,0.521v2.758l-4.024,10.584H353.422z"/>
<path class="p4_chip7" xmlns="http://www.w3.org/2000/svg" fill="#FFFFFF" stroke="#562F2F" stroke-miterlimit="10" d="M497.297,343.42c-0.252,1.195-1.424,1.959-2.617,1.707  l-6.893-1.453c-1.191-0.25-1.955-1.422-1.703-2.615c0.25-1.193,1.422-1.957,2.615-1.705l1.795,0.379l0.912-4.326  c0.199-0.943,1.125-1.549,2.068-1.35c0.945,0.199,1.547,1.127,1.35,2.07l-0.912,4.324l1.678,0.354  C496.783,341.057,497.547,342.229,497.297,343.42z M489.33,343.953l-3.111,14.768c-0.223,1.057,0.453,2.094,1.51,2.316l0,0  c1.057,0.223,2.094-0.453,2.316-1.51l3.111-14.768 M487.207,360.887l-0.584,2.771c-0.063,0.293,0.125,0.58,0.418,0.641l0,0  c0.293,0.063,0.58-0.125,0.641-0.416l0.584-2.773"/>
<g class="p4_chip8" xmlns="http://www.w3.org/2000/svg">
	<path fill="#562F2F" d="M549.878,315.093c-3.596,2.396-7.191,4.794-10.787,7.191c-0.364,0.242-0.745,0.856-0.376,1.263    c2.946,3.234,5.893,6.47,8.839,9.704c0.553,0.606,1.104,1.213,1.657,1.818c0.63,0.693,0.91-0.887-0.241,0.187    c-1.699,1.585-3.399,3.17-5.099,4.755c0.845-0.075,1.689-0.15,2.535-0.226c-3.196-4.714-6.393-9.429-9.588-14.143    c-0.473-0.696-1.734-0.411-2.282-0.003c-3.436,2.557-6.871,5.113-10.307,7.67c0.801,0.081,1.602,0.163,2.402,0.244    c-1.355-11.452-2.711-22.904-4.066-34.357c-0.857,0.403-1.714,0.806-2.57,1.209c9.905,5.38,19.81,10.76,29.715,16.141    c1.076,0.584,3.639-0.881,2.242-1.641c-9.905-5.38-19.81-10.76-29.715-16.141c-0.883-0.479-2.719-0.051-2.57,1.209    c1.355,11.452,2.711,22.904,4.066,34.357c0.122,1.027,1.915,0.607,2.402,0.244c3.436-2.557,6.871-5.113,10.307-7.67    c-0.761-0.001-1.521-0.002-2.282-0.003c3.196,4.714,6.393,9.429,9.588,14.143c0.571,0.841,1.977,0.296,2.535-0.226    c1.966-1.832,3.932-3.665,5.896-5.498c0.259-0.24,0.384-0.748,0.123-1.034c-3.644-4-7.287-8-10.93-12    c-0.126,0.421-0.251,0.843-0.376,1.263c3.596-2.396,7.191-4.794,10.787-7.191C553.422,315.267,551.022,314.329,549.878,315.093z"/>
</g>
<g class="p4_chip9">
	<g>
		<path fill="#FFFFFF" d="M471.885,373.054c0.953,2.027-1.797,5.313-3.828,6.256l0,0c-2.031,0.951-6.316,0.945-7.264-1.078    l-19.924-47.604c-0.945-2.025-0.064-4.439,1.961-5.387l0,0c2.029-0.943,4.445-0.066,5.387,1.955L471.885,373.054z"/>
		<g>
			<path fill="#562F2F" d="M470.437,373.442c0.95,4.569-6.606,8.193-8.53,3.6c-0.611-1.463-1.223-2.924-1.835-4.387     c-2.214-5.291-4.429-10.582-6.644-15.873c-3.699-8.84-7.4-17.68-11.1-26.52c-1.082-2.586,3.113-5.249,4.486-2.59     c0.164,0.318,0.328,0.636,0.492,0.953c0.781,1.515,1.563,3.029,2.344,4.544c2.682,5.194,5.361,10.388,8.043,15.581     C461.942,356.981,466.189,365.212,470.437,373.442c0.446,0.865,3.235-0.122,2.897-0.777     c-5.569-10.79-11.139-21.581-16.707-32.371c-2.287-4.43-4.572-8.858-6.858-13.287c-2.897-5.615-12.099-2.166-10.348,4.01     c1.11,3.916,3.26,7.788,4.828,11.535c3.079,7.356,6.157,14.713,9.236,22.069c1.925,4.598,3.849,9.195,5.772,13.793     c2.359,5.634,11.361,0.716,13.491-2.38c0.767-1.113,0.843-2.131,0.585-3.369C473.163,371.841,470.252,372.556,470.437,373.442z"/>
		</g>
	</g>
	<g>
		<path fill="#FFFFFF" d="M466.083,385.661c1.424-2.361,4.891-6.076,10.65-2.865c0,0,9.496,4.328-5.113,28.479    c0,0,0.555-11.797-3.338-14.699C466.049,394.915,462.362,391.835,466.083,385.661z"/>
		<g>
			<path fill="#562F2F" d="M467.467,385.824c3.487-5.331,9.379-3.372,10.599,1.728c1.876,7.844-4.081,17.239-7.831,23.56     c0.95,0.017,1.9,0.034,2.852,0.051c0.141-3.414-0.11-6.878-0.842-10.216C470.842,394.538,463.51,393.419,467.467,385.824     c0.757-1.454-2.183-1.454-2.77-0.326c-2.514,4.827-1.847,8.604,2.466,11.911c3.454,2.646,3.146,10.111,2.988,13.978     c-0.063,1.551,2.345,0.904,2.853,0.051c4.049-6.826,11.876-19.415,6.73-27.663c-3.639-5.83-11.935-3.02-15.037,1.724     C463.823,386.835,466.782,386.87,467.467,385.824z"/>
		</g>
	</g>
</g>
<g class="p4_chip10">
	<path fill="#562F2F" d="M566.593,246.53c-5.576,2.736-11.154,5.473-16.73,8.209c-2.01,0.986-2.184-3.297-0.865-3.945    c0.654-0.32,1.309-0.641,1.961-0.962c1.834-0.899,3.666-1.799,5.498-2.698c2.943-1.445,5.887-2.889,8.828-4.334    c0.379-0.186,0.982-0.553,0.854-1.072c-1.77-7.118,0.658-13.975,6.852-18.066c7.246-4.787,16.383-0.761,20.67,5.815    c4.027,6.181,2.355,14.413-2.455,19.54c-6.611,7.043-17.279,4.439-22.676-2.395c-0.686-0.865-3.471,0.181-2.678,1.184    c12.84,16.258,39.857,1.406,31.248-18.105c-3.639-8.247-13.277-11.18-21.459-9.049c-9.586,2.495-14.705,12.58-12.4,21.854    c0.285-0.357,0.568-0.715,0.854-1.072c-2.635,1.293-22.572,8.456-18.83,13.314c2.723,3.535,6.471,1.027,9.58-0.498    c4.314-2.117,8.629-4.234,12.941-6.352C569.583,247.017,567.944,245.866,566.593,246.53z"/>
</g>
<path  class="p4_chip11" xmlns="http://www.w3.org/2000/svg" fill="#562F2F" d="M833.17,298.803v7.291h-1.822c0,0,0.455-4.639-6.186-5.266v18.979h4.557v3.254h-11.588v-3.254h4.559   v-19.107c-2.027,0.033-5.863,0.711-6.055,5.395h-1.953v-7.291H833.17z"/>
<g class="p4_chip12">
	<path fill="#562F2F" d="M311.04,380.58c0.803,3.287,0.989,7.928-2.893,9.322c-3.247,1.166-6.453-0.654-7.118-3.902    c-0.774-3.779,1.826-5.197,4.036-7.27c2.103-1.973,2.85-5.451,2.966-8.225c-0.767,0.367-1.533,0.733-2.301,1.1    C308.668,372.904,310.184,377.793,311.04,380.58c0.421,1.369,3.314,0.579,2.898-0.775c-1.091-3.547-2.905-8.584-6.546-10.193    c-0.741-0.328-2.261,0.145-2.301,1.1c-0.085,2.021-0.548,6.26-2.577,7.208c-1.399,0.654-2.784,1.935-3.461,3.323    c-1.453,2.979-1.564,7.213,1.328,9.457c2.776,2.154,6.89,2.187,9.937,0.54c4.312-2.33,4.672-7.126,3.62-11.435    C313.601,378.424,310.701,379.191,311.04,380.58z"/>
</g>
<rect  class="p4_chip13" xmlns="http://www.w3.org/2000/svg" x="73.055" y="359.228" fill="#FFFFFF" stroke="#562F2F" stroke-miterlimit="10" width="14.021" height="10.166"/>
<ellipse class="p4_chip14" xmlns="http://www.w3.org/2000/svg" fill="#FFFFFF" stroke="#562F2F" stroke-miterlimit="10" cx="591.593" cy="298.26" rx="5.709" ry="5.208"/>
<path class="p4_chip15" xmlns="http://www.w3.org/2000/svg" fill="#FFFFFF" stroke="#562F2F" stroke-miterlimit="10" d="M467.08,289.215c1.302,2.896-0.604,6.576-4.256,8.217  c-3.651,1.643-7.668,0.625-8.969-2.271c-1.303-2.896,0.603-6.574,4.254-8.217C461.761,285.303,465.777,286.318,467.08,289.215z   M453.306,284.49l3.451,7.676 M455.891,283.328l3.45,7.676 M461.926,289.842l-3.45-7.676 M461.763,301.984l-3.449-7.676   M460.898,293.146l3.451,7.676 M466.933,299.66l-3.451-7.676 M463.195,287.908l7.635-3.539 M464.388,290.479l7.635-3.541   M473.216,289.508l-7.636,3.543 M454.676,291.574l-7.636,3.543 M455.871,294.145l-7.637,3.541 M457.062,296.717l-7.636,3.539"/>
<path class="p4_chip16" xmlns="http://www.w3.org/2000/svg" fill="#562F2F" d="M431.355,347.007c0-0.08-0.01-0.164-0.05-0.238c-0.094-0.174-0.272-0.279-0.482-0.26l-11.656,0.998  c-0.122,0.012-0.236,0.066-0.32,0.154l-20.998,22.195c-0.09,0.094-0.119,0.217-0.119,0.344h-0.018v12.377h15.45l18.108-24.836  l0.096-0.131v-10.604H431.355z M419.442,348.487l10.321-0.883L412.445,369.7h-13.072L419.442,348.487z M398.712,370.7h13.477v10.877  h-13.477V370.7z M413.188,380.845v-10.473l17.178-21.916v8.828L413.188,380.845z"/>
<g class="p4_chip17" xmlns="http://www.w3.org/2000/svg">
	<path fill="#562F2F" d="M325.257,260.079c5.749,3.588,11.497,7.176,17.246,10.764c1.172,0.73,2.344,1.463,3.516,2.193    c0.865,0.541,1.045-0.305-0.222,0.666c-2.834,2.172-5.669,4.346-8.504,6.518c0.826-0.145,1.652-0.291,2.479-0.436    c-4.52-2.821-9.039-5.642-13.559-8.463c-1.877-1.172-0.966-1.715-0.319-4.087c0.719-2.634,1.438-5.269,2.157-7.903    c0.183-0.67-2.657-0.264-2.863,0.492c-1.038,3.803-2.075,7.605-3.113,11.408c-0.046,0.104-0.023,0.189,0.069,0.256    c4.967,3.101,9.935,6.201,14.902,9.301c0.62,0.387,1.955-0.034,2.479-0.436c3.201-2.453,6.401-4.906,9.602-7.359    c0.121-0.093,0.532-0.391,0.247-0.568c-7.13-4.45-14.26-8.9-21.391-13.35C327.262,258.624,324.813,259.802,325.257,260.079z"/>
	<path fill="#562F2F" d="M303.11,287.448c-1.678,13.028-3.356,26.057-5.035,39.084c-0.115,0.895,2.546,0.016,2.863-0.492    c4.573-7.326,9.146-14.652,13.72-21.979c-0.932,0.25-1.863,0.499-2.794,0.748c1.689,1.055,0.845,1.227-0.232,2.953    c-1.517,2.43-3.033,4.859-4.55,7.289c-2.536,4.063-5.072,8.127-7.608,12.189c-0.381,0.611,2.276,0.008,2.547-0.18    c9.337-6.451,18.675-12.902,28.012-19.353c3.314-2.29,4.171-2.418,4.895-6.327c1.017-5.497,2.034-10.994,3.052-16.492    c0.046-0.104,0.023-0.189-0.069-0.256c-4.806-3-9.611-6-14.417-9c-0.658-0.411-1.902,0.073-2.479,0.436    c-5.863,3.689-11.726,7.378-17.589,11.066c-1.237,0.779,1.687,0.475,2.231,0.133c5.863-3.689,11.726-7.378,17.589-11.066    c-0.826,0.145-1.652,0.291-2.479,0.436c2.2,1.374,14.526,7.784,14.252,9.264c-0.666,3.598-1.331,7.194-1.997,10.791    c-0.363,1.961-0.726,3.922-1.089,5.884c-0.129,0.696-0.68,2.614-0.267,2.329c-10.626,7.342-21.252,14.683-31.878,22.023    c0.849-0.06,1.698-0.119,2.547-0.18c4.548-7.287,9.096-14.574,13.645-21.861c0.046-0.104,0.023-0.189-0.069-0.256    c-0.441-0.275-0.882-0.551-1.323-0.826c-0.687-0.43-2.382,0.088-2.794,0.748c-4.573,7.326-9.146,14.652-13.72,21.979    c0.955-0.164,1.909-0.328,2.863-0.492c1.678-13.028,3.356-26.057,5.035-39.084C306.073,286.18,303.203,286.732,303.11,287.448z"/>
	<path fill="#562F2F" d="M321.06,293.976c-1.973-1.111-4.604-0.471-6.268,0.93c-1.665,1.402-1.298,3.959,0.393,5.121    c1.835,1.263,4.721,0.38,6.268-0.927C323.116,297.693,322.753,295.142,321.06,293.976c-0.477-0.329-1.398-0.033-1.873,0.141    c-0.148,0.055-1.308,0.551-0.853,0.863c0.953,0.656,1.458,1.704,1.271,2.865c-0.089,0.556-0.397,1.047-0.786,1.439    c-0.404,0.408,0.306,0.121-0.106,0.055c-0.291-0.047-0.55-0.174-0.803-0.316c-0.988-0.557-1.443-1.777-1.271-2.861    c0.088-0.557,0.396-1.048,0.785-1.439c0.403-0.406-0.303-0.121,0.109-0.057c0.291,0.047,0.548,0.173,0.801,0.314    c0.526,0.297,1.354,0.05,1.873-0.141C320.321,294.797,321.544,294.247,321.06,293.976z"/>
</g>
<path class="p4_chip18" xmlns="http://www.w3.org/2000/svg" fill="#FFFFFF" stroke="#562F2F" stroke-miterlimit="10" d="M210.225,280.907c0.535,2.049-2.027,4.49-5.725,5.457  c-3.695,0.965-7.125,0.086-7.66-1.961c-0.535-2.049,2.027-4.492,5.723-5.457C206.26,277.981,209.689,278.858,210.225,280.907z   M198.148,285.981c0,0-2.637,0.875-2.053,3.375c0,0,2.416,2.465,3.5-2.602c0,0,2-0.814,0.75,4.768"/>

<g class="p4_chip19" xmlns="http://www.w3.org/2000/svg">
	<rect x="858.771" y="218.736" fill="#FFFFFF" stroke="#562F2F" stroke-miterlimit="10" width="7.676" height="7.678"/>
	<rect x="862.082" y="223.333" fill="#FFFFFF" stroke="#562F2F" stroke-miterlimit="10" width="7.592" height="7.592"/>
</g>
<path class="p4_chip20" xmlns="http://www.w3.org/2000/svg" fill="#FFFFFF" stroke="#562F2F" stroke-miterlimit="10" d="M613.732,428.154c0.375,0.289,0.445,0.828,0.154,1.205l0,0  c-0.289,0.375-0.828,0.443-1.203,0.154l-14.402-11.129c-0.375-0.291-0.443-0.828-0.154-1.205l0,0  c0.291-0.375,0.828-0.443,1.205-0.154L613.732,428.154z M596.115,413.516c-1.242,0-2.25,1.006-2.25,2.25  c0,1.242,1.008,2.25,2.25,2.25c1.244,0,2.25-1.008,2.25-2.25C598.365,414.521,597.359,413.516,596.115,413.516z M593.199,410.432  l1.584,3.529 M596.115,406.432v7.084 M588.199,413.516l5.666,1.832 M589.865,417.432l4.127-0.939 M591.033,422.098l3.75-4.521   M595.699,423.016l0.416-5 M601.115,422.598l-3.674-5.021 M600.443,410.848l-2.994,3.113 M598.072,415.348l6.043-0.5   M601.115,418.016l-2.875-1.523"/>

</svg>
