<?xml version="1.0" encoding="utf-8"?>
<!-- Generator: Adobe Illustrator 16.0.0, SVG Export Plug-In . SVG Version: 6.00 Build 0)  -->
<!DOCTYPE svg PUBLIC "-//W3C//DTD SVG 1.1//EN" "http://www.w3.org/Graphics/SVG/1.1/DTD/svg11.dtd">
<svg version="1.1" class="图层_1" xmlns="http://www.w3.org/2000/svg" xmlns:xlink="http://www.w3.org/1999/xlink" x="0px" y="0px"
	 width="960px" height="640px" viewBox="0 0 960 640" enable-background="new 0 0 960 640" xml:space="preserve">

	 <g class="p5_txt">
	 	<image xmlns="http://www.w3.org/2000/svg" overflow="visible" width="413" height="175" xmlns:xlink="http://www.w3.org/1999/xlink" xlink:href="./images/416BFEC7.png" transform="matrix(1 0 0 1 550 54.4307)">
		</image>
	 </g>

<g class="p5_bot">
	
	<rect x="-6.666" y="490.912" fill="#66B1E0" width="997.979" height="150.089"/>
	<g>
		<path fill="#552F2E" d="M991.87,640.154c-16.227,0-32.453,0-48.68,0c-42.333,0-84.666,0-126.999,0c-58.921,0-117.842,0-176.762,0
			c-65.989,0-131.978,0-197.967,0c-63.538,0-127.075,0-190.613,0c-51.567,0-103.134,0-154.701,0c-30.077,0-60.154,0-90.231,0
			c-4.009,0-8.018,0-12.027,0c0.298,0.225,0.596,0.448,0.894,0.673c0-48.195,0-96.392,0-144.587c0-1.834,0-3.668,0-5.502
			c-0.669,0.34-1.338,0.681-2.007,1.021c16.226,0,32.453,0,48.679,0c42.333,0,84.667,0,127,0c58.921,0,117.842,0,176.762,0
			c65.989,0,131.978,0,197.966,0c63.537,0,127.075,0,190.612,0c51.567,0,103.134,0,154.701,0c30.077,0,60.154,0,90.231,0
			c4.009,0,8.019,0,12.027,0c-0.298-0.224-0.597-0.448-0.895-0.673c0,48.195,0,96.392,0,144.587c0,1.834,0,3.668,0,5.502
			c0,1.25,2.902,0.638,2.902-0.348c0-48.195,0-96.392,0-144.587c0-1.834,0-3.668,0-5.502c0-0.497-0.437-0.673-0.895-0.673
			c-16.227,0-32.453,0-48.68,0c-42.333,0-84.666,0-126.999,0c-58.921,0-117.842,0-176.762,0c-65.989,0-131.978,0-197.967,0
			c-63.538,0-127.075,0-190.613,0c-51.567,0-103.134,0-154.701,0c-30.077,0-60.154,0-90.231,0c-4.009,0-8.018,0-12.027,0
			c-0.504,0-2.007,0.267-2.007,1.021c0,48.195,0,96.392,0,144.587c0,1.834,0,3.668,0,5.502c0,0.497,0.437,0.673,0.894,0.673
			c16.226,0,32.453,0,48.679,0c42.333,0,84.667,0,127,0c58.921,0,117.842,0,176.762,0c65.989,0,131.978,0,197.966,0
			c63.537,0,127.075,0,190.612,0c51.567,0,103.134,0,154.701,0c30.077,0,60.154,0,90.231,0c4.009,0,8.019,0,12.027,0
			C991.873,641.848,993.83,640.154,991.87,640.154z"/>
	</g>
	<g >
		<rect x="-8" y="593.751" fill="#66BAED" width="1001" height="33.35"/>
		<g>
			<path fill="#562F2F" d="M993.524,626.131c-16.214,0-32.428,0-48.642,0c-42.313,0-84.628,0-126.941,0     c-58.923,0-117.847,0-176.77,0c-66.041,0-132.082,0-198.124,0c-63.668,0-127.337,0-191.006,0c-51.805,0-103.609,0-155.415,0     c-30.45,0-60.9,0-91.351,0c-4.251,0-8.502,0-12.753,0c0.313,0.278,0.625,0.556,0.937,0.833c0-11.116,0-22.232,0-33.35     c-0.662,0.369-1.323,0.737-1.985,1.106c16.213,0,32.427,0,48.641,0c42.314,0,84.627,0,126.941,0c58.923,0,117.846,0,176.77,0     c66.041,0,132.083,0,198.124,0c63.668,0,127.337,0,191.005,0c51.806,0,103.61,0,155.415,0c30.45,0,60.9,0,91.351,0     c4.251,0,8.502,0,12.753,0c-0.312-0.278-0.624-0.556-0.937-0.833c0,11.116,0,22.232,0,33.35c0,1.418,2.922,0.899,2.922-0.273     c0-11.116,0-22.232,0-33.35c0-0.514-0.428-0.833-0.937-0.833c-16.214,0-32.428,0-48.642,0c-42.313,0-84.628,0-126.941,0     c-58.923,0-117.847,0-176.77,0c-66.041,0-132.082,0-198.124,0c-63.668,0-127.337,0-191.006,0c-51.805,0-103.609,0-155.415,0     c-30.45,0-60.9,0-91.351,0c-4.251,0-8.502,0-12.753,0c-0.591,0-1.985,0.256-1.985,1.106c0,11.116,0,22.232,0,33.35     c0,0.514,0.428,0.833,0.937,0.833c16.213,0,32.427,0,48.641,0c42.314,0,84.627,0,126.941,0c58.923,0,117.846,0,176.77,0     c66.041,0,132.083,0,198.124,0c63.668,0,127.337,0,191.005,0c51.806,0,103.61,0,155.415,0c30.45,0,60.9,0,91.351,0     c4.251,0,8.502,0,12.753,0C993.752,628.07,995.484,626.131,993.524,626.131z"/>
		</g>
	</g>
</g>
<g class="p5_build">
	<g>
		<rect x="864.573" y="370.963" fill="#F77C72" width="19.213" height="38.276"/>
		<g>
			<path fill="#562F2F" d="M884.375,408.511c-5.211,0-10.422,0-15.634,0c-1.001,0-2.003,0-3.005,0c-1.005,0,0.286,0.725,0.286-0.181     c0-1.945,0-3.891,0-5.835c0-10.641,0-21.28,0-31.921c-0.68,0.373-1.358,0.745-2.038,1.117c5.211,0,10.422,0,15.634,0     c1.001,0,2.003,0,3.005,0c1.005,0-0.286-0.725-0.286,0.181c0,1.945,0,3.89,0,5.835c0,10.641,0,21.28,0,31.921     c0,0.737,2.898,0.237,2.898-0.777c0-12.759,0-25.518,0-38.276c0-0.322-0.683-0.34-0.86-0.34c-6.404,0-12.809,0-19.213,0     c-0.608,0-2.038,0.308-2.038,1.117c0,12.759,0,25.518,0,38.276c0,0.322,0.683,0.34,0.86,0.34c6.404,0,12.809,0,19.213,0     C884.157,409.968,886.324,408.511,884.375,408.511z"/>
		</g>
	</g>
	<g>
		<rect x="852.473" y="390.185" fill="#E5DFDF" width="64.089" height="100.567"/>
		<g>
			<path fill="#562F2F" d="M917.12,489.912c-21.363,0-42.726,0-64.089,0c0.297,0.221,0.595,0.442,0.892,0.664     c0-33.522,0-67.045,0-100.567c-0.67,0.339-1.339,0.677-2.009,1.016c21.363,0,42.726,0,64.089,0     c-0.297-0.221-0.595-0.442-0.892-0.664c0,33.522,0,67.045,0,100.567c0,1.24,2.9,0.624,2.9-0.352c0-33.522,0-67.045,0-100.567     c0-0.495-0.438-0.664-0.892-0.664c-21.363,0-42.726,0-64.089,0c-0.5,0-2.009,0.268-2.009,1.016c0,33.522,0,67.045,0,100.567     c0,0.496,0.438,0.664,0.892,0.664c21.363,0,42.726,0,64.089,0C917.11,491.592,919.08,489.912,917.12,489.912z"/>
		</g>
	</g>
	<g>
		<g>
			<rect x="894.115" y="425.824" fill="#E5DFDF" width="64.089" height="64.928"/>
			<g>
				<path fill="#562F2F" d="M959.148,490.178c-10.517,0-21.032,0-31.549,0c-7.321,0-14.643,0-21.963,0c-2.478,0-4.955,0-7.433,0      c-0.73,0-1.461,0-2.191,0c-1.214,0-0.448-0.073-0.448,0.166c0-21.636,0-43.271,0-64.908c-0.798,0.321-1.596,0.642-2.394,0.963      c10.517,0,21.032,0,31.549,0c7.321,0,14.642,0,21.963,0c2.478,0,4.955,0,7.433,0c0.73,0,1.461,0,2.191,0      c1.214,0,0.448,0.073,0.448-0.166c0,21.636,0,43.271,0,64.908c0,0.433,2.898,0.027,2.898-0.777c0-21.643,0-43.285,0-64.928      c0-0.173-0.429-0.186-0.505-0.186c-21.363,0-42.726,0-64.089,0c-0.489,0-2.394,0.23-2.394,0.963c0,21.643,0,43.285,0,64.928      c0,0.173,0.429,0.186,0.505,0.186c21.363,0,42.726,0,64.089,0C957.845,491.326,960.554,490.178,959.148,490.178z"/>
			</g>
		</g>
		<g>
			<g>
				<rect x="935.351" y="432.98" fill="#E5DFDF" width="6" height="6"/>
				<g>
					<path fill="#562F2F" d="M942.282,438.358c-2,0-4,0-6,0c0.172,0.078,0.345,0.156,0.518,0.233c0-2,0-4,0-6       c-0.794,0.337-1.587,0.674-2.381,1.011c2,0,4,0,6,0c-0.172-0.078-0.345-0.156-0.518-0.233c0,2,0,4,0,6       c0,0.541,2.898,0.103,2.898-0.777c0-2,0-4,0-6c0-0.186-0.42-0.233-0.518-0.233c-2,0-4,0-6,0c-0.549,0-2.381,0.192-2.381,1.011       c0,2,0,4,0,6c0,0.186,0.42,0.233,0.518,0.233c2,0,4,0,6,0c0.704,0,1.454-0.152,2.049-0.55       C942.908,438.759,942.865,438.358,942.282,438.358z"/>
				</g>
			</g>
			<g>
				<rect x="935.351" y="442.313" fill="#E5DFDF" width="6" height="6"/>
				<g>
					<path fill="#562F2F" d="M941.488,447.286c-2,0-4,0-6,0c0.442,0.303,0.885,0.605,1.328,0.907c0-2,0-4,0-6       c-0.535,0.383-1.069,0.765-1.604,1.147c2,0,4,0,6,0c-0.442-0.303-0.885-0.605-1.328-0.907c0,2,0,4,0,6       c0,1.486,2.932,1.016,2.932-0.24c0-2,0-4,0-6c0-0.753-0.705-0.907-1.328-0.907c-2,0-4,0-6,0c-0.548,0-1.604,0.474-1.604,1.147       c0,2,0,4,0,6c0,0.753,0.705,0.907,1.328,0.907c2,0,4,0,6,0C942.844,449.341,943.457,447.286,941.488,447.286z"/>
				</g>
			</g>
			<g>
				<rect x="935.351" y="451.646" fill="#E5DFDF" width="6" height="6"/>
				<g>
					<path fill="#562F2F" d="M942.299,457.089c-2,0-4,0-6,0c0.167,0.057,0.334,0.113,0.501,0.169c0-2,0-4,0-6       c-0.8,0.315-1.599,0.631-2.397,0.946c2,0,4,0,6,0c-0.167-0.057-0.334-0.113-0.501-0.169c0,2,0,4,0,6       c0,0.395,2.898,0.001,2.898-0.777c0-2,0-4,0-6c0-0.168-0.433-0.169-0.501-0.169c-2,0-4,0-6,0c-0.469,0-2.397,0.244-2.397,0.946       c0,2,0,4,0,6c0,0.168,0.433,0.169,0.501,0.169c2,0,4,0,6,0c0.688,0,1.454-0.199,2.049-0.549       C942.917,457.381,942.847,457.089,942.299,457.089z"/>
				</g>
			</g>
			<g>
				<rect x="935.351" y="460.979" fill="#E5DFDF" width="6" height="6"/>
				<g>
					<path fill="#562F2F" d="M941.492,465.969c-2,0-4,0-6,0c0.441,0.295,0.882,0.591,1.322,0.887c0-2,0-4,0-6       c-0.535,0.378-1.07,0.757-1.605,1.135c2,0,4,0,6,0c-0.441-0.295-0.882-0.591-1.322-0.887c0,2,0,4,0,6       c0,1.469,2.928,0.985,2.928-0.248c0-2,0-4,0-6c0-0.749-0.707-0.887-1.322-0.887c-2,0-4,0-6,0c-0.538,0-1.605,0.468-1.605,1.135       c0,2,0,4,0,6c0,0.749,0.707,0.887,1.322,0.887c2,0,4,0,6,0C942.828,467.99,943.463,465.969,941.492,465.969z"/>
				</g>
			</g>
			<g>
				<rect x="935.351" y="470.313" fill="#E5DFDF" width="6" height="6"/>
				<g>
					<path fill="#562F2F" d="M941.918,475.506c-2,0-4,0-6,0c0.294,0.14,0.588,0.279,0.882,0.418c0-2,0-4,0-6       c-0.673,0.398-1.345,0.797-2.017,1.195c2,0,4,0,6,0c-0.294-0.14-0.588-0.279-0.882-0.418c0,2,0,4,0,6       c0,0.875,2.898,0.333,2.898-0.777c0-2,0-4,0-6c0-0.343-0.67-0.418-0.882-0.418c-2,0-4,0-6,0c-0.692,0-2.017,0.312-2.017,1.195       c0,2,0,4,0,6c0,0.343,0.67,0.418,0.882,0.418c2,0,4,0,6,0c0.651,0,1.515-0.219,1.914-0.785       C943.093,475.773,942.365,475.506,941.918,475.506z"/>
				</g>
			</g>
			<g>
				<rect x="935.351" y="479.646" fill="#E5DFDF" width="6" height="6"/>
				<g>
					<path fill="#562F2F" d="M941.467,484.537c-2,0-4,0-6,0c0.451,0.337,0.903,0.674,1.355,1.011c0-2,0-4,0-6       c-0.529,0.402-1.059,0.804-1.588,1.206c2,0,4,0,6,0c-0.451-0.337-0.903-0.674-1.355-1.011c0,2,0,4,0,6       c0,1.573,2.943,1.175,2.943-0.195c0-2,0-4,0-6c0-0.77-0.693-1.011-1.355-1.011c-2,0-4,0-6,0c-0.596,0-1.588,0.501-1.588,1.206       c0,2,0,4,0,6c0,0.77,0.693,1.011,1.355,1.011c2,0,4,0,6,0C942.925,486.754,943.429,484.537,941.467,484.537z"/>
				</g>
			</g>
		</g>
		<g>
			<g>
				<rect x="945.834" y="432.98" fill="#E5DFDF" width="6" height="6"/>
				<g>
					<path fill="#562F2F" d="M952.366,438.042c-2,0-4,0-6,0c0.309,0.265,0.617,0.528,0.926,0.793c0-2,0-4,0-6       c-0.663,0.361-1.327,0.723-1.99,1.084c2,0,4,0,6,0c-0.309-0.265-0.617-0.528-0.926-0.793c0,2,0,4,0,6       c0,1.378,2.916,0.833,2.916-0.291c0-2,0-4,0-6c0-0.511-0.429-0.793-0.926-0.793c-2,0-4,0-6,0c-0.569,0-1.99,0.258-1.99,1.084       c0,2,0,4,0,6c0,0.511,0.429,0.793,0.926,0.793c2,0,4,0,6,0c0.681,0,1.531-0.192,1.899-0.84       C953.537,438.489,952.917,438.042,952.366,438.042z"/>
				</g>
			</g>
			<g>
				<rect x="945.834" y="442.313" fill="#E5DFDF" width="6" height="6"/>
				<g>
					<path fill="#562F2F" d="M951.944,447.185c-2,0-4,0-6,0c0.454,0.346,0.908,0.691,1.362,1.037c0-2,0-4,0-6       c-0.527,0.407-1.056,0.813-1.583,1.221c2,0,4,0,6,0c-0.454-0.346-0.908-0.691-1.362-1.037c0,2,0,4,0,6       c0,1.595,2.945,1.215,2.945-0.184c0-2,0-4,0-6c0-0.773-0.69-1.037-1.362-1.037c-2,0-4,0-6,0c-0.607,0-1.583,0.509-1.583,1.221       c0,2,0,4,0,6c0,0.773,0.69,1.037,1.362,1.037c2,0,4,0,6,0C953.429,449.442,953.905,447.185,951.944,447.185z"/>
				</g>
			</g>
			<g>
				<rect x="945.834" y="451.646" fill="#E5DFDF" width="6" height="6"/>
				<g>
					<path fill="#562F2F" d="M952.365,456.703c-2,0-4,0-6,0c0.309,0.267,0.618,0.533,0.928,0.799c0-2,0-4,0-6       c-0.663,0.362-1.327,0.725-1.99,1.088c2,0,4,0,6,0c-0.309-0.267-0.618-0.533-0.928-0.799c0,2,0,4,0,6       c0,1.384,2.918,0.843,2.918-0.289c0-2,0-4,0-6c0-0.511-0.43-0.799-0.928-0.799c-2,0-4,0-6,0c-0.573,0-1.99,0.258-1.99,1.088       c0,2,0,4,0,6c0,0.511,0.43,0.799,0.928,0.799c2,0,4,0,6,0c0.683,0,1.532-0.191,1.899-0.842       C953.535,457.157,952.919,456.703,952.365,456.703z"/>
				</g>
			</g>
			<g>
				<rect x="945.834" y="460.979" fill="#E5DFDF" width="6" height="6"/>
				<g>
					<path fill="#562F2F" d="M951.949,465.869c-2,0-4,0-6,0c0.452,0.338,0.904,0.676,1.356,1.014c0-2,0-4,0-6       c-0.529,0.402-1.059,0.805-1.587,1.207c2,0,4,0,6,0c-0.452-0.338-0.904-0.676-1.356-1.014c0,2,0,4,0,6       c0,1.575,2.943,1.179,2.943-0.193c0-2,0-4,0-6c0-0.77-0.693-1.014-1.356-1.014c-2,0-4,0-6,0c-0.597,0-1.587,0.502-1.587,1.207       c0,2,0,4,0,6c0,0.77,0.693,1.014,1.356,1.014c2,0,4,0,6,0C953.41,468.09,953.911,465.869,951.949,465.869z"/>
				</g>
			</g>
			<g>
				<rect x="945.834" y="470.313" fill="#E5DFDF" width="6" height="6"/>
				<g>
					<path fill="#562F2F" d="M952.423,475.585c-2,0-4,0-6,0c0.287,0.113,0.573,0.227,0.86,0.339c0-2,0-4,0-6       c-0.68,0.372-1.358,0.744-2.038,1.116c2,0,4,0,6,0c-0.287-0.113-0.573-0.227-0.86-0.339c0,2,0,4,0,6       c0,0.736,2.898,0.236,2.898-0.777c0-2,0-4,0-6c0-0.322-0.683-0.339-0.86-0.339c-2,0-4,0-6,0c-0.607,0-2.038,0.308-2.038,1.116       c0,2,0,4,0,6c0,0.322,0.683,0.339,0.86,0.339c2,0,4,0,6,0c0.636,0,1.505-0.236,1.923-0.752       C953.602,475.753,952.799,475.585,952.423,475.585z"/>
				</g>
			</g>
			<g>
				<rect x="945.834" y="479.646" fill="#E5DFDF" width="6" height="6"/>
				<g>
					<path fill="#562F2F" d="M951.964,484.59c-2,0-4,0-6,0c0.446,0.314,0.892,0.629,1.338,0.944c0-2,0-4,0-6       c-0.533,0.389-1.065,0.778-1.598,1.167c2,0,4,0,6,0c-0.446-0.314-0.892-0.629-1.338-0.944c0,2,0,4,0,6       c0,1.519,2.936,1.073,2.936-0.223c0-2,0-4,0-6c0-0.76-0.701-0.944-1.338-0.944c-2,0-4,0-6,0c-0.564,0-1.598,0.482-1.598,1.167       c0,2,0,4,0,6c0,0.76,0.701,0.944,1.338,0.944c2,0,4,0,6,0C953.356,486.701,953.931,484.59,951.964,484.59z"/>
				</g>
			</g>
		</g>
	</g>
</g>
<g class="p5_tool">
	<g>
		<polygon fill="#D8D6D6" stroke="#562F2F" stroke-width="2" stroke-miterlimit="10" points="482.759,507.746 419.836,507.746     424.301,478.013 478.293,478.013   "/>
		<polygon fill="#EDDDDD" stroke="#562F2F" stroke-width="2" stroke-miterlimit="10" points="478.266,502.908 419.836,502.908     423.985,473.174 474.117,473.174   "/>
	</g>
	<g>
		<g>
			<polygon fill="#E5DFDF" points="285.111,490.23 293.639,505.673 381.919,505.673 389.063,491.383    "/>
			<g>
				<path fill="#562F2F" d="M283.77,490.814c2.843,5.147,5.685,10.295,8.527,15.442c0.121,0.218,0.583,0.291,0.792,0.291      c29.427,0,58.854,0,88.28,0c0.611,0,1.596-0.19,1.907-0.813c2.381-4.763,4.762-9.526,7.144-14.29      c0.297-0.595-0.251-0.931-0.808-0.937c-34.65-0.385-69.301-0.769-103.951-1.152c-1.158-0.014-3.061,1.729-1.099,1.75      c34.65,0.385,69.301,0.769,103.951,1.152c-0.27-0.313-0.539-0.624-0.808-0.937c-2.381,4.763-4.762,9.526-7.144,14.29      c0.636-0.271,1.271-0.543,1.907-0.813c-18.813,0-37.626,0-56.439,0c-9.705,0-19.409,0-29.113,0c-0.832,0-1.663,0-2.494,0      c-0.685,0,0.739,0.622,0.423,0.05c-0.43-0.778-0.859-1.556-1.289-2.334c-2.369-4.289-4.737-8.578-7.105-12.867      C285.958,488.753,283.144,489.68,283.77,490.814z"/>
			</g>
		</g>
		<g>
			<rect x="293.639" y="450.815" fill="#E5DFDF" width="88.28" height="49.327"/>
			<g>
				<path fill="#562F2F" d="M382.058,499.118c-29.427,0-58.854,0-88.28,0c0.442,0.302,0.884,0.603,1.327,0.904      c0-16.442,0-32.885,0-49.327c-0.535,0.381-1.069,0.763-1.604,1.145c29.427,0,58.854,0,88.28,0      c-0.442-0.302-0.884-0.603-1.327-0.904c0,16.442,0,32.885,0,49.327c0,1.483,2.931,1.011,2.931-0.24c0-16.442,0-32.885,0-49.327      c0-0.753-0.706-0.904-1.327-0.904c-29.427,0-58.854,0-88.28,0c-0.547,0-1.604,0.473-1.604,1.145c0,16.442,0,32.885,0,49.327      c0,0.753,0.706,0.904,1.327,0.904c29.427,0,58.854,0,88.28,0C383.409,501.167,384.027,499.118,382.058,499.118z"/>
			</g>
		</g>
		<path fill="#F9F3F2" stroke="#562F2F" stroke-miterlimit="10" d="M404.262,498.325c0,2.652-2.15,4.802-4.804,4.802h-2.769    c-2.652,0-4.803-2.149-4.803-4.802l0,0c0-2.652,2.15-4.803,4.803-4.803h2.769C402.111,493.522,404.262,495.673,404.262,498.325    L404.262,498.325z"/>
	</g>
</g>
<g class="p5_bg">
	<g opacity=".1">
		<ellipse fill="#23A664" cx="5.082" cy="13.062" rx="2.721" ry="2.619"/>
		<ellipse fill="#23A664" cx="22.869" cy="13.062" rx="2.72" ry="2.619"/>
		<ellipse fill="#23A664" cx="22.869" cy="30.266" rx="2.72" ry="2.619"/>
		<ellipse fill="#23A664" cx="22.869" cy="47.388" rx="2.72" ry="2.619"/>
		<ellipse fill="#23A664" cx="40.655" cy="30.266" rx="2.72" ry="2.619"/>
		<ellipse fill="#23A664" cx="31.762" cy="21.663" rx="2.72" ry="2.619"/>
		<ellipse fill="#23A664" cx="13.975" cy="21.663" rx="2.72" ry="2.619"/>
		<ellipse fill="#23A664" cx="31.762" cy="38.826" rx="2.72" ry="2.619"/>
		<ellipse fill="#23A664" cx="13.975" cy="38.826" rx="2.72" ry="2.619"/>
		<ellipse fill="#23A664" cx="40.655" cy="47.388" rx="2.72" ry="2.619"/>
		<ellipse fill="#23A664" cx="40.655" cy="13.062" rx="2.72" ry="2.619"/>
		<ellipse fill="#23A664" cx="5.081" cy="30.266" rx="2.72" ry="2.619"/>
		<ellipse fill="#23A664" cx="5.081" cy="47.388" rx="2.72" ry="2.619"/>
	</g>
</g>
<g class="p5_fun1">
	<ellipse fill="#E5DFDF" cx="439.316" cy="226.508" rx="18.531" ry="10.235"/>
	<g>
		<path fill="#562F2F" d="M456.401,226.698c-1.069,13.147-31.126,12.433-34.092,0.353c-3.023-12.318,32.914-14.612,34.089-0.155    c0.073,0.905,2.985,0.295,2.897-0.776c-1.234-15.188-38.728-14.547-39.958,0.579c-0.751,9.23,15.125,10.945,21.095,10.797    c6.604-0.164,18.196-3.008,18.86-11.178C459.386,225.183,456.477,225.764,456.401,226.698z"/>
	</g>
</g>
<g class="p5_fun2">
	<g>
		
			<ellipse transform="matrix(0.1104 -0.9939 0.9939 0.1104 291.0201 580.8513)" fill="#FCE18B" cx="469.98" cy="127.858" rx="46.867" ry="70.231"/>
	</g>
	<g>
		<g>
			<path fill="#562F2F" d="M535.396,133.592c-3.136,24.36-29.459,35.409-51,37.918c-25.762,3.001-55.184-4.519-73.709-23.34       c-6.975-7.087-11.73-16.248-12.177-26.265c-0.467-10.459,5.095-19.934,12.627-26.75c19.818-17.937,51.606-18.744,76.064-12.288       C509.781,88.829,537.9,106.802,535.396,133.592c-0.109,1.168,2.806,0.607,2.896-0.365c1.909-20.407-14.132-35.98-30.82-44.799       c-21.312-11.263-47.695-13.625-70.92-7.751c-17.743,4.488-36.601,16.022-40.438,35.223       c-3.976,19.899,12.195,36.563,27.987,45.624c21.715,12.459,49.358,15.198,73.436,9.108       c18.403-4.655,38.134-17.033,40.755-37.404C538.439,132.078,535.521,132.613,535.396,133.592z"/>
		</g>
	</g>
	<g>
		<g>
			<g>
				<path fill="#562F2F" d="M438.444,99.229c-3.036,0.308-4.219,3.022-4.856,5.741c-1.524,6.496-1.039,13.197-5.487,18.667        c-1.177,1.448,1.561,2.059,2.453,0.961c2.709-3.331,3.899-6.876,4.585-11.072c0.287-1.753,0.727-11.792,3.085-12.031        C439.895,101.325,440.411,99.03,438.444,99.229L438.444,99.229z"/>
			</g>
		</g>
		<g>
			<g>
				<path fill="#562F2F" d="M427.684,112.201c3.451,0.4,6.872,0.942,10.356,0.886c0.874-0.014,3.148-1.361,1.211-1.33        c-3.266,0.053-6.49-0.498-9.724-0.874C428.813,110.801,426.159,112.023,427.684,112.201L427.684,112.201z"/>
			</g>
		</g>
		<g>
			<g>
				<path fill="#562F2F" d="M440.458,108.724c-0.243,2.031-0.811,4.21-0.145,6.214c0.639,1.927,2.913,2.742,4.768,2.739        c4.402-0.009,5.229-4.367,6.114-7.743c0.273-1.045-2.642-0.606-2.896,0.369c-0.278,1.064-0.917,5.745-2.407,5.748        c-4.032,0.008-2.819-5.333-2.537-7.696C443.491,107.209,440.574,107.753,440.458,108.724L440.458,108.724z"/>
			</g>
		</g>
		<g>
			<g>
				<path fill="#562F2F" d="M453.267,116.563c-0.051-1.975,0.638-7.612,3.539-7.122c2.819,0.476,0.983,6.869,1.016,8.725        c0.016,0.938,2.917,0.366,2.896-0.776c-0.038-2.291,0.654-4.529,0.405-6.828c-0.243-2.235-2.435-3.073-4.451-2.833        c-4.73,0.563-6.411,5.409-6.302,9.61C450.394,118.283,453.296,117.703,453.267,116.563L453.267,116.563z"/>
			</g>
		</g>
		<g>
			<g>
				<path fill="#562F2F" d="M470.168,110.536c-2.575-0.305-7.569-1.193-8.507,2.242c-0.449,1.646,0.007,3.467,1.398,4.475        c1.407,1.02,3.477,1.064,5.132,1.244c0.68,0.074,1.402-0.107,2.021-0.386c0.168-0.076,1.044-0.62,0.372-0.692        c-2.217-0.24-5.199-0.3-6.001-2.832c-0.327-1.032-0.313-2.705,0.543-3.481c-0.443,0.401-0.603,0.164,0.055,0.188        c0.294,0.011,0.586,0.054,0.878,0.091c0.573,0.071,1.144,0.162,1.717,0.229c0.676,0.08,1.406-0.109,2.021-0.386        C469.969,111.15,470.837,110.615,470.168,110.536L470.168,110.536z"/>
			</g>
		</g>
		<g>
			<g>
				<path fill="#562F2F" d="M471.952,110.488c2.251,0.249,4.502,0.499,6.753,0.749c0.667,0.074,1.499-0.178,2.049-0.549        c0.483-0.326,0.356-0.645-0.188-0.706c-2.25-0.25-4.502-0.5-6.752-0.749c-0.668-0.074-1.5,0.178-2.05,0.549        C471.28,110.108,471.407,110.427,471.952,110.488L471.952,110.488z"/>
			</g>
		</g>
		<g>
			<g>
				<path fill="#562F2F" d="M475.059,102.911c-1.222,4.397-4.446,16.531,3.354,16.419c1.019-0.015,3.104-1.582,1.15-1.554        c-5.79,0.083-2.459-12.218-1.614-15.256C478.219,101.548,475.318,101.979,475.059,102.911L475.059,102.911z"/>
			</g>
		</g>
		<g>
			<g>
				<path fill="#562F2F" d="M482.612,111.287c-0.304,2.716-0.604,5.433-0.905,8.149c-0.127,1.146,2.789,0.594,2.896-0.37        c0.302-2.717,0.603-5.433,0.905-8.149C485.636,109.771,482.721,110.322,482.612,111.287L482.612,111.287z"/>
			</g>
		</g>
		<g>
			<g>
				<path fill="#562F2F" d="M483.343,108.424c0.839,0,3.161-1.268,1.229-1.268C483.732,107.156,481.41,108.424,483.343,108.424        L483.343,108.424z"/>
			</g>
		</g>
		<g>
			<g>
				<path fill="#562F2F" d="M489.312,118.08c-2.125-0.203-1.053-4.85,0.507-5.358c1.45-0.473,3.113,1.477,3.184,2.773        c0.103,1.91-1.494,2.939-3.223,2.637c-1.479-0.26-2.919,1.848-0.98,2.188c3.128,0.549,6.302-1.051,7.073-4.245        c0.74-3.065-2.521-5.617-5.318-5.605c-2.742,0.012-4.556,2.171-5.17,4.657c-0.559,2.264,0.375,4.898,2.948,5.142        C489.802,120.408,491.271,118.266,489.312,118.08L489.312,118.08z"/>
			</g>
		</g>
		<g>
			<g>
				<path fill="#562F2F" d="M499.434,119.097c-0.173-2.178-0.415-8.957,3.246-7.592c3.479,1.296,2.796,7.637,1.644,10.206        c-0.399,0.889,2.477,0.569,2.896-0.365c2.019-4.492,1.067-11.241-4.655-11.785c-5.696-0.542-6.349,6.266-6.027,10.313        C496.61,120.818,499.521,120.201,499.434,119.097L499.434,119.097z"/>
			</g>
		</g>
	</g>
	<g>
		<g>
			<g>
				<path fill="#562F2F" d="M441.664,137.688c-3.091,1.308-5.516,3.249-7.777,5.704c-0.291,0.315-0.447,0.769,0.029,1.013        c2.684,1.374,5.413,2.597,7.772,4.509c0.844,0.684,3.545-0.467,2.683-1.167c-2.498-2.024-5.321-3.351-8.166-4.806        c0.01,0.338,0.02,0.676,0.029,1.013c1.942-2.108,3.938-3.828,6.606-4.956C444.697,138.212,443.01,137.118,441.664,137.688        L441.664,137.688z"/>
			</g>
		</g>
		<g>
			<g>
				<path fill="#562F2F" d="M456.381,140.542c-0.129-3.706-3.578-3.527-6.167-2.22c-2.968,1.499-3.859,8.19-0.352,9.593        c8.871,3.545,11.202-15.775,11.331-20.783c0.029-1.177-2.434-0.507-2.794,0.166c-1.875,3.49-2.26,8.036-2.552,11.91        c-0.191,2.553-0.727,7.927,2.38,9.04c0.859,0.309,3.493-0.959,2.312-1.383c-2.861-1.025-1.853-7.618-1.65-9.748        c0.296-3.124,0.69-6.961,2.203-9.777c-0.932,0.055-1.862,0.11-2.794,0.166c-0.111,4.364-1.078,8.734-2.372,12.889        c-0.257,0.827-2.378,7.322-4.177,5.719c-1.306-1.165-1.267-3.883-0.951-5.355c0.596-2.778,2.62-1.294,2.686,0.561        C453.515,142.215,456.42,141.642,456.381,140.542L456.381,140.542z"/>
			</g>
		</g>
		<g>
			<g>
				<path fill="#562F2F" d="M464.133,140.605c-0.302,2.717-0.604,5.434-0.905,8.151c-0.15,1.358,2.79,0.883,2.92-0.282        c0.302-2.717,0.604-5.434,0.904-8.151C467.203,138.964,464.263,139.439,464.133,140.605L464.133,140.605z"/>
			</g>
		</g>
		<g>
			<g>
				<path fill="#562F2F" d="M469.424,140.024c0.843,3.413,0.915,7.297,3.219,10.137c0.489,0.602,2.506-0.188,2.794-0.749        c1.538-2.994,2.961-6.052,4.763-8.901c0.278-0.438-2.396-0.269-2.867,0.476c-1.802,2.849-3.224,5.908-4.762,8.901        c0.931-0.25,1.862-0.5,2.794-0.749c-2.201-2.712-2.237-6.633-3.042-9.891C472.141,138.514,469.237,139.267,469.424,140.024        L469.424,140.024z"/>
			</g>
		</g>
		<g>
			<g>
				<path fill="#562F2F" d="M485.764,142.028c3.095,0.709,3.942,3.805,6.265,5.577c0.276-0.312,0.556-0.624,0.834-0.935        c-2.637,1.154-4.902,2.965-7.531,4.114c-1.875,0.819-0.111,1.341,1.049,0.834c2.639-1.152,4.903-2.963,7.531-4.114        c0.183-0.08,1.307-0.574,0.834-0.935c-2.463-1.88-3.326-5-6.625-5.755c-0.672-0.154-1.431,0.026-2.034,0.337        C485.838,141.278,485.084,141.873,485.764,142.028L485.764,142.028z"/>
			</g>
		</g>
	</g>
</g>

<g class="p5_man">
	<g>
		<g>
			<rect x="0.114" y="463.239" fill="#E5DFDF" width="78.966" height="18.292"/>
			<g>
				<path fill="#562F2F" d="M79.691,480.888c-17.563,0-35.126,0-52.689,0c-8.232,0-16.465,0-24.697,0c-0.521,0-1.042,0-1.563,0      c1.507,0,0.821-2.606,0.821-4.199c0-4.612,0-9.225,0-13.838c-0.687,0.345-1.374,0.688-2.06,1.032c17.563,0,35.126,0,52.689,0      c8.232,0,16.465,0,24.697,0c0.521,0,1.042,0,1.563,0c-1.507,0-0.821,2.606-0.821,4.199c0,4.612,0,9.225,0,13.838      c0,0.584,2.897,0.132,2.897-0.777c0-6.097,0-12.194,0-18.292c0-0.293-0.697-0.255-0.837-0.255c-26.322,0-52.644,0-78.966,0      c-0.519,0-2.06,0.312-2.06,1.032c0,6.097,0,12.194,0,18.292c0,0.293,0.697,0.255,0.837,0.255c26.322,0,52.644,0,78.966,0      C79.319,482.175,81.626,480.888,79.691,480.888z"/>
			</g>
		</g>
		<g>
			<rect x="61.145" y="463.239" fill="#F9A0A0" width="17.936" height="18.292"/>
			<g>
				<path fill="#562F2F" d="M79.224,480.527c-5.979,0-11.957,0-17.936,0c0.44,0.293,0.88,0.585,1.32,0.878      c0-6.098,0-12.194,0-18.292c-0.536,0.377-1.072,0.754-1.607,1.13c5.979,0,11.957,0,17.936,0c-0.44-0.292-0.88-0.585-1.32-0.878      c0,6.098,0,12.194,0,18.292c0,1.461,2.928,0.972,2.928-0.252c0-6.098,0-12.194,0-18.292c0-0.748-0.708-0.878-1.32-0.878      c-5.979,0-11.957,0-17.936,0c-0.535,0-1.607,0.465-1.607,1.13c0,6.098,0,12.194,0,18.292c0,0.748,0.708,0.878,1.32,0.878      c5.979,0,11.957,0,17.936,0C80.55,482.535,81.195,480.527,79.224,480.527z"/>
			</g>
		</g>
		<g>
			<circle fill="#E5DFDF" stroke="#562F2F" stroke-miterlimit="10" cx="14.475" cy="468.608" r="2.441"/>
			<circle fill="#E5DFDF" stroke="#562F2F" stroke-miterlimit="10" cx="14.475" cy="475.669" r="2.441"/>
		</g>
		<g>
			<circle fill="#E5DFDF" stroke="#562F2F" stroke-miterlimit="10" cx="22.526" cy="468.608" r="2.443"/>
			<circle fill="#E5DFDF" stroke="#562F2F" stroke-miterlimit="10" cx="22.526" cy="475.669" r="2.443"/>
		</g>
		<g>
			<circle fill="#E5DFDF" stroke="#562F2F" stroke-miterlimit="10" cx="30.577" cy="468.608" r="2.442"/>
			<circle fill="#E5DFDF" stroke="#562F2F" stroke-miterlimit="10" cx="30.577" cy="475.669" r="2.442"/>
		</g>
		<g>
			<circle fill="#E5DFDF" stroke="#562F2F" stroke-miterlimit="10" cx="38.63" cy="468.608" r="2.442"/>
			<circle fill="#E5DFDF" stroke="#562F2F" stroke-miterlimit="10" cx="38.63" cy="475.669" r="2.442"/>
		</g>
		<g>
			<circle fill="#E5DFDF" stroke="#562F2F" stroke-miterlimit="10" cx="46.683" cy="468.608" r="2.442"/>
			<circle fill="#E5DFDF" stroke="#562F2F" stroke-miterlimit="10" cx="46.683" cy="475.669" r="2.442"/>
		</g>
		<g>
			<circle fill="#E5DFDF" stroke="#562F2F" stroke-miterlimit="10" cx="54.735" cy="468.608" r="2.442"/>
			<circle fill="#E5DFDF" stroke="#562F2F" stroke-miterlimit="10" cx="54.735" cy="475.669" r="2.442"/>
		</g>
	</g>
	<g>
		<g>
			<path fill="#3DC4E8" d="M345.5,426.152h-17.517c0,0,5.3,12.909-8.298,11.757c0,0-14.754-3.688-14.982,6.222l-4.15,23.511h59.697     l-2.073-15.443l37.108,41.949h6.915l-35.724-49.556c0,0-4.152-9.22-18.212-6.916C348.265,437.676,341.35,438.599,345.5,426.152z"/>
			<g>
				<path fill="#562F2F" d="M346.074,425.369c-5.839,0-11.678,0-17.517,0c-0.415,0-2.336,0.385-2.022,1.172      c1.922,4.822,1.208,12.255-6.185,10.56c-4.542-1.042-9.857-1.125-13.939,1.372c-3.805,2.326-3.692,8.9-4.386,12.835      c-0.973,5.509-1.945,11.019-2.918,16.527c-0.085,0.484,0.518,0.59,0.872,0.59c19.899,0,39.798,0,59.697,0      c0.575,0,2.137-0.322,2.022-1.172c-0.691-5.147-1.382-10.295-2.073-15.443c-0.932,0.314-1.865,0.629-2.797,0.943      c7.592,8.583,15.185,17.166,22.777,25.749c4.209,4.759,8.418,9.517,12.627,14.274c2.708,3.063,5.217,2.154,9.394,2.154      c0.492,0,2.54-0.481,1.922-1.338c-10.047-13.938-20.095-27.876-30.142-41.813c-2.723-3.776-5.032-8.081-8.248-11.123      c-3.528-3.337-8.907-4.456-13.614-4.076c-1.974,0.16-3.364,0.878-4.871-0.554c-2.434-2.313-0.522-7.5,0.271-10.067      c0.296-0.957-2.602-0.549-2.891,0.387c-1.057,3.421-2.963,9.473,1.172,11.688c0.789,0.423,1.798,0.472,2.67,0.414      c4.071-0.271,7.552-0.497,11.361,1.183c4.624,2.038,7.752,8.13,10.604,12.084c10.33,14.33,20.659,28.659,30.989,42.988      c0.641-0.445,1.282-0.892,1.922-1.338c-0.996,0-1.991,0-2.987,0c-0.888,0-1.777,0-2.665,0c-1.163,0-0.982-0.331-0.503,0.211      c-0.774-0.876-1.549-1.751-2.323-2.626c-4.211-4.761-8.423-9.521-12.634-14.282c-7.378-8.342-14.757-16.683-22.136-25.023      c-0.565-0.64-2.928-0.027-2.797,0.943c0.691,5.147,1.382,10.295,2.073,15.443c0.674-0.391,1.348-0.781,2.022-1.172      c-9.949,0-19.899,0-29.849,0c-6.963,0-13.927,0-20.891,0c-2.167,0-4.333,0-6.5,0c-0.642,0-1.283,0-1.925,0      c-1.132,0,0.363,0.455,0.376,0.38c1.013-5.735,2.025-11.471,3.038-17.206c0.355-2.014,0.711-4.027,1.066-6.042      c0.941-5.329,4.542-6.321,9.526-5.848c4.542,0.432,9.513,1.505,13.096-2.211c2.504-2.597,1.889-7.109,0.67-10.168      c-0.674,0.391-1.348,0.781-2.022,1.172c5.839,0,11.678,0,17.517,0C345.958,426.936,348.03,425.369,346.074,425.369z"/>
			</g>
		</g>
		
			<path fill="#F7E0DC" stroke="#562F2F" stroke-width="2" stroke-linecap="round" stroke-linejoin="round" stroke-miterlimit="10" d="    M319.686,437.909c0,0-2.826-0.157-5.578-0.254c6.855,5.537,24.688,15.646,42.958,0.137c-2.37-0.545-5.272-0.692-8.801-0.116    c0,0-6.915,0.923-2.765-11.523h-17.517C327.983,426.152,333.283,439.062,319.686,437.909z"/>
		<g>
			<path fill="#F7E0DC" d="M256.27,352.264c-7.262,0-16.941-3.804-23.857-1.036c-7.605,3.11-7.951,16.25-6.913,23.164     c1.38,9.682,10.373,8.99,18.325,8.99c9.336,0,15.904,1.037,17.633-9.682c1.386-7.262,1.386-22.129-8.643-22.818"/>
			<g>
				<path fill="#562F2F" d="M257.444,350.798c-11.852-0.358-28.349-6.903-33.86,8.132c-1.977,5.392-1.783,12.054-0.72,17.614      c1.146,5.998,7.277,7.883,12.581,8.191c9.478,0.553,24.464,2.45,28.305-8.812c2.973-8.717,2.428-25.03-9.122-26.471      c-1.595-0.198-6.785,2.464-3.627,2.857c8.81,1.099,8.671,13.51,7.855,20.078c-0.453,3.64-1.294,8.69-5.596,9.384      c-4.193,0.676-8.852,0.19-13.088,0.138c-4.709-0.058-9.119-1.021-11.142-5.69c-1.677-3.871-1.216-9.429-0.735-13.459      c0.236-1.977,0.768-3.886,1.451-5.75c1.633-4.454,4.902-5.537,9.525-5.243c5.318,0.338,10.476,1.8,15.823,1.962      C257.045,353.788,261.346,350.916,257.444,350.798L257.444,350.798z"/>
			</g>
		</g>
		<g>
			<path fill="#F7E0DC" d="M409.301,352.264c7.264,0,16.943-3.804,23.855-1.036c7.609,3.11,7.955,16.25,6.917,23.164     c-1.384,9.682-10.372,8.99-18.323,8.99c-9.334,0-15.904,1.037-17.633-9.682c-1.385-7.262-1.385-22.129,8.645-22.818"/>
			<g>
				<path fill="#562F2F" d="M408.171,353.898c9.638-0.292,23.593-6.722,28.036,5.39c1.434,3.909,1.525,8.384,1.292,12.482      c-0.322,5.664-2.086,9.338-8.148,9.905c-4.057,0.379-8.31,0.139-12.383,0.082c-4.703-0.065-7.786-1.568-9.363-6.192      c-1.784-5.231-3.239-22.092,4.758-23.089c2.796-0.349,4.815-3.69,0.797-3.189c-11.847,1.478-13.452,13.56-12.222,23.46      c0.604,4.86,2.271,9.803,7.367,11.38c5.671,1.756,12.483,1.031,18.338,0.847c4.686-0.147,10.689-1.066,13.798-5.037      c3.687-4.708,3.29-11.894,2.616-17.534c-0.682-5.702-3.214-11.105-8.92-13.017c-7.657-2.563-15.981,1.01-23.707,1.243      C408.301,350.693,404.266,354.017,408.171,353.898L408.171,353.898z"/>
			</g>
		</g>
		<g>
			<path fill="#F7E0DC" d="M253.041,345.249c0,0-17.284,85.746,29.503,83.9h94.966c0,0,40.337,6.684,37.57-37.803l-2.313-32.515     l-72.829-13.583l-42.642-21.204L253.041,345.249z"/>
			<g>
				<path fill="#562F2F" d="M250.122,345.531c-4.083,20.378-5.785,44.413,1.354,64.22c4.556,12.64,14.456,21,28.137,21.332      c8.915,0.216,17.873-0.027,26.791-0.027c15.919,0,31.837,0,47.756,0c7.328,0,15.366-0.947,22.645,0.051      c8.659,1.188,18.316-0.331,25.895-4.721c13.313-7.712,16.201-22.855,15.184-37.159c-0.739-10.39-1.478-20.78-2.217-31.171      c-0.036-0.498-0.764-0.935-1.181-1.013c-23.5-4.383-47-8.766-70.5-13.148c-0.46-0.086-2.959-0.787-1.805-0.213      c-1.395-0.694-2.791-1.388-4.186-2.081c-6.59-3.277-13.18-6.555-19.77-9.831c-5.733-2.852-11.466-5.702-17.199-8.553      c-3.123-1.553-5.114-0.578-8.065,0.836c-13.714,6.57-27.428,13.141-41.142,19.712c-3.601,1.726-0.347,4.308,2.447,2.969      c14.752-7.068,29.504-14.136,44.256-21.204c-1.163,0.023-2.326,0.048-3.489,0.071c11.044,5.491,22.087,10.983,33.131,16.475      c2.997,1.49,6.783,4.352,10.127,4.976c3.529,0.658,7.059,1.316,10.588,1.975c15.094,2.815,30.187,5.63,45.281,8.445      c5.084,0.948,10.169,1.896,15.253,2.845c2.544,0.475,0.512,0.063,0.482-0.356c0.185,2.596,0.369,5.19,0.554,7.786      c1.015,14.263,4.626,31.535-1.252,45.087c-4.748,10.944-16.096,15.21-27.342,14.717c-20.97-0.92-42.093-0.306-63.095-0.306      c-11.359,0-22.718,0-34.077,0c-5.025,0-9.753-0.276-14.328-2.593c-5.774-2.924-9.667-8.442-12.202-14.234      c-5.625-12.853-5.79-27.962-5.037-41.726c0.434-7.924,1.293-15.92,2.842-23.712c0-0.004,0.001-0.008,0.002-0.012      C256.483,342.358,250.586,343.215,250.122,345.531z"/>
			</g>
		</g>
		<g>
			<path fill="#68312A" d="M261.342,260.427c0,0-16.595-37.8,24.43-53.475c0,0,53.477-9.221,63.619,26.738     c0,0,7.144-38.148,43.791-18.442c0,0,25.584,12.793,15.213,32.845c0,0,42.525,5.879,20.053,49.098     c0,0,24.55,51.168-26.969,66.035c0,0-64.998,16.598-107.524-31.115c0,0-50.477,38.377-69.839-1.383     c0,0-9.334-34.921,19.709-34.921c0,0-16.945-7.261-6.913-27.658C236.911,268.148,245.322,253.051,261.342,260.427z"/>
			<g>
				<path fill="#562F2F" d="M264.24,259.65c-2.844-6.553-3.798-14.314-3.119-21.369c0.641-6.655,3.263-12.931,7.442-18.127      c3.851-4.788,11.582-11.227,17.51-12.1c22.698-3.341,52.88,1.135,60.419,26.412c0.444,1.489,5.518,0.06,5.768-1.244      c2.119-11.052,9.97-23.104,22.424-22.223c17.339,1.228,40.015,18.631,30.841,37.561c-0.299,0.617,0.67,0.779,1.021,0.829      c7.366,1.048,15.727,5.256,20.725,11.362c4.978,6.082,5.522,14.265,4.053,21.684c-1.057,5.334-3.295,10.401-5.746,15.222      c-0.237,0.466,0.569,1.663,0.73,2.052c4.16,10.065,6.227,21.53,4.446,32.338c-2.575,15.633-15.414,26.988-30.601,30.361      c-36,7.995-77.835-3-103.479-31.33c-0.957-1.057-4.105,0.178-4.968,0.831c-14.235,10.771-37.116,22.048-53.958,11.057      c-8.09-5.279-11.477-12.966-12.078-22.07c-0.777-11.772,3.481-23.549,16.938-23.786c0.718-0.013,5.72-1.565,3.577-2.509      c-7.132-3.145-10.35-11.191-9.244-18.61c0.593-3.982,2.187-7.868,4.78-10.943c4.747-5.63,10.6-6.256,17.264-3.419      c1.38,0.588,6.677-1.574,4.718-2.408c-10.66-4.54-23.761-0.946-29.659,9.394c-5.661,9.922-3.664,23.506,7.424,28.395      c1.192-0.836,2.384-1.673,3.577-2.509c-13.495,0.237-23.941,7.465-25.088,21.437c-0.923,11.248,1.695,20.41,10.708,27.875      c18.574,15.385,49.208,0.854,65.542-11.504c-1.656,0.276-3.313,0.554-4.968,0.831c25.875,28.585,64.922,38.116,102.194,32.724      c11.722-1.696,23.128-6.016,31.992-14.085c10.716-9.756,13.135-24.573,10.99-38.302c-0.87-5.566-2.474-11.098-4.708-16.271      c-0.453-1.048-0.375-0.504,0.332-1.895c1.873-3.684,3.359-7.551,4.479-11.525c1.46-5.186,1.857-10.731,0.684-16.006      c-2.685-12.063-15.473-19.351-26.954-20.984c0.34,0.276,0.681,0.553,1.021,0.829c10.223-21.093-16.747-39.386-35.492-39.331      c-15.053,0.043-26.492,11.468-29.251,25.864c1.922-0.415,3.845-0.83,5.768-1.244c-8.124-27.238-41.381-30.822-65.429-27.281      c-6.602,0.972-13.964,5.795-18.915,10.101c-5.928,5.155-10.074,11.646-11.881,19.313c-1.972,8.368-1.055,18.24,2.38,26.156      C259.137,262.8,264.788,260.914,264.24,259.65z"/>
			</g>
		</g>
		<circle fill="#562F2F" cx="289.806" cy="376.775" r="5.813"/>
		<path fill="#562F2F" d="M380.326,376.775c0,3.21-2.605,5.812-5.813,5.812c-3.211,0-5.814-2.602-5.814-5.812    s2.604-5.813,5.814-5.813C377.721,370.963,380.326,373.565,380.326,376.775z"/>
		<g>
			<g>
				<path fill="#562F2F" d="M267.364,352.45c7.889,2.924,14.71,4.825,23.193,3.755c6.475-0.816,11.642-3.698,16.271-8.197      c1.191-1.157-4.259-0.472-5.235,0.477c-4.297,4.177-8.338,5.846-14.403,5.878c-4.97,0.027-9.801-2.175-14.359-3.865      C271.228,349.903,266.9,352.277,267.364,352.45L267.364,352.45z"/>
			</g>
		</g>
		<g>
			<g>
				<path fill="#562F2F" d="M351.982,352.249c12.096,6.261,34.71,9.981,41.422-5.72c1.279-2.992-4.555-2.812-5.515-0.564      c-5.053,11.819-22.49,7.655-31.414,3.036C354.343,347.897,349.199,350.809,351.982,352.249L351.982,352.249z"/>
			</g>
		</g>
		<g>
			<g>
				<path fill="#562F2F" d="M321.749,383.13c-0.294,7.284-4.424,13.44-11.614,15.521c-2.032,0.588-4.504,0.398-6.622,0.398      c-6.892,0-13.783,0-20.674,0c-7.439,0-14.877,0-22.316,0c-7.208,0-13.558-0.383-18.544-6.667      c-8.125-10.238-0.01-25.523,12.639-25.523c5.741,0,11.483,0,17.225,0c7.932,0,15.863,0,23.795,0      c5.219,0,11.105-0.67,16.07,1.203c6.323,2.386,9.784,8.839,10.044,15.28c0.039,0.957,2.944,0.364,2.897-0.777      c-0.391-9.686-8.021-17.384-17.849-17.384c-4.482,0-8.965,0-13.447,0c-12.797,0-25.594,0-38.392,0      c-8.239,0-15.286,4.925-18.18,12.597c-3.692,9.785,3.243,19.722,12.568,22.42c4.166,1.205,9.406,0.529,13.666,0.529      c7.877,0,15.754,0,23.631,0c6.279,0,12.558,0,18.837,0c10.265,0,18.749-7.585,19.167-17.95      C324.699,381.553,321.789,382.142,321.749,383.13z"/>
			</g>
		</g>
		<g>
			<g>
				<path fill="#562F2F" d="M425.43,383.133c-0.294,7.282-4.42,13.449-11.611,15.529c-2.029,0.587-4.506,0.396-6.623,0.396      c-6.892,0-13.783,0-20.674,0c-7.439,0-14.877,0-22.316,0c-7.21,0-13.557-0.388-18.544-6.674      c-8.125-10.237-0.019-25.536,12.634-25.536c5.742,0,11.483,0,17.225,0c7.932,0,15.863,0,23.794,0      c5.224,0,11.103-0.667,16.071,1.207c6.324,2.386,9.785,8.845,10.045,15.286c0.038,0.94,2.943,0.352,2.897-0.777      c-0.392-9.688-8.019-17.374-17.846-17.374c-4.482,0-8.964,0-13.447,0c-12.797,0-25.594,0-38.391,0      c-8.232,0-15.289,4.924-18.181,12.59c-3.692,9.786,3.242,19.711,12.564,22.408c4.164,1.205,9.407,0.528,13.664,0.528      c7.877,0,15.753,0,23.63,0c6.279,0,12.558,0,18.837,0c10.262,0,18.75-7.579,19.169-17.943      C428.377,381.564,425.469,382.159,425.43,383.133z"/>
			</g>
		</g>
		<g>
			<g>
				<ellipse fill="#EDDDDD" cx="335.587" cy="415.996" rx="24.495" ry="7.042"/>
				<g>
					<path fill="#562F2F" d="M358.641,416.207c-0.461,3.607-6.711,4.439-9.49,5c-4.859,0.979-9.864,1.137-14.804,1.084       c-5.016-0.053-19.395-0.071-21.739-6.157c-2.276-5.909,21.602-6.462,24.217-6.435c4.328,0.046,20.979,0.195,21.808,6.686       c0.104,0.818,3.021,0.185,2.897-0.777c-0.411-3.214-4.912-4.453-7.456-5.237c-6.303-1.942-13.184-2.194-19.729-2.125       c-5.894,0.063-12.201,0.658-17.791,2.641c-2.472,0.876-6.513,2.253-6.905,5.321c-0.406,3.173,5.414,4.788,7.447,5.414       c6.303,1.942,13.183,2.194,19.727,2.125c5.895-0.063,12.203-0.657,17.792-2.64c2.473-0.877,6.513-2.253,6.905-5.321       C361.65,414.789,358.751,415.349,358.641,416.207z"/>
				</g>
			</g>
			<path fill="#F28181" stroke="#562F2F" stroke-miterlimit="10" d="M335.586,423.038c9.697,0,18.076-1.619,22.047-3.969     c-13.077-6.375-22.805,0.887-22.805,0.887c-5.811-6.407-16.542-3.891-22.523-1.771     C315.506,421.003,324.717,423.038,335.586,423.038z"/>
		</g>
	</g>
	<circle fill="#E5DFDF" stroke="#562F2F" stroke-miterlimit="10" cx="26.603" cy="432.056" r="4.579"/>
	<g>
		<g>
			<path fill="#58DD94" d="M213.189,470.371c0.812-4.274,0.203-9.363,0.203-13.637c0-2.237-0.611-5.291,0.813-6.921     c2.442-3.051,4.274-0.609,4.682-5.289c0.407-4.683-0.611-9.159,0.611-13.84c1.22-4.478,6.512-9.77,10.176-4.071     c3.666,5.699-2.646,24.016,4.479,26.051c4.274,1.222,10.381-4.884,11.193,2.849c0.408,3.664-1.625,4.274-4.884,4.479     c-3.052,0.203-4.478,0.203-6.104,3.459c-0.815,1.425-0.407,5.088-1.223,6.106c-1.016,1.222-5.498,0.406-7.125,0.406     c-2.441,0-11.6,2.851-12.211,0.205"/>
			<g>
				<path fill="#562F2F" d="M214.62,470.119c0.514-3.483,0.441-6.927,0.304-10.44c-0.143-3.686-1.557-9.841,2.89-11.557      c4.613-1.78,2.431-10.657,2.58-14.347c0.087-2.177,0.573-3.743,1.458-5.595c1.664-3.481,5.601-3.362,6.981,0.12      c0.781,1.972,0.651,4.382,0.63,6.456c-0.051,5.047-1.138,10.432,0.391,15.352c0.977,3.144,3.945,3.503,6.761,3.128      c3.224-0.431,6.545-1.706,7.283,2.665c0.718,4.257-4.496,3.217-7.111,4.169c-1.259,0.459-2.483,1.229-3.168,2.425      c-0.667,1.165-0.975,1.886-1.188,3.196c-0.315,1.94,0.582,3.992-2.315,3.895c-1.771-0.06-3.379-0.274-5.137-0.04      c-2.116,0.282-8.546,2.573-9.729,0.233c-0.37-0.731-3.142,0.294-2.897,0.777c1.821,3.602,10.689-0.092,13.576,0.049      c2.4,0.117,5.137,0.653,7.417-0.438c2.557-1.224,1.628-4.715,2.444-6.969c1.396-3.858,5.715-1.965,8.598-3.545      c2.495-1.367,2.639-3.166,2.178-5.897c-1.113-6.593-10.71,1.129-13.513-3.721c-3.228-5.583,4.208-32.297-10.219-25.405      c-3.047,1.455-4.492,4.994-5.124,8.053c-0.683,3.307,1.625,13.608-1.894,15.147c-2.561,1.12-3.776,2.825-3.998,5.604      c-0.458,5.729,0.793,11.429-0.057,17.188C211.652,471.352,214.516,470.824,214.62,470.119L214.62,470.119z"/>
			</g>
		</g>
		<g>
			<polygon fill="#6D5252" points="241.316,505.673 209.048,505.673 204.898,478.013 245.467,478.013    "/>
			<g>
				<path fill="#562F2F" d="M241.888,504.88c-10.553,0-21.105,0-31.659,0c-1.185,0,0.246,0.261,0.24,0.223      c-0.122-0.815-0.245-1.631-0.367-2.446c-0.462-3.077-0.923-6.154-1.385-9.232c-0.791-5.267-1.581-10.533-2.371-15.8      c-0.673,0.395-1.347,0.788-2.02,1.182c13.522,0,27.045,0,40.568,0c-0.292-0.201-0.583-0.401-0.875-0.603      c-1.384,9.221-2.767,18.44-4.15,27.66c-0.164,1.094,2.75,0.566,2.893-0.381c1.384-9.221,2.767-18.44,4.15-27.66      c0.073-0.487-0.505-0.603-0.875-0.603c-13.522,0-27.045,0-40.568,0c-0.574,0-2.148,0.325-2.02,1.182      c1.383,9.22,2.766,18.439,4.149,27.66c0.052,0.344,0.627,0.404,0.877,0.404c10.756,0,21.512,0,32.269,0      C241.79,506.466,243.845,504.88,241.888,504.88z"/>
			</g>
		</g>
		<g>
			<rect x="199.896" y="468.245" fill="#AF806D" width="49.719" height="13.916"/>
			<g>
				<path fill="#562F2F" d="M250.148,481.23c-16.573,0-33.146,0-49.719,0c0.308,0.261,0.616,0.521,0.923,0.782      c0-4.639,0-9.277,0-13.916c-0.664,0.36-1.328,0.72-1.992,1.079c16.573,0,33.146,0,49.719,0      c-0.308-0.261-0.616-0.521-0.923-0.782c0,4.639,0,9.277,0,13.916c0,1.367,2.915,0.816,2.915-0.297c0-4.639,0-9.277,0-13.916      c0-0.509-0.429-0.782-0.923-0.782c-16.573,0-33.146,0-49.719,0c-0.564,0-1.992,0.258-1.992,1.079c0,4.639,0,9.277,0,13.916      c0,0.509,0.429,0.782,0.923,0.782c16.573,0,33.146,0,49.719,0C250.306,483.092,252.11,481.23,250.148,481.23z"/>
			</g>
		</g>
		<g>
			<g>
				<path fill="#48C167" d="M222.979,462.453c1.689,0,2.195-2.213,0.233-2.213C221.523,460.24,221.017,462.453,222.979,462.453      L222.979,462.453z"/>
			</g>
		</g>
		<g>
			<g>
				<path fill="#48C167" d="M226.646,463.083c1.703,0,2.183-2.252,0.223-2.252C225.166,460.831,224.686,463.083,226.646,463.083      L226.646,463.083z"/>
			</g>
		</g>
		<g>
			<g>
				<path fill="#48C167" d="M228.666,459.689c0.593,0,3.297-1.16,1.885-1.16C229.958,458.529,227.253,459.689,228.666,459.689      L228.666,459.689z"/>
			</g>
		</g>
		<g>
			<g>
				<path fill="#48C167" d="M227.837,454.618c1.615,0,2.257-2.012,0.286-2.012C226.508,452.606,225.866,454.618,227.837,454.618      L227.837,454.618z"/>
			</g>
		</g>
		<g>
			<g>
				<path fill="#48C167" d="M223.976,455.996c0.559,0,3.284-1.104,1.9-1.104C225.317,454.893,222.592,455.996,223.976,455.996      L223.976,455.996z"/>
			</g>
		</g>
		<g>
			<g>
				<path fill="#48C167" d="M232.072,456.166c0.952,0,3.129-1.443,1.181-1.443C232.301,454.723,230.123,456.166,232.072,456.166      L232.072,456.166z"/>
			</g>
		</g>
		<g>
			<g>
				<path fill="#48C167" d="M239.845,455.633c1.612,0,2.26-2.006,0.288-2.006C238.521,453.627,237.874,455.633,239.845,455.633      L239.845,455.633z"/>
			</g>
		</g>
		<g>
			<g>
				<path fill="#48C167" d="M226.021,451.705c1.24,0,3.023-1.883,1.063-1.883C225.844,449.822,224.061,451.705,226.021,451.705      L226.021,451.705z"/>
			</g>
		</g>
		<g>
			<g>
				<path fill="#48C167" d="M224.672,443.662c1.279,0,3.007-1.943,1.047-1.943C224.44,441.719,222.712,443.662,224.672,443.662      L224.672,443.662z"/>
			</g>
		</g>
		<g>
			<g>
				<path fill="#48C167" d="M227.514,436.039c1.671,0,2.21-2.162,0.246-2.162C226.089,433.877,225.549,436.039,227.514,436.039      L227.514,436.039z"/>
			</g>
		</g>
		<g>
			<g>
				<path fill="#48C167" d="M224.456,428.961c1.215,0,3.035-1.846,1.073-1.846C224.313,427.115,222.494,428.961,224.456,428.961      L224.456,428.961z"/>
			</g>
		</g>
		<g>
			<g>
				<path fill="#48C167" d="M220.117,453.173c0.589,0,3.296-1.154,1.887-1.154C221.415,452.019,218.708,453.173,220.117,453.173      L220.117,453.173z"/>
			</g>
		</g>
		<g>
			<g>
				<path fill="#48C167" d="M216.585,455.09c0.875,0,3.151-1.324,1.213-1.324C216.923,453.766,214.646,455.09,216.585,455.09      L216.585,455.09z"/>
			</g>
		</g>
		<g>
			<g>
				<path fill="#48C167" d="M217.073,461.494c1.266,0,3.013-1.922,1.053-1.922C216.86,459.572,215.113,461.494,217.073,461.494      L217.073,461.494z"/>
			</g>
		</g>
		<g>
			<g>
				<path fill="#48C167" d="M220.328,457.418c1.258,0,3.016-1.91,1.056-1.91C220.125,455.508,218.367,457.418,220.328,457.418      L220.328,457.418z"/>
			</g>
		</g>
		<g>
			<g>
				<path fill="#48C167" d="M219.1,465.877c1.663,0,2.218-2.139,0.253-2.139C217.69,463.738,217.135,465.877,219.1,465.877      L219.1,465.877z"/>
			</g>
		</g>
		<g>
			<g>
				<path fill="#48C167" d="M220.463,449.222c0.92,0,3.139-1.395,1.194-1.395C220.738,447.827,218.519,449.222,220.463,449.222      L220.463,449.222z"/>
			</g>
		</g>
		<g>
			<g>
				<path fill="#48C167" d="M225.339,447.161c0.887,0,3.148-1.344,1.208-1.344C225.661,445.817,223.399,447.161,225.339,447.161      L225.339,447.161z"/>
			</g>
		</g>
		<g>
			<g>
				<path fill="#48C167" d="M223.226,439.105c1.176,0,3.051-1.785,1.09-1.785C223.14,437.32,221.265,439.105,223.226,439.105      L223.226,439.105z"/>
			</g>
		</g>
		<g>
			<g>
				<path fill="#48C167" d="M226.288,432.017c1.219,0,3.033-1.85,1.072-1.85C226.141,430.167,224.327,432.017,226.288,432.017      L226.288,432.017z"/>
			</g>
		</g>
		<g>
			<g>
				<path fill="#48C167" d="M235.99,458.729c1.646,0,2.233-2.092,0.266-2.092C234.61,456.637,234.023,458.729,235.99,458.729      L235.99,458.729z"/>
			</g>
		</g>
		<g>
			<g>
				<path fill="#48C167" d="M226.625,466.327c1.646,0,2.233-2.092,0.266-2.092C225.245,464.235,224.658,466.327,226.625,466.327      L226.625,466.327z"/>
			</g>
		</g>
	</g>
</g>
<g class="p5_dia">
	<g opacity="0.5">
		<g>
			<path fill="#562F2F" d="M188.49,165.573c-21.844-26.754-7.774-68.83,27.04-74.508c15.252-2.488,30.6,3.908,40.738,15.239     c10.512,11.749,13.531,28.401,9.346,43.372c-0.282,1.008,2.626,0.579,2.894-0.377c4.721-16.887,0.185-34.538-12.216-46.938     c-11.179-11.179-27.704-15.333-43.012-12.375c-14.279,2.759-27.312,12.514-33.655,25.648c-8.154,16.884-5.672,36.555,6.17,51.059     C186.408,167.444,189.192,166.433,188.49,165.573L188.49,165.573z"/>
		</g>
	</g>
	<g>
		<path fill="#E5DFDF" d="M255.977,202.186l-24.664-31.696c-2.537,0.521-5.166,0.797-7.859,0.797    c-21.43,0-38.805-17.375-38.805-38.807c0-21.43,17.375-38.804,38.805-38.804c21.435,0,38.808,17.374,38.808,38.804    c0,13.88-7.291,26.051-18.247,32.91L255.977,202.186z"/>
		<g>
			<path fill="#562F2F" d="M257.32,201.612c-8.221-10.565-16.443-21.131-24.664-31.696c-0.229-0.294-0.831-0.312-1.152-0.252     c-19.042,3.512-37.23-7.32-43.511-25.559c-6.101-17.715,2.66-37.615,19.143-45.948c17.26-8.726,37.988-1.142,48.036,14.567     c11.185,17.485,4.932,41.134-12.063,52.215c-0.245,0.16-0.66,0.483-0.544,0.839c3.987,12.265,7.975,24.531,11.963,36.796     c0.341,1.048,3.225,0.23,2.897-0.776c-3.737-11.496-7.475-22.992-11.212-34.489c-0.97-2.983-0.099-2.177,2.479-4.142     c4.64-3.537,8.253-8.323,10.919-13.467c5.139-9.915,5.25-21.8,1.3-32.104c-7.558-19.721-30.106-28.767-49.671-22.773     c-20.057,6.144-31.559,27.331-26.88,47.5c2.522,10.876,10.227,19.927,19.879,25.224c4.388,2.407,9.541,3.925,14.519,4.364     c3.118,0.275,6.166,0.228,9.276-0.09c1.927-0.197,1.606-1.18,2.604,0.102c7.999,10.279,15.997,20.558,23.995,30.836     C255.261,203.566,258.052,202.553,257.32,201.612z"/>
		</g>
	</g>
	<path xmlns="http://www.w3.org/2000/svg" fill="#562F2F" d="M215.365,150.438h-3.742l9.533-31.239h3.74l9.535,31.239h-3.744l-2.895-9.465h-9.578L215.365,150.438z     M226.811,137.743l-3.783-12.428l-3.833,12.428H226.811z"/>
</g>
<g class="p5_dia2">
	<g opacity="0.5">
		<g>
			<path fill="#562F2F" d="M106.734,385.551c-30.344-15.84-40.068-55.08-19.969-83.078c1.062-1.479-1.679-1.759-2.398-0.757     c-20.628,28.734-11.285,69.046,20.115,85.436C105.524,387.697,108.108,386.268,106.734,385.551L106.734,385.551z"/>
		</g>
	</g>
	<g>
		<circle fill="#E5DFDF" cx="132.03" cy="332.047" r="41.021"/>
		<g>
			<path fill="#562F2F" d="M171.602,332.436c-0.38,23.016-19.376,41.734-42.753,39.798c-20.779-1.721-36.056-20.332-36.391-40.575     c-0.381-23.058,19.987-41.686,42.751-39.8C155.989,293.579,171.268,312.192,171.602,332.436c0.009,0.574,2.912,0.109,2.897-0.777     c-0.361-21.858-17.096-39.377-38.79-41.173c-19.704-1.632-38.353,11.188-44.362,29.84c-6.693,20.778,5.254,42.898,25.049,50.715     c17.716,6.995,39.924,0.068,50.623-15.635c4.851-7.118,7.337-15.146,7.479-23.747     C174.509,331.11,171.617,331.535,171.602,332.436z"/>
		</g>
	</g>
	<g xmlns="http://www.w3.org/2000/svg">
		<g>
			<circle fill="#E5DFDF" cx="131.322" cy="333.172" r="23.435"/>
			<g>
				<path fill="#562F2F" d="M153.308,333.561c-0.399,13.818-12.019,24.749-26.172,21.854c-10.62-2.172-17.499-12.228-17.8-22.632     c-0.402-13.92,12.708-24.61,26.172-21.856C146.128,313.099,153.007,323.156,153.308,333.561c0.015,0.528,2.922,0.063,2.897-0.777     c-0.421-14.589-12.693-24.732-26.994-23.489c-12.699,1.104-22.409,11.658-22.773,24.267     c-0.423,14.64,13.313,24.676,26.993,23.487c12.698-1.104,22.409-11.656,22.773-24.265     C156.22,332.304,153.333,332.693,153.308,333.561z"/>
			</g>
		</g>
		<g>
			<g>
				<g>
					<path fill="#562F2F" d="M116.971,320.787c8.682,8.683,17.364,17.364,26.046,26.046c0.933,0.934,3.674-0.258,2.652-1.279      c-8.682-8.683-17.364-17.364-26.046-26.046C118.69,318.575,115.949,319.766,116.971,320.787L116.971,320.787z"/>
				</g>
			</g>
			<g>
				<g>
					<path fill="#562F2F" d="M143.032,320.254c-8.682,8.682-17.364,17.364-26.046,26.045c-0.619,0.619,2.132,0.279,2.625-0.213      c8.682-8.683,17.364-17.364,26.046-26.046C146.276,319.422,143.525,319.762,143.032,320.254L143.032,320.254z"/>
				</g>
			</g>
		</g>
	</g>
</g>
<g class="p5_set">
	<path fill="#F4EDED" stroke="#562F2F" stroke-width="2" stroke-miterlimit="10" d="M695.582,399.888   c0-0.529-0.039-1.05-0.102-1.564l5.615-4.504l-4.147-7.186l-6.716,2.613c-0.833-0.622-1.736-1.16-2.701-1.575l-1.092-7.106h-8.3   l-1.091,7.106c-0.969,0.415-1.869,0.953-2.703,1.576l-6.713-2.614l-4.148,7.188l5.613,4.502c-0.063,0.515-0.102,1.035-0.102,1.564   c0,0.531,0.039,1.053,0.102,1.566l-5.613,4.502l4.148,7.187l6.713-2.615c0.834,0.624,1.736,1.16,2.703,1.576l1.091,7.104h8.3   l1.092-7.104c0.967-0.416,1.868-0.954,2.703-1.577l6.714,2.616l4.147-7.187l-5.615-4.506   C695.543,400.937,695.582,400.417,695.582,399.888z"/>
	<circle fill="none" stroke="#562F2F" stroke-width="2" stroke-miterlimit="10" cx="682.226" cy="399.888" r="9.019"/>
	<circle fill="none" stroke="#562F2F" stroke-width="2" stroke-miterlimit="10" cx="682.224" cy="399.888" r="5.354"/>
</g>
<g class="p5_static">
	<g>
		<ellipse fill="#E5DFDF" cx="439.316" cy="226.508" rx="18.531" ry="10.235"/>
		<g>
			<path fill="#562F2F" d="M456.401,226.698c-1.069,13.147-31.126,12.433-34.092,0.353c-3.023-12.318,32.914-14.612,34.089-0.155     c0.073,0.905,2.985,0.295,2.897-0.776c-1.234-15.188-38.728-14.547-39.958,0.579c-0.751,9.23,15.125,10.945,21.095,10.797     c6.604-0.164,18.196-3.008,18.86-11.178C459.386,225.183,456.477,225.764,456.401,226.698z"/>
		</g>
	</g>
	<g>
		<line fill="#E5DFDF" stroke="#562F2F" stroke-miterlimit="10" x1="514.92" y1="335.973" x2="514.92" y2="260.743"/>
		<g>
			<circle fill="#E5DFDF" cx="515.781" cy="256.655" r="17.882"/>
			<g>
				<path fill="#562F2F" d="M515.904,237.69c-10.15,0.391-18.241,7.494-19.422,17.672c-1.283,11.063,8.353,19.846,18.803,20.248      c10.258,0.395,18.649-7.788,19.796-17.662c1.284-11.063-8.354-19.847-18.804-20.249c-1.426-0.055-2.952,2.07-0.992,2.146      c8.604,0.332,15.083,6.027,16.719,14.432c1.83,9.408-5.586,18.065-14.702,19.124c-8.902,1.033-16.145-6.16-17.742-14.369      c-1.954-10.042,6.405-18.804,16.099-19.177C517.319,239.791,517.877,237.614,515.904,237.69z"/>
			</g>
		</g>
		<g>
			<g>
				<path fill="#562F2F" d="M505.212,257.761c2.763,2.375,5.526,4.75,8.289,7.124c0.522,0.449,1.251,0.501,1.768,0      c4.36-4.231,8.722-8.462,13.082-12.693c1.159-1.124-0.61-2.89-1.768-1.768c-4.36,4.231-8.722,8.462-13.082,12.693      c0.589,0,1.179,0,1.768,0c-2.763-2.375-5.526-4.75-8.289-7.124C505.764,254.948,503.987,256.708,505.212,257.761      L505.212,257.761z"/>
			</g>
		</g>
	</g>
	<g>
		<circle fill="#E5DFDF" cx="514.92" cy="418.294" r="7.53"/>
		<g>
			<path fill="#562F2F" d="M515.516,410.062c-4.331,0.233-8.191,2.473-9.391,6.836c-1.408,5.124,3.115,9.359,7.882,9.616     c4.393,0.236,8.545-2.591,9.708-6.823c1.408-5.125-3.114-9.358-7.882-9.615c-0.748-0.04-3.362,1.296-1.826,1.379     c6.602,0.355,9.42,8.543,4.225,12.776c-3.506,2.857-7.788-0.834-9.008-3.945c-1.42-3.62,0.933-8.593,5.101-8.817     C515.232,411.419,517.452,409.958,515.516,410.062z"/>
		</g>
	</g>
	<g>
		<g>
			<circle fill="#E5DFDF" cx="634.884" cy="453.277" r="7.528"/>
			<g>
				<path fill="#562F2F" d="M640.946,453.395c-0.192,3.579-2.534,6.544-6.376,6.337c-3.368-0.182-5.583-3.489-5.749-6.571      c-0.193-3.598,2.847-6.528,6.374-6.339C638.564,447.003,640.78,450.311,640.946,453.395c0.08,1.499,2.999,1.017,2.932-0.234      c-0.606-11.268-17.397-10.739-17.988,0.234c-0.254,4.712,4.288,8.692,8.857,8.446c4.889-0.264,8.861-3.668,9.131-8.681      C643.958,451.677,641.015,452.119,640.946,453.395z"/>
			</g>
		</g>
		<g>
			<line fill="#E5DFDF" x1="634.883" y1="460.806" x2="634.883" y2="489.3"/>
			<g>
				<path fill="#562F2F" d="M633.424,460.947c0,9.498,0,18.996,0,28.494c0,1.395,2.918,0.86,2.918-0.283c0-9.498,0-18.996,0-28.494      C636.342,459.27,633.424,459.804,633.424,460.947L633.424,460.947z"/>
			</g>
		</g>
	</g>
	<g>
		<g>
			
				<rect x="48.116" y="316.686" transform="matrix(0.7071 0.7071 -0.7071 0.7071 245.3809 55.6851)" fill="#86F7CB" width="14.713" height="14.715"/>
		</g>
		<g>
			<g>
				<path fill="#562F2F" d="M53.744,333.851c-3.454-3.454-6.907-6.908-10.361-10.361c0.395,0.395-0.536,1.216,0.162,0.519      c0.318-0.319,0.637-0.638,0.956-0.957c1.2-1.2,2.399-2.4,3.6-3.601c1.83-1.831,3.66-3.661,5.49-5.492      c-0.84,0.093-1.681,0.186-2.521,0.278c3.453,3.455,6.906,6.91,10.359,10.364c-0.395-0.395,0.536-1.216-0.162-0.519      c-0.318,0.318-0.637,0.638-0.956,0.956c-1.2,1.2-2.399,2.4-3.599,3.6c-1.83,1.831-3.659,3.661-5.489,5.491      c-1.244,1.244,1.592,1.414,2.367,0.639c3.467-3.468,6.934-6.936,10.4-10.403c0.222-0.222,0.429-0.642,0.154-0.917      c-3.467-3.469-6.934-6.938-10.4-10.406c-0.645-0.645-1.947-0.296-2.521,0.278c-3.468,3.469-6.935,6.938-10.402,10.406      c-0.222,0.222-0.429,0.642-0.154,0.917c3.468,3.468,6.935,6.936,10.402,10.403C51.877,335.854,54.627,334.734,53.744,333.851z"/>
			</g>
		</g>
	</g>
	<g>
		
			<rect x="576.546" y="336.867" transform="matrix(0.707 0.7072 -0.7072 0.707 414.4855 -312.0764)" fill="#E5DFDF" width="14.713" height="14.713"/>
		<g>
			<path fill="#562F2F" d="M585.244,354.046c-3.454-3.454-6.907-6.908-10.361-10.362c0.355,0.355-0.541,1.148,0.146,0.461     c0.318-0.318,0.638-0.638,0.956-0.956c1.2-1.2,2.399-2.4,3.6-3.601c1.83-1.83,3.66-3.66,5.49-5.49     c-0.838,0.101-1.677,0.202-2.515,0.304c3.454,3.454,6.908,6.908,10.362,10.362c-0.356-0.355,0.541-1.148-0.146-0.461     c-0.318,0.318-0.638,0.638-0.956,0.956c-1.2,1.2-2.4,2.4-3.6,3.601c-1.83,1.83-3.661,3.66-5.491,5.49     c-1.223,1.224,1.622,1.279,2.346,0.557c3.468-3.469,6.936-6.937,10.403-10.404c0.212-0.213,0.44-0.588,0.169-0.86     c-3.468-3.468-6.936-6.937-10.403-10.404c-0.614-0.614-1.975-0.235-2.515,0.304c-3.467,3.469-6.935,6.937-10.402,10.404     c-0.212,0.213-0.44,0.588-0.169,0.86c3.468,3.468,6.936,6.937,10.402,10.404C583.323,355.973,586.072,354.874,585.244,354.046z"/>
		</g>
	</g>
	<g>
		<polygon fill="#E5DFDF" points="615.037,304.5 608.936,298.394 602.827,304.5 608.936,310.604   "/>
		<g>
			<path fill="#562F2F" d="M616.388,303.952c-2.034-2.036-4.067-4.071-6.102-6.106c-0.545-0.546-2.034-0.104-2.499,0.36     c-2.036,2.036-4.072,4.071-6.108,6.106c-0.189,0.189-0.466,0.472-0.202,0.735c2.036,2.035,4.072,4.07,6.108,6.104     c0.546,0.545,2.034,0.104,2.499-0.36c2.034-2.035,4.067-4.07,6.102-6.104c1.168-1.169-1.685-0.987-2.297-0.375     c-2.034,2.035-4.067,4.07-6.102,6.104c0.833-0.12,1.666-0.24,2.499-0.36c-2.036-2.035-4.072-4.07-6.108-6.104     c-0.067,0.245-0.135,0.49-0.202,0.735c2.036-2.036,4.072-4.071,6.108-6.106c-0.833,0.12-1.666,0.24-2.499,0.36     c2.034,2.036,4.067,4.071,6.102,6.106C614.354,305.717,617.085,304.649,616.388,303.952z"/>
		</g>
	</g>
	<g>
		
			<rect x="758.7" y="372.43" transform="matrix(0.7072 0.7071 -0.7071 0.7072 489.8178 -429.1663)" fill="#E5DFDF" width="8.634" height="8.633"/>
		<g>
			<path fill="#562F2F" d="M770.473,376.197c-2.035-2.034-4.07-4.069-6.105-6.104c-0.547-0.546-2.033-0.105-2.499,0.36     c-2.035,2.034-4.07,4.069-6.104,6.104c-0.19,0.189-0.466,0.474-0.202,0.737c2.035,2.035,4.069,4.07,6.104,6.105     c0.547,0.546,2.034,0.105,2.499-0.36c2.035-2.035,4.07-4.07,6.105-6.105c1.17-1.169-1.684-0.991-2.297-0.377     c-2.035,2.035-4.07,4.07-6.105,6.105c0.833-0.12,1.666-0.24,2.499-0.36c-2.035-2.035-4.069-4.07-6.104-6.105     c-0.067,0.246-0.135,0.492-0.202,0.737c2.035-2.034,4.07-4.069,6.104-6.104c-0.833,0.12-1.666,0.24-2.499,0.36     c2.035,2.034,4.07,4.069,6.105,6.104C768.441,377.964,771.172,376.896,770.473,376.197z"/>
		</g>
	</g>
	<g>
		
			<rect x="333.462" y="146.187" transform="matrix(0.7071 0.7071 -0.7071 0.7071 205.3555 -194.7641)" fill="#E5DFDF" width="8.633" height="8.634"/>
		<g>
			<path fill="#562F2F" d="M345.249,150.01c-2.035-2.035-4.07-4.07-6.104-6.104c-0.505-0.504-2.275,0.2-2.677,0.602     c-2.035,2.035-4.07,4.07-6.105,6.104c-0.131,0.131-0.195,0.245-0.053,0.387c2.035,2.035,4.07,4.07,6.105,6.105     c0.504,0.504,2.275-0.2,2.677-0.602c2.035-2.035,4.07-4.07,6.104-6.105c0.617-0.617-2.132-0.277-2.624,0.215     c-2.035,2.035-4.07,4.07-6.104,6.105c0.892-0.201,1.785-0.401,2.677-0.602c-2.027-2.027-4.054-4.054-6.081-6.081     c0.175,0.175-0.226,0.511,0.132,0.153c0.187-0.187,0.374-0.374,0.561-0.561c0.704-0.704,1.409-1.408,2.113-2.112     c1.074-1.074,2.148-2.148,3.222-3.222c-0.892,0.201-1.785,0.401-2.677,0.602c2.035,2.035,4.07,4.07,6.104,6.104     C343.053,151.532,345.701,150.462,345.249,150.01z"/>
		</g>
	</g>
	<g>
		
			<rect x="196.813" y="246.658" transform="matrix(0.7071 0.7071 -0.7071 0.7071 239.4155 -69.9708)" fill="#E5DFDF" width="14.714" height="14.714"/>
		<g>
			<path fill="#562F2F" d="M205.538,263.937c-3.454-3.454-6.908-6.908-10.362-10.362c0.197,0.197,0.662-0.458,1.208-1.004     c1.2-1.2,2.4-2.4,3.6-3.601c1.831-1.83,3.661-3.661,5.491-5.491c-0.891,0.204-1.783,0.409-2.674,0.613     c3.453,3.454,6.907,6.908,10.36,10.362c-0.197-0.197-0.662,0.458-1.208,1.004c-1.2,1.2-2.399,2.4-3.6,3.601     c-1.83,1.83-3.66,3.661-5.49,5.491c-0.567,0.567,2.142,0.207,2.611-0.263c3.467-3.468,6.935-6.936,10.402-10.404     c0.127-0.127,0.203-0.21,0.063-0.351c-3.467-3.468-6.935-6.936-10.402-10.404c-0.465-0.465-2.299,0.239-2.674,0.613     c-3.468,3.468-6.936,6.936-10.404,10.404c-0.127,0.127-0.203,0.21-0.063,0.351c3.468,3.468,6.936,6.936,10.404,10.404     C203.307,265.406,205.926,264.325,205.538,263.937z"/>
		</g>
	</g>
	<g>
		
			<rect x="219.961" y="192.114" transform="matrix(0.7072 0.7071 -0.7071 0.7072 204.5646 -101.0542)" fill="#E5DFDF" width="8.637" height="8.636"/>
		<g>
			<path fill="#562F2F" d="M225.632,202c-2.027-2.027-4.055-4.055-6.083-6.082c0.261,0.261-0.22,0.666,0.166,0.28     c0.187-0.187,0.374-0.374,0.562-0.561c0.704-0.704,1.409-1.409,2.113-2.113c1.074-1.074,2.149-2.148,3.223-3.222     c-0.896,0.188-1.792,0.375-2.688,0.562c2.026,2.027,4.052,4.054,6.078,6.081c-0.261-0.261,0.22-0.666-0.166-0.28     c-0.187,0.187-0.374,0.374-0.561,0.561c-0.704,0.705-1.408,1.409-2.112,2.113c-1.074,1.074-2.147,2.148-3.221,3.223     c-0.774,0.775,2.088,0.533,2.669-0.048c2.034-2.036,4.068-4.071,6.103-6.106c0.146-0.146,0.167-0.367,0.019-0.514     c-2.034-2.035-4.068-4.07-6.103-6.105c-0.636-0.636-2.189,0.064-2.688,0.562c-2.036,2.035-4.072,4.07-6.107,6.105     c-0.146,0.146-0.167,0.367-0.019,0.514c2.036,2.036,4.071,4.071,6.107,6.106C223.569,203.719,226.289,202.656,225.632,202z"/>
		</g>
	</g>
	<g>
		<g>
			<line fill="#E5DFDF" x1="688.244" y1="388.701" x2="729.846" y2="311.112"/>
			<g>
				<path fill="#562F2F" d="M689.633,388.879c13.867-25.863,27.734-51.727,41.602-77.589c0.783-1.461-2.16-1.505-2.777-0.354      c-13.867,25.863-27.734,51.726-41.602,77.588C686.072,389.984,689.016,390.028,689.633,388.879L689.633,388.879z"/>
			</g>
		</g>
		<g>
			<circle fill="#E5DFDF" cx="729.845" cy="311.113" r="7.366"/>
			<g>
				<path fill="#562F2F" d="M721.371,313.716c3.729,10.027,19.671,5.237,16.948-5.207      C735.618,298.151,718.662,303.317,721.371,313.716c0.299,1.145,3.197,0.374,2.898-0.776c-0.817-3.137,0.21-6.396,3.253-7.892      c3.332-1.638,6.803,1.291,7.898,4.238c1.121,3.015-0.442,6.511-3.253,7.892c-3.332,1.639-6.803-1.291-7.898-4.238      C723.847,311.803,720.972,312.64,721.371,313.716z"/>
			</g>
		</g>
	</g>
	<g>
		
			<rect x="909.204" y="104.631" transform="matrix(0.707 0.7072 -0.7072 0.707 347.7097 -615.3593)" fill="#E5DFDF" width="14.713" height="14.713"/>
		<g>
			<path fill="#562F2F" d="M917.902,121.812c-3.453-3.454-6.906-6.908-10.36-10.362c0.35,0.349-0.542,1.138,0.144,0.452     c0.318-0.319,0.638-0.638,0.956-0.957c1.2-1.2,2.399-2.4,3.6-3.6c1.83-1.83,3.66-3.661,5.49-5.491     c-0.838,0.103-1.676,0.206-2.513,0.309c3.453,3.454,6.907,6.908,10.361,10.362c-0.35-0.349,0.542-1.138-0.144-0.452     c-0.319,0.319-0.638,0.638-0.956,0.957c-1.2,1.2-2.4,2.4-3.601,3.6c-1.83,1.83-3.66,3.661-5.49,5.491     c-1.22,1.22,1.627,1.257,2.342,0.542c3.468-3.468,6.936-6.936,10.403-10.404c0.211-0.21,0.443-0.579,0.171-0.851     c-3.468-3.468-6.936-6.936-10.403-10.404c-0.609-0.609-1.979-0.226-2.513,0.309c-3.468,3.468-6.935,6.936-10.402,10.404     c-0.21,0.21-0.443,0.579-0.171,0.851c3.467,3.468,6.935,6.936,10.402,10.404C915.974,123.727,918.722,122.631,917.902,121.812z"/>
		</g>
	</g>
	<g>
		<polygon fill="#F9AAAA" points="917.949,38.354 911.848,32.248 905.739,38.354 911.848,44.459   "/>
		<g>
			<path fill="#562F2F" d="M919.291,37.775c-2.033-2.036-4.067-4.071-6.102-6.106c-0.609-0.61-1.979-0.227-2.513,0.308     c-2.036,2.036-4.072,4.071-6.108,6.106c-0.211,0.211-0.443,0.58-0.171,0.852c2.036,2.035,4.072,4.07,6.108,6.104     c0.609,0.61,1.979,0.227,2.513-0.308c2.034-2.035,4.067-4.07,6.102-6.104c1.22-1.221-1.626-1.26-2.342-0.544     c-2.034,2.035-4.067,4.07-6.102,6.104c0.838-0.103,1.675-0.205,2.513-0.308c-2.036-2.035-4.072-4.07-6.108-6.104     c-0.057,0.284-0.114,0.567-0.171,0.852c2.036-2.036,4.072-4.071,6.108-6.106c-0.838,0.103-1.675,0.205-2.513,0.308     c2.033,2.036,4.067,4.071,6.102,6.106C917.363,39.691,920.111,38.595,919.291,37.775z"/>
		</g>
	</g>
</g>
</svg>
