<?xml version="1.0" encoding="utf-8"?>
<!-- Generator: Adobe Illustrator 16.0.0, SVG Export Plug-In . SVG Version: 6.00 Build 0)  -->
<!DOCTYPE svg PUBLIC "-//W3C//DTD SVG 1.1//EN" "http://www.w3.org/Graphics/SVG/1.1/DTD/svg11.dtd">
<svg version="1.1" class="图层_1" xmlns="http://www.w3.org/2000/svg" xmlns:xlink="http://www.w3.org/1999/xlink" x="0px" y="0px"
	 width="960px" height="640px" viewBox="0 0 960 640" enable-background="new 0 0 960 640" xml:space="preserve">
	 <g class="p6_txt">
	 	<image xmlns="http://www.w3.org/2000/svg" overflow="visible" width="267" height="171" xmlns:xlink="http://www.w3.org/1999/xlink" xlink:href="./images/CF81EEFE.png" transform="matrix(1 0 0 1 77.5957 78.5352)">
		</image>
	 </g>
<g class="p6_car">
	<polyline xmlns="http://www.w3.org/2000/svg" fill="none" stroke="#562F2F" stroke-miterlimit="10" points="611.492,391.957 689.105,461.621 689.105,461.621   814.445,504.172 "/>
	<g xmlns="http://www.w3.org/2000/svg">
	<g>
		<path fill="#F07578" d="M782.598,524.304c0,4.058,4.5,7.377,10,7.377h65.607c5.5,0,10-3.319,10-7.377s-4.5-7.377-10-7.377h-65.607    C787.098,516.927,782.598,520.246,782.598,524.304z"/>
	</g>
	<g>
		<path fill="#562F2F" d="M785.186,527.134c0.525,6.822,6.66,6.535,11.623,6.535c5.385,0,10.768,0,16.152,0    c12.846,0,25.691,0,38.537,0c2.945,0,5.891,0,8.836,0c9.527,0,10.859-13.719,0.639-13.719c-10.307,0-20.611,0-30.916,0    c-9.334,0-18.666,0-27.996,0C795.932,519.95,785.852,518.458,785.186,527.134c-0.037,0.498-2.473,0.051-2.42-0.648    c0.773-10.061,15.324-7.57,22.154-7.57c13.123,0,26.248,0,39.373,0c6.857,0,16.758-1.711,22.967,2.002    c2.861,1.711,3.959,5.053,3.232,8.172c-0.873,3.748-5.076,5.41-8.482,5.615c-2.406,0.145-4.865,0-7.273,0    c-15.156,0-30.313,0-45.471,0c-7.461,0-25.635,3.051-26.5-8.219C782.736,526.093,785.129,526.378,785.186,527.134z"/>
	</g>
	<g>
		<g>
			<path fill="#562F2F" d="M803.561,519.627c2.922-9.813,11.026-16.314,21.333-16.618c10.198-0.301,18.721,7.468,21.499,16.813     c0.521-0.502,1.042-1.003,1.563-1.504c-15.225,0-30.449,0-45.674,0c-1.695,0-2.189,2.23-0.229,2.23c15.225,0,30.449,0,45.674,0     c0.697,0,1.813-0.666,1.563-1.504c-7.139-24.001-41.424-23.622-48.516,0.194C800.283,520.89,803.172,520.935,803.561,519.627z"/>
		</g>
	</g>
	<g>
		<g>
			<path fill="#562F2F" d="M817.246,519.044c0-5.224,0-10.447,0-15.672c0-0.752-2.898-0.247-2.898,0.777c0,5.224,0,10.447,0,15.672     C814.348,520.573,817.246,520.068,817.246,519.044L817.246,519.044z"/>
		</g>
	</g>
	<g>
		<g>
			<path fill="#562F2F" d="M826.466,519.294c0-3.48,0-6.96,0-10.439c0-1.407-2.92-0.881-2.92,0.277c0,3.48,0,6.96,0,10.439     C823.546,520.979,826.466,520.452,826.466,519.294L826.466,519.294z"/>
		</g>
	</g>
	<g>
		<circle fill="#E5DFDF" cx="848.718" cy="534.187" r="6.96"/>
		<g>
			<path fill="#562F2F" d="M840.309,534.575c0.556,10.314,16.301,8.828,16.818-0.777c0.25-4.648-4.689-7.843-8.922-7.152     C843.93,527.342,840.554,530.038,840.309,534.575c-0.03,0.573,2.847,0.173,2.898-0.777c0.215-4,3.575-7.221,7.664-5.103     c2.2,1.14,3.231,3.53,3.357,5.88c0.222,4.114-3.943,7.033-7.665,5.104c-2.2-1.141-3.23-3.531-3.356-5.882     C843.171,533.14,840.26,533.666,840.309,534.575z"/>
		</g>
	</g>
	<g>
		<circle fill="#E5DFDF" cx="801.392" cy="534.187" r="6.96"/>
		<g>
			<path fill="#562F2F" d="M792.982,534.575c0.554,10.289,16.303,8.79,16.818-0.777c0.251-4.661-4.683-7.808-8.912-7.119     C796.626,527.373,793.227,530.039,792.982,534.575c-0.027,0.517,2.849,0.137,2.898-0.777c0.214-3.985,3.544-7.246,7.663-5.112     c2.2,1.141,3.232,3.539,3.358,5.89c0.222,4.102-3.918,7.054-7.662,5.114c-2.202-1.141-3.233-3.54-3.359-5.892     C795.848,533.194,792.936,533.706,792.982,534.575z"/>
		</g>
	</g>
</g>
</g>


<g class="p6_paper">
	<g>
		<path fill="#F5F2F2" d="M759.678,381.957c0,5.5-4.5,10-10,10H456.193c-5.5,0-10-4.5-10-10V88.473c0-5.5,4.5-10,10-10h293.484    c5.5,0,10,4.5,10,10V381.957z"/>
		<g>
			<path fill="#562F2F" d="M757.833,381.619c-0.694,10.245-9.175,9.758-16.49,9.758c-8.503,0-17.007,0-25.51,0     c-28.487,0-56.975,0-85.462,0c-54.989,0-109.979,0-164.969,0c-4.176,0-9.955,1.059-13.673-1.459     c-4.841-3.276-3.691-11.09-3.691-16.167c0-21.926,0-43.851,0-65.776c0-61.166,0-122.331,0-183.497c0-8.918,0-17.836,0-26.754     c0-4.509-0.711-9.817,1.371-13.951c3.025-6.007,11.057-4.72,16.554-4.72c8.918,0,17.836,0,26.754,0c61.166,0,122.331,0,183.497,0     c21.925,0,43.851,0,65.775,0c6.706,0,13.897-1.288,15.752,7.73c0.733,3.562,0.092,7.829,0.092,11.417     c0,54.99,0,109.979,0,164.969C757.833,302.652,757.833,342.136,757.833,381.619c0,0.871,3.689,1.202,3.689,0.676     c0-42.112,0-84.225,0-126.337c0-53.336,0-106.672,0-160.009c0-5.728,0.734-11.069-4.107-15.334     c-3.911-3.445-10.205-2.723-15.073-2.723c-20.87,0-41.74,0-62.61,0c-61.519,0-123.037,0-184.556,0c-13.273,0-26.547,0-39.82,0     c-5.94,0-11.006,4.317-11.006,10.462c0,1.397,0,2.795,0,4.192c0,7.418,0,14.837,0,22.256c0,59.958,0,119.917,0,179.875     c0,24.196,0,48.392,0,72.588c0,4.664,0,9.328,0,13.992c0,8.34,7.576,11.279,14.633,11.279c48.436,0,96.872,0,145.308,0     c48.163,0,96.325,0,144.487,0c6.525,0,12.249-2.933,12.745-10.242C761.577,381.483,757.874,381.023,757.833,381.619z"/>
		</g>
	</g>
	<g>
		<path fill="#FFFFFF" d="M546.969,375.24c0,1.65-1.35,3-3,3h-68.621c-1.65,0-3-1.35-3-3V95.189c0-1.65,1.35-3,3-3h68.621    c1.65,0,3,1.35,3,3V375.24z"/>
		<g>
			<path fill="#562F2F" d="M546.604,375.279c-0.904,4.455-9.808,2.735-12.666,2.735c-7.549,0-15.098,0-22.646,0     c-11.879,0-23.759,0-35.638,0c-4.574,0-2.943-10.742-2.943-12.905c0-9.456,0-18.912,0-28.368c0-61.282,0-122.563,0-183.845     c0-18.443,0-36.887,0-55.33c0-1.676-0.468-5.151,2.578-5.151c3.866,0,7.731,0,11.597,0c15.346,0,30.691,0,46.037,0     c3.631,0,7.261,0,10.892,0c3.347,0,2.79,3.836,2.79,5.659c0,6.884,0,13.768,0,20.652c0,27.147,0,54.295,0,81.442     c0,55.271,0,110.541,0,165.812C546.604,369.08,546.604,372.18,546.604,375.279c0,0.332,0.729,0.189,0.729-0.078     c0-43.186,0-86.372,0-129.557c0-49.491,0-98.982,0-148.473c0-1.662,0.096-2.759-0.911-4.249     c-1.299-1.924-7.347-0.959-9.075-0.959c-15.081,0-30.163,0-45.245,0c-5.147,0-10.294,0-15.441,0c-2.24,0-4.677,0.633-4.677,3.434     c0,4.459,0,8.919,0,13.378c0,57.058,0,114.115,0,171.172c0,25.789,0,51.577,0,77.366c0,5.642,0,11.283,0,16.925     c0,6.354,9.93,4.228,14.138,4.228c13.698,0,27.396,0,41.093,0c4.813,0,9.625,0,14.438,0c2.682,0,5.026-0.048,5.681-3.265     C547.396,374.894,546.66,375.006,546.604,375.279z"/>
		</g>
	</g>
	<g>
		<path fill="#C6EDF6" d="M641.729,205.859c0,1.65-1.35,3-3,3h-71.584c-1.65,0-3-1.35-3-3V95.189c0-1.65,1.35-3,3-3h71.584    c1.65,0,3,1.35,3,3V205.859z"/>
		<g>
			<path fill="#562F2F" d="M641.362,205.89c-0.886,4.36-9.562,2.715-12.33,2.715c-7.363,0-14.728,0-22.091,0     c-12.881,0-25.761,0-38.642,0c-4.061,0-3.789-3.625-3.789-6.356c0-4.885,0-9.769,0-14.653c0-15.501,0-31.003,0-46.504     c0-13.244,0-26.488,0-39.732c0-1.782-1.091-8.915,2.617-8.915c3.477,0,6.953,0,10.431,0c15.335,0,30.67,0,46.006,0     c4.755,0,9.511,0,14.266,0c4.13,0,3.532,4.157,3.532,6.748C641.362,134.758,641.362,170.324,641.362,205.89     c0,0.369,0.732,0.25,0.732-0.062c0-23.841,0-47.682,0-71.523c0-11.98,0-23.96,0-35.94c0-1.889,0.536-5.663-2.073-6.193     c-3.09-0.628-6.479-0.237-9.615-0.237c-15.182,0-30.363,0-45.545,0c-5.318,0-10.637,0-15.954,0c-2.449,0-5.129,0.408-5.129,3.577     c0,25.314,0,50.628,0,75.943c0,10.639,0,21.278,0,31.917c0,2.711-0.064,5.07,3.238,5.742c2.588,0.526,5.826,0,8.45,0     c14.292,0,28.584,0,42.877,0c5.685,0,11.368,0,17.053,0c2.956,0,5.952,0.389,6.698-3.285     C642.165,205.482,641.426,205.58,641.362,205.89z"/>
		</g>
	</g>
	<g>
		<path fill="#C6EDF6" d="M733.523,205.859c0,1.65-1.35,3-3,3h-71.584c-1.65,0-3-1.35-3-3V95.189c0-1.65,1.35-3,3-3h71.584    c1.65,0,3,1.35,3,3V205.859z"/>
		<g>
			<path fill="#562F2F" d="M733.156,205.886c-0.883,4.345-9.58,2.703-12.333,2.703c-7.364,0-14.728,0-22.092,0     c-12.88,0-25.761,0-38.641,0c-4.057,0-3.784-3.607-3.784-6.335c0-4.885,0-9.769,0-14.653c0-15.501,0-31.003,0-46.504     c0-13.244,0-26.488,0-39.732c0-1.787-1.093-8.903,2.62-8.903c3.477,0,6.954,0,10.431,0c15.335,0,30.671,0,46.006,0     c4.756,0,9.511,0,14.267,0c4.125,0,3.526,4.138,3.526,6.728C733.156,134.753,733.156,170.319,733.156,205.886     c0,0.386,0.734,0.28,0.734-0.053c0-23.841,0-47.682,0-71.523c0-11.98,0-23.96,0-35.94c0-1.89,0.535-5.681-2.078-6.212     c-3.092-0.628-6.479-0.239-9.615-0.239c-15.182,0-30.364,0-45.546,0c-5.317,0-10.636,0-15.954,0c-2.451,0-5.125,0.45-5.125,3.588     c0,25.314,0,50.628,0,75.943c0,10.639,0,21.278,0,31.917c0,2.711-0.063,5.088,3.243,5.76c2.59,0.526,5.825,0.002,8.45,0.002     c14.292,0,28.585,0,42.877,0c5.685,0,11.369,0,17.054,0c2.955,0,5.948,0.375,6.694-3.297     C733.965,205.468,733.223,205.556,733.156,205.886z"/>
		</g>
	</g>
	<g>
		<path fill="#F3F1AE" d="M641.729,340.297c0,1.65-1.35,3-3,3h-71.584c-1.65,0-3-1.35-3-3v-110.67c0-1.65,1.35-3,3-3h71.584    c1.65,0,3,1.35,3,3V340.297z"/>
		<g>
			<path fill="#562F2F" d="M641.37,340.354c-0.905,4.455-9.334,2.777-12.222,2.777c-7.363,0-14.727,0-22.091,0     c-12.88,0-25.761,0-38.642,0c-3.879,0-3.909-2.968-3.909-5.785c0-4.628,0-9.256,0-13.883c0-15.345,0-30.689,0-46.034     c0-13.563,0-27.125,0-40.688c0-2.4,0-4.8,0-7.2c0-4.326,10.162-2.75,12.218-2.75c15.295,0,30.591,0,45.887,0     c4.948,0,9.896,0,14.846,0c3.879,0,3.909,2.968,3.909,5.785c0,35.939,0,71.878,0,107.816c0,0.154,0.725,0.038,0.725-0.193     c0-23.841,0-47.683,0-71.523c0-11.98,0-23.96,0-35.94c0-2.463,0.416-6.275-3.211-6.275c-3.243,0-6.487,0-9.731,0     c-15.295,0-30.591,0-45.887,0c-4.948,0-9.896,0-14.846,0c-2.322,0-4.634,0.703-4.634,3.554c0,25.314,0,50.628,0,75.943     c0,10.639,0,21.278,0,31.917c0,2.35-0.131,5.586,3.211,5.586c3.011,0,6.022,0,9.033,0c14.367,0,28.734,0,43.102,0     c5.529,0,11.058,0,16.587,0c2.833,0,5.657,0.297,6.372-3.223C642.129,340.034,641.41,340.156,641.37,340.354z"/>
		</g>
	</g>
	<g>
		<path fill="#F3F1AE" d="M733.523,340.297c0,1.65-1.35,3-3,3h-71.584c-1.65,0-3-1.35-3-3v-110.67c0-1.65,1.35-3,3-3h71.584    c1.65,0,3,1.35,3,3V340.297z"/>
		<g>
			<path fill="#562F2F" d="M733.166,340.359c-0.876,4.309-8.282,2.785-11.442,2.785c-7.268,0-14.534,0-21.802,0     c-13.113,0-26.227,0-39.34,0c-3.686,0-4.28-2.507-4.28-5.463c0-4.496,0-8.992,0-13.488c0-15.259,0-30.518,0-45.777     c0-13.714,0-27.429,0-41.144c0-2.565,0-5.13,0-7.696c0-4.192,8.367-2.798,10.761-2.798c15.182,0,30.364,0,45.546,0     c5.318,0,10.636,0,15.954,0c1.93,0,4.599,0.22,4.599,2.957c0,0.73,0,1.461,0,2.191c0,36.156,0,72.312,0,108.467     c0,0.128,0.725,0.021,0.725-0.193c0-23.841,0-47.683,0-71.523c0-11.98,0-23.96,0-35.94c0-2.415,0.429-6.262-3.146-6.262     c-3.478,0-6.954,0-10.431,0c-15.335,0-30.671,0-46.006,0c-4.756,0-9.511,0-14.267,0c-2.275,0-4.459,0.788-4.459,3.541     c0,25.314,0,50.628,0,75.943c0,10.639,0,21.278,0,31.917c0,2.305-0.15,5.573,3.146,5.573c3.238,0,6.476,0,9.714,0     c14.431,0,28.862,0,43.293,0c5.368,0,10.736,0,16.104,0c2.751,0,5.357,0.174,6.046-3.215     C733.917,340.059,733.203,340.176,733.166,340.359z"/>
		</g>
	</g>
	<g>
		<path fill="#86F7CB" d="M581.318,376.24c0,1.1-0.9,2-2,2h-13.174c-1.1,0-2-0.9-2-2v-13.176c0-1.1,0.9-2,2-2h13.174    c1.1,0,2,0.9,2,2V376.24z"/>
		<g>
			<path fill="#562F2F" d="M580.955,376.283c-0.568,2.796-5.878,1.743-7.744,1.743c-2.294,0-4.588,0-6.882,0     c-3.24,0-1.821-12.958-1.821-15.005c0-3.164,12.538-1.743,14.626-1.743C582.374,361.278,580.955,374.236,580.955,376.283     c0,0.314,0.727,0.163,0.727-0.086c0-3.186,0-6.371,0-9.557c0-1.89,0.714-5.79-2.271-5.79c-3.369,0-6.739,0-10.109,0     c-2.201,0-4.955-0.523-5.521,2.257c-0.595,2.926,0,6.574,0,9.557c0,1.89-0.714,5.79,2.271,5.79c3.369,0,6.739,0,10.109,0     c2.201,0,4.955,0.523,5.521-2.257C581.74,375.908,581.008,376.026,580.955,376.283z"/>
		</g>
	</g>
	<g>
		<path fill="#F07578" d="M641.729,376.24c0,1.1-0.9,2-2,2h-13.176c-1.1,0-2-0.9-2-2v-13.176c0-1.1,0.9-2,2-2h13.176    c1.1,0,2,0.9,2,2V376.24z"/>
		<g>
			<path fill="#562F2F" d="M641.367,376.287c-0.571,2.808-5.866,1.752-7.744,1.752c-2.204,0-6.188,0.796-8.146-0.526     c-1.327-0.897-0.563-5.751-0.563-6.938c0-2.521,0-5.041,0-7.561c0-2.742,6.356-1.748,7.743-1.748     c2.204,0,6.188-0.796,8.146,0.526c1.414,0.956,0.563,6.34,0.563,7.617c0,2.31,0,4.618,0,6.928c0,0.218,0.725,0.083,0.725-0.193     c0-3.186,0-6.371,0-9.557c0-1.897,0.685-5.724-2.266-5.724c-3.371,0-6.741,0-10.111,0c-2.19,0-4.96-0.522-5.522,2.248     c-0.56,2.749-0.001,6.178-0.001,8.977c0,1.943-0.832,6.354,2.266,6.354c3.371,0,6.741,0,10.111,0c2.19,0,4.96,0.522,5.522-2.248     C642.145,375.925,641.416,376.046,641.367,376.287z"/>
		</g>
	</g>
	<g>
		<path fill="#86F7CB" d="M673.115,376.24c0,1.1-0.9,2-2,2h-13.176c-1.1,0-2-0.9-2-2v-13.176c0-1.1,0.9-2,2-2h13.176    c1.1,0,2,0.9,2,2V376.24z"/>
		<g>
			<path fill="#562F2F" d="M672.747,376.264c-0.554,2.722-6.08,1.695-7.852,1.695c-2.294,0-4.588,0-6.882,0     c-3.065,0-1.706-12.936-1.706-14.918c0-3.068,12.726-1.695,14.733-1.695C674.106,361.346,672.747,374.281,672.747,376.264     c0,0.397,0.736,0.302,0.736-0.047c0-3.186,0-6.37,0-9.556c0-1.932,0.691-5.878-2.341-5.878c-3.185,0-6.37,0-9.556,0     c-2.337,0-5.413-0.661-6.016,2.305c-0.595,2.926,0,6.574,0,9.556c0,1.932-0.691,5.878,2.341,5.878c3.185,0,6.37,0,9.556,0     c2.337,0,5.413,0.661,6.016-2.305C673.561,375.84,672.816,375.921,672.747,376.264z"/>
		</g>
	</g>
	<g>
		<path fill="#7DCAF9" d="M733.523,376.24c0,1.1-0.9,2-2,2H718.35c-1.1,0-2-0.9-2-2v-13.176c0-1.1,0.9-2,2-2h13.174c1.1,0,2,0.9,2,2    V376.24z"/>
		<g>
			<path fill="#562F2F" d="M733.162,376.288c-0.571,2.811-5.861,1.755-7.742,1.755c-2.207,0-6.186,0.795-8.146-0.529     c-1.327-0.897-0.563-5.751-0.563-6.939c0-2.521,0-5.041,0-7.561c0-2.747,6.351-1.752,7.741-1.752     c2.207,0,6.186-0.795,8.146,0.529c1.414,0.956,0.563,6.34,0.563,7.618c0,2.31,0,4.618,0,6.928c0,0.212,0.725,0.078,0.725-0.193     c0-3.186,0-6.371,0-9.557c0-1.898,0.686-5.72-2.266-5.72c-3.369,0-6.739,0-10.108,0c-2.188,0-4.961-0.522-5.523,2.245     c-0.56,2.749-0.001,6.177-0.001,8.976c0,1.944-0.833,6.35,2.266,6.35c3.369,0,6.739,0,10.108,0c2.188,0,4.961,0.522,5.523-2.245     C733.938,375.93,733.21,376.051,733.162,376.288z"/>
		</g>
	</g>
	<g>
		<path fill="#C6EDF6" d="M532.361,360.621c0,2.2-1.8,4-4,4h-37.801c-2.2,0-4-1.8-4-4V349.67c0-2.2,1.8-4,4-4h37.801    c2.2,0,4,1.8,4,4V360.621z"/>
	</g>
	<g opacity="0.5">
		<path fill="#562F2F" d="M531.768,118.537c0,0.275-0.225,0.5-0.5,0.5h-43.219c-0.275,0-0.5-0.225-0.5-0.5v-6.498    c0-0.275,0.225-0.5,0.5-0.5h43.219c0.275,0,0.5,0.225,0.5,0.5V118.537z"/>
	</g>
	<g>
		<path fill="#F5F2F2" d="M625.045,170.947c0,0.55-0.45,1-1,1h-42.219c-0.55,0-1-0.45-1-1v-5.5c0-0.55,0.45-1,1-1h42.219    c0.55,0,1,0.45,1,1V170.947z"/>
		<g>
			<path fill="#562F2F" d="M624.703,170.923c-0.73,1.756-6.351,0.791-7.879,0.791c-5.571,0-11.144,0-16.715,0     c-4.946,0-9.892,0-14.837,0c-1.064,0-2.128,0-3.192,0c-1.504,0-0.89-5.207-0.89-6.114c0-1.914,23.269-0.918,25.549-0.918     c4.801,0,9.602,0,14.402,0c0.913,0,1.826,0,2.739,0c1.378,0,0.8,5.465,0.8,6.303c0,0.343,0.729,0.207,0.729-0.073     c0-2.635,1.223-6.697-2.274-6.697c-5.376,0-10.752,0-16.129,0c-6.623,0-13.246,0-19.869,0c-1.795,0-5.771-0.907-6.652,1.209     c-0.807,1.94-0.843,6.758,1.941,6.758c5.156,0,10.313,0,15.47,0c6.715,0,13.431,0,20.146,0c1.849,0,6.422,1.01,7.346-1.209     C625.536,170.613,624.81,170.667,624.703,170.923z"/>
		</g>
	</g>
	<g>
		<path fill="#F5F2F2" d="M602.936,183.977c0,0.55-0.45,1-1,1h-20.109c-0.55,0-1-0.45-1-1v-3.529c0-0.55,0.45-1,1-1h20.109    c0.55,0,1,0.45,1,1V183.977z"/>
		<g>
			<path fill="#562F2F" d="M602.576,184.031c-0.856,2.059-10.701,0.77-12.687,0.77c-2.267,0-4.533,0-6.801,0     c-2.453,0-1.9-2.287-1.9-4.189c0-1.987,11.173-0.989,12.684-0.989c2.267,0,4.533,0,6.801,0c2.532,0,1.9,2.518,1.9,4.451     c0,0.172,0.725,0.051,0.725-0.194c0-1.371,0.764-4.607-1.402-4.607c-2.859,0-5.718,0-8.576,0c-3.41,0-6.82,0-10.23,0     c-1.233,0-2.099-0.028-2.622,1.23c-0.432,1.037-0.508,4.65,1.259,4.65c2.622,0,5.244,0,7.866,0c3.542,0,7.083,0,10.624,0     c1.36,0,2.488,0.19,3.079-1.23C603.37,183.741,602.663,183.822,602.576,184.031z"/>
		</g>
	</g>
	<g>
		<path fill="#F5F2F2" d="M625.045,183.977c0,0.55-0.45,1-1,1h-14.828c-0.55,0-1-0.45-1-1v-3.529c0-0.55,0.45-1,1-1h14.828    c0.55,0,1,0.45,1,1V183.977z"/>
		<g>
			<path fill="#562F2F" d="M624.682,184.019c-0.757,1.818-8.158,0.741-9.855,0.741c-1.635,0-3.27,0-4.904,0     c-1.938,0-1.342-3.06-1.342-4.354c0-1.479,8.782-0.741,9.855-0.741c1.635,0,3.27,0,4.904,0     C625.277,179.665,624.682,182.724,624.682,184.019c0,0.32,0.727,0.171,0.727-0.084c0-1.389,0.707-4.257-1.145-4.694     c-1.662-0.393-3.856-0.011-5.553-0.011c-2.712,0-5.423,0-8.134,0c-1.29,0-2.172-0.067-2.724,1.259     c-0.487,1.172-0.396,4.33,1.145,4.694c1.662,0.393,3.856,0.011,5.553,0.011c2.712,0,5.423,0,8.134,0     c1.29,0,2.172,0.067,2.724-1.259C625.512,183.685,624.785,183.77,624.682,184.019z"/>
		</g>
	</g>
	<g>
		<path fill="#F5F2F2" d="M625.045,306.764c0,0.55-0.45,1-1,1h-42.219c-0.55,0-1-0.45-1-1v-5.502c0-0.55,0.45-1,1-1h42.219    c0.55,0,1,0.45,1,1V306.764z"/>
		<g>
			<path fill="#562F2F" d="M624.696,306.713c-0.722,1.733-6.537,0.768-7.978,0.768c-5.572,0-11.144,0-16.716,0     c-4.945,0-9.891,0-14.837,0c-1.063,0-2.128,0-3.191,0c-1.345,0-0.78-5.211-0.78-6.053c0-1.84,23.465-0.883,25.651-0.883     c4.801,0,9.602,0,14.401,0c0.914,0,1.827,0,2.74,0c1.211,0,0.689,5.467,0.689,6.241c0,0.4,0.736,0.306,0.736-0.045     c0-2.319,1.236-6.763-2.073-6.763c-5.157,0-10.313,0-15.47,0c-6.716,0-13.431,0-20.146,0c-1.896,0-6.315-1.005-7.246,1.232     c-0.709,1.704-0.885,6.836,1.796,6.836c4.922,0,9.845,0,14.768,0c6.793,0,13.587,0,20.38,0c1.956,0,7,1.106,7.973-1.232     C625.56,306.417,624.829,306.393,624.696,306.713z"/>
		</g>
	</g>
	<g>
		<path fill="#F5F2F2" d="M602.936,319.791c0,0.55-0.45,1-1,1h-20.109c-0.55,0-1-0.45-1-1v-3.527c0-0.55,0.45-1,1-1h20.109    c0.55,0,1,0.45,1,1V319.791z"/>
		<g>
			<path fill="#562F2F" d="M602.573,319.836c-0.844,2.027-10.743,0.748-12.691,0.748c-2.268,0-4.534,0-6.802,0     c-2.423,0-1.892-2.506-1.892-4.365c0-1.523,11.436-0.748,12.691-0.748c2.268,0,4.534,0,6.802,0     C603.104,315.471,602.573,317.977,602.573,319.836c0,0.306,0.725,0.149,0.725-0.09c0-1.132,0.755-4.689-1.271-4.689     c-2.622,0-5.244,0-7.866,0c-3.541,0-7.083,0-10.624,0c-1.387,0-2.474-0.19-3.073,1.252c-0.414,0.996-0.516,4.689,1.271,4.689     c2.622,0,5.244,0,7.866,0c3.541,0,7.083,0,10.624,0c1.387,0,2.474,0.189,3.073-1.252     C603.396,319.512,602.673,319.597,602.573,319.836z"/>
		</g>
	</g>
	<g>
		<path fill="#F5F2F2" d="M625.045,319.791c0,0.55-0.45,1-1,1h-14.828c-0.55,0-1-0.45-1-1v-3.527c0-0.55,0.45-1,1-1h14.828    c0.55,0,1,0.45,1,1V319.791z"/>
		<g>
			<path fill="#562F2F" d="M624.687,319.85c-0.779,1.873-8.084,0.78-9.845,0.78c-1.635,0-3.27,0-4.904,0     c-1.987,0-1.358-3.021-1.358-4.312c0-1.771,9.172-0.894,10.468-0.894c1.506,0,3.013,0,4.52,0c1.723,0,1.116,3.442,1.116,4.464     c0,0.146,0.725,0.033,0.725-0.194c0-1.135,0.712-4.591-1.209-4.591c-1.824,0-3.648,0-5.473,0c-2.711,0-5.422,0-8.134,0     c-1.248,0-2.196-0.071-2.733,1.22c-0.418,1.004-0.449,4.5,1.127,4.628c1.824,0.148,3.722,0.001,5.551,0.001     c2.711,0,5.422,0,8.134,0c1.248,0,2.196,0.071,2.733-1.22C625.468,319.578,624.769,319.653,624.687,319.85z"/>
		</g>
	</g>
	<g>
		<path fill="#F5F2F2" d="M717.879,306.764c0,0.55-0.45,1-1,1h-42.221c-0.55,0-1-0.45-1-1v-5.502c0-0.55,0.45-1,1-1h42.221    c0.55,0,1,0.45,1,1V306.764z"/>
		<g>
			<path fill="#562F2F" d="M717.53,306.715c-0.722,1.736-6.533,0.77-7.978,0.77c-5.571,0-11.144,0-16.716,0     c-4.945,0-9.892,0-14.837,0c-1.064,0-2.128,0-3.192,0c-1.346,0-0.781-5.216-0.781-6.058c0-1.846,23.462-0.886,25.651-0.886     c4.801,0,9.602,0,14.402,0c0.913,0,1.826,0,2.74,0c1.212,0,0.69,5.472,0.69,6.247c0,0.396,0.736,0.298,0.736-0.048     c0-2.321,1.237-6.757-2.072-6.757c-5.157,0-10.313,0-15.471,0c-6.716,0-13.431,0-20.146,0c-1.894,0-6.317-1.004-7.248,1.23     c-0.709,1.705-0.885,6.83,1.794,6.83c4.923,0,9.846,0,14.769,0c6.794,0,13.588,0,20.382,0c1.952,0,7.001,1.105,7.974-1.23     C718.392,306.417,717.662,306.4,717.53,306.715z"/>
		</g>
	</g>
	<g>
		<path fill="#F5F2F2" d="M695.77,319.791c0,0.55-0.45,1-1,1h-20.111c-0.55,0-1-0.45-1-1v-3.527c0-0.55,0.45-1,1-1h20.111    c0.55,0,1,0.45,1,1V319.791z"/>
		<g>
			<path fill="#562F2F" d="M695.409,319.842c-0.852,2.046-10.72,0.761-12.69,0.761c-2.267,0-4.534,0-6.801,0     c-2.45,0-1.897-2.271-1.897-4.175c0-1.962,11.194-0.976,12.688-0.976c2.267,0,4.534,0,6.801,0c2.53,0,1.897,2.501,1.897,4.436     c0,0.195,0.725,0.067,0.725-0.194c0-1.364,0.761-4.619-1.406-4.619c-2.858,0-5.718,0-8.576,0c-3.411,0-6.821,0-10.231,0     c-1.243,0-2.094-0.026-2.62,1.239c-0.43,1.032-0.506,4.665,1.263,4.665c2.623,0,5.245,0,7.868,0c3.541,0,7.083,0,10.625,0     c1.371,0,2.482,0.19,3.076-1.239C696.215,319.537,695.501,319.621,695.409,319.842z"/>
		</g>
	</g>
	<g>
		<path fill="#F5F2F2" d="M717.879,319.791c0,0.55-0.45,1-1,1h-14.828c-0.55,0-1-0.45-1-1v-3.527c0-0.55,0.45-1,1-1h14.828    c0.55,0,1,0.45,1,1V319.791z"/>
		<g>
			<path fill="#562F2F" d="M717.516,319.832c-0.756,1.816-8.161,0.739-9.855,0.739c-1.635,0-3.27,0-4.904,0     c-1.938,0-1.342-3.055-1.342-4.349c0-1.477,8.784-0.74,9.855-0.74c1.635,0,3.27,0,4.904,0     C718.111,315.483,717.516,318.538,717.516,319.832c0,0.323,0.727,0.176,0.727-0.082c0-1.397,0.706-4.248-1.145-4.694     c-1.655-0.399-3.863-0.011-5.554-0.011c-2.711,0-5.422,0-8.134,0c-1.291,0-2.17-0.067-2.723,1.26     c-0.49,1.179-0.393,4.323,1.145,4.694c1.655,0.399,3.863,0.012,5.554,0.012c2.711,0,5.422,0,8.134,0     c1.291,0,2.17,0.066,2.723-1.261C718.348,319.498,717.62,319.581,717.516,319.832z"/>
		</g>
	</g>
	<g>
		<path fill="#F5F2F2" d="M717.879,170.947c0,0.55-0.45,1-1,1h-42.221c-0.55,0-1-0.45-1-1v-5.5c0-0.55,0.45-1,1-1h42.221    c0.55,0,1,0.45,1,1V170.947z"/>
		<g>
			<path fill="#562F2F" d="M717.533,170.909c-0.728,1.749-6.515,0.779-7.975,0.779c-5.572,0-11.145,0-16.716,0     c-4.946,0-9.892,0-14.838,0c-1.063,0-2.128,0-3.191,0c-1.353,0-0.789-5.24-0.789-6.082c0-1.876,23.442-0.9,25.647-0.9     c4.802,0,9.603,0,14.403,0c0.913,0,1.826,0,2.739,0c1.22,0,0.698,5.497,0.698,6.27c0,0.374,0.732,0.259,0.732-0.059     c0-2.33,1.24-6.73-2.065-6.73c-5.156,0-10.313,0-15.47,0c-6.716,0-13.432,0-20.147,0c-1.877,0-6.325-1.002-7.25,1.221     c-0.712,1.711-0.889,6.798,1.786,6.798c4.923,0,9.846,0,14.769,0c6.794,0,13.587,0,20.381,0c1.937,0,7.01,1.103,7.977-1.221     C718.383,170.605,717.654,170.62,717.533,170.909z"/>
		</g>
	</g>
	<g>
		<path fill="#F5F2F2" d="M695.77,183.977c0,0.55-0.45,1-1,1h-20.111c-0.55,0-1-0.45-1-1v-3.529c0-0.55,0.45-1,1-1h20.111    c0.55,0,1,0.45,1,1V183.977z"/>
		<g>
			<path fill="#562F2F" d="M695.408,184.026c-0.849,2.041-10.727,0.757-12.69,0.757c-2.267,0-4.534,0-6.802,0     c-2.449,0-1.896-2.267-1.896-4.171c0-1.953,11.201-0.971,12.689-0.971c2.267,0,4.534,0,6.802,0c2.529,0,1.896,2.498,1.896,4.433     c0,0.205,0.725,0.073,0.725-0.194c0-1.362,0.761-4.625-1.407-4.625c-2.859,0-5.718,0-8.577,0c-3.41,0-6.82,0-10.231,0     c-1.246,0-2.091-0.026-2.619,1.243c-0.429,1.03-0.505,4.673,1.266,4.673c2.622,0,5.245,0,7.867,0c3.542,0,7.084,0,10.625,0     c1.375,0,2.479,0.19,3.076-1.243C696.219,183.715,695.502,183.8,695.408,184.026z"/>
		</g>
	</g>
	<g>
		<path fill="#F5F2F2" d="M717.879,183.977c0,0.55-0.45,1-1,1h-14.828c-0.55,0-1-0.45-1-1v-3.529c0-0.55,0.45-1,1-1h14.828    c0.55,0,1,0.45,1,1V183.977z"/>
		<g>
			<path fill="#562F2F" d="M717.535,183.943c-0.537,1.291-2.608,0.784-3.714,0.784c-2.087,0-4.175,0-6.263,0     c-1.635,0-3.27,0-4.904,0c-1.807,0-1.237-2.947-1.237-4.16c0-1.708,8.807-0.87,9.954-0.87c1.635,0,3.27,0,4.904,0     c1.828,0,1.237,3.08,1.237,4.312c0,0.364,0.732,0.24,0.732-0.063c0-1.684,0.662-3.975-1.154-4.73     c-1.101-0.458-3.252-0.017-4.413-0.017c-2.838,0-5.676,0-8.514,0c-1.449,0-2.815-0.328-3.457,1.216     c-0.235,0.564-0.414,4.152,0.426,4.501c1.55,0.645,3.469,0.311,5.119,0.311c2.838,0,5.676,0,8.514,0     c1.449,0,2.815,0.328,3.457-1.216C718.378,183.637,717.65,183.667,717.535,183.943z"/>
		</g>
	</g>
	<g opacity="0.5">
		<path fill="#562F2F" d="M531.768,138.676c0,0.275-0.225,0.5-0.5,0.5h-43.219c-0.275,0-0.5-0.225-0.5-0.5v-6.5    c0-0.275,0.225-0.5,0.5-0.5h43.219c0.275,0,0.5,0.225,0.5,0.5V138.676z"/>
	</g>
	<g opacity="0.5">
		<path fill="#562F2F" d="M531.768,158.811c0,0.275-0.225,0.5-0.5,0.5h-43.219c-0.275,0-0.5-0.225-0.5-0.5v-6.5    c0-0.275,0.225-0.5,0.5-0.5h43.219c0.275,0,0.5,0.225,0.5,0.5V158.811z"/>
	</g>
	<g opacity="0.5">
		<path fill="#562F2F" d="M531.768,178.947c0,0.275-0.225,0.5-0.5,0.5h-43.219c-0.275,0-0.5-0.225-0.5-0.5v-6.5    c0-0.275,0.225-0.5,0.5-0.5h43.219c0.275,0,0.5,0.225,0.5,0.5V178.947z"/>
	</g>
	<g opacity="0.5">
		<path fill="#562F2F" d="M531.768,199.084c0,0.275-0.225,0.5-0.5,0.5h-43.219c-0.275,0-0.5-0.225-0.5-0.5v-6.502    c0-0.275,0.225-0.5,0.5-0.5h43.219c0.275,0,0.5,0.225,0.5,0.5V199.084z"/>
	</g>
	<g opacity="0.5">
		<path fill="#562F2F" d="M531.768,219.219c0,0.275-0.225,0.5-0.5,0.5h-43.219c-0.275,0-0.5-0.225-0.5-0.5v-6.5    c0-0.275,0.225-0.5,0.5-0.5h43.219c0.275,0,0.5,0.225,0.5,0.5V219.219z"/>
	</g>
	<g opacity="0.5">
		<path fill="#562F2F" d="M531.768,239.355c0,0.275-0.225,0.5-0.5,0.5h-43.219c-0.275,0-0.5-0.225-0.5-0.5v-6.5    c0-0.275,0.225-0.5,0.5-0.5h43.219c0.275,0,0.5,0.225,0.5,0.5V239.355z"/>
	</g>
	<g opacity="0.5">
		<path fill="#562F2F" d="M531.768,259.492c0,0.275-0.225,0.5-0.5,0.5h-43.219c-0.275,0-0.5-0.225-0.5-0.5v-6.502    c0-0.275,0.225-0.5,0.5-0.5h43.219c0.275,0,0.5,0.225,0.5,0.5V259.492z"/>
	</g>
	<g opacity="0.5">
		<path fill="#562F2F" d="M531.768,279.627c0,0.275-0.225,0.5-0.5,0.5h-43.219c-0.275,0-0.5-0.225-0.5-0.5v-6.5    c0-0.275,0.225-0.5,0.5-0.5h43.219c0.275,0,0.5,0.225,0.5,0.5V279.627z"/>
	</g>
	<g opacity="0.5">
		<path fill="#562F2F" d="M531.768,299.762c0,0.275-0.225,0.5-0.5,0.5h-43.219c-0.275,0-0.5-0.225-0.5-0.5v-6.498    c0-0.275,0.225-0.5,0.5-0.5h43.219c0.275,0,0.5,0.225,0.5,0.5V299.762z"/>
	</g>
	<g opacity="0.5">
		<path fill="#562F2F" d="M531.768,319.898c0,0.275-0.225,0.5-0.5,0.5h-43.219c-0.275,0-0.5-0.225-0.5-0.5v-6.5    c0-0.275,0.225-0.5,0.5-0.5h43.219c0.275,0,0.5,0.225,0.5,0.5V319.898z"/>
	</g>
	<g>
		<circle fill="#FFFFFF" cx="710.525" cy="115.52" r="5.23"/>
		<g>
			<path fill="#562F2F" d="M715.394,115.617c-0.19,3.535-3.617,6.133-7.168,4.293c-1.671-0.866-2.473-2.702-2.568-4.488     c-0.196-3.638,3.993-5.938,7.168-4.294C714.497,111.994,715.298,113.831,715.394,115.617c0.008,0.143,0.736,0.017,0.725-0.194     c-0.383-7.112-10.814-6.702-11.186,0.194c-0.381,7.088,10.815,6.688,11.186-0.194     C716.125,115.302,715.405,115.394,715.394,115.617z"/>
		</g>
	</g>
	<g>
		<polygon fill="#FFFFFF" points="701.051,120.52 686.736,139.963 716.545,139.963   "/>
		<g>
			<path fill="#562F2F" d="M700.719,120.532c-4.771,6.481-9.543,12.962-14.314,19.443c-0.099,0.134,0.085,0.159,0.182,0.159     c9.937,0,19.873,0,29.809,0c0.098,0,0.634-0.122,0.489-0.303c-5.164-6.481-10.329-12.962-15.494-19.443     c-0.128-0.161-0.821,0.083-0.678,0.263c4.433,5.563,8.865,11.125,13.298,16.688c0.69,0.867,1.381,1.733,2.071,2.6     c0.162,0.203,0.937-0.147,0.234-0.147c-0.521,0-1.04,0-1.56,0c-4.156,0-8.313,0-12.469,0c-4.1,0-8.2,0-12.301,0     c-2.922,0-3.341,0.733-1.575-1.665c4.324-5.873,8.647-11.746,12.972-17.619C701.55,120.281,700.835,120.374,700.719,120.532z"/>
		</g>
	</g>
	<g>
		<polygon fill="#FFFFFF" points="687.279,123.68 675.289,139.963 700.254,139.963   "/>
		<g>
			<path fill="#562F2F" d="M686.978,123.578c-3.997,5.428-7.993,10.855-11.99,16.283c-0.168,0.228,0.047,0.359,0.268,0.359     c8.321,0,16.644,0,24.965,0c0.168,0,0.532-0.208,0.366-0.416c-4.325-5.428-8.649-10.855-12.975-16.283     c-0.2-0.251-0.891,0.031-0.664,0.315c3.649,4.58,7.298,9.159,10.947,13.739c0.627,0.787,1.254,1.574,1.882,2.361     c0.014,0.017,0.685-0.232-0.671-0.232c-3.438,0-6.877,0-10.315,0c-3.538,0-7.075,0-10.613,0c-0.885,0-1.769,0-2.653,0     c-0.336,0,0.002,0.448,0.211,0.165c0.343-0.467,0.687-0.933,1.03-1.399c3.605-4.896,7.211-9.793,10.816-14.689     C687.854,123.412,687.168,123.319,686.978,123.578z"/>
		</g>
	</g>
	<g>
		<circle fill="#FFFFFF" cx="616.062" cy="115.52" r="5.231"/>
		<g>
			<path fill="#562F2F" d="M620.931,115.617c-0.19,3.538-3.613,6.137-7.168,4.295c-1.672-0.866-2.475-2.703-2.57-4.49     c-0.196-3.64,3.99-5.942,7.169-4.296C620.033,111.992,620.835,113.83,620.931,115.617c0.007,0.131,0.735,0.008,0.725-0.194     c-0.383-7.107-10.816-6.693-11.188,0.194c-0.381,7.084,10.817,6.679,11.188-0.194     C621.661,115.314,620.942,115.401,620.931,115.617z"/>
		</g>
	</g>
	<g>
		<polygon fill="#FFFFFF" points="606.586,120.52 592.273,139.963 622.082,139.963   "/>
		<g>
			<path fill="#562F2F" d="M606.244,120.497c-4.771,6.481-9.541,12.962-14.313,19.443c-0.104,0.142,0.088,0.255,0.208,0.255     c9.937,0,19.872,0,29.809,0c0.142,0,0.66-0.141,0.468-0.382c-5.165-6.481-10.33-12.962-15.496-19.443     c-0.178-0.223-0.873,0.043-0.668,0.3c4.434,5.563,8.866,11.125,13.3,16.688c0.69,0.866,1.381,1.733,2.072,2.6     c0.156,0.196,0.911-0.226,0.212-0.226c-0.52,0-1.04,0-1.56,0c-4.156,0-8.312,0-12.468,0c-4.101,0-8.201,0-12.301,0     c-0.977,0-1.953,0-2.929,0c0.183,0,0.817-0.808,1.379-1.569c4.323-5.873,8.646-11.746,12.97-17.619     C607.142,120.252,606.403,120.28,606.244,120.497z"/>
		</g>
	</g>
	<g>
		<polygon fill="#FFFFFF" points="592.814,123.68 580.826,139.963 605.791,139.963   "/>
		<g>
			<path fill="#562F2F" d="M592.457,123.741c-3.996,5.428-7.992,10.855-11.988,16.283c-0.05,0.067,0.095,0.092,0.124,0.092     c8.321,0,16.644,0,24.965,0c0.089,0,0.715-0.103,0.574-0.279c-4.325-5.428-8.651-10.855-12.977-16.283     c-0.114-0.144-0.802,0.1-0.682,0.251c3.649,4.58,7.3,9.16,10.949,13.739c0.627,0.787,1.255,1.574,1.882,2.361     c0.157,0.197,1.029-0.097-0.463-0.097c-3.438,0-6.877,0-10.315,0c-3.538,0-7.075,0-10.613,0c-2.517,0-3.142,0.653-1.556-1.501     c3.605-4.896,7.21-9.793,10.814-14.689C593.231,123.538,592.586,123.566,592.457,123.741z"/>
		</g>
	</g>
	<g>
		<circle fill="#FFFFFF" cx="616.062" cy="251.934" r="5.231"/>
		<g>
			<path fill="#562F2F" d="M620.927,251.963c-0.157,2.918-2.28,5.077-5.308,4.914c-2.596-0.14-4.294-2.584-4.423-4.973     c-0.158-2.934,2.548-5.064,5.309-4.916C619.102,247.128,620.798,249.574,620.927,251.963c0.02,0.373,0.749,0.251,0.732-0.06     c-0.385-7.154-10.815-6.998-11.195,0.06c-0.158,2.932,2.668,5.614,5.564,5.458c3.116-0.168,5.461-2.36,5.631-5.518     C621.68,251.535,620.943,251.646,620.927,251.963z"/>
		</g>
	</g>
	<g>
		<polygon fill="#FFFFFF" points="606.586,256.934 592.273,276.377 622.082,276.377   "/>
		<g>
			<path fill="#562F2F" d="M606.246,256.917c-4.771,6.481-9.541,12.962-14.313,19.443c-0.104,0.141,0.087,0.236,0.203,0.236     c9.936,0,19.872,0,29.809,0c0.133,0,0.656-0.135,0.472-0.367c-5.165-6.481-10.33-12.962-15.496-19.443     c-0.167-0.21-0.864,0.049-0.67,0.293c4.434,5.563,8.866,11.125,13.3,16.688c0.69,0.866,1.381,1.733,2.072,2.599     c0.157,0.197,0.916-0.21,0.216-0.21c-0.52,0-1.039,0-1.56,0c-4.156,0-8.312,0-12.468,0c-4.101,0-8.201,0-12.301,0     c-0.977,0-1.953,0-2.929,0c0.171,0,0.84-0.863,1.374-1.588c4.323-5.873,8.646-11.746,12.97-17.619     C607.132,256.67,606.396,256.713,606.246,256.917z"/>
		</g>
	</g>
	<g>
		<polygon fill="#FFFFFF" points="592.814,260.092 580.826,276.377 605.791,276.377   "/>
		<g>
			<path fill="#562F2F" d="M592.51,259.98c-3.996,5.429-7.992,10.857-11.988,16.285c-0.168,0.229,0.049,0.382,0.274,0.382     c8.321,0,16.643,0,24.965,0c0.178,0,0.53-0.22,0.361-0.432c-4.325-5.428-8.651-10.857-12.977-16.285     c-0.21-0.264-0.898,0.026-0.662,0.322c3.649,4.58,7.299,9.161,10.949,13.741c0.627,0.787,1.254,1.574,1.882,2.362     c-0.001-0.001,0.69-0.25-0.676-0.25c-3.438,0-6.877,0-10.314,0c-3.538,0-7.076,0-10.614,0c-0.884,0-1.769,0-2.653,0     c-0.342,0,0.002,0.479,0.217,0.188c0.344-0.466,0.688-0.933,1.03-1.399c3.605-4.897,7.21-9.794,10.815-14.691     C593.394,259.83,592.711,259.707,592.51,259.98z"/>
		</g>
	</g>
	<g>
		<circle fill="#FFFFFF" cx="711.858" cy="251.934" r="5.231"/>
		<g>
			<path fill="#562F2F" d="M716.728,251.979c-0.165,3.064-2.492,5.402-5.771,4.868c-2.198-0.358-3.604-2.393-3.938-4.441     c-0.534-3.28,2.613-5.897,5.738-5.389c2.425,0.395,3.848,2.748,3.97,5.013c0.013,0.232,0.739,0.083,0.725-0.194     c-0.382-7.102-10.813-6.796-11.188,0.143c-0.383,7.122,10.813,6.856,11.188-0.092     C717.468,251.592,716.74,251.739,716.728,251.979z"/>
		</g>
	</g>
	<g>
		<polygon fill="#FFFFFF" points="702.383,256.934 688.068,276.377 717.879,276.377   "/>
		<g>
			<path fill="#562F2F" d="M702.082,256.834c-4.771,6.481-9.543,12.962-14.314,19.443c-0.168,0.228,0.047,0.354,0.266,0.354     c9.938,0,19.874,0,29.811,0c0.165,0,0.532-0.205,0.367-0.412c-5.165-6.481-10.33-12.962-15.496-19.443     c-0.197-0.248-0.889,0.032-0.664,0.313c4.433,5.563,8.866,11.125,13.3,16.688c0.69,0.866,1.381,1.733,2.071,2.6     c0.14,0.175,0.767-0.256,0.112-0.256c-0.521,0-1.04,0-1.56,0c-4.156,0-8.313,0-12.47,0c-4.101,0-8.2,0-12.302,0     c-0.976,0-1.952,0-2.929,0c0.298,0,0.714-0.487,1.438-1.47c4.323-5.873,8.647-11.746,12.971-17.619     C702.955,256.664,702.27,256.579,702.082,256.834z"/>
		</g>
	</g>
	<g>
		<polygon fill="#FFFFFF" points="688.611,260.092 676.623,276.377 701.588,276.377   "/>
		<g>
			<path fill="#562F2F" d="M688.28,260.107c-3.996,5.428-7.992,10.856-11.988,16.285c-0.098,0.133,0.084,0.151,0.18,0.151     c8.321,0,16.644,0,24.965,0c0.094,0,0.63-0.122,0.491-0.296c-4.326-5.428-8.651-10.857-12.977-16.285     c-0.124-0.156-0.816,0.088-0.68,0.26c3.65,4.58,7.3,9.16,10.949,13.741c0.627,0.787,1.255,1.574,1.882,2.361     c0.134,0.168,0.857-0.113-0.546-0.113c-3.438,0-6.877,0-10.315,0c-3.538,0-7.075,0-10.613,0c-2.597,0-3.074,0.696-1.5-1.442     c3.604-4.897,7.21-9.794,10.814-14.691C689.104,259.857,688.394,259.953,688.28,260.107z"/>
		</g>
	</g>
	<g>
		<g>
			<g>
				<path fill="#562F2F" d="M502.851,359.38c1.88-0.065,3.524-1.039,4.459-2.678c1.066-1.868,0.204-3.764-1.737-4.463      c-1.512-0.545-3.835-0.97-4.913,0.563c-0.683,0.972-0.689,2.597-0.265,3.654c0.43,1.07,1.702,1.787,2.445,2.621      c0.135,0.152,0.818-0.103,0.68-0.258c-1.093-1.228-2.521-1.975-2.666-3.758c-0.075-0.918,0.146-2.151,0.897-2.771      c0.74-0.611,2.448,0.029,3.232,0.252c4.034,1.147,1.404,6.394-1.83,6.507C502.938,359.058,502.366,359.397,502.851,359.38      L502.851,359.38z"/>
			</g>
		</g>
		<g>
			<g>
				<path fill="#562F2F" d="M513.298,349.362c-0.115-1.843-1.907-0.79-2.704-0.015c-0.904,0.881-0.871,2.273-0.867,3.438      c0.007,2.332-0.004,4.665,0.006,6.998c0.002,0.35,0.731,0.216,0.73-0.07c-0.01-2.13-0.067-4.258,0-6.387      c0.026-0.856-0.011-1.681,0.103-2.534c0.1-0.74,1.906-2.852,2.008-1.236C512.592,349.845,513.317,349.682,513.298,349.362      L513.298,349.362z"/>
			</g>
		</g>
		<g>
			<g>
				<path fill="#562F2F" d="M518.769,349.749c-1.353-1.394-2.805-1.494-3.814,0.293c-0.521,0.923-0.78,2.279-0.692,3.32      c0.157,1.879,1.19,4.315-0.205,5.939c-0.294,0.342,0.403,0.409,0.598,0.182c1.082-1.259,0.856-2.809,0.605-4.344      c-0.185-1.131-0.325-2.172-0.153-3.316c0.252-1.667,1.278-3.537,2.996-1.768C518.313,350.273,519.002,349.989,518.769,349.749      L518.769,349.749z"/>
			</g>
		</g>
		<g>
			<g>
				<path fill="#562F2F" d="M507.934,354.237c3.4,0,6.801,0,10.201,0c0.406,0,0.563-0.51,0.07-0.51c-3.4,0-6.801,0-10.201,0      C507.598,353.728,507.441,354.237,507.934,354.237L507.934,354.237z"/>
			</g>
		</g>
	</g>
</g>


<g class="p6_bg" opacity="0.4">
	<g >
			<path opacity="0.4" fill="#552E2E" d="M36.813,32.231c-7.47,0-14.939,0-22.409,0c0.333,0,0.167-20.023,0.167-22.334     c0,0.301-0.848,0.224,0.182,0.224c0.83,0,1.659,0,2.488,0c2.386,0,4.773,0,7.16,0c4.022,0,8.045,0,12.067,0     c-0.333,0-0.167,20.057-0.167,22.38c0,0.168,0.725,0.048,0.725-0.194c0-7.485,0-14.971,0-22.456c0-0.078-0.172-0.076-0.213-0.076     c-7.485,0-14.97,0-22.455,0c-0.142,0-0.512,0.077-0.512,0.27c0,7.485,0,14.971,0,22.456c0,0.078,0.172,0.076,0.213,0.076     c7.485,0,14.97,0,22.455,0C36.743,32.577,37.3,32.231,36.813,32.231z"/>
		
			<path opacity="0.4" fill="#552E2E" d="M70.588,67.642c-7.47,0-14.94,0-22.41,0c0.157,0,0.079-20.192,0.079-22.369     c0,0.247-1.017,0.189,0.094,0.189c0.83,0,1.659,0,2.488,0c2.387,0,4.773,0,7.16,0c4.022,0,8.045,0,12.068,0     c-0.157,0-0.079,20.226-0.079,22.415c0,0.096,0.725-0.002,0.725-0.194c0-7.485,0-14.971,0-22.456     c0-0.042-0.108-0.041-0.125-0.041c-7.485,0-14.971,0-22.456,0c-0.115,0-0.6,0.063-0.6,0.235c0,7.485,0,14.971,0,22.456     c0,0.042,0.108,0.041,0.125,0.041c7.485,0,14.971,0,22.456,0C70.253,67.918,70.934,67.642,70.588,67.642z"/>
	</g>	
</g>
<g class="p6_bub1">
	<g>
		<path fill="#F3F1AE" d="M350.599,486.608c0,7.408-6.011,13.424-13.429,13.424s-13.424-6.016-13.424-13.424    c0-7.423,6.006-13.435,13.424-13.435S350.599,479.186,350.599,486.608z"/>
	</g>
	<g>
		<g>
			<path fill="#562F2F" d="M348.882,487.702c-0.401,7.944-6.517,13.975-14.962,12.686c-5.782-0.883-9.55-6.202-10.375-11.609     c-1.293-8.477,6.793-15.208,14.886-13.973c6.329,0.966,10.149,7.06,10.448,12.989c0.021,0.409,1.475,0.127,1.449-0.389     c-0.91-18.036-27.407-17.382-28.299,0.296c-0.425,8.435,7.521,14.021,15.229,13.632c7.364-0.372,12.711-6.787,13.067-13.835     C350.353,486.956,348.904,487.267,348.882,487.702z"/>
		</g>
	</g>
</g>
<g class="p6_bub2">
	<g>
		<path fill="#F3F1AE" d="M62.291,214.363c0,7.409-6.013,13.426-13.43,13.426c-7.414,0-13.424-6.017-13.424-13.426    c0-7.421,6.01-13.432,13.424-13.432C56.279,200.932,62.291,206.942,62.291,214.363z"/>
	</g>
	<g>
		<g>
			<path fill="#562F2F" d="M60.564,215.416c-0.383,7.592-5.978,13.183-13.815,12.787c-6.748-0.341-11.257-6.65-11.573-12.906     c-0.385-7.626,6.635-13.152,13.809-12.79C55.738,202.848,60.248,209.156,60.564,215.416c0.038,0.746,1.497,0.502,1.466-0.119     c-0.916-18.13-27.413-17.838-28.319,0.119c-0.375,7.433,6.727,14.254,14.088,13.882c7.884-0.398,13.828-6.026,14.231-14.001     C62.067,214.559,60.596,214.783,60.564,215.416z"/>
		</g>
	</g>
</g>
<g class="p6_build">
	<g>
		<polygon fill="#FBD3D5" points="219.653,539.098 167.487,539.098 171.213,355.139 215.926,355.139   "/>
	</g>
	<g>
		<g>
			<path fill="#562F2F" d="M218.169,540.542c-12.079,0-24.159,0-36.238,0c-5.18,0-10.36,0-15.54,0c-0.551,0,0.309,1.178,0.332,0.069     c0.019-0.915,0.037-1.831,0.056-2.746c0.491-24.245,0.982-48.49,1.474-72.735c0.729-35.969,1.457-71.938,2.186-107.905     c-0.495,0.279-0.991,0.559-1.486,0.839c12.324,0,24.648,0,36.973,0c2.252,0,4.505,0,6.757,0c1.531,0,0.268-0.986,0.285-0.188     c0.046,2.269,0.092,4.537,0.138,6.806c0.538,26.574,1.077,53.148,1.615,79.724c0.655,32.325,1.31,64.651,1.965,96.977     c0.022,1.084,2.212,0.701,2.193-0.195c-1.011-49.933-2.023-99.864-3.034-149.797c-0.231-11.388-0.461-22.776-0.692-34.164     c-0.008-0.387-0.314-0.644-0.708-0.644c-14.904,0-29.809,0-44.713,0c-0.464,0-1.473,0.189-1.486,0.839     c-1.012,49.933-2.023,99.864-3.035,149.797c-0.23,11.388-0.461,22.776-0.692,34.164c-0.008,0.388,0.326,0.644,0.708,0.644     c17.389,0,34.777,0,52.166,0C218.366,542.024,219.638,540.542,218.169,540.542z"/>
		</g>
	</g>
	<g>
		<g>
			<path fill="#562F2F" d="M204.542,540.865c-6.104,0-12.209,0-18.313,0c-1.339,0-2.679,0-4.019,0c-1.238,0-0.784-0.119-0.792,0.267     c0.022-1.08,0.044-2.16,0.066-3.24c0.275-13.582,0.551-27.165,0.826-40.747c0.254-12.518,0.508-25.036,0.762-37.555     c0.008-0.42,0.017-0.84,0.025-1.261c0.013-0.64-1.604,0.257-0.469,0.257c3.354,0,6.707,0,10.06,0c3.027,0,6.055,0,9.082,0     c0.809,0,0.083-0.395,0.092,0.026c0.01,0.522,0.021,1.045,0.032,1.567c0.548,27.1,1.096,54.198,1.645,81.298     c0.01,0.47,1.46,0.183,1.449-0.389c-0.561-27.705-1.121-55.41-1.682-83.115c-0.004-0.175-0.33-0.224-0.445-0.224     c-6.734,0-13.469,0-20.203,0c-0.255,0-0.997,0.133-1.005,0.507c-0.562,27.705-1.124,55.41-1.686,83.115     c-0.005,0.247,0.223,0.329,0.445,0.329c7.857,0,15.713,0,23.57,0C204.533,541.701,205.522,540.865,204.542,540.865z"/>
		</g>
	</g>
	<g>
		<polygon fill="#86F7CB" points="215.227,384.514 170.514,384.514 159.336,370.365 226.406,370.365   "/>
	</g>
	<g>
		<g>
			<path fill="#562F2F" d="M214.289,384.056c-11.518,0-23.037,0-34.555,0c-2.672,0-5.345,0-8.017,0c-1.759,0-1.682,0.258-2.44-0.701     c-3.519-4.455-7.038-8.91-10.557-13.365c-0.574,0.278-1.149,0.557-1.723,0.834c15.553,0,31.107,0,46.661,0     c6.644,0,13.287,0,19.931,0c0.716,0,0.178-0.369-0.428,0.397c-1.26,1.595-2.52,3.189-3.78,4.784     c-2.26,2.86-4.519,5.721-6.778,8.58c-0.453,0.573,1.644,0.273,1.973-0.143c3.726-4.716,7.452-9.433,11.178-14.148     c0.201-0.255-0.003-0.387-0.286-0.387c-22.356,0-44.712,0-67.068,0c-0.267,0-2.138,0.308-1.723,0.834     c3.519,4.454,7.038,8.909,10.557,13.364c1.636,2.071,7.112,0.866,9.463,0.866c12.064,0,24.128,0,36.193,0     C213.36,384.972,215.37,384.056,214.289,384.056z"/>
		</g>
	</g>
	<g>
		<g>
			<path fill="#562F2F" d="M174.97,458.693c11.573,0,23.147,0,34.721,0c0.824,0,1.115-1.051,0.131-1.051     c-11.573,0-23.147,0-34.721,0C174.277,457.643,173.986,458.693,174.97,458.693L174.97,458.693z"/>
		</g>
	</g>
	<g>
		<g>
			<path fill="#562F2F" d="M191.661,458.217c0,8.446,0,16.894,0,25.34c0,0.786,1.472,0.587,1.472-0.098c0-8.446,0-16.894,0-25.34     C193.133,457.333,191.661,457.532,191.661,458.217L191.661,458.217z"/>
		</g>
	</g>
	<g>
		<g>
			<path fill="#562F2F" d="M191.671,508.781c0,10.862,0,21.725,0,32.586c0,0.638,1.452,0.338,1.452-0.168     c0-10.862,0-21.725,0-32.586C193.123,507.976,191.671,508.275,191.671,508.781L191.671,508.781z"/>
		</g>
	</g>
	<g>
		<g>
			<path fill="#562F2F" d="M190.979,370.56c0,6.209,0,12.419,0,18.629c0,0.439,1.449,0.168,1.449-0.389c0-6.209,0-12.419,0-18.629     C192.428,369.731,190.979,370.003,190.979,370.56L190.979,370.56z"/>
		</g>
	</g>
	<g>
		<g>
			<path fill="#562F2F" d="M205.886,370.489c-1.104,3.781-2.207,7.563-3.311,11.344c-0.869,2.977-0.828,5.45-0.828,8.598     c0,0.259,1.449,0.043,1.449-0.389c0-3.357,0.066-5.909,0.997-9.098c1.041-3.567,2.082-7.136,3.123-10.703     C207.411,369.919,205.996,370.112,205.886,370.489L205.886,370.489z"/>
		</g>
	</g>
	<g>
		<g>
			<path fill="#562F2F" d="M176.084,370.56c1.041,3.567,2.082,7.135,3.122,10.702c0.926,3.176,1,5.701,1,9.048     c0,0.688,1.458,0.414,1.458-0.146c0-3.157,0.049-5.659-0.823-8.648c-1.103-3.781-2.206-7.563-3.309-11.344     C177.362,369.582,175.915,369.978,176.084,370.56L176.084,370.56z"/>
		</g>
	</g>
	<g>
		<path fill="#F3F1AE" d="M219.698,423.092c0,14.473-11.736,26.211-26.209,26.211s-26.211-11.738-26.211-26.211    c0-14.48,11.738-26.211,26.211-26.211S219.698,408.611,219.698,423.092z"/>
	</g>
	<g>
		<g>
			<path fill="#562F2F" d="M217.877,423.165c-0.381,14.583-11.848,26.019-26.605,25.633c-13.758-0.359-24.012-12.575-24.356-25.779     c-0.381-14.604,12.438-26.003,26.607-25.633C207.283,397.744,217.532,409.959,217.877,423.165     c0.018,0.689,1.473,0.41,1.458-0.146c-0.375-14.392-11.98-26.991-26.856-26.603c-14.841,0.387-26.632,11.807-27.022,26.749     c-0.376,14.41,12.542,26.977,26.858,26.603c14.842-0.388,26.63-11.811,27.02-26.749     C219.353,422.334,217.891,422.601,217.877,423.165z"/>
		</g>
	</g>
	<g>
		<path fill="#E5DFDF" d="M209.756,423.092c0,9.586-7.771,17.363-17.359,17.363s-17.361-7.777-17.361-17.363    c0-9.592,7.773-17.359,17.361-17.359S209.756,413.5,209.756,423.092z"/>
		<g>
			<path fill="#FFFFFF" d="M208.307,423.48c-0.417,10.84-9.892,19.234-21.001,15.254c-6.727-2.41-10.559-9.191-10.822-16.031     c-0.424-11.022,10.697-18.94,21.002-15.252C204.216,409.86,208.044,416.641,208.307,423.48c0.016,0.412,2.926-0.033,2.897-0.777     c-0.914-23.743-36.738-22.103-37.618,0.777c-0.437,11.336,10.547,18.498,20.854,17.302c9.374-1.089,16.404-8.716,16.764-18.079     C211.219,422.357,208.338,422.692,208.307,423.48z"/>
		</g>
	</g>
	<g>
		<path fill="#FFFFFF" d="M197.33,496.34c0,2.723-2.209,4.936-4.934,4.936c-2.727,0-4.936-2.213-4.936-4.936    c0-2.729,2.209-4.938,4.936-4.938C195.121,491.402,197.33,493.611,197.33,496.34z"/>
	</g>
</g>
<g class="p6_static">
	<g>
		<g>
			<g>
				<path fill="#562F2F" d="M286.413,506.289c0,15.785,0,31.569,0,47.354c0,0.575,4.347-0.011,4.347-1.164      c0-15.785,0-31.569,0-47.354C290.76,504.55,286.413,505.136,286.413,506.289L286.413,506.289z"/>
			</g>
		</g>
		<g>
			<path fill="#86F7CB" d="M301.916,451.281c0,5.711-4.627,10.34-10.34,10.34c-5.707,0-10.338-4.629-10.338-10.34     c0-5.713,4.631-10.338,10.338-10.338C297.289,440.943,301.916,445.568,301.916,451.281z"/>
		</g>
		<g>
			<path fill="#86F7CB" d="M313.934,484.195c0,12.348-10.012,22.359-22.357,22.359s-22.357-10.012-22.357-22.359     c0-12.344,10.012-22.357,22.357-22.357S313.934,471.852,313.934,484.195z"/>
		</g>
		<g>
			<g>
				<path fill="#562F2F" d="M298.199,451.476c-0.382,7.105-7.215,12.073-14.149,8.479c-3.302-1.711-4.887-5.337-5.077-8.867      c-0.393-7.298,7.902-11.715,14.152-8.478C296.427,444.319,298.01,447.946,298.199,451.476c0.017,0.307,1.473,0.05,1.449-0.389      c-0.757-14.081-21.391-13.243-22.125,0.389c-0.756,14.036,21.393,13.22,22.125-0.389      C299.663,450.823,298.224,451.016,298.199,451.476z"/>
			</g>
		</g>
		<g>
			<g>
				<path fill="#562F2F" d="M310.216,484.274c-0.374,12.465-10.047,22.169-22.721,21.79c-11.211-0.336-19.542-10.057-20.501-20.701      c-1.167-12.938,10.186-23.409,22.683-23.035c11.756,0.353,20.208,10.899,20.542,22.062c0.016,0.526,1.467,0.22,1.449-0.389      c-0.368-12.255-10.326-22.987-22.995-22.607c-12.721,0.381-22.788,10.045-23.172,22.881      c-0.369,12.319,10.78,23.091,22.998,22.725c12.723-0.381,22.788-10.047,23.172-22.883      C311.691,483.458,310.232,483.737,310.216,484.274z"/>
			</g>
		</g>
	</g>
	<g>
		<g>
			<g>
				<path fill="#562F2F" d="M103.698,506.289c0,15.785,0,31.569,0,47.354c0,0.575,4.347-0.011,4.347-1.164      c0-15.785,0-31.569,0-47.354C108.045,504.55,103.698,505.136,103.698,506.289L103.698,506.289z"/>
			</g>
		</g>
		<g>
			<path fill="#86F7CB" d="M119.201,451.281c0,5.711-4.625,10.34-10.338,10.34c-5.709,0-10.338-4.629-10.338-10.34     c0-5.713,4.629-10.338,10.338-10.338C114.576,440.943,119.201,445.568,119.201,451.281z"/>
		</g>
		<g>
			<path fill="#86F7CB" d="M131.221,484.195c0,12.348-10.01,22.359-22.357,22.359c-12.346,0-22.357-10.012-22.357-22.359     c0-12.344,10.012-22.357,22.357-22.357C121.211,461.838,131.221,471.852,131.221,484.195z"/>
		</g>
		<g>
			<g>
				<path fill="#562F2F" d="M115.476,451.332c-0.311,5.776-4.514,10.01-10.484,9.688c-5.114-0.275-8.468-5.068-8.722-9.789      c-0.312-5.804,5.041-9.979,10.481-9.686C111.868,441.82,115.222,446.608,115.476,451.332c0.042,0.779,1.506,0.565,1.47-0.102      c-0.762-14.16-21.393-13.893-22.146,0.102c-0.312,5.794,5.273,11.144,11.011,10.835c6.173-0.332,10.799-4.693,11.135-10.937      C116.988,450.457,115.512,450.655,115.476,451.332z"/>
			</g>
		</g>
		<g>
			<g>
				<path fill="#562F2F" d="M127.505,484.279c-0.374,12.465-10.035,22.181-22.719,21.801c-11.21-0.336-19.545-10.078-20.504-20.717      c-1.166-12.937,10.168-23.426,22.677-23.051c11.755,0.353,20.214,10.919,20.548,22.077c0.015,0.5,1.467,0.201,1.449-0.389      c-0.396-13.209-11.055-22.949-24.17-22.557c-12.258,0.368-21.639,10.928-21.996,22.835      c-0.398,13.274,11.549,23.047,24.168,22.669c12.26-0.368,21.643-10.928,21.999-22.837      C128.976,483.477,127.52,483.766,127.505,484.279z"/>
			</g>
		</g>
	</g>
	<g xmlns="http://www.w3.org/2000/svg">
		<g>
			<g>
				<path fill="#C6EDF6" d="M292.601,374.088c0,1.203-0.982,2.186-2.184,2.186h-22.645c-1.203,0-2.186-0.982-2.186-2.186v-5.877     c0-1.201,0.982-2.184,2.186-2.184h22.645c1.201,0,2.184,0.982,2.184,2.184V374.088z"/>
			</g>
			<g>
				<g>
					<path fill="#562F2F" d="M290.774,374.688c-0.66,2.428-4.36,1.598-6.112,1.598c-3.507,0-7.014,0-10.521,0c-2.3,0-4.601,0-6.902,0      c-2.928,0-2.012-5.799-2.012-7.582c0-3.047,14.769-1.598,16.633-1.598c2.3,0,4.601,0,6.902,0      C291.69,367.106,290.774,372.905,290.774,374.688c0,0.767,1.469,0.55,1.469-0.107c0-1.582,1.009-7.544-1.402-8.2      c-2.535-0.69-5.318-0.343-7.926-0.343c-4.563,0-9.126,0-13.689,0c-2.561,0-4.676-0.131-5.467,2.773      c-0.379,1.393-0.749,7.616,1.402,8.201c2.535,0.689,5.318,0.342,7.926,0.342c4.563,0,9.126,0,13.689,0      c2.561,0,4.677,0.131,5.467-2.773C292.433,373.883,290.948,374.051,290.774,374.688z"/>
				</g>
			</g>
		</g>
		<g>
			<path fill="#C6EDF6" d="M109.58,378.466c0,1.201-0.982,2.184-2.186,2.184H71.709c-1.201,0-2.186-0.982-2.186-2.184v-5.879    c0-1.201,0.984-2.184,2.186-2.184h35.686c1.203,0,2.186,0.982,2.186,2.184V378.466z"/>
		</g>
		<g>
			<g>
				<path fill="#562F2F" d="M118.175,356.786c-0.724,2.659-3.568,1.767-5.724,1.767c-3.507,0-7.014,0-10.52,0     c-2.301,0-4.602,0-6.902,0c-3.465,0-2.431-5.768-2.431-7.767c0-3.631,13.838-1.905,16.233-1.905c2.392,0,4.783,0,7.174,0     c3.175,0,2.159,6.262,2.159,7.969c0,0.218,1.449,0.015,1.449-0.389c0-2.188,1.191-8.156-2.438-8.156c-3.111,0-6.223,0-9.333,0     c-4.148,0-8.296,0-12.445,0c-2.064,0-3.646,0.425-4.238,2.604c-0.711,2.618-0.683,7.395,2.303,8.207     c2.453,0.667,5.963,0.013,8.481,0.013c4.321,0,8.642,0,12.963,0c2.181,0,4.04-0.195,4.696-2.604     C119.68,356.241,118.271,356.432,118.175,356.786z"/>
			</g>
		</g>
		<g>
			<path fill="#C6EDF6" d="M300.44,362.789c0,0.602-0.492,1.094-1.094,1.094h-17.375c-0.602,0-1.092-0.492-1.092-1.094v-5.232    c0-0.602,0.49-1.092,1.092-1.092h17.375c0.602,0,1.094,0.49,1.094,1.092V362.789z"/>
		</g>
		<g>
			<g>
				<path fill="#562F2F" d="M131.869,361.379c-0.744,1.788-10.205,0.635-12.038,0.635c-1.835,0-3.67,0-5.505,0     c-1.055,0-0.587-4.939-0.587-5.699c0-1.259,11.403-0.613,12.709-0.613c1.641,0,3.281,0,4.921,0c0.845,0,0.46,5.181,0.46,5.821     c0,0.786,1.472,0.586,1.472-0.098c0-1.299,0.78-5.463-0.502-6.387c-1.361-0.982-4.042-0.444-5.549-0.444     c-3.555,0-7.109,0-10.664,0c-1.77,0-3.488-0.354-4.279,1.553c-0.502,1.208-0.494,5.255,0.355,6.425     c0.789,1.088,3.998,0.55,5,0.55c3.581,0,7.162,0,10.743,0c1.881,0,4.004,0.496,4.856-1.553     C133.588,360.781,132.128,360.755,131.869,361.379z"/>
			</g>
		</g>
		<g>
			<g>
				<path fill="#C6EDF6" d="M239.18,344.148c0,1.201-0.984,2.184-2.186,2.184h-35.686c-1.203,0-2.186-0.982-2.186-2.184v-5.879     c0-1.199,0.982-2.184,2.186-2.184h35.686c1.201,0,2.186,0.984,2.186,2.184V344.148z"/>
			</g>
			<g>
				<g>
					<path fill="#562F2F" d="M239.559,344.826c-0.802,2.951-5.359,1.771-7.729,1.771c-5.016,0-10.032,0-15.048,0      c-3.93,0-7.859,0-11.789,0c-4.72,0-4.052-4.055-4.052-7.773c0-3.127,5.898-1.912,7.718-1.912c5.016,0,10.032,0,15.048,0      c4.087,0,8.175,0,12.263,0c4.496,0,3.578,4.712,3.578,7.976c0,0.202,1.449,0.004,1.449-0.389c0-3.23,1.177-8.149-3.297-8.149      c-5.001,0-10.002,0-15.003,0c-5.726,0-11.452,0-17.178,0c-2.475,0-5.216-0.336-6.016,2.6c-0.75,2.755-0.752,8.211,2.983,8.211      c4.774,0,9.549,0,14.323,0c5.862,0,11.725,0,17.586,0c2.586,0,5.745,0.514,6.59-2.6      C241.057,344.294,239.653,344.479,239.559,344.826z"/>
				</g>
			</g>
		</g>
		<g>
			<g>
				<path fill="#562F2F" d="M299.21,363.834c-0.742,1.784-9.82,0.673-11.84,0.673c-1.835,0-3.67,0-5.505,0     c-1.384,0-0.803-4.924-0.803-5.81c0-1.381,10.976-0.673,12.507-0.673c1.641,0,3.281,0,4.922,0c1.189,0,0.673,5.171,0.673,5.932     c0,0.687,1.458,0.413,1.458-0.146c0-0.951,0.714-5.819-0.482-6.316c-1.857-0.771-4.055-0.404-6.038-0.404     c-3.501,0-7.003,0-10.505,0c-1.635,0-3.215-0.251-3.948,1.511c-0.461,1.108-0.543,5.306,0.336,6.355     c0.935,1.116,4.333,0.487,5.452,0.487c3.555,0,7.109,0,10.664,0c1.747,0,3.683,0.394,4.476-1.511     C300.875,363.215,299.423,363.323,299.21,363.834z"/>
			</g>
		</g>
		<g>
			<g>
				<path fill="#562F2F" d="M109.94,379.073c-0.743,2.734-6.168,1.62-8.111,1.62c-5.016,0-10.032,0-15.048,0c-3.93,0-7.86,0-11.79,0     c-4.421,0-3.643-4.104-3.643-7.622c0-3.244,20.871-1.62,23.161-1.62c3.93,0,7.86,0,11.79,0     C110.72,371.451,109.94,375.556,109.94,379.073c0,0.731,1.464,0.488,1.464-0.125c0-2.691,1.229-8.503-2.987-8.503     c-4.267,0-8.533,0-12.8,0c-6.08,0-12.159,0-18.239,0c-2.939,0-6.529-0.791-7.493,2.751c-0.702,2.582-0.756,8.503,2.989,8.503     c4.267,0,8.533,0,12.8,0c6.08,0,12.159,0,18.239,0c2.939,0,6.528,0.792,7.491-2.751     C111.583,378.287,110.104,378.471,109.94,379.073z"/>
			</g>
		</g>
	</g>
	<path fill="none" stroke="#FFFFFF" stroke-miterlimit="10" stroke-dasharray="10" d="M17.934,592.756h960.002"/>
	<rect x="-0.504" y="541.314" fill="#66BAED" stroke="#562F2F" stroke-miterlimit="10" width="195.229" height="99.684"/>
	<path fill="#66BAED" stroke="#562F2F" stroke-miterlimit="10" d="M53.908,542.051c0,0,267.121-0.646,274.41,0   C287.379,661.439,111.549,685.959,53.908,542.051z"/>
	<g>
		<g opacity="0.5">
			<g>
				<path fill="#FFFFFF" d="M140.493,576.326c12.797,0,25.594,0,38.391,0c1.923,0-0.17-4.453-1.985-4.453      c-12.797,0-25.594,0-38.391,0C136.584,571.873,138.678,576.326,140.493,576.326L140.493,576.326z"/>
			</g>
		</g>
		<g opacity="0.5">
			<g>
				<path fill="#FFFFFF" d="M140.656,614.166c12.797,0,25.594,0,38.391,0c2.12,0-0.88-3.816-2.312-3.816      c-12.797,0-25.594,0-38.391,0C136.224,610.35,139.225,614.166,140.656,614.166L140.656,614.166z"/>
			</g>
		</g>
		<g opacity="0.5">
			<g>
				<path fill="#FFFFFF" d="M211.664,576.435c12.797,0,25.594,0,38.391,0c2.26,0,0.563-4.67-1.457-4.67c-12.797,0-25.594,0-38.391,0      C207.947,571.765,209.644,576.435,211.664,576.435L211.664,576.435z"/>
			</g>
		</g>
		<g opacity="0.5">
			<g>
				<path fill="#FFFFFF" d="M170.54,593.513c12.796,0,25.592,0,38.389,0c1.454,0,3.791-1.514,4.58-1.514      c-12.796,0-25.592,0-38.389,0C173.666,591.999,171.33,593.513,170.54,593.513L170.54,593.513z"/>
			</g>
		</g>
		<g opacity="0.5">
			<g>
				<path fill="#FFFFFF" d="M214.587,613.957c12.797,0,25.594,0,38.391,0c3.314,0,1.893-3.398-0.79-3.398      c-12.797,0-25.594,0-38.391,0C210.482,610.559,211.904,613.957,214.587,613.957L214.587,613.957z"/>
			</g>
		</g>
		<g opacity="0.5">
			<g>
				<path fill="#FFFFFF" d="M248.577,594.062c12.797,0,25.594,0,38.391,0c2.385,0,4.175-2.611,0.823-2.611      c-12.797,0-25.594,0-38.391,0C247.015,591.45,245.225,594.062,248.577,594.062L248.577,594.062z"/>
			</g>
		</g>
		<g opacity="0.5">
			<g>
				<path fill="#FFFFFF" d="M12.848,586.103c12.796,0,25.592,0,38.389,0c2.385,0,4.175-2.611,0.823-2.611      c-12.796,0-25.592,0-38.389,0C11.287,583.491,9.497,586.103,12.848,586.103L12.848,586.103z"/>
			</g>
		</g>
		<g opacity="0.5">
			<g>
				<path fill="#FFFFFF" d="M102.671,594.61c12.796,0,25.592,0,38.389,0c0.97,0-1.632-3.709-3.119-3.709      c-12.796,0-25.592,0-38.389,0C98.582,590.901,101.184,594.61,102.671,594.61L102.671,594.61z"/>
			</g>
		</g>
		<g opacity="0.5">
			<g>
				<path fill="#FFFFFF" d="M28.549,630.01c12.866,0,25.732,0,38.598,0c2.12,0-0.88-3.816-2.312-3.816c-12.866,0-25.732,0-38.598,0      C24.117,626.193,27.117,630.01,28.549,630.01L28.549,630.01z"/>
			</g>
		</g>
		<g opacity="0.5">
			<g>
				<path fill="#FFFFFF" d="M54.441,609.427c12.795,0,25.591,0,38.387,0c1.454,0,3.791-1.514,4.58-1.514      c-12.795,0-25.591,0-38.387,0C57.567,607.913,55.23,609.427,54.441,609.427L54.441,609.427z"/>
			</g>
		</g>
		<g opacity="0.5">
			<g>
				<path fill="#FFFFFF" d="M1.056,610.524c7.968,0,15.936,0,23.904,0c0.97,0-1.632-3.709-3.119-3.709c-7.968,0-15.936,0-23.904,0      C-3.033,606.815-0.431,610.524,1.056,610.524L1.056,610.524z"/>
			</g>
		</g>
		<g opacity="0.5">
			<g>
				<path fill="#FFFFFF" d="M79.56,563.673c12.796,0,25.592,0,38.389,0c1.454,0,3.791-1.514,4.58-1.514c-12.796,0-25.592,0-38.389,0      C82.686,562.159,80.349,563.673,79.56,563.673L79.56,563.673z"/>
			</g>
		</g>
		<g opacity="0.5">
			<g>
				<path fill="#FFFFFF" d="M11.693,564.771c12.796,0,25.592,0,38.389,0c0.97,0-1.632-3.709-3.119-3.709      c-12.796,0-25.592,0-38.389,0C7.603,561.062,10.205,564.771,11.693,564.771L11.693,564.771z"/>
			</g>
		</g>
	</g>
	<g xmlns="http://www.w3.org/2000/svg">
		<g>
			<path fill="#C6EDF6" d="M957.477,157.429c0,2.323-1.253,4.23-2.781,4.23h-45.419c-1.531,0-2.783-1.903-2.783-4.23v-11.39    c0-2.323,1.251-4.234,2.783-4.234h45.419c1.528,0,2.781,1.907,2.781,4.234V157.429z"/>
		</g>
		<g>
			<g>
				<path fill="#562F2F" d="M957.932,158.587c-0.934,5.233-7.91,3.088-10.334,3.088c-6.383,0-12.768,0-19.152,0     c-5.002,0-10.002,0-15.004,0c-5.613,0-4.621-7.861-4.621-14.68c0-6.187,26.604-3.088,29.486-3.088c5.002,0,10.002,0,15.004,0     C958.926,143.907,957.932,151.768,957.932,158.587c0,1.493,1.87,1.081,1.87-0.204c0-5.197,1.556-16.561-3.819-16.561     c-5.432,0-10.86,0-16.292,0c-7.738,0-15.475,0-23.212,0c-3.78,0-8.29-1.531-9.525,5.381c-0.893,4.982-0.954,16.561,3.818,16.561     c5.432,0,10.86,0,16.292,0c7.737,0,15.476,0,23.212,0c3.78,0,8.292,1.531,9.526-5.381     C960.044,157.022,958.154,157.342,957.932,158.587z"/>
			</g>
		</g>
	</g>
	<g xmlns="http://www.w3.org/2000/svg">
		<g>
			<g>
				<path fill="#562F2F" d="M845.12,253.144c-7.892,0-15.784,0-23.677,0c-5.517,0-11.033,0-16.55,0c-1.883,0-3.765,0-5.647,0     c-1.147,0-2.085-0.136-2.085,0.149c0-16.544,0-33.088,0-49.632c-0.596,0.252-1.19,0.505-1.785,0.757c7.892,0,15.784,0,23.677,0     c5.517,0,11.033,0,16.55,0c1.883,0,3.765,0,5.647,0c1.147,0,2.085,0.136,2.085-0.149c0,16.544,0,33.088,0,49.632     c0,0.406,2.174,0.077,2.174-0.582c0-16.553,0-33.105,0-49.658c0-0.14-0.314-0.175-0.389-0.175c-16.115,0-32.231,0-48.348,0     c-0.411,0-1.785,0.144-1.785,0.757c0,16.553,0,33.105,0,49.658c0,0.14,0.314,0.175,0.389,0.175c16.115,0,32.231,0,48.348,0     C844.206,254.077,846.209,253.144,845.12,253.144z"/>
			</g>
		</g>
		<g opacity="0.5">
			<g>
				<g>
					<path fill="#562F2F" d="M363.514,541.306c0-11.467,0-22.934,0-34.401c-0.339,0.189-0.678,0.379-1.017,0.568      c7.892,0,15.783,0,23.674,0c0.314,0,1.017-0.154,1.017-0.568c0-8.081,0-16.162,0-24.242c0-1.485-0.713-6.477,0.217-7.406      c2.848-2.848,5.696-5.696,8.544-8.545c-0.448,0.093-0.896,0.186-1.345,0.279c2.39,2.97,4.78,5.939,7.17,8.91      c1.059,1.315,0.206,5.978,0.206,7.571c0,8.096,0,16.19,0,24.286c0,0.164,0.34,0.18,0.433,0.18c5.014,0,10.028,0,15.042,0      c2.443,0,4.887,0,7.331,0c1.039,0,0.407-0.059,0.407-0.027c0,0.697,0,1.394,0,2.091c0,10.564,0,21.129,0,31.693      c0,0.386,1.449,0.131,1.449-0.389c0-11.312,0-22.624,0-33.937c0-0.164-0.34-0.18-0.433-0.18c-6.204,0-12.407,0-18.61,0      c-1.254,0-2.508,0-3.762,0c-1.077,0-0.407,0.284-0.407-0.175c0-2.614,0-5.229,0-7.843c0-7.2,0-14.4,0-21.601      c0-4.215-4.934-7.97-7.474-11.126c-0.285-0.354-1.115,0.049-1.345,0.279c-2.848,2.848-5.696,5.696-8.543,8.545      c-1.073,1.072-0.329,4.784-0.329,6.151c0,8.624,0,17.248,0,25.872c0.339-0.189,0.678-0.379,1.017-0.568      c-7.892,0-15.783,0-23.674,0c-0.314,0-1.017,0.154-1.017,0.568c0,11.467,0,22.934,0,34.401      C362.064,542.08,363.514,541.825,363.514,541.306L363.514,541.306z"/>
				</g>
			</g>
			<g>
				<g>
					<g>
						<path fill="#562F2F" d="M369.488,522.063c-1.001,0-2.003,0-3.005,0c0.226,0.167,0.451,0.335,0.677,0.503       c0-3.404,0-6.809,0-10.213c-0.265,0.2-0.529,0.4-0.794,0.601c1.001,0,2.003,0,3.005,0c-0.226-0.167-0.451-0.335-0.677-0.503       c0,3.404,0,6.809,0,10.213c0,0.785,1.471,0.584,1.471-0.098c0-3.404,0-6.809,0-10.213c0-0.385-0.347-0.503-0.677-0.503       c-1.001,0-2.003,0-3.005,0c-0.296,0-0.794,0.249-0.794,0.601c0,3.404,0,6.809,0,10.213c0,0.385,0.347,0.503,0.677,0.503       c1.001,0,2.003,0,3.005,0C370.215,523.166,370.47,522.063,369.488,522.063z"/>
					</g>
				</g>
				<g>
					<g>
						<path fill="#562F2F" d="M376.322,522.218c-0.5,0-1.001,0-1.502,0c-0.344,0-0.688,0-1.033,0c-0.757,0-0.031-0.052-0.031,0.182       c0-0.916,0-1.831,0-2.747c0-2.481,0-4.964,0-7.445c-0.337,0.197-0.674,0.394-1.01,0.591c0.5,0,1.001,0,1.502,0       c0.344,0,0.688,0,1.033,0c0.757,0,0.031,0.052,0.031-0.182c0,0.916,0,1.831,0,2.747c0,2.481,0,4.964,0,7.445       c0,0.425,1.449,0.157,1.449-0.389c0-3.404,0-6.809,0-10.213c0-0.17-0.336-0.202-0.439-0.202c-1.001,0-2.003,0-3.005,0       c-0.338,0-1.01,0.155-1.01,0.591c0,3.404,0,6.809,0,10.213c0,0.17,0.336,0.202,0.439,0.202c1.001,0,2.003,0,3.005,0       C376.272,523.011,377.3,522.218,376.322,522.218z"/>
					</g>
				</g>
				<g>
					<g>
						<path fill="#562F2F" d="M382.913,522.165c-1.001,0-2.002,0-3.004,0c0.152,0.124,0.304,0.247,0.456,0.37       c0-3.404,0-6.809,0-10.213c-0.333,0.176-0.666,0.352-0.999,0.528c1.001,0,2.002,0,3.004,0c-0.152-0.124-0.304-0.247-0.456-0.37       c0,3.404,0,6.809,0,10.213c0,0.661,1.455,0.373,1.455-0.158c0-3.404,0-6.809,0-10.213c0-0.253-0.216-0.37-0.456-0.37       c-1.001,0-2.002,0-3.004,0c-0.271,0-0.999,0.131-0.999,0.528c0,3.404,0,6.809,0,10.213c0,0.253,0.216,0.37,0.456,0.37       c1.001,0,2.002,0,3.004,0C382.961,523.063,383.894,522.165,382.913,522.165z"/>
					</g>
				</g>
				<g>
					<g>
						<path fill="#562F2F" d="M389.714,522.3c-0.501,0-1.001,0-1.502,0c-0.344,0-0.688,0-1.033,0c-0.563,0-0.21-0.05-0.21,0.1       c0-0.916,0-1.831,0-2.747c0-2.481,0-4.964,0-7.445c-0.396,0.17-0.793,0.339-1.189,0.509c0.501,0,1.001,0,1.502,0       c0.344,0,0.688,0,1.033,0c0.563,0,0.21,0.05,0.21-0.1c0,0.916,0,1.831,0,2.747c0,2.481,0,4.964,0,7.445       c0,0.278,1.449,0.057,1.449-0.389c0-3.404,0-6.809,0-10.213c0-0.094-0.209-0.12-0.26-0.12c-1.001,0-2.003,0-3.005,0       c-0.278,0-1.189,0.094-1.189,0.509c0,3.404,0,6.809,0,10.213c0,0.094,0.209,0.12,0.26,0.12c1.001,0,2.003,0,3.005,0       C389.11,522.929,390.443,522.3,389.714,522.3z"/>
					</g>
				</g>
				<g>
					<g>
						<path fill="#562F2F" d="M396.138,522.205c-0.5,0-1.001,0-1.502,0c-0.344,0-0.688,0-1.032,0c-0.759,0-0.027-0.055-0.027,0.194       c0-0.916,0-1.831,0-2.747c0-2.481,0-4.964,0-7.445c-0.336,0.201-0.671,0.402-1.007,0.604c0.5,0,1.001,0,1.502,0       c0.344,0,0.688,0,1.032,0c0.759,0,0.027,0.055,0.027-0.194c0,0.916,0,1.831,0,2.747c0,2.481,0,4.964,0,7.445       c0,0.447,1.449,0.173,1.449-0.389c0-3.404,0-6.809,0-10.213c0-0.173-0.334-0.215-0.442-0.215c-1.001,0-2.002,0-3.004,0       c-0.352,0-1.007,0.157-1.007,0.604c0,3.404,0,6.809,0,10.213c0,0.173,0.334,0.215,0.442,0.215c1.001,0,2.002,0,3.004,0       C396.112,523.023,397.117,522.205,396.138,522.205z"/>
					</g>
				</g>
				<g>
					<g>
						<path fill="#562F2F" d="M402.764,522.283c-0.5,0-1.001,0-1.501,0c-0.344,0-0.688,0-1.032,0c-0.746,0-0.048-0.037-0.048,0.116       c0-0.916,0-1.831,0-2.747c0-2.481,0-4.964,0-7.445c-0.343,0.176-0.685,0.351-1.028,0.525c0.5,0,1.001,0,1.501,0       c0.344,0,0.688,0,1.032,0c0.746,0,0.048,0.037,0.048-0.116c0,0.916,0,1.831,0,2.747c0,2.481,0,4.964,0,7.445       c0,0.311,1.449,0.078,1.449-0.389c0-3.404,0-6.809,0-10.213c0-0.15-0.347-0.137-0.421-0.137c-1.001,0-2.002,0-3.003,0       c-0.27,0-1.028,0.154-1.028,0.525c0,3.404,0,6.809,0,10.213c0,0.15,0.347,0.137,0.421,0.137c1.001,0,2.002,0,3.003,0       C402.596,522.945,403.733,522.283,402.764,522.283z"/>
					</g>
				</g>
				<g>
					<g>
						<path fill="#562F2F" d="M409.137,522.101c-1.001,0-2.002,0-3.004,0c0.221,0.151,0.442,0.303,0.664,0.454       c0-3.404,0-6.809,0-10.213c-0.267,0.19-0.534,0.382-0.801,0.573c1.001,0,2.002,0,3.004,0c-0.221-0.151-0.442-0.303-0.664-0.454       c0,3.404,0,6.809,0,10.213c0,0.743,1.465,0.508,1.465-0.119c0-3.404,0-6.809,0-10.213c0-0.377-0.352-0.454-0.664-0.454       c-1.001,0-2.002,0-3.004,0c-0.274,0-0.801,0.236-0.801,0.573c0,3.404,0,6.809,0,10.213c0,0.377,0.352,0.454,0.664,0.454       c1.001,0,2.002,0,3.004,0C409.815,523.128,410.122,522.101,409.137,522.101z"/>
					</g>
				</g>
				<g>
					<g>
						<path fill="#562F2F" d="M416.149,522.335c-0.5,0-1.001,0-1.502,0c-0.344,0-0.688,0-1.033,0c-0.542,0-0.219-0.034-0.219,0.064       c0-0.916,0-1.831,0-2.747c0-2.481,0-4.964,0-7.445c-0.4,0.158-0.799,0.315-1.199,0.474c0.5,0,1.001,0,1.502,0       c0.344,0,0.688,0,1.033,0c0.542,0,0.219,0.034,0.219-0.064c0,0.916,0,1.831,0,2.747c0,2.481,0,4.964,0,7.445       c0,0.198,1.449,0.001,1.449-0.389c0-3.404,0-6.809,0-10.213c0-0.084-0.216-0.085-0.25-0.085c-1.001,0-2.003,0-3.005,0       c-0.235,0-1.199,0.122-1.199,0.474c0,3.404,0,6.809,0,10.213c0,0.084,0.216,0.085,0.25,0.085c1.001,0,2.003,0,3.005,0       C415.484,522.894,416.844,522.335,416.149,522.335z"/>
					</g>
				</g>
				<g>
					<g>
						<path fill="#562F2F" d="M422.565,522.213c-0.5,0-1.001,0-1.502,0c-0.344,0-0.688,0-1.033,0c-0.758,0-0.029-0.054-0.029,0.187       c0-0.916,0-1.831,0-2.747c0-2.481,0-4.964,0-7.445c-0.336,0.199-0.673,0.397-1.009,0.596c0.5,0,1.001,0,1.502,0       c0.344,0,0.688,0,1.033,0c0.758,0,0.029,0.054,0.029-0.187c0,0.916,0,1.831,0,2.747c0,2.481,0,4.964,0,7.445       c0,0.435,1.449,0.164,1.449-0.389c0-3.404,0-6.809,0-10.213c0-0.171-0.335-0.207-0.44-0.207c-1.001,0-2.002,0-3.004,0       c-0.344,0-1.009,0.155-1.009,0.596c0,3.404,0,6.809,0,10.213c0,0.171,0.335,0.207,0.44,0.207c1.001,0,2.002,0,3.004,0       C422.526,523.016,423.544,522.213,422.565,522.213z"/>
					</g>
				</g>
				<g>
					<g>
						<path fill="#562F2F" d="M369.5,535.018c-1.002,0-2.003,0-3.005,0c0.221,0.15,0.442,0.3,0.663,0.45c0-3.404,0-6.809,0-10.213       c-0.267,0.19-0.535,0.381-0.802,0.571c1.002,0,2.003,0,3.005,0c-0.221-0.15-0.442-0.3-0.663-0.45c0,3.404,0,6.809,0,10.213       c0,0.74,1.465,0.503,1.465-0.121c0-3.404,0-6.809,0-10.213c0-0.376-0.353-0.45-0.663-0.45c-1.002,0-2.003,0-3.005,0       c-0.272,0-0.802,0.235-0.802,0.571c0,3.404,0,6.809,0,10.213c0,0.376,0.353,0.45,0.663,0.45c1.002,0,2.003,0,3.005,0       C370.173,536.039,370.484,535.018,369.5,535.018z"/>
					</g>
				</g>
				<g>
					<g>
						<path fill="#562F2F" d="M376.341,535.203c-0.501,0-1.001,0-1.502,0c-0.344,0-0.688,0-1.033,0c-0.745,0-0.05-0.035-0.05,0.11       c0-0.916,0-1.831,0-2.747c0-2.481,0-4.964,0-7.445c-0.343,0.174-0.687,0.347-1.029,0.52c0.501,0,1.001,0,1.502,0       c0.344,0,0.688,0,1.033,0c0.745,0,0.05,0.035,0.05-0.11c0,0.916,0,1.831,0,2.747c0,2.481,0,4.964,0,7.445       c0,0.299,1.449,0.07,1.449-0.389c0-3.404,0-6.809,0-10.213c0-0.148-0.348-0.131-0.42-0.131c-1.001,0-2.003,0-3.005,0       c-0.263,0-1.029,0.155-1.029,0.52c0,3.404,0,6.809,0,10.213c0,0.148,0.348,0.131,0.42,0.131c1.001,0,2.003,0,3.005,0       C376.161,535.854,377.309,535.203,376.341,535.203z"/>
					</g>
				</g>
				<g>
					<g>
						<path fill="#562F2F" d="M382.925,535.122c-0.501,0-1.001,0-1.502,0c-0.344,0-0.688,0-1.033,0c-0.759,0-0.028-0.055-0.028,0.191       c0-0.916,0-1.831,0-2.747c0-2.481,0-4.964,0-7.445c-0.336,0.2-0.672,0.4-1.008,0.601c0.501,0,1.001,0,1.502,0       c0.344,0,0.688,0,1.033,0c0.759,0,0.028,0.055,0.028-0.191c0,0.916,0,1.831,0,2.747c0,2.481,0,4.964,0,7.445       c0,0.442,1.449,0.17,1.449-0.389c0-3.404,0-6.809,0-10.213c0-0.172-0.335-0.212-0.441-0.212c-1.001,0-2.003,0-3.004,0       c-0.35,0-1.008,0.156-1.008,0.601c0,3.404,0,6.809,0,10.213c0,0.172,0.335,0.212,0.441,0.212c1.001,0,2.003,0,3.004,0       C382.894,535.935,383.904,535.122,382.925,535.122z"/>
					</g>
				</g>
				<g>
					<g>
						<path fill="#562F2F" d="M389.723,535.248c-0.501,0-1.002,0-1.502,0c-0.345,0-0.689,0-1.033,0c-0.543,0-0.219-0.035-0.219,0.065       c0-0.916,0-1.831,0-2.747c0-2.481,0-4.964,0-7.445c-0.399,0.158-0.799,0.316-1.199,0.475c0.501,0,1.002,0,1.502,0       c0.345,0,0.689,0,1.033,0c0.543,0,0.219,0.035,0.219-0.065c0,0.916,0,1.831,0,2.747c0,2.481,0,4.964,0,7.445       c0,0.201,1.449,0.003,1.449-0.389c0-3.404,0-6.809,0-10.213c0-0.084-0.216-0.086-0.25-0.086c-1.002,0-2.003,0-3.005,0       c-0.236,0-1.199,0.121-1.199,0.475c0,3.404,0,6.809,0,10.213c0,0.084,0.216,0.086,0.25,0.086c1.002,0,2.003,0,3.005,0       C389.06,535.809,390.419,535.248,389.723,535.248z"/>
					</g>
				</g>
				<g>
					<g>
						<path fill="#562F2F" d="M396.116,535.036c-1.001,0-2.003,0-3.004,0c0.157,0.143,0.314,0.284,0.471,0.427       c0-3.404,0-6.809,0-10.213c-0.33,0.186-0.661,0.371-0.991,0.558c1.001,0,2.003,0,3.004,0c-0.157-0.143-0.314-0.284-0.471-0.427       c0,3.404,0,6.809,0,10.213c0,0.719,1.462,0.466,1.462-0.131c0-3.404,0-6.809,0-10.213c0-0.258-0.213-0.427-0.471-0.427       c-1.001,0-2.003,0-3.004,0c-0.301,0-0.991,0.128-0.991,0.558c0,3.404,0,6.809,0,10.213c0,0.258,0.213,0.427,0.471,0.427       c1.001,0,2.003,0,3.004,0C396.243,536.021,397.095,535.036,396.116,535.036z"/>
					</g>
				</g>
				<g>
					<g>
						<path fill="#562F2F" d="M402.752,535.153c-0.5,0-1.001,0-1.501,0c-0.344,0-0.688,0-1.032,0c-0.753,0-0.036-0.047-0.036,0.16       c0-0.916,0-1.831,0-2.747c0-2.481,0-4.964,0-7.445c-0.339,0.189-0.677,0.379-1.016,0.569c0.5,0,1.001,0,1.501,0       c0.344,0,0.688,0,1.032,0c0.753,0,0.036,0.047,0.036-0.16c0,0.916,0,1.831,0,2.747c0,2.481,0,4.964,0,7.445       c0,0.388,1.449,0.132,1.449-0.389c0-3.404,0-6.809,0-10.213c0-0.164-0.339-0.181-0.433-0.181c-1.001,0-2.002,0-3.003,0       c-0.315,0-1.016,0.154-1.016,0.569c0,3.404,0,6.809,0,10.213c0,0.164,0.339,0.181,0.433,0.181c1.001,0,2.002,0,3.003,0       C402.663,535.903,403.729,535.153,402.752,535.153z"/>
					</g>
				</g>
				<g>
					<g>
						<path fill="#562F2F" d="M409.342,535.086c-1.001,0-2.003,0-3.004,0c0.151,0.12,0.302,0.241,0.454,0.361       c0-3.404,0-6.809,0-10.213c-0.333,0.175-0.667,0.349-1,0.523c1.001,0,2.003,0,3.004,0c-0.151-0.12-0.302-0.241-0.454-0.361       c0,3.404,0,6.809,0,10.213c0,0.652,1.454,0.359,1.454-0.162c0-3.404,0-6.809,0-10.213c0-0.252-0.216-0.361-0.454-0.361       c-1.001,0-2.003,0-3.004,0c-0.266,0-1,0.131-1,0.523c0,3.404,0,6.809,0,10.213c0,0.252,0.216,0.361,0.454,0.361       c1.001,0,2.003,0,3.004,0C409.378,535.971,410.322,535.086,409.342,535.086z"/>
					</g>
				</g>
				<g>
					<g>
						<path fill="#562F2F" d="M415.738,534.993c-1.001,0-2.003,0-3.005,0c0.224,0.16,0.448,0.321,0.671,0.481       c0-3.404,0-6.809,0-10.213c-0.266,0.196-0.532,0.393-0.797,0.589c1.001,0,2.003,0,3.005,0c-0.224-0.16-0.448-0.321-0.671-0.481       c0,3.404,0,6.809,0,10.213c0,0.768,1.469,0.552,1.469-0.107c0-3.404,0-6.809,0-10.213c0-0.381-0.349-0.481-0.671-0.481       c-1.001,0-2.003,0-3.005,0c-0.287,0-0.797,0.243-0.797,0.589c0,3.404,0,6.809,0,10.213c0,0.381,0.349,0.481,0.671,0.481       c1.001,0,2.003,0,3.005,0C416.444,536.063,416.72,534.993,415.738,534.993z"/>
					</g>
				</g>
				<g>
					<g>
						<path fill="#562F2F" d="M422.551,535.074c-1.001,0-2.002,0-3.004,0c0.153,0.125,0.305,0.251,0.458,0.377       c0-3.404,0-6.809,0-10.213c-0.333,0.177-0.666,0.354-0.998,0.531c1.001,0,2.002,0,3.004,0       c-0.153-0.125-0.305-0.251-0.458-0.377c0,3.404,0,6.809,0,10.213c0,0.669,1.456,0.385,1.456-0.154c0-3.404,0-6.809,0-10.213       c0-0.254-0.216-0.377-0.458-0.377c-1.001,0-2.002,0-3.004,0c-0.274,0-0.998,0.13-0.998,0.531c0,3.404,0,6.809,0,10.213       c0,0.254,0.216,0.377,0.458,0.377c1.001,0,2.002,0,3.004,0C422.61,535.982,423.532,535.074,422.551,535.074z"/>
					</g>
				</g>
			</g>
			<g>
				<g>
					<path fill="#562F2F" d="M396.32,489.562c-0.5,0-1.001,0-1.502,0c-0.396,0-0.793,0-1.189,0c-0.499,0-0.053,0.116-0.053,0.021      c0-1.228,0-2.456,0-3.684c0-2.844,0-5.688,0-8.531c-0.396,0.17-0.793,0.339-1.189,0.508c0.5,0,1.001,0,1.502,0      c0.396,0,0.793,0,1.189,0c0.499,0,0.053-0.116,0.053-0.021c0,1.228,0,2.456,0,3.684c0,2.844,0,5.688,0,8.531      c0,0.277,1.449,0.056,1.449-0.389c0-4.104,0-8.209,0-12.313c0-0.094-0.209-0.119-0.26-0.119c-1.001,0-2.002,0-3.004,0      c-0.278,0-1.189,0.094-1.189,0.508c0,4.104,0,8.209,0,12.313c0,0.094,0.209,0.119,0.26,0.119c1.001,0,2.002,0,3.004,0      C395.716,490.188,397.049,489.562,396.32,489.562z"/>
				</g>
			</g>
			<g>
				<g>
					<path fill="#562F2F" d="M425.642,529.06c2.893,0,5.787,0,8.68,0c1.199,0,0.555-0.043,0.555,1.719c0,1.61,0,3.222,0,4.832      c0,0.251,0.216,0.357,0.453,0.357c2.803,0,5.606,0,8.41,0c0.264,0,1-0.131,1-0.521c0-1.882,0-3.765,0-5.646      c0-1.537-0.692-0.74-0.484-0.74c1.024,0,2.047,0,3.071,0c1.142,0,2.284,0,3.426,0c1.211,0,0.644-0.372,0.644,0.244      c0,2.103,0,4.204,0,6.307c0,0.251,0.216,0.357,0.453,0.357c2.603,0,5.206,0,7.809,0c0.264,0,1-0.131,1-0.521      c0-6.898,0-13.797,0-20.696c0-4.43,0-8.858,0-13.288c0-1.444,0-2.889,0-4.334c0-1.577-0.701-0.582-0.54-0.582      c7.586,0,15.172,0,22.757,0c-0.349,0-0.243,0.35-0.243,1.692c0,2.273,0,4.548,0,6.821c0,3.613,0,7.227,0,10.84      c0,0.251,0.217,0.357,0.452,0.357c2.658,0,5.315,0,7.974,0c-0.541,0-0.316,0.181-0.316,1.269c0,1.662,0,3.325,0,4.988      c0,6.3,0,12.599,0,18.898c0,0.648,1.453,0.354,1.453-0.164c0-6.052,0-12.104,0-18.156c0-0.981-1.615-0.038-0.418-0.038      c1.134,0,2.268,0,3.401,0c4.065,0,8.13,0,12.195,0c3.922,0,7.844,0,11.766,0c1.372,0,2.745,0,4.118,0      c1.36,0,0.823-0.042,0.823-0.1c0,6.219,0,12.438,0,18.656c0,0.648,1.453,0.354,1.453-0.164c0-20.472,0-40.943,0-61.415      c0-0.648-1.453-0.354-1.453,0.164c0,20.472,0,40.943,0,61.415c0,0.648,1.453,0.354,1.453-0.164c0-6.305,0-12.609,0-18.914      c0-0.251-0.217-0.357-0.452-0.357c-11.113,0-22.227,0-33.339,0c-0.265,0-1.001,0.131-1.001,0.521c0,6.238,0,12.478,0,18.716      c0,0.648,1.453,0.354,1.453-0.164c0-8.504,0-17.009,0-25.513c0-0.251-0.217-0.357-0.452-0.357c-2.338,0-4.676,0-7.014,0      c-1.235,0-0.644,0.508-0.644-0.194c0-1.235,0-2.471,0-3.706c0-5.15,0-10.302,0-15.453c0-0.251-0.217-0.357-0.452-0.357      c-7.81,0-15.619,0-23.428,0c-0.264,0-1,0.131-1,0.521c0,9.733,0,19.468,0,29.201c0,2.434,0,4.867,0,7.301      c0,0.715,0,1.43,0,2.145c0,1.184-0.181,0.254,0.847,0.254c-2.5,0-5.001,0-7.501,0c0.596,0,0.299-5.306,0.299-6.551      c0-0.251-0.216-0.357-0.453-0.357c-2.703,0-5.406,0-8.109,0c-0.264,0-1,0.131-1,0.521c0,1.882,0,3.765,0,5.646      c0,1.539,0.718,0.74,0.465,0.74c-1.062,0-2.124,0-3.185,0c-1.184,0-2.368,0-3.552,0c-1.231,0-0.685,0.37-0.685-0.244      c0-2.103,0-4.204,0-6.307c0-0.251-0.216-0.357-0.453-0.357c-3.229,0-6.458,0-9.688,0      C425.61,528.181,424.662,529.06,425.642,529.06L425.642,529.06z"/>
				</g>
			</g>
			<g>
				<g>
					<path fill="#562F2F" d="M536.539,535.228c-1.771,0-5.15,0.973-5.15-0.869c0-3.368,0-6.735,0-10.104c0-6.618,0-13.236,0-19.855      c-0.397,0.165-0.795,0.33-1.193,0.495c1.771,0,5.15-0.973,5.15,0.869c0,3.367,0,6.735,0,10.104c0,6.618,0,13.236,0,19.855      c0,0.249,1.449,0.036,1.449-0.389c0-10.312,0-20.623,0-30.935c0-0.091-0.212-0.106-0.256-0.106c-1.803,0-3.604,0-5.406,0      c-0.263,0-1.193,0.104-1.193,0.495c0,10.312,0,20.623,0,30.935c0,0.091,0.212,0.106,0.256,0.106c1.803,0,3.604,0,5.406,0      C535.912,535.829,537.255,535.228,536.539,535.228z"/>
				</g>
			</g>
			<g>
				<g>
					<path fill="#562F2F" d="M529.5,486.15c2.402,0,4.805,0,7.207,0c0.632,0,1.507-0.959,0.527-0.959c-2.402,0-4.805,0-7.207,0      C529.396,485.191,528.521,486.15,529.5,486.15L529.5,486.15z"/>
				</g>
			</g>
			<g>
				<g>
					<path fill="#562F2F" d="M529.49,490.318c2.402,0,4.805,0,7.207,0c0.585,0,1.527-0.887,0.547-0.887c-2.402,0-4.805,0-7.207,0      C529.452,489.432,528.51,490.318,529.49,490.318L529.49,490.318z"/>
				</g>
			</g>
			<g>
				<g>
					<path fill="#562F2F" d="M529.297,494.388c2.402,0,4.805,0,7.207,0c0.318,0,1.656-0.615,0.934-0.615c-2.402,0-4.805,0-7.207,0      C529.912,493.772,528.574,494.388,529.297,494.388L529.297,494.388z"/>
				</g>
			</g>
			<g>
				<g>
					<path fill="#562F2F" d="M529.291,498.567c2.402,0,4.805,0,7.207,0c0.288,0,1.646-0.568,0.945-0.568c-2.402,0-4.805,0-7.207,0      C529.948,497.999,528.591,498.567,529.291,498.567L529.291,498.567z"/>
				</g>
			</g>
			<g>
				<g>
					<path fill="#562F2F" d="M535.602,509.924c2.403,0,4.807,0,7.209,0c0.311,0,1.654-0.602,0.938-0.602c-2.403,0-4.807,0-7.209,0      C536.229,509.322,534.885,509.924,535.602,509.924L535.602,509.924z"/>
				</g>
			</g>
			<g>
				<g>
					<path fill="#562F2F" d="M491.172,528.075c6.708,0,13.416,0,20.124,0c0.469,0,1.567-0.711,0.594-0.711      c-6.708,0-13.416,0-20.124,0C491.297,527.364,490.198,528.075,491.172,528.075L491.172,528.075z"/>
				</g>
			</g>
			<g>
				<g>
					<path fill="#562F2F" d="M491.173,532.582c6.708,0,13.416,0,20.124,0c0.473,0,1.565-0.717,0.592-0.717      c-6.708,0-13.416,0-20.124,0C491.292,531.865,490.199,532.582,491.173,532.582L491.173,532.582z"/>
				</g>
			</g>
			<g>
				<g>
					<path fill="#562F2F" d="M469.711,504.29c-1.802,0-3.605,0-5.407,0c0.085,0.037,0.171,0.073,0.257,0.109c0-1.563,0-3.125,0-4.688      c-0.397,0.166-0.795,0.332-1.192,0.498c1.802,0,3.605,0,5.407,0c-0.085-0.037-0.171-0.073-0.257-0.109c0,1.563,0,3.125,0,4.688      c0,0.254,1.449,0.04,1.449-0.389c0-1.563,0-3.125,0-4.688c0-0.091-0.211-0.109-0.257-0.109c-1.802,0-3.605,0-5.407,0      c-0.265,0-1.192,0.102-1.192,0.498c0,1.563,0,3.125,0,4.688c0,0.091,0.211,0.109,0.257,0.109c1.802,0,3.605,0,5.407,0      c0.35,0,0.727-0.082,1.024-0.274C470.023,504.478,469.999,504.29,469.711,504.29z"/>
				</g>
			</g>
			<g>
				<g>
					<path fill="#562F2F" d="M479.226,515.198c-2.203,0-4.406,0-6.609,0c0.22,0.148,0.441,0.297,0.661,0.445c0-1.502,0-3.004,0-4.506      c-0.268,0.189-0.535,0.379-0.803,0.568c2.203,0,4.406,0,6.609,0c-0.22-0.148-0.441-0.297-0.661-0.445c0,1.502,0,3.004,0,4.506      c0,0.735,1.464,0.495,1.464-0.123c0-1.502,0-3.004,0-4.506c0-0.375-0.354-0.445-0.661-0.445c-2.203,0-4.406,0-6.609,0      c-0.27,0-0.803,0.234-0.803,0.568c0,1.502,0,3.004,0,4.506c0,0.375,0.354,0.445,0.661,0.445c2.203,0,4.406,0,6.609,0      C479.895,516.212,480.211,515.198,479.226,515.198z"/>
				</g>
			</g>
			<g>
				<g>
					<path fill="#562F2F" d="M542.555,496.301c0,8.836,0,17.672,0,26.508c0.026,0.057,0.07,0.091,0.134,0.103      c15.969,4.305,31.938,8.609,47.906,12.914c0.299,0.081,1.315-0.056,1.315-0.491c0-8.709,0-17.419,0-26.129      c-0.026-0.057-0.07-0.091-0.134-0.103c-15.969-4.431-31.938-8.862-47.906-13.293c-0.355-0.099-1.646,0.465-1.182,0.594      c13.65,3.788,27.302,7.575,40.952,11.363c2.187,0.606,4.373,1.214,6.56,1.82c0.665,0.185,0.261,3.858,0.261,4.848      c0,7.096,0,14.192,0,21.288c0.438-0.164,0.877-0.327,1.315-0.491c-13.65-3.68-27.302-7.359-40.952-11.039      c-2.187-0.59-4.373-1.18-6.56-1.769c-0.667-0.18-0.261-3.924-0.261-4.915c0-7.199,0-14.397,0-21.597      C544.004,495.625,542.555,495.85,542.555,496.301z"/>
				</g>
			</g>
			<g>
				<g>
					<path fill="#562F2F" d="M542.687,502.896c15.969,4.403,31.938,8.807,47.906,13.209c0.344,0.096,1.628-0.455,1.186-0.576      c-15.969-4.403-31.938-8.807-47.906-13.209C543.528,502.225,542.244,502.775,542.687,502.896L542.687,502.896z"/>
				</g>
			</g>
			<g>
				<g>
					<path fill="#562F2F" d="M542.868,509.729c15.969,4.403,31.938,8.807,47.906,13.21c0.669,0.184,1.711-0.786,0.822-1.031      c-15.969-4.403-31.938-8.807-47.906-13.21C543.021,508.514,541.979,509.483,542.868,509.729L542.868,509.729z"/>
				</g>
			</g>
			<g>
				<g>
					<path fill="#562F2F" d="M542.843,516.237c15.969,4.403,31.938,8.807,47.906,13.21c0.504,0.139,1.712-0.608,0.873-0.84      c-15.969-4.403-31.938-8.807-47.906-13.21C543.212,515.259,542.004,516.006,542.843,516.237L542.843,516.237z"/>
				</g>
			</g>
			<g>
				<g>
					<path fill="#562F2F" d="M535.022,535.877c18.622,0,37.243,0,55.864,0c0.46,0,1.569-0.697,0.598-0.697      c-18.622,0-37.243,0-55.864,0C535.16,535.18,534.051,535.877,535.022,535.877L535.022,535.877z"/>
				</g>
			</g>
			<g>
				<g>
					<path fill="#562F2F" d="M628.098,535.073c-6.104,0-12.207,0-18.312,0c-1.435,0-2.87,0-4.306,0c-1.331,0-1.254-0.228-1.254,0.35      c0-1.583,0-3.166,0-4.749c0-13.697,0-27.395,0-41.093c0-0.419,0-0.838,0-1.257c0,0.703-1.574,0.505,0.714,0.505      c3.649,0,7.298,0,10.946,0c3.32,0,6.64,0,9.96,0c2.005,0,1.253-0.765,1.253,1.283c0,13.776,0,27.553,0,41.33      c0,1.388,0,2.775,0,4.163c0,0.67,1.457,0.386,1.457-0.154c0-15.718,0-31.437,0-47.154c0-0.254-0.216-0.378-0.459-0.378      c-8.109,0-16.219,0-24.329,0c-0.274,0-0.997,0.13-0.997,0.532c0,15.718,0,31.437,0,47.154c0,0.254,0.215,0.378,0.458,0.378      c8.109,0,16.219,0,24.329,0C628.157,535.983,629.079,535.073,628.098,535.073z"/>
				</g>
			</g>
			<g>
				<g>
					<path fill="#562F2F" d="M604.075,489.771c0.396-7.35,6.128-12.774,13.797-11.525c5.743,0.936,9.096,6.43,9.385,11.797      c0.029,0.544,1.482,0.227,1.449-0.389c-0.896-16.637-25.209-16.044-26.088,0.271      C602.583,490.588,604.045,490.321,604.075,489.771L604.075,489.771z"/>
				</g>
			</g>
			<g>
				<g>
					<path fill="#562F2F" d="M593.452,496.504c14.617,0,29.234,0,43.853,0c0.523,0,1.549-0.795,0.57-0.795      c-14.617,0-29.234,0-43.853,0C593.499,495.709,592.474,496.504,593.452,496.504L593.452,496.504z"/>
				</g>
			</g>
			<g>
				<g>
					<path fill="#562F2F" d="M587,505.012c5.406,0,10.813,0,16.218,0c0.552,0,1.54-0.836,0.561-0.836c-5.406,0-10.813,0-16.218,0      C587.009,504.176,586.021,505.012,587,505.012L587,505.012z"/>
				</g>
			</g>
			<g>
				<g>
					<path fill="#562F2F" d="M627.551,505.026c5.405,0,10.811,0,16.217,0c0.57,0,1.531-0.865,0.551-0.865c-5.405,0-10.811,0-16.217,0      C627.531,504.161,626.57,505.026,627.551,505.026L627.551,505.026z"/>
				</g>
			</g>
			<g>
				<g>
					<path fill="#562F2F" d="M621.388,513.145c-2.527,0-5.056,0-7.583,0c-0.957,0-1.915,0-2.873,0c0.402,0,0.2-1.383,0.2-1.869      c0-5.121,0-10.242,0-15.363c-0.397,0.168-0.794,0.335-1.191,0.502c2.527,0,5.056,0,7.583,0c0.957,0,1.915,0,2.873,0      c-0.402,0-0.2,1.383-0.2,1.869c0,5.121,0,10.242,0,15.363c0,0.264,1.449,0.046,1.449-0.389c0-5.781,0-11.563,0-17.346      c0-0.092-0.21-0.113-0.258-0.113c-3.505,0-7.01,0-10.514,0c-0.271,0-1.191,0.099-1.191,0.502c0,5.781,0,11.563,0,17.346      c0,0.092,0.21,0.113,0.258,0.113c3.505,0,7.01,0,10.514,0C620.772,513.76,622.11,513.145,621.388,513.145z"/>
				</g>
			</g>
			<g>
				<g>
					<path fill="#562F2F" d="M590.263,524.113c12.365,0,24.73,0,37.096,0c0.305,0,1.651-0.594,0.939-0.594      c-12.365,0-24.73,0-37.096,0C590.897,523.52,589.551,524.113,590.263,524.113L590.263,524.113z"/>
				</g>
			</g>
			<g>
				<g>
					<path fill="#562F2F" d="M627.532,535.887c11.381,0,22.763,0,34.144,0c6.896,0,13.793,0,20.688,0c1.431,0,2.86,0,4.29,0      c-0.17,0,0.434,0.969,0.84,1.661c0.832,1.416,1.663,2.832,2.494,4.248c0.254,0.433,1.63-0.081,1.449-0.389      c-0.747-1.272-2.377-5.704-3.705-6.199c-0.766-0.285-1.998-0.038-2.783-0.038c-6.58,0-13.159,0-19.738,0      c-12.362,0-24.725,0-37.087,0C627.65,535.17,626.559,535.887,627.532,535.887L627.532,535.887z"/>
				</g>
			</g>
			<g>
				<g>
					<path fill="#562F2F" d="M673.304,535.125c-2.589,0-5.178,0-7.767,0c-1.78,0-3.561,0-5.34,0c-1.255,0-1.986-0.079-1.986,0.108      c0-4.744,0-9.489,0-14.233c0-12.502,0-25.003,0-37.505c-0.336,0.199-0.672,0.398-1.009,0.598c2.589,0,5.178,0,7.767,0      c1.78,0,3.561,0,5.34,0c1.255,0,1.986,0.079,1.986-0.108c0,4.744,0,9.489,0,14.233c0,12.502,0,25.003,0,37.505      c0,0.438,1.449,0.166,1.449-0.389c0-17.279,0-34.559,0-51.839c0-0.172-0.335-0.209-0.44-0.209c-5.178,0-10.355,0-15.533,0      c-0.347,0-1.009,0.156-1.009,0.598c0,17.279,0,34.559,0,51.839c0,0.172,0.335,0.209,0.44,0.209c5.178,0,10.355,0,15.533,0      C673.268,535.932,674.282,535.125,673.304,535.125z"/>
				</g>
			</g>
			<g>
				<g>
					<path fill="#562F2F" d="M658.211,483.6c2.589-5.657,5.179-11.314,7.768-16.972c-0.483,0.095-0.966,0.189-1.449,0.284      c2.589,5.657,5.178,11.314,7.766,16.972c0.232,0.507,1.651,0.053,1.449-0.389c-2.589-5.657-5.178-11.314-7.766-16.972      c-0.242-0.529-1.271-0.106-1.449,0.284c-2.589,5.657-5.179,11.314-7.768,16.972C656.558,484.227,657.996,484.068,658.211,483.6      L658.211,483.6z"/>
				</g>
			</g>
			<g>
				<g>
					<path fill="#562F2F" d="M657.209,500.333c5.178,0,10.355,0,15.533,0c0.562,0,1.535-0.854,0.555-0.854      c-5.178,0-10.355,0-15.533,0C657.202,499.479,656.229,500.333,657.209,500.333L657.209,500.333z"/>
				</g>
			</g>
			<g>
				<g>
					<path fill="#562F2F" d="M657.419,512.469c5.178,0,10.355,0,15.533,0c0.818,0,1.119-1.035,0.135-1.035      c-5.178,0-10.355,0-15.533,0C656.735,511.434,656.435,512.469,657.419,512.469L657.419,512.469z"/>
				</g>
			</g>
			<g>
				<g>
					<path fill="#562F2F" d="M669.418,495.478c-2.582,0-5.165,0-7.748,0c0.145,0.061,0.289,0.12,0.434,0.181c0-2.582,0-5.165,0-7.748      c-0.339,0.19-0.678,0.38-1.016,0.569c2.582,0,5.165,0,7.748,0c-0.145-0.061-0.289-0.12-0.434-0.181c0,2.582,0,5.165,0,7.748      c0,0.389,1.449,0.132,1.449-0.389c0-2.582,0-5.165,0-7.748c0-0.164-0.34-0.181-0.434-0.181c-2.582,0-5.165,0-7.748,0      c-0.315,0-1.016,0.153-1.016,0.569c0,2.582,0,5.165,0,7.748c0,0.164,0.34,0.181,0.434,0.181c2.582,0,5.165,0,7.748,0      C669.33,496.228,670.395,495.478,669.418,495.478z"/>
				</g>
			</g>
			<g>
				<g>
					<path fill="#562F2F" d="M667.623,535.18c-0.821,0-1.643,0-2.464,0c-1.149,0-0.714,0.386-0.714-0.402c0-1.884,0-3.767,0-5.65      c0-3.938,0-7.876,0-11.814c-0.341,0.181-0.683,0.362-1.023,0.543c0.821,0,1.643,0,2.464,0c1.149,0,0.714-0.386,0.714,0.402      c0,1.884,0,3.767,0,5.65c0,3.938,0,7.876,0,11.814c0,0.341,1.449,0.1,1.449-0.389c0-6.007,0-12.014,0-18.021      c0-0.156-0.344-0.154-0.426-0.154c-1.201,0-2.402,0-3.604,0c-0.288,0-1.023,0.154-1.023,0.543c0,6.007,0,12.014,0,18.021      c0,0.156,0.344,0.154,0.426,0.154c1.201,0,2.402,0,3.604,0C667.485,535.877,668.596,535.18,667.623,535.18z"/>
				</g>
			</g>
			<g>
				<circle fill="#E5DFDF" cx="644.043" cy="504.594" r="5.016"/>
				<g>
					<path fill="#562F2F" d="M648.334,504.685c-0.144,2.666-2.021,4.888-4.924,4.414c-2.045-0.333-3.32-2.26-3.629-4.152      c-0.463-2.84,2.116-5.311,4.895-4.857c2.262,0.368,3.546,2.603,3.658,4.699c0.025,0.471,1.479,0.172,1.449-0.389      c-0.385-7.136-11.111-6.567-11.48,0.285c-0.387,7.188,11.108,6.722,11.48-0.182C649.815,503.905,648.36,504.198,648.334,504.685      z"/>
				</g>
			</g>
			<g>
				<circle fill="#E5DFDF" cx="591.186" cy="495.853" r="5.016"/>
				<g>
					<path fill="#562F2F" d="M595.471,495.92c-0.138,2.554-1.864,4.576-4.57,4.431c-2.21-0.119-3.653-2.159-3.977-4.146      c-0.44-2.704,1.953-4.99,4.547-4.851c2.438,0.131,3.889,2.504,4.006,4.692c0.032,0.595,1.484,0.266,1.449-0.389      c-0.387-7.183-11.113-6.685-11.486,0.262c-0.162,3.015,2.738,5.594,5.67,5.436c3.143-0.169,5.649-2.355,5.822-5.57      C596.97,495.079,595.503,495.323,595.471,495.92z"/>
				</g>
			</g>
			<g>
				<polygon fill="#E5DFDF" points="657.486,535.528 632.184,535.528 632.184,526.026 657.486,522.423    "/>
				<g>
					<path fill="#562F2F" d="M657.751,535.053c-6.724,0-13.446,0-20.17,0c-1.312,0-2.622,0-3.934,0c-1.505,0-0.734,0.548-0.734-0.584      c0-2.017,0-4.033,0-6.05c0-0.667,0-1.335,0-2.002c0-0.798-1.301,0.152-0.383,0.021c7.151-1.019,14.304-2.037,21.456-3.056      c1.076-0.153,2.151-0.307,3.228-0.46c0.355-0.05-0.457-0.707-0.457-0.063c0,0.821,0,1.643,0,2.464c0,3.426,0,6.851,0,10.275      c0,0.696,1.459,0.43,1.459-0.143c0-4.368,0-8.736,0-13.105c0-0.337-0.359-0.443-0.649-0.401      c-8.435,1.201-16.869,2.402-25.303,3.604c-0.251,0.035-0.81,0.199-0.81,0.544c0,3.167,0,6.334,0,9.502      c0,0.256,0.214,0.404,0.465,0.404c8.435,0,16.868,0,25.303,0C657.848,536.004,658.731,535.053,657.751,535.053z"/>
				</g>
			</g>
		</g>
		<g>
			<g>
				<path fill="#562F2F" d="M855.537,416.314c-7.47,0-14.939,0-22.409,0c0.426,0,0.213-19.915,0.213-22.341     c-0.396,0.169-0.794,0.337-1.19,0.505c7.47,0,14.939,0,22.409,0c-0.426,0-0.213,19.915-0.213,22.341     c0,0.271,1.449,0.051,1.449-0.389c0-7.485,0-14.971,0-22.457c0-0.093-0.21-0.116-0.259-0.116c-7.485,0-14.97,0-22.455,0     c-0.274,0-1.19,0.096-1.19,0.505c0,7.485,0,14.971,0,22.457c0,0.093,0.21,0.116,0.259,0.116c7.485,0,14.97,0,22.455,0     C854.928,416.936,856.263,416.314,855.537,416.314z"/>
			</g>
		</g>
		<g opacity="0.5">
			<g>
				<g>
					<path fill="#9DF4C6" d="M745.397,528.921c0,0-20.565-16.326,7.438-36.724c0,0,22.305,20.441,2.055,36.724      C754.89,528.921,748.873,532.703,745.397,528.921z"/>
				</g>
				<g>
					<line fill="#E5E4E1" x1="747.957" y1="506.612" x2="747.957" y2="540.942"/>
					<g>
						<path fill="#562F2F" d="M747.229,506.689c0,11.443,0,22.887,0,34.33c0,0.671,1.457,0.389,1.457-0.154       c0-11.443,0-22.887,0-34.33C748.686,505.864,747.229,506.146,747.229,506.689L747.229,506.689z"/>
					</g>
				</g>
				<g>
					<line fill="#E5E4E1" x1="741.154" y1="514.041" x2="747.957" y2="519.608"/>
					<g>
						<path fill="#562F2F" d="M740.597,514.463c2.268,1.856,4.535,3.712,6.803,5.567c0.507,0.415,1.768-0.31,1.115-0.844       c-2.268-1.856-4.535-3.712-6.803-5.567C741.205,513.204,739.944,513.929,740.597,514.463L740.597,514.463z"/>
					</g>
				</g>
				<g>
					<line fill="#E5E4E1" x1="747.957" y1="522.434" x2="756.024" y2="518.004"/>
					<g>
						<path fill="#562F2F" d="M748.378,522.541c2.688-1.477,5.378-2.953,8.067-4.43c0.844-0.464-0.491-0.407-0.842-0.215       c-2.688,1.477-5.378,2.953-8.067,4.43C746.692,522.79,748.027,522.733,748.378,522.541L748.378,522.541z"/>
					</g>
				</g>
				<g>
					<line fill="#E5E4E1" x1="753.098" y1="519.608" x2="754.601" y2="514.041"/>
					<g>
						<path fill="#562F2F" d="M753.831,519.55c0.501-1.855,1.002-3.712,1.503-5.567c0.183-0.679-1.299-0.502-1.467,0.117       c-0.501,1.855-1.002,3.712-1.503,5.567C752.182,520.346,753.663,520.169,753.831,519.55L753.831,519.55z"/>
					</g>
				</g>
				<g>
					<line fill="#E5E4E1" x1="743.775" y1="516.187" x2="745.9" y2="509.671"/>
					<g>
						<path fill="#562F2F" d="M744.498,516.088c0.708-2.172,1.416-4.344,2.125-6.516c0.149-0.459-1.295-0.261-1.445,0.197       c-0.708,2.172-1.416,4.344-2.125,6.516C742.903,516.744,744.348,516.546,744.498,516.088L744.498,516.088z"/>
					</g>
				</g>
				<g>
					<line fill="#E5E4E1" x1="747.957" y1="511.399" x2="754.601" y2="502.341"/>
					<g>
						<path fill="#562F2F" d="M748.62,511.373c2.215-3.02,4.43-6.039,6.644-9.059c0.329-0.449-1.097-0.26-1.326,0.053       c-2.215,3.02-4.43,6.039-6.644,9.059C746.965,511.875,748.391,511.686,748.62,511.373L748.62,511.373z"/>
					</g>
				</g>
				<g>
					<line fill="#E5E4E1" x1="749.514" y1="501.243" x2="751.99" y2="505.901"/>
					<g>
						<path fill="#562F2F" d="M748.789,501.438c0.826,1.553,1.651,3.105,2.477,4.658c0.251,0.472,1.649-0.012,1.449-0.389       c-0.826-1.553-1.651-3.105-2.477-4.658C749.987,500.577,748.589,501.061,748.789,501.438L748.789,501.438z"/>
					</g>
				</g>
				<g>
					<g>
						<path fill="#562F2F" d="M744.719,526.783c-2.836-2.29-4.948-5.629-6.182-9.014c-3.809-10.447,4.396-19.769,11.973-25.813       c1.047-0.835,0.072-1.543,1.129-0.479c0.784,0.788,1.515,1.628,2.232,2.477c2.508,2.969,4.545,6.309,6.004,9.909       c1.744,4.307,1.99,8.98,0.57,13.406C758.726,522.622,751.037,532.146,744.719,526.783c-0.472-0.4-1.75,0.285-1.121,0.818       c9.083,7.709,18.887-8.249,19.277-15.798c0.415-8.001-4.94-16.384-10.615-21.649c-0.311-0.289-0.809-0.25-1.141-0.001       c-8.151,6.117-16.572,14.676-14.641,25.744c0.772,4.428,3.632,8.889,7.119,11.704       C744.079,527.991,745.359,527.3,744.719,526.783z"/>
					</g>
				</g>
			</g>
			<g>
				<path fill="#F07578" d="M885.629,528.921c0,0-20.565-16.326,7.438-36.724c0,0,22.305,20.441,2.055,36.724     C895.121,528.921,889.104,532.703,885.629,528.921z"/>
			</g>
			<g>
				<line fill="#E5E4E1" x1="888.188" y1="506.612" x2="888.188" y2="540.942"/>
				<g>
					<path fill="#562F2F" d="M887.46,506.689c0,11.443,0,22.887,0,34.33c0,0.671,1.457,0.389,1.457-0.154c0-11.443,0-22.887,0-34.33      C888.917,505.864,887.46,506.146,887.46,506.689L887.46,506.689z"/>
				</g>
			</g>
			<g>
				<line fill="#E5E4E1" x1="881.386" y1="514.041" x2="888.188" y2="519.608"/>
				<g>
					<path fill="#562F2F" d="M880.828,514.463c2.268,1.856,4.535,3.712,6.803,5.567c0.507,0.415,1.768-0.31,1.115-0.844      c-2.268-1.856-4.535-3.712-6.803-5.567C881.437,513.204,880.176,513.929,880.828,514.463L880.828,514.463z"/>
				</g>
			</g>
			<g>
				<line fill="#E5E4E1" x1="888.188" y1="522.434" x2="896.256" y2="518.004"/>
				<g>
					<path fill="#562F2F" d="M888.609,522.541c2.688-1.477,5.378-2.953,8.067-4.43c0.844-0.464-0.491-0.407-0.842-0.215      c-2.688,1.477-5.378,2.953-8.067,4.43C886.924,522.79,888.259,522.733,888.609,522.541L888.609,522.541z"/>
				</g>
			</g>
			<g>
				<line fill="#E5E4E1" x1="893.329" y1="519.608" x2="894.832" y2="514.041"/>
				<g>
					<path fill="#562F2F" d="M894.063,519.55c0.501-1.855,1.002-3.712,1.503-5.567c0.183-0.679-1.299-0.502-1.467,0.117      c-0.501,1.855-1.002,3.712-1.503,5.567C892.413,520.346,893.895,520.169,894.063,519.55L894.063,519.55z"/>
				</g>
			</g>
			<g>
				<line fill="#E5E4E1" x1="884.007" y1="516.187" x2="886.132" y2="509.671"/>
				<g>
					<path fill="#562F2F" d="M884.729,516.088c0.709-2.172,1.417-4.344,2.125-6.516c0.15-0.459-1.294-0.261-1.443,0.197      c-0.709,2.172-1.417,4.344-2.125,6.516C883.135,516.744,884.579,516.546,884.729,516.088L884.729,516.088z"/>
				</g>
			</g>
			<g>
				<line fill="#E5E4E1" x1="888.188" y1="511.399" x2="894.832" y2="502.341"/>
				<g>
					<path fill="#562F2F" d="M888.852,511.373c2.215-3.02,4.43-6.039,6.644-9.059c0.329-0.449-1.097-0.26-1.326,0.053      c-2.215,3.02-4.43,6.039-6.644,9.059C887.196,511.875,888.622,511.686,888.852,511.373L888.852,511.373z"/>
				</g>
			</g>
			<g>
				<line fill="#E5E4E1" x1="889.745" y1="501.243" x2="892.222" y2="505.901"/>
				<g>
					<path fill="#562F2F" d="M889.021,501.438c0.825,1.553,1.651,3.105,2.477,4.658c0.251,0.472,1.649-0.012,1.449-0.389      c-0.825-1.553-1.651-3.105-2.477-4.658C890.219,500.577,888.82,501.061,889.021,501.438L889.021,501.438z"/>
				</g>
			</g>
			<g>
				<g>
					<path fill="#562F2F" d="M884.95,526.783c-2.836-2.29-4.948-5.629-6.182-9.014c-3.809-10.447,4.396-19.769,11.973-25.813      c1.047-0.835,0.072-1.543,1.129-0.479c0.784,0.788,1.515,1.628,2.232,2.477c2.508,2.969,4.545,6.309,6.003,9.909      c1.745,4.307,1.991,8.98,0.57,13.406C898.957,522.622,891.27,532.146,884.95,526.783c-0.472-0.4-1.75,0.285-1.121,0.818      c9.083,7.709,18.887-8.249,19.277-15.798c0.415-8.001-4.94-16.384-10.615-21.649c-0.311-0.289-0.809-0.25-1.141-0.001      c-8.151,6.117-16.572,14.676-14.641,25.744c0.772,4.428,3.632,8.889,7.119,11.704C884.311,527.991,885.591,527.3,884.95,526.783      z"/>
				</g>
			</g>
		</g>
		<g>
			<g>
				<path fill="#562F2F" d="M394.834,304.063c-0.87,5.359-9.039,3.738-12.428,3.738c-6.059,0-12.118,0-18.177,0     c-3.52,0-7.04,0-10.56,0c-5.756,0-3.909-11.347-3.909-14.769c0-5.308,9.729-3.738,12.428-3.738c6.059,0,12.118,0,18.177,0     c3.52,0,7.04,0,10.56,0C396.682,289.294,394.834,300.642,394.834,304.063c0,0.328,0.728,0.182,0.728-0.08     c0-4.368,1.831-12.479-2.817-14.892c-0.981-0.509-2.898-0.242-3.939-0.242c-3.028,0-6.055,0-9.083,0c-7.29,0-14.579,0-21.868,0     c-3.779,0-8.035-0.573-8.821,4.262c-0.444,2.735,0,5.897,0,8.667c0,2.738,0.109,4.819,2.817,6.225     c0.981,0.509,2.898,0.242,3.939,0.242c3.028,0,6.055,0,9.083,0c7.29,0,14.579,0,21.868,0c3.779,0,8.035,0.573,8.821-4.262     C395.612,303.674,394.878,303.794,394.834,304.063z"/>
			</g>
		</g>
	</g>
	
	<g>
		<g>
			<path fill="#562F2F" d="M281.704,435.551c-7.43,0-14.86,0-22.291,0c0.427,0,0.213-19.803,0.213-22.218     c-0.397,0.169-0.793,0.337-1.19,0.505c7.43,0,14.86,0,22.291,0c-0.427,0-0.213,19.803-0.213,22.218     c0,0.271,1.449,0.051,1.449-0.389c0-7.444,0-14.889,0-22.334c0-0.093-0.21-0.116-0.259-0.116c-7.445,0-14.891,0-22.336,0     c-0.274,0-1.19,0.096-1.19,0.505c0,7.444,0,14.889,0,22.334c0,0.093,0.21,0.116,0.259,0.116c7.445,0,14.891,0,22.336,0     C281.094,436.172,282.43,435.551,281.704,435.551z"/>
		</g>
	</g>
</g>


</svg>
