<?xml version="1.0" encoding="utf-8"?>
<!-- Generator: Adobe Illustrator 16.0.0, SVG Export Plug-In . SVG Version: 6.00 Build 0)  -->
<!DOCTYPE svg PUBLIC "-//W3C//DTD SVG 1.1//EN" "http://www.w3.org/Graphics/SVG/1.1/DTD/svg11.dtd">
<svg version="1.1" class="图层_1" xmlns="http://www.w3.org/2000/svg" xmlns:xlink="http://www.w3.org/1999/xlink" x="0px" y="0px"
	 width="960px" height="640px" viewBox="0 0 960 640" enable-background="new 0 0 960 640" xml:space="preserve"> 

<g class="p7_txt">
	<image xmlns="http://www.w3.org/2000/svg" overflow="visible" width="551" height="270" xmlns:xlink="http://www.w3.org/1999/xlink" xlink:href="./images/49FEE4C7.png" transform="matrix(1 0 0 1 203.5 99.1377)">
	</image>
	<image xmlns="http://www.w3.org/2000/svg" overflow="visible" width="313" height="111" xmlns:xlink="http://www.w3.org/1999/xlink" xlink:href="./images/P9t2.png" transform="matrix(1 0 0 1 21.3945 511.001)">
	</image>
</g>

<g class="p7_bg">
	<g opacity="0.2">
		<g opacity="0.4">
			<rect x="716.931" y="413.297" fill="#EB87B4" width="46.287" height="225.795"/>
		</g>
		<g opacity="0.8">
			<g>
				<path fill="#552E2E" d="M763.501,638.687c-12.37,0-24.74,0-37.11,0c-2.501,0-5.001,0-7.501,0c-0.521,0-1.043,0-1.563,0     c-0.021,0,0.33,0.418,0.33,0.002c0-1.703,0-3.406,0-5.109c0-23.258,0-46.516,0-69.774c0-50.108,0-100.22,0-150.33     c0-0.123,0-0.246,0-0.371c-0.336,0.201-0.672,0.4-1.008,0.601c12.369,0,24.739,0,37.109,0c2.501,0,5.001,0,7.501,0     c0.521,0,1.043,0,1.564,0c0.021,0-0.33-0.417-0.33-0.001c0,1.703,0,3.406,0,5.109c0,23.258,0,46.516,0,69.773     c0,50.109,0,100.22,0,150.33c0,0.123,0,0.247,0,0.371c0,0.44,1.449,0.169,1.449-0.389c0-47.681,0-95.36,0-143.041     c0-27.584,0-55.169,0-82.754c0-0.172-0.335-0.211-0.441-0.211c-15.429,0-30.858,0-46.287,0c-0.349,0-1.008,0.155-1.008,0.6     c0,47.68,0,95.359,0,143.041c0,27.584,0,55.169,0,82.754c0,0.172,0.335,0.211,0.44,0.211c15.43,0,30.858,0,46.287,0     C763.469,639.497,764.48,638.687,763.501,638.687z"/>
			</g>
		</g>
		<g>
			<g>
				<path fill="#FFFFFF" d="M716.405,430.633c12.043,0,24.086,0,36.128,0c1.271,0,3.011-1.932,1.051-1.932     c-12.043,0-24.086,0-36.128,0C716.184,428.701,714.445,430.633,716.405,430.633L716.405,430.633z"/>
			</g>
		</g>
		<g>
			<g>
				<path fill="#FFFFFF" d="M716.392,449.209c12.042,0,24.085,0,36.128,0c1.201,0,3.04-1.824,1.078-1.824     c-12.042,0-24.085,0-36.128,0C716.269,447.385,714.43,449.209,716.392,449.209L716.392,449.209z"/>
			</g>
		</g>
		<g>
			<g>
				<path fill="#FFFFFF" d="M716.818,468.045c12.043,0,24.086,0,36.128,0c1.7,0,2.185-2.246,0.225-2.246c-12.043,0-24.086,0-36.128,0     C715.342,465.799,714.857,468.045,716.818,468.045L716.818,468.045z"/>
			</g>
		</g>
		<g>
			<g>
				<path fill="#FFFFFF" d="M716.327,486.224c12.042,0,24.085,0,36.128,0c0.887,0,3.146-1.344,1.207-1.344     c-12.042,0-24.085,0-36.128,0C716.646,484.88,714.387,486.224,716.327,486.224L716.327,486.224z"/>
			</g>
		</g>
		<g>
			<g>
				<path fill="#FFFFFF" d="M698.726,560.226c18.063,0,36.128,0,54.19,0c1.617,0,2.256-2.018,0.285-2.018c-18.063,0-36.127,0-54.19,0     C697.394,558.208,696.755,560.226,698.726,560.226L698.726,560.226z"/>
			</g>
		</g>
		<g>
			<g>
				<path fill="#FFFFFF" d="M698.725,578.85c18.063,0,36.127,0,54.19,0c1.613,0,2.259-2.008,0.287-2.008c-18.063,0-36.127,0-54.19,0     C697.398,576.842,696.753,578.85,698.725,578.85L698.725,578.85z"/>
			</g>
		</g>
		<g>
			<g>
				<path fill="#FFFFFF" d="M698.313,597.33c18.063,0,36.128,0,54.19,0c1.128,0,3.069-1.711,1.109-1.711c-18.063,0-36.127,0-54.19,0     C698.295,595.619,696.354,597.33,698.313,597.33L698.313,597.33z"/>
			</g>
		</g>
		<g>
			<g>
				<path fill="#FFFFFF" d="M698.318,615.974c18.063,0,36.127,0,54.189,0c1.151,0,3.062-1.748,1.101-1.748     c-18.063,0-36.128,0-54.19,0C698.267,614.226,696.357,615.974,698.318,615.974L698.318,615.974z"/>
			</g>
		</g>
		<g opacity="0.4">
			<path fill="#B9E1EF" d="M581.388,364.887c0,1.65-1.35,3-3,3h-83.752c-1.649,0-3-1.35-3-3v-18.652c0-1.649,1.351-3,3-3h83.752    c1.65,0,3,1.351,3,3V364.887z"/>
		</g>
		<g opacity="0.4">
			<g>
				<path fill="#552F2E" d="M585.243,369.551c-0.813,3.994-7.913,2.479-10.582,2.479c-6.839,0-13.677,0-20.517,0     c-15.142,0-30.283,0-45.426,0c-3.069,0-6.141,0-9.211,0c-4.529,0-2.563-17.95-2.563-20.697c0-4.395,6.141-3.075,8.768-3.075     c6.499,0,12.998,0,19.498,0c16.086,0,32.172,0,48.258,0c1.979,0,11.774-1.498,11.774,2.712     C585.243,357.162,585.243,363.355,585.243,369.551c0,0.648,1.453,0.354,1.453-0.164c0-6.019,0-12.037,0-18.056     c0-3.829-3.046-3.954-5.943-3.954c-13.128,0-26.256,0-39.385,0c-13.128,0-26.257,0-39.385,0c-2.577,0-6.491-0.07-6.491,3.591     c0,6.104,0,12.207,0,18.312c0,5.343,9.408,3.63,12.679,3.63c10.884,0,21.767,0,32.649,0c10.882,0,21.766,0,32.647,0     c3.867,0,12.166,1.706,13.229-3.521C586.817,368.79,585.351,369.021,585.243,369.551z"/>
			</g>
		</g>
		<g>
			<rect x="541.939" y="335.396" fill="#E5DEDE" width="174.99" height="303.694"/>
		</g>
		<g>
			<g>
				<path fill="#552F2E" d="M717.021,638.276c-49.894,0-99.785,0-149.679,0c-8.438,0-16.876,0-25.313,0     c0.337,0.246,0.675,0.491,1.012,0.737c0-41.339,0-82.678,0-124.016c0-55.688,0-111.376,0-167.063c0-4.205,0-8.41,0-12.615     c-0.396,0.298-0.796,0.596-1.193,0.893c49.894,0,99.785,0,149.679,0c8.438,0,16.876,0,25.313,0     c-0.337-0.246-0.675-0.492-1.012-0.738c0,41.34,0,82.678,0,124.017c0,55.688,0,111.376,0,167.063c0,4.205,0,8.41,0,12.615     c0,1.164,2.205,0.852,2.205-0.154c0-41.339,0-82.678,0-124.016c0-55.688,0-111.376,0-167.063c0-4.205,0-8.41,0-12.614     c0-0.574-0.522-0.738-1.012-0.738c-49.894,0-99.785,0-149.679,0c-8.438,0-16.876,0-25.313,0c-0.438,0-1.193,0.369-1.193,0.894     c0,41.338,0,82.678,0,124.016c0,55.688,0,111.376,0,167.063c0,4.205,0,8.41,0,12.615c0,0.574,0.522,0.738,1.012,0.738     c49.894,0,99.785,0,149.679,0c8.438,0,16.876,0,25.313,0C718.097,639.907,718.494,638.276,717.021,638.276z"/>
			</g>
		</g>
		<g opacity="0.3">
			<g>
				<path fill="#B9E1EF" d="M105.188,272.399c0,6.691-7.963,12.169-17.699,12.169H42.946c-9.742,0-17.71-5.478-17.71-12.169     c0-6.699,7.969-12.177,17.71-12.177h44.543C97.225,260.223,105.188,265.7,105.188,272.399z"/>
			</g>
			<g>
				<g>
					<path fill="#552F2E" d="M98.221,268.666c-1.007,15.282-28.624,11.349-38.984,11.349c-10.73,0-35.848,3.793-38.715-10.641      c-2.057-10.359,12.696-12.272,19.926-12.272c6.664,0,13.328,0,19.991,0c10.512,0,36.771-3.713,37.79,11.75      c0.057,0.874,2.236,0.379,2.173-0.582c-1.028-15.623-24.592-12.603-35.231-12.603c-7.562,0-15.124,0-22.685,0      c-6.04,0-11.75,0.092-17.27,3.03c-7.137,3.8-9.638,12.958-2.526,18.279c5.514,4.125,11.791,4.474,18.363,4.474      c13.235,0,26.47,0,39.706,0c7.983,0,19.03-3.553,19.652-12.993C100.479,267.418,98.279,267.791,98.221,268.666z"/>
				</g>
			</g>
		</g>
		<g opacity="0.3">
			<g>
				<path fill="#B9E1EF" d="M527.371,298.614c0,8.076-9.604,14.68-21.35,14.68h-53.709c-11.743,0-21.354-6.604-21.354-14.68     c0-8.073,9.61-14.677,21.354-14.677h53.709C517.767,283.938,527.371,290.541,527.371,298.614z"/>
			</g>
			<g>
				<g>
					<path fill="#552F2E" d="M519.873,295.699c-0.961,17.839-29.986,13.906-42.201,13.906c-7.702,0-15.403,0-23.104,0      c-6.176,0-12.148,0.287-18.101-1.804c-5.238-1.841-9.858-5.963-10.771-11.592c-1.376-8.479,8.683-13.457,15.354-14.666      c4.767-0.864,10.121-0.326,14.928-0.326c13.903,0,27.807,0,41.708,0C506.715,281.217,519.288,284.845,519.873,295.699      c0.025,0.476,2.21,0.086,2.174-0.582c-0.862-15.988-21.81-14.872-33.329-14.872c-13.741,0-27.481,0-41.223,0      c-6.461,0-13.596,1.294-18.684,5.601c-7.765,6.574-6.168,15.725,2.082,21.018c5.313,3.408,11.64,3.712,17.739,3.712      c6.731,0,13.463,0,20.195,0c9.73,0,19.462,0,29.191,0c9.552,0,23.404-3.906,24.027-15.459      C522.068,294.706,519.911,294.999,519.873,295.699z"/>
				</g>
			</g>
		</g>
		<g>
			<path fill="#C4E6EF" d="M142.476,514.942h-64.39c-6.492,0-11.763-5.266-11.763-11.762l0,0c0-6.497,5.271-11.765,11.763-11.765    h-0.958h35.522c6.398,0,11.588-5.185,11.588-11.579l0,0c0-6.398-5.189-11.586-11.588-11.586H58.866h0.376    c-8.946,0-16.196-7.249-16.196-16.203l0,0c0-8.946,7.25-16.195,16.196-16.195h82.25v79.09H142.476z"/>
		</g>
		<g>
			<path fill="#C4E6EF" d="M315.196,415.384c0-8.985,7.288-16.27,16.276-16.27h92.118c8.99,0,16.272,7.282,16.272,16.27l0,0    c0,8.991-7.282,16.278-16.272,16.278l-42.064-0.708l-1.571-0.036c-8.989,0-16.278,7.287-16.278,16.27l0,0    c0,8.99,7.289,16.279,16.278,16.279h92.118h-1.253c13.19,0,23.877,7.285,23.877,16.271l0,0c0,8.99-10.688,16.276-23.877,16.276    H319.923L315.196,415.384z"/>
		</g>
		<g opacity="0.3">
			<g>
				<path fill="#552F2E" d="M135.532,510.988c-13.201,0-26.402,0-39.603,0c-7.209,0-14.418,0-21.627,0     c-2.335,0-4.387,0.053-6.694-0.628c-11.137-3.286-9.442-21.121,2.648-21.818c0.666-0.038,2.376-1.076,0.887-1.076     c-0.321,0-0.643,0-0.964,0c-0.71,0-2.348,1.076-0.887,1.076c10.568,0,21.137,0,31.706,0c4.549,0,8.484-0.188,12.365-2.968     c6.428-4.604,5.904-15.532-1.012-19.414c-3.718-2.087-7.422-1.861-11.494-1.861c-6.188,0-12.376,0-18.564,0     c-10.123,0-20.246,0-30.369,0c-0.71,0-2.348,1.076-0.887,1.076c0.125,0,0.25,0,0.375,0c0.697,0,2.362-1.014,0.887-1.076     c-17.268-0.734-21.497-25.676-4.411-30.89c3.445-1.051,8.051-0.437,11.575-0.437c14.955,0,29.91,0,44.864,0     c6.884,0,13.769,0,20.653,0c2.053,0,4.106,0,6.16,0c0.588,0,1.177,0,1.766,0c1.238,0,0.114,0.068,0.114-0.229     c0,10.371,0,20.742,0,31.112c0,15.986,0,31.975,0,47.962c0,0.239,0.513,0.247,0.643,0.247c0.328,0,0.655,0,0.983,0     C135.355,512.064,136.993,510.988,135.532,510.988c-0.62,0-0.34,0.451-0.34-0.336c0-0.814,0-1.629,0-2.443     c0-2.926,0-5.851,0-8.775c0-9.082,0-18.163,0-27.244c0-13.35,0-26.696,0-40.044c0-0.24-0.513-0.247-0.643-0.247     c-21.55,0-43.101,0-64.651,0c-7.448,0-16.286-1.217-23.538,0.997c-7.614,2.322-12.062,9.723-11.734,17.43     c0.378,8.891,8.544,14.7,16.786,15.051c0.295-0.358,0.591-0.718,0.887-1.076c-0.125,0-0.25,0-0.375,0     c-0.71,0-2.348,1.076-0.887,1.076c17.647,0,35.294,0,52.942,0c8.742,0,13.963,8.367,10.61,16.3     c-2.842,6.726-10.582,5.791-16.391,5.791c-9.34,0-18.68,0-28.02,0c-0.71,0-2.348,1.076-0.887,1.076c0.321,0,0.643,0,0.964,0     c0.295-0.358,0.591-0.718,0.887-1.076c-12.621,0.729-18.626,16.542-6.495,23.347c4.797,2.689,13.44,1.253,18.606,1.253     c17.13,0,34.261,0,51.391,0C135.355,512.064,136.993,510.988,135.532,510.988z"/>
			</g>
		</g>
		<g opacity="0.3">
			<g>
				<path fill="#552F2E" d="M307.205,410.896c0.392-9.687,7.695-15.441,17.008-15.441c4.875,0,9.749,0,14.623,0     c15.708,0,31.417,0,47.125,0c9.363,0,18.726,0,28.089,0c14.725,0,20.396,18.527,10.196,27.976     c-5.151,4.771-13.464,3.425-19.908,3.315c-7.778-0.13-15.557-0.261-23.335-0.392c-4.526-0.076-9.413-0.591-13.87,0.32     c-8.474,1.733-13.902,9.521-13.563,17.941c0.353,8.729,8.576,15.188,16.917,15.188c25.317,0,50.636,0,75.954,0     c5.368,0,10.736,0,16.105,0c0.711,0,2.348-1.077,0.887-1.077c-0.417,0-0.835,0-1.252,0c-0.703,0-2.356,1.045-0.887,1.077     c11.276,0.26,30.21,9.167,20.802,23.049c-4.638,6.843-13.905,8.422-21.565,8.422c-9.189,0-18.379,0-27.568,0     c-31.085,0-62.17,0-93.255,0c-8.668,0-17.335,0-26.003,0c-0.701,0-1.401,0-2.103,0c-0.329,0,0.35,0.519,0.288-0.519     c-0.224-3.82-0.447-7.642-0.672-11.463C309.879,456.496,308.542,433.697,307.205,410.896c-0.033-0.571-2.216-0.154-2.173,0.582     c1.575,26.877,3.15,53.752,4.727,80.628c0.016,0.241,0.501,0.248,0.645,0.248c48.331,0,96.662,0,144.993,0     c8.393,0,16.506-0.345,23.882-5.062c6.388-4.085,9.437-11.498,5.551-18.378c-4.305-7.62-14.642-10.004-22.65-10.188     c-0.295,0.359-0.591,0.72-0.887,1.078c0.417,0,0.835,0,1.252,0c0.711,0,2.348-1.078,0.887-1.078c-24.81,0-49.621,0-74.431,0     c-11.276,0-26.211,2.713-32.035-9.692c-2.598-5.534-1.112-12.038,2.55-16.655c3.25-4.097,8.271-5.153,13.221-5.07     c6.109,0.104,12.22,0.205,18.33,0.309c6.912,0.116,13.824,0.231,20.736,0.348c5.556,0.094,11.244-1.005,15.214-5.29     c6.946-7.497,6.143-18.657-1.881-25.021c-3.726-2.955-8.285-3.276-12.8-3.276c-27.211,0-54.423,0-81.635,0     c-3.065,0-6.14-0.069-9.203,0.054c-9.192,0.371-16.106,8.137-16.466,17.049C305.011,411.997,307.175,411.657,307.205,410.896z"/>
			</g>
		</g>
		<g>
			<rect x="131.945" y="362.997" fill="#F1A3A5" width="196.161" height="278.898"/>
			<g>
				<path fill="#552F2E" d="M328.533,641.296c-49.411,0-98.822,0-148.234,0c-11.875,0-23.75,0-35.625,0c-3.239,0-6.479,0-9.718,0     c-0.719,0-1.438,0-2.158,0c-0.886,0,0.235,0.449,0.235,0.139c0-14.781,0-29.564,0-44.348c0-61.489,0-122.979,0-184.468     c0-16.639,0-33.275,0-49.913c-0.505,0.297-1.009,0.594-1.514,0.892c49.411,0,98.822,0,148.234,0c11.875,0,23.75,0,35.625,0     c3.239,0,6.479,0,9.718,0c0.72,0,1.438,0,2.158,0c0.886,0-0.235-0.449-0.235-0.14c0,14.782,0,29.565,0,44.349     c0,61.488,0,122.979,0,184.468c0,16.638,0,33.274,0,49.912c0,0.647,2.175,0.243,2.175-0.582c0-43.322,0-86.646,0-129.971     c0-49.087,0-98.173,0-147.26c0-0.556,0-1.112,0-1.668c0-0.257-0.503-0.31-0.66-0.31c-49.411,0-98.822,0-148.234,0     c-15.975,0-31.951,0-47.926,0c-0.514,0-1.514,0.233-1.514,0.892c0,43.323,0,86.646,0,129.971c0,49.087,0,98.173,0,147.26     c0,0.557,0,1.112,0,1.668c0,0.258,0.503,0.31,0.66,0.31c49.411,0,98.822,0,148.234,0c15.975,0,31.951,0,47.926,0     C328.469,642.495,330,641.296,328.533,641.296z"/>
			</g>
		</g>
		<g>
			<rect x="180.652" y="245.566" fill="#A7D7C2" width="98.747" height="117.431"/>
			<g>
				<path fill="#552F2E" d="M279.488,362.172c-32.916,0-65.832,0-98.747,0c0.338,0.25,0.676,0.5,1.015,0.751     c0-39.144,0-78.288,0-117.431c-0.397,0.3-0.794,0.6-1.191,0.9c32.916,0,65.832,0,98.747,0c-0.338-0.25-0.676-0.501-1.015-0.751     c0,39.144,0,78.287,0,117.429c0,1.176,2.206,0.871,2.206-0.147c0-39.144,0-78.288,0-117.431c0-0.576-0.521-0.751-1.015-0.751     c-32.916,0-65.832,0-98.747,0c-0.443,0-1.191,0.374-1.191,0.9c0,39.144,0,78.287,0,117.429c0,0.576,0.521,0.752,1.015,0.752     c32.916,0,65.832,0,98.747,0C280.575,363.822,280.96,362.172,279.488,362.172z"/>
			</g>
		</g>
		<g>
			<path fill="#67E4B3" d="M180.652,245.566c0-26.531,21.505-48.044,48.037-48.044c26.532,0,48.042,21.513,48.042,48.044"/>
			<g>
				<path fill="#552F2E" d="M181.738,245.428c0.373-26.246,21.408-47.652,47.918-47.276c25.69,0.365,45.633,22.693,45.989,47.705     c0.009,0.673,2.185,0.254,2.173-0.582c-0.388-27.339-22.893-48.73-50.096-48.343c-26.423,0.375-47.785,22.654-48.156,48.772     C179.554,246.601,181.729,246.134,181.738,245.428L181.738,245.428z"/>
			</g>
		</g>
		<g>
			<path fill="#FFFFFF" d="M263.604,341.07c0,18.549-15.038,33.58-33.582,33.58c-18.549,0-33.581-15.031-33.581-33.58    c0-18.543,15.032-33.585,33.581-33.585C248.566,307.485,263.604,322.527,263.604,341.07z"/>
			<g>
				<path fill="#552F2E" d="M262.88,341.266c-0.404,19.979-17.552,35.532-37.711,32.661c-16.255-2.315-27.68-17.11-28.002-33.051     c-0.406-20.05,18.219-35.444,37.708-32.666C251.127,310.526,262.558,325.327,262.88,341.266c0.005,0.256,1.458,0.03,1.449-0.39     c-0.403-19.899-17.029-34.777-36.749-33.578c-17.83,1.085-31.508,16.429-31.863,33.966c-0.403,19.94,17.621,34.735,36.747,33.572     c17.83-1.084,31.51-16.421,31.865-33.961C264.334,340.636,262.889,340.835,262.88,341.266z"/>
			</g>
		</g>
		<g>
			<rect x="156.631" y="245.566" fill="#A7D7C2" width="146.79" height="24.911"/>
			<g>
				<path fill="#552F2E" d="M303.818,269.765c-47.688,0-95.377,0-143.066,0c-1.097,0-2.194,0-3.292,0     c-0.913,0,0.265-0.076,0.265,0.555c0-1.16,0-2.319,0-3.479c0-7.127,0-14.254,0-21.381c-0.498,0.273-0.995,0.546-1.492,0.819     c47.688,0,95.377,0,143.066,0c1.097,0,2.194,0,3.292,0c0.913,0-0.265,0.076-0.265-0.555c0,1.16,0,2.319,0,3.479     c0,7.127,0,14.254,0,21.381c0,1.045,2.188,0.644,2.188-0.213c0-8.304,0-16.607,0-24.911c0-0.384-0.321-0.606-0.697-0.606     c-47.688,0-95.377,0-143.066,0c-1.241,0-2.483,0-3.724,0c-0.434,0-1.492,0.192-1.492,0.819c0,8.304,0,16.607,0,24.911     c0,0.384,0.322,0.606,0.698,0.606c47.688,0,95.377,0,143.066,0c1.241,0,2.483,0,3.725,0     C303.962,271.19,305.288,269.765,303.818,269.765z"/>
			</g>
		</g>
		<g>
			<g>
				<path fill="#552F2E" d="M229.16,309.26c0,21.234,0,42.469,0,63.703c0,0.801,1.474,0.612,1.474-0.09c0-21.234,0-42.469,0-63.704     C230.634,308.37,229.16,308.558,229.16,309.26L229.16,309.26z"/>
			</g>
		</g>
		<g>
			<g>
				<path fill="#552F2E" d="M229.172,199.457c0,15.435,0,30.869,0,46.304c0,0.324,1.449,0.088,1.449-0.389     c0-15.435,0-30.869,0-46.304C230.622,198.745,229.172,198.98,229.172,199.457L229.172,199.457z"/>
			</g>
		</g>
		<g>
			<g>
				<path fill="#552F2E" d="M254.434,206.569c0,13.063,0,26.127,0,39.191c0,0.392,1.449,0.135,1.449-0.389     c0-13.063,0-26.127,0-39.191C255.883,205.789,254.434,206.046,254.434,206.569L254.434,206.569z"/>
			</g>
		</g>
		<g>
			<g>
				<path fill="#552F2E" d="M202.834,205.805c0,13.318,0,26.637,0,39.956c0,0.437,1.449,0.166,1.449-0.389     c0-13.318,0-26.637,0-39.956C204.284,204.979,202.834,205.25,202.834,205.805L202.834,205.805z"/>
			</g>
		</g>
		<g>
			<g>
				<path fill="#552F2E" d="M197.96,341.91c21.235,0,42.471,0,63.707,0c1.277,0,1.638-1.688,0.167-1.688c-21.235,0-42.471,0-63.707,0     C196.85,340.223,196.49,341.91,197.96,341.91L197.96,341.91z"/>
			</g>
		</g>
		<g>
			<rect x="192.184" y="395.908" fill="#EE8F93" width="75.683" height="75.684"/>
			<g>
				<path fill="#552F2E" d="M267.968,470.812c-25.228,0-50.456,0-75.683,0c0.333,0.231,0.666,0.463,0.999,0.693     c0-25.228,0-50.456,0-75.685c-0.4,0.289-0.8,0.578-1.2,0.867c25.228,0,50.456,0,75.683,0c-0.333-0.23-0.666-0.461-0.999-0.692     c0,25.228,0,50.456,0,75.684c0,1.126,2.199,0.781,2.199-0.174c0-25.228,0-50.456,0-75.685c0-0.566-0.527-0.692-0.999-0.692     c-25.228,0-50.456,0-75.683,0c-0.417,0-1.2,0.358-1.2,0.867c0,25.228,0,50.456,0,75.684c0,0.567,0.527,0.693,0.999,0.693     c25.228,0,50.456,0,75.683,0C268.997,472.372,269.444,470.812,267.968,470.812z"/>
			</g>
		</g>
		<g>
			<line fill="none" x1="229.897" y1="395.908" x2="229.897" y2="471.592"/>
		</g>
		<g>
			<polygon fill="#FFFFFF" points="156.631,482.68 192.184,472.006 192.184,395.498 156.631,384.82   "/>
			<g>
				<path fill="#552F2E" d="M156.699,482.936c11.851-3.559,23.702-7.115,35.553-10.674c0.197-0.06,0.656-0.179,0.656-0.45     c0-25.502,0-51.005,0-76.507c-0.026-0.058-0.07-0.092-0.134-0.104c-11.851-3.559-23.702-7.118-35.553-10.678     c-0.297-0.09-1.315,0.062-1.315,0.49c0,32.619,0,65.239,0,97.859c0,0.286,1.449,0.063,1.449-0.389c0-32.619,0-65.239,0-97.859     c-0.438,0.164-0.877,0.327-1.315,0.491c11.472,3.444,22.944,6.891,34.416,10.336c1.927,0.579,1.003,4.187,1.003,6.376     c0,6.613,0,13.227,0,19.839c0,14.799,0,29.597,0,44.395c0,1.693,0,3.387,0,5.078c0,1.554,1.096,0.479-0.481,0.951     c-6.495,1.95-12.99,3.899-19.485,5.851c-4.977,1.493-9.954,2.987-14.931,4.481C155.725,482.676,155.853,483.189,156.699,482.936z     "/>
			</g>
		</g>
		<g>
			<polygon fill="#FFFFFF" points="303.421,482.68 267.867,472.006 267.867,395.498 303.421,384.82   "/>
			<g>
				<path fill="#552F2E" d="M304.018,482.407c-11.472-3.444-22.943-6.89-34.417-10.333c-1.949-0.585-1.01-4.264-1.01-6.399     c0-6.613,0-13.227,0-19.839c0-14.799,0-29.597,0-44.395c0-1.693,0-3.387,0-5.078c0-1.536-1.1-0.527,0.468-0.999     c6.495-1.95,12.991-3.901,19.486-5.853c4.804-1.443,9.608-2.886,14.413-4.328c0.744-0.224-0.262-0.427-0.262,0.476     c0,1.133,0,2.265,0,3.397c0,10.842,0,21.684,0,32.524c0,20.431,0,40.861,0,61.292c0,0.21,1.448,0.01,1.448-0.389     c0-32.619,0-65.239,0-97.859c0-0.197-0.71-0.035-0.779-0.014c-11.852,3.56-23.703,7.117-35.554,10.678     c-0.163,0.049-0.669,0.163-0.669,0.402c0,25.502,0,51.005,0,76.508c0.027,0.049,0.069,0.074,0.127,0.078     c11.851,3.559,23.702,7.115,35.554,10.674C303.145,483.049,304.419,482.527,304.018,482.407z"/>
			</g>
		</g>
		<g>
			<g>
				<path fill="#552F2E" d="M191.891,434.123c25.228,0,50.456,0,75.683,0c0.487,0,1.562-0.74,0.586-0.74c-25.228,0-50.456,0-75.683,0     C191.99,433.383,190.916,434.123,191.891,434.123L191.891,434.123z"/>
			</g>
		</g>
		<g>
			<g>
				<path fill="#552F2E" d="M156.361,414.162c11.852,0,23.702,0,35.554,0c0.603,0,1.519-0.916,0.538-0.916     c-11.851,0-23.702,0-35.553,0C156.297,413.246,155.381,414.162,156.361,414.162L156.361,414.162z"/>
			</g>
		</g>
		<g>
			<g>
				<path fill="#552F2E" d="M156.562,434.267c11.851,0,23.702,0,35.553,0c0.815,0,1.122-1.026,0.138-1.026     c-11.851,0-23.702,0-35.553,0C155.884,433.239,155.578,434.267,156.562,434.267L156.562,434.267z"/>
			</g>
		</g>
		<g>
			<g>
				<path fill="#552F2E" d="M156.36,454.255c11.851,0,23.702,0,35.553,0c0.596,0,1.522-0.904,0.542-0.904     c-11.851,0-23.702,0-35.553,0C156.306,453.351,155.379,454.255,156.36,454.255L156.36,454.255z"/>
			</g>
		</g>
		<g>
			<g>
				<path fill="#552F2E" d="M267.586,414.116c11.851,0,23.702,0,35.554,0c0.543,0,1.542-0.824,0.563-0.824     c-11.851,0-23.702,0-35.554,0C267.605,413.292,266.606,414.116,267.586,414.116L267.586,414.116z"/>
			</g>
		</g>
		<g>
			<g>
				<path fill="#552F2E" d="M267.803,434.283c11.852,0,23.703,0,35.554,0c0.828,0,1.111-1.062,0.129-1.062     c-11.853,0-23.703,0-35.554,0C267.103,433.223,266.82,434.283,267.803,434.283L267.803,434.283z"/>
			</g>
		</g>
		<g>
			<g>
				<path fill="#552F2E" d="M267.573,454.169c11.852,0,23.703,0,35.554,0c0.483,0,1.563-0.732,0.588-0.732     c-11.852,0-23.703,0-35.554,0C267.678,453.437,266.598,454.169,267.573,454.169L267.573,454.169z"/>
			</g>
		</g>
		<g>
			<rect x="192.184" y="519.982" fill="#EE8F93" width="75.683" height="75.684"/>
			<g>
				<path fill="#552F2E" d="M267.956,594.843c-25.228,0-50.455,0-75.683,0c0.338,0.249,0.676,0.499,1.014,0.748     c0-25.228,0-50.456,0-75.684c-0.397,0.3-0.795,0.599-1.192,0.897c25.228,0,50.455,0,75.683,0     c-0.338-0.249-0.676-0.499-1.014-0.748c0,25.229,0,50.456,0,75.685c0,1.172,2.206,0.866,2.206-0.15c0-25.228,0-50.456,0-75.684     c0-0.575-0.521-0.748-1.014-0.748c-25.228,0-50.455,0-75.683,0c-0.442,0-1.192,0.372-1.192,0.897c0,25.229,0,50.456,0,75.685     c0,0.575,0.521,0.748,1.014,0.748c25.228,0,50.455,0,75.683,0C269.041,596.489,269.428,594.843,267.956,594.843z"/>
			</g>
		</g>
		<g>
			<g>
				<path fill="#552F2E" d="M229.172,520.177c0,25.229,0,50.455,0,75.685c0,0.262,1.449,0.045,1.449-0.39c0-25.228,0-50.455,0-75.684     C230.622,519.526,229.172,519.743,229.172,520.177L229.172,520.177z"/>
			</g>
		</g>
		<g>
			<polygon fill="#FFFFFF" points="156.631,606.753 192.184,596.075 192.184,519.568 156.631,508.895   "/>
			<g>
				<path fill="#552F2E" d="M156.708,607.041c11.851-3.56,23.702-7.118,35.553-10.678c0.22-0.066,0.647-0.191,0.647-0.482     c0-25.502,0-51.004,0-76.507c-0.026-0.063-0.072-0.102-0.138-0.118c-11.851-3.559-23.702-7.116-35.553-10.674     c-0.327-0.099-1.311,0.035-1.311,0.507c0,32.619,0,65.238,0,97.858c0,0.338,1.449,0.098,1.449-0.39c0-32.618,0-65.237,0-97.857     c-0.437,0.169-0.874,0.338-1.311,0.507c11.472,3.444,22.944,6.889,34.416,10.333c1.912,0.574,0.999,4.133,0.999,6.359     c0,6.612,0,13.226,0,19.839c0,14.798,0,29.596,0,44.394c0,1.693,0,3.386,0,5.078c0,1.564,1.094,0.443-0.49,0.919     c-6.495,1.95-12.99,3.901-19.485,5.853c-4.977,1.494-9.954,2.988-14.931,4.483C155.71,606.718,155.855,607.297,156.708,607.041z"/>
			</g>
		</g>
		<g>
			<polygon fill="#FFFFFF" points="303.421,606.753 267.867,596.075 267.867,519.568 303.421,508.895   "/>
			<g>
				<path fill="#552F2E" d="M304.006,606.435c-11.473-3.444-22.945-6.891-34.417-10.336c-1.907-0.571-0.998-4.115-0.998-6.354     c0-6.613,0-13.228,0-19.839c0-14.798,0-29.597,0-44.395c0-1.692,0-3.386,0-5.078c0-1.567-1.093-0.433,0.492-0.907     c6.495-1.95,12.991-3.9,19.486-5.852c4.804-1.441,9.608-2.885,14.414-4.327c0.75-0.225-0.286-0.56-0.286,0.387     c0,1.133,0,2.265,0,3.396c0,10.842,0,21.685,0,32.525c0,20.431,0,40.859,0,61.291c0,0.353,1.448,0.107,1.448-0.39     c0-32.618,0-65.237,0-97.857c0-0.267-0.694-0.137-0.805-0.104c-11.851,3.559-23.702,7.116-35.554,10.675     c-0.226,0.066-0.645,0.195-0.645,0.491c0,25.502,0,51.004,0,76.507c0.026,0.063,0.072,0.104,0.139,0.125     c11.852,3.559,23.703,7.117,35.554,10.678C303.222,607.188,304.528,606.592,304.006,606.435z"/>
			</g>
		</g>
		<g>
			<g>
				<path fill="#552F2E" d="M191.71,558.104c25.228,0,50.456,0,75.683,0c0.284,0,1.644-0.559,0.948-0.559     c-25.228,0-50.456,0-75.683,0C192.375,557.547,191.015,558.104,191.71,558.104L191.71,558.104z"/>
			</g>
		</g>
		<g>
			<g>
				<path fill="#552F2E" d="M156.364,538.243c11.851,0,23.702,0,35.553,0c0.613,0,1.515-0.933,0.534-0.933     c-11.851,0-23.702,0-35.553,0C156.285,537.312,155.383,538.243,156.364,538.243L156.364,538.243z"/>
			</g>
		</g>
		<g>
			<g>
				<path fill="#552F2E" d="M156.366,558.301c11.851,0,23.702,0,35.553,0c0.625,0,1.51-0.948,0.529-0.948     c-11.851,0-23.702,0-35.553,0C156.27,557.352,155.386,558.301,156.366,558.301L156.366,558.301z"/>
			</g>
		</g>
		<g>
			<g>
				<path fill="#552F2E" d="M156.559,578.376c11.851,0,23.702,0,35.553,0c0.808,0,1.129-1.006,0.144-1.006     c-11.851,0-23.702,0-35.553,0C155.895,577.37,155.574,578.376,156.559,578.376L156.559,578.376z"/>
			</g>
		</g>
		<g>
			<g>
				<path fill="#552F2E" d="M267.577,538.158c11.852,0,23.703,0,35.554,0c0.502,0,1.557-0.763,0.58-0.763     c-11.852,0-23.703,0-35.554,0C267.655,537.396,266.601,538.158,267.577,538.158L267.577,538.158z"/>
			</g>
		</g>
		<g>
			<g>
				<path fill="#552F2E" d="M267.598,558.284c11.851,0,23.702,0,35.554,0c0.603,0,1.519-0.916,0.538-0.916     c-11.852,0-23.703,0-35.555,0C267.533,557.368,266.617,558.284,267.598,558.284L267.598,558.284z"/>
			</g>
		</g>
		<g>
			<g>
				<path fill="#552F2E" d="M267.588,578.293c11.851,0,23.703,0,35.554,0c0.555,0,1.539-0.84,0.56-0.84c-11.851,0-23.703,0-35.554,0     C267.593,577.453,266.608,578.293,267.588,578.293L267.588,578.293z"/>
			</g>
		</g>
		<g>
			<g>
				<path fill="#552F2E" d="M396.154,641.492c-11.781,0-23.563,0-35.345,0c-0.999,0-0.417,0.453-0.267-1.103     c0.233-2.413,0.465-4.826,0.698-7.24c0.739-7.66,1.478-15.32,2.216-22.98c0.648-6.727,1.297-13.452,1.945-20.178     c0.113-1.183,0.228-2.363,0.342-3.546c-0.068,0.7-1.573,0.474,0.62,0.474c1.663,0,3.325,0,4.986,0c6.281,0,12.563,0,18.844,0     c-0.683,0,0.609,10.172,0.747,11.587c1.4,14.528,2.803,29.056,4.203,43.584c0.046,0.467,1.502,0.152,1.449-0.389     c-1.78-18.46-3.561-36.92-5.341-55.38c-0.017-0.173-0.321-0.209-0.44-0.209c-8.502,0-17.004,0-25.506,0     c-0.266,0-0.972,0.131-1.007,0.496c-1.78,18.46-3.561,36.92-5.34,55.38c-0.024,0.246,0.241,0.311,0.44,0.311     c12.062,0,24.124,0,36.187,0C396.118,642.299,397.133,641.492,396.154,641.492z"/>
			</g>
		</g>
		<g>
			<circle fill="#ED818D" cx="377.776" cy="582.911" r="12.752"/>
			<g>
				<path fill="#552F2E" d="M389.809,583.019c-0.425,7.888-6.837,14.055-15.478,11.68c-4.823-1.326-7.75-5.937-8.508-10.59     c-1.386-8.504,7.28-15.209,15.398-12.979c5.341,1.467,8.305,6.8,8.582,11.978c0.021,0.373,1.476,0.1,1.449-0.39     c-0.923-17.142-26.045-16.485-26.949,0.302c-0.925,17.176,26.041,16.582,26.944-0.215     C391.276,582.298,389.831,582.611,389.809,583.019z"/>
			</g>
		</g>
		<g>
			<g>
				<path fill="#552F2E" d="M699.146,638.672c-46.036,0-92.074,0-138.112,0c-1.068,0-0.305-0.036-0.305,0.256     c0-0.421,0-0.843,0-1.264c0-2.168,0-4.336,0-6.504c0-8.861,0-17.724,0-26.585c0-29.189,0-58.38,0-87.569     c0-51.178,0-102.355,0-153.533c0-1.102,0-2.203,0-3.306c0,0.617-1.784,0.489,0.108,0.489c1.32,0,2.64,0,3.959,0     c11.608,0,23.217,0,34.825,0c29.528,0,59.059,0,88.587,0c3.152,0,6.304,0,9.455,0c1.163,0,0.478-0.658,0.478,0.857     c0,5.795,0,11.592,0,17.387c0,26.018,0,52.033,0,78.05c0,56.658,0,113.314,0,169.974c0,4.085,0,8.171,0,12.256     c0,0.619,1.451,0.313,1.451-0.176c0-43.317,0-86.634,0-129.951c0-49.078,0-98.156,0-147.236c0-0.556,0-1.111,0-1.668     c0-0.248-0.219-0.332-0.446-0.332c-46.036,0-92.074,0-138.112,0c-0.25,0-0.5,0-0.75,0s-1.005,0.135-1.005,0.508     c0,43.318,0,86.635,0,129.952c0,49.077,0,98.156,0,147.235c0,0.557,0,1.112,0,1.668c0,0.248,0.219,0.332,0.445,0.332     c46.037,0,92.075,0,138.113,0c0.25,0,0.5,0,0.75,0C699.142,639.512,700.128,638.672,699.146,638.672z"/>
			</g>
		</g>
		<g opacity="0.4">
			<rect x="480.977" y="381.688" fill="#E5DEDE" width="60.963" height="257.404"/>
			<g>
				<path fill="#552F2E" d="M542.205,638.621c-11.482,0-22.965,0-34.447,0c-7.013,0-14.025,0-21.04,0c-1.65,0-3.303,0-4.954,0     c-0.813,0-0.058,0.742-0.058-0.013c0-16.448,0-32.896,0-49.347c0-60.164,0-120.329,0-180.494c0-7.769,0-15.537,0-23.307     c0-1.268,0-2.534,0-3.802c0,0.183-1.546,0.497-0.659,0.497c0.557,0,1.112,0,1.669,0c2.507,0,5.015,0,7.521,0     c14.903,0,29.808,0,44.711,0c1.907,0,3.813,0,5.722,0c1.298,0,0.541-0.348,0.541-0.148c0,1.579,0,3.159,0,4.739     c0,53.872,0,107.745,0,161.618c0,30.266,0,60.531,0,90.798c0,0.69,1.459,0.421,1.459-0.146c0-45.062,0-90.123,0-135.186     c0-40.74,0-81.479,0-122.221c0-0.256-0.215-0.397-0.464-0.397c-20.32,0-40.642,0-60.962,0c-0.287,0-0.996,0.128-0.996,0.543     c0,45.063,0,90.124,0,135.186c0,40.739,0,81.479,0,122.221c0,0.256,0.215,0.397,0.464,0.397c20.321,0,40.641,0,60.962,0     C542.294,639.563,543.186,638.621,542.205,638.621z"/>
			</g>
		</g>
		<g>
			<path fill="#EB87B4" d="M686.483,434.431c0,12.934-10.493,23.43-23.429,23.43c-12.935,0-23.426-10.496-23.426-23.43    c0-12.937,10.491-23.425,23.426-23.425C675.99,411.006,686.483,421.494,686.483,434.431z"/>
		</g>
		<g>
			<path fill="#EB87B4" d="M639.63,434.431c0,12.934-10.491,23.43-23.426,23.43c-12.936,0-23.426-10.496-23.426-23.43    c0-12.937,10.49-23.425,23.426-23.425C629.139,411.006,639.63,421.494,639.63,434.431z"/>
		</g>
		<g>
			<path fill="#EB87B4" d="M592.778,434.431c0,12.934-10.491,23.43-23.427,23.43c-12.935,0-23.429-10.496-23.429-23.43    c0-12.937,10.494-23.425,23.429-23.425C582.287,411.006,592.778,421.494,592.778,434.431z"/>
		</g>
		<g>
			<path fill="#EB87B4" d="M545.924,434.431c0,12.934-10.49,23.43-23.425,23.43c-12.936,0-23.426-10.496-23.426-23.43    c0-12.937,10.49-23.425,23.426-23.425C535.434,411.006,545.924,421.494,545.924,434.431z"/>
		</g>
		<g>
			<path fill="#EB87B4" d="M499.073,434.431c0,12.934-10.491,23.43-23.426,23.43c-12.936,0-23.427-10.496-23.427-23.43    c0-12.937,10.491-23.425,23.427-23.425C488.582,411.006,499.073,421.494,499.073,434.431z"/>
		</g>
		<g>
			<path fill="#EB87B4" d="M452.222,434.431c0,12.934-10.49,23.43-23.428,23.43c-12.935,0-23.426-10.496-23.426-23.43    c0-12.937,10.491-23.425,23.426-23.425C441.73,411.006,452.222,421.494,452.222,434.431z"/>
		</g>
		<g>
			<path fill="#EB87B4" d="M405.368,434.431c0,12.934-10.491,23.43-23.426,23.43s-23.427-10.496-23.427-23.43    c0-12.937,10.492-23.425,23.427-23.425C394.876,411.006,405.368,421.494,405.368,434.431z"/>
		</g>
		<g>
			<g>
				<path fill="#552F2E" d="M683.825,436.748c-0.385,13.3-10.912,23.483-24.313,23.096c-12.361-0.356-21.467-11.316-21.809-23.147     c-0.385-13.323,11.514-23.462,24.313-23.093C674.38,413.961,683.483,424.917,683.825,436.748     c0.011,0.386,0.744,0.277,0.733-0.053c-0.365-12.67-10.563-24.049-23.763-23.668c-13.187,0.381-23.442,10.483-23.826,23.721     c-0.366,12.688,11.108,24.038,23.765,23.672c13.187-0.382,23.441-10.49,23.824-23.725     C684.57,436.312,683.835,436.415,683.825,436.748z"/>
			</g>
		</g>
		<g>
			<g>
				<path fill="#552F2E" d="M636.97,436.745c-0.371,12.835-10.138,22.754-23.027,23.127c-12.87,0.372-22.731-10.901-23.087-23.174     c-0.37-12.833,10.709-22.767,23.029-23.123C626.755,413.204,636.615,424.472,636.97,436.745c0.013,0.396,0.746,0.296,0.736-0.047     c-0.383-13.254-10.558-23.3-23.765-23.681c-13.189-0.381-23.456,11.073-23.822,23.728c-0.383,13.249,11.127,23.318,23.766,23.684     c13.189,0.382,23.455-11.078,23.821-23.729C637.717,436.304,636.979,436.399,636.97,436.745z"/>
			</g>
		</g>
		<g>
			<g>
				<path fill="#552F2E" d="M590.12,436.75c-0.384,13.302-10.906,23.487-24.31,23.1c-12.37-0.356-21.469-11.323-21.811-23.155     c-0.386-13.325,11.509-23.466,24.311-23.097C580.683,413.955,589.778,424.917,590.12,436.75c0.012,0.379,0.743,0.264,0.733-0.057     c-0.365-12.67-10.565-24.041-23.76-23.659c-13.185,0.381-23.444,10.479-23.828,23.716c-0.365,12.689,11.108,24.028,23.763,23.663     c13.185-0.382,23.442-10.486,23.825-23.72C590.865,436.316,590.13,436.427,590.12,436.75z"/>
			</g>
		</g>
		<g>
			<g>
				<path fill="#552F2E" d="M543.268,436.754c-0.384,13.3-10.895,23.496-24.307,23.108c-12.366-0.357-21.472-11.343-21.813-23.173     c-0.387-13.323,11.499-23.476,24.308-23.104C533.821,413.941,542.926,424.922,543.268,436.754     c0.012,0.363,0.74,0.236,0.732-0.063c-0.367-12.673-10.561-24.022-23.756-23.643c-13.178,0.382-23.446,10.47-23.829,23.706     c-0.366,12.691,11.104,24.011,23.757,23.646c13.178-0.383,23.445-10.476,23.828-23.71     C544.01,436.328,543.277,436.449,543.268,436.754z"/>
			</g>
		</g>
		<g>
			<g>
				<path fill="#552F2E" d="M496.42,436.771c-0.396,13.744-11.644,24.248-25.571,23.036c-11.339-0.985-19.569-10.925-20.517-21.807     c-1.242-14.282,11.767-25.559,25.53-24.361c11.881,1.032,20.228,11.772,20.557,23.18c0.006,0.205,0.732,0.067,0.725-0.193     c-0.396-13.702-11.396-23.873-25.02-23.479c-12.645,0.364-22.202,11.403-22.555,23.626     c-0.397,13.739,11.938,23.907,25.018,23.529c12.646-0.366,22.202-11.409,22.556-23.63     C497.15,436.395,496.427,436.553,496.42,436.771z"/>
			</g>
		</g>
		<g>
			<g>
				<path fill="#552F2E" d="M449.569,436.771c-0.397,13.749-11.645,24.246-25.574,23.034c-11.34-0.986-19.569-10.921-20.517-21.804     c-1.242-14.288,11.771-25.556,25.531-24.358c11.881,1.033,20.229,11.769,20.559,23.177c0.006,0.213,0.731,0.073,0.725-0.193     c-0.396-13.702-11.398-23.877-25.021-23.483c-12.646,0.365-22.201,11.408-22.555,23.63     c-0.396,13.739,11.938,23.912,25.021,23.534c12.645-0.364,22.203-11.412,22.556-23.633     C450.3,436.389,449.575,436.545,449.569,436.771z"/>
			</g>
		</g>
		<g>
			<g>
				<path fill="#552F2E" d="M402.715,436.818c-0.425,14.713-13.313,25.606-28.137,22.572c-10.684-2.187-17.688-12.273-17.991-22.767     c-0.429-14.825,14.091-25.442,28.136-22.569C395.407,416.241,402.412,426.326,402.715,436.818     c0.003,0.123,0.73,0.009,0.726-0.193c-0.412-14.235-12.275-24.54-26.363-23.314c-12.078,1.051-20.875,11.754-21.214,23.509     c-0.413,14.282,12.877,24.491,26.362,23.318c12.078-1.051,20.875-11.759,21.215-23.513     C403.442,436.515,402.721,436.608,402.715,436.818z"/>
			</g>
		</g>
		<g>
			<g>
				<path fill="#FFFFFF" d="M576.346,377.881c34.998,0,69.996,0,104.993,0c0.938,0,3.134-1.42,1.188-1.42     c-34.998,0-69.996,0-104.993,0C576.597,376.461,574.398,377.881,576.346,377.881L576.346,377.881z"/>
			</g>
		</g>
		<g opacity="0.4">
			<g>
				<path fill="#552F2E" d="M492.451,470.89c15.712,0,31.424,0,47.136,0c0.591,0,3.297-1.157,1.887-1.157     c-15.712,0-31.424,0-47.136,0C493.746,469.731,491.041,470.89,492.451,470.89L492.451,470.89z"/>
			</g>
		</g>
		<g opacity="0.4">
			<g>
				<path fill="#552F2E" d="M492.871,401.852c15.712,0,31.424,0,47.136,0c1.279,0,3.007-1.943,1.047-1.943     c-15.712,0-31.424,0-47.136,0C492.639,399.907,490.911,401.852,492.871,401.852L492.871,401.852z"/>
			</g>
		</g>
		<g opacity="0.4">
			<g>
				<path fill="#552F2E" d="M492.871,508.537c15.712,0,31.424,0,47.136,0c1.277,0,3.007-1.939,1.047-1.939     c-15.712,0-31.424,0-47.136,0C492.641,506.598,490.911,508.537,492.871,508.537L492.871,508.537z"/>
			</g>
		</g>
		<g opacity="0.4">
			<g>
				<path fill="#552F2E" d="M492.867,527.153c15.712,0,31.424,0,47.136,0c1.262,0,3.015-1.916,1.055-1.916     c-15.712,0-31.424,0-47.136,0C492.66,525.237,490.907,527.153,492.867,527.153L492.867,527.153z"/>
			</g>
		</g>
		<g>
			<g>
				<path fill="#552F2E" d="M435.344,639.377c35.884,0,71.769,0,107.651,0c63.623,0,127.245,0,190.867,0c26.563,0,53.125,0,79.688,0     c0.29,0,1.646-0.57,0.945-0.57c-35.884,0-71.769,0-107.651,0c-63.623,0-127.245,0-190.867,0c-26.563,0-53.125,0-79.688,0     C435.999,638.807,434.643,639.377,435.344,639.377L435.344,639.377z"/>
			</g>
		</g>
		<g>
			<rect x="632.821" y="507.001" fill="#EEECAD" width="102.736" height="28.226"/>
			<g>
				<path fill="#552E2E" d="M736.256,534.756c-23.758,0-47.517,0-71.275,0c-10.223,0-20.445,0-30.669,0     c-1.119,0-0.402,0.296-0.402-0.877c0-3.213,0-6.427,0-9.641c0-5.844,0-11.687,0-17.528c-0.595,0.254-1.189,0.508-1.784,0.762     c23.759,0,47.517,0,71.275,0c10.223,0,20.445,0,30.669,0c1.12,0,0.402-0.296,0.402,0.877c0,3.213,0,6.428,0,9.642     c0,5.843,0,11.686,0,17.527c0,0.417,2.175,0.085,2.175-0.581c0-9.408,0-18.817,0-28.227c0-0.141-0.313-0.18-0.391-0.18     c-34.246,0-68.491,0-102.737,0c-0.418,0-1.783,0.14-1.783,0.762c0,9.409,0,18.817,0,28.226c0,0.142,0.313,0.181,0.39,0.181     c34.246,0,68.491,0,102.737,0C735.351,535.697,737.349,534.756,736.256,534.756z"/>
			</g>
		</g>
		<g>
			<rect x="651.45" y="535.227" fill="#F1A3A5" width="65.479" height="103.865"/>
			<g>
				<path fill="#552F2E" d="M717.358,638.492c-11.079,0-22.158,0-33.236,0c-7.522,0-15.044,0-22.565,0c-2.342,0-4.685,0-7.025,0     c-0.653,0-1.308,0-1.96,0c-1.183,0-0.033-0.049-0.033,0.258c0-25.031,0-50.063,0-75.095c0-9.573,0-19.146,0-28.721     c-0.505,0.298-1.01,0.595-1.516,0.892c11.079,0,22.158,0,33.236,0c7.522,0,15.044,0,22.565,0c2.342,0,4.685,0,7.025,0     c0.653,0,1.308,0,1.96,0c1.183,0,0.033,0.049,0.033-0.258c0,25.03,0,50.063,0,75.095c0,9.573,0,19.146,0,28.72     c0,0.646,2.174,0.243,2.174-0.582c0-34.622,0-69.244,0-103.864c0-0.257-0.504-0.31-0.658-0.31c-21.827,0-43.654,0-65.48,0     c-0.514,0-1.515,0.233-1.515,0.892c0,34.621,0,69.243,0,103.864c0,0.256,0.504,0.31,0.658,0.31c21.827,0,43.654,0,65.48,0     C717.293,639.691,718.826,638.492,717.358,638.492z"/>
			</g>
		</g>
	</g>
</g>

<g class="p7_UI">
	<g>
		<path fill="#67E4B3" d="M282.051,256.289c0,5.5-4.5,10-10,10h-58.393c-5.5,0-10-4.5-10-10v-58.395c0-5.5,4.5-10,10-10h58.393    c5.5,0,10,4.5,10,10V256.289z"/>
	</g>
	<g>
		
		<image xmlns="http://www.w3.org/2000/svg" overflow="visible" width="66" height="49" xmlns:xlink="http://www.w3.org/1999/xlink" xlink:href="./images/UI.png" transform="matrix(1 0 0 1 205.0361 198.4707)">
		</image>

	</g>
	<g>
		<g>
			<path fill="#552F2E" d="M276.604,254.479c-0.649,9.566-8.697,9.016-15.66,9.016c-7.505,0-15.01,0-22.514,0     c-7.291,0-14.581,0-21.872,0c-6.645,0-13.641,0.111-15.359-8.239c-0.771-3.746-0.092-8.233-0.092-12.013     c0-7.83,0-15.661,0-23.491c0-6.759,0-13.521,0-20.277c0-6.064,1.015-12.776,9.031-12.776c11.685,0,23.37,0,35.055,0     c5.925,0,11.851,0,17.776,0c6.154,0,12.027,0.882,13.541,8.237c0.626,3.044,0.092,6.675,0.092,9.741c0,6.604,0,13.208,0,19.813     c0,10.063,0,20.128,0,30.19c0,0.857,2.897,0.32,2.897-0.775c0-11.711,0-23.422,0-35.133c0-6.604,0-13.21,0-19.813     c0-5.958-1.264-11.159-7.641-13.386c-3.4-1.188-8.129-0.472-11.626-0.472c-7.599,0-15.198,0-22.797,0c-7.17,0-14.341,0-21.512,0     c-4.32,0-8.196-0.252-12.195,1.765c-5.085,2.561-5.52,7.929-5.52,12.868c0,6.604,0,13.211,0,19.813c0,11.711,0,23.421,0,35.132     c0,14.141,21.519,10.408,30.293,10.408c12.875,0,25.751,0,38.627,0c6.501,0,11.918-4.355,12.368-10.986     C279.576,252.953,276.668,253.543,276.604,254.479z"/>
		</g>
	</g>
</g>
<g class="p7_bub">
	<g opacity="0.3">
		<path fill="#7EC2EB" d="M797.283,66.824c0.179-17.822-14.127-32.412-31.949-32.59c-17.824-0.177-32.411,14.126-32.59,31.949    c-0.056,5.65,1.347,10.973,3.853,15.618l27.99,54.35l28.931-54.528C795.869,77.206,797.229,72.177,797.283,66.824z"/>
	</g>
	<g>
		<g>
			<g>
				<path fill="#552F2E" d="M794.998,67.608c-0.23-20.371-18.078-35.133-38.063-32.336c-20.373,2.851-32.36,24.293-26.02,43.333      c1.252,3.758,3.53,7.427,5.34,10.943c3.231,6.271,6.46,12.544,9.691,18.815c4.971,9.648,9.939,19.297,14.906,28.948      c0.235,0.453,1.272,0.056,1.447-0.287c5.521-10.403,11.041-20.808,16.563-31.209C785.021,94.198,794.497,81.116,794.998,67.608      c0.016-0.356-1.434-0.136-1.451,0.374c-0.497,13.395-10.021,26.519-16.132,38.031c-5.519,10.402-11.036,20.806-16.556,31.208      c0.48-0.094,0.964-0.19,1.447-0.287c-9.08-17.629-18.162-35.259-27.239-52.889c-8.365-16.244-4.361-35.557,12.128-44.846      c21.303-12.005,46.092,6,46.352,28.784C793.551,68.356,795.004,68.11,794.998,67.608z"/>
			</g>
		</g>
		<g>
			<path fill="#8BCDC3" d="M768.813,144.773c-0.022,2.19-1.833,3.963-4.021,3.94l-7.188-0.072c-2.193-0.021-3.965-1.83-3.942-4.019     l0.069-7.08l15.153,0.149L768.813,144.773L768.813,144.773z"/>
			<g>
				<path fill="#552E2E" d="M768.087,144.958c-0.388,3.483-3.152,3.468-5.819,3.441c-1.995-0.02-4.371,0.318-6.197-0.697      c-2.804-1.565-1.641-7.748-1.615-10.348c-0.4,0.158-0.8,0.315-1.2,0.473c4.028,0.04,8.054,0.08,12.081,0.12      c0.869,0.008,1.736,0.017,2.604,0.026c0.601,0.005,0.218,0.002,0.208,0.799C768.128,140.836,768.107,142.896,768.087,144.958      c-0.004,0.226,1.446,0.035,1.45-0.374c0.025-2.359,0.047-4.721,0.071-7.081c0.002-0.087-0.21-0.098-0.249-0.098      c-5.054-0.05-10.104-0.101-15.153-0.15c-0.249-0.002-1.197,0.099-1.2,0.473c-0.041,4.179-1.44,11.144,4.657,11.205      c4.042,0.04,11.236,1.424,11.878-4.349C769.563,144.407,768.137,144.529,768.087,144.958z"/>
			</g>
		</g>
		<g>
			<g>
				<path fill="#552F2E" d="M760.584,137.306c-0.038,3.854-0.079,7.707-0.116,11.56c0,0.386,1.449,0.145,1.454-0.375      c0.039-3.854,0.077-7.707,0.112-11.56C762.043,136.547,760.589,136.787,760.584,137.306L760.584,137.306z"/>
			</g>
		</g>
		<g>
			<g>
				<path fill="#552F2E" d="M748.309,113.28c8.61,0.085,17.221,0.171,25.828,0.256c1.082,0.011,3.104-1.61,1.145-1.629      c-8.607-0.085-17.219-0.171-25.828-0.256C748.374,111.642,746.35,113.262,748.309,113.28L748.309,113.28z"/>
			</g>
		</g>
		<g>
			<g>
				<path fill="#552F2E" d="M750.896,118.147c6.792,0.067,13.588,0.135,20.384,0.204c0.863,0.008,3.166-1.281,1.226-1.302      c-6.792-0.067-13.589-0.134-20.383-0.202C751.258,116.838,748.956,118.127,750.896,118.147L750.896,118.147z"/>
			</g>
		</g>
		<g>
			<g>
				<path fill="#552F2E" d="M753.47,123.258c5.062,0.051,10.12,0.101,15.183,0.151c0.97,0.01,3.138-1.445,1.185-1.464      c-5.061-0.05-10.12-0.1-15.181-0.15C753.684,121.786,751.519,123.238,753.47,123.258L753.47,123.258z"/>
			</g>
		</g>
	</g>
</g>
<g class="p7_mask"> 
<rect  x="0.847" y="0.527" opacity="0.8" fill="#66BAED" width="960" height="641.001"/>
</g>
<text class="p7_text" xmlns="http://www.w3.org/2000/svg" transform="matrix(1 0 0 1 420.5054 135.2285)"><tspan x="0" y="0" fill="#FFFFFF" font-family="'DFPShaoNvW5'" font-size="62.035">鸣谢</tspan><tspan x="-71.516" y="90" fill="#FFFFFF" font-family="'DFPShaoNvW5'" font-size="31.0175">策划：杨兰/ 邓丽玲</tspan><tspan x="-35.106" y="180" fill="#FFFFFF" font-family="'DFPShaoNvW5'" font-size="31.0175">文案：XXX   </tspan><tspan x="-87.024" y="270" fill="#FFFFFF" font-family="'DFPShaoNvW5'" font-size="31.0175">插画：邓丽玲/ 汤倩怡</tspan><tspan x="-31.017" y="360" fill="#FFFFFF" font-family="'DFPShaoNvW5'" font-size="31.0175">前端：曾艳玲</tspan></text>

<g class="p7_static">
	<g>
		<g xmlns="http://www.w3.org/2000/svg">
			<polyline fill="none" stroke="#FFFFFF" stroke-width="0.75" stroke-miterlimit="10" points="678.013,188.617 676.247,183.938      678.013,188.617    "/>
			
				<line fill="none" stroke="#FFFFFF" stroke-width="0.75" stroke-miterlimit="10" stroke-dasharray="10.1394,10.1394" x1="681.592" y1="198.103" x2="830.152" y2="591.79"/>
			<polyline fill="none" stroke="#FFFFFF" stroke-width="0.75" stroke-miterlimit="10" points="831.942,596.533 833.708,601.211      831.942,596.533    "/>
			
				<line fill="none" stroke="#FFFFFF" stroke-width="0.75" stroke-miterlimit="10" stroke-dasharray="10.1394,10.1394" x1="828.363" y1="587.047" x2="679.803" y2="193.36"/>
		</g>
		<g xmlns="http://www.w3.org/2000/svg">
			<polyline fill="none" stroke="#FFFFFF" stroke-width="0.75" stroke-miterlimit="10" points="665.544,364.703 670.544,364.703      665.544,364.703    "/>
			
				<line fill="none" stroke="#FFFFFF" stroke-width="0.75" stroke-miterlimit="10" stroke-dasharray="10.1366,10.1366" x1="655.407" y1="364.703" x2="336.105" y2="364.702"/>
			<polyline fill="none" stroke="#FFFFFF" stroke-width="0.75" stroke-miterlimit="10" points="331.037,364.702 326.037,364.702      331.037,364.702    "/>
			
				<line fill="none" stroke="#FFFFFF" stroke-width="0.75" stroke-miterlimit="10" stroke-dasharray="10.1366,10.1366" x1="341.174" y1="364.702" x2="660.476" y2="364.703"/>
		</g>
		<g xmlns="http://www.w3.org/2000/svg">
			
				<line fill="none" stroke="#FFFFFF" stroke-width="0.75" stroke-miterlimit="10" x1="317.935" y1="641.896" x2="317.935" y2="636.896"/>
			
				<line fill="none" stroke="#FFFFFF" stroke-width="0.75" stroke-miterlimit="10" stroke-dasharray="9.9518,9.9518" x1="317.935" y1="626.943" x2="317.935" y2="154.234"/>
			
				<line fill="none" stroke="#FFFFFF" stroke-width="0.75" stroke-miterlimit="10" x1="317.935" y1="149.258" x2="317.935" y2="144.258"/>
		</g>
		<g xmlns="http://www.w3.org/2000/svg">
			
				<line fill="none" stroke="#FFFFFF" stroke-width="0.75" stroke-miterlimit="10" x1="960.004" y1="450.271" x2="955.411" y2="448.296"/>
			
				<line fill="none" stroke="#FFFFFF" stroke-width="0.75" stroke-miterlimit="10" stroke-dasharray="9.4132,9.4132" x1="946.764" y1="444.577" x2="847.32" y2="401.806"/>
			<polyline fill="none" stroke="#FFFFFF" stroke-width="0.75" stroke-miterlimit="10" points="842.996,399.946 838.403,397.971      838.403,402.971    "/>
			
				<line fill="none" stroke="#FFFFFF" stroke-width="0.75" stroke-miterlimit="10" stroke-dasharray="10.3379,10.3379" x1="838.403" y1="413.309" x2="838.399" y2="635.573"/>
			<polyline fill="none" stroke="#FFFFFF" stroke-width="0.75" stroke-miterlimit="10" points="838.399,640.742 838.399,645.742      838.399,640.742    "/>
			
				<line fill="none" stroke="#FFFFFF" stroke-width="0.75" stroke-miterlimit="10" stroke-dasharray="10.0744,10.0744" x1="838.399" y1="630.668" x2="838.399" y2="11.092"/>
			<polyline fill="none" stroke="#FFFFFF" stroke-width="0.75" stroke-miterlimit="10" points="838.399,6.055 838.399,1.055      838.399,6.055    "/>
			
				<line fill="none" stroke="#FFFFFF" stroke-width="0.75" stroke-miterlimit="10" stroke-dasharray="9.9602,9.9602" x1="838.399" y1="16.015" x2="838.399" y2="250.081"/>
			<polyline fill="none" stroke="#FFFFFF" stroke-width="0.75" stroke-miterlimit="10" points="838.399,255.061 838.399,260.061      842.993,258.086    "/>
			
				<line fill="none" stroke="#FFFFFF" stroke-width="0.75" stroke-miterlimit="10" stroke-dasharray="9.412,9.412" x1="851.641" y1="254.37" x2="951.083" y2="211.63"/>
			
				<line fill="none" stroke="#FFFFFF" stroke-width="0.75" stroke-miterlimit="10" x1="955.406" y1="209.772" x2="960" y2="207.798"/>
		</g>
		<g xmlns="http://www.w3.org/2000/svg">
			
				<line fill="none" stroke="#FFFFFF" stroke-width="0.75" stroke-miterlimit="10" x1="-21.563" y1="155.959" x2="-16.563" y2="155.959"/>
			
				<line fill="none" stroke="#FFFFFF" stroke-width="0.75" stroke-miterlimit="10" stroke-dasharray="10.0926,10.0926" x1="-6.471" y1="155.959" x2="230.705" y2="155.96"/>
			<polyline fill="none" stroke="#FFFFFF" stroke-width="0.75" stroke-miterlimit="10" points="235.751,155.96 240.751,155.96      235.751,155.96    "/>
			
				<line fill="none" stroke="#FFFFFF" stroke-width="0.75" stroke-miterlimit="10" stroke-dasharray="10.0454,10.0454" x1="225.706" y1="155.96" x2="150.365" y2="155.961"/>
			<polyline fill="none" stroke="#FFFFFF" stroke-width="0.75" stroke-miterlimit="10" points="145.343,155.961 140.343,155.961      140.343,160.961    "/>
			
				<line fill="none" stroke="#FFFFFF" stroke-width="0.75" stroke-miterlimit="10" stroke-dasharray="10.1285,10.1285" x1="140.343" y1="171.089" x2="140.343" y2="631.937"/>
			
				<line fill="none" stroke="#FFFFFF" stroke-width="0.75" stroke-miterlimit="10" x1="140.343" y1="637.001" x2="140.343" y2="642.001"/>
		</g>
		<g xmlns="http://www.w3.org/2000/svg">
			
				<line fill="none" stroke="#FFFFFF" stroke-width="0.75" stroke-miterlimit="10" x1="488.759" y1="640.57" x2="488.759" y2="635.57"/>
			
				<line fill="none" stroke="#FFFFFF" stroke-width="0.75" stroke-miterlimit="10" stroke-dasharray="10.1184,10.1184" x1="488.759" y1="625.452" x2="488.759" y2="165.064"/>
			<polyline fill="none" stroke="#FFFFFF" stroke-width="0.75" stroke-miterlimit="10" points="488.759,160.005 488.759,155.005      493.759,155.005    "/>
			
				<line fill="none" stroke="#FFFFFF" stroke-width="0.75" stroke-miterlimit="10" stroke-dasharray="9.6344,9.6344" x1="503.394" y1="155.005" x2="652.727" y2="155.004"/>
			<polyline fill="none" stroke="#FFFFFF" stroke-width="0.75" stroke-miterlimit="10" points="657.544,155.004 662.544,155.004      662.544,160.004    "/>
			
				<line fill="none" stroke="#FFFFFF" stroke-width="0.75" stroke-miterlimit="10" stroke-dasharray="9.9244,9.9244" x1="662.544" y1="169.928" x2="662.544" y2="621.488"/>
			
				<line fill="none" stroke="#FFFFFF" stroke-width="0.75" stroke-miterlimit="10" x1="662.544" y1="626.45" x2="662.544" y2="631.45"/>
		</g>
	</g>

	<g xmlns="http://www.w3.org/2000/svg">
		<path fill="#E47274" d="M240.905,125.774c0.143-0.711,0.221-1.446,0.221-2.197v-10.56c0-6.141-4.977-11.115-11.117-11.115h-17.782    c-0.576,0-1.139,0.057-1.691,0.141c-0.068,0-13.314-0.095-13.314,15.981v7.501h-5.973c-4.066,0-7.365,3.298-7.365,7.364    c0,4.067,3.299,7.364,7.365,7.364h6.529c0-3.068,2.488-5.557,5.559-5.557c3.068,0,5.557,2.488,5.557,5.557h18.34    c0-3.068,2.488-5.557,5.559-5.557c3.068,0,5.557,2.488,5.557,5.557h0.695c4.066,0,7.363-3.297,7.363-7.364    C246.405,129.468,244.068,126.601,240.905,125.774z"/>
		<path fill="#E47274" d="M231.677,102.185c0,3.223-2.613,5.836-5.834,5.836h-12.227c-3.225,0-5.836-2.613-5.836-5.836l0,0    c0-3.224,2.611-5.837,5.836-5.837h12.227C229.065,96.348,231.677,98.962,231.677,102.185L231.677,102.185z"/>
		<g>
			<g>
				<path fill="#552F2E" d="M206.98,101.988c0.644-6.386,7.293-5.324,11.857-5.324c4.482,0,9.985-0.396,10.589,5.604      c0.051,0.506,1.507,0.183,1.449-0.389c-0.727-7.208-8.021-6.068-13.311-6.068c-5.142,0-11.355-0.408-12.036,6.348      C205.466,102.769,206.927,102.499,206.98,101.988L206.98,101.988z"/>
			</g>
		</g>
		<circle fill="#E5DEDE" cx="203.336" cy="140.254" r="3.891"/>
		<circle fill="#E5DEDE" cx="232.79" cy="140.254" r="3.89"/>
		<g>
			<g>
				<path fill="#552F2E" d="M209.134,102.145c0,7.69,0,15.381,0,23.071c0,0.698,1.46,0.432,1.46-0.142c0-7.69,0-15.381,0-23.071      C210.594,101.305,209.134,101.571,209.134,102.145L209.134,102.145z"/>
			</g>
		</g>
		<path fill="none" stroke="#552F2E" stroke-width="0.5" stroke-miterlimit="10" d="M223.482,99.791"/>
		<g>
			<g>
				<path fill="#552F2E" d="M226.427,125.22c0-7.875,0-15.749,0-23.624c0-0.415-1.449-0.151-1.449,0.389c0,7.875,0,15.749,0,23.624      C224.979,126.024,226.427,125.76,226.427,125.22L226.427,125.22z"/>
			</g>
		</g>
		<g>
			<g>
				<path fill="#552F2E" d="M245.602,132.584c-0.577-2.993-1.65-5.072-4.269-6.713c-1.439-0.902-1.01-2.803-1.01-4.249      c0-4.515,0.665-9.555-1.13-13.799c-3.593-8.497-15.446-6.396-22.688-6.396c-5.078,0-10.043-0.27-14.616,2.299      c-7.822,4.394-6.919,14.213-6.919,21.882c0.34-0.186,0.68-0.372,1.019-0.558c-5.906,0-12.305-0.518-14.234,6.509      c-2.471,8.999,8.834,8.945,14.2,8.945c0.241,0,0.977-0.136,1.015-0.469c0.721-6.252,8.988-5.63,9.67,0.3      c0.019,0.163,0.325,0.169,0.43,0.169c6.113,0,12.227,0,18.34,0c0.241,0,0.977-0.136,1.015-0.469      c0.72-6.253,8.989-5.63,9.672,0.3c0.013,0.108,0.192,0.152,0.271,0.16C241.714,141.059,245.994,138.28,245.602,132.584      c-0.027-0.391-1.483-0.104-1.449,0.389c0.266,3.854-1.313,6.55-5.494,6.842c-2.223,0.155-0.893-1.928-2.383-3.418      c-2.633-2.632-5.877-2.698-8.927-0.759c-0.369,0.235-3.729,4.142-1.419,4.142c-1.189,0-2.378,0-3.567,0      c-4.18,0-8.359,0-12.539,0c-1.854,0-1.702,0.459-1.882-1.105c-0.257-2.235-2.395-3.593-4.276-4.266      c-2.924-1.045-6.031,0.964-7.519,3.302c-0.135,0.212-1.125,2.069,0.214,2.069c-1.028,0-2.055,0-3.083,0      c-3.257,0-6.003-0.014-8.513-2.525c-4.303-4.304-0.296-11.476,5.413-11.476c1.741,0,3.482,0,5.223,0      c0.303,0,1.019-0.154,1.019-0.558c0-6.888-0.878-14.733,4.633-19.904c3.586-3.365,8.564-3.162,13.111-3.162      c6.759,0,16.097-1.686,21.504,3.161c4.64,4.16,3.84,14.789,2.993,20.455c-0.017,0.111,0.029,0.177,0.136,0.217      c3.31,1.234,4.714,3.646,5.357,6.987C244.234,133.397,245.691,133.047,245.602,132.584z"/>
			</g>
		</g>
		<g>
			<g>
				<path fill="#552F2E" d="M204.976,140.243c-0.109,2.026-1.552,3.882-3.817,3.26c-1.43-0.393-2.271-1.755-2.496-3.131      c-0.352-2.161,1.621-4.188,3.792-3.591c1.588,0.437,2.436,2.022,2.518,3.555c0.022,0.412,1.477,0.127,1.449-0.389      c-0.305-5.655-8.939-5.061-9.228,0.295c-0.307,5.704,8.934,5.203,9.225-0.202C206.447,139.498,204.999,139.807,204.976,140.243z      "/>
			</g>
		</g>
		<g>
			<g>
				<path fill="#552F2E" d="M234.429,140.249c-0.108,2.005-1.502,3.901-3.813,3.266c-1.431-0.394-2.274-1.768-2.499-3.143      c-0.349-2.145,1.592-4.207,3.788-3.603c1.589,0.437,2.437,2.035,2.52,3.567c0.021,0.377,1.476,0.102,1.449-0.389      c-0.304-5.641-8.937-5.035-9.224,0.301c-0.306,5.685,8.93,5.167,9.22-0.214C235.898,139.526,234.452,139.84,234.429,140.249z"/>
			</g>
		</g>
		<g>
			<g>
				<path fill="#552F2E" d="M195.394,125.758c14.562,0,29.124,0,43.686,0c0.454,0,1.571-0.688,0.6-0.688      c-14.562,0-29.124,0-43.686,0C195.54,125.071,194.422,125.758,195.394,125.758L195.394,125.758z"/>
			</g>
		</g>
		<g>
			<line fill="none" x1="204.194" y1="110.562" x2="199.944" y2="118.437"/>
			<g>
				<path fill="#552F2E" d="M203.858,110.556c-1.417,2.625-2.833,5.25-4.25,7.875c-0.162,0.301,0.563,0.216,0.674,0.012      c1.417-2.625,2.833-5.25,4.25-7.875C204.694,110.267,203.968,110.352,203.858,110.556L203.858,110.556z"/>
			</g>
		</g>
		<g>
			<line fill="none" x1="207.78" y1="111.603" x2="202.821" y2="121.563"/>
			<g>
				<path fill="#552F2E" d="M207.433,111.552c-1.653,3.32-3.306,6.64-4.959,9.96c-0.19,0.382,0.544,0.409,0.697,0.102      c1.653-3.32,3.306-6.64,4.959-9.96C208.319,111.272,207.586,111.245,207.433,111.552L207.433,111.552z"/>
			</g>
		</g>
	</g>
	<g>
		<g opacity="0.5">
			<rect x="534.782" y="94.354" fill="#EB87B4" width="30.25" height="48.284"/>
		</g>
		<g>
			<g>
				<path fill="#552F2E" d="M563.117,143.59c-7.271,0-14.544,0-21.816,0c-2.797,0-5.594,0-8.391,0c0.705,0,0.334-4.706,0.334-5.591      c0-15.188,0-30.375,0-45.562c-0.6,0.238-1.198,0.476-1.797,0.714c7.271,0,14.544,0,21.814,0c2.797,0,5.596,0,8.393,0      c-0.705,0-0.334,4.706-0.334,5.591c0,15.188,0,30.375,0,45.562c0,0.307,2.174,0.008,2.174-0.582c0-17.095,0-34.189,0-51.284      c0-0.127-0.323-0.132-0.377-0.132c-10.083,0-20.166,0-30.25,0c-0.356,0-1.797,0.18-1.797,0.714c0,17.095,0,34.189,0,51.284      c0,0.127,0.322,0.132,0.377,0.132c10.083,0,20.166,0,30.25,0C562.126,144.436,564.164,143.59,563.117,143.59z"/>
			</g>
		</g>
		<g>
			<rect x="477.491" y="92.729" fill="#E5DEDE" width="54.666" height="51.284"/>
			<g>
				<path fill="#552F2E" d="M532.267,143.266c-18.222,0-36.441,0-54.666,0c0.33,0.217,0.659,0.434,0.988,0.65      c0-17.095,0-34.189,0-51.284c-0.4,0.281-0.805,0.562-1.207,0.843c18.222,0,36.443,0,54.666,0      c-0.329-0.217-0.659-0.434-0.987-0.65c0,17.095,0,34.189,0,51.284c0,1.088,2.194,0.716,2.194-0.192c0-17.095,0-34.189,0-51.284      c0-0.559-0.533-0.65-0.987-0.65c-18.223,0-36.442,0-54.666,0c-0.396,0-1.207,0.347-1.207,0.843c0,17.095,0,34.189,0,51.284      c0,0.559,0.531,0.65,0.987,0.65c18.224,0,36.443,0,54.666,0C533.253,144.759,533.746,143.266,532.267,143.266z"/>
			</g>
		</g>
		<polyline fill="none" stroke="#552F2E" stroke-miterlimit="10" points="477.491,144.013 504.825,92.729 531.407,144.013   "/>
		<path fill="#E5DEDE" stroke="#552F2E" stroke-miterlimit="10" d="M629.019,120.496h-67.258"/>
		<g>
			<circle fill="#E5DEDE" cx="629.02" cy="120.496" r="3.499"/>
			<g>
				<path fill="#552F2E" d="M631.799,120.603c-0.094,1.744-1.271,3.452-3.301,2.894c-1.281-0.352-2.032-1.583-2.232-2.814      c-0.304-1.862,1.346-3.719,3.274-3.188c1.424,0.391,2.181,1.823,2.254,3.195c0.021,0.377,1.476,0.102,1.449-0.389      c-0.276-5.13-8.185-4.53-8.442,0.301c-0.279,5.177,8.175,4.663,8.438-0.214C633.266,119.88,631.82,120.194,631.799,120.603z"/>
			</g>
		</g>
	</g>
	<g>
		<path fill="none" stroke="#552F2E" stroke-miterlimit="10" d="M60.468,143.92V40.521h27.834"/>
		<g>
			<circle fill="none" stroke="#552F2E" stroke-width="2" stroke-miterlimit="10" cx="99.236" cy="40.521" r="4.386"/>
			<circle fill="none" stroke="#552F2E" stroke-width="2" stroke-miterlimit="10" cx="99.236" cy="40.521" r="7.386"/>
			<path fill="none" stroke="#552F2E" stroke-width="2" stroke-miterlimit="10" d="M110.175,40.521c0-0.434-0.033-0.859-0.082-1.28     l4.598-3.688l-3.398-5.885l-5.498,2.14c-0.684-0.51-1.422-0.949-2.213-1.29l-0.895-5.818H95.89l-0.893,5.818     c-0.793,0.341-1.531,0.78-2.213,1.291l-5.498-2.141l-3.398,5.886l4.598,3.688c-0.051,0.421-0.082,0.847-0.082,1.28     c0,0.435,0.031,0.861,0.082,1.282l-4.598,3.687l3.398,5.886l5.498-2.141c0.682,0.511,1.42,0.95,2.213,1.29l0.895,5.818h6.795     l0.895-5.818c0.793-0.341,1.529-0.78,2.213-1.291l5.498,2.141l3.398-5.885l-4.598-3.688     C110.142,41.381,110.175,40.955,110.175,40.521z"/>
		</g>
	</g>
	<g>
		<g>
			<rect x="527.03" y="339.425" fill="#E5DEDE" width="2.28" height="38.579"/>
			<g>
				<path fill="#552F2E" d="M529.58,377.545c-1.268,0-1.821,0.582-1.821-0.143c0-1.248,0-2.498,0-3.745c0-4.343,0-8.685,0-13.026      c0-7.083,0-14.165,0-21.248c0,0.776-0.864,0.501,0.93,0.501c-0.143,0-0.104-0.635-0.104,0.144c0,1.248,0,2.496,0,3.744      c0,4.345,0,8.687,0,13.026c0,7.095,0,14.188,0,21.282c0,0.675,1.457,0.395,1.457-0.152c0-12.859,0-25.719,0-38.578      c0-0.254-0.216-0.384-0.46-0.384c-0.76,0-1.521,0-2.281,0c-0.276,0-0.997,0.13-0.997,0.535c0,12.858,0,25.72,0,38.579      c0,0.254,0.216,0.383,0.46,0.383c0.761,0,1.521,0,2.281,0C529.646,378.463,530.561,377.545,529.58,377.545z"/>
			</g>
		</g>
		<g>
			<circle fill="#8BCDC3" cx="530.598" cy="330.13" r="15.675"/>
		</g>
		<g>
			<g>
				<path fill="#552F2E" d="M543.12,330.227c-0.431,10.131-9.425,17.367-19.564,14.273c-6.39-1.95-10.063-8.32-10.334-14.662      c-0.438-10.284,10.188-17.137,19.564-14.274C539.176,317.514,542.851,323.886,543.12,330.227      c0.017,0.385,1.471,0.112,1.449-0.389c-0.896-21.017-31.921-20.198-32.799,0.389c-0.39,9.164,8.718,16.916,17.64,15.771      c8.563-1.1,14.787-7.405,15.159-16.16C544.584,329.484,543.143,329.714,543.12,330.227z"/>
			</g>
		</g>
		<g>
			<g>
				<g>
					<path fill="#552F2E" d="M520.459,323.26c-0.934,2.844-0.539,6.236-0.707,9.205c-0.11,1.95,2.959,1.26,4.053,1.199       c0.825-0.046,1.111-1.133,0.123-1.078c-0.594,0.033-1.186,0.105-1.777,0.148c-1.449,0.105-0.902-1.948-0.85-2.793       c0.135-2.11-0.118-4.483,0.547-6.506C522.111,322.631,520.664,322.639,520.459,323.26L520.459,323.26z"/>
				</g>
			</g>
			<g>
				<g>
					<path fill="#552F2E" d="M526.634,332.766c-0.646-0.396-0.974-1.057-1.117-1.783c-0.083-0.416-0.105-1.414,0.519-1.355       c0.807,0.073,1.187,0.793,1.239,1.533c0.024,0.384-0.065,1.617-0.663,1.563c-0.739-0.074-1.471,1.002-0.49,1.098       c3.058,0.302,3.591-4.533,0.737-5.223c-1.319-0.316-2.529,0.313-2.813,1.666c-0.256,1.229,0.422,2.725,1.479,3.366       C526.097,333.977,527.35,333.2,526.634,332.766L526.634,332.766z"/>
				</g>
			</g>
			<g>
				<g>
					<path fill="#552F2E" d="M536.357,332.77c-0.649-0.396-0.977-1.06-1.118-1.787c-0.083-0.416-0.109-1.422,0.515-1.363       c0.811,0.072,1.189,0.804,1.242,1.543c0.026,0.385-0.065,1.625-0.662,1.564c-0.729-0.07-1.473,0.986-0.494,1.082       c3.055,0.301,3.595-4.518,0.741-5.205c-1.313-0.315-2.531,0.313-2.813,1.66c-0.257,1.229,0.423,2.717,1.479,3.359       C535.809,333.966,537.068,333.202,536.357,332.77L536.357,332.77z"/>
				</g>
			</g>
			<g>
				<g>
					<path fill="#552F2E" d="M533.677,328.875c-1.27-1.119-2.87-0.948-4.014,0.316c-0.872,0.963-1.218,2.92-0.134,3.82       c0.972,0.807,2.929,0.975,3.827-0.045c0.383-0.434,0.521-1.188,0.161-1.683c-0.423-0.58-1.205-0.521-1.816-0.323       c-0.618,0.2-0.896,0.796-0.021,0.691c0.522-0.063,1.05-0.08,1.57-0.144c0.261-0.03,0.742-0.171,0.83-0.467       c0.091-0.308-0.46-0.283-0.613-0.267c-0.521,0.063-1.048,0.082-1.568,0.144c-0.007,0.231-0.016,0.462-0.021,0.692       c0.477-0.153,0.469,1.271,0.251,1.287c-0.633,0.045-1.387-0.393-1.683-0.94c-0.331-0.617-0.059-1.5,0.172-2.103       c0.132-0.349,0.322-0.629,0.601-0.871c0.372-0.323,0.829,0.187,1.109,0.434C532.684,329.738,534.029,329.186,533.677,328.875       L533.677,328.875z"/>
				</g>
			</g>
		</g>
	</g>
	<g>
		
		<rect x="612.49" y="185.807" transform="matrix(0.7072 0.7071 -0.7071 0.7072 315.2462 -380.5195)" fill="#E5DEDE" width="9.02" height="9.02"/>
		<g>
			<path fill="#552F2E" d="M617.667,196.386c-2.117-2.117-4.235-4.235-6.354-6.352c0.224,0.221-0.275,0.65,0.128,0.248     c0.193-0.195,0.391-0.391,0.586-0.586c0.733-0.736,1.472-1.471,2.207-2.207c1.12-1.122,2.243-2.244,3.365-3.365     c-0.422,0.041-0.844,0.083-1.265,0.124c2.117,2.117,4.234,4.234,6.352,6.351c-0.222-0.221,0.277-0.65-0.126-0.248     c-0.193,0.195-0.391,0.391-0.586,0.586c-0.733,0.735-1.471,1.471-2.206,2.207c-1.121,1.122-2.243,2.244-3.364,3.366     c-0.634,0.633,0.777,0.786,1.195,0.368c2.125-2.126,4.251-4.252,6.377-6.378c0.115-0.116,0.207-0.353,0.067-0.492     c-2.126-2.125-4.251-4.251-6.377-6.377c-0.339-0.339-0.957-0.183-1.265,0.124c-2.126,2.126-4.253,4.251-6.38,6.377     c-0.114,0.116-0.207,0.353-0.066,0.492c2.126,2.126,4.253,4.252,6.379,6.378C616.766,197.433,618.14,196.859,617.667,196.386z"/>
		</g>
	</g>
	<g>
		<g opacity="0.6">
			<path fill="#67E4B3" d="M817.876,457.321l-30.381-80.104c0,0-3.276-10.521-16.377-8.403l37.177,98.021l6.857-2.602     C815.152,464.235,819.766,462.308,817.876,457.321z"/>
		</g>
		<g>
			<g>
				<path fill="#552F2E" d="M816.963,457.03c-6.854-18.07-13.707-36.14-20.561-54.21c-3.133-8.26-6.268-16.52-9.397-24.776      c-2.942-7.762-9.544-11.058-17.782-9.994c-0.421,0.056-1.429,0.431-1.189,1.058c12.393,32.675,24.785,65.349,37.177,98.021      c0.241,0.635,1.063,0.508,1.563,0.319C811.818,465.531,818.958,464.104,816.963,457.03c-0.271-0.971-2.445-0.382-2.174,0.582      c1.729,6.138-4.727,7.005-8.968,8.612c0.521,0.106,1.04,0.215,1.561,0.319c-12.393-32.674-24.785-65.349-37.177-98.021      c-0.397,0.354-0.794,0.705-1.191,1.058c9.37-1.209,13.788,3.692,16.683,11.321c3.407,8.988,6.816,17.978,10.228,26.966      c6.289,16.581,12.578,33.163,18.867,49.744C815.15,458.563,817.311,457.946,816.963,457.03z"/>
			</g>
		</g>
		<g>
			<g>
				<path fill="#552F2E" d="M814.393,424.987c-3.629-9.567-7.258-19.136-10.887-28.703c-3.012-7.941-5.268-15.077-15.679-14.031      c-0.125,0.013-1.144,0.208-1.046,0.46c6.305,16.622,12.607,33.244,18.913,49.867c0.117,0.313,1.223-0.111,1.376-0.265      c2.417-2.401,4.833-4.805,7.249-7.204c0.272-0.272-1.071-0.093-1.305,0.141c-2.417,2.401-4.833,4.803-7.249,7.204      c0.458-0.089,0.917-0.177,1.376-0.265c-6.305-16.623-12.606-33.244-18.913-49.867c-0.349,0.152-0.695,0.307-1.046,0.46      c11.265-1.132,12.991,8.928,16.099,17.114c3.221,8.492,6.439,16.983,9.662,25.478      C813.061,425.685,814.482,425.226,814.393,424.987z"/>
			</g>
		</g>
		<g>
			<g>
				<path fill="#552F2E" d="M803.811,469.463c-8.57-22.601-17.144-45.202-25.716-67.803c-4.041-10.655-8.082-21.311-12.123-31.967      c-0.229-0.607-0.462-1.215-0.69-1.823c0.249,0.655,1.859-0.31,3.109-0.784c-0.754,0.286-0.974-0.652-0.615,0.288      c1.222,3.222,2.441,6.442,3.666,9.664c7.278,19.196,14.562,38.396,21.843,57.593c3.198,8.435,6.396,16.865,9.595,25.298      c0.876,2.313,1.753,4.622,2.629,6.935c0.188,0.488,0.371,0.979,0.56,1.469c-0.031-0.081,0.854-0.617-0.285-0.184      c-1,0.379-1.999,0.758-2.999,1.137c-0.938,0.354-0.099,1.017,0.611,0.748c1.247-0.476,2.493-0.946,3.74-1.419      c0.188-0.071,0.51-0.326,0.418-0.568c-12.846-33.868-25.688-67.735-38.535-101.604c-0.152-0.405-0.724-0.297-1.029-0.181      c-1.247,0.474-2.493,0.946-3.74,1.419c-0.186,0.071-0.51,0.326-0.418,0.568c12.846,33.868,25.689,67.736,38.535,101.604      C802.588,470.447,804.025,470.031,803.811,469.463z"/>
			</g>
		</g>
		<g>
			<path fill="#E5DEDE" d="M773.882,390.538c-3.573,1.354-7.563-0.442-8.922-4.017c-1.354-3.567,0.443-7.563,4.014-8.918     c3.573-1.354,7.566,0.443,8.92,4.015C779.249,385.191,777.453,389.184,773.882,390.538z"/>
			<g>
				<path fill="#552F2E" d="M773.754,390.447c-7.66,2.471-11.938-7.838-5.754-12.201c3.889-2.745,8.525,0.35,9.749,4.145      c1.079,3.346-1.055,6.769-4.078,8.094c-0.438,0.191,0.243,0.188,0.422,0.108c3.893-1.704,5.606-5.776,3.879-9.72      c-1.557-3.555-5.767-4.441-9.126-3.359c-4.089,1.318-5.585,6.059-3.964,9.756c1.561,3.555,5.769,4.442,9.128,3.359      C774.501,390.471,774.036,390.355,773.754,390.447z"/>
			</g>
		</g>
		<g>
			<g>
				<path fill="#552F2E" d="M772.469,386.693c-3.063,0.988-4.802-3.354-2.317-5.104c2.783-1.965,5.54,3.677,2.131,5.171      c-0.919,0.402-0.088,1.004,0.602,0.701c1.895-0.83,2.965-2.704,2.313-4.736c-0.671-2.082-3.146-2.719-5.028-2.107      c-2.033,0.656-3.153,2.773-2.499,4.804c0.673,2.084,3.143,2.718,5.028,2.106C773.551,387.251,773.343,386.411,772.469,386.693z"/>
			</g>
		</g>
		<g>
			<circle fill="#E5DEDE" cx="797.631" cy="453.159" r="6.918"/>
			<g>
				<path fill="#552F2E" d="M799.962,459.559c-7.426,2.395-11.69-7.188-6.271-11.881c3.979-3.445,9.003-0.103,10.262,3.8      c1.075,3.339-1.044,6.785-4.075,8.114c-0.436,0.19,0.252,0.145,0.412,0.072c3.889-1.704,5.618-5.75,3.886-9.703      c-1.557-3.553-5.764-4.422-9.119-3.34c-4.089,1.315-5.596,6.028-3.971,9.737c1.559,3.554,5.764,4.421,9.12,3.339      C800.7,459.538,800.229,459.473,799.962,459.559z"/>
			</g>
		</g>
		<g>
			<g>
				<path fill="#552F2E" d="M798.71,455.922c-3.091,0.997-4.694-3.38-2.519-5.263c2.588-2.239,5.967,3.729,2.328,5.324      c-0.938,0.408-0.059,0.687,0.526,0.43c1.869-0.819,3.01-2.543,2.349-4.603c-0.673-2.088-3.151-2.56-4.99-1.967      c-2.005,0.647-3.2,2.604-2.535,4.658c0.677,2.089,3.143,2.566,4.989,1.971C799.69,456.206,799.558,455.648,798.71,455.922z"/>
			</g>
		</g>
		<g>
			<g>
				<path fill="#552F2E" d="M805.78,405.262c-5.923,4.774-11.848,9.549-17.771,14.324c-0.766,0.617,0.43,0.955,0.934,0.549      c5.923-4.773,11.846-9.549,17.769-14.324C807.479,405.193,806.284,404.855,805.78,405.262L805.78,405.262z"/>
			</g>
		</g>
		<g>
			<g>
				<path fill="#552F2E" d="M804.876,430.104c-3.352,2.756-6.702,5.513-10.053,8.27c-0.312,0.255,1.044,0.108,1.311-0.111      c3.354-2.756,6.702-5.513,10.053-8.27C806.496,429.738,805.143,429.885,804.876,430.104L804.876,430.104z"/>
			</g>
		</g>
		<g>
			<g>
				<path fill="#552F2E" d="M791.205,393.678c-3.352,2.756-6.702,5.514-10.054,8.271c-0.665,0.547,0.771,0.651,1.184,0.315      c3.351-2.757,6.702-5.514,10.054-8.27C793.054,393.447,791.615,393.341,791.205,393.678L791.205,393.678z"/>
			</g>
		</g>
		<g>
			<g>
				<path fill="#552F2E" d="M799.108,387.426c-2.887,1.096-5.771,2.188-8.656,3.283c-0.938,0.355-0.097,1.007,0.609,0.738      c2.887-1.096,5.771-2.188,8.656-3.283C800.657,387.809,799.815,387.157,799.108,387.426L799.108,387.426z"/>
			</g>
		</g>
		<g>
			<g>
				<path fill="#552F2E" d="M803.255,437.429c2.563,6.752,5.122,13.505,7.683,20.258c0.195,0.516,1.631,0.087,1.449-0.389      c-2.561-6.752-5.122-13.505-7.683-20.258C804.509,436.526,803.075,436.955,803.255,437.429L803.255,437.429z"/>
			</g>
		</g>
		<g>
			<g>
				<path fill="#552F2E" d="M795.546,417.1c0.579,1.529,1.159,3.061,1.738,4.59c0.177,0.465,1.605,0.027,1.449-0.391      c-0.579-1.529-1.159-3.059-1.738-4.588C796.818,416.246,795.388,416.682,795.546,417.1L795.546,417.1z"/>
			</g>
		</g>
		<g>
			<g>
				<path fill="#552F2E" d="M788.811,399.344c0.697,1.838,1.396,3.678,2.093,5.516c0.129,0.341,1.553-0.113,1.447-0.389      c-0.695-1.838-1.394-3.677-2.091-5.516C790.131,398.616,788.707,399.07,788.811,399.344L788.811,399.344z"/>
			</g>
		</g>
		<g>
			<g>
				<path fill="#552F2E" d="M815.176,461.773c0.572,1.509,1.146,3.018,1.719,4.524c0.133-0.217,0.266-0.433,0.396-0.647      c-1.459,0.554-2.918,1.105-4.377,1.66c0.351,0.088,0.701,0.175,1.053,0.262c-0.394-1.038-0.788-2.077-1.182-3.116      c-0.261-0.688-1.704-0.283-1.449,0.389c0.395,1.038,0.788,2.077,1.182,3.116c0.17,0.444,0.688,0.399,1.055,0.261      c1.459-0.554,2.918-1.105,4.377-1.661c0.22-0.083,0.493-0.394,0.396-0.647c-0.572-1.509-1.146-3.02-1.718-4.526      C816.364,460.697,814.921,461.102,815.176,461.773L815.176,461.773z"/>
			</g>
		</g>
	</g>
	<g>
		<g>
			<path fill="#E5DEDE" d="M247.7,581.935c0,7.427-6.076,13.501-13.502,13.501h-46.791c-7.425,0-13.501-6.074-13.501-13.501v-0.985     c0-7.425,6.076-13.501,13.501-13.501h46.791c7.426,0,13.502,6.076,13.502,13.501V581.935z"/>
		</g>
		<g>
			<g>
				<path fill="#552F2E" d="M244.966,582.987c-0.354,6.954-5.414,12.908-12.733,12.908c-1.368,0-2.736,0-4.104,0      c-6.586,0-13.172,0-19.758,0c-6.448,0-12.896,0-19.343,0c-1.585,0-3.164,0.016-4.747-0.064      c-7.247-0.369-11.64-7.313-11.64-13.938c0-6.966,5.692-12.907,12.732-12.907c1.368,0,2.736,0,4.104,0c6.586,0,13.172,0,19.758,0      c6.448,0,12.896,0,19.343,0c1.585,0,3.164-0.017,4.747,0.063C240.572,569.42,244.966,576.362,244.966,582.987      c0,0.771,1.469,0.559,1.469-0.105c0-8.119-5.752-14.975-14.202-14.975c-4.733,0-9.467,0-14.201,0c-7.839,0-15.677,0-23.516,0      c-4.768,0-9.94-0.574-14.486,1.099c-8.249,3.035-10.792,13.146-7.212,20.544c2.766,5.722,8.774,7.425,14.592,7.425      c13.723,0,27.445,0,41.168,0c9.071,0,17.332-3.778,17.856-14.093C246.474,582.115,245,582.319,244.966,582.987z"/>
			</g>
		</g>
		<g>
			<g>
				<path fill="#552F2E" d="M205.907,568.809c0,24.603,0,49.201,0,73.805c0,2.431,5.796,1.179,5.796-0.727c0-24.601,0-49.2,0-73.803      C211.703,565.653,205.907,566.905,205.907,568.809L205.907,568.809z"/>
			</g>
		</g>
	</g>
</g>


</svg>
